<?xml version="1.0" encoding="UTF-8" standalone="no"?>
<!DOCTYPE svg PUBLIC "-//W3C//DTD SVG 1.1//EN"
 "http://www.w3.org/Graphics/SVG/1.1/DTD/svg11.dtd">
<!-- Generated by graphviz version 2.43.0 (0)
 -->
<!-- Title: %3 Pages: 1 -->
<svg width="1082pt" height="332pt"
 viewBox="0.00 0.00 1082.00 332.00" xmlns="http://www.w3.org/2000/svg" xmlns:xlink="http://www.w3.org/1999/xlink">
<g id="graph0" class="graph" transform="scale(1 1) rotate(0) translate(4 328)">
<title>%3</title>
<polygon fill="#ffffff" stroke="transparent" points="-4,4 -4,-328 1078,-328 1078,4 -4,4"/>
<!-- X1 -->
<g id="node1" class="node">
<title>X1</title>
<polygon fill="#ffffff" stroke="black" points="202,-208 0,-208 0,-116 202,-116 202,-208"/>
<polygon fill="#ffffff" stroke="transparent" points="0,-116 0,-208 202,-208 202,-116 0,-116"/>
<polygon fill="#ffffff" stroke="transparent" points="0,-185 0,-208 202,-208 202,-185 0,-185"/>
<polygon fill="none" stroke="black" points="0,-185 0,-208 202,-208 202,-185 0,-185"/>
<text text-anchor="start" x="84.5" y="-193.8" font-family="arial" font-size="14.00"> </text>
<text text-anchor="start" x="88.5" y="-193.8" font-family="arial" font-weight="bold" font-size="14.00"> X1 </text>
<text text-anchor="start" x="113.5" y="-193.8" font-family="arial" font-size="14.00"> </text>
<polygon fill="none" stroke="black" points="0,-162 0,-185 110,-185 110,-162 0,-162"/>
<text text-anchor="start" x="4" y="-169.8" font-family="arial" font-size="14.00"> Molex Micro&#45;Fit </text>
<polygon fill="none" stroke="black" points="110,-162 110,-185 156,-185 156,-162 110,-162"/>
<text text-anchor="start" x="114" y="-169.8" font-family="arial" font-size="14.00"> male </text>
<polygon fill="none" stroke="black" points="156,-162 156,-185 202,-185 202,-162 156,-162"/>
<text text-anchor="start" x="160" y="-169.8" font-family="arial" font-size="14.00"> 2&#45;pin </text>
<polygon fill="none" stroke="black" points="0,-139 0,-162 135,-162 135,-139 0,-139"/>
<text text-anchor="start" x="48" y="-146.8" font-family="arial" font-size="14.00"> GND </text>
<polygon fill="none" stroke="black" points="135,-139 135,-162 202,-162 202,-139 135,-139"/>
<text text-anchor="start" x="160.5" y="-146.8" font-family="arial" font-size="14.00"> 1 </text>
<polygon fill="none" stroke="black" points="0,-116 0,-139 135,-139 135,-116 0,-116"/>
<text text-anchor="start" x="49" y="-123.8" font-family="arial" font-size="14.00"> VCC </text>
<polygon fill="none" stroke="black" points="135,-116 135,-139 202,-139 202,-116 135,-116"/>
<text text-anchor="start" x="160.5" y="-123.8" font-family="arial" font-size="14.00"> 2 </text>
</g>
<!-- W1 -->
<g id="node5" class="node">
<title>W1</title>
<polygon fill="#ffffff" stroke="black" points="645,-288 418,-288 418,-54 645,-54 645,-288"/>
<polygon fill="#ffffff" stroke="transparent" points="418,-54 418,-288 645,-288 645,-54 418,-54"/>
<polygon fill="#ffffff" stroke="transparent" points="418.5,-265 418.5,-288 645.5,-288 645.5,-265 418.5,-265"/>
<polygon fill="none" stroke="black" points="418.5,-265 418.5,-288 645.5,-288 645.5,-265 418.5,-265"/>
<text text-anchor="start" x="513.5" y="-273.8" font-family="arial" font-size="14.00"> </text>
<text text-anchor="start" x="517.5" y="-273.8" font-family="arial" font-weight="bold" font-size="14.00"> W1 </text>
<text text-anchor="start" x="546.5" y="-273.8" font-family="arial" font-size="14.00"> </text>
<polygon fill="none" stroke="black" points="418.5,-242 418.5,-265 448.5,-265 448.5,-242 418.5,-242"/>
<text text-anchor="start" x="422.5" y="-249.8" font-family="arial" font-size="14.00"> 6x </text>
<polygon fill="none" stroke="black" points="448.5,-242 448.5,-265 587.5,-265 587.5,-242 448.5,-242"/>
<text text-anchor="start" x="452.5" y="-249.8" font-family="arial" font-size="14.00"> 0.25 mm² (24 AWG) </text>
<polygon fill="none" stroke="black" points="587.5,-242 587.5,-265 645.5,-265 645.5,-242 587.5,-242"/>
<text text-anchor="start" x="591.5" y="-249.8" font-family="arial" font-size="14.00"> 0.20 m </text>
<text text-anchor="start" x="456" y="-228.8" font-family="arial" font-size="14.00"> </text>
<text text-anchor="start" x="420.5" y="-209.8" font-family="arial" font-size="14.00"> X1:1:GND </text>
<text text-anchor="start" x="502" y="-209.8" font-family="arial" font-size="14.00"> </text>
<text text-anchor="start" x="516" y="-209.8" font-family="arial" font-size="14.00"> 1:BK </text>
<text text-anchor="start" x="562.5" y="-209.8" font-family="arial" font-size="14.00"> </text>
<text text-anchor="start" x="576.5" y="-209.8" font-family="arial" font-size="14.00"> X2:1:GND</text>
<polygon fill="#000000" stroke="transparent" points="418.5,-202 418.5,-204 645.5,-204 645.5,-202 418.5,-202"/>
<polygon fill="#000000" stroke="transparent" points="418.5,-200 418.5,-202 645.5,-202 645.5,-200 418.5,-200"/>
<polygon fill="#000000" stroke="transparent" points="418.5,-198 418.5,-200 645.5,-200 645.5,-198 418.5,-198"/>
<text text-anchor="start" x="420.5" y="-184.8" font-family="arial" font-size="14.00"> X1:2:VCC </text>
<text text-anchor="start" x="502" y="-184.8" font-family="arial" font-size="14.00"> </text>
<text text-anchor="start" x="515" y="-184.8" font-family="arial" font-size="14.00"> 2:RD </text>
<text text-anchor="start" x="562.5" y="-184.8" font-family="arial" font-size="14.00"> </text>
<text text-anchor="start" x="579.5" y="-184.8" font-family="arial" font-size="14.00"> X2:2:VCC</text>
<polygon fill="#000000" stroke="transparent" points="418.5,-177 418.5,-179 645.5,-179 645.5,-177 418.5,-177"/>
<polygon fill="#ff0000" stroke="transparent" points="418.5,-175 418.5,-177 645.5,-177 645.5,-175 418.5,-175"/>
<polygon fill="#000000" stroke="transparent" points="418.5,-173 418.5,-175 645.5,-175 645.5,-173 418.5,-173"/>
<text text-anchor="start" x="420.5" y="-159.8" font-family="arial" font-size="14.00"> X1:1:GND </text>
<text text-anchor="start" x="502" y="-159.8" font-family="arial" font-size="14.00"> </text>
<text text-anchor="start" x="516" y="-159.8" font-family="arial" font-size="14.00"> 3:BK </text>
<text text-anchor="start" x="562.5" y="-159.8" font-family="arial" font-size="14.00"> </text>
<text text-anchor="start" x="576.5" y="-159.8" font-family="arial" font-size="14.00"> X3:1:GND</text>
<polygon fill="#000000" stroke="transparent" points="418.5,-152 418.5,-154 645.5,-154 645.5,-152 418.5,-152"/>
<polygon fill="#000000" stroke="transparent" points="418.5,-150 418.5,-152 645.5,-152 645.5,-150 418.5,-150"/>
<polygon fill="#000000" stroke="transparent" points="418.5,-148 418.5,-150 645.5,-150 645.5,-148 418.5,-148"/>
<text text-anchor="start" x="420.5" y="-134.8" font-family="arial" font-size="14.00"> X1:2:VCC </text>
<text text-anchor="start" x="502" y="-134.8" font-family="arial" font-size="14.00"> </text>
<text text-anchor="start" x="515" y="-134.8" font-family="arial" font-size="14.00"> 4:RD </text>
<text text-anchor="start" x="562.5" y="-134.8" font-family="arial" font-size="14.00"> </text>
<text text-anchor="start" x="579.5" y="-134.8" font-family="arial" font-size="14.00"> X3:2:VCC</text>
<polygon fill="#000000" stroke="transparent" points="418.5,-127 418.5,-129 645.5,-129 645.5,-127 418.5,-127"/>
<polygon fill="#ff0000" stroke="transparent" points="418.5,-125 418.5,-127 645.5,-127 645.5,-125 418.5,-125"/>
<polygon fill="#000000" stroke="transparent" points="418.5,-123 418.5,-125 645.5,-125 645.5,-123 418.5,-123"/>
<text text-anchor="start" x="420.5" y="-109.8" font-family="arial" font-size="14.00"> X1:1:GND </text>
<text text-anchor="start" x="502" y="-109.8" font-family="arial" font-size="14.00"> </text>
<text text-anchor="start" x="516" y="-109.8" font-family="arial" font-size="14.00"> 5:BK </text>
<text text-anchor="start" x="562.5" y="-109.8" font-family="arial" font-size="14.00"> </text>
<text text-anchor="start" x="576.5" y="-109.8" font-family="arial" font-size="14.00"> X4:1:GND</text>
<polygon fill="#000000" stroke="transparent" points="418.5,-102 418.5,-104 645.5,-104 645.5,-102 418.5,-102"/>
<polygon fill="#000000" stroke="transparent" points="418.5,-100 418.5,-102 645.5,-102 645.5,-100 418.5,-100"/>
<polygon fill="#000000" stroke="transparent" points="418.5,-98 418.5,-100 645.5,-100 645.5,-98 418.5,-98"/>
<text text-anchor="start" x="420.5" y="-84.8" font-family="arial" font-size="14.00"> X1:2:VCC </text>
<text text-anchor="start" x="502" y="-84.8" font-family="arial" font-size="14.00"> </text>
<text text-anchor="start" x="515" y="-84.8" font-family="arial" font-size="14.00"> 6:RD </text>
<text text-anchor="start" x="562.5" y="-84.8" font-family="arial" font-size="14.00"> </text>
<text text-anchor="start" x="579.5" y="-84.8" font-family="arial" font-size="14.00"> X4:2:VCC</text>
<polygon fill="#000000" stroke="transparent" points="418.5,-77 418.5,-79 645.5,-79 645.5,-77 418.5,-77"/>
<polygon fill="#ff0000" stroke="transparent" points="418.5,-75 418.5,-77 645.5,-77 645.5,-75 418.5,-75"/>
<polygon fill="#000000" stroke="transparent" points="418.5,-73 418.5,-75 645.5,-75 645.5,-73 418.5,-73"/>
<text text-anchor="start" x="456" y="-59.8" font-family="arial" font-size="14.00"> </text>
</g>
<!-- X1&#45;&#45;W1 -->
<g id="edge1" class="edge">
<title>X1:e&#45;&#45;W1:w</title>
<path fill="none" stroke="#000000" stroke-width="2" d="M202,-150C202.46,-148.05 418.46,-199.05 418,-201"/>
<path fill="none" stroke="#000000" stroke-width="2" d="M202,-150C202,-150 418,-201 418,-201"/>
<path fill="none" stroke="#000000" stroke-width="2" d="M202,-150C201.54,-151.95 417.54,-202.95 418,-201"/>
</g>
<!-- X1&#45;&#45;W1 -->
<g id="edge3" class="edge">
<title>X1:e&#45;&#45;W1:w</title>
<path fill="none" stroke="#000000" stroke-width="2" d="M202,-127C202.44,-125.05 418.44,-174.05 418,-176"/>
<path fill="none" stroke="#ff0000" stroke-width="2" d="M202,-127C202,-127 418,-176 418,-176"/>
<path fill="none" stroke="#000000" stroke-width="2" d="M202,-127C201.56,-128.95 417.56,-177.95 418,-176"/>
</g>
<!-- X1&#45;&#45;W1 -->
<g id="edge5" class="edge">
<title>X1:e&#45;&#45;W1:w</title>
<path fill="none" stroke="#000000" stroke-width="2" d="M202,-150C202.01,-148 418.01,-149 418,-151"/>
<path fill="none" stroke="#000000" stroke-width="2" d="M202,-150C202,-150 418,-151 418,-151"/>
<path fill="none" stroke="#000000" stroke-width="2" d="M202,-150C201.99,-152 417.99,-153 418,-151"/>
</g>
<!-- X1&#45;&#45;W1 -->
<g id="edge7" class="edge">
<title>X1:e&#45;&#45;W1:w</title>
<path fill="none" stroke="#000000" stroke-width="2" d="M202,-127C201.99,-125 417.99,-124 418,-126"/>
<path fill="none" stroke="#ff0000" stroke-width="2" d="M202,-127C202,-127 418,-126 418,-126"/>
<path fill="none" stroke="#000000" stroke-width="2" d="M202,-127C202.01,-129 418.01,-128 418,-126"/>
</g>
<!-- X1&#45;&#45;W1 -->
<g id="edge9" class="edge">
<title>X1:e&#45;&#45;W1:w</title>
<path fill="none" stroke="#000000" stroke-width="2" d="M202,-150C201.56,-148.05 417.56,-99.05 418,-101"/>
<path fill="none" stroke="#000000" stroke-width="2" d="M202,-150C202,-150 418,-101 418,-101"/>
<path fill="none" stroke="#000000" stroke-width="2" d="M202,-150C202.44,-151.95 418.44,-102.95 418,-101"/>
</g>
<!-- X1&#45;&#45;W1 -->
<g id="edge11" class="edge">
<title>X1:e&#45;&#45;W1:w</title>
<path fill="none" stroke="#000000" stroke-width="2" d="M202,-127C201.54,-125.05 417.54,-74.05 418,-76"/>
<path fill="none" stroke="#ff0000" stroke-width="2" d="M202,-127C202,-127 418,-76 418,-76"/>
<path fill="none" stroke="#000000" stroke-width="2" d="M202,-127C202.46,-128.95 418.46,-77.95 418,-76"/>
</g>
<!-- X2 -->
<g id="node2" class="node">
<title>X2</title>
<polygon fill="#ffffff" stroke="black" points="1074,-324 861,-324 861,-232 1074,-232 1074,-324"/>
<polygon fill="#ffffff" stroke="transparent" points="861,-232 861,-324 1074,-324 1074,-232 861,-232"/>
<polygon fill="#ffffff" stroke="transparent" points="861.5,-301 861.5,-324 1074.5,-324 1074.5,-301 861.5,-301"/>
<polygon fill="none" stroke="black" points="861.5,-301 861.5,-324 1074.5,-324 1074.5,-301 861.5,-301"/>
<text text-anchor="start" x="951.5" y="-309.8" font-family="arial" font-size="14.00"> </text>
<text text-anchor="start" x="955.5" y="-309.8" font-family="arial" font-weight="bold" font-size="14.00"> X2 </text>
<text text-anchor="start" x="980.5" y="-309.8" font-family="arial" font-size="14.00"> </text>
<polygon fill="none" stroke="black" points="861.5,-278 861.5,-301 971.5,-301 971.5,-278 861.5,-278"/>
<text text-anchor="start" x="865.5" y="-285.8" font-family="arial" font-size="14.00"> Molex Micro&#45;Fit </text>
<polygon fill="none" stroke="black" points="971.5,-278 971.5,-301 1028.5,-301 1028.5,-278 971.5,-278"/>
<text text-anchor="start" x="975.5" y="-285.8" font-family="arial" font-size="14.00"> female </text>
<polygon fill="none" stroke="black" points="1028.5,-278 1028.5,-301 1074.5,-301 1074.5,-278 1028.5,-278"/>
<text text-anchor="start" x="1032.5" y="-285.8" font-family="arial" font-size="14.00"> 2&#45;pin </text>
<polygon fill="none" stroke="black" points="861.5,-255 861.5,-278 933.5,-278 933.5,-255 861.5,-255"/>
<text text-anchor="start" x="889.5" y="-262.8" font-family="arial" font-size="14.00"> 1 </text>
<polygon fill="none" stroke="black" points="933.5,-255 933.5,-278 1074.5,-278 1074.5,-255 933.5,-255"/>
<text text-anchor="start" x="984.5" y="-262.8" font-family="arial" font-size="14.00"> GND </text>
<polygon fill="none" stroke="black" points="861.5,-232 861.5,-255 933.5,-255 933.5,-232 861.5,-232"/>
<text text-anchor="start" x="889.5" y="-239.8" font-family="arial" font-size="14.00"> 2 </text>
<polygon fill="none" stroke="black" points="933.5,-232 933.5,-255 1074.5,-255 1074.5,-232 933.5,-232"/>
<text text-anchor="start" x="985.5" y="-239.8" font-family="arial" font-size="14.00"> VCC </text>
</g>
<!-- X3 -->
<g id="node3" class="node">
<title>X3</title>
<polygon fill="#ffffff" stroke="black" points="1074,-208 861,-208 861,-116 1074,-116 1074,-208"/>
<polygon fill="#ffffff" stroke="transparent" points="861,-116 861,-208 1074,-208 1074,-116 861,-116"/>
<polygon fill="#ffffff" stroke="transparent" points="861.5,-185 861.5,-208 1074.5,-208 1074.5,-185 861.5,-185"/>
<polygon fill="none" stroke="black" points="861.5,-185 861.5,-208 1074.5,-208 1074.5,-185 861.5,-185"/>
<text text-anchor="start" x="951.5" y="-193.8" font-family="arial" font-size="14.00"> </text>
<text text-anchor="start" x="955.5" y="-193.8" font-family="arial" font-weight="bold" font-size="14.00"> X3 </text>
<text text-anchor="start" x="980.5" y="-193.8" font-family="arial" font-size="14.00"> </text>
<polygon fill="none" stroke="black" points="861.5,-162 861.5,-185 971.5,-185 971.5,-162 861.5,-162"/>
<text text-anchor="start" x="865.5" y="-169.8" font-family="arial" font-size="14.00"> Molex Micro&#45;Fit </text>
<polygon fill="none" stroke="black" points="971.5,-162 971.5,-185 1028.5,-185 1028.5,-162 971.5,-162"/>
<text text-anchor="start" x="975.5" y="-169.8" font-family="arial" font-size="14.00"> female </text>
<polygon fill="none" stroke="black" points="1028.5,-162 1028.5,-185 1074.5,-185 1074.5,-162 1028.5,-162"/>
<text text-anchor="start" x="1032.5" y="-169.8" font-family="arial" font-size="14.00"> 2&#45;pin </text>
<polygon fill="none" stroke="black" points="861.5,-139 861.5,-162 933.5,-162 933.5,-139 861.5,-139"/>
<text text-anchor="start" x="889.5" y="-146.8" font-family="arial" font-size="14.00"> 1 </text>
<polygon fill="none" stroke="black" points="933.5,-139 933.5,-162 1074.5,-162 1074.5,-139 933.5,-139"/>
<text text-anchor="start" x="984.5" y="-146.8" font-family="arial" font-size="14.00"> GND </text>
<polygon fill="none" stroke="black" points="861.5,-116 861.5,-139 933.5,-139 933.5,-116 861.5,-116"/>
<text text-anchor="start" x="889.5" y="-123.8" font-family="arial" font-size="14.00"> 2 </text>
<polygon fill="none" stroke="black" points="933.5,-116 933.5,-139 1074.5,-139 1074.5,-116 933.5,-116"/>
<text text-anchor="start" x="985.5" y="-123.8" font-family="arial" font-size="14.00"> VCC </text>
</g>
<!-- X4 -->
<g id="node4" class="node">
<title>X4</title>
<polygon fill="#ffffff" stroke="black" points="1074,-92 861,-92 861,0 1074,0 1074,-92"/>
<polygon fill="#ffffff" stroke="transparent" points="861,0 861,-92 1074,-92 1074,0 861,0"/>
<polygon fill="#ffffff" stroke="transparent" points="861.5,-69 861.5,-92 1074.5,-92 1074.5,-69 861.5,-69"/>
<polygon fill="none" stroke="black" points="861.5,-69 861.5,-92 1074.5,-92 1074.5,-69 861.5,-69"/>
<text text-anchor="start" x="951.5" y="-77.8" font-family="arial" font-size="14.00"> </text>
<text text-anchor="start" x="955.5" y="-77.8" font-family="arial" font-weight="bold" font-size="14.00"> X4 </text>
<text text-anchor="start" x="980.5" y="-77.8" font-family="arial" font-size="14.00"> </text>
<polygon fill="none" stroke="black" points="861.5,-46 861.5,-69 971.5,-69 971.5,-46 861.5,-46"/>
<text text-anchor="start" x="865.5" y="-53.8" font-family="arial" font-size="14.00"> Molex Micro&#45;Fit </text>
<polygon fill="none" stroke="black" points="971.5,-46 971.5,-69 1028.5,-69 1028.5,-46 971.5,-46"/>
<text text-anchor="start" x="975.5" y="-53.8" font-family="arial" font-size="14.00"> female </text>
<polygon fill="none" stroke="black" points="1028.5,-46 1028.5,-69 1074.5,-69 1074.5,-46 1028.5,-46"/>
<text text-anchor="start" x="1032.5" y="-53.8" font-family="arial" font-size="14.00"> 2&#45;pin </text>
<polygon fill="none" stroke="black" points="861.5,-23 861.5,-46 933.5,-46 933.5,-23 861.5,-23"/>
<text text-anchor="start" x="889.5" y="-30.8" font-family="arial" font-size="14.00"> 1 </text>
<polygon fill="none" stroke="black" points="933.5,-23 933.5,-46 1074.5,-46 1074.5,-23 933.5,-23"/>
<text text-anchor="start" x="984.5" y="-30.8" font-family="arial" font-size="14.00"> GND </text>
<polygon fill="none" stroke="black" points="861.5,0 861.5,-23 933.5,-23 933.5,0 861.5,0"/>
<text text-anchor="start" x="889.5" y="-7.8" font-family="arial" font-size="14.00"> 2 </text>
<polygon fill="none" stroke="black" points="933.5,0 933.5,-23 1074.5,-23 1074.5,0 933.5,0"/>
<text text-anchor="start" x="985.5" y="-7.8" font-family="arial" font-size="14.00"> VCC </text>
</g>
<!-- W1&#45;&#45;X2 -->
<g id="edge2" class="edge">
<title>W1:e&#45;&#45;X2:w</title>
<path fill="none" stroke="#000000" stroke-width="2" d="M645,-201C645.58,-199.08 861.58,-264.08 861,-266"/>
<path fill="none" stroke="#000000" stroke-width="2" d="M645,-201C645,-201 861,-266 861,-266"/>
<path fill="none" stroke="#000000" stroke-width="2" d="M645,-201C644.42,-202.92 860.42,-267.92 861,-266"/>
</g>
<!-- W1&#45;&#45;X2 -->
<g id="edge4" class="edge">
<title>W1:e&#45;&#45;X2:w</title>
<path fill="none" stroke="#000000" stroke-width="2" d="M645,-176C645.59,-174.09 861.59,-241.09 861,-243"/>
<path fill="none" stroke="#ff0000" stroke-width="2" d="M645,-176C645,-176 861,-243 861,-243"/>
<path fill="none" stroke="#000000" stroke-width="2" d="M645,-176C644.41,-177.91 860.41,-244.91 861,-243"/>
</g>
<!-- W1&#45;&#45;X3 -->
<g id="edge6" class="edge">
<title>W1:e&#45;&#45;X3:w</title>
<path fill="none" stroke="#000000" stroke-width="2" d="M645,-151C644.99,-149 860.99,-148 861,-150"/>
<path fill="none" stroke="#000000" stroke-width="2" d="M645,-151C645,-151 861,-150 861,-150"/>
<path fill="none" stroke="#000000" stroke-width="2" d="M645,-151C645.01,-153 861.01,-152 861,-150"/>
</g>
<!-- W1&#45;&#45;X3 -->
<g id="edge8" class="edge">
<title>W1:e&#45;&#45;X3:w</title>
<path fill="none" stroke="#000000" stroke-width="2" d="M645,-126C645.01,-124 861.01,-125 861,-127"/>
<path fill="none" stroke="#ff0000" stroke-width="2" d="M645,-126C645,-126 861,-127 861,-127"/>
<path fill="none" stroke="#000000" stroke-width="2" d="M645,-126C644.99,-128 860.99,-129 861,-127"/>
</g>
<!-- W1&#45;&#45;X4 -->
<g id="edge10" class="edge">
<title>W1:e&#45;&#45;X4:w</title>
<path fill="none" stroke="#000000" stroke-width="2" d="M645,-101C644.41,-99.09 860.41,-32.09 861,-34"/>
<path fill="none" stroke="#000000" stroke-width="2" d="M645,-101C645,-101 861,-34 861,-34"/>
<path fill="none" stroke="#000000" stroke-width="2" d="M645,-101C645.59,-102.91 861.59,-35.91 861,-34"/>
</g>
<!-- W1&#45;&#45;X4 -->
<g id="edge12" class="edge">
<title>W1:e&#45;&#45;X4:w</title>
<path fill="none" stroke="#000000" stroke-width="2" d="M645,-76C644.42,-74.08 860.42,-9.08 861,-11"/>
<path fill="none" stroke="#ff0000" stroke-width="2" d="M645,-76C645,-76 861,-11 861,-11"/>
<path fill="none" stroke="#000000" stroke-width="2" d="M645,-76C645.58,-77.92 861.58,-12.92 861,-11"/>
</g>
</g>
</svg>
