<?xml version="1.0" encoding="UTF-8" standalone="no"?>
<!DOCTYPE svg PUBLIC "-//W3C//DTD SVG 1.1//EN"
 "http://www.w3.org/Graphics/SVG/1.1/DTD/svg11.dtd">
<!-- Generated by graphviz version 2.43.0 (0)
 -->
<!-- Title: %3 Pages: 1 -->
<svg width="857pt" height="287pt"
 viewBox="0.00 0.00 857.00 286.50" xmlns="http://www.w3.org/2000/svg" xmlns:xlink="http://www.w3.org/1999/xlink">
<g id="graph0" class="graph" transform="scale(1 1) rotate(0) translate(4 282.5)">
<title>%3</title>
<polygon fill="#ffffff" stroke="transparent" points="-4,4 -4,-282.5 853,-282.5 853,4 -4,4"/>
<!-- AUTOGENERATED_F_1 -->
<g id="node1" class="node">
<title>AUTOGENERATED_F_1</title>
<polygon fill="#ffffff" stroke="black" points="95,-258 0,-258 0,-235 95,-235 95,-258"/>
<polygon fill="#ffffff" stroke="transparent" points="0,-235 0,-258 95,-258 95,-235 0,-235"/>
<polygon fill="none" stroke="black" points="0.5,-234.5 0.5,-257.5 95.5,-257.5 95.5,-234.5 0.5,-234.5"/>
<text text-anchor="start" x="4.5" y="-242.3" font-family="arial" font-size="14.00"> Crimp ferrule </text>
</g>
<!-- W1 -->
<g id="node13" class="node">
<title>W1</title>
<polygon fill="#ffffff" stroke="black" points="538,-278.5 311,-278.5 311,-44.5 538,-44.5 538,-278.5"/>
<polygon fill="#ffffff" stroke="transparent" points="311,-44.5 311,-278.5 538,-278.5 538,-44.5 311,-44.5"/>
<polygon fill="#ffffff" stroke="transparent" points="311.5,-255.5 311.5,-278.5 538.5,-278.5 538.5,-255.5 311.5,-255.5"/>
<polygon fill="none" stroke="black" points="311.5,-255.5 311.5,-278.5 538.5,-278.5 538.5,-255.5 311.5,-255.5"/>
<text text-anchor="start" x="406.5" y="-264.3" font-family="arial" font-size="14.00"> </text>
<text text-anchor="start" x="410.5" y="-264.3" font-family="arial" font-weight="bold" font-size="14.00"> W1 </text>
<text text-anchor="start" x="439.5" y="-264.3" font-family="arial" font-size="14.00"> </text>
<polygon fill="none" stroke="black" points="311.5,-232.5 311.5,-255.5 341.5,-255.5 341.5,-232.5 311.5,-232.5"/>
<text text-anchor="start" x="315.5" y="-240.3" font-family="arial" font-size="14.00"> 6x </text>
<polygon fill="none" stroke="black" points="341.5,-232.5 341.5,-255.5 480.5,-255.5 480.5,-232.5 341.5,-232.5"/>
<text text-anchor="start" x="345.5" y="-240.3" font-family="arial" font-size="14.00"> 0.25 mm² (24 AWG) </text>
<polygon fill="none" stroke="black" points="480.5,-232.5 480.5,-255.5 538.5,-255.5 538.5,-232.5 480.5,-232.5"/>
<text text-anchor="start" x="484.5" y="-240.3" font-family="arial" font-size="14.00"> 0.20 m </text>
<text text-anchor="start" x="330" y="-219.3" font-family="arial" font-size="14.00"> </text>
<text text-anchor="start" x="313.5" y="-200.3" font-family="arial" font-size="14.00"> &#160;</text>
<text text-anchor="start" x="369" y="-200.3" font-family="arial" font-size="14.00"> </text>
<text text-anchor="start" x="408" y="-200.3" font-family="arial" font-size="14.00"> 1:BN </text>
<text text-anchor="start" x="481" y="-200.3" font-family="arial" font-size="14.00"> </text>
<text text-anchor="start" x="532.5" y="-200.3" font-family="arial" font-size="14.00"> </text>
<polygon fill="#000000" stroke="transparent" points="311.5,-192.5 311.5,-194.5 538.5,-194.5 538.5,-192.5 311.5,-192.5"/>
<polygon fill="#895956" stroke="transparent" points="311.5,-190.5 311.5,-192.5 538.5,-192.5 538.5,-190.5 311.5,-190.5"/>
<polygon fill="#000000" stroke="transparent" points="311.5,-188.5 311.5,-190.5 538.5,-190.5 538.5,-188.5 311.5,-188.5"/>
<text text-anchor="start" x="313.5" y="-175.3" font-family="arial" font-size="14.00"> &#160;</text>
<text text-anchor="start" x="369" y="-175.3" font-family="arial" font-size="14.00"> </text>
<text text-anchor="start" x="407.5" y="-175.3" font-family="arial" font-size="14.00"> 2:RD </text>
<text text-anchor="start" x="481" y="-175.3" font-family="arial" font-size="14.00"> </text>
<text text-anchor="start" x="532.5" y="-175.3" font-family="arial" font-size="14.00"> </text>
<polygon fill="#000000" stroke="transparent" points="311.5,-167.5 311.5,-169.5 538.5,-169.5 538.5,-167.5 311.5,-167.5"/>
<polygon fill="#ff0000" stroke="transparent" points="311.5,-165.5 311.5,-167.5 538.5,-167.5 538.5,-165.5 311.5,-165.5"/>
<polygon fill="#000000" stroke="transparent" points="311.5,-163.5 311.5,-165.5 538.5,-165.5 538.5,-163.5 311.5,-163.5"/>
<text text-anchor="start" x="313.5" y="-150.3" font-family="arial" font-size="14.00"> &#160;</text>
<text text-anchor="start" x="369" y="-150.3" font-family="arial" font-size="14.00"> </text>
<text text-anchor="start" x="406" y="-150.3" font-family="arial" font-size="14.00"> 3:OG </text>
<text text-anchor="start" x="481" y="-150.3" font-family="arial" font-size="14.00"> </text>
<text text-anchor="start" x="532.5" y="-150.3" font-family="arial" font-size="14.00"> </text>
<polygon fill="#000000" stroke="transparent" points="311.5,-142.5 311.5,-144.5 538.5,-144.5 538.5,-142.5 311.5,-142.5"/>
<polygon fill="#ff8000" stroke="transparent" points="311.5,-140.5 311.5,-142.5 538.5,-142.5 538.5,-140.5 311.5,-140.5"/>
<polygon fill="#000000" stroke="transparent" points="311.5,-138.5 311.5,-140.5 538.5,-140.5 538.5,-138.5 311.5,-138.5"/>
<text text-anchor="start" x="313.5" y="-125.3" font-family="arial" font-size="14.00"> &#160;</text>
<text text-anchor="start" x="369" y="-125.3" font-family="arial" font-size="14.00"> </text>
<text text-anchor="start" x="408.5" y="-125.3" font-family="arial" font-size="14.00"> 4:YE </text>
<text text-anchor="start" x="481" y="-125.3" font-family="arial" font-size="14.00"> </text>
<text text-anchor="start" x="532.5" y="-125.3" font-family="arial" font-size="14.00"> </text>
<polygon fill="#000000" stroke="transparent" points="311.5,-117.5 311.5,-119.5 538.5,-119.5 538.5,-117.5 311.5,-117.5"/>
<polygon fill="#ffff00" stroke="transparent" points="311.5,-115.5 311.5,-117.5 538.5,-117.5 538.5,-115.5 311.5,-115.5"/>
<polygon fill="#000000" stroke="transparent" points="311.5,-113.5 311.5,-115.5 538.5,-115.5 538.5,-113.5 311.5,-113.5"/>
<text text-anchor="start" x="313.5" y="-100.3" font-family="arial" font-size="14.00"> &#160;</text>
<text text-anchor="start" x="369" y="-100.3" font-family="arial" font-size="14.00"> </text>
<text text-anchor="start" x="407" y="-100.3" font-family="arial" font-size="14.00"> 5:GN </text>
<text text-anchor="start" x="481" y="-100.3" font-family="arial" font-size="14.00"> </text>
<text text-anchor="start" x="532.5" y="-100.3" font-family="arial" font-size="14.00"> </text>
<polygon fill="#000000" stroke="transparent" points="311.5,-92.5 311.5,-94.5 538.5,-94.5 538.5,-92.5 311.5,-92.5"/>
<polygon fill="#00aa00" stroke="transparent" points="311.5,-90.5 311.5,-92.5 538.5,-92.5 538.5,-90.5 311.5,-90.5"/>
<polygon fill="#000000" stroke="transparent" points="311.5,-88.5 311.5,-90.5 538.5,-90.5 538.5,-88.5 311.5,-88.5"/>
<text text-anchor="start" x="313.5" y="-75.3" font-family="arial" font-size="14.00"> &#160;</text>
<text text-anchor="start" x="369" y="-75.3" font-family="arial" font-size="14.00"> </text>
<text text-anchor="start" x="408" y="-75.3" font-family="arial" font-size="14.00"> 6:BU </text>
<text text-anchor="start" x="481" y="-75.3" font-family="arial" font-size="14.00"> </text>
<text text-anchor="start" x="532.5" y="-75.3" font-family="arial" font-size="14.00"> </text>
<polygon fill="#000000" stroke="transparent" points="311.5,-67.5 311.5,-69.5 538.5,-69.5 538.5,-67.5 311.5,-67.5"/>
<polygon fill="#0066ff" stroke="transparent" points="311.5,-65.5 311.5,-67.5 538.5,-67.5 538.5,-65.5 311.5,-65.5"/>
<polygon fill="#000000" stroke="transparent" points="311.5,-63.5 311.5,-65.5 538.5,-65.5 538.5,-63.5 311.5,-63.5"/>
<text text-anchor="start" x="330" y="-50.3" font-family="arial" font-size="14.00"> </text>
</g>
<!-- AUTOGENERATED_F_1&#45;&#45;W1 -->
<g id="edge1" class="edge">
<title>AUTOGENERATED_F_1:e&#45;&#45;W1:w</title>
<path fill="none" stroke="#000000" stroke-width="2" d="M95,-246.5C94.51,-244.56 310.51,-189.56 311,-191.5"/>
<path fill="none" stroke="#895956" stroke-width="2" d="M95,-246.5C95,-246.5 311,-191.5 311,-191.5"/>
<path fill="none" stroke="#000000" stroke-width="2" d="M95,-246.5C95.49,-248.44 311.49,-193.44 311,-191.5"/>
</g>
<!-- AUTOGENERATED_F_2 -->
<g id="node2" class="node">
<title>AUTOGENERATED_F_2</title>
<polygon fill="#ffffff" stroke="black" points="95,-211 0,-211 0,-188 95,-188 95,-211"/>
<polygon fill="#ffffff" stroke="transparent" points="0,-188 0,-211 95,-211 95,-188 0,-188"/>
<polygon fill="none" stroke="black" points="0.5,-187.5 0.5,-210.5 95.5,-210.5 95.5,-187.5 0.5,-187.5"/>
<text text-anchor="start" x="4.5" y="-195.3" font-family="arial" font-size="14.00"> Crimp ferrule </text>
</g>
<!-- AUTOGENERATED_F_2&#45;&#45;W1 -->
<g id="edge3" class="edge">
<title>AUTOGENERATED_F_2:e&#45;&#45;W1:w</title>
<path fill="none" stroke="#000000" stroke-width="2" d="M95,-199.5C94.7,-197.52 310.7,-164.52 311,-166.5"/>
<path fill="none" stroke="#ff0000" stroke-width="2" d="M95,-199.5C95,-199.5 311,-166.5 311,-166.5"/>
<path fill="none" stroke="#000000" stroke-width="2" d="M95,-199.5C95.3,-201.48 311.3,-168.48 311,-166.5"/>
</g>
<!-- AUTOGENERATED_F_3 -->
<g id="node3" class="node">
<title>AUTOGENERATED_F_3</title>
<polygon fill="#ffffff" stroke="black" points="95,-164 0,-164 0,-141 95,-141 95,-164"/>
<polygon fill="#ffffff" stroke="transparent" points="0,-141 0,-164 95,-164 95,-141 0,-141"/>
<polygon fill="none" stroke="black" points="0.5,-140.5 0.5,-163.5 95.5,-163.5 95.5,-140.5 0.5,-140.5"/>
<text text-anchor="start" x="4.5" y="-148.3" font-family="arial" font-size="14.00"> Crimp ferrule </text>
</g>
<!-- AUTOGENERATED_F_3&#45;&#45;W1 -->
<g id="edge5" class="edge">
<title>AUTOGENERATED_F_3:e&#45;&#45;W1:w</title>
<path fill="none" stroke="#000000" stroke-width="2" d="M95,-152.5C94.9,-150.5 310.9,-139.5 311,-141.5"/>
<path fill="none" stroke="#ff8000" stroke-width="2" d="M95,-152.5C95,-152.5 311,-141.5 311,-141.5"/>
<path fill="none" stroke="#000000" stroke-width="2" d="M95,-152.5C95.1,-154.5 311.1,-143.5 311,-141.5"/>
</g>
<!-- AUTOGENERATED_F_4 -->
<g id="node4" class="node">
<title>AUTOGENERATED_F_4</title>
<polygon fill="#ffffff" stroke="black" points="95,-117 0,-117 0,-94 95,-94 95,-117"/>
<polygon fill="#ffffff" stroke="transparent" points="0,-94 0,-117 95,-117 95,-94 0,-94"/>
<polygon fill="none" stroke="black" points="0.5,-93.5 0.5,-116.5 95.5,-116.5 95.5,-93.5 0.5,-93.5"/>
<text text-anchor="start" x="4.5" y="-101.3" font-family="arial" font-size="14.00"> Crimp ferrule </text>
</g>
<!-- AUTOGENERATED_F_4&#45;&#45;W1 -->
<g id="edge7" class="edge">
<title>AUTOGENERATED_F_4:e&#45;&#45;W1:w</title>
<path fill="none" stroke="#000000" stroke-width="2" d="M95,-105.5C95.1,-103.5 311.1,-114.5 311,-116.5"/>
<path fill="none" stroke="#ffff00" stroke-width="2" d="M95,-105.5C95,-105.5 311,-116.5 311,-116.5"/>
<path fill="none" stroke="#000000" stroke-width="2" d="M95,-105.5C94.9,-107.5 310.9,-118.5 311,-116.5"/>
</g>
<!-- AUTOGENERATED_F_5 -->
<g id="node5" class="node">
<title>AUTOGENERATED_F_5</title>
<polygon fill="#ffffff" stroke="black" points="95,-70 0,-70 0,-47 95,-47 95,-70"/>
<polygon fill="#ffffff" stroke="transparent" points="0,-47 0,-70 95,-70 95,-47 0,-47"/>
<polygon fill="none" stroke="black" points="0.5,-46.5 0.5,-69.5 95.5,-69.5 95.5,-46.5 0.5,-46.5"/>
<text text-anchor="start" x="4.5" y="-54.3" font-family="arial" font-size="14.00"> Crimp ferrule </text>
</g>
<!-- AUTOGENERATED_F_5&#45;&#45;W1 -->
<g id="edge9" class="edge">
<title>AUTOGENERATED_F_5:e&#45;&#45;W1:w</title>
<path fill="none" stroke="#000000" stroke-width="2" d="M95,-58.5C95.3,-56.52 311.3,-89.52 311,-91.5"/>
<path fill="none" stroke="#00aa00" stroke-width="2" d="M95,-58.5C95,-58.5 311,-91.5 311,-91.5"/>
<path fill="none" stroke="#000000" stroke-width="2" d="M95,-58.5C94.7,-60.48 310.7,-93.48 311,-91.5"/>
</g>
<!-- AUTOGENERATED_F_6 -->
<g id="node6" class="node">
<title>AUTOGENERATED_F_6</title>
<polygon fill="#ffffff" stroke="black" points="95,-23 0,-23 0,0 95,0 95,-23"/>
<polygon fill="#ffffff" stroke="transparent" points="0,0 0,-23 95,-23 95,0 0,0"/>
<polygon fill="none" stroke="black" points="0.5,0.5 0.5,-22.5 95.5,-22.5 95.5,0.5 0.5,0.5"/>
<text text-anchor="start" x="4.5" y="-7.3" font-family="arial" font-size="14.00"> Crimp ferrule </text>
</g>
<!-- AUTOGENERATED_F_6&#45;&#45;W1 -->
<g id="edge11" class="edge">
<title>AUTOGENERATED_F_6:e&#45;&#45;W1:w</title>
<path fill="none" stroke="#000000" stroke-width="2" d="M95,-11.5C95.49,-9.56 311.49,-64.56 311,-66.5"/>
<path fill="none" stroke="#0066ff" stroke-width="2" d="M95,-11.5C95,-11.5 311,-66.5 311,-66.5"/>
<path fill="none" stroke="#000000" stroke-width="2" d="M95,-11.5C94.51,-13.44 310.51,-68.44 311,-66.5"/>
</g>
<!-- AUTOGENERATED_F_7 -->
<g id="node7" class="node">
<title>AUTOGENERATED_F_7</title>
<polygon fill="#ffffff" stroke="black" points="849,-258 754,-258 754,-235 849,-235 849,-258"/>
<polygon fill="#ffffff" stroke="transparent" points="754,-235 754,-258 849,-258 849,-235 754,-235"/>
<polygon fill="none" stroke="black" points="754.5,-234.5 754.5,-257.5 849.5,-257.5 849.5,-234.5 754.5,-234.5"/>
<text text-anchor="start" x="758.5" y="-242.3" font-family="arial" font-size="14.00"> Crimp ferrule </text>
</g>
<!-- AUTOGENERATED_F_8 -->
<g id="node8" class="node">
<title>AUTOGENERATED_F_8</title>
<polygon fill="#ffffff" stroke="black" points="849,-211 754,-211 754,-188 849,-188 849,-211"/>
<polygon fill="#ffffff" stroke="transparent" points="754,-188 754,-211 849,-211 849,-188 754,-188"/>
<polygon fill="none" stroke="black" points="754.5,-187.5 754.5,-210.5 849.5,-210.5 849.5,-187.5 754.5,-187.5"/>
<text text-anchor="start" x="758.5" y="-195.3" font-family="arial" font-size="14.00"> Crimp ferrule </text>
</g>
<!-- AUTOGENERATED_F_9 -->
<g id="node9" class="node">
<title>AUTOGENERATED_F_9</title>
<polygon fill="#ffffff" stroke="black" points="849,-164 754,-164 754,-141 849,-141 849,-164"/>
<polygon fill="#ffffff" stroke="transparent" points="754,-141 754,-164 849,-164 849,-141 754,-141"/>
<polygon fill="none" stroke="black" points="754.5,-140.5 754.5,-163.5 849.5,-163.5 849.5,-140.5 754.5,-140.5"/>
<text text-anchor="start" x="758.5" y="-148.3" font-family="arial" font-size="14.00"> Crimp ferrule </text>
</g>
<!-- AUTOGENERATED_F_10 -->
<g id="node10" class="node">
<title>AUTOGENERATED_F_10</title>
<polygon fill="#ffffff" stroke="black" points="849,-117 754,-117 754,-94 849,-94 849,-117"/>
<polygon fill="#ffffff" stroke="transparent" points="754,-94 754,-117 849,-117 849,-94 754,-94"/>
<polygon fill="none" stroke="black" points="754.5,-93.5 754.5,-116.5 849.5,-116.5 849.5,-93.5 754.5,-93.5"/>
<text text-anchor="start" x="758.5" y="-101.3" font-family="arial" font-size="14.00"> Crimp ferrule </text>
</g>
<!-- AUTOGENERATED_F_11 -->
<g id="node11" class="node">
<title>AUTOGENERATED_F_11</title>
<polygon fill="#ffffff" stroke="black" points="849,-70 754,-70 754,-47 849,-47 849,-70"/>
<polygon fill="#ffffff" stroke="transparent" points="754,-47 754,-70 849,-70 849,-47 754,-47"/>
<polygon fill="none" stroke="black" points="754.5,-46.5 754.5,-69.5 849.5,-69.5 849.5,-46.5 754.5,-46.5"/>
<text text-anchor="start" x="758.5" y="-54.3" font-family="arial" font-size="14.00"> Crimp ferrule </text>
</g>
<!-- AUTOGENERATED_F_12 -->
<g id="node12" class="node">
<title>AUTOGENERATED_F_12</title>
<polygon fill="#ffffff" stroke="black" points="849,-23 754,-23 754,0 849,0 849,-23"/>
<polygon fill="#ffffff" stroke="transparent" points="754,0 754,-23 849,-23 849,0 754,0"/>
<polygon fill="none" stroke="black" points="754.5,0.5 754.5,-22.5 849.5,-22.5 849.5,0.5 754.5,0.5"/>
<text text-anchor="start" x="758.5" y="-7.3" font-family="arial" font-size="14.00"> Crimp ferrule </text>
</g>
<!-- W1&#45;&#45;AUTOGENERATED_F_7 -->
<g id="edge2" class="edge">
<title>W1:e&#45;&#45;AUTOGENERATED_F_7:w</title>
<path fill="none" stroke="#000000" stroke-width="2" d="M538,-191.5C538.49,-189.56 754.49,-244.56 754,-246.5"/>
<path fill="none" stroke="#895956" stroke-width="2" d="M538,-191.5C538,-191.5 754,-246.5 754,-246.5"/>
<path fill="none" stroke="#000000" stroke-width="2" d="M538,-191.5C537.51,-193.44 753.51,-248.44 754,-246.5"/>
</g>
<!-- W1&#45;&#45;AUTOGENERATED_F_8 -->
<g id="edge4" class="edge">
<title>W1:e&#45;&#45;AUTOGENERATED_F_8:w</title>
<path fill="none" stroke="#000000" stroke-width="2" d="M538,-166.5C538.3,-164.52 754.3,-197.52 754,-199.5"/>
<path fill="none" stroke="#ff0000" stroke-width="2" d="M538,-166.5C538,-166.5 754,-199.5 754,-199.5"/>
<path fill="none" stroke="#000000" stroke-width="2" d="M538,-166.5C537.7,-168.48 753.7,-201.48 754,-199.5"/>
</g>
<!-- W1&#45;&#45;AUTOGENERATED_F_9 -->
<g id="edge6" class="edge">
<title>W1:e&#45;&#45;AUTOGENERATED_F_9:w</title>
<path fill="none" stroke="#000000" stroke-width="2" d="M538,-141.5C538.1,-139.5 754.1,-150.5 754,-152.5"/>
<path fill="none" stroke="#ff8000" stroke-width="2" d="M538,-141.5C538,-141.5 754,-152.5 754,-152.5"/>
<path fill="none" stroke="#000000" stroke-width="2" d="M538,-141.5C537.9,-143.5 753.9,-154.5 754,-152.5"/>
</g>
<!-- W1&#45;&#45;AUTOGENERATED_F_10 -->
<g id="edge8" class="edge">
<title>W1:e&#45;&#45;AUTOGENERATED_F_10:w</title>
<path fill="none" stroke="#000000" stroke-width="2" d="M538,-116.5C537.9,-114.5 753.9,-103.5 754,-105.5"/>
<path fill="none" stroke="#ffff00" stroke-width="2" d="M538,-116.5C538,-116.5 754,-105.5 754,-105.5"/>
<path fill="none" stroke="#000000" stroke-width="2" d="M538,-116.5C538.1,-118.5 754.1,-107.5 754,-105.5"/>
</g>
<!-- W1&#45;&#45;AUTOGENERATED_F_11 -->
<g id="edge10" class="edge">
<title>W1:e&#45;&#45;AUTOGENERATED_F_11:w</title>
<path fill="none" stroke="#000000" stroke-width="2" d="M538,-91.5C537.7,-89.52 753.7,-56.52 754,-58.5"/>
<path fill="none" stroke="#00aa00" stroke-width="2" d="M538,-91.5C538,-91.5 754,-58.5 754,-58.5"/>
<path fill="none" stroke="#000000" stroke-width="2" d="M538,-91.5C538.3,-93.48 754.3,-60.48 754,-58.5"/>
</g>
<!-- W1&#45;&#45;AUTOGENERATED_F_12 -->
<g id="edge12" class="edge">
<title>W1:e&#45;&#45;AUTOGENERATED_F_12:w</title>
<path fill="none" stroke="#000000" stroke-width="2" d="M538,-66.5C537.51,-64.56 753.51,-9.56 754,-11.5"/>
<path fill="none" stroke="#0066ff" stroke-width="2" d="M538,-66.5C538,-66.5 754,-11.5 754,-11.5"/>
<path fill="none" stroke="#000000" stroke-width="2" d="M538,-66.5C538.49,-68.44 754.49,-13.44 754,-11.5"/>
</g>
</g>
</svg>
