<?xml version="1.0" encoding="UTF-8" standalone="no"?>
<!DOCTYPE svg PUBLIC "-//W3C//DTD SVG 1.1//EN"
 "http://www.w3.org/Graphics/SVG/1.1/DTD/svg11.dtd">
<!-- Generated by graphviz version 2.43.0 (0)
 -->
<!-- Title: %3 Pages: 1 -->
<svg width="1264pt" height="292pt"
 viewBox="0.00 0.00 1264.00 292.00" xmlns="http://www.w3.org/2000/svg" xmlns:xlink="http://www.w3.org/1999/xlink">
<g id="graph0" class="graph" transform="scale(1 1) rotate(0) translate(4 288)">
<title>%3</title>
<polygon fill="#ffffff" stroke="transparent" points="-4,4 -4,-288 1260,-288 1260,4 -4,4"/>
<!-- X1 -->
<g id="node1" class="node">
<title>X1</title>
<polygon fill="#ffffff" stroke="black" points="311,-248 0,-248 0,-18 311,-18 311,-248"/>
<polygon fill="#ffffff" stroke="transparent" points="0,-18 0,-248 311,-248 311,-18 0,-18"/>
<polygon fill="#ffffff" stroke="transparent" points="0.5,-225 0.5,-248 311.5,-248 311.5,-225 0.5,-225"/>
<polygon fill="none" stroke="black" points="0.5,-225 0.5,-248 311.5,-248 311.5,-225 0.5,-225"/>
<text text-anchor="start" x="139.5" y="-233.8" font-family="arial" font-size="14.00"> </text>
<text text-anchor="start" x="143.5" y="-233.8" font-family="arial" font-weight="bold" font-size="14.00"> X1 </text>
<text text-anchor="start" x="168.5" y="-233.8" font-family="arial" font-size="14.00"> </text>
<polygon fill="none" stroke="black" points="0.5,-202 0.5,-225 219.5,-225 219.5,-202 0.5,-202"/>
<text text-anchor="start" x="4.5" y="-209.8" font-family="arial" font-size="14.00"> Stewart Connector SS&#45;37000&#45;002 </text>
<polygon fill="none" stroke="black" points="219.5,-202 219.5,-225 265.5,-225 265.5,-202 219.5,-202"/>
<text text-anchor="start" x="223.5" y="-209.8" font-family="arial" font-size="14.00"> male </text>
<polygon fill="none" stroke="black" points="265.5,-202 265.5,-225 311.5,-225 311.5,-202 265.5,-202"/>
<text text-anchor="start" x="269.5" y="-209.8" font-family="arial" font-size="14.00"> 8&#45;pin </text>
<polygon fill="none" stroke="black" points="0.5,-179 0.5,-202 206.5,-202 206.5,-179 0.5,-179"/>
<text text-anchor="start" x="86" y="-186.8" font-family="arial" font-size="14.00"> DA+ </text>
<polygon fill="none" stroke="black" points="206.5,-179 206.5,-202 311.5,-202 311.5,-179 206.5,-179"/>
<text text-anchor="start" x="251" y="-186.8" font-family="arial" font-size="14.00"> 1 </text>
<polygon fill="none" stroke="black" points="0.5,-156 0.5,-179 206.5,-179 206.5,-156 0.5,-156"/>
<text text-anchor="start" x="88" y="-163.8" font-family="arial" font-size="14.00"> DA&#45; </text>
<polygon fill="none" stroke="black" points="206.5,-156 206.5,-179 311.5,-179 311.5,-156 206.5,-156"/>
<text text-anchor="start" x="251" y="-163.8" font-family="arial" font-size="14.00"> 2 </text>
<polygon fill="none" stroke="black" points="0.5,-133 0.5,-156 206.5,-156 206.5,-133 0.5,-133"/>
<text text-anchor="start" x="86" y="-140.8" font-family="arial" font-size="14.00"> DB+ </text>
<polygon fill="none" stroke="black" points="206.5,-133 206.5,-156 311.5,-156 311.5,-133 206.5,-133"/>
<text text-anchor="start" x="251" y="-140.8" font-family="arial" font-size="14.00"> 3 </text>
<polygon fill="none" stroke="black" points="0.5,-110 0.5,-133 206.5,-133 206.5,-110 0.5,-110"/>
<text text-anchor="start" x="85.5" y="-117.8" font-family="arial" font-size="14.00"> DC+ </text>
<polygon fill="none" stroke="black" points="206.5,-110 206.5,-133 311.5,-133 311.5,-110 206.5,-110"/>
<text text-anchor="start" x="251" y="-117.8" font-family="arial" font-size="14.00"> 4 </text>
<polygon fill="none" stroke="black" points="0.5,-87 0.5,-110 206.5,-110 206.5,-87 0.5,-87"/>
<text text-anchor="start" x="87.5" y="-94.8" font-family="arial" font-size="14.00"> DC&#45; </text>
<polygon fill="none" stroke="black" points="206.5,-87 206.5,-110 311.5,-110 311.5,-87 206.5,-87"/>
<text text-anchor="start" x="251" y="-94.8" font-family="arial" font-size="14.00"> 5 </text>
<polygon fill="none" stroke="black" points="0.5,-64 0.5,-87 206.5,-87 206.5,-64 0.5,-64"/>
<text text-anchor="start" x="88" y="-71.8" font-family="arial" font-size="14.00"> DB&#45; </text>
<polygon fill="none" stroke="black" points="206.5,-64 206.5,-87 311.5,-87 311.5,-64 206.5,-64"/>
<text text-anchor="start" x="251" y="-71.8" font-family="arial" font-size="14.00"> 6 </text>
<polygon fill="none" stroke="black" points="0.5,-41 0.5,-64 206.5,-64 206.5,-41 0.5,-41"/>
<text text-anchor="start" x="85.5" y="-48.8" font-family="arial" font-size="14.00"> DD+ </text>
<polygon fill="none" stroke="black" points="206.5,-41 206.5,-64 311.5,-64 311.5,-41 206.5,-41"/>
<text text-anchor="start" x="251" y="-48.8" font-family="arial" font-size="14.00"> 7 </text>
<polygon fill="none" stroke="black" points="0.5,-18 0.5,-41 206.5,-41 206.5,-18 0.5,-18"/>
<text text-anchor="start" x="87.5" y="-25.8" font-family="arial" font-size="14.00"> DD&#45; </text>
<polygon fill="none" stroke="black" points="206.5,-18 206.5,-41 311.5,-41 311.5,-18 206.5,-18"/>
<text text-anchor="start" x="251" y="-25.8" font-family="arial" font-size="14.00"> 8 </text>
</g>
<!-- W1 -->
<g id="node3" class="node">
<title>W1</title>
<polygon fill="#ffffff" stroke="black" points="729,-284 527,-284 527,0 729,0 729,-284"/>
<polygon fill="#ffffff" stroke="transparent" points="527,0 527,-284 729,-284 729,0 527,0"/>
<polygon fill="#ffffff" stroke="transparent" points="527,-261 527,-284 729,-284 729,-261 527,-261"/>
<polygon fill="none" stroke="black" points="527,-261 527,-284 729,-284 729,-261 527,-261"/>
<text text-anchor="start" x="609.5" y="-269.8" font-family="arial" font-size="14.00"> </text>
<text text-anchor="start" x="613.5" y="-269.8" font-family="arial" font-weight="bold" font-size="14.00"> W1 </text>
<text text-anchor="start" x="642.5" y="-269.8" font-family="arial" font-size="14.00"> </text>
<polygon fill="none" stroke="black" points="527,-238 527,-261 586,-261 586,-238 527,-238"/>
<text text-anchor="start" x="532" y="-245.8" font-family="arial" font-size="14.00"> CAT5e </text>
<polygon fill="none" stroke="black" points="586,-238 586,-261 618,-261 618,-238 586,-238"/>
<text text-anchor="start" x="591" y="-245.8" font-family="arial" font-size="14.00"> 8x </text>
<polygon fill="none" stroke="black" points="618,-238 618,-261 688,-261 688,-238 618,-238"/>
<text text-anchor="start" x="623" y="-245.8" font-family="arial" font-size="14.00"> 24 AWG </text>
<polygon fill="none" stroke="black" points="688,-238 688,-261 729,-261 729,-238 688,-238"/>
<text text-anchor="start" x="693" y="-245.8" font-family="arial" font-size="14.00"> 1 m </text>
<text text-anchor="start" x="560.5" y="-224.8" font-family="arial" font-size="14.00"> </text>
<text text-anchor="start" x="529" y="-205.8" font-family="arial" font-size="14.00"> X1:1:DA+ </text>
<text text-anchor="start" x="600" y="-205.8" font-family="arial" font-size="14.00"> </text>
<text text-anchor="start" x="608" y="-205.8" font-family="arial" font-size="14.00"> 1:WH </text>
<text text-anchor="start" x="655" y="-205.8" font-family="arial" font-size="14.00"> </text>
<text text-anchor="start" x="664" y="-205.8" font-family="arial" font-size="14.00"> X2:3:DA+</text>
<polygon fill="#000000" stroke="transparent" points="527,-198 527,-200 729,-200 729,-198 527,-198"/>
<polygon fill="#ffffff" stroke="transparent" points="527,-196 527,-198 729,-198 729,-196 527,-196"/>
<polygon fill="#000000" stroke="transparent" points="527,-194 527,-196 729,-196 729,-194 527,-194"/>
<text text-anchor="start" x="529" y="-180.8" font-family="arial" font-size="14.00"> X1:2:DA&#45; </text>
<text text-anchor="start" x="600" y="-180.8" font-family="arial" font-size="14.00"> </text>
<text text-anchor="start" x="609.5" y="-180.8" font-family="arial" font-size="14.00"> 2:GN </text>
<text text-anchor="start" x="655" y="-180.8" font-family="arial" font-size="14.00"> </text>
<text text-anchor="start" x="668" y="-180.8" font-family="arial" font-size="14.00"> X2:6:DA&#45;</text>
<polygon fill="#000000" stroke="transparent" points="527,-173 527,-175 729,-175 729,-173 527,-173"/>
<polygon fill="#00aa00" stroke="transparent" points="527,-171 527,-173 729,-173 729,-171 527,-171"/>
<polygon fill="#000000" stroke="transparent" points="527,-169 527,-171 729,-171 729,-169 527,-169"/>
<text text-anchor="start" x="529" y="-155.8" font-family="arial" font-size="14.00"> X1:3:DB+ </text>
<text text-anchor="start" x="600" y="-155.8" font-family="arial" font-size="14.00"> </text>
<text text-anchor="start" x="608" y="-155.8" font-family="arial" font-size="14.00"> 3:WH </text>
<text text-anchor="start" x="655" y="-155.8" font-family="arial" font-size="14.00"> </text>
<text text-anchor="start" x="664" y="-155.8" font-family="arial" font-size="14.00"> X2:1:DB+</text>
<polygon fill="#000000" stroke="transparent" points="527,-148 527,-150 729,-150 729,-148 527,-148"/>
<polygon fill="#ffffff" stroke="transparent" points="527,-146 527,-148 729,-148 729,-146 527,-146"/>
<polygon fill="#000000" stroke="transparent" points="527,-144 527,-146 729,-146 729,-144 527,-144"/>
<text text-anchor="start" x="529" y="-130.8" font-family="arial" font-size="14.00"> X1:4:DC+ </text>
<text text-anchor="start" x="600" y="-130.8" font-family="arial" font-size="14.00"> </text>
<text text-anchor="start" x="610.5" y="-130.8" font-family="arial" font-size="14.00"> 4:BU </text>
<text text-anchor="start" x="655" y="-130.8" font-family="arial" font-size="14.00"> </text>
<text text-anchor="start" x="663" y="-130.8" font-family="arial" font-size="14.00"> X2:7:DC+</text>
<polygon fill="#000000" stroke="transparent" points="527,-123 527,-125 729,-125 729,-123 527,-123"/>
<polygon fill="#0066ff" stroke="transparent" points="527,-121 527,-123 729,-123 729,-121 527,-121"/>
<polygon fill="#000000" stroke="transparent" points="527,-119 527,-121 729,-121 729,-119 527,-119"/>
<text text-anchor="start" x="529" y="-105.8" font-family="arial" font-size="14.00"> X1:5:DC&#45; </text>
<text text-anchor="start" x="600" y="-105.8" font-family="arial" font-size="14.00"> </text>
<text text-anchor="start" x="608" y="-105.8" font-family="arial" font-size="14.00"> 5:WH </text>
<text text-anchor="start" x="655" y="-105.8" font-family="arial" font-size="14.00"> </text>
<text text-anchor="start" x="667" y="-105.8" font-family="arial" font-size="14.00"> X2:8:DC&#45;</text>
<polygon fill="#000000" stroke="transparent" points="527,-98 527,-100 729,-100 729,-98 527,-98"/>
<polygon fill="#ffffff" stroke="transparent" points="527,-96 527,-98 729,-98 729,-96 527,-96"/>
<polygon fill="#000000" stroke="transparent" points="527,-94 527,-96 729,-96 729,-94 527,-94"/>
<text text-anchor="start" x="529" y="-80.8" font-family="arial" font-size="14.00"> X1:6:DB&#45; </text>
<text text-anchor="start" x="600" y="-80.8" font-family="arial" font-size="14.00"> </text>
<text text-anchor="start" x="608.5" y="-80.8" font-family="arial" font-size="14.00"> 6:OG </text>
<text text-anchor="start" x="655" y="-80.8" font-family="arial" font-size="14.00"> </text>
<text text-anchor="start" x="668" y="-80.8" font-family="arial" font-size="14.00"> X2:2:DB&#45;</text>
<polygon fill="#000000" stroke="transparent" points="527,-73 527,-75 729,-75 729,-73 527,-73"/>
<polygon fill="#ff8000" stroke="transparent" points="527,-71 527,-73 729,-73 729,-71 527,-71"/>
<polygon fill="#000000" stroke="transparent" points="527,-69 527,-71 729,-71 729,-69 527,-69"/>
<text text-anchor="start" x="529" y="-55.8" font-family="arial" font-size="14.00"> X1:7:DD+ </text>
<text text-anchor="start" x="600" y="-55.8" font-family="arial" font-size="14.00"> </text>
<text text-anchor="start" x="608" y="-55.8" font-family="arial" font-size="14.00"> 7:WH </text>
<text text-anchor="start" x="655" y="-55.8" font-family="arial" font-size="14.00"> </text>
<text text-anchor="start" x="663" y="-55.8" font-family="arial" font-size="14.00"> X2:4:DD+</text>
<polygon fill="#000000" stroke="transparent" points="527,-48 527,-50 729,-50 729,-48 527,-48"/>
<polygon fill="#ffffff" stroke="transparent" points="527,-46 527,-48 729,-48 729,-46 527,-46"/>
<polygon fill="#000000" stroke="transparent" points="527,-44 527,-46 729,-46 729,-44 527,-44"/>
<text text-anchor="start" x="529" y="-30.8" font-family="arial" font-size="14.00"> X1:8:DD&#45; </text>
<text text-anchor="start" x="600" y="-30.8" font-family="arial" font-size="14.00"> </text>
<text text-anchor="start" x="610.5" y="-30.8" font-family="arial" font-size="14.00"> 8:BN </text>
<text text-anchor="start" x="655" y="-30.8" font-family="arial" font-size="14.00"> </text>
<text text-anchor="start" x="667" y="-30.8" font-family="arial" font-size="14.00"> X2:5:DD&#45;</text>
<polygon fill="#000000" stroke="transparent" points="527,-23 527,-25 729,-25 729,-23 527,-23"/>
<polygon fill="#895956" stroke="transparent" points="527,-21 527,-23 729,-23 729,-21 527,-21"/>
<polygon fill="#000000" stroke="transparent" points="527,-19 527,-21 729,-21 729,-19 527,-19"/>
<text text-anchor="start" x="560.5" y="-5.8" font-family="arial" font-size="14.00"> </text>
</g>
<!-- X1&#45;&#45;W1 -->
<g id="edge1" class="edge">
<title>X1:e&#45;&#45;W1:w</title>
<path fill="none" stroke="#000000" stroke-width="2" d="M311,-191C311.06,-189 527.06,-195 527,-197"/>
<path fill="none" stroke="#ffffff" stroke-width="2" d="M311,-191C311,-191 527,-197 527,-197"/>
<path fill="none" stroke="#000000" stroke-width="2" d="M311,-191C310.94,-193 526.94,-199 527,-197"/>
</g>
<!-- X1&#45;&#45;W1 -->
<g id="edge3" class="edge">
<title>X1:e&#45;&#45;W1:w</title>
<path fill="none" stroke="#000000" stroke-width="2" d="M311,-168C311.04,-166 527.04,-170 527,-172"/>
<path fill="none" stroke="#00aa00" stroke-width="2" d="M311,-168C311,-168 527,-172 527,-172"/>
<path fill="none" stroke="#000000" stroke-width="2" d="M311,-168C310.96,-170 526.96,-174 527,-172"/>
</g>
<!-- X1&#45;&#45;W1 -->
<g id="edge5" class="edge">
<title>X1:e&#45;&#45;W1:w</title>
<path fill="none" stroke="#000000" stroke-width="2" d="M311,-145C311.02,-143 527.02,-145 527,-147"/>
<path fill="none" stroke="#ffffff" stroke-width="2" d="M311,-145C311,-145 527,-147 527,-147"/>
<path fill="none" stroke="#000000" stroke-width="2" d="M311,-145C310.98,-147 526.98,-149 527,-147"/>
</g>
<!-- X1&#45;&#45;W1 -->
<g id="edge7" class="edge">
<title>X1:e&#45;&#45;W1:w</title>
<path fill="none" stroke="#000000" stroke-width="2" d="M311,-121C311.01,-119 527.01,-120 527,-122"/>
<path fill="none" stroke="#0066ff" stroke-width="2" d="M311,-121C311,-121 527,-122 527,-122"/>
<path fill="none" stroke="#000000" stroke-width="2" d="M311,-121C310.99,-123 526.99,-124 527,-122"/>
</g>
<!-- X1&#45;&#45;W1 -->
<g id="edge9" class="edge">
<title>X1:e&#45;&#45;W1:w</title>
<path fill="none" stroke="#000000" stroke-width="2" d="M311,-98C310.99,-96 526.99,-95 527,-97"/>
<path fill="none" stroke="#ffffff" stroke-width="2" d="M311,-98C311,-98 527,-97 527,-97"/>
<path fill="none" stroke="#000000" stroke-width="2" d="M311,-98C311.01,-100 527.01,-99 527,-97"/>
</g>
<!-- X1&#45;&#45;W1 -->
<g id="edge11" class="edge">
<title>X1:e&#45;&#45;W1:w</title>
<path fill="none" stroke="#000000" stroke-width="2" d="M311,-75C310.97,-73 526.97,-70 527,-72"/>
<path fill="none" stroke="#ff8000" stroke-width="2" d="M311,-75C311,-75 527,-72 527,-72"/>
<path fill="none" stroke="#000000" stroke-width="2" d="M311,-75C311.03,-77 527.03,-74 527,-72"/>
</g>
<!-- X1&#45;&#45;W1 -->
<g id="edge13" class="edge">
<title>X1:e&#45;&#45;W1:w</title>
<path fill="none" stroke="#000000" stroke-width="2" d="M311,-52C310.95,-50 526.95,-45 527,-47"/>
<path fill="none" stroke="#ffffff" stroke-width="2" d="M311,-52C311,-52 527,-47 527,-47"/>
<path fill="none" stroke="#000000" stroke-width="2" d="M311,-52C311.05,-54 527.05,-49 527,-47"/>
</g>
<!-- X1&#45;&#45;W1 -->
<g id="edge15" class="edge">
<title>X1:e&#45;&#45;W1:w</title>
<path fill="none" stroke="#000000" stroke-width="2" d="M311,-29C310.94,-27 526.94,-20 527,-22"/>
<path fill="none" stroke="#895956" stroke-width="2" d="M311,-29C311,-29 527,-22 527,-22"/>
<path fill="none" stroke="#000000" stroke-width="2" d="M311,-29C311.06,-31 527.06,-24 527,-22"/>
</g>
<!-- X2 -->
<g id="node2" class="node">
<title>X2</title>
<polygon fill="#ffffff" stroke="black" points="1256,-252 945,-252 945,-22 1256,-22 1256,-252"/>
<polygon fill="#ffffff" stroke="transparent" points="945,-22 945,-252 1256,-252 1256,-22 945,-22"/>
<polygon fill="#ffffff" stroke="transparent" points="945.5,-229 945.5,-252 1256.5,-252 1256.5,-229 945.5,-229"/>
<polygon fill="none" stroke="black" points="945.5,-229 945.5,-252 1256.5,-252 1256.5,-229 945.5,-229"/>
<text text-anchor="start" x="1084.5" y="-237.8" font-family="arial" font-size="14.00"> </text>
<text text-anchor="start" x="1088.5" y="-237.8" font-family="arial" font-weight="bold" font-size="14.00"> X2 </text>
<text text-anchor="start" x="1113.5" y="-237.8" font-family="arial" font-size="14.00"> </text>
<polygon fill="none" stroke="black" points="945.5,-206 945.5,-229 1164.5,-229 1164.5,-206 945.5,-206"/>
<text text-anchor="start" x="949.5" y="-213.8" font-family="arial" font-size="14.00"> Stewart Connector SS&#45;37000&#45;002 </text>
<polygon fill="none" stroke="black" points="1164.5,-206 1164.5,-229 1210.5,-229 1210.5,-206 1164.5,-206"/>
<text text-anchor="start" x="1168.5" y="-213.8" font-family="arial" font-size="14.00"> male </text>
<polygon fill="none" stroke="black" points="1210.5,-206 1210.5,-229 1256.5,-229 1256.5,-206 1210.5,-206"/>
<text text-anchor="start" x="1214.5" y="-213.8" font-family="arial" font-size="14.00"> 8&#45;pin </text>
<polygon fill="none" stroke="black" points="945.5,-183 945.5,-206 1050.5,-206 1050.5,-183 945.5,-183"/>
<text text-anchor="start" x="990" y="-190.8" font-family="arial" font-size="14.00"> 1 </text>
<polygon fill="none" stroke="black" points="1050.5,-183 1050.5,-206 1256.5,-206 1256.5,-183 1050.5,-183"/>
<text text-anchor="start" x="1136" y="-190.8" font-family="arial" font-size="14.00"> DB+ </text>
<polygon fill="none" stroke="black" points="945.5,-160 945.5,-183 1050.5,-183 1050.5,-160 945.5,-160"/>
<text text-anchor="start" x="990" y="-167.8" font-family="arial" font-size="14.00"> 2 </text>
<polygon fill="none" stroke="black" points="1050.5,-160 1050.5,-183 1256.5,-183 1256.5,-160 1050.5,-160"/>
<text text-anchor="start" x="1138" y="-167.8" font-family="arial" font-size="14.00"> DB&#45; </text>
<polygon fill="none" stroke="black" points="945.5,-137 945.5,-160 1050.5,-160 1050.5,-137 945.5,-137"/>
<text text-anchor="start" x="990" y="-144.8" font-family="arial" font-size="14.00"> 3 </text>
<polygon fill="none" stroke="black" points="1050.5,-137 1050.5,-160 1256.5,-160 1256.5,-137 1050.5,-137"/>
<text text-anchor="start" x="1136" y="-144.8" font-family="arial" font-size="14.00"> DA+ </text>
<polygon fill="none" stroke="black" points="945.5,-114 945.5,-137 1050.5,-137 1050.5,-114 945.5,-114"/>
<text text-anchor="start" x="990" y="-121.8" font-family="arial" font-size="14.00"> 4 </text>
<polygon fill="none" stroke="black" points="1050.5,-114 1050.5,-137 1256.5,-137 1256.5,-114 1050.5,-114"/>
<text text-anchor="start" x="1135.5" y="-121.8" font-family="arial" font-size="14.00"> DD+ </text>
<polygon fill="none" stroke="black" points="945.5,-91 945.5,-114 1050.5,-114 1050.5,-91 945.5,-91"/>
<text text-anchor="start" x="990" y="-98.8" font-family="arial" font-size="14.00"> 5 </text>
<polygon fill="none" stroke="black" points="1050.5,-91 1050.5,-114 1256.5,-114 1256.5,-91 1050.5,-91"/>
<text text-anchor="start" x="1137.5" y="-98.8" font-family="arial" font-size="14.00"> DD&#45; </text>
<polygon fill="none" stroke="black" points="945.5,-68 945.5,-91 1050.5,-91 1050.5,-68 945.5,-68"/>
<text text-anchor="start" x="990" y="-75.8" font-family="arial" font-size="14.00"> 6 </text>
<polygon fill="none" stroke="black" points="1050.5,-68 1050.5,-91 1256.5,-91 1256.5,-68 1050.5,-68"/>
<text text-anchor="start" x="1138" y="-75.8" font-family="arial" font-size="14.00"> DA&#45; </text>
<polygon fill="none" stroke="black" points="945.5,-45 945.5,-68 1050.5,-68 1050.5,-45 945.5,-45"/>
<text text-anchor="start" x="990" y="-52.8" font-family="arial" font-size="14.00"> 7 </text>
<polygon fill="none" stroke="black" points="1050.5,-45 1050.5,-68 1256.5,-68 1256.5,-45 1050.5,-45"/>
<text text-anchor="start" x="1135.5" y="-52.8" font-family="arial" font-size="14.00"> DC+ </text>
<polygon fill="none" stroke="black" points="945.5,-22 945.5,-45 1050.5,-45 1050.5,-22 945.5,-22"/>
<text text-anchor="start" x="990" y="-29.8" font-family="arial" font-size="14.00"> 8 </text>
<polygon fill="none" stroke="black" points="1050.5,-22 1050.5,-45 1256.5,-45 1256.5,-22 1050.5,-22"/>
<text text-anchor="start" x="1137.5" y="-29.8" font-family="arial" font-size="14.00"> DC&#45; </text>
</g>
<!-- W1&#45;&#45;X2 -->
<g id="edge2" class="edge">
<title>W1:e&#45;&#45;X2:w</title>
<path fill="none" stroke="#000000" stroke-width="2" d="M729,-197C728.57,-195.05 944.57,-147.05 945,-149"/>
<path fill="none" stroke="#ffffff" stroke-width="2" d="M729,-197C729,-197 945,-149 945,-149"/>
<path fill="none" stroke="#000000" stroke-width="2" d="M729,-197C729.43,-198.95 945.43,-150.95 945,-149"/>
</g>
<!-- W1&#45;&#45;X2 -->
<g id="edge4" class="edge">
<title>W1:e&#45;&#45;X2:w</title>
<path fill="none" stroke="#000000" stroke-width="2" d="M729,-172C728.21,-170.16 944.21,-77.16 945,-79"/>
<path fill="none" stroke="#00aa00" stroke-width="2" d="M729,-172C729,-172 945,-79 945,-79"/>
<path fill="none" stroke="#000000" stroke-width="2" d="M729,-172C729.79,-173.84 945.79,-80.84 945,-79"/>
</g>
<!-- W1&#45;&#45;X2 -->
<g id="edge6" class="edge">
<title>W1:e&#45;&#45;X2:w</title>
<path fill="none" stroke="#000000" stroke-width="2" d="M729,-147C729.43,-145.05 945.43,-193.05 945,-195"/>
<path fill="none" stroke="#ffffff" stroke-width="2" d="M729,-147C729,-147 945,-195 945,-195"/>
<path fill="none" stroke="#000000" stroke-width="2" d="M729,-147C728.57,-148.95 944.57,-196.95 945,-195"/>
</g>
<!-- W1&#45;&#45;X2 -->
<g id="edge8" class="edge">
<title>W1:e&#45;&#45;X2:w</title>
<path fill="none" stroke="#000000" stroke-width="2" d="M729,-122C728.42,-120.09 944.42,-54.09 945,-56"/>
<path fill="none" stroke="#0066ff" stroke-width="2" d="M729,-122C729,-122 945,-56 945,-56"/>
<path fill="none" stroke="#000000" stroke-width="2" d="M729,-122C729.58,-123.91 945.58,-57.91 945,-56"/>
</g>
<!-- W1&#45;&#45;X2 -->
<g id="edge10" class="edge">
<title>W1:e&#45;&#45;X2:w</title>
<path fill="none" stroke="#000000" stroke-width="2" d="M729,-97C728.43,-95.08 944.43,-31.08 945,-33"/>
<path fill="none" stroke="#ffffff" stroke-width="2" d="M729,-97C729,-97 945,-33 945,-33"/>
<path fill="none" stroke="#000000" stroke-width="2" d="M729,-97C729.57,-98.92 945.57,-34.92 945,-33"/>
</g>
<!-- W1&#45;&#45;X2 -->
<g id="edge12" class="edge">
<title>W1:e&#45;&#45;X2:w</title>
<path fill="none" stroke="#000000" stroke-width="2" d="M729,-72C729.84,-70.19 945.84,-170.19 945,-172"/>
<path fill="none" stroke="#ff8000" stroke-width="2" d="M729,-72C729,-72 945,-172 945,-172"/>
<path fill="none" stroke="#000000" stroke-width="2" d="M729,-72C728.16,-73.81 944.16,-173.81 945,-172"/>
</g>
<!-- W1&#45;&#45;X2 -->
<g id="edge14" class="edge">
<title>W1:e&#45;&#45;X2:w</title>
<path fill="none" stroke="#000000" stroke-width="2" d="M729,-47C729.68,-45.12 945.68,-123.12 945,-125"/>
<path fill="none" stroke="#ffffff" stroke-width="2" d="M729,-47C729,-47 945,-125 945,-125"/>
<path fill="none" stroke="#000000" stroke-width="2" d="M729,-47C728.32,-48.88 944.32,-126.88 945,-125"/>
</g>
<!-- W1&#45;&#45;X2 -->
<g id="edge16" class="edge">
<title>W1:e&#45;&#45;X2:w</title>
<path fill="none" stroke="#000000" stroke-width="2" d="M729,-22C729.69,-20.12 945.69,-100.12 945,-102"/>
<path fill="none" stroke="#895956" stroke-width="2" d="M729,-22C729,-22 945,-102 945,-102"/>
<path fill="none" stroke="#000000" stroke-width="2" d="M729,-22C728.31,-23.88 944.31,-103.88 945,-102"/>
</g>
</g>
</svg>
