<?xml version="1.0" encoding="UTF-8" standalone="no"?>
<!DOCTYPE svg PUBLIC "-//W3C//DTD SVG 1.1//EN"
 "http://www.w3.org/Graphics/SVG/1.1/DTD/svg11.dtd">
<!-- Generated by graphviz version 2.43.0 (0)
 -->
<!-- Title: %3 Pages: 1 -->
<svg width="1861pt" height="281pt"
 viewBox="0.00 0.00 1861.00 281.00" xmlns="http://www.w3.org/2000/svg" xmlns:xlink="http://www.w3.org/1999/xlink">
<g id="graph0" class="graph" transform="scale(1 1) rotate(0) translate(4 277)">
<title>%3</title>
<polygon fill="#ffffff" stroke="transparent" points="-4,4 -4,-277 1857,-277 1857,4 -4,4"/>
<!-- X1 -->
<g id="node1" class="node">
<title>X1</title>
<polygon fill="#ffffff" stroke="black" points="673,-264 362,-264 362,-34 673,-34 673,-264"/>
<polygon fill="#ffffff" stroke="transparent" points="362,-34 362,-264 673,-264 673,-34 362,-34"/>
<polygon fill="#ffffff" stroke="transparent" points="362.5,-241 362.5,-264 673.5,-264 673.5,-241 362.5,-241"/>
<polygon fill="none" stroke="black" points="362.5,-241 362.5,-264 673.5,-264 673.5,-241 362.5,-241"/>
<text text-anchor="start" x="501.5" y="-249.8" font-family="arial" font-size="14.00"> </text>
<text text-anchor="start" x="505.5" y="-249.8" font-family="arial" font-weight="bold" font-size="14.00"> X1 </text>
<text text-anchor="start" x="530.5" y="-249.8" font-family="arial" font-size="14.00"> </text>
<polygon fill="none" stroke="black" points="362.5,-218 362.5,-241 581.5,-241 581.5,-218 362.5,-218"/>
<text text-anchor="start" x="366.5" y="-225.8" font-family="arial" font-size="14.00"> Stewart Connector SS&#45;37000&#45;002 </text>
<polygon fill="none" stroke="black" points="581.5,-218 581.5,-241 627.5,-241 627.5,-218 581.5,-218"/>
<text text-anchor="start" x="585.5" y="-225.8" font-family="arial" font-size="14.00"> male </text>
<polygon fill="none" stroke="black" points="627.5,-218 627.5,-241 673.5,-241 673.5,-218 627.5,-218"/>
<text text-anchor="start" x="631.5" y="-225.8" font-family="arial" font-size="14.00"> 8&#45;pin </text>
<polygon fill="none" stroke="black" points="362.5,-195 362.5,-218 441.5,-218 441.5,-195 362.5,-195"/>
<text text-anchor="start" x="394" y="-202.8" font-family="arial" font-size="14.00"> 1 </text>
<polygon fill="none" stroke="black" points="441.5,-195 441.5,-218 595.5,-218 595.5,-195 441.5,-195"/>
<text text-anchor="start" x="501" y="-202.8" font-family="arial" font-size="14.00"> DA+ </text>
<polygon fill="none" stroke="black" points="595.5,-195 595.5,-218 673.5,-218 673.5,-195 595.5,-195"/>
<text text-anchor="start" x="626.5" y="-202.8" font-family="arial" font-size="14.00"> 1 </text>
<polygon fill="none" stroke="black" points="362.5,-172 362.5,-195 441.5,-195 441.5,-172 362.5,-172"/>
<text text-anchor="start" x="394" y="-179.8" font-family="arial" font-size="14.00"> 2 </text>
<polygon fill="none" stroke="black" points="441.5,-172 441.5,-195 595.5,-195 595.5,-172 441.5,-172"/>
<text text-anchor="start" x="503" y="-179.8" font-family="arial" font-size="14.00"> DA&#45; </text>
<polygon fill="none" stroke="black" points="595.5,-172 595.5,-195 673.5,-195 673.5,-172 595.5,-172"/>
<text text-anchor="start" x="626.5" y="-179.8" font-family="arial" font-size="14.00"> 2 </text>
<polygon fill="none" stroke="black" points="362.5,-149 362.5,-172 441.5,-172 441.5,-149 362.5,-149"/>
<text text-anchor="start" x="394" y="-156.8" font-family="arial" font-size="14.00"> 3 </text>
<polygon fill="none" stroke="black" points="441.5,-149 441.5,-172 595.5,-172 595.5,-149 441.5,-149"/>
<text text-anchor="start" x="502.5" y="-156.8" font-family="arial" font-size="14.00"> LB4 </text>
<polygon fill="none" stroke="black" points="595.5,-149 595.5,-172 673.5,-172 673.5,-149 595.5,-149"/>
<text text-anchor="start" x="626.5" y="-156.8" font-family="arial" font-size="14.00"> 3 </text>
<polygon fill="none" stroke="black" points="362.5,-126 362.5,-149 441.5,-149 441.5,-126 362.5,-126"/>
<text text-anchor="start" x="394" y="-133.8" font-family="arial" font-size="14.00"> 4 </text>
<polygon fill="none" stroke="black" points="441.5,-126 441.5,-149 595.5,-149 595.5,-126 441.5,-126"/>
<text text-anchor="start" x="502.5" y="-133.8" font-family="arial" font-size="14.00"> LB3 </text>
<polygon fill="none" stroke="black" points="595.5,-126 595.5,-149 673.5,-149 673.5,-126 595.5,-126"/>
<text text-anchor="start" x="626.5" y="-133.8" font-family="arial" font-size="14.00"> 4 </text>
<polygon fill="none" stroke="black" points="362.5,-103 362.5,-126 441.5,-126 441.5,-103 362.5,-103"/>
<text text-anchor="start" x="394" y="-110.8" font-family="arial" font-size="14.00"> 5 </text>
<polygon fill="none" stroke="black" points="441.5,-103 441.5,-126 595.5,-126 595.5,-103 441.5,-103"/>
<text text-anchor="start" x="500.5" y="-110.8" font-family="arial" font-size="14.00"> DD+ </text>
<polygon fill="none" stroke="black" points="595.5,-103 595.5,-126 673.5,-126 673.5,-103 595.5,-103"/>
<text text-anchor="start" x="626.5" y="-110.8" font-family="arial" font-size="14.00"> 5 </text>
<polygon fill="none" stroke="black" points="362.5,-80 362.5,-103 441.5,-103 441.5,-80 362.5,-80"/>
<text text-anchor="start" x="394" y="-87.8" font-family="arial" font-size="14.00"> 6 </text>
<polygon fill="none" stroke="black" points="441.5,-80 441.5,-103 595.5,-103 595.5,-80 441.5,-80"/>
<text text-anchor="start" x="502.5" y="-87.8" font-family="arial" font-size="14.00"> DD&#45; </text>
<polygon fill="none" stroke="black" points="595.5,-80 595.5,-103 673.5,-103 673.5,-80 595.5,-80"/>
<text text-anchor="start" x="626.5" y="-87.8" font-family="arial" font-size="14.00"> 6 </text>
<polygon fill="none" stroke="black" points="362.5,-57 362.5,-80 441.5,-80 441.5,-57 362.5,-57"/>
<text text-anchor="start" x="394" y="-64.8" font-family="arial" font-size="14.00"> 7 </text>
<polygon fill="none" stroke="black" points="441.5,-57 441.5,-80 595.5,-80 595.5,-57 441.5,-57"/>
<text text-anchor="start" x="502.5" y="-64.8" font-family="arial" font-size="14.00"> LB1 </text>
<polygon fill="none" stroke="black" points="595.5,-57 595.5,-80 673.5,-80 673.5,-57 595.5,-57"/>
<text text-anchor="start" x="626.5" y="-64.8" font-family="arial" font-size="14.00"> 7 </text>
<polygon fill="none" stroke="black" points="362.5,-34 362.5,-57 441.5,-57 441.5,-34 362.5,-34"/>
<text text-anchor="start" x="394" y="-41.8" font-family="arial" font-size="14.00"> 8 </text>
<polygon fill="none" stroke="black" points="441.5,-34 441.5,-57 595.5,-57 595.5,-34 441.5,-34"/>
<text text-anchor="start" x="502.5" y="-41.8" font-family="arial" font-size="14.00"> LB2 </text>
<polygon fill="none" stroke="black" points="595.5,-34 595.5,-57 673.5,-57 673.5,-34 595.5,-34"/>
<text text-anchor="start" x="626.5" y="-41.8" font-family="arial" font-size="14.00"> 8 </text>
</g>
<!-- X1&#45;&#45;X1 -->
<g id="edge1" class="edge">
<title>X1:w&#45;&#45;X1:w</title>
<path fill="none" stroke="#ff66cc" stroke-width="2" d="M362.5,-207C283.33,-219 126,-219 126,-195.5 126,-172 283.33,-172 362.5,-184"/>
<text text-anchor="middle" x="63" y="-184.3" font-family="arial" font-size="14.00">X1:1:DA+⇿X1:2:DA&#45;</text>
</g>
<!-- X1&#45;&#45;X1 -->
<g id="edge2" class="edge">
<title>X1:w&#45;&#45;X1:w</title>
<path fill="none" stroke="black" stroke-width="2" d="M362.5,-137C283.33,-125 126,-125 126,-149 126,-173 283.33,-173 362.5,-161"/>
<text text-anchor="middle" x="64" y="-137.8" font-family="arial" font-size="14.00">X1:4:LB3⇿X1:3:LB4</text>
</g>
<!-- W1 -->
<g id="node3" class="node">
<title>W1</title>
<polygon fill="#ffffff" stroke="black" points="1090,-273 889,-273 889,-89 1090,-89 1090,-273"/>
<polygon fill="#ffffff" stroke="transparent" points="889,-89 889,-273 1090,-273 1090,-89 889,-89"/>
<polygon fill="#ffffff" stroke="transparent" points="889.5,-250 889.5,-273 1090.5,-273 1090.5,-250 889.5,-250"/>
<polygon fill="none" stroke="black" points="889.5,-250 889.5,-273 1090.5,-273 1090.5,-250 889.5,-250"/>
<text text-anchor="start" x="971.5" y="-258.8" font-family="arial" font-size="14.00"> </text>
<text text-anchor="start" x="975.5" y="-258.8" font-family="arial" font-weight="bold" font-size="14.00"> W1 </text>
<text text-anchor="start" x="1004.5" y="-258.8" font-family="arial" font-size="14.00"> </text>
<polygon fill="none" stroke="black" points="889.5,-227 889.5,-250 948.5,-250 948.5,-227 889.5,-227"/>
<text text-anchor="start" x="894.5" y="-234.8" font-family="arial" font-size="14.00"> CAT5e </text>
<polygon fill="none" stroke="black" points="948.5,-227 948.5,-250 980.5,-250 980.5,-227 948.5,-227"/>
<text text-anchor="start" x="953.5" y="-234.8" font-family="arial" font-size="14.00"> 4x </text>
<polygon fill="none" stroke="black" points="980.5,-227 980.5,-250 1050.5,-250 1050.5,-227 980.5,-227"/>
<text text-anchor="start" x="985.5" y="-234.8" font-family="arial" font-size="14.00"> 24 AWG </text>
<polygon fill="none" stroke="black" points="1050.5,-227 1050.5,-250 1090.5,-250 1090.5,-227 1050.5,-227"/>
<text text-anchor="start" x="1055" y="-234.8" font-family="arial" font-size="14.00"> 1 m </text>
<text text-anchor="start" x="923" y="-213.8" font-family="arial" font-size="14.00"> </text>
<text text-anchor="start" x="891.5" y="-194.8" font-family="arial" font-size="14.00"> X1:1:DA+ </text>
<text text-anchor="start" x="962.5" y="-194.8" font-family="arial" font-size="14.00"> </text>
<text text-anchor="start" x="970.5" y="-194.8" font-family="arial" font-size="14.00"> 1:WH </text>
<text text-anchor="start" x="1017.5" y="-194.8" font-family="arial" font-size="14.00"> </text>
<text text-anchor="start" x="1025.5" y="-194.8" font-family="arial" font-size="14.00"> X2:3:DA+</text>
<polygon fill="#000000" stroke="transparent" points="889.5,-187 889.5,-189 1090.5,-189 1090.5,-187 889.5,-187"/>
<polygon fill="#ffffff" stroke="transparent" points="889.5,-185 889.5,-187 1090.5,-187 1090.5,-185 889.5,-185"/>
<polygon fill="#000000" stroke="transparent" points="889.5,-183 889.5,-185 1090.5,-185 1090.5,-183 889.5,-183"/>
<text text-anchor="start" x="891.5" y="-169.8" font-family="arial" font-size="14.00"> X1:2:DA&#45; </text>
<text text-anchor="start" x="962.5" y="-169.8" font-family="arial" font-size="14.00"> </text>
<text text-anchor="start" x="972" y="-169.8" font-family="arial" font-size="14.00"> 2:GN </text>
<text text-anchor="start" x="1017.5" y="-169.8" font-family="arial" font-size="14.00"> </text>
<text text-anchor="start" x="1039.5" y="-169.8" font-family="arial" font-size="14.00"> X2:6:A&#45;</text>
<polygon fill="#000000" stroke="transparent" points="889.5,-162 889.5,-164 1090.5,-164 1090.5,-162 889.5,-162"/>
<polygon fill="#00aa00" stroke="transparent" points="889.5,-160 889.5,-162 1090.5,-162 1090.5,-160 889.5,-160"/>
<polygon fill="#000000" stroke="transparent" points="889.5,-158 889.5,-160 1090.5,-160 1090.5,-158 889.5,-158"/>
<text text-anchor="start" x="891.5" y="-144.8" font-family="arial" font-size="14.00"> X1:5:DD+ </text>
<text text-anchor="start" x="962.5" y="-144.8" font-family="arial" font-size="14.00"> </text>
<text text-anchor="start" x="970.5" y="-144.8" font-family="arial" font-size="14.00"> 3:WH </text>
<text text-anchor="start" x="1017.5" y="-144.8" font-family="arial" font-size="14.00"> </text>
<text text-anchor="start" x="1034.5" y="-144.8" font-family="arial" font-size="14.00"> X2:4:D+</text>
<polygon fill="#000000" stroke="transparent" points="889.5,-137 889.5,-139 1090.5,-139 1090.5,-137 889.5,-137"/>
<polygon fill="#ffffff" stroke="transparent" points="889.5,-135 889.5,-137 1090.5,-137 1090.5,-135 889.5,-135"/>
<polygon fill="#000000" stroke="transparent" points="889.5,-133 889.5,-135 1090.5,-135 1090.5,-133 889.5,-133"/>
<text text-anchor="start" x="891.5" y="-119.8" font-family="arial" font-size="14.00"> X1:6:DD&#45; </text>
<text text-anchor="start" x="962.5" y="-119.8" font-family="arial" font-size="14.00"> </text>
<text text-anchor="start" x="973" y="-119.8" font-family="arial" font-size="14.00"> 4:BU </text>
<text text-anchor="start" x="1017.5" y="-119.8" font-family="arial" font-size="14.00"> </text>
<text text-anchor="start" x="1038.5" y="-119.8" font-family="arial" font-size="14.00"> X2:5:D&#45;</text>
<polygon fill="#000000" stroke="transparent" points="889.5,-112 889.5,-114 1090.5,-114 1090.5,-112 889.5,-112"/>
<polygon fill="#0066ff" stroke="transparent" points="889.5,-110 889.5,-112 1090.5,-112 1090.5,-110 889.5,-110"/>
<polygon fill="#000000" stroke="transparent" points="889.5,-108 889.5,-110 1090.5,-110 1090.5,-108 889.5,-108"/>
<text text-anchor="start" x="923" y="-94.8" font-family="arial" font-size="14.00"> </text>
</g>
<!-- X1&#45;&#45;W1 -->
<g id="edge5" class="edge">
<title>X1:e&#45;&#45;W1:w</title>
<path fill="none" stroke="#000000" stroke-width="2" d="M673,-207C672.81,-205.01 888.81,-184.01 889,-186"/>
<path fill="none" stroke="#ffffff" stroke-width="2" d="M673,-207C673,-207 889,-186 889,-186"/>
<path fill="none" stroke="#000000" stroke-width="2" d="M673,-207C673.19,-208.99 889.19,-187.99 889,-186"/>
</g>
<!-- X1&#45;&#45;W1 -->
<g id="edge7" class="edge">
<title>X1:e&#45;&#45;W1:w</title>
<path fill="none" stroke="#000000" stroke-width="2" d="M673,-184C672.79,-182.01 888.79,-159.01 889,-161"/>
<path fill="none" stroke="#00aa00" stroke-width="2" d="M673,-184C673,-184 889,-161 889,-161"/>
<path fill="none" stroke="#000000" stroke-width="2" d="M673,-184C673.21,-185.99 889.21,-162.99 889,-161"/>
</g>
<!-- X1&#45;&#45;W1 -->
<g id="edge9" class="edge">
<title>X1:e&#45;&#45;W1:w</title>
<path fill="none" stroke="#000000" stroke-width="2" d="M673,-114C673.2,-112.01 889.2,-134.01 889,-136"/>
<path fill="none" stroke="#ffffff" stroke-width="2" d="M673,-114C673,-114 889,-136 889,-136"/>
<path fill="none" stroke="#000000" stroke-width="2" d="M673,-114C672.8,-115.99 888.8,-137.99 889,-136"/>
</g>
<!-- X1&#45;&#45;W1 -->
<g id="edge11" class="edge">
<title>X1:e&#45;&#45;W1:w</title>
<path fill="none" stroke="#000000" stroke-width="2" d="M673,-91C673.18,-89.01 889.18,-109.01 889,-111"/>
<path fill="none" stroke="#0066ff" stroke-width="2" d="M673,-91C673,-91 889,-111 889,-111"/>
<path fill="none" stroke="#000000" stroke-width="2" d="M673,-91C672.82,-92.99 888.82,-112.99 889,-111"/>
</g>
<!-- X2 -->
<g id="node2" class="node">
<title>X2</title>
<polygon fill="#ffffff" stroke="black" points="1617,-230 1306,-230 1306,0 1617,0 1617,-230"/>
<polygon fill="#ffffff" stroke="transparent" points="1306,0 1306,-230 1617,-230 1617,0 1306,0"/>
<polygon fill="#ffffff" stroke="transparent" points="1306.5,-207 1306.5,-230 1617.5,-230 1617.5,-207 1306.5,-207"/>
<polygon fill="none" stroke="black" points="1306.5,-207 1306.5,-230 1617.5,-230 1617.5,-207 1306.5,-207"/>
<text text-anchor="start" x="1445.5" y="-215.8" font-family="arial" font-size="14.00"> </text>
<text text-anchor="start" x="1449.5" y="-215.8" font-family="arial" font-weight="bold" font-size="14.00"> X2 </text>
<text text-anchor="start" x="1474.5" y="-215.8" font-family="arial" font-size="14.00"> </text>
<polygon fill="none" stroke="black" points="1306.5,-184 1306.5,-207 1525.5,-207 1525.5,-184 1306.5,-184"/>
<text text-anchor="start" x="1310.5" y="-191.8" font-family="arial" font-size="14.00"> Stewart Connector SS&#45;37000&#45;002 </text>
<polygon fill="none" stroke="black" points="1525.5,-184 1525.5,-207 1571.5,-207 1571.5,-184 1525.5,-184"/>
<text text-anchor="start" x="1529.5" y="-191.8" font-family="arial" font-size="14.00"> male </text>
<polygon fill="none" stroke="black" points="1571.5,-184 1571.5,-207 1617.5,-207 1617.5,-184 1571.5,-184"/>
<text text-anchor="start" x="1575.5" y="-191.8" font-family="arial" font-size="14.00"> 8&#45;pin </text>
<polygon fill="none" stroke="black" points="1306.5,-161 1306.5,-184 1385.5,-184 1385.5,-161 1306.5,-161"/>
<text text-anchor="start" x="1338" y="-168.8" font-family="arial" font-size="14.00"> 3 </text>
<polygon fill="none" stroke="black" points="1385.5,-161 1385.5,-184 1538.5,-184 1538.5,-161 1385.5,-161"/>
<text text-anchor="start" x="1444.5" y="-168.8" font-family="arial" font-size="14.00"> DA+ </text>
<polygon fill="none" stroke="black" points="1538.5,-161 1538.5,-184 1617.5,-184 1617.5,-161 1538.5,-161"/>
<text text-anchor="start" x="1570" y="-168.8" font-family="arial" font-size="14.00"> 3 </text>
<polygon fill="none" stroke="black" points="1306.5,-138 1306.5,-161 1385.5,-161 1385.5,-138 1306.5,-138"/>
<text text-anchor="start" x="1338" y="-145.8" font-family="arial" font-size="14.00"> 4 </text>
<polygon fill="none" stroke="black" points="1385.5,-138 1385.5,-161 1538.5,-161 1538.5,-138 1385.5,-138"/>
<text text-anchor="start" x="1449" y="-145.8" font-family="arial" font-size="14.00"> D+ </text>
<polygon fill="none" stroke="black" points="1538.5,-138 1538.5,-161 1617.5,-161 1617.5,-138 1538.5,-138"/>
<text text-anchor="start" x="1570" y="-145.8" font-family="arial" font-size="14.00"> 4 </text>
<polygon fill="none" stroke="black" points="1306.5,-115 1306.5,-138 1385.5,-138 1385.5,-115 1306.5,-115"/>
<text text-anchor="start" x="1338" y="-122.8" font-family="arial" font-size="14.00"> 5 </text>
<polygon fill="none" stroke="black" points="1385.5,-115 1385.5,-138 1538.5,-138 1538.5,-115 1385.5,-115"/>
<text text-anchor="start" x="1451" y="-122.8" font-family="arial" font-size="14.00"> D&#45; </text>
<polygon fill="none" stroke="black" points="1538.5,-115 1538.5,-138 1617.5,-138 1617.5,-115 1538.5,-115"/>
<text text-anchor="start" x="1570" y="-122.8" font-family="arial" font-size="14.00"> 5 </text>
<polygon fill="none" stroke="black" points="1306.5,-92 1306.5,-115 1385.5,-115 1385.5,-92 1306.5,-92"/>
<text text-anchor="start" x="1338" y="-99.8" font-family="arial" font-size="14.00"> 6 </text>
<polygon fill="none" stroke="black" points="1385.5,-92 1385.5,-115 1538.5,-115 1538.5,-92 1385.5,-92"/>
<text text-anchor="start" x="1451.5" y="-99.8" font-family="arial" font-size="14.00"> A&#45; </text>
<polygon fill="none" stroke="black" points="1538.5,-92 1538.5,-115 1617.5,-115 1617.5,-92 1538.5,-92"/>
<text text-anchor="start" x="1570" y="-99.8" font-family="arial" font-size="14.00"> 6 </text>
<polygon fill="none" stroke="black" points="1306.5,-69 1306.5,-92 1385.5,-92 1385.5,-69 1306.5,-69"/>
<text text-anchor="start" x="1338" y="-76.8" font-family="arial" font-size="14.00"> 1 </text>
<polygon fill="none" stroke="black" points="1385.5,-69 1385.5,-92 1538.5,-92 1538.5,-69 1385.5,-69"/>
<text text-anchor="start" x="1446" y="-76.8" font-family="arial" font-size="14.00"> LB5 </text>
<polygon fill="none" stroke="black" points="1538.5,-69 1538.5,-92 1617.5,-92 1617.5,-69 1538.5,-69"/>
<text text-anchor="start" x="1570" y="-76.8" font-family="arial" font-size="14.00"> 1 </text>
<polygon fill="none" stroke="black" points="1306.5,-46 1306.5,-69 1385.5,-69 1385.5,-46 1306.5,-46"/>
<text text-anchor="start" x="1338" y="-53.8" font-family="arial" font-size="14.00"> 2 </text>
<polygon fill="none" stroke="black" points="1385.5,-46 1385.5,-69 1538.5,-69 1538.5,-46 1385.5,-46"/>
<text text-anchor="start" x="1446" y="-53.8" font-family="arial" font-size="14.00"> LB6 </text>
<polygon fill="none" stroke="black" points="1538.5,-46 1538.5,-69 1617.5,-69 1617.5,-46 1538.5,-46"/>
<text text-anchor="start" x="1570" y="-53.8" font-family="arial" font-size="14.00"> 2 </text>
<polygon fill="none" stroke="black" points="1306.5,-23 1306.5,-46 1385.5,-46 1385.5,-23 1306.5,-23"/>
<text text-anchor="start" x="1338" y="-30.8" font-family="arial" font-size="14.00"> 7 </text>
<polygon fill="none" stroke="black" points="1385.5,-23 1385.5,-46 1538.5,-46 1538.5,-23 1385.5,-23"/>
<text text-anchor="start" x="1446" y="-30.8" font-family="arial" font-size="14.00"> LB7 </text>
<polygon fill="none" stroke="black" points="1538.5,-23 1538.5,-46 1617.5,-46 1617.5,-23 1538.5,-23"/>
<text text-anchor="start" x="1570" y="-30.8" font-family="arial" font-size="14.00"> 7 </text>
<polygon fill="none" stroke="black" points="1306.5,0 1306.5,-23 1385.5,-23 1385.5,0 1306.5,0"/>
<text text-anchor="start" x="1338" y="-7.8" font-family="arial" font-size="14.00"> 8 </text>
<polygon fill="none" stroke="black" points="1385.5,0 1385.5,-23 1538.5,-23 1538.5,0 1385.5,0"/>
<text text-anchor="start" x="1446" y="-7.8" font-family="arial" font-size="14.00"> LB8 </text>
<polygon fill="none" stroke="black" points="1538.5,0 1538.5,-23 1617.5,-23 1617.5,0 1538.5,0"/>
<text text-anchor="start" x="1570" y="-7.8" font-family="arial" font-size="14.00"> 8 </text>
</g>
<!-- X2&#45;&#45;X2 -->
<g id="edge3" class="edge">
<title>X2:e&#45;&#45;X2:e</title>
<path fill="none" stroke="#ff0000" stroke-width="2" d="M1617.5,-80C1695.67,-92 1853,-92 1853,-68.5 1853,-45 1695.67,-45 1617.5,-57"/>
</g>
<!-- X2&#45;&#45;X2 -->
<g id="edge4" class="edge">
<title>X2:w&#45;&#45;X2:w</title>
<path fill="none" stroke="#00aa00" stroke-width="2" d="M1306.5,-34C1227.33,-46 1070,-46 1070,-22.5 1070,1 1227.33,1 1306.5,-11"/>
<text text-anchor="middle" x="1008" y="-11.3" font-family="arial" font-size="14.00">X2:7:LB7⇿X2:8:LB8</text>
</g>
<!-- W1&#45;&#45;X2 -->
<g id="edge6" class="edge">
<title>W1:e&#45;&#45;X2:w</title>
<path fill="none" stroke="#000000" stroke-width="2" d="M1090,-186C1089.88,-184 1305.88,-171 1306,-173"/>
<path fill="none" stroke="#ffffff" stroke-width="2" d="M1090,-186C1090,-186 1306,-173 1306,-173"/>
<path fill="none" stroke="#000000" stroke-width="2" d="M1090,-186C1090.12,-188 1306.12,-175 1306,-173"/>
</g>
<!-- W1&#45;&#45;X2 -->
<g id="edge8" class="edge">
<title>W1:e&#45;&#45;X2:w</title>
<path fill="none" stroke="#000000" stroke-width="2" d="M1090,-161C1089.48,-159.07 1305.48,-101.07 1306,-103"/>
<path fill="none" stroke="#00aa00" stroke-width="2" d="M1090,-161C1090,-161 1306,-103 1306,-103"/>
<path fill="none" stroke="#000000" stroke-width="2" d="M1090,-161C1090.52,-162.93 1306.52,-104.93 1306,-103"/>
</g>
<!-- W1&#45;&#45;X2 -->
<g id="edge10" class="edge">
<title>W1:e&#45;&#45;X2:w</title>
<path fill="none" stroke="#000000" stroke-width="2" d="M1090,-136C1090.13,-134 1306.13,-148 1306,-150"/>
<path fill="none" stroke="#ffffff" stroke-width="2" d="M1090,-136C1090,-136 1306,-150 1306,-150"/>
<path fill="none" stroke="#000000" stroke-width="2" d="M1090,-136C1089.87,-138 1305.87,-152 1306,-150"/>
</g>
<!-- W1&#45;&#45;X2 -->
<g id="edge12" class="edge">
<title>W1:e&#45;&#45;X2:w</title>
<path fill="none" stroke="#000000" stroke-width="2" d="M1090,-111C1090.15,-109.01 1306.15,-125.01 1306,-127"/>
<path fill="none" stroke="#0066ff" stroke-width="2" d="M1090,-111C1090,-111 1306,-127 1306,-127"/>
<path fill="none" stroke="#000000" stroke-width="2" d="M1090,-111C1089.85,-112.99 1305.85,-128.99 1306,-127"/>
</g>
</g>
</svg>
