<?xml version="1.0" encoding="UTF-8" standalone="no"?>
<!DOCTYPE svg PUBLIC "-//W3C//DTD SVG 1.1//EN"
 "http://www.w3.org/Graphics/SVG/1.1/DTD/svg11.dtd">
<!-- Generated by graphviz version 2.43.0 (0)
 -->
<!-- Title: %3 Pages: 1 -->
<svg width="1093pt" height="236pt"
 viewBox="0.00 0.00 1093.00 236.00" xmlns="http://www.w3.org/2000/svg" xmlns:xlink="http://www.w3.org/1999/xlink">
<g id="graph0" class="graph" transform="scale(1 1) rotate(0) translate(4 232)">
<title>%3</title>
<polygon fill="#ffffff" stroke="transparent" points="-4,4 -4,-232 1089,-232 1089,4 -4,4"/>
<!-- X1 -->
<g id="node1" class="node">
<title>X1</title>
<polygon fill="#ffffff" stroke="black" points="204,-195 0,-195 0,-57 204,-57 204,-195"/>
<polygon fill="#ffffff" stroke="transparent" points="0,-57 0,-195 204,-195 204,-57 0,-57"/>
<polygon fill="#ffffff" stroke="transparent" points="0,-172 0,-195 204,-195 204,-172 0,-172"/>
<polygon fill="none" stroke="black" points="0,-172 0,-195 204,-195 204,-172 0,-172"/>
<text text-anchor="start" x="85.5" y="-180.8" font-family="arial" font-size="14.00"> </text>
<text text-anchor="start" x="89.5" y="-180.8" font-family="arial" font-weight="bold" font-size="14.00"> X1 </text>
<text text-anchor="start" x="114.5" y="-180.8" font-family="arial" font-size="14.00"> </text>
<polygon fill="none" stroke="black" points="0,-149 0,-172 101,-172 101,-149 0,-149"/>
<text text-anchor="start" x="4" y="-156.8" font-family="arial" font-size="14.00"> Molex KK 254 </text>
<polygon fill="none" stroke="black" points="101,-149 101,-172 158,-172 158,-149 101,-149"/>
<text text-anchor="start" x="105" y="-156.8" font-family="arial" font-size="14.00"> female </text>
<polygon fill="none" stroke="black" points="158,-149 158,-172 204,-172 204,-149 158,-149"/>
<text text-anchor="start" x="162" y="-156.8" font-family="arial" font-size="14.00"> 4&#45;pin </text>
<polygon fill="none" stroke="black" points="0,-126 0,-149 136,-149 136,-126 0,-126"/>
<text text-anchor="start" x="48.5" y="-133.8" font-family="arial" font-size="14.00"> GND </text>
<polygon fill="none" stroke="black" points="136,-126 136,-149 204,-149 204,-126 136,-126"/>
<text text-anchor="start" x="162" y="-133.8" font-family="arial" font-size="14.00"> 1 </text>
<polygon fill="none" stroke="black" points="0,-103 0,-126 136,-126 136,-103 0,-103"/>
<text text-anchor="start" x="49.5" y="-110.8" font-family="arial" font-size="14.00"> VCC </text>
<polygon fill="none" stroke="black" points="136,-103 136,-126 204,-126 204,-103 136,-103"/>
<text text-anchor="start" x="162" y="-110.8" font-family="arial" font-size="14.00"> 2 </text>
<polygon fill="none" stroke="black" points="0,-80 0,-103 136,-103 136,-80 0,-80"/>
<text text-anchor="start" x="54.5" y="-87.8" font-family="arial" font-size="14.00"> RX </text>
<polygon fill="none" stroke="black" points="136,-80 136,-103 204,-103 204,-80 136,-80"/>
<text text-anchor="start" x="162" y="-87.8" font-family="arial" font-size="14.00"> 3 </text>
<polygon fill="none" stroke="black" points="0,-57 0,-80 136,-80 136,-57 0,-57"/>
<text text-anchor="start" x="55.5" y="-64.8" font-family="arial" font-size="14.00"> TX </text>
<polygon fill="none" stroke="black" points="136,-57 136,-80 204,-80 204,-57 136,-57"/>
<text text-anchor="start" x="162" y="-64.8" font-family="arial" font-size="14.00"> 4 </text>
</g>
<!-- W1 -->
<g id="node3" class="node">
<title>W1</title>
<polygon fill="#ffffff" stroke="black" points="665,-228 420,-228 420,0 665,0 665,-228"/>
<polygon fill="#ffffff" stroke="transparent" points="420,0 420,-228 665,-228 665,0 420,0"/>
<polygon fill="#ffffff" stroke="transparent" points="420.5,-205 420.5,-228 665.5,-228 665.5,-205 420.5,-205"/>
<polygon fill="none" stroke="black" points="420.5,-205 420.5,-228 665.5,-228 665.5,-205 420.5,-205"/>
<text text-anchor="start" x="524.5" y="-213.8" font-family="arial" font-size="14.00"> </text>
<text text-anchor="start" x="528.5" y="-213.8" font-family="arial" font-weight="bold" font-size="14.00"> W1 </text>
<text text-anchor="start" x="557.5" y="-213.8" font-family="arial" font-size="14.00"> </text>
<polygon fill="none" stroke="black" points="420.5,-182 420.5,-205 450.5,-205 450.5,-182 420.5,-182"/>
<text text-anchor="start" x="424.5" y="-189.8" font-family="arial" font-size="14.00"> 4x </text>
<polygon fill="none" stroke="black" points="450.5,-182 450.5,-205 589.5,-205 589.5,-182 450.5,-182"/>
<text text-anchor="start" x="454.5" y="-189.8" font-family="arial" font-size="14.00"> 0.25 mm² (24 AWG) </text>
<polygon fill="none" stroke="black" points="589.5,-182 589.5,-205 626.5,-205 626.5,-182 589.5,-182"/>
<text text-anchor="start" x="593.5" y="-189.8" font-family="arial" font-size="14.00"> + S </text>
<polygon fill="none" stroke="black" points="626.5,-182 626.5,-205 665.5,-205 665.5,-182 626.5,-182"/>
<text text-anchor="start" x="630.5" y="-189.8" font-family="arial" font-size="14.00"> 1 m </text>
<text text-anchor="start" x="459" y="-168.8" font-family="arial" font-size="14.00"> </text>
<text text-anchor="start" x="422.5" y="-149.8" font-family="arial" font-size="14.00"> X1:1:GND </text>
<text text-anchor="start" x="507" y="-149.8" font-family="arial" font-size="14.00"> </text>
<text text-anchor="start" x="523.5" y="-149.8" font-family="arial" font-size="14.00"> 1:WH </text>
<text text-anchor="start" x="579" y="-149.8" font-family="arial" font-size="14.00"> </text>
<text text-anchor="start" x="596.5" y="-149.8" font-family="arial" font-size="14.00"> X2:1:GND</text>
<polygon fill="#000000" stroke="transparent" points="420.5,-142 420.5,-144 665.5,-144 665.5,-142 420.5,-142"/>
<polygon fill="#ffffff" stroke="transparent" points="420.5,-140 420.5,-142 665.5,-142 665.5,-140 420.5,-140"/>
<polygon fill="#000000" stroke="transparent" points="420.5,-138 420.5,-140 665.5,-140 665.5,-138 420.5,-138"/>
<text text-anchor="start" x="422.5" y="-124.8" font-family="arial" font-size="14.00"> X1:2:VCC </text>
<text text-anchor="start" x="507" y="-124.8" font-family="arial" font-size="14.00"> </text>
<text text-anchor="start" x="526" y="-124.8" font-family="arial" font-size="14.00"> 2:BN </text>
<text text-anchor="start" x="579" y="-124.8" font-family="arial" font-size="14.00"> </text>
<text text-anchor="start" x="599.5" y="-124.8" font-family="arial" font-size="14.00"> X2:2:VCC</text>
<polygon fill="#000000" stroke="transparent" points="420.5,-117 420.5,-119 665.5,-119 665.5,-117 420.5,-117"/>
<polygon fill="#895956" stroke="transparent" points="420.5,-115 420.5,-117 665.5,-117 665.5,-115 420.5,-115"/>
<polygon fill="#000000" stroke="transparent" points="420.5,-113 420.5,-115 665.5,-115 665.5,-113 420.5,-113"/>
<text text-anchor="start" x="422.5" y="-99.8" font-family="arial" font-size="14.00"> X1:3:RX </text>
<text text-anchor="start" x="507" y="-99.8" font-family="arial" font-size="14.00"> </text>
<text text-anchor="start" x="525" y="-99.8" font-family="arial" font-size="14.00"> 3:GN </text>
<text text-anchor="start" x="579" y="-99.8" font-family="arial" font-size="14.00"> </text>
<text text-anchor="start" x="610.5" y="-99.8" font-family="arial" font-size="14.00"> X2:4:TX</text>
<polygon fill="#000000" stroke="transparent" points="420.5,-92 420.5,-94 665.5,-94 665.5,-92 420.5,-92"/>
<polygon fill="#00aa00" stroke="transparent" points="420.5,-90 420.5,-92 665.5,-92 665.5,-90 420.5,-90"/>
<polygon fill="#000000" stroke="transparent" points="420.5,-88 420.5,-90 665.5,-90 665.5,-88 420.5,-88"/>
<text text-anchor="start" x="422.5" y="-74.8" font-family="arial" font-size="14.00"> X1:4:TX </text>
<text text-anchor="start" x="507" y="-74.8" font-family="arial" font-size="14.00"> </text>
<text text-anchor="start" x="526.5" y="-74.8" font-family="arial" font-size="14.00"> 4:YE </text>
<text text-anchor="start" x="579" y="-74.8" font-family="arial" font-size="14.00"> </text>
<text text-anchor="start" x="608.5" y="-74.8" font-family="arial" font-size="14.00"> X2:3:RX</text>
<polygon fill="#000000" stroke="transparent" points="420.5,-67 420.5,-69 665.5,-69 665.5,-67 420.5,-67"/>
<polygon fill="#ffff00" stroke="transparent" points="420.5,-65 420.5,-67 665.5,-67 665.5,-65 420.5,-65"/>
<polygon fill="#000000" stroke="transparent" points="420.5,-63 420.5,-65 665.5,-65 665.5,-63 420.5,-63"/>
<text text-anchor="start" x="459" y="-49.8" font-family="arial" font-size="14.00"> </text>
<text text-anchor="start" x="422.5" y="-30.8" font-family="arial" font-size="14.00"> X1:1:GND </text>
<text text-anchor="start" x="507" y="-30.8" font-family="arial" font-size="14.00"> </text>
<text text-anchor="start" x="522" y="-30.8" font-family="arial" font-size="14.00"> Shield </text>
<text text-anchor="start" x="579" y="-30.8" font-family="arial" font-size="14.00"> </text>
<text text-anchor="start" x="659.5" y="-30.8" font-family="arial" font-size="14.00"> </text>
<polygon fill="#000000" stroke="transparent" points="420.5,-23 420.5,-25 665.5,-25 665.5,-23 420.5,-23"/>
<polygon fill="#ffffff" stroke="transparent" points="420.5,-21 420.5,-23 665.5,-23 665.5,-21 420.5,-21"/>
<polygon fill="#000000" stroke="transparent" points="420.5,-19 420.5,-21 665.5,-21 665.5,-19 420.5,-19"/>
<text text-anchor="start" x="459" y="-5.8" font-family="arial" font-size="14.00"> </text>
</g>
<!-- X1&#45;&#45;W1 -->
<g id="edge1" class="edge">
<title>X1:e&#45;&#45;W1:w</title>
<path fill="none" stroke="#000000" stroke-width="2" d="M204,-138C204.03,-136 420.03,-139 420,-141"/>
<path fill="none" stroke="#ffffff" stroke-width="2" d="M204,-138C204,-138 420,-141 420,-141"/>
<path fill="none" stroke="#000000" stroke-width="2" d="M204,-138C203.97,-140 419.97,-143 420,-141"/>
</g>
<!-- X1&#45;&#45;W1 -->
<g id="edge3" class="edge">
<title>X1:e&#45;&#45;W1:w</title>
<path fill="none" stroke="#000000" stroke-width="2" d="M204,-114C204.02,-112 420.02,-114 420,-116"/>
<path fill="none" stroke="#895956" stroke-width="2" d="M204,-114C204,-114 420,-116 420,-116"/>
<path fill="none" stroke="#000000" stroke-width="2" d="M204,-114C203.98,-116 419.98,-118 420,-116"/>
</g>
<!-- X1&#45;&#45;W1 -->
<g id="edge5" class="edge">
<title>X1:e&#45;&#45;W1:w</title>
<path fill="none" stroke="#000000" stroke-width="2" d="M204,-91C204,-89 420,-89 420,-91"/>
<path fill="none" stroke="#00aa00" stroke-width="2" d="M204,-91C204,-91 420,-91 420,-91"/>
<path fill="none" stroke="#000000" stroke-width="2" d="M204,-91C204,-93 420,-93 420,-91"/>
</g>
<!-- X1&#45;&#45;W1 -->
<g id="edge7" class="edge">
<title>X1:e&#45;&#45;W1:w</title>
<path fill="none" stroke="#000000" stroke-width="2" d="M204,-68C203.98,-66 419.98,-64 420,-66"/>
<path fill="none" stroke="#ffff00" stroke-width="2" d="M204,-68C204,-68 420,-66 420,-66"/>
<path fill="none" stroke="#000000" stroke-width="2" d="M204,-68C204.02,-70 420.02,-68 420,-66"/>
</g>
<!-- X1&#45;&#45;W1 -->
<g id="edge9" class="edge">
<title>X1:e&#45;&#45;W1:w</title>
<path fill="none" stroke="#000000" stroke-width="2" d="M204,-138C204,-138 420,-22 420,-22"/>
</g>
<!-- X2 -->
<g id="node2" class="node">
<title>X2</title>
<polygon fill="#ffffff" stroke="black" points="1085,-197 881,-197 881,-59 1085,-59 1085,-197"/>
<polygon fill="#ffffff" stroke="transparent" points="881,-59 881,-197 1085,-197 1085,-59 881,-59"/>
<polygon fill="#ffffff" stroke="transparent" points="881,-174 881,-197 1085,-197 1085,-174 881,-174"/>
<polygon fill="none" stroke="black" points="881,-174 881,-197 1085,-197 1085,-174 881,-174"/>
<text text-anchor="start" x="966.5" y="-182.8" font-family="arial" font-size="14.00"> </text>
<text text-anchor="start" x="970.5" y="-182.8" font-family="arial" font-weight="bold" font-size="14.00"> X2 </text>
<text text-anchor="start" x="995.5" y="-182.8" font-family="arial" font-size="14.00"> </text>
<polygon fill="none" stroke="black" points="881,-151 881,-174 982,-174 982,-151 881,-151"/>
<text text-anchor="start" x="885" y="-158.8" font-family="arial" font-size="14.00"> Molex KK 254 </text>
<polygon fill="none" stroke="black" points="982,-151 982,-174 1039,-174 1039,-151 982,-151"/>
<text text-anchor="start" x="986" y="-158.8" font-family="arial" font-size="14.00"> female </text>
<polygon fill="none" stroke="black" points="1039,-151 1039,-174 1085,-174 1085,-151 1039,-151"/>
<text text-anchor="start" x="1043" y="-158.8" font-family="arial" font-size="14.00"> 4&#45;pin </text>
<polygon fill="none" stroke="black" points="881,-128 881,-151 950,-151 950,-128 881,-128"/>
<text text-anchor="start" x="907.5" y="-135.8" font-family="arial" font-size="14.00"> 1 </text>
<polygon fill="none" stroke="black" points="950,-128 950,-151 1085,-151 1085,-128 950,-128"/>
<text text-anchor="start" x="998" y="-135.8" font-family="arial" font-size="14.00"> GND </text>
<polygon fill="none" stroke="black" points="881,-105 881,-128 950,-128 950,-105 881,-105"/>
<text text-anchor="start" x="907.5" y="-112.8" font-family="arial" font-size="14.00"> 2 </text>
<polygon fill="none" stroke="black" points="950,-105 950,-128 1085,-128 1085,-105 950,-105"/>
<text text-anchor="start" x="999" y="-112.8" font-family="arial" font-size="14.00"> VCC </text>
<polygon fill="none" stroke="black" points="881,-82 881,-105 950,-105 950,-82 881,-82"/>
<text text-anchor="start" x="907.5" y="-89.8" font-family="arial" font-size="14.00"> 3 </text>
<polygon fill="none" stroke="black" points="950,-82 950,-105 1085,-105 1085,-82 950,-82"/>
<text text-anchor="start" x="1004" y="-89.8" font-family="arial" font-size="14.00"> RX </text>
<polygon fill="none" stroke="black" points="881,-59 881,-82 950,-82 950,-59 881,-59"/>
<text text-anchor="start" x="907.5" y="-66.8" font-family="arial" font-size="14.00"> 4 </text>
<polygon fill="none" stroke="black" points="950,-59 950,-82 1085,-82 1085,-59 950,-59"/>
<text text-anchor="start" x="1005" y="-66.8" font-family="arial" font-size="14.00"> TX </text>
</g>
<!-- W1&#45;&#45;X2 -->
<g id="edge2" class="edge">
<title>W1:e&#45;&#45;X2:w</title>
<path fill="none" stroke="#000000" stroke-width="2" d="M665,-141C664.99,-139 880.99,-138 881,-140"/>
<path fill="none" stroke="#ffffff" stroke-width="2" d="M665,-141C665,-141 881,-140 881,-140"/>
<path fill="none" stroke="#000000" stroke-width="2" d="M665,-141C665.01,-143 881.01,-142 881,-140"/>
</g>
<!-- W1&#45;&#45;X2 -->
<g id="edge4" class="edge">
<title>W1:e&#45;&#45;X2:w</title>
<path fill="none" stroke="#000000" stroke-width="2" d="M665,-116C665,-114 881,-114 881,-116"/>
<path fill="none" stroke="#895956" stroke-width="2" d="M665,-116C665,-116 881,-116 881,-116"/>
<path fill="none" stroke="#000000" stroke-width="2" d="M665,-116C665,-118 881,-118 881,-116"/>
</g>
<!-- W1&#45;&#45;X2 -->
<g id="edge6" class="edge">
<title>W1:e&#45;&#45;X2:w</title>
<path fill="none" stroke="#000000" stroke-width="2" d="M665,-91C664.81,-89.01 880.81,-68.01 881,-70"/>
<path fill="none" stroke="#00aa00" stroke-width="2" d="M665,-91C665,-91 881,-70 881,-70"/>
<path fill="none" stroke="#000000" stroke-width="2" d="M665,-91C665.19,-92.99 881.19,-71.99 881,-70"/>
</g>
<!-- W1&#45;&#45;X2 -->
<g id="edge8" class="edge">
<title>W1:e&#45;&#45;X2:w</title>
<path fill="none" stroke="#000000" stroke-width="2" d="M665,-66C665.25,-64.02 881.25,-91.02 881,-93"/>
<path fill="none" stroke="#ffff00" stroke-width="2" d="M665,-66C665,-66 881,-93 881,-93"/>
<path fill="none" stroke="#000000" stroke-width="2" d="M665,-66C664.75,-67.98 880.75,-94.98 881,-93"/>
</g>
</g>
</svg>
