<?xml version="1.0" encoding="UTF-8" standalone="no"?>
<!DOCTYPE svg PUBLIC "-//W3C//DTD SVG 1.1//EN"
 "http://www.w3.org/Graphics/SVG/1.1/DTD/svg11.dtd">
<!-- Generated by graphviz version 2.43.0 (0)
 -->
<!-- Title: %3 Pages: 1 -->
<svg width="1076pt" height="215pt"
 viewBox="0.00 0.00 1076.00 214.50" xmlns="http://www.w3.org/2000/svg" xmlns:xlink="http://www.w3.org/1999/xlink">
<g id="graph0" class="graph" transform="scale(1 1) rotate(0) translate(4 210.5)">
<title>%3</title>
<polygon fill="#ffffff" stroke="transparent" points="-4,4 -4,-210.5 1072,-210.5 1072,4 -4,4"/>
<!-- AUTOGENERATED_F1_1 -->
<g id="node1" class="node">
<title>AUTOGENERATED_F1_1</title>
<polygon fill="#ffffff" stroke="black" points="239,-164 0,-164 0,-141 239,-141 239,-164"/>
<polygon fill="#ffffff" stroke="transparent" points="0,-141 0,-164 239,-164 239,-141 0,-141"/>
<polygon fill="none" stroke="black" points="0.5,-140.5 0.5,-163.5 110.5,-163.5 110.5,-140.5 0.5,-140.5"/>
<text text-anchor="start" x="4.5" y="-148.3" font-family="arial" font-size="14.00"> Crimp ferrule </text>
<polygon fill="none" stroke="black" points="110.5,-140.5 110.5,-163.5 187.5,-163.5 187.5,-140.5 110.5,-140.5"/>
<text text-anchor="start" x="114.5" y="-148.3" font-family="arial" font-size="14.00"> 0.5 mm² </text>
<polygon fill="none" stroke="black" points="187.5,-140.5 187.5,-163.5 226.5,-163.5 226.5,-140.5 187.5,-140.5"/>
<text text-anchor="start" x="191.5" y="-148.3" font-family="arial" font-size="14.00"> OG </text>
<polygon fill="#ff8000" stroke="transparent" points="226.5,-140.5 226.5,-163.5 239.5,-163.5 239.5,-140.5 226.5,-140.5"/>
<polygon fill="none" stroke="black" points="226.5,-140.5 226.5,-163.5 239.5,-163.5 239.5,-140.5 226.5,-140.5"/>
<text text-anchor="start" x="230.5" y="-148.3" font-family="arial" font-size="14.00"> </text>
</g>
<!-- W1 -->
<g id="node6" class="node">
<title>W1</title>
<polygon fill="#ffffff" stroke="black" points="634,-206.5 455,-206.5 455,-22.5 634,-22.5 634,-206.5"/>
<polygon fill="#ffffff" stroke="transparent" points="455,-22.5 455,-206.5 634,-206.5 634,-22.5 455,-22.5"/>
<polygon fill="#ffffff" stroke="transparent" points="455.5,-183.5 455.5,-206.5 634.5,-206.5 634.5,-183.5 455.5,-183.5"/>
<polygon fill="none" stroke="black" points="455.5,-183.5 455.5,-206.5 634.5,-206.5 634.5,-183.5 455.5,-183.5"/>
<text text-anchor="start" x="522.5" y="-192.3" font-family="arial" font-size="14.00"> </text>
<text text-anchor="start" x="527.5" y="-192.3" font-family="arial" font-weight="bold" font-size="14.00"> W1 </text>
<text text-anchor="start" x="562.5" y="-192.3" font-family="arial" font-size="14.00"> </text>
<polygon fill="none" stroke="black" points="455.5,-160.5 455.5,-183.5 490.5,-183.5 490.5,-160.5 455.5,-160.5"/>
<text text-anchor="start" x="459.5" y="-168.3" font-family="arial" font-size="14.00"> 4x </text>
<polygon fill="none" stroke="black" points="490.5,-160.5 490.5,-183.5 567.5,-183.5 567.5,-160.5 490.5,-160.5"/>
<text text-anchor="start" x="494.5" y="-168.3" font-family="arial" font-size="14.00"> 0.5 mm² </text>
<polygon fill="none" stroke="black" points="567.5,-160.5 567.5,-183.5 634.5,-183.5 634.5,-160.5 567.5,-160.5"/>
<text text-anchor="start" x="571.5" y="-168.3" font-family="arial" font-size="14.00"> 0.30 m </text>
<text text-anchor="start" x="461.5" y="-147.3" font-family="arial" font-size="14.00"> </text>
<text text-anchor="start" x="457.5" y="-128.3" font-family="arial" font-size="14.00"> &#160;</text>
<text text-anchor="start" x="476" y="-128.3" font-family="arial" font-size="14.00"> </text>
<text text-anchor="start" x="489.5" y="-128.3" font-family="arial" font-size="14.00"> 1:YE </text>
<text text-anchor="start" x="538" y="-128.3" font-family="arial" font-size="14.00"> </text>
<text text-anchor="start" x="550.5" y="-128.3" font-family="arial" font-size="14.00"> X1:1:+12V</text>
<polygon fill="#000000" stroke="transparent" points="455.5,-120.5 455.5,-122.5 634.5,-122.5 634.5,-120.5 455.5,-120.5"/>
<polygon fill="#ffff00" stroke="transparent" points="455.5,-118.5 455.5,-120.5 634.5,-120.5 634.5,-118.5 455.5,-118.5"/>
<polygon fill="#000000" stroke="transparent" points="455.5,-116.5 455.5,-118.5 634.5,-118.5 634.5,-116.5 455.5,-116.5"/>
<text text-anchor="start" x="457.5" y="-103.3" font-family="arial" font-size="14.00"> &#160;</text>
<text text-anchor="start" x="476" y="-103.3" font-family="arial" font-size="14.00"> </text>
<text text-anchor="start" x="488.5" y="-103.3" font-family="arial" font-size="14.00"> 2:BK </text>
<text text-anchor="start" x="538" y="-103.3" font-family="arial" font-size="14.00"> </text>
<text text-anchor="start" x="559.5" y="-103.3" font-family="arial" font-size="14.00"> X1:2:GND</text>
<polygon fill="#000000" stroke="transparent" points="455.5,-95.5 455.5,-97.5 634.5,-97.5 634.5,-95.5 455.5,-95.5"/>
<polygon fill="#000000" stroke="transparent" points="455.5,-93.5 455.5,-95.5 634.5,-95.5 634.5,-93.5 455.5,-93.5"/>
<polygon fill="#000000" stroke="transparent" points="455.5,-91.5 455.5,-93.5 634.5,-93.5 634.5,-91.5 455.5,-91.5"/>
<text text-anchor="start" x="457.5" y="-78.3" font-family="arial" font-size="14.00"> &#160;</text>
<text text-anchor="start" x="476" y="-78.3" font-family="arial" font-size="14.00"> </text>
<text text-anchor="start" x="488.5" y="-78.3" font-family="arial" font-size="14.00"> 3:BK </text>
<text text-anchor="start" x="538" y="-78.3" font-family="arial" font-size="14.00"> </text>
<text text-anchor="start" x="559.5" y="-78.3" font-family="arial" font-size="14.00"> X1:3:GND</text>
<polygon fill="#000000" stroke="transparent" points="455.5,-70.5 455.5,-72.5 634.5,-72.5 634.5,-70.5 455.5,-70.5"/>
<polygon fill="#000000" stroke="transparent" points="455.5,-68.5 455.5,-70.5 634.5,-70.5 634.5,-68.5 455.5,-68.5"/>
<polygon fill="#000000" stroke="transparent" points="455.5,-66.5 455.5,-68.5 634.5,-68.5 634.5,-66.5 455.5,-66.5"/>
<text text-anchor="start" x="457.5" y="-53.3" font-family="arial" font-size="14.00"> &#160;</text>
<text text-anchor="start" x="476" y="-53.3" font-family="arial" font-size="14.00"> </text>
<text text-anchor="start" x="488" y="-53.3" font-family="arial" font-size="14.00"> 4:RD </text>
<text text-anchor="start" x="538" y="-53.3" font-family="arial" font-size="14.00"> </text>
<text text-anchor="start" x="559.5" y="-53.3" font-family="arial" font-size="14.00"> X1:4:+5V</text>
<polygon fill="#000000" stroke="transparent" points="455.5,-45.5 455.5,-47.5 634.5,-47.5 634.5,-45.5 455.5,-45.5"/>
<polygon fill="#ff0000" stroke="transparent" points="455.5,-43.5 455.5,-45.5 634.5,-45.5 634.5,-43.5 455.5,-43.5"/>
<polygon fill="#000000" stroke="transparent" points="455.5,-41.5 455.5,-43.5 634.5,-43.5 634.5,-41.5 455.5,-41.5"/>
<text text-anchor="start" x="461.5" y="-28.3" font-family="arial" font-size="14.00"> </text>
</g>
<!-- AUTOGENERATED_F1_1&#45;&#45;W1 -->
<g id="edge1" class="edge">
<title>AUTOGENERATED_F1_1:e&#45;&#45;W1:w</title>
<path fill="none" stroke="#000000" stroke-width="2" d="M239,-152.5C238.7,-150.52 454.7,-117.52 455,-119.5"/>
<path fill="none" stroke="#ffff00" stroke-width="2" d="M239,-152.5C239,-152.5 455,-119.5 455,-119.5"/>
<path fill="none" stroke="#000000" stroke-width="2" d="M239,-152.5C239.3,-154.48 455.3,-121.48 455,-119.5"/>
</g>
<!-- AUTOGENERATED_F1_2 -->
<g id="node2" class="node">
<title>AUTOGENERATED_F1_2</title>
<polygon fill="#ffffff" stroke="black" points="239,-117 0,-117 0,-94 239,-94 239,-117"/>
<polygon fill="#ffffff" stroke="transparent" points="0,-94 0,-117 239,-117 239,-94 0,-94"/>
<polygon fill="none" stroke="black" points="0.5,-93.5 0.5,-116.5 110.5,-116.5 110.5,-93.5 0.5,-93.5"/>
<text text-anchor="start" x="4.5" y="-101.3" font-family="arial" font-size="14.00"> Crimp ferrule </text>
<polygon fill="none" stroke="black" points="110.5,-93.5 110.5,-116.5 187.5,-116.5 187.5,-93.5 110.5,-93.5"/>
<text text-anchor="start" x="114.5" y="-101.3" font-family="arial" font-size="14.00"> 0.5 mm² </text>
<polygon fill="none" stroke="black" points="187.5,-93.5 187.5,-116.5 226.5,-116.5 226.5,-93.5 187.5,-93.5"/>
<text text-anchor="start" x="191.5" y="-101.3" font-family="arial" font-size="14.00"> OG </text>
<polygon fill="#ff8000" stroke="transparent" points="226.5,-93.5 226.5,-116.5 239.5,-116.5 239.5,-93.5 226.5,-93.5"/>
<polygon fill="none" stroke="black" points="226.5,-93.5 226.5,-116.5 239.5,-116.5 239.5,-93.5 226.5,-93.5"/>
<text text-anchor="start" x="230.5" y="-101.3" font-family="arial" font-size="14.00"> </text>
</g>
<!-- AUTOGENERATED_F1_2&#45;&#45;W1 -->
<g id="edge3" class="edge">
<title>AUTOGENERATED_F1_2:e&#45;&#45;W1:w</title>
<path fill="none" stroke="#000000" stroke-width="2" d="M239,-105.5C238.9,-103.5 454.9,-92.5 455,-94.5"/>
<path fill="none" stroke="#000000" stroke-width="2" d="M239,-105.5C239,-105.5 455,-94.5 455,-94.5"/>
<path fill="none" stroke="#000000" stroke-width="2" d="M239,-105.5C239.1,-107.5 455.1,-96.5 455,-94.5"/>
</g>
<!-- AUTOGENERATED_F1_3 -->
<g id="node3" class="node">
<title>AUTOGENERATED_F1_3</title>
<polygon fill="#ffffff" stroke="black" points="239,-70 0,-70 0,-47 239,-47 239,-70"/>
<polygon fill="#ffffff" stroke="transparent" points="0,-47 0,-70 239,-70 239,-47 0,-47"/>
<polygon fill="none" stroke="black" points="0.5,-46.5 0.5,-69.5 110.5,-69.5 110.5,-46.5 0.5,-46.5"/>
<text text-anchor="start" x="4.5" y="-54.3" font-family="arial" font-size="14.00"> Crimp ferrule </text>
<polygon fill="none" stroke="black" points="110.5,-46.5 110.5,-69.5 187.5,-69.5 187.5,-46.5 110.5,-46.5"/>
<text text-anchor="start" x="114.5" y="-54.3" font-family="arial" font-size="14.00"> 0.5 mm² </text>
<polygon fill="none" stroke="black" points="187.5,-46.5 187.5,-69.5 226.5,-69.5 226.5,-46.5 187.5,-46.5"/>
<text text-anchor="start" x="191.5" y="-54.3" font-family="arial" font-size="14.00"> OG </text>
<polygon fill="#ff8000" stroke="transparent" points="226.5,-46.5 226.5,-69.5 239.5,-69.5 239.5,-46.5 226.5,-46.5"/>
<polygon fill="none" stroke="black" points="226.5,-46.5 226.5,-69.5 239.5,-69.5 239.5,-46.5 226.5,-46.5"/>
<text text-anchor="start" x="230.5" y="-54.3" font-family="arial" font-size="14.00"> </text>
</g>
<!-- AUTOGENERATED_F1_3&#45;&#45;W1 -->
<g id="edge5" class="edge">
<title>AUTOGENERATED_F1_3:e&#45;&#45;W1:w</title>
<path fill="none" stroke="#000000" stroke-width="2" d="M239,-58.5C239.1,-56.5 455.1,-67.5 455,-69.5"/>
<path fill="none" stroke="#000000" stroke-width="2" d="M239,-58.5C239,-58.5 455,-69.5 455,-69.5"/>
<path fill="none" stroke="#000000" stroke-width="2" d="M239,-58.5C238.9,-60.5 454.9,-71.5 455,-69.5"/>
</g>
<!-- AUTOGENERATED_F1_4 -->
<g id="node4" class="node">
<title>AUTOGENERATED_F1_4</title>
<polygon fill="#ffffff" stroke="black" points="239,-23 0,-23 0,0 239,0 239,-23"/>
<polygon fill="#ffffff" stroke="transparent" points="0,0 0,-23 239,-23 239,0 0,0"/>
<polygon fill="none" stroke="black" points="0.5,0.5 0.5,-22.5 110.5,-22.5 110.5,0.5 0.5,0.5"/>
<text text-anchor="start" x="4.5" y="-7.3" font-family="arial" font-size="14.00"> Crimp ferrule </text>
<polygon fill="none" stroke="black" points="110.5,0.5 110.5,-22.5 187.5,-22.5 187.5,0.5 110.5,0.5"/>
<text text-anchor="start" x="114.5" y="-7.3" font-family="arial" font-size="14.00"> 0.5 mm² </text>
<polygon fill="none" stroke="black" points="187.5,0.5 187.5,-22.5 226.5,-22.5 226.5,0.5 187.5,0.5"/>
<text text-anchor="start" x="191.5" y="-7.3" font-family="arial" font-size="14.00"> OG </text>
<polygon fill="#ff8000" stroke="transparent" points="226.5,0.5 226.5,-22.5 239.5,-22.5 239.5,0.5 226.5,0.5"/>
<polygon fill="none" stroke="black" points="226.5,0.5 226.5,-22.5 239.5,-22.5 239.5,0.5 226.5,0.5"/>
<text text-anchor="start" x="230.5" y="-7.3" font-family="arial" font-size="14.00"> </text>
</g>
<!-- AUTOGENERATED_F1_4&#45;&#45;W1 -->
<g id="edge7" class="edge">
<title>AUTOGENERATED_F1_4:e&#45;&#45;W1:w</title>
<path fill="none" stroke="#000000" stroke-width="2" d="M239,-11.5C239.3,-9.52 455.3,-42.52 455,-44.5"/>
<path fill="none" stroke="#ff0000" stroke-width="2" d="M239,-11.5C239,-11.5 455,-44.5 455,-44.5"/>
<path fill="none" stroke="#000000" stroke-width="2" d="M239,-11.5C238.7,-13.48 454.7,-46.48 455,-44.5"/>
</g>
<!-- X1 -->
<g id="node5" class="node">
<title>X1</title>
<polygon fill="#ffffff" stroke="black" points="1068,-174.5 850,-174.5 850,-36.5 1068,-36.5 1068,-174.5"/>
<polygon fill="#ffffff" stroke="transparent" points="850,-36.5 850,-174.5 1068,-174.5 1068,-36.5 850,-36.5"/>
<polygon fill="#ffffff" stroke="transparent" points="850,-151.5 850,-174.5 1068,-174.5 1068,-151.5 850,-151.5"/>
<polygon fill="none" stroke="black" points="850,-151.5 850,-174.5 1068,-174.5 1068,-151.5 850,-151.5"/>
<text text-anchor="start" x="939" y="-160.3" font-family="arial" font-size="14.00"> </text>
<text text-anchor="start" x="944" y="-160.3" font-family="arial" font-weight="bold" font-size="14.00"> X1 </text>
<text text-anchor="start" x="974" y="-160.3" font-family="arial" font-size="14.00"> </text>
<polygon fill="none" stroke="black" points="850,-128.5 850,-151.5 949,-151.5 949,-128.5 850,-128.5"/>
<text text-anchor="start" x="854" y="-136.3" font-family="arial" font-size="14.00"> Molex 8981 </text>
<polygon fill="none" stroke="black" points="949,-128.5 949,-151.5 1014,-151.5 1014,-128.5 949,-128.5"/>
<text text-anchor="start" x="953" y="-136.3" font-family="arial" font-size="14.00"> female </text>
<polygon fill="none" stroke="black" points="1014,-128.5 1014,-151.5 1068,-151.5 1068,-128.5 1014,-128.5"/>
<text text-anchor="start" x="1018" y="-136.3" font-family="arial" font-size="14.00"> 4&#45;pin </text>
<polygon fill="none" stroke="black" points="850,-105.5 850,-128.5 922,-128.5 922,-105.5 850,-105.5"/>
<text text-anchor="start" x="876.5" y="-113.3" font-family="arial" font-size="14.00"> 1 </text>
<polygon fill="none" stroke="black" points="922,-105.5 922,-128.5 1068,-128.5 1068,-105.5 922,-105.5"/>
<text text-anchor="start" x="970.5" y="-113.3" font-family="arial" font-size="14.00"> +12V </text>
<polygon fill="none" stroke="black" points="850,-82.5 850,-105.5 922,-105.5 922,-82.5 850,-82.5"/>
<text text-anchor="start" x="876.5" y="-90.3" font-family="arial" font-size="14.00"> 2 </text>
<polygon fill="none" stroke="black" points="922,-82.5 922,-105.5 1068,-105.5 1068,-82.5 922,-82.5"/>
<text text-anchor="start" x="974.5" y="-90.3" font-family="arial" font-size="14.00"> GND </text>
<polygon fill="none" stroke="black" points="850,-59.5 850,-82.5 922,-82.5 922,-59.5 850,-59.5"/>
<text text-anchor="start" x="876.5" y="-67.3" font-family="arial" font-size="14.00"> 3 </text>
<polygon fill="none" stroke="black" points="922,-59.5 922,-82.5 1068,-82.5 1068,-59.5 922,-59.5"/>
<text text-anchor="start" x="974.5" y="-67.3" font-family="arial" font-size="14.00"> GND </text>
<polygon fill="none" stroke="black" points="850,-36.5 850,-59.5 922,-59.5 922,-36.5 850,-36.5"/>
<text text-anchor="start" x="876.5" y="-44.3" font-family="arial" font-size="14.00"> 4 </text>
<polygon fill="none" stroke="black" points="922,-36.5 922,-59.5 1068,-59.5 1068,-36.5 922,-36.5"/>
<text text-anchor="start" x="975" y="-44.3" font-family="arial" font-size="14.00"> +5V </text>
</g>
<!-- W1&#45;&#45;X1 -->
<g id="edge2" class="edge">
<title>W1:e&#45;&#45;X1:w</title>
<path fill="none" stroke="#000000" stroke-width="2" d="M634,-119.5C633.98,-117.5 849.98,-115.5 850,-117.5"/>
<path fill="none" stroke="#ffff00" stroke-width="2" d="M634,-119.5C634,-119.5 850,-117.5 850,-117.5"/>
<path fill="none" stroke="#000000" stroke-width="2" d="M634,-119.5C634.02,-121.5 850.02,-119.5 850,-117.5"/>
</g>
<!-- W1&#45;&#45;X1 -->
<g id="edge4" class="edge">
<title>W1:e&#45;&#45;X1:w</title>
<path fill="none" stroke="#000000" stroke-width="2" d="M634,-94.5C633.99,-92.5 849.99,-91.5 850,-93.5"/>
<path fill="none" stroke="#000000" stroke-width="2" d="M634,-94.5C634,-94.5 850,-93.5 850,-93.5"/>
<path fill="none" stroke="#000000" stroke-width="2" d="M634,-94.5C634.01,-96.5 850.01,-95.5 850,-93.5"/>
</g>
<!-- W1&#45;&#45;X1 -->
<g id="edge6" class="edge">
<title>W1:e&#45;&#45;X1:w</title>
<path fill="none" stroke="#000000" stroke-width="2" d="M634,-69.5C634.01,-67.5 850.01,-68.5 850,-70.5"/>
<path fill="none" stroke="#000000" stroke-width="2" d="M634,-69.5C634,-69.5 850,-70.5 850,-70.5"/>
<path fill="none" stroke="#000000" stroke-width="2" d="M634,-69.5C633.99,-71.5 849.99,-72.5 850,-70.5"/>
</g>
<!-- W1&#45;&#45;X1 -->
<g id="edge8" class="edge">
<title>W1:e&#45;&#45;X1:w</title>
<path fill="none" stroke="#000000" stroke-width="2" d="M634,-44.5C634.03,-42.5 850.03,-45.5 850,-47.5"/>
<path fill="none" stroke="#ff0000" stroke-width="2" d="M634,-44.5C634,-44.5 850,-47.5 850,-47.5"/>
<path fill="none" stroke="#000000" stroke-width="2" d="M634,-44.5C633.97,-46.5 849.97,-49.5 850,-47.5"/>
</g>
</g>
</svg>
