<?xml version="1.0" encoding="UTF-8" standalone="no"?>
<!DOCTYPE svg PUBLIC "-//W3C//DTD SVG 1.1//EN"
 "http://www.w3.org/Graphics/SVG/1.1/DTD/svg11.dtd">
<!-- Generated by graphviz version 2.43.0 (0)
 -->
<!-- Title: %3 Pages: 1 -->
<svg width="2003pt" height="215pt"
 viewBox="0.00 0.00 2003.00 215.00" xmlns="http://www.w3.org/2000/svg" xmlns:xlink="http://www.w3.org/1999/xlink">
<g id="graph0" class="graph" transform="scale(1 1) rotate(0) translate(4 211)">
<title>%3</title>
<polygon fill="#ffffff" stroke="transparent" points="-4,4 -4,-211 1999,-211 1999,4 -4,4"/>
<!-- X1 -->
<g id="node1" class="node">
<title>X1</title>
<polygon fill="#ffffff" stroke="black" points="217,-175 0,-175 0,-14 217,-14 217,-175"/>
<polygon fill="#ffffff" stroke="transparent" points="0,-14 0,-175 217,-175 217,-14 0,-14"/>
<polygon fill="#ffffff" stroke="transparent" points="0.5,-151.5 0.5,-174.5 217.5,-174.5 217.5,-151.5 0.5,-151.5"/>
<polygon fill="none" stroke="black" points="0.5,-151.5 0.5,-174.5 217.5,-174.5 217.5,-151.5 0.5,-151.5"/>
<text text-anchor="start" x="89" y="-160.3" font-family="arial" font-size="14.00"> </text>
<text text-anchor="start" x="94" y="-160.3" font-family="arial" font-weight="bold" font-size="14.00"> X1 </text>
<text text-anchor="start" x="124" y="-160.3" font-family="arial" font-size="14.00"> </text>
<polygon fill="none" stroke="black" points="0.5,-128.5 0.5,-151.5 112.5,-151.5 112.5,-128.5 0.5,-128.5"/>
<text text-anchor="start" x="4.5" y="-136.3" font-family="arial" font-size="14.00"> Molex KK 254 </text>
<polygon fill="none" stroke="black" points="112.5,-128.5 112.5,-151.5 163.5,-151.5 163.5,-128.5 112.5,-128.5"/>
<text text-anchor="start" x="116.5" y="-136.3" font-family="arial" font-size="14.00"> male </text>
<polygon fill="none" stroke="black" points="163.5,-128.5 163.5,-151.5 217.5,-151.5 217.5,-128.5 163.5,-128.5"/>
<text text-anchor="start" x="167.5" y="-136.3" font-family="arial" font-size="14.00"> 4&#45;pin </text>
<polygon fill="none" stroke="black" points="0.5,-105.5 0.5,-128.5 143.5,-128.5 143.5,-105.5 0.5,-105.5"/>
<text text-anchor="start" x="51.5" y="-113.3" font-family="arial" font-size="14.00"> GND </text>
<polygon fill="none" stroke="black" points="143.5,-105.5 143.5,-128.5 217.5,-128.5 217.5,-105.5 143.5,-105.5"/>
<text text-anchor="start" x="171" y="-113.3" font-family="arial" font-size="14.00"> 1 </text>
<polygon fill="none" stroke="black" points="0.5,-82.5 0.5,-105.5 143.5,-105.5 143.5,-82.5 0.5,-82.5"/>
<text text-anchor="start" x="52.5" y="-90.3" font-family="arial" font-size="14.00"> VCC </text>
<polygon fill="none" stroke="black" points="143.5,-82.5 143.5,-105.5 217.5,-105.5 217.5,-82.5 143.5,-82.5"/>
<text text-anchor="start" x="171" y="-90.3" font-family="arial" font-size="14.00"> 2 </text>
<polygon fill="none" stroke="black" points="0.5,-59.5 0.5,-82.5 143.5,-82.5 143.5,-59.5 0.5,-59.5"/>
<text text-anchor="start" x="54" y="-67.3" font-family="arial" font-size="14.00"> SCL </text>
<polygon fill="none" stroke="black" points="143.5,-59.5 143.5,-82.5 217.5,-82.5 217.5,-59.5 143.5,-59.5"/>
<text text-anchor="start" x="171" y="-67.3" font-family="arial" font-size="14.00"> 3 </text>
<polygon fill="none" stroke="black" points="0.5,-36.5 0.5,-59.5 143.5,-59.5 143.5,-36.5 0.5,-36.5"/>
<text text-anchor="start" x="52.5" y="-44.3" font-family="arial" font-size="14.00"> SDA </text>
<polygon fill="none" stroke="black" points="143.5,-36.5 143.5,-59.5 217.5,-59.5 217.5,-36.5 143.5,-36.5"/>
<text text-anchor="start" x="171" y="-44.3" font-family="arial" font-size="14.00"> 4 </text>
<polygon fill="none" stroke="black" points="0.5,-13.5 0.5,-36.5 217.5,-36.5 217.5,-13.5 0.5,-13.5"/>
<text text-anchor="start" x="43.5" y="-21.3" font-family="arial" font-size="14.00"> to microcontroller </text>
</g>
<!-- W1 -->
<g id="node4" class="node">
<title>W1</title>
<polygon fill="#ffffff" stroke="black" points="659,-207 433,-207 433,0 659,0 659,-207"/>
<polygon fill="#ffffff" stroke="transparent" points="433,0 433,-207 659,-207 659,0 433,0"/>
<polygon fill="#ffffff" stroke="transparent" points="433,-183.5 433,-206.5 659,-206.5 659,-183.5 433,-183.5"/>
<polygon fill="none" stroke="black" points="433,-183.5 433,-206.5 659,-206.5 659,-183.5 433,-183.5"/>
<text text-anchor="start" x="523.5" y="-192.3" font-family="arial" font-size="14.00"> </text>
<text text-anchor="start" x="528.5" y="-192.3" font-family="arial" font-weight="bold" font-size="14.00"> W1 </text>
<text text-anchor="start" x="563.5" y="-192.3" font-family="arial" font-size="14.00"> </text>
<polygon fill="none" stroke="black" points="433,-160.5 433,-183.5 485,-183.5 485,-160.5 433,-160.5"/>
<text text-anchor="start" x="445.5" y="-168.3" font-family="arial" font-size="14.00"> 4x </text>
<polygon fill="none" stroke="black" points="485,-160.5 485,-183.5 575,-183.5 575,-160.5 485,-160.5"/>
<text text-anchor="start" x="497.5" y="-168.3" font-family="arial" font-size="14.00"> 24 AWG </text>
<polygon fill="none" stroke="black" points="575,-160.5 575,-183.5 659,-183.5 659,-160.5 575,-160.5"/>
<text text-anchor="start" x="587.5" y="-168.3" font-family="arial" font-size="14.00"> 0.30 m </text>
<text text-anchor="start" x="471.5" y="-147.3" font-family="arial" font-size="14.00"> </text>
<text text-anchor="start" x="435" y="-128.3" font-family="arial" font-size="14.00"> X1:1:GND </text>
<text text-anchor="start" x="517" y="-128.3" font-family="arial" font-size="14.00"> </text>
<text text-anchor="start" x="527" y="-128.3" font-family="arial" font-size="14.00"> 1:BN </text>
<text text-anchor="start" x="575" y="-128.3" font-family="arial" font-size="14.00"> </text>
<text text-anchor="start" x="584" y="-128.3" font-family="arial" font-size="14.00"> X2:1:GND</text>
<polygon fill="#000000" stroke="transparent" points="433,-120.5 433,-122.5 659,-122.5 659,-120.5 433,-120.5"/>
<polygon fill="#895956" stroke="transparent" points="433,-118.5 433,-120.5 659,-120.5 659,-118.5 433,-118.5"/>
<polygon fill="#000000" stroke="transparent" points="433,-116.5 433,-118.5 659,-118.5 659,-116.5 433,-116.5"/>
<text text-anchor="start" x="435" y="-103.3" font-family="arial" font-size="14.00"> X1:2:VCC </text>
<text text-anchor="start" x="517" y="-103.3" font-family="arial" font-size="14.00"> </text>
<text text-anchor="start" x="527" y="-103.3" font-family="arial" font-size="14.00"> 2:RD </text>
<text text-anchor="start" x="575" y="-103.3" font-family="arial" font-size="14.00"> </text>
<text text-anchor="start" x="586" y="-103.3" font-family="arial" font-size="14.00"> X2:2:VCC</text>
<polygon fill="#000000" stroke="transparent" points="433,-95.5 433,-97.5 659,-97.5 659,-95.5 433,-95.5"/>
<polygon fill="#ff0000" stroke="transparent" points="433,-93.5 433,-95.5 659,-95.5 659,-93.5 433,-93.5"/>
<polygon fill="#000000" stroke="transparent" points="433,-91.5 433,-93.5 659,-93.5 659,-91.5 433,-91.5"/>
<text text-anchor="start" x="435" y="-78.3" font-family="arial" font-size="14.00"> X1:3:SCL </text>
<text text-anchor="start" x="517" y="-78.3" font-family="arial" font-size="14.00"> </text>
<text text-anchor="start" x="526" y="-78.3" font-family="arial" font-size="14.00"> 3:OG </text>
<text text-anchor="start" x="575" y="-78.3" font-family="arial" font-size="14.00"> </text>
<text text-anchor="start" x="589" y="-78.3" font-family="arial" font-size="14.00"> X2:3:SCL</text>
<polygon fill="#000000" stroke="transparent" points="433,-70.5 433,-72.5 659,-72.5 659,-70.5 433,-70.5"/>
<polygon fill="#ff8000" stroke="transparent" points="433,-68.5 433,-70.5 659,-70.5 659,-68.5 433,-68.5"/>
<polygon fill="#000000" stroke="transparent" points="433,-66.5 433,-68.5 659,-68.5 659,-66.5 433,-66.5"/>
<text text-anchor="start" x="435" y="-53.3" font-family="arial" font-size="14.00"> X1:4:SDA </text>
<text text-anchor="start" x="517" y="-53.3" font-family="arial" font-size="14.00"> </text>
<text text-anchor="start" x="528.5" y="-53.3" font-family="arial" font-size="14.00"> 4:YE </text>
<text text-anchor="start" x="575" y="-53.3" font-family="arial" font-size="14.00"> </text>
<text text-anchor="start" x="586" y="-53.3" font-family="arial" font-size="14.00"> X2:4:SDA</text>
<polygon fill="#000000" stroke="transparent" points="433,-45.5 433,-47.5 659,-47.5 659,-45.5 433,-45.5"/>
<polygon fill="#ffff00" stroke="transparent" points="433,-43.5 433,-45.5 659,-45.5 659,-43.5 433,-43.5"/>
<polygon fill="#000000" stroke="transparent" points="433,-41.5 433,-43.5 659,-43.5 659,-41.5 433,-41.5"/>
<text text-anchor="start" x="471.5" y="-28.3" font-family="arial" font-size="14.00"> </text>
<polygon fill="none" stroke="black" points="433,0.5 433,-22.5 659,-22.5 659,0.5 433,0.5"/>
<text text-anchor="start" x="456.5" y="-7.3" font-family="arial" font-size="14.00"> This cable is a bit longer </text>
</g>
<!-- X1&#45;&#45;W1 -->
<g id="edge1" class="edge">
<title>X1:e&#45;&#45;W1:w</title>
<path fill="none" stroke="#000000" stroke-width="2" d="M217,-117.5C217.02,-115.5 433.02,-117.5 433,-119.5"/>
<path fill="none" stroke="#895956" stroke-width="2" d="M217,-117.5C217,-117.5 433,-119.5 433,-119.5"/>
<path fill="none" stroke="#000000" stroke-width="2" d="M217,-117.5C216.98,-119.5 432.98,-121.5 433,-119.5"/>
</g>
<!-- X1&#45;&#45;W1 -->
<g id="edge3" class="edge">
<title>X1:e&#45;&#45;W1:w</title>
<path fill="none" stroke="#000000" stroke-width="2" d="M217,-93.5C217.01,-91.5 433.01,-92.5 433,-94.5"/>
<path fill="none" stroke="#ff0000" stroke-width="2" d="M217,-93.5C217,-93.5 433,-94.5 433,-94.5"/>
<path fill="none" stroke="#000000" stroke-width="2" d="M217,-93.5C216.99,-95.5 432.99,-96.5 433,-94.5"/>
</g>
<!-- X1&#45;&#45;W1 -->
<g id="edge5" class="edge">
<title>X1:e&#45;&#45;W1:w</title>
<path fill="none" stroke="#000000" stroke-width="2" d="M217,-70.5C216.99,-68.5 432.99,-67.5 433,-69.5"/>
<path fill="none" stroke="#ff8000" stroke-width="2" d="M217,-70.5C217,-70.5 433,-69.5 433,-69.5"/>
<path fill="none" stroke="#000000" stroke-width="2" d="M217,-70.5C217.01,-72.5 433.01,-71.5 433,-69.5"/>
</g>
<!-- X1&#45;&#45;W1 -->
<g id="edge7" class="edge">
<title>X1:e&#45;&#45;W1:w</title>
<path fill="none" stroke="#000000" stroke-width="2" d="M217,-47.5C216.97,-45.5 432.97,-42.5 433,-44.5"/>
<path fill="none" stroke="#ffff00" stroke-width="2" d="M217,-47.5C217,-47.5 433,-44.5 433,-44.5"/>
<path fill="none" stroke="#000000" stroke-width="2" d="M217,-47.5C217.03,-49.5 433.03,-46.5 433,-44.5"/>
</g>
<!-- X2 -->
<g id="node2" class="node">
<title>X2</title>
<polygon fill="#ffffff" stroke="black" points="1106,-175 875,-175 875,-14 1106,-14 1106,-175"/>
<polygon fill="#ffffff" stroke="transparent" points="875,-14 875,-175 1106,-175 1106,-14 875,-14"/>
<polygon fill="#ffffff" stroke="transparent" points="875.5,-151.5 875.5,-174.5 1106.5,-174.5 1106.5,-151.5 875.5,-151.5"/>
<polygon fill="none" stroke="black" points="875.5,-151.5 875.5,-174.5 1106.5,-174.5 1106.5,-151.5 875.5,-151.5"/>
<text text-anchor="start" x="971" y="-160.3" font-family="arial" font-size="14.00"> </text>
<text text-anchor="start" x="976" y="-160.3" font-family="arial" font-weight="bold" font-size="14.00"> X2 </text>
<text text-anchor="start" x="1006" y="-160.3" font-family="arial" font-size="14.00"> </text>
<polygon fill="none" stroke="black" points="875.5,-128.5 875.5,-151.5 987.5,-151.5 987.5,-128.5 875.5,-128.5"/>
<text text-anchor="start" x="879.5" y="-136.3" font-family="arial" font-size="14.00"> Molex KK 254 </text>
<polygon fill="none" stroke="black" points="987.5,-128.5 987.5,-151.5 1052.5,-151.5 1052.5,-128.5 987.5,-128.5"/>
<text text-anchor="start" x="991.5" y="-136.3" font-family="arial" font-size="14.00"> female </text>
<polygon fill="none" stroke="black" points="1052.5,-128.5 1052.5,-151.5 1106.5,-151.5 1106.5,-128.5 1052.5,-128.5"/>
<text text-anchor="start" x="1056.5" y="-136.3" font-family="arial" font-size="14.00"> 4&#45;pin </text>
<polygon fill="none" stroke="black" points="875.5,-105.5 875.5,-128.5 934.5,-128.5 934.5,-105.5 875.5,-105.5"/>
<text text-anchor="start" x="895.5" y="-113.3" font-family="arial" font-size="14.00"> 1 </text>
<polygon fill="none" stroke="black" points="934.5,-105.5 934.5,-128.5 1047.5,-128.5 1047.5,-105.5 934.5,-105.5"/>
<text text-anchor="start" x="970.5" y="-113.3" font-family="arial" font-size="14.00"> GND </text>
<polygon fill="none" stroke="black" points="1047.5,-105.5 1047.5,-128.5 1106.5,-128.5 1106.5,-105.5 1047.5,-105.5"/>
<text text-anchor="start" x="1067.5" y="-113.3" font-family="arial" font-size="14.00"> 1 </text>
<polygon fill="none" stroke="black" points="875.5,-82.5 875.5,-105.5 934.5,-105.5 934.5,-82.5 875.5,-82.5"/>
<text text-anchor="start" x="895.5" y="-90.3" font-family="arial" font-size="14.00"> 2 </text>
<polygon fill="none" stroke="black" points="934.5,-82.5 934.5,-105.5 1047.5,-105.5 1047.5,-82.5 934.5,-82.5"/>
<text text-anchor="start" x="971.5" y="-90.3" font-family="arial" font-size="14.00"> VCC </text>
<polygon fill="none" stroke="black" points="1047.5,-82.5 1047.5,-105.5 1106.5,-105.5 1106.5,-82.5 1047.5,-82.5"/>
<text text-anchor="start" x="1067.5" y="-90.3" font-family="arial" font-size="14.00"> 2 </text>
<polygon fill="none" stroke="black" points="875.5,-59.5 875.5,-82.5 934.5,-82.5 934.5,-59.5 875.5,-59.5"/>
<text text-anchor="start" x="895.5" y="-67.3" font-family="arial" font-size="14.00"> 3 </text>
<polygon fill="none" stroke="black" points="934.5,-59.5 934.5,-82.5 1047.5,-82.5 1047.5,-59.5 934.5,-59.5"/>
<text text-anchor="start" x="973" y="-67.3" font-family="arial" font-size="14.00"> SCL </text>
<polygon fill="none" stroke="black" points="1047.5,-59.5 1047.5,-82.5 1106.5,-82.5 1106.5,-59.5 1047.5,-59.5"/>
<text text-anchor="start" x="1067.5" y="-67.3" font-family="arial" font-size="14.00"> 3 </text>
<polygon fill="none" stroke="black" points="875.5,-36.5 875.5,-59.5 934.5,-59.5 934.5,-36.5 875.5,-36.5"/>
<text text-anchor="start" x="895.5" y="-44.3" font-family="arial" font-size="14.00"> 4 </text>
<polygon fill="none" stroke="black" points="934.5,-36.5 934.5,-59.5 1047.5,-59.5 1047.5,-36.5 934.5,-36.5"/>
<text text-anchor="start" x="971.5" y="-44.3" font-family="arial" font-size="14.00"> SDA </text>
<polygon fill="none" stroke="black" points="1047.5,-36.5 1047.5,-59.5 1106.5,-59.5 1106.5,-36.5 1047.5,-36.5"/>
<text text-anchor="start" x="1067.5" y="-44.3" font-family="arial" font-size="14.00"> 4 </text>
<polygon fill="none" stroke="black" points="875.5,-13.5 875.5,-36.5 1106.5,-36.5 1106.5,-13.5 875.5,-13.5"/>
<text text-anchor="start" x="928" y="-21.3" font-family="arial" font-size="14.00"> to accelerometer </text>
</g>
<!-- W2 -->
<g id="node5" class="node">
<title>W2</title>
<polygon fill="#ffffff" stroke="black" points="1548,-207 1322,-207 1322,0 1548,0 1548,-207"/>
<polygon fill="#ffffff" stroke="transparent" points="1322,0 1322,-207 1548,-207 1548,0 1322,0"/>
<polygon fill="#ffffff" stroke="transparent" points="1322,-183.5 1322,-206.5 1548,-206.5 1548,-183.5 1322,-183.5"/>
<polygon fill="none" stroke="black" points="1322,-183.5 1322,-206.5 1548,-206.5 1548,-183.5 1322,-183.5"/>
<text text-anchor="start" x="1412.5" y="-192.3" font-family="arial" font-size="14.00"> </text>
<text text-anchor="start" x="1417.5" y="-192.3" font-family="arial" font-weight="bold" font-size="14.00"> W2 </text>
<text text-anchor="start" x="1452.5" y="-192.3" font-family="arial" font-size="14.00"> </text>
<polygon fill="none" stroke="black" points="1322,-160.5 1322,-183.5 1374,-183.5 1374,-160.5 1322,-160.5"/>
<text text-anchor="start" x="1334.5" y="-168.3" font-family="arial" font-size="14.00"> 4x </text>
<polygon fill="none" stroke="black" points="1374,-160.5 1374,-183.5 1464,-183.5 1464,-160.5 1374,-160.5"/>
<text text-anchor="start" x="1386.5" y="-168.3" font-family="arial" font-size="14.00"> 24 AWG </text>
<polygon fill="none" stroke="black" points="1464,-160.5 1464,-183.5 1548,-183.5 1548,-160.5 1464,-160.5"/>
<text text-anchor="start" x="1476.5" y="-168.3" font-family="arial" font-size="14.00"> 0.10 m </text>
<text text-anchor="start" x="1360.5" y="-147.3" font-family="arial" font-size="14.00"> </text>
<text text-anchor="start" x="1324" y="-128.3" font-family="arial" font-size="14.00"> X2:1:GND </text>
<text text-anchor="start" x="1406" y="-128.3" font-family="arial" font-size="14.00"> </text>
<text text-anchor="start" x="1416" y="-128.3" font-family="arial" font-size="14.00"> 1:BN </text>
<text text-anchor="start" x="1464" y="-128.3" font-family="arial" font-size="14.00"> </text>
<text text-anchor="start" x="1473" y="-128.3" font-family="arial" font-size="14.00"> X3:1:GND</text>
<polygon fill="#000000" stroke="transparent" points="1322,-120.5 1322,-122.5 1548,-122.5 1548,-120.5 1322,-120.5"/>
<polygon fill="#895956" stroke="transparent" points="1322,-118.5 1322,-120.5 1548,-120.5 1548,-118.5 1322,-118.5"/>
<polygon fill="#000000" stroke="transparent" points="1322,-116.5 1322,-118.5 1548,-118.5 1548,-116.5 1322,-116.5"/>
<text text-anchor="start" x="1324" y="-103.3" font-family="arial" font-size="14.00"> X2:2:VCC </text>
<text text-anchor="start" x="1406" y="-103.3" font-family="arial" font-size="14.00"> </text>
<text text-anchor="start" x="1416" y="-103.3" font-family="arial" font-size="14.00"> 2:RD </text>
<text text-anchor="start" x="1464" y="-103.3" font-family="arial" font-size="14.00"> </text>
<text text-anchor="start" x="1475" y="-103.3" font-family="arial" font-size="14.00"> X3:2:VCC</text>
<polygon fill="#000000" stroke="transparent" points="1322,-95.5 1322,-97.5 1548,-97.5 1548,-95.5 1322,-95.5"/>
<polygon fill="#ff0000" stroke="transparent" points="1322,-93.5 1322,-95.5 1548,-95.5 1548,-93.5 1322,-93.5"/>
<polygon fill="#000000" stroke="transparent" points="1322,-91.5 1322,-93.5 1548,-93.5 1548,-91.5 1322,-91.5"/>
<text text-anchor="start" x="1324" y="-78.3" font-family="arial" font-size="14.00"> X2:3:SCL </text>
<text text-anchor="start" x="1406" y="-78.3" font-family="arial" font-size="14.00"> </text>
<text text-anchor="start" x="1415" y="-78.3" font-family="arial" font-size="14.00"> 3:OG </text>
<text text-anchor="start" x="1464" y="-78.3" font-family="arial" font-size="14.00"> </text>
<text text-anchor="start" x="1478" y="-78.3" font-family="arial" font-size="14.00"> X3:3:SCL</text>
<polygon fill="#000000" stroke="transparent" points="1322,-70.5 1322,-72.5 1548,-72.5 1548,-70.5 1322,-70.5"/>
<polygon fill="#ff8000" stroke="transparent" points="1322,-68.5 1322,-70.5 1548,-70.5 1548,-68.5 1322,-68.5"/>
<polygon fill="#000000" stroke="transparent" points="1322,-66.5 1322,-68.5 1548,-68.5 1548,-66.5 1322,-66.5"/>
<text text-anchor="start" x="1324" y="-53.3" font-family="arial" font-size="14.00"> X2:4:SDA </text>
<text text-anchor="start" x="1406" y="-53.3" font-family="arial" font-size="14.00"> </text>
<text text-anchor="start" x="1417.5" y="-53.3" font-family="arial" font-size="14.00"> 4:YE </text>
<text text-anchor="start" x="1464" y="-53.3" font-family="arial" font-size="14.00"> </text>
<text text-anchor="start" x="1475" y="-53.3" font-family="arial" font-size="14.00"> X3:4:SDA</text>
<polygon fill="#000000" stroke="transparent" points="1322,-45.5 1322,-47.5 1548,-47.5 1548,-45.5 1322,-45.5"/>
<polygon fill="#ffff00" stroke="transparent" points="1322,-43.5 1322,-45.5 1548,-45.5 1548,-43.5 1322,-43.5"/>
<polygon fill="#000000" stroke="transparent" points="1322,-41.5 1322,-43.5 1548,-43.5 1548,-41.5 1322,-41.5"/>
<text text-anchor="start" x="1360.5" y="-28.3" font-family="arial" font-size="14.00"> </text>
<polygon fill="none" stroke="black" points="1322,0.5 1322,-22.5 1548,-22.5 1548,0.5 1322,0.5"/>
<text text-anchor="start" x="1342.5" y="-7.3" font-family="arial" font-size="14.00"> This cable is a bit shorter </text>
</g>
<!-- X2&#45;&#45;W2 -->
<g id="edge9" class="edge">
<title>X2:e&#45;&#45;W2:w</title>
<path fill="none" stroke="#000000" stroke-width="2" d="M1106,-117.5C1106.02,-115.5 1322.02,-117.5 1322,-119.5"/>
<path fill="none" stroke="#895956" stroke-width="2" d="M1106,-117.5C1106,-117.5 1322,-119.5 1322,-119.5"/>
<path fill="none" stroke="#000000" stroke-width="2" d="M1106,-117.5C1105.98,-119.5 1321.98,-121.5 1322,-119.5"/>
</g>
<!-- X2&#45;&#45;W2 -->
<g id="edge11" class="edge">
<title>X2:e&#45;&#45;W2:w</title>
<path fill="none" stroke="#000000" stroke-width="2" d="M1106,-93.5C1106.01,-91.5 1322.01,-92.5 1322,-94.5"/>
<path fill="none" stroke="#ff0000" stroke-width="2" d="M1106,-93.5C1106,-93.5 1322,-94.5 1322,-94.5"/>
<path fill="none" stroke="#000000" stroke-width="2" d="M1106,-93.5C1105.99,-95.5 1321.99,-96.5 1322,-94.5"/>
</g>
<!-- X2&#45;&#45;W2 -->
<g id="edge13" class="edge">
<title>X2:e&#45;&#45;W2:w</title>
<path fill="none" stroke="#000000" stroke-width="2" d="M1106,-70.5C1105.99,-68.5 1321.99,-67.5 1322,-69.5"/>
<path fill="none" stroke="#ff8000" stroke-width="2" d="M1106,-70.5C1106,-70.5 1322,-69.5 1322,-69.5"/>
<path fill="none" stroke="#000000" stroke-width="2" d="M1106,-70.5C1106.01,-72.5 1322.01,-71.5 1322,-69.5"/>
</g>
<!-- X2&#45;&#45;W2 -->
<g id="edge15" class="edge">
<title>X2:e&#45;&#45;W2:w</title>
<path fill="none" stroke="#000000" stroke-width="2" d="M1106,-47.5C1105.97,-45.5 1321.97,-42.5 1322,-44.5"/>
<path fill="none" stroke="#ffff00" stroke-width="2" d="M1106,-47.5C1106,-47.5 1322,-44.5 1322,-44.5"/>
<path fill="none" stroke="#000000" stroke-width="2" d="M1106,-47.5C1106.03,-49.5 1322.03,-46.5 1322,-44.5"/>
</g>
<!-- X3 -->
<g id="node3" class="node">
<title>X3</title>
<polygon fill="#ffffff" stroke="black" points="1995,-175 1764,-175 1764,-14 1995,-14 1995,-175"/>
<polygon fill="#ffffff" stroke="transparent" points="1764,-14 1764,-175 1995,-175 1995,-14 1764,-14"/>
<polygon fill="#ffffff" stroke="transparent" points="1764.5,-151.5 1764.5,-174.5 1995.5,-174.5 1995.5,-151.5 1764.5,-151.5"/>
<polygon fill="none" stroke="black" points="1764.5,-151.5 1764.5,-174.5 1995.5,-174.5 1995.5,-151.5 1764.5,-151.5"/>
<text text-anchor="start" x="1860" y="-160.3" font-family="arial" font-size="14.00"> </text>
<text text-anchor="start" x="1865" y="-160.3" font-family="arial" font-weight="bold" font-size="14.00"> X3 </text>
<text text-anchor="start" x="1895" y="-160.3" font-family="arial" font-size="14.00"> </text>
<polygon fill="none" stroke="black" points="1764.5,-128.5 1764.5,-151.5 1876.5,-151.5 1876.5,-128.5 1764.5,-128.5"/>
<text text-anchor="start" x="1768.5" y="-136.3" font-family="arial" font-size="14.00"> Molex KK 254 </text>
<polygon fill="none" stroke="black" points="1876.5,-128.5 1876.5,-151.5 1941.5,-151.5 1941.5,-128.5 1876.5,-128.5"/>
<text text-anchor="start" x="1880.5" y="-136.3" font-family="arial" font-size="14.00"> female </text>
<polygon fill="none" stroke="black" points="1941.5,-128.5 1941.5,-151.5 1995.5,-151.5 1995.5,-128.5 1941.5,-128.5"/>
<text text-anchor="start" x="1945.5" y="-136.3" font-family="arial" font-size="14.00"> 4&#45;pin </text>
<polygon fill="none" stroke="black" points="1764.5,-105.5 1764.5,-128.5 1843.5,-128.5 1843.5,-105.5 1764.5,-105.5"/>
<text text-anchor="start" x="1794.5" y="-113.3" font-family="arial" font-size="14.00"> 1 </text>
<polygon fill="none" stroke="black" points="1843.5,-105.5 1843.5,-128.5 1995.5,-128.5 1995.5,-105.5 1843.5,-105.5"/>
<text text-anchor="start" x="1899" y="-113.3" font-family="arial" font-size="14.00"> GND </text>
<polygon fill="none" stroke="black" points="1764.5,-82.5 1764.5,-105.5 1843.5,-105.5 1843.5,-82.5 1764.5,-82.5"/>
<text text-anchor="start" x="1794.5" y="-90.3" font-family="arial" font-size="14.00"> 2 </text>
<polygon fill="none" stroke="black" points="1843.5,-82.5 1843.5,-105.5 1995.5,-105.5 1995.5,-82.5 1843.5,-82.5"/>
<text text-anchor="start" x="1900" y="-90.3" font-family="arial" font-size="14.00"> VCC </text>
<polygon fill="none" stroke="black" points="1764.5,-59.5 1764.5,-82.5 1843.5,-82.5 1843.5,-59.5 1764.5,-59.5"/>
<text text-anchor="start" x="1794.5" y="-67.3" font-family="arial" font-size="14.00"> 3 </text>
<polygon fill="none" stroke="black" points="1843.5,-59.5 1843.5,-82.5 1995.5,-82.5 1995.5,-59.5 1843.5,-59.5"/>
<text text-anchor="start" x="1901.5" y="-67.3" font-family="arial" font-size="14.00"> SCL </text>
<polygon fill="none" stroke="black" points="1764.5,-36.5 1764.5,-59.5 1843.5,-59.5 1843.5,-36.5 1764.5,-36.5"/>
<text text-anchor="start" x="1794.5" y="-44.3" font-family="arial" font-size="14.00"> 4 </text>
<polygon fill="none" stroke="black" points="1843.5,-36.5 1843.5,-59.5 1995.5,-59.5 1995.5,-36.5 1843.5,-36.5"/>
<text text-anchor="start" x="1900" y="-44.3" font-family="arial" font-size="14.00"> SDA </text>
<polygon fill="none" stroke="black" points="1764.5,-13.5 1764.5,-36.5 1995.5,-36.5 1995.5,-13.5 1764.5,-13.5"/>
<text text-anchor="start" x="1797.5" y="-21.3" font-family="arial" font-size="14.00"> to temperature sensor </text>
</g>
<!-- W1&#45;&#45;X2 -->
<g id="edge2" class="edge">
<title>W1:e&#45;&#45;X2:w</title>
<path fill="none" stroke="#000000" stroke-width="2" d="M659,-119.5C658.98,-117.5 874.98,-115.5 875,-117.5"/>
<path fill="none" stroke="#895956" stroke-width="2" d="M659,-119.5C659,-119.5 875,-117.5 875,-117.5"/>
<path fill="none" stroke="#000000" stroke-width="2" d="M659,-119.5C659.02,-121.5 875.02,-119.5 875,-117.5"/>
</g>
<!-- W1&#45;&#45;X2 -->
<g id="edge4" class="edge">
<title>W1:e&#45;&#45;X2:w</title>
<path fill="none" stroke="#000000" stroke-width="2" d="M659,-94.5C658.99,-92.5 874.99,-91.5 875,-93.5"/>
<path fill="none" stroke="#ff0000" stroke-width="2" d="M659,-94.5C659,-94.5 875,-93.5 875,-93.5"/>
<path fill="none" stroke="#000000" stroke-width="2" d="M659,-94.5C659.01,-96.5 875.01,-95.5 875,-93.5"/>
</g>
<!-- W1&#45;&#45;X2 -->
<g id="edge6" class="edge">
<title>W1:e&#45;&#45;X2:w</title>
<path fill="none" stroke="#000000" stroke-width="2" d="M659,-69.5C659.01,-67.5 875.01,-68.5 875,-70.5"/>
<path fill="none" stroke="#ff8000" stroke-width="2" d="M659,-69.5C659,-69.5 875,-70.5 875,-70.5"/>
<path fill="none" stroke="#000000" stroke-width="2" d="M659,-69.5C658.99,-71.5 874.99,-72.5 875,-70.5"/>
</g>
<!-- W1&#45;&#45;X2 -->
<g id="edge8" class="edge">
<title>W1:e&#45;&#45;X2:w</title>
<path fill="none" stroke="#000000" stroke-width="2" d="M659,-44.5C659.03,-42.5 875.03,-45.5 875,-47.5"/>
<path fill="none" stroke="#ffff00" stroke-width="2" d="M659,-44.5C659,-44.5 875,-47.5 875,-47.5"/>
<path fill="none" stroke="#000000" stroke-width="2" d="M659,-44.5C658.97,-46.5 874.97,-49.5 875,-47.5"/>
</g>
<!-- W2&#45;&#45;X3 -->
<g id="edge10" class="edge">
<title>W2:e&#45;&#45;X3:w</title>
<path fill="none" stroke="#000000" stroke-width="2" d="M1548,-119.5C1547.98,-117.5 1763.98,-115.5 1764,-117.5"/>
<path fill="none" stroke="#895956" stroke-width="2" d="M1548,-119.5C1548,-119.5 1764,-117.5 1764,-117.5"/>
<path fill="none" stroke="#000000" stroke-width="2" d="M1548,-119.5C1548.02,-121.5 1764.02,-119.5 1764,-117.5"/>
</g>
<!-- W2&#45;&#45;X3 -->
<g id="edge12" class="edge">
<title>W2:e&#45;&#45;X3:w</title>
<path fill="none" stroke="#000000" stroke-width="2" d="M1548,-94.5C1547.99,-92.5 1763.99,-91.5 1764,-93.5"/>
<path fill="none" stroke="#ff0000" stroke-width="2" d="M1548,-94.5C1548,-94.5 1764,-93.5 1764,-93.5"/>
<path fill="none" stroke="#000000" stroke-width="2" d="M1548,-94.5C1548.01,-96.5 1764.01,-95.5 1764,-93.5"/>
</g>
<!-- W2&#45;&#45;X3 -->
<g id="edge14" class="edge">
<title>W2:e&#45;&#45;X3:w</title>
<path fill="none" stroke="#000000" stroke-width="2" d="M1548,-69.5C1548.01,-67.5 1764.01,-68.5 1764,-70.5"/>
<path fill="none" stroke="#ff8000" stroke-width="2" d="M1548,-69.5C1548,-69.5 1764,-70.5 1764,-70.5"/>
<path fill="none" stroke="#000000" stroke-width="2" d="M1548,-69.5C1547.99,-71.5 1763.99,-72.5 1764,-70.5"/>
</g>
<!-- W2&#45;&#45;X3 -->
<g id="edge16" class="edge">
<title>W2:e&#45;&#45;X3:w</title>
<path fill="none" stroke="#000000" stroke-width="2" d="M1548,-44.5C1548.03,-42.5 1764.03,-45.5 1764,-47.5"/>
<path fill="none" stroke="#ffff00" stroke-width="2" d="M1548,-44.5C1548,-44.5 1764,-47.5 1764,-47.5"/>
<path fill="none" stroke="#000000" stroke-width="2" d="M1548,-44.5C1547.97,-46.5 1763.97,-49.5 1764,-47.5"/>
</g>
</g>
</svg>
