<?xml version="1.0" encoding="UTF-8" standalone="no"?>
<!DOCTYPE svg PUBLIC "-//W3C//DTD SVG 1.1//EN"
 "http://www.w3.org/Graphics/SVG/1.1/DTD/svg11.dtd">
<!-- Generated by graphviz version 2.43.0 (0)
 -->
<!-- Title: %3 Pages: 1 -->
<svg width="1002pt" height="192pt"
 viewBox="0.00 0.00 1002.00 192.00" xmlns="http://www.w3.org/2000/svg" xmlns:xlink="http://www.w3.org/1999/xlink">
<g id="graph0" class="graph" transform="scale(1 1) rotate(0) translate(4 188)">
<title>%3</title>
<polygon fill="#ffffff" stroke="transparent" points="-4,4 -4,-188 998,-188 998,4 -4,4"/>
<!-- AUTOGENERATED_F_05_1 -->
<g id="node1" class="node">
<title>AUTOGENERATED_F_05_1</title>
<polygon fill="#ffffff" stroke="black" points="213,-118.5 0,-118.5 0,-95.5 213,-95.5 213,-118.5"/>
<polygon fill="#ffffff" stroke="transparent" points="0,-95.5 0,-118.5 213,-118.5 213,-95.5 0,-95.5"/>
<polygon fill="none" stroke="black" points="0.5,-95 0.5,-118 95.5,-118 95.5,-95 0.5,-95"/>
<text text-anchor="start" x="4.5" y="-102.8" font-family="arial" font-size="14.00"> Crimp ferrule </text>
<polygon fill="none" stroke="black" points="95.5,-95 95.5,-118 162.5,-118 162.5,-95 95.5,-95"/>
<text text-anchor="start" x="99.5" y="-102.8" font-family="arial" font-size="14.00"> 0.5 mm² </text>
<polygon fill="none" stroke="black" points="162.5,-95 162.5,-118 201.5,-118 201.5,-95 162.5,-95"/>
<text text-anchor="start" x="166.5" y="-102.8" font-family="arial" font-size="14.00"> OG </text>
<polygon fill="#ff8000" stroke="transparent" points="201.5,-95 201.5,-118 213.5,-118 213.5,-95 201.5,-95"/>
<polygon fill="none" stroke="black" points="201.5,-95 201.5,-118 213.5,-118 213.5,-95 201.5,-95"/>
<text text-anchor="start" x="205.5" y="-102.8" font-family="arial" font-size="14.00"> </text>
</g>
<!-- W1 -->
<g id="node5" class="node">
<title>W1</title>
<polygon fill="#ffffff" stroke="black" points="588,-184 429,-184 429,0 588,0 588,-184"/>
<polygon fill="#ffffff" stroke="transparent" points="429,0 429,-184 588,-184 588,0 429,0"/>
<polygon fill="#ffffff" stroke="transparent" points="429.5,-161 429.5,-184 588.5,-184 588.5,-161 429.5,-161"/>
<polygon fill="none" stroke="black" points="429.5,-161 429.5,-184 588.5,-184 588.5,-161 429.5,-161"/>
<text text-anchor="start" x="490.5" y="-169.8" font-family="arial" font-size="14.00"> </text>
<text text-anchor="start" x="494.5" y="-169.8" font-family="arial" font-weight="bold" font-size="14.00"> W1 </text>
<text text-anchor="start" x="523.5" y="-169.8" font-family="arial" font-size="14.00"> </text>
<polygon fill="none" stroke="black" points="429.5,-138 429.5,-161 461.5,-161 461.5,-138 429.5,-138"/>
<text text-anchor="start" x="434.5" y="-145.8" font-family="arial" font-size="14.00"> 4x </text>
<polygon fill="none" stroke="black" points="461.5,-138 461.5,-161 529.5,-161 529.5,-138 461.5,-138"/>
<text text-anchor="start" x="466" y="-145.8" font-family="arial" font-size="14.00"> 0.5 mm² </text>
<polygon fill="none" stroke="black" points="529.5,-138 529.5,-161 588.5,-161 588.5,-138 529.5,-138"/>
<text text-anchor="start" x="534" y="-145.8" font-family="arial" font-size="14.00"> 0.30 m </text>
<text text-anchor="start" x="441.5" y="-124.8" font-family="arial" font-size="14.00"> </text>
<text text-anchor="start" x="431.5" y="-105.8" font-family="arial" font-size="14.00"> &#160;</text>
<text text-anchor="start" x="459.5" y="-105.8" font-family="arial" font-size="14.00"> </text>
<text text-anchor="start" x="468.5" y="-105.8" font-family="arial" font-size="14.00"> 1:YE </text>
<text text-anchor="start" x="510.5" y="-105.8" font-family="arial" font-size="14.00"> </text>
<text text-anchor="start" x="518.5" y="-105.8" font-family="arial" font-size="14.00"> X1:1:+12V</text>
<polygon fill="#000000" stroke="transparent" points="429.5,-98 429.5,-100 588.5,-100 588.5,-98 429.5,-98"/>
<polygon fill="#ffff00" stroke="transparent" points="429.5,-96 429.5,-98 588.5,-98 588.5,-96 429.5,-96"/>
<polygon fill="#000000" stroke="transparent" points="429.5,-94 429.5,-96 588.5,-96 588.5,-94 429.5,-94"/>
<text text-anchor="start" x="431.5" y="-80.8" font-family="arial" font-size="14.00"> F1 </text>
<text text-anchor="start" x="459.5" y="-80.8" font-family="arial" font-size="14.00"> </text>
<text text-anchor="start" x="468.5" y="-80.8" font-family="arial" font-size="14.00"> 2:BK </text>
<text text-anchor="start" x="510.5" y="-80.8" font-family="arial" font-size="14.00"> </text>
<text text-anchor="start" x="519.5" y="-80.8" font-family="arial" font-size="14.00"> X1:2:GND</text>
<polygon fill="#000000" stroke="transparent" points="429.5,-73 429.5,-75 588.5,-75 588.5,-73 429.5,-73"/>
<polygon fill="#000000" stroke="transparent" points="429.5,-71 429.5,-73 588.5,-73 588.5,-71 429.5,-71"/>
<polygon fill="#000000" stroke="transparent" points="429.5,-69 429.5,-71 588.5,-71 588.5,-69 429.5,-69"/>
<text text-anchor="start" x="431.5" y="-55.8" font-family="arial" font-size="14.00"> F1 </text>
<text text-anchor="start" x="459.5" y="-55.8" font-family="arial" font-size="14.00"> </text>
<text text-anchor="start" x="468.5" y="-55.8" font-family="arial" font-size="14.00"> 3:BK </text>
<text text-anchor="start" x="510.5" y="-55.8" font-family="arial" font-size="14.00"> </text>
<text text-anchor="start" x="519.5" y="-55.8" font-family="arial" font-size="14.00"> X1:3:GND</text>
<polygon fill="#000000" stroke="transparent" points="429.5,-48 429.5,-50 588.5,-50 588.5,-48 429.5,-48"/>
<polygon fill="#000000" stroke="transparent" points="429.5,-46 429.5,-48 588.5,-48 588.5,-46 429.5,-46"/>
<polygon fill="#000000" stroke="transparent" points="429.5,-44 429.5,-46 588.5,-46 588.5,-44 429.5,-44"/>
<text text-anchor="start" x="431.5" y="-30.8" font-family="arial" font-size="14.00"> &#160;</text>
<text text-anchor="start" x="459.5" y="-30.8" font-family="arial" font-size="14.00"> </text>
<text text-anchor="start" x="467.5" y="-30.8" font-family="arial" font-size="14.00"> 4:RD </text>
<text text-anchor="start" x="510.5" y="-30.8" font-family="arial" font-size="14.00"> </text>
<text text-anchor="start" x="525.5" y="-30.8" font-family="arial" font-size="14.00"> X1:4:+5V</text>
<polygon fill="#000000" stroke="transparent" points="429.5,-23 429.5,-25 588.5,-25 588.5,-23 429.5,-23"/>
<polygon fill="#ff0000" stroke="transparent" points="429.5,-21 429.5,-23 588.5,-23 588.5,-21 429.5,-21"/>
<polygon fill="#000000" stroke="transparent" points="429.5,-19 429.5,-21 588.5,-21 588.5,-19 429.5,-19"/>
<text text-anchor="start" x="441.5" y="-5.8" font-family="arial" font-size="14.00"> </text>
</g>
<!-- AUTOGENERATED_F_05_1&#45;&#45;W1 -->
<g id="edge1" class="edge">
<title>AUTOGENERATED_F_05_1:e&#45;&#45;W1:w</title>
<path fill="none" stroke="#000000" stroke-width="2" d="M213,-107C212.91,-105 428.91,-95 429,-97"/>
<path fill="none" stroke="#ffff00" stroke-width="2" d="M213,-107C213,-107 429,-97 429,-97"/>
<path fill="none" stroke="#000000" stroke-width="2" d="M213,-107C213.09,-109 429.09,-99 429,-97"/>
</g>
<!-- F1 -->
<g id="node2" class="node">
<title>F1</title>
<polygon fill="#ffffff" stroke="black" points="210.5,-71.5 2.5,-71.5 2.5,-48.5 210.5,-48.5 210.5,-71.5"/>
<polygon fill="#ffffff" stroke="transparent" points="2.5,-48.5 2.5,-71.5 210.5,-71.5 210.5,-48.5 2.5,-48.5"/>
<polygon fill="none" stroke="black" points="2.5,-48 2.5,-71 97.5,-71 97.5,-48 2.5,-48"/>
<text text-anchor="start" x="6.5" y="-55.8" font-family="arial" font-size="14.00"> Crimp ferrule </text>
<polygon fill="none" stroke="black" points="97.5,-48 97.5,-71 164.5,-71 164.5,-48 97.5,-48"/>
<text text-anchor="start" x="101.5" y="-55.8" font-family="arial" font-size="14.00"> 1.0 mm² </text>
<polygon fill="none" stroke="black" points="164.5,-48 164.5,-71 198.5,-71 198.5,-48 164.5,-48"/>
<text text-anchor="start" x="168.5" y="-55.8" font-family="arial" font-size="14.00"> YE </text>
<polygon fill="#ffff00" stroke="transparent" points="198.5,-48 198.5,-71 210.5,-71 210.5,-48 198.5,-48"/>
<polygon fill="none" stroke="black" points="198.5,-48 198.5,-71 210.5,-71 210.5,-48 198.5,-48"/>
<text text-anchor="start" x="202.5" y="-55.8" font-family="arial" font-size="14.00"> </text>
</g>
<!-- F1&#45;&#45;W1 -->
<g id="edge3" class="edge">
<title>F1:e&#45;&#45;W1:w</title>
<path fill="none" stroke="#000000" stroke-width="2" d="M211.5,-60C211.61,-58 429.11,-70 429,-72"/>
<path fill="none" stroke="#000000" stroke-width="2" d="M211.5,-60C211.5,-60 429,-72 429,-72"/>
<path fill="none" stroke="#000000" stroke-width="2" d="M211.5,-60C211.39,-62 428.89,-74 429,-72"/>
</g>
<!-- F1&#45;&#45;W1 -->
<g id="edge5" class="edge">
<title>F1:e&#45;&#45;W1:w</title>
<path fill="none" stroke="#000000" stroke-width="2" d="M211.5,-60C211.38,-58 428.88,-45 429,-47"/>
<path fill="none" stroke="#000000" stroke-width="2" d="M211.5,-60C211.5,-60 429,-47 429,-47"/>
<path fill="none" stroke="#000000" stroke-width="2" d="M211.5,-60C211.62,-62 429.12,-49 429,-47"/>
</g>
<!-- AUTOGENERATED_F_05_2 -->
<g id="node3" class="node">
<title>AUTOGENERATED_F_05_2</title>
<polygon fill="#ffffff" stroke="black" points="213,-24.5 0,-24.5 0,-1.5 213,-1.5 213,-24.5"/>
<polygon fill="#ffffff" stroke="transparent" points="0,-1.5 0,-24.5 213,-24.5 213,-1.5 0,-1.5"/>
<polygon fill="none" stroke="black" points="0.5,-1 0.5,-24 95.5,-24 95.5,-1 0.5,-1"/>
<text text-anchor="start" x="4.5" y="-8.8" font-family="arial" font-size="14.00"> Crimp ferrule </text>
<polygon fill="none" stroke="black" points="95.5,-1 95.5,-24 162.5,-24 162.5,-1 95.5,-1"/>
<text text-anchor="start" x="99.5" y="-8.8" font-family="arial" font-size="14.00"> 0.5 mm² </text>
<polygon fill="none" stroke="black" points="162.5,-1 162.5,-24 201.5,-24 201.5,-1 162.5,-1"/>
<text text-anchor="start" x="166.5" y="-8.8" font-family="arial" font-size="14.00"> OG </text>
<polygon fill="#ff8000" stroke="transparent" points="201.5,-1 201.5,-24 213.5,-24 213.5,-1 201.5,-1"/>
<polygon fill="none" stroke="black" points="201.5,-1 201.5,-24 213.5,-24 213.5,-1 201.5,-1"/>
<text text-anchor="start" x="205.5" y="-8.8" font-family="arial" font-size="14.00"> </text>
</g>
<!-- AUTOGENERATED_F_05_2&#45;&#45;W1 -->
<g id="edge7" class="edge">
<title>AUTOGENERATED_F_05_2:e&#45;&#45;W1:w</title>
<path fill="none" stroke="#000000" stroke-width="2" d="M213,-13C213.08,-11 429.08,-20 429,-22"/>
<path fill="none" stroke="#ff0000" stroke-width="2" d="M213,-13C213,-13 429,-22 429,-22"/>
<path fill="none" stroke="#000000" stroke-width="2" d="M213,-13C212.92,-15 428.92,-24 429,-22"/>
</g>
<!-- X1 -->
<g id="node4" class="node">
<title>X1</title>
<polygon fill="#ffffff" stroke="black" points="994,-152 804,-152 804,-14 994,-14 994,-152"/>
<polygon fill="#ffffff" stroke="transparent" points="804,-14 804,-152 994,-152 994,-14 804,-14"/>
<polygon fill="#ffffff" stroke="transparent" points="804,-129 804,-152 994,-152 994,-129 804,-129"/>
<polygon fill="none" stroke="black" points="804,-129 804,-152 994,-152 994,-129 804,-129"/>
<text text-anchor="start" x="882.5" y="-137.8" font-family="arial" font-size="14.00"> </text>
<text text-anchor="start" x="886.5" y="-137.8" font-family="arial" font-weight="bold" font-size="14.00"> X1 </text>
<text text-anchor="start" x="911.5" y="-137.8" font-family="arial" font-size="14.00"> </text>
<polygon fill="none" stroke="black" points="804,-106 804,-129 891,-129 891,-106 804,-106"/>
<text text-anchor="start" x="808" y="-113.8" font-family="arial" font-size="14.00"> Molex 8981 </text>
<polygon fill="none" stroke="black" points="891,-106 891,-129 948,-129 948,-106 891,-106"/>
<text text-anchor="start" x="895" y="-113.8" font-family="arial" font-size="14.00"> female </text>
<polygon fill="none" stroke="black" points="948,-106 948,-129 994,-129 994,-106 948,-106"/>
<text text-anchor="start" x="952" y="-113.8" font-family="arial" font-size="14.00"> 4&#45;pin </text>
<polygon fill="none" stroke="black" points="804,-83 804,-106 868,-106 868,-83 804,-83"/>
<text text-anchor="start" x="828" y="-90.8" font-family="arial" font-size="14.00"> 1 </text>
<polygon fill="none" stroke="black" points="868,-83 868,-106 994,-106 994,-83 868,-83"/>
<text text-anchor="start" x="911" y="-90.8" font-family="arial" font-size="14.00"> +12V </text>
<polygon fill="none" stroke="black" points="804,-60 804,-83 868,-83 868,-60 804,-60"/>
<text text-anchor="start" x="828" y="-67.8" font-family="arial" font-size="14.00"> 2 </text>
<polygon fill="none" stroke="black" points="868,-60 868,-83 994,-83 994,-60 868,-60"/>
<text text-anchor="start" x="911.5" y="-67.8" font-family="arial" font-size="14.00"> GND </text>
<polygon fill="none" stroke="black" points="804,-37 804,-60 868,-60 868,-37 804,-37"/>
<text text-anchor="start" x="828" y="-44.8" font-family="arial" font-size="14.00"> 3 </text>
<polygon fill="none" stroke="black" points="868,-37 868,-60 994,-60 994,-37 868,-37"/>
<text text-anchor="start" x="911.5" y="-44.8" font-family="arial" font-size="14.00"> GND </text>
<polygon fill="none" stroke="black" points="804,-14 804,-37 868,-37 868,-14 804,-14"/>
<text text-anchor="start" x="828" y="-21.8" font-family="arial" font-size="14.00"> 4 </text>
<polygon fill="none" stroke="black" points="868,-14 868,-37 994,-37 994,-14 868,-14"/>
<text text-anchor="start" x="914.5" y="-21.8" font-family="arial" font-size="14.00"> +5V </text>
</g>
<!-- W1&#45;&#45;X1 -->
<g id="edge2" class="edge">
<title>W1:e&#45;&#45;X1:w</title>
<path fill="none" stroke="#000000" stroke-width="2" d="M588,-97C587.98,-95 803.98,-93 804,-95"/>
<path fill="none" stroke="#ffff00" stroke-width="2" d="M588,-97C588,-97 804,-95 804,-95"/>
<path fill="none" stroke="#000000" stroke-width="2" d="M588,-97C588.02,-99 804.02,-97 804,-95"/>
</g>
<!-- W1&#45;&#45;X1 -->
<g id="edge4" class="edge">
<title>W1:e&#45;&#45;X1:w</title>
<path fill="none" stroke="#000000" stroke-width="2" d="M588,-72C587.99,-70 803.99,-69 804,-71"/>
<path fill="none" stroke="#000000" stroke-width="2" d="M588,-72C588,-72 804,-71 804,-71"/>
<path fill="none" stroke="#000000" stroke-width="2" d="M588,-72C588.01,-74 804.01,-73 804,-71"/>
</g>
<!-- W1&#45;&#45;X1 -->
<g id="edge6" class="edge">
<title>W1:e&#45;&#45;X1:w</title>
<path fill="none" stroke="#000000" stroke-width="2" d="M588,-47C588.01,-45 804.01,-46 804,-48"/>
<path fill="none" stroke="#000000" stroke-width="2" d="M588,-47C588,-47 804,-48 804,-48"/>
<path fill="none" stroke="#000000" stroke-width="2" d="M588,-47C587.99,-49 803.99,-50 804,-48"/>
</g>
<!-- W1&#45;&#45;X1 -->
<g id="edge8" class="edge">
<title>W1:e&#45;&#45;X1:w</title>
<path fill="none" stroke="#000000" stroke-width="2" d="M588,-22C588.03,-20 804.03,-23 804,-25"/>
<path fill="none" stroke="#ff0000" stroke-width="2" d="M588,-22C588,-22 804,-25 804,-25"/>
<path fill="none" stroke="#000000" stroke-width="2" d="M588,-22C587.97,-24 803.97,-27 804,-25"/>
</g>
</g>
</svg>
