<?xml version="1.0" encoding="UTF-8" standalone="no"?>
<!DOCTYPE svg PUBLIC "-//W3C//DTD SVG 1.1//EN"
 "http://www.w3.org/Graphics/SVG/1.1/DTD/svg11.dtd">
<!-- Generated by graphviz version 2.43.0 (0)
 -->
<!-- Title: %3 Pages: 1 -->
<svg width="998pt" height="215pt"
 viewBox="0.00 0.00 998.00 214.50" xmlns="http://www.w3.org/2000/svg" xmlns:xlink="http://www.w3.org/1999/xlink">
<g id="graph0" class="graph" transform="scale(1 1) rotate(0) translate(4 210.5)">
<title>%3</title>
<polygon fill="#ffffff" stroke="transparent" points="-4,4 -4,-210.5 994,-210.5 994,4 -4,4"/>
<!-- AUTOGENERATED_F1_1 -->
<g id="node1" class="node">
<title>AUTOGENERATED_F1_1</title>
<polygon fill="#ffffff" stroke="black" points="213,-164 0,-164 0,-141 213,-141 213,-164"/>
<polygon fill="#ffffff" stroke="transparent" points="0,-141 0,-164 213,-164 213,-141 0,-141"/>
<polygon fill="none" stroke="black" points="0.5,-140.5 0.5,-163.5 95.5,-163.5 95.5,-140.5 0.5,-140.5"/>
<text text-anchor="start" x="4.5" y="-148.3" font-family="arial" font-size="14.00"> Crimp ferrule </text>
<polygon fill="none" stroke="black" points="95.5,-140.5 95.5,-163.5 162.5,-163.5 162.5,-140.5 95.5,-140.5"/>
<text text-anchor="start" x="99.5" y="-148.3" font-family="arial" font-size="14.00"> 0.5 mm² </text>
<polygon fill="none" stroke="black" points="162.5,-140.5 162.5,-163.5 201.5,-163.5 201.5,-140.5 162.5,-140.5"/>
<text text-anchor="start" x="166.5" y="-148.3" font-family="arial" font-size="14.00"> OG </text>
<polygon fill="#ff8000" stroke="transparent" points="201.5,-140.5 201.5,-163.5 213.5,-163.5 213.5,-140.5 201.5,-140.5"/>
<polygon fill="none" stroke="black" points="201.5,-140.5 201.5,-163.5 213.5,-163.5 213.5,-140.5 201.5,-140.5"/>
<text text-anchor="start" x="205.5" y="-148.3" font-family="arial" font-size="14.00"> </text>
</g>
<!-- W1 -->
<g id="node6" class="node">
<title>W1</title>
<polygon fill="#ffffff" stroke="black" points="584,-206.5 429,-206.5 429,-22.5 584,-22.5 584,-206.5"/>
<polygon fill="#ffffff" stroke="transparent" points="429,-22.5 429,-206.5 584,-206.5 584,-22.5 429,-22.5"/>
<polygon fill="#ffffff" stroke="transparent" points="429.5,-183.5 429.5,-206.5 584.5,-206.5 584.5,-183.5 429.5,-183.5"/>
<polygon fill="none" stroke="black" points="429.5,-183.5 429.5,-206.5 584.5,-206.5 584.5,-183.5 429.5,-183.5"/>
<text text-anchor="start" x="488.5" y="-192.3" font-family="arial" font-size="14.00"> </text>
<text text-anchor="start" x="492.5" y="-192.3" font-family="arial" font-weight="bold" font-size="14.00"> W1 </text>
<text text-anchor="start" x="521.5" y="-192.3" font-family="arial" font-size="14.00"> </text>
<polygon fill="none" stroke="black" points="429.5,-160.5 429.5,-183.5 459.5,-183.5 459.5,-160.5 429.5,-160.5"/>
<text text-anchor="start" x="433.5" y="-168.3" font-family="arial" font-size="14.00"> 4x </text>
<polygon fill="none" stroke="black" points="459.5,-160.5 459.5,-183.5 526.5,-183.5 526.5,-160.5 459.5,-160.5"/>
<text text-anchor="start" x="463.5" y="-168.3" font-family="arial" font-size="14.00"> 0.5 mm² </text>
<polygon fill="none" stroke="black" points="526.5,-160.5 526.5,-183.5 584.5,-183.5 584.5,-160.5 526.5,-160.5"/>
<text text-anchor="start" x="530.5" y="-168.3" font-family="arial" font-size="14.00"> 0.30 m </text>
<text text-anchor="start" x="435" y="-147.3" font-family="arial" font-size="14.00"> </text>
<text text-anchor="start" x="431.5" y="-128.3" font-family="arial" font-size="14.00"> &#160;</text>
<text text-anchor="start" x="448" y="-128.3" font-family="arial" font-size="14.00"> </text>
<text text-anchor="start" x="459.5" y="-128.3" font-family="arial" font-size="14.00"> 1:YE </text>
<text text-anchor="start" x="503.5" y="-128.3" font-family="arial" font-size="14.00"> </text>
<text text-anchor="start" x="514.5" y="-128.3" font-family="arial" font-size="14.00"> X1:1:+12V</text>
<polygon fill="#000000" stroke="transparent" points="429.5,-120.5 429.5,-122.5 584.5,-122.5 584.5,-120.5 429.5,-120.5"/>
<polygon fill="#ffff00" stroke="transparent" points="429.5,-118.5 429.5,-120.5 584.5,-120.5 584.5,-118.5 429.5,-118.5"/>
<polygon fill="#000000" stroke="transparent" points="429.5,-116.5 429.5,-118.5 584.5,-118.5 584.5,-116.5 429.5,-116.5"/>
<text text-anchor="start" x="431.5" y="-103.3" font-family="arial" font-size="14.00"> &#160;</text>
<text text-anchor="start" x="448" y="-103.3" font-family="arial" font-size="14.00"> </text>
<text text-anchor="start" x="459.5" y="-103.3" font-family="arial" font-size="14.00"> 2:BK </text>
<text text-anchor="start" x="503.5" y="-103.3" font-family="arial" font-size="14.00"> </text>
<text text-anchor="start" x="515.5" y="-103.3" font-family="arial" font-size="14.00"> X1:2:GND</text>
<polygon fill="#000000" stroke="transparent" points="429.5,-95.5 429.5,-97.5 584.5,-97.5 584.5,-95.5 429.5,-95.5"/>
<polygon fill="#000000" stroke="transparent" points="429.5,-93.5 429.5,-95.5 584.5,-95.5 584.5,-93.5 429.5,-93.5"/>
<polygon fill="#000000" stroke="transparent" points="429.5,-91.5 429.5,-93.5 584.5,-93.5 584.5,-91.5 429.5,-91.5"/>
<text text-anchor="start" x="431.5" y="-78.3" font-family="arial" font-size="14.00"> &#160;</text>
<text text-anchor="start" x="448" y="-78.3" font-family="arial" font-size="14.00"> </text>
<text text-anchor="start" x="459.5" y="-78.3" font-family="arial" font-size="14.00"> 3:BK </text>
<text text-anchor="start" x="503.5" y="-78.3" font-family="arial" font-size="14.00"> </text>
<text text-anchor="start" x="515.5" y="-78.3" font-family="arial" font-size="14.00"> X1:3:GND</text>
<polygon fill="#000000" stroke="transparent" points="429.5,-70.5 429.5,-72.5 584.5,-72.5 584.5,-70.5 429.5,-70.5"/>
<polygon fill="#000000" stroke="transparent" points="429.5,-68.5 429.5,-70.5 584.5,-70.5 584.5,-68.5 429.5,-68.5"/>
<polygon fill="#000000" stroke="transparent" points="429.5,-66.5 429.5,-68.5 584.5,-68.5 584.5,-66.5 429.5,-66.5"/>
<text text-anchor="start" x="431.5" y="-53.3" font-family="arial" font-size="14.00"> &#160;</text>
<text text-anchor="start" x="448" y="-53.3" font-family="arial" font-size="14.00"> </text>
<text text-anchor="start" x="458.5" y="-53.3" font-family="arial" font-size="14.00"> 4:RD </text>
<text text-anchor="start" x="503.5" y="-53.3" font-family="arial" font-size="14.00"> </text>
<text text-anchor="start" x="521.5" y="-53.3" font-family="arial" font-size="14.00"> X1:4:+5V</text>
<polygon fill="#000000" stroke="transparent" points="429.5,-45.5 429.5,-47.5 584.5,-47.5 584.5,-45.5 429.5,-45.5"/>
<polygon fill="#ff0000" stroke="transparent" points="429.5,-43.5 429.5,-45.5 584.5,-45.5 584.5,-43.5 429.5,-43.5"/>
<polygon fill="#000000" stroke="transparent" points="429.5,-41.5 429.5,-43.5 584.5,-43.5 584.5,-41.5 429.5,-41.5"/>
<text text-anchor="start" x="435" y="-28.3" font-family="arial" font-size="14.00"> </text>
</g>
<!-- AUTOGENERATED_F1_1&#45;&#45;W1 -->
<g id="edge1" class="edge">
<title>AUTOGENERATED_F1_1:e&#45;&#45;W1:w</title>
<path fill="none" stroke="#000000" stroke-width="2" d="M213,-152.5C212.7,-150.52 428.7,-117.52 429,-119.5"/>
<path fill="none" stroke="#ffff00" stroke-width="2" d="M213,-152.5C213,-152.5 429,-119.5 429,-119.5"/>
<path fill="none" stroke="#000000" stroke-width="2" d="M213,-152.5C213.3,-154.48 429.3,-121.48 429,-119.5"/>
</g>
<!-- AUTOGENERATED_F1_2 -->
<g id="node2" class="node">
<title>AUTOGENERATED_F1_2</title>
<polygon fill="#ffffff" stroke="black" points="213,-117 0,-117 0,-94 213,-94 213,-117"/>
<polygon fill="#ffffff" stroke="transparent" points="0,-94 0,-117 213,-117 213,-94 0,-94"/>
<polygon fill="none" stroke="black" points="0.5,-93.5 0.5,-116.5 95.5,-116.5 95.5,-93.5 0.5,-93.5"/>
<text text-anchor="start" x="4.5" y="-101.3" font-family="arial" font-size="14.00"> Crimp ferrule </text>
<polygon fill="none" stroke="black" points="95.5,-93.5 95.5,-116.5 162.5,-116.5 162.5,-93.5 95.5,-93.5"/>
<text text-anchor="start" x="99.5" y="-101.3" font-family="arial" font-size="14.00"> 0.5 mm² </text>
<polygon fill="none" stroke="black" points="162.5,-93.5 162.5,-116.5 201.5,-116.5 201.5,-93.5 162.5,-93.5"/>
<text text-anchor="start" x="166.5" y="-101.3" font-family="arial" font-size="14.00"> OG </text>
<polygon fill="#ff8000" stroke="transparent" points="201.5,-93.5 201.5,-116.5 213.5,-116.5 213.5,-93.5 201.5,-93.5"/>
<polygon fill="none" stroke="black" points="201.5,-93.5 201.5,-116.5 213.5,-116.5 213.5,-93.5 201.5,-93.5"/>
<text text-anchor="start" x="205.5" y="-101.3" font-family="arial" font-size="14.00"> </text>
</g>
<!-- AUTOGENERATED_F1_2&#45;&#45;W1 -->
<g id="edge3" class="edge">
<title>AUTOGENERATED_F1_2:e&#45;&#45;W1:w</title>
<path fill="none" stroke="#000000" stroke-width="2" d="M213,-105.5C212.9,-103.5 428.9,-92.5 429,-94.5"/>
<path fill="none" stroke="#000000" stroke-width="2" d="M213,-105.5C213,-105.5 429,-94.5 429,-94.5"/>
<path fill="none" stroke="#000000" stroke-width="2" d="M213,-105.5C213.1,-107.5 429.1,-96.5 429,-94.5"/>
</g>
<!-- AUTOGENERATED_F1_3 -->
<g id="node3" class="node">
<title>AUTOGENERATED_F1_3</title>
<polygon fill="#ffffff" stroke="black" points="213,-70 0,-70 0,-47 213,-47 213,-70"/>
<polygon fill="#ffffff" stroke="transparent" points="0,-47 0,-70 213,-70 213,-47 0,-47"/>
<polygon fill="none" stroke="black" points="0.5,-46.5 0.5,-69.5 95.5,-69.5 95.5,-46.5 0.5,-46.5"/>
<text text-anchor="start" x="4.5" y="-54.3" font-family="arial" font-size="14.00"> Crimp ferrule </text>
<polygon fill="none" stroke="black" points="95.5,-46.5 95.5,-69.5 162.5,-69.5 162.5,-46.5 95.5,-46.5"/>
<text text-anchor="start" x="99.5" y="-54.3" font-family="arial" font-size="14.00"> 0.5 mm² </text>
<polygon fill="none" stroke="black" points="162.5,-46.5 162.5,-69.5 201.5,-69.5 201.5,-46.5 162.5,-46.5"/>
<text text-anchor="start" x="166.5" y="-54.3" font-family="arial" font-size="14.00"> OG </text>
<polygon fill="#ff8000" stroke="transparent" points="201.5,-46.5 201.5,-69.5 213.5,-69.5 213.5,-46.5 201.5,-46.5"/>
<polygon fill="none" stroke="black" points="201.5,-46.5 201.5,-69.5 213.5,-69.5 213.5,-46.5 201.5,-46.5"/>
<text text-anchor="start" x="205.5" y="-54.3" font-family="arial" font-size="14.00"> </text>
</g>
<!-- AUTOGENERATED_F1_3&#45;&#45;W1 -->
<g id="edge5" class="edge">
<title>AUTOGENERATED_F1_3:e&#45;&#45;W1:w</title>
<path fill="none" stroke="#000000" stroke-width="2" d="M213,-58.5C213.1,-56.5 429.1,-67.5 429,-69.5"/>
<path fill="none" stroke="#000000" stroke-width="2" d="M213,-58.5C213,-58.5 429,-69.5 429,-69.5"/>
<path fill="none" stroke="#000000" stroke-width="2" d="M213,-58.5C212.9,-60.5 428.9,-71.5 429,-69.5"/>
</g>
<!-- AUTOGENERATED_F1_4 -->
<g id="node4" class="node">
<title>AUTOGENERATED_F1_4</title>
<polygon fill="#ffffff" stroke="black" points="213,-23 0,-23 0,0 213,0 213,-23"/>
<polygon fill="#ffffff" stroke="transparent" points="0,0 0,-23 213,-23 213,0 0,0"/>
<polygon fill="none" stroke="black" points="0.5,0.5 0.5,-22.5 95.5,-22.5 95.5,0.5 0.5,0.5"/>
<text text-anchor="start" x="4.5" y="-7.3" font-family="arial" font-size="14.00"> Crimp ferrule </text>
<polygon fill="none" stroke="black" points="95.5,0.5 95.5,-22.5 162.5,-22.5 162.5,0.5 95.5,0.5"/>
<text text-anchor="start" x="99.5" y="-7.3" font-family="arial" font-size="14.00"> 0.5 mm² </text>
<polygon fill="none" stroke="black" points="162.5,0.5 162.5,-22.5 201.5,-22.5 201.5,0.5 162.5,0.5"/>
<text text-anchor="start" x="166.5" y="-7.3" font-family="arial" font-size="14.00"> OG </text>
<polygon fill="#ff8000" stroke="transparent" points="201.5,0.5 201.5,-22.5 213.5,-22.5 213.5,0.5 201.5,0.5"/>
<polygon fill="none" stroke="black" points="201.5,0.5 201.5,-22.5 213.5,-22.5 213.5,0.5 201.5,0.5"/>
<text text-anchor="start" x="205.5" y="-7.3" font-family="arial" font-size="14.00"> </text>
</g>
<!-- AUTOGENERATED_F1_4&#45;&#45;W1 -->
<g id="edge7" class="edge">
<title>AUTOGENERATED_F1_4:e&#45;&#45;W1:w</title>
<path fill="none" stroke="#000000" stroke-width="2" d="M213,-11.5C213.3,-9.52 429.3,-42.52 429,-44.5"/>
<path fill="none" stroke="#ff0000" stroke-width="2" d="M213,-11.5C213,-11.5 429,-44.5 429,-44.5"/>
<path fill="none" stroke="#000000" stroke-width="2" d="M213,-11.5C212.7,-13.48 428.7,-46.48 429,-44.5"/>
</g>
<!-- X1 -->
<g id="node5" class="node">
<title>X1</title>
<polygon fill="#ffffff" stroke="black" points="990,-174.5 800,-174.5 800,-36.5 990,-36.5 990,-174.5"/>
<polygon fill="#ffffff" stroke="transparent" points="800,-36.5 800,-174.5 990,-174.5 990,-36.5 800,-36.5"/>
<polygon fill="#ffffff" stroke="transparent" points="800,-151.5 800,-174.5 990,-174.5 990,-151.5 800,-151.5"/>
<polygon fill="none" stroke="black" points="800,-151.5 800,-174.5 990,-174.5 990,-151.5 800,-151.5"/>
<text text-anchor="start" x="878.5" y="-160.3" font-family="arial" font-size="14.00"> </text>
<text text-anchor="start" x="882.5" y="-160.3" font-family="arial" font-weight="bold" font-size="14.00"> X1 </text>
<text text-anchor="start" x="907.5" y="-160.3" font-family="arial" font-size="14.00"> </text>
<polygon fill="none" stroke="black" points="800,-128.5 800,-151.5 887,-151.5 887,-128.5 800,-128.5"/>
<text text-anchor="start" x="804" y="-136.3" font-family="arial" font-size="14.00"> Molex 8981 </text>
<polygon fill="none" stroke="black" points="887,-128.5 887,-151.5 944,-151.5 944,-128.5 887,-128.5"/>
<text text-anchor="start" x="891" y="-136.3" font-family="arial" font-size="14.00"> female </text>
<polygon fill="none" stroke="black" points="944,-128.5 944,-151.5 990,-151.5 990,-128.5 944,-128.5"/>
<text text-anchor="start" x="948" y="-136.3" font-family="arial" font-size="14.00"> 4&#45;pin </text>
<polygon fill="none" stroke="black" points="800,-105.5 800,-128.5 864,-128.5 864,-105.5 800,-105.5"/>
<text text-anchor="start" x="824" y="-113.3" font-family="arial" font-size="14.00"> 1 </text>
<polygon fill="none" stroke="black" points="864,-105.5 864,-128.5 990,-128.5 990,-105.5 864,-105.5"/>
<text text-anchor="start" x="907" y="-113.3" font-family="arial" font-size="14.00"> +12V </text>
<polygon fill="none" stroke="black" points="800,-82.5 800,-105.5 864,-105.5 864,-82.5 800,-82.5"/>
<text text-anchor="start" x="824" y="-90.3" font-family="arial" font-size="14.00"> 2 </text>
<polygon fill="none" stroke="black" points="864,-82.5 864,-105.5 990,-105.5 990,-82.5 864,-82.5"/>
<text text-anchor="start" x="907.5" y="-90.3" font-family="arial" font-size="14.00"> GND </text>
<polygon fill="none" stroke="black" points="800,-59.5 800,-82.5 864,-82.5 864,-59.5 800,-59.5"/>
<text text-anchor="start" x="824" y="-67.3" font-family="arial" font-size="14.00"> 3 </text>
<polygon fill="none" stroke="black" points="864,-59.5 864,-82.5 990,-82.5 990,-59.5 864,-59.5"/>
<text text-anchor="start" x="907.5" y="-67.3" font-family="arial" font-size="14.00"> GND </text>
<polygon fill="none" stroke="black" points="800,-36.5 800,-59.5 864,-59.5 864,-36.5 800,-36.5"/>
<text text-anchor="start" x="824" y="-44.3" font-family="arial" font-size="14.00"> 4 </text>
<polygon fill="none" stroke="black" points="864,-36.5 864,-59.5 990,-59.5 990,-36.5 864,-36.5"/>
<text text-anchor="start" x="910.5" y="-44.3" font-family="arial" font-size="14.00"> +5V </text>
</g>
<!-- W1&#45;&#45;X1 -->
<g id="edge2" class="edge">
<title>W1:e&#45;&#45;X1:w</title>
<path fill="none" stroke="#000000" stroke-width="2" d="M584,-119.5C583.98,-117.5 799.98,-115.5 800,-117.5"/>
<path fill="none" stroke="#ffff00" stroke-width="2" d="M584,-119.5C584,-119.5 800,-117.5 800,-117.5"/>
<path fill="none" stroke="#000000" stroke-width="2" d="M584,-119.5C584.02,-121.5 800.02,-119.5 800,-117.5"/>
</g>
<!-- W1&#45;&#45;X1 -->
<g id="edge4" class="edge">
<title>W1:e&#45;&#45;X1:w</title>
<path fill="none" stroke="#000000" stroke-width="2" d="M584,-94.5C583.99,-92.5 799.99,-91.5 800,-93.5"/>
<path fill="none" stroke="#000000" stroke-width="2" d="M584,-94.5C584,-94.5 800,-93.5 800,-93.5"/>
<path fill="none" stroke="#000000" stroke-width="2" d="M584,-94.5C584.01,-96.5 800.01,-95.5 800,-93.5"/>
</g>
<!-- W1&#45;&#45;X1 -->
<g id="edge6" class="edge">
<title>W1:e&#45;&#45;X1:w</title>
<path fill="none" stroke="#000000" stroke-width="2" d="M584,-69.5C584.01,-67.5 800.01,-68.5 800,-70.5"/>
<path fill="none" stroke="#000000" stroke-width="2" d="M584,-69.5C584,-69.5 800,-70.5 800,-70.5"/>
<path fill="none" stroke="#000000" stroke-width="2" d="M584,-69.5C583.99,-71.5 799.99,-72.5 800,-70.5"/>
</g>
<!-- W1&#45;&#45;X1 -->
<g id="edge8" class="edge">
<title>W1:e&#45;&#45;X1:w</title>
<path fill="none" stroke="#000000" stroke-width="2" d="M584,-44.5C584.03,-42.5 800.03,-45.5 800,-47.5"/>
<path fill="none" stroke="#ff0000" stroke-width="2" d="M584,-44.5C584,-44.5 800,-47.5 800,-47.5"/>
<path fill="none" stroke="#000000" stroke-width="2" d="M584,-44.5C583.97,-46.5 799.97,-49.5 800,-47.5"/>
</g>
</g>
</svg>
