<?xml version="1.0" encoding="UTF-8" standalone="no"?>
<!DOCTYPE svg PUBLIC "-//W3C//DTD SVG 1.1//EN"
 "http://www.w3.org/Graphics/SVG/1.1/DTD/svg11.dtd">
<!-- Generated by graphviz version 2.43.0 (0)
 -->
<!-- Title: %3 Pages: 1 -->
<svg width="696pt" height="192pt"
 viewBox="0.00 0.00 696.00 192.00" xmlns="http://www.w3.org/2000/svg" xmlns:xlink="http://www.w3.org/1999/xlink">
<g id="graph0" class="graph" transform="scale(1 1) rotate(0) translate(4 188)">
<title>%3</title>
<polygon fill="#ffffff" stroke="transparent" points="-4,4 -4,-188 692,-188 692,4 -4,4"/>
<!-- X1 -->
<g id="node1" class="node">
<title>X1</title>
<polygon fill="#ffffff" stroke="black" points="72,-152 0,-152 0,-14 72,-14 72,-152"/>
<polygon fill="#ffffff" stroke="transparent" points="0,-14 0,-152 72,-152 72,-14 0,-14"/>
<polygon fill="#ffffff" stroke="transparent" points="0,-129 0,-152 72,-152 72,-129 0,-129"/>
<polygon fill="none" stroke="black" points="0,-129 0,-152 72,-152 72,-129 0,-129"/>
<text text-anchor="start" x="19.5" y="-137.8" font-family="arial" font-size="14.00"> </text>
<text text-anchor="start" x="23.5" y="-137.8" font-family="arial" font-weight="bold" font-size="14.00"> X1 </text>
<text text-anchor="start" x="48.5" y="-137.8" font-family="arial" font-size="14.00"> </text>
<polygon fill="none" stroke="black" points="0,-106 0,-129 21,-129 21,-106 0,-106"/>
<text text-anchor="start" x="6.5" y="-113.8" font-family="arial" font-size="14.00"> &#160;</text>
<polygon fill="none" stroke="black" points="21,-106 21,-129 72,-129 72,-106 21,-106"/>
<text text-anchor="start" x="27.5" y="-113.8" font-family="arial" font-size="14.00"> 4&#45;pin </text>
<polygon fill="none" stroke="black" points="0,-83 0,-106 48,-106 48,-83 0,-83"/>
<text text-anchor="start" x="4" y="-90.8" font-family="arial" font-size="14.00"> None </text>
<polygon fill="none" stroke="black" points="48,-83 48,-106 72,-106 72,-83 48,-83"/>
<text text-anchor="start" x="52" y="-90.8" font-family="arial" font-size="14.00"> 1 </text>
<polygon fill="none" stroke="black" points="0,-60 0,-83 48,-83 48,-60 0,-60"/>
<text text-anchor="start" x="4" y="-67.8" font-family="arial" font-size="14.00"> None </text>
<polygon fill="none" stroke="black" points="48,-60 48,-83 72,-83 72,-60 48,-60"/>
<text text-anchor="start" x="52" y="-67.8" font-family="arial" font-size="14.00"> 2 </text>
<polygon fill="none" stroke="black" points="0,-37 0,-60 48,-60 48,-37 0,-37"/>
<text text-anchor="start" x="4" y="-44.8" font-family="arial" font-size="14.00"> None </text>
<polygon fill="none" stroke="black" points="48,-37 48,-60 72,-60 72,-37 48,-37"/>
<text text-anchor="start" x="52" y="-44.8" font-family="arial" font-size="14.00"> 3 </text>
<polygon fill="none" stroke="black" points="0,-14 0,-37 48,-37 48,-14 0,-14"/>
<text text-anchor="start" x="4" y="-21.8" font-family="arial" font-size="14.00"> None </text>
<polygon fill="none" stroke="black" points="48,-14 48,-37 72,-37 72,-14 48,-14"/>
<text text-anchor="start" x="52" y="-21.8" font-family="arial" font-size="14.00"> 4 </text>
</g>
<!-- W1 -->
<g id="node3" class="node">
<title>W1</title>
<polygon fill="#ffffff" stroke="black" points="400,-184 288,-184 288,0 400,0 400,-184"/>
<polygon fill="#ffffff" stroke="transparent" points="288,0 288,-184 400,-184 400,0 288,0"/>
<polygon fill="#ffffff" stroke="transparent" points="288,-161 288,-184 400,-184 400,-161 288,-161"/>
<polygon fill="none" stroke="black" points="288,-161 288,-184 400,-184 400,-161 288,-161"/>
<text text-anchor="start" x="325.5" y="-169.8" font-family="arial" font-size="14.00"> </text>
<text text-anchor="start" x="329.5" y="-169.8" font-family="arial" font-weight="bold" font-size="14.00"> W1 </text>
<text text-anchor="start" x="358.5" y="-169.8" font-family="arial" font-size="14.00"> </text>
<polygon fill="none" stroke="black" points="288,-138 288,-161 340,-161 340,-138 288,-138"/>
<text text-anchor="start" x="303" y="-145.8" font-family="arial" font-size="14.00"> 4x </text>
<polygon fill="none" stroke="black" points="340,-138 340,-161 400,-161 400,-138 340,-138"/>
<text text-anchor="start" x="354.5" y="-145.8" font-family="arial" font-size="14.00"> 1 m </text>
<text text-anchor="start" x="306" y="-124.8" font-family="arial" font-size="14.00"> </text>
<text text-anchor="start" x="290" y="-105.8" font-family="arial" font-size="14.00"> X1:1 </text>
<text text-anchor="start" x="330" y="-105.8" font-family="arial" font-size="14.00"> </text>
<text text-anchor="start" x="338" y="-105.8" font-family="arial" font-size="14.00"> 1 </text>
<text text-anchor="start" x="358" y="-105.8" font-family="arial" font-size="14.00"> </text>
<text text-anchor="start" x="366" y="-105.8" font-family="arial" font-size="14.00"> X2:1</text>
<polygon fill="#000000" stroke="transparent" points="288,-98 288,-100 400,-100 400,-98 288,-98"/>
<polygon fill="#ffffff" stroke="transparent" points="288,-96 288,-98 400,-98 400,-96 288,-96"/>
<polygon fill="#000000" stroke="transparent" points="288,-94 288,-96 400,-96 400,-94 288,-94"/>
<text text-anchor="start" x="290" y="-80.8" font-family="arial" font-size="14.00"> X1:2 </text>
<text text-anchor="start" x="330" y="-80.8" font-family="arial" font-size="14.00"> </text>
<text text-anchor="start" x="338" y="-80.8" font-family="arial" font-size="14.00"> 2 </text>
<text text-anchor="start" x="358" y="-80.8" font-family="arial" font-size="14.00"> </text>
<text text-anchor="start" x="366" y="-80.8" font-family="arial" font-size="14.00"> X2:2</text>
<polygon fill="#000000" stroke="transparent" points="288,-73 288,-75 400,-75 400,-73 288,-73"/>
<polygon fill="#ffffff" stroke="transparent" points="288,-71 288,-73 400,-73 400,-71 288,-71"/>
<polygon fill="#000000" stroke="transparent" points="288,-69 288,-71 400,-71 400,-69 288,-69"/>
<text text-anchor="start" x="290" y="-55.8" font-family="arial" font-size="14.00"> X1:3 </text>
<text text-anchor="start" x="330" y="-55.8" font-family="arial" font-size="14.00"> </text>
<text text-anchor="start" x="338" y="-55.8" font-family="arial" font-size="14.00"> 3 </text>
<text text-anchor="start" x="358" y="-55.8" font-family="arial" font-size="14.00"> </text>
<text text-anchor="start" x="366" y="-55.8" font-family="arial" font-size="14.00"> X2:3</text>
<polygon fill="#000000" stroke="transparent" points="288,-48 288,-50 400,-50 400,-48 288,-48"/>
<polygon fill="#ffffff" stroke="transparent" points="288,-46 288,-48 400,-48 400,-46 288,-46"/>
<polygon fill="#000000" stroke="transparent" points="288,-44 288,-46 400,-46 400,-44 288,-44"/>
<text text-anchor="start" x="290" y="-30.8" font-family="arial" font-size="14.00"> X1:4 </text>
<text text-anchor="start" x="330" y="-30.8" font-family="arial" font-size="14.00"> </text>
<text text-anchor="start" x="338" y="-30.8" font-family="arial" font-size="14.00"> 4 </text>
<text text-anchor="start" x="358" y="-30.8" font-family="arial" font-size="14.00"> </text>
<text text-anchor="start" x="366" y="-30.8" font-family="arial" font-size="14.00"> X2:4</text>
<polygon fill="#000000" stroke="transparent" points="288,-23 288,-25 400,-25 400,-23 288,-23"/>
<polygon fill="#ffffff" stroke="transparent" points="288,-21 288,-23 400,-23 400,-21 288,-21"/>
<polygon fill="#000000" stroke="transparent" points="288,-19 288,-21 400,-21 400,-19 288,-19"/>
<text text-anchor="start" x="306" y="-5.8" font-family="arial" font-size="14.00"> </text>
</g>
<!-- X1&#45;&#45;W1 -->
<g id="edge1" class="edge">
<title>X1:e&#45;&#45;W1:w</title>
<path fill="none" stroke="#000000" stroke-width="2" d="M72,-95C72,-95 288,-97 288,-97"/>
</g>
<!-- X1&#45;&#45;W1 -->
<g id="edge3" class="edge">
<title>X1:e&#45;&#45;W1:w</title>
<path fill="none" stroke="#000000" stroke-width="2" d="M72,-71C72,-71 288,-72 288,-72"/>
</g>
<!-- X1&#45;&#45;W1 -->
<g id="edge5" class="edge">
<title>X1:e&#45;&#45;W1:w</title>
<path fill="none" stroke="#000000" stroke-width="2" d="M72,-48C72,-48 288,-47 288,-47"/>
</g>
<!-- X1&#45;&#45;W1 -->
<g id="edge7" class="edge">
<title>X1:e&#45;&#45;W1:w</title>
<path fill="none" stroke="#000000" stroke-width="2" d="M72,-25C72,-25 288,-22 288,-22"/>
</g>
<!-- X2 -->
<g id="node2" class="node">
<title>X2</title>
<polygon fill="#ffffff" stroke="black" points="688,-152 616,-152 616,-14 688,-14 688,-152"/>
<polygon fill="#ffffff" stroke="transparent" points="616,-14 616,-152 688,-152 688,-14 616,-14"/>
<polygon fill="#ffffff" stroke="transparent" points="616,-129 616,-152 688,-152 688,-129 616,-129"/>
<polygon fill="none" stroke="black" points="616,-129 616,-152 688,-152 688,-129 616,-129"/>
<text text-anchor="start" x="635.5" y="-137.8" font-family="arial" font-size="14.00"> </text>
<text text-anchor="start" x="639.5" y="-137.8" font-family="arial" font-weight="bold" font-size="14.00"> X2 </text>
<text text-anchor="start" x="664.5" y="-137.8" font-family="arial" font-size="14.00"> </text>
<polygon fill="none" stroke="black" points="616,-106 616,-129 637,-129 637,-106 616,-106"/>
<text text-anchor="start" x="622.5" y="-113.8" font-family="arial" font-size="14.00"> &#160;</text>
<polygon fill="none" stroke="black" points="637,-106 637,-129 688,-129 688,-106 637,-106"/>
<text text-anchor="start" x="643.5" y="-113.8" font-family="arial" font-size="14.00"> 4&#45;pin </text>
<polygon fill="none" stroke="black" points="616,-83 616,-106 640,-106 640,-83 616,-83"/>
<text text-anchor="start" x="620" y="-90.8" font-family="arial" font-size="14.00"> 1 </text>
<polygon fill="none" stroke="black" points="640,-83 640,-106 688,-106 688,-83 640,-83"/>
<text text-anchor="start" x="644" y="-90.8" font-family="arial" font-size="14.00"> None </text>
<polygon fill="none" stroke="black" points="616,-60 616,-83 640,-83 640,-60 616,-60"/>
<text text-anchor="start" x="620" y="-67.8" font-family="arial" font-size="14.00"> 2 </text>
<polygon fill="none" stroke="black" points="640,-60 640,-83 688,-83 688,-60 640,-60"/>
<text text-anchor="start" x="644" y="-67.8" font-family="arial" font-size="14.00"> None </text>
<polygon fill="none" stroke="black" points="616,-37 616,-60 640,-60 640,-37 616,-37"/>
<text text-anchor="start" x="620" y="-44.8" font-family="arial" font-size="14.00"> 3 </text>
<polygon fill="none" stroke="black" points="640,-37 640,-60 688,-60 688,-37 640,-37"/>
<text text-anchor="start" x="644" y="-44.8" font-family="arial" font-size="14.00"> None </text>
<polygon fill="none" stroke="black" points="616,-14 616,-37 640,-37 640,-14 616,-14"/>
<text text-anchor="start" x="620" y="-21.8" font-family="arial" font-size="14.00"> 4 </text>
<polygon fill="none" stroke="black" points="640,-14 640,-37 688,-37 688,-14 640,-14"/>
<text text-anchor="start" x="644" y="-21.8" font-family="arial" font-size="14.00"> None </text>
</g>
<!-- W1&#45;&#45;X2 -->
<g id="edge2" class="edge">
<title>W1:e&#45;&#45;X2:w</title>
<path fill="none" stroke="#000000" stroke-width="2" d="M400,-97C400,-97 616,-95 616,-95"/>
</g>
<!-- W1&#45;&#45;X2 -->
<g id="edge4" class="edge">
<title>W1:e&#45;&#45;X2:w</title>
<path fill="none" stroke="#000000" stroke-width="2" d="M400,-72C400,-72 616,-71 616,-71"/>
</g>
<!-- W1&#45;&#45;X2 -->
<g id="edge6" class="edge">
<title>W1:e&#45;&#45;X2:w</title>
<path fill="none" stroke="#000000" stroke-width="2" d="M400,-47C400,-47 616,-48 616,-48"/>
</g>
<!-- W1&#45;&#45;X2 -->
<g id="edge8" class="edge">
<title>W1:e&#45;&#45;X2:w</title>
<path fill="none" stroke="#000000" stroke-width="2" d="M400,-22C400,-22 616,-25 616,-25"/>
</g>
</g>
</svg>
