<?xml version="1.0" encoding="UTF-8" standalone="no"?>
<!DOCTYPE svg PUBLIC "-//W3C//DTD SVG 1.1//EN"
 "http://www.w3.org/Graphics/SVG/1.1/DTD/svg11.dtd">
<!-- Generated by graphviz version 2.43.0 (0)
 -->
<!-- Title: %3 Pages: 1 -->
<svg width="676pt" height="192pt"
 viewBox="0.00 0.00 676.00 192.00" xmlns="http://www.w3.org/2000/svg" xmlns:xlink="http://www.w3.org/1999/xlink">
<g id="graph0" class="graph" transform="scale(1 1) rotate(0) translate(4 188)">
<title>%3</title>
<polygon fill="#ffffff" stroke="transparent" points="-4,4 -4,-188 672,-188 672,4 -4,4"/>
<!-- X1 -->
<g id="node1" class="node">
<title>X1</title>
<polygon fill="#ffffff" stroke="black" points="62,-152 0,-152 0,-14 62,-14 62,-152"/>
<polygon fill="#ffffff" stroke="transparent" points="0,-14 0,-152 62,-152 62,-14 0,-14"/>
<polygon fill="#ffffff" stroke="transparent" points="0,-129 0,-152 62,-152 62,-129 0,-129"/>
<polygon fill="none" stroke="black" points="0,-129 0,-152 62,-152 62,-129 0,-129"/>
<text text-anchor="start" x="14.5" y="-137.8" font-family="arial" font-size="14.00"> </text>
<text text-anchor="start" x="18.5" y="-137.8" font-family="arial" font-weight="bold" font-size="14.00"> X1 </text>
<text text-anchor="start" x="43.5" y="-137.8" font-family="arial" font-size="14.00"> </text>
<polygon fill="none" stroke="black" points="0,-106 0,-129 16,-129 16,-106 0,-106"/>
<text text-anchor="start" x="4" y="-113.8" font-family="arial" font-size="14.00"> &#160;</text>
<polygon fill="none" stroke="black" points="16,-106 16,-129 62,-129 62,-106 16,-106"/>
<text text-anchor="start" x="20" y="-113.8" font-family="arial" font-size="14.00"> 4&#45;pin </text>
<polygon fill="none" stroke="black" points="0,-83 0,-106 34,-106 34,-83 0,-83"/>
<text text-anchor="start" x="9" y="-90.8" font-family="arial" font-size="14.00"> 1 </text>
<polygon fill="none" stroke="black" points="34,-83 34,-106 62,-106 62,-83 34,-83"/>
<text text-anchor="start" x="40" y="-90.8" font-family="arial" font-size="14.00"> 1 </text>
<polygon fill="none" stroke="black" points="0,-60 0,-83 34,-83 34,-60 0,-60"/>
<text text-anchor="start" x="9" y="-67.8" font-family="arial" font-size="14.00"> 2 </text>
<polygon fill="none" stroke="black" points="34,-60 34,-83 62,-83 62,-60 34,-60"/>
<text text-anchor="start" x="40" y="-67.8" font-family="arial" font-size="14.00"> 2 </text>
<polygon fill="none" stroke="black" points="0,-37 0,-60 34,-60 34,-37 0,-37"/>
<text text-anchor="start" x="9" y="-44.8" font-family="arial" font-size="14.00"> 3 </text>
<polygon fill="none" stroke="black" points="34,-37 34,-60 62,-60 62,-37 34,-37"/>
<text text-anchor="start" x="40" y="-44.8" font-family="arial" font-size="14.00"> 3 </text>
<polygon fill="none" stroke="black" points="0,-14 0,-37 34,-37 34,-14 0,-14"/>
<text text-anchor="start" x="9" y="-21.8" font-family="arial" font-size="14.00"> 4 </text>
<polygon fill="none" stroke="black" points="34,-14 34,-37 62,-37 62,-14 34,-14"/>
<text text-anchor="start" x="40" y="-21.8" font-family="arial" font-size="14.00"> 4 </text>
</g>
<!-- W1 -->
<g id="node3" class="node">
<title>W1</title>
<polygon fill="#ffffff" stroke="black" points="390,-184 278,-184 278,0 390,0 390,-184"/>
<polygon fill="#ffffff" stroke="transparent" points="278,0 278,-184 390,-184 390,0 278,0"/>
<polygon fill="#ffffff" stroke="transparent" points="278,-161 278,-184 390,-184 390,-161 278,-161"/>
<polygon fill="none" stroke="black" points="278,-161 278,-184 390,-184 390,-161 278,-161"/>
<text text-anchor="start" x="315.5" y="-169.8" font-family="arial" font-size="14.00"> </text>
<text text-anchor="start" x="319.5" y="-169.8" font-family="arial" font-weight="bold" font-size="14.00"> W1 </text>
<text text-anchor="start" x="348.5" y="-169.8" font-family="arial" font-size="14.00"> </text>
<polygon fill="none" stroke="black" points="278,-138 278,-161 330,-161 330,-138 278,-138"/>
<text text-anchor="start" x="293" y="-145.8" font-family="arial" font-size="14.00"> 4x </text>
<polygon fill="none" stroke="black" points="330,-138 330,-161 390,-161 390,-138 330,-138"/>
<text text-anchor="start" x="344.5" y="-145.8" font-family="arial" font-size="14.00"> 1 m </text>
<text text-anchor="start" x="296" y="-124.8" font-family="arial" font-size="14.00"> </text>
<text text-anchor="start" x="280" y="-105.8" font-family="arial" font-size="14.00"> X1:1 </text>
<text text-anchor="start" x="320" y="-105.8" font-family="arial" font-size="14.00"> </text>
<text text-anchor="start" x="328" y="-105.8" font-family="arial" font-size="14.00"> 1 </text>
<text text-anchor="start" x="348" y="-105.8" font-family="arial" font-size="14.00"> </text>
<text text-anchor="start" x="356" y="-105.8" font-family="arial" font-size="14.00"> X2:1</text>
<polygon fill="#000000" stroke="transparent" points="278,-98 278,-100 390,-100 390,-98 278,-98"/>
<polygon fill="#ffffff" stroke="transparent" points="278,-96 278,-98 390,-98 390,-96 278,-96"/>
<polygon fill="#000000" stroke="transparent" points="278,-94 278,-96 390,-96 390,-94 278,-94"/>
<text text-anchor="start" x="280" y="-80.8" font-family="arial" font-size="14.00"> X1:2 </text>
<text text-anchor="start" x="320" y="-80.8" font-family="arial" font-size="14.00"> </text>
<text text-anchor="start" x="328" y="-80.8" font-family="arial" font-size="14.00"> 2 </text>
<text text-anchor="start" x="348" y="-80.8" font-family="arial" font-size="14.00"> </text>
<text text-anchor="start" x="356" y="-80.8" font-family="arial" font-size="14.00"> X2:2</text>
<polygon fill="#000000" stroke="transparent" points="278,-73 278,-75 390,-75 390,-73 278,-73"/>
<polygon fill="#ffffff" stroke="transparent" points="278,-71 278,-73 390,-73 390,-71 278,-71"/>
<polygon fill="#000000" stroke="transparent" points="278,-69 278,-71 390,-71 390,-69 278,-69"/>
<text text-anchor="start" x="280" y="-55.8" font-family="arial" font-size="14.00"> X1:3 </text>
<text text-anchor="start" x="320" y="-55.8" font-family="arial" font-size="14.00"> </text>
<text text-anchor="start" x="328" y="-55.8" font-family="arial" font-size="14.00"> 3 </text>
<text text-anchor="start" x="348" y="-55.8" font-family="arial" font-size="14.00"> </text>
<text text-anchor="start" x="356" y="-55.8" font-family="arial" font-size="14.00"> X2:3</text>
<polygon fill="#000000" stroke="transparent" points="278,-48 278,-50 390,-50 390,-48 278,-48"/>
<polygon fill="#ffffff" stroke="transparent" points="278,-46 278,-48 390,-48 390,-46 278,-46"/>
<polygon fill="#000000" stroke="transparent" points="278,-44 278,-46 390,-46 390,-44 278,-44"/>
<text text-anchor="start" x="280" y="-30.8" font-family="arial" font-size="14.00"> X1:4 </text>
<text text-anchor="start" x="320" y="-30.8" font-family="arial" font-size="14.00"> </text>
<text text-anchor="start" x="328" y="-30.8" font-family="arial" font-size="14.00"> 4 </text>
<text text-anchor="start" x="348" y="-30.8" font-family="arial" font-size="14.00"> </text>
<text text-anchor="start" x="356" y="-30.8" font-family="arial" font-size="14.00"> X2:4</text>
<polygon fill="#000000" stroke="transparent" points="278,-23 278,-25 390,-25 390,-23 278,-23"/>
<polygon fill="#ffffff" stroke="transparent" points="278,-21 278,-23 390,-23 390,-21 278,-21"/>
<polygon fill="#000000" stroke="transparent" points="278,-19 278,-21 390,-21 390,-19 278,-19"/>
<text text-anchor="start" x="296" y="-5.8" font-family="arial" font-size="14.00"> </text>
</g>
<!-- X1&#45;&#45;W1 -->
<g id="edge1" class="edge">
<title>X1:e&#45;&#45;W1:w</title>
<path fill="none" stroke="#000000" stroke-width="2" d="M62,-95C62,-95 278,-97 278,-97"/>
</g>
<!-- X1&#45;&#45;W1 -->
<g id="edge3" class="edge">
<title>X1:e&#45;&#45;W1:w</title>
<path fill="none" stroke="#000000" stroke-width="2" d="M62,-71C62,-71 278,-72 278,-72"/>
</g>
<!-- X1&#45;&#45;W1 -->
<g id="edge5" class="edge">
<title>X1:e&#45;&#45;W1:w</title>
<path fill="none" stroke="#000000" stroke-width="2" d="M62,-48C62,-48 278,-47 278,-47"/>
</g>
<!-- X1&#45;&#45;W1 -->
<g id="edge7" class="edge">
<title>X1:e&#45;&#45;W1:w</title>
<path fill="none" stroke="#000000" stroke-width="2" d="M62,-25C62,-25 278,-22 278,-22"/>
</g>
<!-- X2 -->
<g id="node2" class="node">
<title>X2</title>
<polygon fill="#ffffff" stroke="black" points="668,-152 606,-152 606,-14 668,-14 668,-152"/>
<polygon fill="#ffffff" stroke="transparent" points="606,-14 606,-152 668,-152 668,-14 606,-14"/>
<polygon fill="#ffffff" stroke="transparent" points="606,-129 606,-152 668,-152 668,-129 606,-129"/>
<polygon fill="none" stroke="black" points="606,-129 606,-152 668,-152 668,-129 606,-129"/>
<text text-anchor="start" x="620.5" y="-137.8" font-family="arial" font-size="14.00"> </text>
<text text-anchor="start" x="624.5" y="-137.8" font-family="arial" font-weight="bold" font-size="14.00"> X2 </text>
<text text-anchor="start" x="649.5" y="-137.8" font-family="arial" font-size="14.00"> </text>
<polygon fill="none" stroke="black" points="606,-106 606,-129 622,-129 622,-106 606,-106"/>
<text text-anchor="start" x="610" y="-113.8" font-family="arial" font-size="14.00"> &#160;</text>
<polygon fill="none" stroke="black" points="622,-106 622,-129 668,-129 668,-106 622,-106"/>
<text text-anchor="start" x="626" y="-113.8" font-family="arial" font-size="14.00"> 4&#45;pin </text>
<polygon fill="none" stroke="black" points="606,-83 606,-106 635,-106 635,-83 606,-83"/>
<text text-anchor="start" x="612.5" y="-90.8" font-family="arial" font-size="14.00"> 1 </text>
<polygon fill="none" stroke="black" points="635,-83 635,-106 668,-106 668,-83 635,-83"/>
<text text-anchor="start" x="643.5" y="-90.8" font-family="arial" font-size="14.00"> 1 </text>
<polygon fill="none" stroke="black" points="606,-60 606,-83 635,-83 635,-60 606,-60"/>
<text text-anchor="start" x="612.5" y="-67.8" font-family="arial" font-size="14.00"> 2 </text>
<polygon fill="none" stroke="black" points="635,-60 635,-83 668,-83 668,-60 635,-60"/>
<text text-anchor="start" x="643.5" y="-67.8" font-family="arial" font-size="14.00"> 2 </text>
<polygon fill="none" stroke="black" points="606,-37 606,-60 635,-60 635,-37 606,-37"/>
<text text-anchor="start" x="612.5" y="-44.8" font-family="arial" font-size="14.00"> 3 </text>
<polygon fill="none" stroke="black" points="635,-37 635,-60 668,-60 668,-37 635,-37"/>
<text text-anchor="start" x="643.5" y="-44.8" font-family="arial" font-size="14.00"> 3 </text>
<polygon fill="none" stroke="black" points="606,-14 606,-37 635,-37 635,-14 606,-14"/>
<text text-anchor="start" x="612.5" y="-21.8" font-family="arial" font-size="14.00"> 4 </text>
<polygon fill="none" stroke="black" points="635,-14 635,-37 668,-37 668,-14 635,-14"/>
<text text-anchor="start" x="643.5" y="-21.8" font-family="arial" font-size="14.00"> 4 </text>
</g>
<!-- W1&#45;&#45;X2 -->
<g id="edge2" class="edge">
<title>W1:e&#45;&#45;X2:w</title>
<path fill="none" stroke="#000000" stroke-width="2" d="M390,-97C390,-97 606,-95 606,-95"/>
</g>
<!-- W1&#45;&#45;X2 -->
<g id="edge4" class="edge">
<title>W1:e&#45;&#45;X2:w</title>
<path fill="none" stroke="#000000" stroke-width="2" d="M390,-72C390,-72 606,-71 606,-71"/>
</g>
<!-- W1&#45;&#45;X2 -->
<g id="edge6" class="edge">
<title>W1:e&#45;&#45;X2:w</title>
<path fill="none" stroke="#000000" stroke-width="2" d="M390,-47C390,-47 606,-48 606,-48"/>
</g>
<!-- W1&#45;&#45;X2 -->
<g id="edge8" class="edge">
<title>W1:e&#45;&#45;X2:w</title>
<path fill="none" stroke="#000000" stroke-width="2" d="M390,-22C390,-22 606,-25 606,-25"/>
</g>
</g>
</svg>
