<?xml version="1.0" encoding="UTF-8" standalone="no"?>
<!DOCTYPE svg PUBLIC "-//W3C//DTD SVG 1.1//EN"
 "http://www.w3.org/Graphics/SVG/1.1/DTD/svg11.dtd">
<!-- Generated by graphviz version 2.43.0 (0)
 -->
<!-- Title: %3 Pages: 1 -->
<svg width="1079pt" height="192pt"
 viewBox="0.00 0.00 1079.00 192.00" xmlns="http://www.w3.org/2000/svg" xmlns:xlink="http://www.w3.org/1999/xlink">
<g id="graph0" class="graph" transform="scale(1 1) rotate(0) translate(4 188)">
<title>%3</title>
<polygon fill="#ffffff" stroke="transparent" points="-4,4 -4,-188 1075,-188 1075,4 -4,4"/>
<!-- AUTOGENERATED_F_05_1 -->
<g id="node1" class="node">
<title>AUTOGENERATED_F_05_1</title>
<polygon fill="#ffffff" stroke="black" points="239,-118.5 0,-118.5 0,-95.5 239,-95.5 239,-118.5"/>
<polygon fill="#ffffff" stroke="transparent" points="0,-95.5 0,-118.5 239,-118.5 239,-95.5 0,-95.5"/>
<polygon fill="none" stroke="black" points="0.5,-95 0.5,-118 110.5,-118 110.5,-95 0.5,-95"/>
<text text-anchor="start" x="4.5" y="-102.8" font-family="arial" font-size="14.00"> Crimp ferrule </text>
<polygon fill="none" stroke="black" points="110.5,-95 110.5,-118 187.5,-118 187.5,-95 110.5,-95"/>
<text text-anchor="start" x="114.5" y="-102.8" font-family="arial" font-size="14.00"> 0.5 mm² </text>
<polygon fill="none" stroke="black" points="187.5,-95 187.5,-118 226.5,-118 226.5,-95 187.5,-95"/>
<text text-anchor="start" x="191.5" y="-102.8" font-family="arial" font-size="14.00"> OG </text>
<polygon fill="#ff8000" stroke="transparent" points="226.5,-95 226.5,-118 239.5,-118 239.5,-95 226.5,-95"/>
<polygon fill="none" stroke="black" points="226.5,-95 226.5,-118 239.5,-118 239.5,-95 226.5,-95"/>
<text text-anchor="start" x="230.5" y="-102.8" font-family="arial" font-size="14.00"> </text>
</g>
<!-- W1 -->
<g id="node5" class="node">
<title>W1</title>
<polygon fill="#ffffff" stroke="black" points="637,-184 455,-184 455,0 637,0 637,-184"/>
<polygon fill="#ffffff" stroke="transparent" points="455,0 455,-184 637,-184 637,0 455,0"/>
<polygon fill="#ffffff" stroke="transparent" points="455,-161 455,-184 637,-184 637,-161 455,-161"/>
<polygon fill="none" stroke="black" points="455,-161 455,-184 637,-184 637,-161 455,-161"/>
<text text-anchor="start" x="523.5" y="-169.8" font-family="arial" font-size="14.00"> </text>
<text text-anchor="start" x="528.5" y="-169.8" font-family="arial" font-weight="bold" font-size="14.00"> W1 </text>
<text text-anchor="start" x="563.5" y="-169.8" font-family="arial" font-size="14.00"> </text>
<polygon fill="none" stroke="black" points="455,-138 455,-161 491,-161 491,-138 455,-138"/>
<text text-anchor="start" x="459.5" y="-145.8" font-family="arial" font-size="14.00"> 4x </text>
<polygon fill="none" stroke="black" points="491,-138 491,-161 569,-161 569,-138 491,-138"/>
<text text-anchor="start" x="495.5" y="-145.8" font-family="arial" font-size="14.00"> 0.5 mm² </text>
<polygon fill="none" stroke="black" points="569,-138 569,-161 637,-161 637,-138 569,-138"/>
<text text-anchor="start" x="573.5" y="-145.8" font-family="arial" font-size="14.00"> 0.30 m </text>
<text text-anchor="start" x="468" y="-124.8" font-family="arial" font-size="14.00"> </text>
<text text-anchor="start" x="457" y="-105.8" font-family="arial" font-size="14.00"> &#160;</text>
<text text-anchor="start" x="488" y="-105.8" font-family="arial" font-size="14.00"> </text>
<text text-anchor="start" x="498.5" y="-105.8" font-family="arial" font-size="14.00"> 1:YE </text>
<text text-anchor="start" x="544" y="-105.8" font-family="arial" font-size="14.00"> </text>
<text text-anchor="start" x="553" y="-105.8" font-family="arial" font-size="14.00"> X1:1:+12V</text>
<polygon fill="#000000" stroke="transparent" points="455,-98 455,-100 637,-100 637,-98 455,-98"/>
<polygon fill="#ffff00" stroke="transparent" points="455,-96 455,-98 637,-98 637,-96 455,-96"/>
<polygon fill="#000000" stroke="transparent" points="455,-94 455,-96 637,-96 637,-94 455,-94"/>
<text text-anchor="start" x="457" y="-80.8" font-family="arial" font-size="14.00"> F1 </text>
<text text-anchor="start" x="488" y="-80.8" font-family="arial" font-size="14.00"> </text>
<text text-anchor="start" x="497.5" y="-80.8" font-family="arial" font-size="14.00"> 2:BK </text>
<text text-anchor="start" x="544" y="-80.8" font-family="arial" font-size="14.00"> </text>
<text text-anchor="start" x="562" y="-80.8" font-family="arial" font-size="14.00"> X1:2:GND</text>
<polygon fill="#000000" stroke="transparent" points="455,-73 455,-75 637,-75 637,-73 455,-73"/>
<polygon fill="#000000" stroke="transparent" points="455,-71 455,-73 637,-73 637,-71 455,-71"/>
<polygon fill="#000000" stroke="transparent" points="455,-69 455,-71 637,-71 637,-69 455,-69"/>
<text text-anchor="start" x="457" y="-55.8" font-family="arial" font-size="14.00"> F1 </text>
<text text-anchor="start" x="488" y="-55.8" font-family="arial" font-size="14.00"> </text>
<text text-anchor="start" x="497.5" y="-55.8" font-family="arial" font-size="14.00"> 3:BK </text>
<text text-anchor="start" x="544" y="-55.8" font-family="arial" font-size="14.00"> </text>
<text text-anchor="start" x="562" y="-55.8" font-family="arial" font-size="14.00"> X1:3:GND</text>
<polygon fill="#000000" stroke="transparent" points="455,-48 455,-50 637,-50 637,-48 455,-48"/>
<polygon fill="#000000" stroke="transparent" points="455,-46 455,-48 637,-48 637,-46 455,-46"/>
<polygon fill="#000000" stroke="transparent" points="455,-44 455,-46 637,-46 637,-44 455,-44"/>
<text text-anchor="start" x="457" y="-30.8" font-family="arial" font-size="14.00"> &#160;</text>
<text text-anchor="start" x="488" y="-30.8" font-family="arial" font-size="14.00"> </text>
<text text-anchor="start" x="497" y="-30.8" font-family="arial" font-size="14.00"> 4:RD </text>
<text text-anchor="start" x="544" y="-30.8" font-family="arial" font-size="14.00"> </text>
<text text-anchor="start" x="562" y="-30.8" font-family="arial" font-size="14.00"> X1:4:+5V</text>
<polygon fill="#000000" stroke="transparent" points="455,-23 455,-25 637,-25 637,-23 455,-23"/>
<polygon fill="#ff0000" stroke="transparent" points="455,-21 455,-23 637,-23 637,-21 455,-21"/>
<polygon fill="#000000" stroke="transparent" points="455,-19 455,-21 637,-21 637,-19 455,-19"/>
<text text-anchor="start" x="468" y="-5.8" font-family="arial" font-size="14.00"> </text>
</g>
<!-- AUTOGENERATED_F_05_1&#45;&#45;W1 -->
<g id="edge1" class="edge">
<title>AUTOGENERATED_F_05_1:e&#45;&#45;W1:w</title>
<path fill="none" stroke="#000000" stroke-width="2" d="M239,-107C238.91,-105 454.91,-95 455,-97"/>
<path fill="none" stroke="#ffff00" stroke-width="2" d="M239,-107C239,-107 455,-97 455,-97"/>
<path fill="none" stroke="#000000" stroke-width="2" d="M239,-107C239.09,-109 455.09,-99 455,-97"/>
</g>
<!-- F1 -->
<g id="node2" class="node">
<title>F1</title>
<polygon fill="#ffffff" stroke="black" points="237,-71.5 2,-71.5 2,-48.5 237,-48.5 237,-71.5"/>
<polygon fill="#ffffff" stroke="transparent" points="2,-48.5 2,-71.5 237,-71.5 237,-48.5 2,-48.5"/>
<polygon fill="none" stroke="black" points="2.5,-48 2.5,-71 112.5,-71 112.5,-48 2.5,-48"/>
<text text-anchor="start" x="6.5" y="-55.8" font-family="arial" font-size="14.00"> Crimp ferrule </text>
<polygon fill="none" stroke="black" points="112.5,-48 112.5,-71 189.5,-71 189.5,-48 112.5,-48"/>
<text text-anchor="start" x="116.5" y="-55.8" font-family="arial" font-size="14.00"> 1.0 mm² </text>
<polygon fill="none" stroke="black" points="189.5,-48 189.5,-71 224.5,-71 224.5,-48 189.5,-48"/>
<text text-anchor="start" x="193.5" y="-55.8" font-family="arial" font-size="14.00"> YE </text>
<polygon fill="#ffff00" stroke="transparent" points="224.5,-48 224.5,-71 237.5,-71 237.5,-48 224.5,-48"/>
<polygon fill="none" stroke="black" points="224.5,-48 224.5,-71 237.5,-71 237.5,-48 224.5,-48"/>
<text text-anchor="start" x="228.5" y="-55.8" font-family="arial" font-size="14.00"> </text>
</g>
<!-- F1&#45;&#45;W1 -->
<g id="edge3" class="edge">
<title>F1:e&#45;&#45;W1:w</title>
<path fill="none" stroke="#000000" stroke-width="2" d="M238.5,-60C238.61,-58 455.11,-70 455,-72"/>
<path fill="none" stroke="#000000" stroke-width="2" d="M238.5,-60C238.5,-60 455,-72 455,-72"/>
<path fill="none" stroke="#000000" stroke-width="2" d="M238.5,-60C238.39,-62 454.89,-74 455,-72"/>
</g>
<!-- F1&#45;&#45;W1 -->
<g id="edge5" class="edge">
<title>F1:e&#45;&#45;W1:w</title>
<path fill="none" stroke="#000000" stroke-width="2" d="M238.5,-60C238.38,-58 454.88,-45 455,-47"/>
<path fill="none" stroke="#000000" stroke-width="2" d="M238.5,-60C238.5,-60 455,-47 455,-47"/>
<path fill="none" stroke="#000000" stroke-width="2" d="M238.5,-60C238.62,-62 455.12,-49 455,-47"/>
</g>
<!-- AUTOGENERATED_F_05_2 -->
<g id="node3" class="node">
<title>AUTOGENERATED_F_05_2</title>
<polygon fill="#ffffff" stroke="black" points="239,-24.5 0,-24.5 0,-1.5 239,-1.5 239,-24.5"/>
<polygon fill="#ffffff" stroke="transparent" points="0,-1.5 0,-24.5 239,-24.5 239,-1.5 0,-1.5"/>
<polygon fill="none" stroke="black" points="0.5,-1 0.5,-24 110.5,-24 110.5,-1 0.5,-1"/>
<text text-anchor="start" x="4.5" y="-8.8" font-family="arial" font-size="14.00"> Crimp ferrule </text>
<polygon fill="none" stroke="black" points="110.5,-1 110.5,-24 187.5,-24 187.5,-1 110.5,-1"/>
<text text-anchor="start" x="114.5" y="-8.8" font-family="arial" font-size="14.00"> 0.5 mm² </text>
<polygon fill="none" stroke="black" points="187.5,-1 187.5,-24 226.5,-24 226.5,-1 187.5,-1"/>
<text text-anchor="start" x="191.5" y="-8.8" font-family="arial" font-size="14.00"> OG </text>
<polygon fill="#ff8000" stroke="transparent" points="226.5,-1 226.5,-24 239.5,-24 239.5,-1 226.5,-1"/>
<polygon fill="none" stroke="black" points="226.5,-1 226.5,-24 239.5,-24 239.5,-1 226.5,-1"/>
<text text-anchor="start" x="230.5" y="-8.8" font-family="arial" font-size="14.00"> </text>
</g>
<!-- AUTOGENERATED_F_05_2&#45;&#45;W1 -->
<g id="edge7" class="edge">
<title>AUTOGENERATED_F_05_2:e&#45;&#45;W1:w</title>
<path fill="none" stroke="#000000" stroke-width="2" d="M239,-13C239.08,-11 455.08,-20 455,-22"/>
<path fill="none" stroke="#ff0000" stroke-width="2" d="M239,-13C239,-13 455,-22 455,-22"/>
<path fill="none" stroke="#000000" stroke-width="2" d="M239,-13C238.92,-15 454.92,-24 455,-22"/>
</g>
<!-- X1 -->
<g id="node4" class="node">
<title>X1</title>
<polygon fill="#ffffff" stroke="black" points="1071,-152 853,-152 853,-14 1071,-14 1071,-152"/>
<polygon fill="#ffffff" stroke="transparent" points="853,-14 853,-152 1071,-152 1071,-14 853,-14"/>
<polygon fill="#ffffff" stroke="transparent" points="853,-129 853,-152 1071,-152 1071,-129 853,-129"/>
<polygon fill="none" stroke="black" points="853,-129 853,-152 1071,-152 1071,-129 853,-129"/>
<text text-anchor="start" x="942" y="-137.8" font-family="arial" font-size="14.00"> </text>
<text text-anchor="start" x="947" y="-137.8" font-family="arial" font-weight="bold" font-size="14.00"> X1 </text>
<text text-anchor="start" x="977" y="-137.8" font-family="arial" font-size="14.00"> </text>
<polygon fill="none" stroke="black" points="853,-106 853,-129 952,-129 952,-106 853,-106"/>
<text text-anchor="start" x="857" y="-113.8" font-family="arial" font-size="14.00"> Molex 8981 </text>
<polygon fill="none" stroke="black" points="952,-106 952,-129 1017,-129 1017,-106 952,-106"/>
<text text-anchor="start" x="956" y="-113.8" font-family="arial" font-size="14.00"> female </text>
<polygon fill="none" stroke="black" points="1017,-106 1017,-129 1071,-129 1071,-106 1017,-106"/>
<text text-anchor="start" x="1021" y="-113.8" font-family="arial" font-size="14.00"> 4&#45;pin </text>
<polygon fill="none" stroke="black" points="853,-83 853,-106 925,-106 925,-83 853,-83"/>
<text text-anchor="start" x="879.5" y="-90.8" font-family="arial" font-size="14.00"> 1 </text>
<polygon fill="none" stroke="black" points="925,-83 925,-106 1071,-106 1071,-83 925,-83"/>
<text text-anchor="start" x="973.5" y="-90.8" font-family="arial" font-size="14.00"> +12V </text>
<polygon fill="none" stroke="black" points="853,-60 853,-83 925,-83 925,-60 853,-60"/>
<text text-anchor="start" x="879.5" y="-67.8" font-family="arial" font-size="14.00"> 2 </text>
<polygon fill="none" stroke="black" points="925,-60 925,-83 1071,-83 1071,-60 925,-60"/>
<text text-anchor="start" x="977.5" y="-67.8" font-family="arial" font-size="14.00"> GND </text>
<polygon fill="none" stroke="black" points="853,-37 853,-60 925,-60 925,-37 853,-37"/>
<text text-anchor="start" x="879.5" y="-44.8" font-family="arial" font-size="14.00"> 3 </text>
<polygon fill="none" stroke="black" points="925,-37 925,-60 1071,-60 1071,-37 925,-37"/>
<text text-anchor="start" x="977.5" y="-44.8" font-family="arial" font-size="14.00"> GND </text>
<polygon fill="none" stroke="black" points="853,-14 853,-37 925,-37 925,-14 853,-14"/>
<text text-anchor="start" x="879.5" y="-21.8" font-family="arial" font-size="14.00"> 4 </text>
<polygon fill="none" stroke="black" points="925,-14 925,-37 1071,-37 1071,-14 925,-14"/>
<text text-anchor="start" x="978" y="-21.8" font-family="arial" font-size="14.00"> +5V </text>
</g>
<!-- W1&#45;&#45;X1 -->
<g id="edge2" class="edge">
<title>W1:e&#45;&#45;X1:w</title>
<path fill="none" stroke="#000000" stroke-width="2" d="M637,-97C636.98,-95 852.98,-93 853,-95"/>
<path fill="none" stroke="#ffff00" stroke-width="2" d="M637,-97C637,-97 853,-95 853,-95"/>
<path fill="none" stroke="#000000" stroke-width="2" d="M637,-97C637.02,-99 853.02,-97 853,-95"/>
</g>
<!-- W1&#45;&#45;X1 -->
<g id="edge4" class="edge">
<title>W1:e&#45;&#45;X1:w</title>
<path fill="none" stroke="#000000" stroke-width="2" d="M637,-72C636.99,-70 852.99,-69 853,-71"/>
<path fill="none" stroke="#000000" stroke-width="2" d="M637,-72C637,-72 853,-71 853,-71"/>
<path fill="none" stroke="#000000" stroke-width="2" d="M637,-72C637.01,-74 853.01,-73 853,-71"/>
</g>
<!-- W1&#45;&#45;X1 -->
<g id="edge6" class="edge">
<title>W1:e&#45;&#45;X1:w</title>
<path fill="none" stroke="#000000" stroke-width="2" d="M637,-47C637.01,-45 853.01,-46 853,-48"/>
<path fill="none" stroke="#000000" stroke-width="2" d="M637,-47C637,-47 853,-48 853,-48"/>
<path fill="none" stroke="#000000" stroke-width="2" d="M637,-47C636.99,-49 852.99,-50 853,-48"/>
</g>
<!-- W1&#45;&#45;X1 -->
<g id="edge8" class="edge">
<title>W1:e&#45;&#45;X1:w</title>
<path fill="none" stroke="#000000" stroke-width="2" d="M637,-22C637.03,-20 853.03,-23 853,-25"/>
<path fill="none" stroke="#ff0000" stroke-width="2" d="M637,-22C637,-22 853,-25 853,-25"/>
<path fill="none" stroke="#000000" stroke-width="2" d="M637,-22C636.97,-24 852.97,-27 853,-25"/>
</g>
</g>
</svg>
