<?xml version="1.0" encoding="UTF-8" standalone="no"?>
<!DOCTYPE svg PUBLIC "-//W3C//DTD SVG 1.1//EN"
 "http://www.w3.org/Graphics/SVG/1.1/DTD/svg11.dtd">
<!-- Generated by graphviz version 2.43.0 (0)
 -->
<!-- Title: %3 Pages: 1 -->
<svg width="1260pt" height="236pt"
 viewBox="0.00 0.00 1260.00 236.00" xmlns="http://www.w3.org/2000/svg" xmlns:xlink="http://www.w3.org/1999/xlink">
<g id="graph0" class="graph" transform="scale(1 1) rotate(0) translate(4 232)">
<title>%3</title>
<polygon fill="#ffffff" stroke="transparent" points="-4,4 -4,-232 1256,-232 1256,4 -4,4"/>
<!-- X1 -->
<g id="node1" class="node">
<title>X1</title>
<polygon fill="#ffffff" stroke="black" points="231,-195 0,-195 0,-57 231,-57 231,-195"/>
<polygon fill="#ffffff" stroke="transparent" points="0,-57 0,-195 231,-195 231,-57 0,-57"/>
<polygon fill="#ffffff" stroke="transparent" points="0.5,-172 0.5,-195 231.5,-195 231.5,-172 0.5,-172"/>
<polygon fill="none" stroke="black" points="0.5,-172 0.5,-195 231.5,-195 231.5,-172 0.5,-172"/>
<text text-anchor="start" x="96" y="-180.8" font-family="arial" font-size="14.00"> </text>
<text text-anchor="start" x="101" y="-180.8" font-family="arial" font-weight="bold" font-size="14.00"> X1 </text>
<text text-anchor="start" x="131" y="-180.8" font-family="arial" font-size="14.00"> </text>
<polygon fill="none" stroke="black" points="0.5,-149 0.5,-172 112.5,-172 112.5,-149 0.5,-149"/>
<text text-anchor="start" x="4.5" y="-156.8" font-family="arial" font-size="14.00"> Molex KK 254 </text>
<polygon fill="none" stroke="black" points="112.5,-149 112.5,-172 177.5,-172 177.5,-149 112.5,-149"/>
<text text-anchor="start" x="116.5" y="-156.8" font-family="arial" font-size="14.00"> female </text>
<polygon fill="none" stroke="black" points="177.5,-149 177.5,-172 231.5,-172 231.5,-149 177.5,-149"/>
<text text-anchor="start" x="181.5" y="-156.8" font-family="arial" font-size="14.00"> 4&#45;pin </text>
<polygon fill="none" stroke="black" points="0.5,-126 0.5,-149 153.5,-149 153.5,-126 0.5,-126"/>
<text text-anchor="start" x="56.5" y="-133.8" font-family="arial" font-size="14.00"> GND </text>
<polygon fill="none" stroke="black" points="153.5,-126 153.5,-149 231.5,-149 231.5,-126 153.5,-126"/>
<text text-anchor="start" x="183" y="-133.8" font-family="arial" font-size="14.00"> 1 </text>
<polygon fill="none" stroke="black" points="0.5,-103 0.5,-126 153.5,-126 153.5,-103 0.5,-103"/>
<text text-anchor="start" x="57.5" y="-110.8" font-family="arial" font-size="14.00"> VCC </text>
<polygon fill="none" stroke="black" points="153.5,-103 153.5,-126 231.5,-126 231.5,-103 153.5,-103"/>
<text text-anchor="start" x="183" y="-110.8" font-family="arial" font-size="14.00"> 2 </text>
<polygon fill="none" stroke="black" points="0.5,-80 0.5,-103 153.5,-103 153.5,-80 0.5,-80"/>
<text text-anchor="start" x="62.5" y="-87.8" font-family="arial" font-size="14.00"> RX </text>
<polygon fill="none" stroke="black" points="153.5,-80 153.5,-103 231.5,-103 231.5,-80 153.5,-80"/>
<text text-anchor="start" x="183" y="-87.8" font-family="arial" font-size="14.00"> 3 </text>
<polygon fill="none" stroke="black" points="0.5,-57 0.5,-80 153.5,-80 153.5,-57 0.5,-57"/>
<text text-anchor="start" x="63" y="-64.8" font-family="arial" font-size="14.00"> TX </text>
<polygon fill="none" stroke="black" points="153.5,-57 153.5,-80 231.5,-80 231.5,-57 153.5,-57"/>
<text text-anchor="start" x="183" y="-64.8" font-family="arial" font-size="14.00"> 4 </text>
</g>
<!-- W1 -->
<g id="node3" class="node">
<title>W1</title>
<polygon fill="#ffffff" stroke="black" points="805,-228 447,-228 447,0 805,0 805,-228"/>
<polygon fill="#ffffff" stroke="transparent" points="447,0 447,-228 805,-228 805,0 447,0"/>
<polygon fill="#ffffff" stroke="transparent" points="447,-205 447,-228 805,-228 805,-205 447,-205"/>
<polygon fill="none" stroke="black" points="447,-205 447,-228 805,-228 805,-205 447,-205"/>
<text text-anchor="start" x="603.5" y="-213.8" font-family="arial" font-size="14.00"> </text>
<text text-anchor="start" x="608.5" y="-213.8" font-family="arial" font-weight="bold" font-size="14.00"> W1 </text>
<text text-anchor="start" x="643.5" y="-213.8" font-family="arial" font-size="14.00"> </text>
<polygon fill="none" stroke="black" points="447,-182 447,-205 504,-205 504,-182 447,-182"/>
<text text-anchor="start" x="451" y="-189.8" font-family="arial" font-size="14.00"> Serial </text>
<polygon fill="none" stroke="black" points="504,-182 504,-205 539,-205 539,-182 504,-182"/>
<text text-anchor="start" x="508" y="-189.8" font-family="arial" font-size="14.00"> 4x </text>
<polygon fill="none" stroke="black" points="539,-182 539,-205 695,-205 695,-182 539,-182"/>
<text text-anchor="start" x="543" y="-189.8" font-family="arial" font-size="14.00"> 0.25 mm² (24 AWG) </text>
<polygon fill="none" stroke="black" points="695,-182 695,-205 738,-205 738,-182 695,-182"/>
<text text-anchor="start" x="699" y="-189.8" font-family="arial" font-size="14.00"> + S </text>
<polygon fill="none" stroke="black" points="738,-182 738,-205 805,-205 805,-182 738,-182"/>
<text text-anchor="start" x="742" y="-189.8" font-family="arial" font-size="14.00"> 0.20 m </text>
<text text-anchor="start" x="498" y="-168.8" font-family="arial" font-size="14.00"> </text>
<text text-anchor="start" x="449" y="-149.8" font-family="arial" font-size="14.00"> X1:1:GND </text>
<text text-anchor="start" x="568.5" y="-149.8" font-family="arial" font-size="14.00"> </text>
<text text-anchor="start" x="607" y="-149.8" font-family="arial" font-size="14.00"> 1:BN </text>
<text text-anchor="start" x="683.5" y="-149.8" font-family="arial" font-size="14.00"> </text>
<text text-anchor="start" x="730" y="-149.8" font-family="arial" font-size="14.00"> X2:1:GND</text>
<polygon fill="#000000" stroke="transparent" points="447,-142 447,-144 805,-144 805,-142 447,-142"/>
<polygon fill="#895956" stroke="transparent" points="447,-140 447,-142 805,-142 805,-140 447,-140"/>
<polygon fill="#000000" stroke="transparent" points="447,-138 447,-140 805,-140 805,-138 447,-138"/>
<text text-anchor="start" x="449" y="-124.8" font-family="arial" font-size="14.00"> X1:2:VCC </text>
<text text-anchor="start" x="568.5" y="-124.8" font-family="arial" font-size="14.00"> </text>
<text text-anchor="start" x="607" y="-124.8" font-family="arial" font-size="14.00"> 2:RD </text>
<text text-anchor="start" x="683.5" y="-124.8" font-family="arial" font-size="14.00"> </text>
<text text-anchor="start" x="732" y="-124.8" font-family="arial" font-size="14.00"> X2:2:VCC</text>
<polygon fill="#000000" stroke="transparent" points="447,-117 447,-119 805,-119 805,-117 447,-117"/>
<polygon fill="#ff0000" stroke="transparent" points="447,-115 447,-117 805,-117 805,-115 447,-115"/>
<polygon fill="#000000" stroke="transparent" points="447,-113 447,-115 805,-115 805,-113 447,-113"/>
<text text-anchor="start" x="449" y="-99.8" font-family="arial" font-size="14.00"> X1:3:RX </text>
<text text-anchor="start" x="568.5" y="-99.8" font-family="arial" font-size="14.00"> </text>
<text text-anchor="start" x="606" y="-99.8" font-family="arial" font-size="14.00"> 3:OG </text>
<text text-anchor="start" x="683.5" y="-99.8" font-family="arial" font-size="14.00"> </text>
<text text-anchor="start" x="743" y="-99.8" font-family="arial" font-size="14.00"> X2:4:TX</text>
<polygon fill="#000000" stroke="transparent" points="447,-92 447,-94 805,-94 805,-92 447,-92"/>
<polygon fill="#ff8000" stroke="transparent" points="447,-90 447,-92 805,-92 805,-90 447,-90"/>
<polygon fill="#000000" stroke="transparent" points="447,-88 447,-90 805,-90 805,-88 447,-88"/>
<text text-anchor="start" x="449" y="-74.8" font-family="arial" font-size="14.00"> X1:4:TX </text>
<text text-anchor="start" x="568.5" y="-74.8" font-family="arial" font-size="14.00"> </text>
<text text-anchor="start" x="608.5" y="-74.8" font-family="arial" font-size="14.00"> 4:YE </text>
<text text-anchor="start" x="683.5" y="-74.8" font-family="arial" font-size="14.00"> </text>
<text text-anchor="start" x="742" y="-74.8" font-family="arial" font-size="14.00"> X2:3:RX</text>
<polygon fill="#000000" stroke="transparent" points="447,-67 447,-69 805,-69 805,-67 447,-67"/>
<polygon fill="#ffff00" stroke="transparent" points="447,-65 447,-67 805,-67 805,-65 447,-65"/>
<polygon fill="#000000" stroke="transparent" points="447,-63 447,-65 805,-65 805,-63 447,-63"/>
<text text-anchor="start" x="498" y="-49.8" font-family="arial" font-size="14.00"> </text>
<text text-anchor="start" x="449" y="-30.8" font-family="arial" font-size="14.00"> X1:1:GND </text>
<text text-anchor="start" x="568.5" y="-30.8" font-family="arial" font-size="14.00"> </text>
<text text-anchor="start" x="602.5" y="-30.8" font-family="arial" font-size="14.00"> Shield </text>
<text text-anchor="start" x="683.5" y="-30.8" font-family="arial" font-size="14.00"> </text>
<text text-anchor="start" x="798" y="-30.8" font-family="arial" font-size="14.00"> </text>
<polygon fill="#000000" stroke="transparent" points="447,-23 447,-25 805,-25 805,-23 447,-23"/>
<polygon fill="#ffffff" stroke="transparent" points="447,-21 447,-23 805,-23 805,-21 447,-21"/>
<polygon fill="#000000" stroke="transparent" points="447,-19 447,-21 805,-21 805,-19 447,-19"/>
<text text-anchor="start" x="498" y="-5.8" font-family="arial" font-size="14.00"> </text>
</g>
<!-- X1&#45;&#45;W1 -->
<g id="edge1" class="edge">
<title>X1:e&#45;&#45;W1:w</title>
<path fill="none" stroke="#000000" stroke-width="2" d="M231,-138C231.03,-136 447.03,-139 447,-141"/>
<path fill="none" stroke="#895956" stroke-width="2" d="M231,-138C231,-138 447,-141 447,-141"/>
<path fill="none" stroke="#000000" stroke-width="2" d="M231,-138C230.97,-140 446.97,-143 447,-141"/>
</g>
<!-- X1&#45;&#45;W1 -->
<g id="edge3" class="edge">
<title>X1:e&#45;&#45;W1:w</title>
<path fill="none" stroke="#000000" stroke-width="2" d="M231,-114C231.02,-112 447.02,-114 447,-116"/>
<path fill="none" stroke="#ff0000" stroke-width="2" d="M231,-114C231,-114 447,-116 447,-116"/>
<path fill="none" stroke="#000000" stroke-width="2" d="M231,-114C230.98,-116 446.98,-118 447,-116"/>
</g>
<!-- X1&#45;&#45;W1 -->
<g id="edge5" class="edge">
<title>X1:e&#45;&#45;W1:w</title>
<path fill="none" stroke="#000000" stroke-width="2" d="M231,-91C231,-89 447,-89 447,-91"/>
<path fill="none" stroke="#ff8000" stroke-width="2" d="M231,-91C231,-91 447,-91 447,-91"/>
<path fill="none" stroke="#000000" stroke-width="2" d="M231,-91C231,-93 447,-93 447,-91"/>
</g>
<!-- X1&#45;&#45;W1 -->
<g id="edge7" class="edge">
<title>X1:e&#45;&#45;W1:w</title>
<path fill="none" stroke="#000000" stroke-width="2" d="M231,-68C230.98,-66 446.98,-64 447,-66"/>
<path fill="none" stroke="#ffff00" stroke-width="2" d="M231,-68C231,-68 447,-66 447,-66"/>
<path fill="none" stroke="#000000" stroke-width="2" d="M231,-68C231.02,-70 447.02,-68 447,-66"/>
</g>
<!-- X1&#45;&#45;W1 -->
<g id="edge9" class="edge">
<title>X1:e&#45;&#45;W1:w</title>
<path fill="none" stroke="#000000" stroke-width="2" d="M231,-138C231,-138 447,-22 447,-22"/>
</g>
<!-- X2 -->
<g id="node2" class="node">
<title>X2</title>
<polygon fill="#ffffff" stroke="black" points="1252,-197 1021,-197 1021,-59 1252,-59 1252,-197"/>
<polygon fill="#ffffff" stroke="transparent" points="1021,-59 1021,-197 1252,-197 1252,-59 1021,-59"/>
<polygon fill="#ffffff" stroke="transparent" points="1021.5,-174 1021.5,-197 1252.5,-197 1252.5,-174 1021.5,-174"/>
<polygon fill="none" stroke="black" points="1021.5,-174 1021.5,-197 1252.5,-197 1252.5,-174 1021.5,-174"/>
<text text-anchor="start" x="1117" y="-182.8" font-family="arial" font-size="14.00"> </text>
<text text-anchor="start" x="1122" y="-182.8" font-family="arial" font-weight="bold" font-size="14.00"> X2 </text>
<text text-anchor="start" x="1152" y="-182.8" font-family="arial" font-size="14.00"> </text>
<polygon fill="none" stroke="black" points="1021.5,-151 1021.5,-174 1133.5,-174 1133.5,-151 1021.5,-151"/>
<text text-anchor="start" x="1025.5" y="-158.8" font-family="arial" font-size="14.00"> Molex KK 254 </text>
<polygon fill="none" stroke="black" points="1133.5,-151 1133.5,-174 1198.5,-174 1198.5,-151 1133.5,-151"/>
<text text-anchor="start" x="1137.5" y="-158.8" font-family="arial" font-size="14.00"> female </text>
<polygon fill="none" stroke="black" points="1198.5,-151 1198.5,-174 1252.5,-174 1252.5,-151 1198.5,-151"/>
<text text-anchor="start" x="1202.5" y="-158.8" font-family="arial" font-size="14.00"> 4&#45;pin </text>
<polygon fill="none" stroke="black" points="1021.5,-128 1021.5,-151 1100.5,-151 1100.5,-128 1021.5,-128"/>
<text text-anchor="start" x="1051.5" y="-135.8" font-family="arial" font-size="14.00"> 1 </text>
<polygon fill="none" stroke="black" points="1100.5,-128 1100.5,-151 1252.5,-151 1252.5,-128 1100.5,-128"/>
<text text-anchor="start" x="1156" y="-135.8" font-family="arial" font-size="14.00"> GND </text>
<polygon fill="none" stroke="black" points="1021.5,-105 1021.5,-128 1100.5,-128 1100.5,-105 1021.5,-105"/>
<text text-anchor="start" x="1051.5" y="-112.8" font-family="arial" font-size="14.00"> 2 </text>
<polygon fill="none" stroke="black" points="1100.5,-105 1100.5,-128 1252.5,-128 1252.5,-105 1100.5,-105"/>
<text text-anchor="start" x="1157" y="-112.8" font-family="arial" font-size="14.00"> VCC </text>
<polygon fill="none" stroke="black" points="1021.5,-82 1021.5,-105 1100.5,-105 1100.5,-82 1021.5,-82"/>
<text text-anchor="start" x="1051.5" y="-89.8" font-family="arial" font-size="14.00"> 3 </text>
<polygon fill="none" stroke="black" points="1100.5,-82 1100.5,-105 1252.5,-105 1252.5,-82 1100.5,-82"/>
<text text-anchor="start" x="1162" y="-89.8" font-family="arial" font-size="14.00"> RX </text>
<polygon fill="none" stroke="black" points="1021.5,-59 1021.5,-82 1100.5,-82 1100.5,-59 1021.5,-59"/>
<text text-anchor="start" x="1051.5" y="-66.8" font-family="arial" font-size="14.00"> 4 </text>
<polygon fill="none" stroke="black" points="1100.5,-59 1100.5,-82 1252.5,-82 1252.5,-59 1100.5,-59"/>
<text text-anchor="start" x="1162.5" y="-66.8" font-family="arial" font-size="14.00"> TX </text>
</g>
<!-- W1&#45;&#45;X2 -->
<g id="edge2" class="edge">
<title>W1:e&#45;&#45;X2:w</title>
<path fill="none" stroke="#000000" stroke-width="2" d="M805,-141C804.99,-139 1020.99,-138 1021,-140"/>
<path fill="none" stroke="#895956" stroke-width="2" d="M805,-141C805,-141 1021,-140 1021,-140"/>
<path fill="none" stroke="#000000" stroke-width="2" d="M805,-141C805.01,-143 1021.01,-142 1021,-140"/>
</g>
<!-- W1&#45;&#45;X2 -->
<g id="edge4" class="edge">
<title>W1:e&#45;&#45;X2:w</title>
<path fill="none" stroke="#000000" stroke-width="2" d="M805,-116C805,-114 1021,-114 1021,-116"/>
<path fill="none" stroke="#ff0000" stroke-width="2" d="M805,-116C805,-116 1021,-116 1021,-116"/>
<path fill="none" stroke="#000000" stroke-width="2" d="M805,-116C805,-118 1021,-118 1021,-116"/>
</g>
<!-- W1&#45;&#45;X2 -->
<g id="edge6" class="edge">
<title>W1:e&#45;&#45;X2:w</title>
<path fill="none" stroke="#000000" stroke-width="2" d="M805,-91C804.81,-89.01 1020.81,-68.01 1021,-70"/>
<path fill="none" stroke="#ff8000" stroke-width="2" d="M805,-91C805,-91 1021,-70 1021,-70"/>
<path fill="none" stroke="#000000" stroke-width="2" d="M805,-91C805.19,-92.99 1021.19,-71.99 1021,-70"/>
</g>
<!-- W1&#45;&#45;X2 -->
<g id="edge8" class="edge">
<title>W1:e&#45;&#45;X2:w</title>
<path fill="none" stroke="#000000" stroke-width="2" d="M805,-66C805.25,-64.02 1021.25,-91.02 1021,-93"/>
<path fill="none" stroke="#ffff00" stroke-width="2" d="M805,-66C805,-66 1021,-93 1021,-93"/>
<path fill="none" stroke="#000000" stroke-width="2" d="M805,-66C804.75,-67.98 1020.75,-94.98 1021,-93"/>
</g>
</g>
</svg>
