<?xml version="1.0" encoding="UTF-8" standalone="no"?>
<!DOCTYPE svg PUBLIC "-//W3C//DTD SVG 1.1//EN"
 "http://www.w3.org/Graphics/SVG/1.1/DTD/svg11.dtd">
<!-- Generated by graphviz version 2.43.0 (0)
 -->
<!-- Title: %3 Pages: 1 -->
<svg width="1207pt" height="458pt"
 viewBox="0.00 0.00 1207.00 458.00" xmlns="http://www.w3.org/2000/svg" xmlns:xlink="http://www.w3.org/1999/xlink">
<g id="graph0" class="graph" transform="scale(1 1) rotate(0) translate(4 454)">
<title>%3</title>
<polygon fill="#ffffff" stroke="transparent" points="-4,4 -4,-454 1203,-454 1203,4 -4,4"/>
<!-- X1 -->
<g id="node1" class="node">
<title>X1</title>
<polygon fill="#ffffff" stroke="black" points="226,-262 0,-262 0,-170 226,-170 226,-262"/>
<polygon fill="#ffffff" stroke="transparent" points="0,-170 0,-262 226,-262 226,-170 0,-170"/>
<polygon fill="#ffffff" stroke="transparent" points="0,-239 0,-262 226,-262 226,-239 0,-239"/>
<polygon fill="none" stroke="black" points="0,-239 0,-262 226,-262 226,-239 0,-239"/>
<text text-anchor="start" x="93" y="-247.8" font-family="arial" font-size="14.00"> </text>
<text text-anchor="start" x="98" y="-247.8" font-family="arial" font-weight="bold" font-size="14.00"> X1 </text>
<text text-anchor="start" x="128" y="-247.8" font-family="arial" font-size="14.00"> </text>
<polygon fill="none" stroke="black" points="0,-216 0,-239 121,-239 121,-216 0,-216"/>
<text text-anchor="start" x="4" y="-223.8" font-family="arial" font-size="14.00"> Molex Micro&#45;Fit </text>
<polygon fill="none" stroke="black" points="121,-216 121,-239 172,-239 172,-216 121,-216"/>
<text text-anchor="start" x="125" y="-223.8" font-family="arial" font-size="14.00"> male </text>
<polygon fill="none" stroke="black" points="172,-216 172,-239 226,-239 226,-216 172,-216"/>
<text text-anchor="start" x="176" y="-223.8" font-family="arial" font-size="14.00"> 2&#45;pin </text>
<polygon fill="none" stroke="black" points="0,-193 0,-216 149,-216 149,-193 0,-193"/>
<text text-anchor="start" x="54" y="-200.8" font-family="arial" font-size="14.00"> GND </text>
<polygon fill="none" stroke="black" points="149,-193 149,-216 226,-216 226,-193 149,-193"/>
<text text-anchor="start" x="178" y="-200.8" font-family="arial" font-size="14.00"> 1 </text>
<polygon fill="none" stroke="black" points="0,-170 0,-193 149,-193 149,-170 0,-170"/>
<text text-anchor="start" x="55" y="-177.8" font-family="arial" font-size="14.00"> VCC </text>
<polygon fill="none" stroke="black" points="149,-170 149,-193 226,-193 226,-170 149,-170"/>
<text text-anchor="start" x="178" y="-177.8" font-family="arial" font-size="14.00"> 2 </text>
</g>
<!-- W1 -->
<g id="node5" class="node">
<title>W1</title>
<polygon fill="#ffffff" stroke="black" points="721.5,-450 463.5,-450 463.5,-316 721.5,-316 721.5,-450"/>
<polygon fill="#ffffff" stroke="transparent" points="463.5,-316 463.5,-450 721.5,-450 721.5,-316 463.5,-316"/>
<polygon fill="#ffffff" stroke="transparent" points="463.5,-427 463.5,-450 721.5,-450 721.5,-427 463.5,-427"/>
<polygon fill="none" stroke="black" points="463.5,-427 463.5,-450 721.5,-450 721.5,-427 463.5,-427"/>
<text text-anchor="start" x="570" y="-435.8" font-family="arial" font-size="14.00"> </text>
<text text-anchor="start" x="575" y="-435.8" font-family="arial" font-weight="bold" font-size="14.00"> W1 </text>
<text text-anchor="start" x="610" y="-435.8" font-family="arial" font-size="14.00"> </text>
<polygon fill="none" stroke="black" points="463.5,-404 463.5,-427 498.5,-427 498.5,-404 463.5,-404"/>
<text text-anchor="start" x="467.5" y="-411.8" font-family="arial" font-size="14.00"> 2x </text>
<polygon fill="none" stroke="black" points="498.5,-404 498.5,-427 654.5,-427 654.5,-404 498.5,-404"/>
<text text-anchor="start" x="502.5" y="-411.8" font-family="arial" font-size="14.00"> 0.25 mm² (24 AWG) </text>
<polygon fill="none" stroke="black" points="654.5,-404 654.5,-427 721.5,-427 721.5,-404 654.5,-404"/>
<text text-anchor="start" x="658.5" y="-411.8" font-family="arial" font-size="14.00"> 0.20 m </text>
<text text-anchor="start" x="505.5" y="-390.8" font-family="arial" font-size="14.00"> </text>
<text text-anchor="start" x="465.5" y="-371.8" font-family="arial" font-size="14.00"> X1:1:GND </text>
<text text-anchor="start" x="558" y="-371.8" font-family="arial" font-size="14.00"> </text>
<text text-anchor="start" x="574.5" y="-371.8" font-family="arial" font-size="14.00"> 1:BK </text>
<text text-anchor="start" x="628" y="-371.8" font-family="arial" font-size="14.00"> </text>
<text text-anchor="start" x="646.5" y="-371.8" font-family="arial" font-size="14.00"> X2:1:GND</text>
<polygon fill="#000000" stroke="transparent" points="463.5,-364 463.5,-366 721.5,-366 721.5,-364 463.5,-364"/>
<polygon fill="#000000" stroke="transparent" points="463.5,-362 463.5,-364 721.5,-364 721.5,-362 463.5,-362"/>
<polygon fill="#000000" stroke="transparent" points="463.5,-360 463.5,-362 721.5,-362 721.5,-360 463.5,-360"/>
<text text-anchor="start" x="465.5" y="-346.8" font-family="arial" font-size="14.00"> X1:2:VCC </text>
<text text-anchor="start" x="558" y="-346.8" font-family="arial" font-size="14.00"> </text>
<text text-anchor="start" x="574" y="-346.8" font-family="arial" font-size="14.00"> 2:RD </text>
<text text-anchor="start" x="628" y="-346.8" font-family="arial" font-size="14.00"> </text>
<text text-anchor="start" x="648.5" y="-346.8" font-family="arial" font-size="14.00"> X2:2:VCC</text>
<polygon fill="#000000" stroke="transparent" points="463.5,-339 463.5,-341 721.5,-341 721.5,-339 463.5,-339"/>
<polygon fill="#ff0000" stroke="transparent" points="463.5,-337 463.5,-339 721.5,-339 721.5,-337 463.5,-337"/>
<polygon fill="#000000" stroke="transparent" points="463.5,-335 463.5,-337 721.5,-337 721.5,-335 463.5,-335"/>
<text text-anchor="start" x="505.5" y="-321.8" font-family="arial" font-size="14.00"> </text>
</g>
<!-- X1&#45;&#45;W1 -->
<g id="edge1" class="edge">
<title>X1:e&#45;&#45;W1:w</title>
<path fill="none" stroke="#000000" stroke-width="2" d="M226,-204C227.12,-202.34 463.62,-361.34 462.5,-363"/>
<path fill="none" stroke="#000000" stroke-width="2" d="M226,-204C226,-204 462.5,-363 462.5,-363"/>
<path fill="none" stroke="#000000" stroke-width="2" d="M226,-204C224.88,-205.66 461.38,-364.66 462.5,-363"/>
</g>
<!-- X1&#45;&#45;W1 -->
<g id="edge3" class="edge">
<title>X1:e&#45;&#45;W1:w</title>
<path fill="none" stroke="#000000" stroke-width="2" d="M226,-181C227.11,-179.33 463.61,-336.33 462.5,-338"/>
<path fill="none" stroke="#ff0000" stroke-width="2" d="M226,-181C226,-181 462.5,-338 462.5,-338"/>
<path fill="none" stroke="#000000" stroke-width="2" d="M226,-181C224.89,-182.67 461.39,-339.67 462.5,-338"/>
</g>
<!-- W2 -->
<g id="node6" class="node">
<title>W2</title>
<polygon fill="#ffffff" stroke="black" points="721.5,-292 463.5,-292 463.5,-158 721.5,-158 721.5,-292"/>
<polygon fill="#ffffff" stroke="transparent" points="463.5,-158 463.5,-292 721.5,-292 721.5,-158 463.5,-158"/>
<polygon fill="#ffffff" stroke="transparent" points="463.5,-269 463.5,-292 721.5,-292 721.5,-269 463.5,-269"/>
<polygon fill="none" stroke="black" points="463.5,-269 463.5,-292 721.5,-292 721.5,-269 463.5,-269"/>
<text text-anchor="start" x="570" y="-277.8" font-family="arial" font-size="14.00"> </text>
<text text-anchor="start" x="575" y="-277.8" font-family="arial" font-weight="bold" font-size="14.00"> W2 </text>
<text text-anchor="start" x="610" y="-277.8" font-family="arial" font-size="14.00"> </text>
<polygon fill="none" stroke="black" points="463.5,-246 463.5,-269 498.5,-269 498.5,-246 463.5,-246"/>
<text text-anchor="start" x="467.5" y="-253.8" font-family="arial" font-size="14.00"> 2x </text>
<polygon fill="none" stroke="black" points="498.5,-246 498.5,-269 654.5,-269 654.5,-246 498.5,-246"/>
<text text-anchor="start" x="502.5" y="-253.8" font-family="arial" font-size="14.00"> 0.25 mm² (24 AWG) </text>
<polygon fill="none" stroke="black" points="654.5,-246 654.5,-269 721.5,-269 721.5,-246 654.5,-246"/>
<text text-anchor="start" x="658.5" y="-253.8" font-family="arial" font-size="14.00"> 0.20 m </text>
<text text-anchor="start" x="505.5" y="-232.8" font-family="arial" font-size="14.00"> </text>
<text text-anchor="start" x="465.5" y="-213.8" font-family="arial" font-size="14.00"> X1:1:GND </text>
<text text-anchor="start" x="558" y="-213.8" font-family="arial" font-size="14.00"> </text>
<text text-anchor="start" x="574.5" y="-213.8" font-family="arial" font-size="14.00"> 1:BK </text>
<text text-anchor="start" x="628" y="-213.8" font-family="arial" font-size="14.00"> </text>
<text text-anchor="start" x="646.5" y="-213.8" font-family="arial" font-size="14.00"> X3:1:GND</text>
<polygon fill="#000000" stroke="transparent" points="463.5,-206 463.5,-208 721.5,-208 721.5,-206 463.5,-206"/>
<polygon fill="#000000" stroke="transparent" points="463.5,-204 463.5,-206 721.5,-206 721.5,-204 463.5,-204"/>
<polygon fill="#000000" stroke="transparent" points="463.5,-202 463.5,-204 721.5,-204 721.5,-202 463.5,-202"/>
<text text-anchor="start" x="465.5" y="-188.8" font-family="arial" font-size="14.00"> X1:2:VCC </text>
<text text-anchor="start" x="558" y="-188.8" font-family="arial" font-size="14.00"> </text>
<text text-anchor="start" x="574" y="-188.8" font-family="arial" font-size="14.00"> 2:RD </text>
<text text-anchor="start" x="628" y="-188.8" font-family="arial" font-size="14.00"> </text>
<text text-anchor="start" x="648.5" y="-188.8" font-family="arial" font-size="14.00"> X3:2:VCC</text>
<polygon fill="#000000" stroke="transparent" points="463.5,-181 463.5,-183 721.5,-183 721.5,-181 463.5,-181"/>
<polygon fill="#ff0000" stroke="transparent" points="463.5,-179 463.5,-181 721.5,-181 721.5,-179 463.5,-179"/>
<polygon fill="#000000" stroke="transparent" points="463.5,-177 463.5,-179 721.5,-179 721.5,-177 463.5,-177"/>
<text text-anchor="start" x="505.5" y="-163.8" font-family="arial" font-size="14.00"> </text>
</g>
<!-- X1&#45;&#45;W2 -->
<g id="edge5" class="edge">
<title>X1:e&#45;&#45;W2:w</title>
<path fill="none" stroke="#000000" stroke-width="2" d="M226,-204C226.01,-202 462.51,-203 462.5,-205"/>
<path fill="none" stroke="#000000" stroke-width="2" d="M226,-204C226,-204 462.5,-205 462.5,-205"/>
<path fill="none" stroke="#000000" stroke-width="2" d="M226,-204C225.99,-206 462.49,-207 462.5,-205"/>
</g>
<!-- X1&#45;&#45;W2 -->
<g id="edge7" class="edge">
<title>X1:e&#45;&#45;W2:w</title>
<path fill="none" stroke="#000000" stroke-width="2" d="M226,-181C225.99,-179 462.49,-178 462.5,-180"/>
<path fill="none" stroke="#ff0000" stroke-width="2" d="M226,-181C226,-181 462.5,-180 462.5,-180"/>
<path fill="none" stroke="#000000" stroke-width="2" d="M226,-181C226.01,-183 462.51,-182 462.5,-180"/>
</g>
<!-- W3 -->
<g id="node7" class="node">
<title>W3</title>
<polygon fill="#ffffff" stroke="black" points="743,-134 442,-134 442,0 743,0 743,-134"/>
<polygon fill="#ffffff" stroke="transparent" points="442,0 442,-134 743,-134 743,0 442,0"/>
<polygon fill="#ffffff" stroke="transparent" points="442.5,-111 442.5,-134 743.5,-134 743.5,-111 442.5,-111"/>
<polygon fill="none" stroke="black" points="442.5,-111 442.5,-134 743.5,-134 743.5,-111 442.5,-111"/>
<text text-anchor="start" x="570.5" y="-119.8" font-family="arial" font-size="14.00"> </text>
<text text-anchor="start" x="575.5" y="-119.8" font-family="arial" font-weight="bold" font-size="14.00"> W3 </text>
<text text-anchor="start" x="610.5" y="-119.8" font-family="arial" font-size="14.00"> </text>
<polygon fill="none" stroke="black" points="442.5,-88 442.5,-111 477.5,-111 477.5,-88 442.5,-88"/>
<text text-anchor="start" x="446.5" y="-95.8" font-family="arial" font-size="14.00"> 2x </text>
<polygon fill="none" stroke="black" points="477.5,-88 477.5,-111 676.5,-111 676.5,-88 477.5,-88"/>
<text text-anchor="start" x="481.5" y="-95.8" font-family="arial" font-size="14.00"> 20.0 awg (Unknown mm²) </text>
<polygon fill="none" stroke="black" points="676.5,-88 676.5,-111 743.5,-111 743.5,-88 676.5,-88"/>
<text text-anchor="start" x="680.5" y="-95.8" font-family="arial" font-size="14.00"> 0.20 m </text>
<text text-anchor="start" x="489" y="-74.8" font-family="arial" font-size="14.00"> </text>
<text text-anchor="start" x="444.5" y="-55.8" font-family="arial" font-size="14.00"> X1:1:GND </text>
<text text-anchor="start" x="550.5" y="-55.8" font-family="arial" font-size="14.00"> </text>
<text text-anchor="start" x="575.5" y="-55.8" font-family="arial" font-size="14.00"> 1:BK </text>
<text text-anchor="start" x="637" y="-55.8" font-family="arial" font-size="14.00"> </text>
<text text-anchor="start" x="668.5" y="-55.8" font-family="arial" font-size="14.00"> X4:1:GND</text>
<polygon fill="#000000" stroke="transparent" points="442.5,-48 442.5,-50 743.5,-50 743.5,-48 442.5,-48"/>
<polygon fill="#000000" stroke="transparent" points="442.5,-46 442.5,-48 743.5,-48 743.5,-46 442.5,-46"/>
<polygon fill="#000000" stroke="transparent" points="442.5,-44 442.5,-46 743.5,-46 743.5,-44 442.5,-44"/>
<text text-anchor="start" x="444.5" y="-30.8" font-family="arial" font-size="14.00"> X1:2:VCC </text>
<text text-anchor="start" x="550.5" y="-30.8" font-family="arial" font-size="14.00"> </text>
<text text-anchor="start" x="575" y="-30.8" font-family="arial" font-size="14.00"> 2:RD </text>
<text text-anchor="start" x="637" y="-30.8" font-family="arial" font-size="14.00"> </text>
<text text-anchor="start" x="670.5" y="-30.8" font-family="arial" font-size="14.00"> X4:2:VCC</text>
<polygon fill="#000000" stroke="transparent" points="442.5,-23 442.5,-25 743.5,-25 743.5,-23 442.5,-23"/>
<polygon fill="#ff0000" stroke="transparent" points="442.5,-21 442.5,-23 743.5,-23 743.5,-21 442.5,-21"/>
<polygon fill="#000000" stroke="transparent" points="442.5,-19 442.5,-21 743.5,-21 743.5,-19 442.5,-19"/>
<text text-anchor="start" x="489" y="-5.8" font-family="arial" font-size="14.00"> </text>
</g>
<!-- X1&#45;&#45;W3 -->
<g id="edge9" class="edge">
<title>X1:e&#45;&#45;W3:w</title>
<path fill="none" stroke="#000000" stroke-width="2" d="M226,-204C224.82,-202.38 440.82,-45.38 442,-47"/>
<path fill="none" stroke="#000000" stroke-width="2" d="M226,-204C226,-204 442,-47 442,-47"/>
<path fill="none" stroke="#000000" stroke-width="2" d="M226,-204C227.18,-205.62 443.18,-48.62 442,-47"/>
</g>
<!-- X1&#45;&#45;W3 -->
<g id="edge11" class="edge">
<title>X1:e&#45;&#45;W3:w</title>
<path fill="none" stroke="#000000" stroke-width="2" d="M226,-181C224.81,-179.39 440.81,-20.39 442,-22"/>
<path fill="none" stroke="#ff0000" stroke-width="2" d="M226,-181C226,-181 442,-22 442,-22"/>
<path fill="none" stroke="#000000" stroke-width="2" d="M226,-181C227.19,-182.61 443.19,-23.61 442,-22"/>
</g>
<!-- X2 -->
<g id="node2" class="node">
<title>X2</title>
<polygon fill="#ffffff" stroke="black" points="1199,-420 959,-420 959,-328 1199,-328 1199,-420"/>
<polygon fill="#ffffff" stroke="transparent" points="959,-328 959,-420 1199,-420 1199,-328 959,-328"/>
<polygon fill="#ffffff" stroke="transparent" points="959,-397 959,-420 1199,-420 1199,-397 959,-397"/>
<polygon fill="none" stroke="black" points="959,-397 959,-420 1199,-420 1199,-397 959,-397"/>
<text text-anchor="start" x="1059" y="-405.8" font-family="arial" font-size="14.00"> </text>
<text text-anchor="start" x="1064" y="-405.8" font-family="arial" font-weight="bold" font-size="14.00"> X2 </text>
<text text-anchor="start" x="1094" y="-405.8" font-family="arial" font-size="14.00"> </text>
<polygon fill="none" stroke="black" points="959,-374 959,-397 1080,-397 1080,-374 959,-374"/>
<text text-anchor="start" x="963" y="-381.8" font-family="arial" font-size="14.00"> Molex Micro&#45;Fit </text>
<polygon fill="none" stroke="black" points="1080,-374 1080,-397 1145,-397 1145,-374 1080,-374"/>
<text text-anchor="start" x="1084" y="-381.8" font-family="arial" font-size="14.00"> female </text>
<polygon fill="none" stroke="black" points="1145,-374 1145,-397 1199,-397 1199,-374 1145,-374"/>
<text text-anchor="start" x="1149" y="-381.8" font-family="arial" font-size="14.00"> 2&#45;pin </text>
<polygon fill="none" stroke="black" points="959,-351 959,-374 1041,-374 1041,-351 959,-351"/>
<text text-anchor="start" x="990.5" y="-358.8" font-family="arial" font-size="14.00"> 1 </text>
<polygon fill="none" stroke="black" points="1041,-351 1041,-374 1199,-374 1199,-351 1041,-351"/>
<text text-anchor="start" x="1099.5" y="-358.8" font-family="arial" font-size="14.00"> GND </text>
<polygon fill="none" stroke="black" points="959,-328 959,-351 1041,-351 1041,-328 959,-328"/>
<text text-anchor="start" x="990.5" y="-335.8" font-family="arial" font-size="14.00"> 2 </text>
<polygon fill="none" stroke="black" points="1041,-328 1041,-351 1199,-351 1199,-328 1041,-328"/>
<text text-anchor="start" x="1100.5" y="-335.8" font-family="arial" font-size="14.00"> VCC </text>
</g>
<!-- X3 -->
<g id="node3" class="node">
<title>X3</title>
<polygon fill="#ffffff" stroke="black" points="1199,-262 959,-262 959,-170 1199,-170 1199,-262"/>
<polygon fill="#ffffff" stroke="transparent" points="959,-170 959,-262 1199,-262 1199,-170 959,-170"/>
<polygon fill="#ffffff" stroke="transparent" points="959,-239 959,-262 1199,-262 1199,-239 959,-239"/>
<polygon fill="none" stroke="black" points="959,-239 959,-262 1199,-262 1199,-239 959,-239"/>
<text text-anchor="start" x="1059" y="-247.8" font-family="arial" font-size="14.00"> </text>
<text text-anchor="start" x="1064" y="-247.8" font-family="arial" font-weight="bold" font-size="14.00"> X3 </text>
<text text-anchor="start" x="1094" y="-247.8" font-family="arial" font-size="14.00"> </text>
<polygon fill="none" stroke="black" points="959,-216 959,-239 1080,-239 1080,-216 959,-216"/>
<text text-anchor="start" x="963" y="-223.8" font-family="arial" font-size="14.00"> Molex Micro&#45;Fit </text>
<polygon fill="none" stroke="black" points="1080,-216 1080,-239 1145,-239 1145,-216 1080,-216"/>
<text text-anchor="start" x="1084" y="-223.8" font-family="arial" font-size="14.00"> female </text>
<polygon fill="none" stroke="black" points="1145,-216 1145,-239 1199,-239 1199,-216 1145,-216"/>
<text text-anchor="start" x="1149" y="-223.8" font-family="arial" font-size="14.00"> 2&#45;pin </text>
<polygon fill="none" stroke="black" points="959,-193 959,-216 1041,-216 1041,-193 959,-193"/>
<text text-anchor="start" x="990.5" y="-200.8" font-family="arial" font-size="14.00"> 1 </text>
<polygon fill="none" stroke="black" points="1041,-193 1041,-216 1199,-216 1199,-193 1041,-193"/>
<text text-anchor="start" x="1099.5" y="-200.8" font-family="arial" font-size="14.00"> GND </text>
<polygon fill="none" stroke="black" points="959,-170 959,-193 1041,-193 1041,-170 959,-170"/>
<text text-anchor="start" x="990.5" y="-177.8" font-family="arial" font-size="14.00"> 2 </text>
<polygon fill="none" stroke="black" points="1041,-170 1041,-193 1199,-193 1199,-170 1041,-170"/>
<text text-anchor="start" x="1100.5" y="-177.8" font-family="arial" font-size="14.00"> VCC </text>
</g>
<!-- X4 -->
<g id="node4" class="node">
<title>X4</title>
<polygon fill="#ffffff" stroke="black" points="1199,-104 959,-104 959,-12 1199,-12 1199,-104"/>
<polygon fill="#ffffff" stroke="transparent" points="959,-12 959,-104 1199,-104 1199,-12 959,-12"/>
<polygon fill="#ffffff" stroke="transparent" points="959,-81 959,-104 1199,-104 1199,-81 959,-81"/>
<polygon fill="none" stroke="black" points="959,-81 959,-104 1199,-104 1199,-81 959,-81"/>
<text text-anchor="start" x="1059" y="-89.8" font-family="arial" font-size="14.00"> </text>
<text text-anchor="start" x="1064" y="-89.8" font-family="arial" font-weight="bold" font-size="14.00"> X4 </text>
<text text-anchor="start" x="1094" y="-89.8" font-family="arial" font-size="14.00"> </text>
<polygon fill="none" stroke="black" points="959,-58 959,-81 1080,-81 1080,-58 959,-58"/>
<text text-anchor="start" x="963" y="-65.8" font-family="arial" font-size="14.00"> Molex Micro&#45;Fit </text>
<polygon fill="none" stroke="black" points="1080,-58 1080,-81 1145,-81 1145,-58 1080,-58"/>
<text text-anchor="start" x="1084" y="-65.8" font-family="arial" font-size="14.00"> female </text>
<polygon fill="none" stroke="black" points="1145,-58 1145,-81 1199,-81 1199,-58 1145,-58"/>
<text text-anchor="start" x="1149" y="-65.8" font-family="arial" font-size="14.00"> 2&#45;pin </text>
<polygon fill="none" stroke="black" points="959,-35 959,-58 1041,-58 1041,-35 959,-35"/>
<text text-anchor="start" x="990.5" y="-42.8" font-family="arial" font-size="14.00"> 1 </text>
<polygon fill="none" stroke="black" points="1041,-35 1041,-58 1199,-58 1199,-35 1041,-35"/>
<text text-anchor="start" x="1099.5" y="-42.8" font-family="arial" font-size="14.00"> GND </text>
<polygon fill="none" stroke="black" points="959,-12 959,-35 1041,-35 1041,-12 959,-12"/>
<text text-anchor="start" x="990.5" y="-19.8" font-family="arial" font-size="14.00"> 2 </text>
<polygon fill="none" stroke="black" points="1041,-12 1041,-35 1199,-35 1199,-12 1041,-12"/>
<text text-anchor="start" x="1100.5" y="-19.8" font-family="arial" font-size="14.00"> VCC </text>
</g>
<!-- W1&#45;&#45;X2 -->
<g id="edge2" class="edge">
<title>W1:e&#45;&#45;X2:w</title>
<path fill="none" stroke="#000000" stroke-width="2" d="M722.5,-363C722.49,-361 958.99,-360 959,-362"/>
<path fill="none" stroke="#000000" stroke-width="2" d="M722.5,-363C722.5,-363 959,-362 959,-362"/>
<path fill="none" stroke="#000000" stroke-width="2" d="M722.5,-363C722.51,-365 959.01,-364 959,-362"/>
</g>
<!-- W1&#45;&#45;X2 -->
<g id="edge4" class="edge">
<title>W1:e&#45;&#45;X2:w</title>
<path fill="none" stroke="#000000" stroke-width="2" d="M722.5,-338C722.51,-336 959.01,-337 959,-339"/>
<path fill="none" stroke="#ff0000" stroke-width="2" d="M722.5,-338C722.5,-338 959,-339 959,-339"/>
<path fill="none" stroke="#000000" stroke-width="2" d="M722.5,-338C722.49,-340 958.99,-341 959,-339"/>
</g>
<!-- W2&#45;&#45;X3 -->
<g id="edge6" class="edge">
<title>W2:e&#45;&#45;X3:w</title>
<path fill="none" stroke="#000000" stroke-width="2" d="M722.5,-205C722.49,-203 958.99,-202 959,-204"/>
<path fill="none" stroke="#000000" stroke-width="2" d="M722.5,-205C722.5,-205 959,-204 959,-204"/>
<path fill="none" stroke="#000000" stroke-width="2" d="M722.5,-205C722.51,-207 959.01,-206 959,-204"/>
</g>
<!-- W2&#45;&#45;X3 -->
<g id="edge8" class="edge">
<title>W2:e&#45;&#45;X3:w</title>
<path fill="none" stroke="#000000" stroke-width="2" d="M722.5,-180C722.51,-178 959.01,-179 959,-181"/>
<path fill="none" stroke="#ff0000" stroke-width="2" d="M722.5,-180C722.5,-180 959,-181 959,-181"/>
<path fill="none" stroke="#000000" stroke-width="2" d="M722.5,-180C722.49,-182 958.99,-183 959,-181"/>
</g>
<!-- W3&#45;&#45;X4 -->
<g id="edge10" class="edge">
<title>W3:e&#45;&#45;X4:w</title>
<path fill="none" stroke="#000000" stroke-width="2" d="M743,-47C742.99,-45 958.99,-44 959,-46"/>
<path fill="none" stroke="#000000" stroke-width="2" d="M743,-47C743,-47 959,-46 959,-46"/>
<path fill="none" stroke="#000000" stroke-width="2" d="M743,-47C743.01,-49 959.01,-48 959,-46"/>
</g>
<!-- W3&#45;&#45;X4 -->
<g id="edge12" class="edge">
<title>W3:e&#45;&#45;X4:w</title>
<path fill="none" stroke="#000000" stroke-width="2" d="M743,-22C743.01,-20 959.01,-21 959,-23"/>
<path fill="none" stroke="#ff0000" stroke-width="2" d="M743,-22C743,-22 959,-23 959,-23"/>
<path fill="none" stroke="#000000" stroke-width="2" d="M743,-22C742.99,-24 958.99,-25 959,-23"/>
</g>
</g>
</svg>
