<?xml version="1.0" encoding="UTF-8" standalone="no"?>
<!DOCTYPE svg PUBLIC "-//W3C//DTD SVG 1.1//EN"
 "http://www.w3.org/Graphics/SVG/1.1/DTD/svg11.dtd">
<!-- Generated by graphviz version 2.43.0 (0)
 -->
<!-- Title: %3 Pages: 1 -->
<svg width="2023pt" height="192pt"
 viewBox="0.00 0.00 2023.00 192.00" xmlns="http://www.w3.org/2000/svg" xmlns:xlink="http://www.w3.org/1999/xlink">
<g id="graph0" class="graph" transform="scale(1 1) rotate(0) translate(4 188)">
<title>%3</title>
<polygon fill="#ffffff" stroke="transparent" points="-4,4 -4,-188 2019,-188 2019,4 -4,4"/>
<!-- X1 -->
<g id="node1" class="node">
<title>X1</title>
<polygon fill="#ffffff" stroke="black" points="231,-152 0,-152 0,-14 231,-14 231,-152"/>
<polygon fill="#ffffff" stroke="transparent" points="0,-14 0,-152 231,-152 231,-14 0,-14"/>
<polygon fill="#ffffff" stroke="transparent" points="0.5,-129 0.5,-152 231.5,-152 231.5,-129 0.5,-129"/>
<polygon fill="none" stroke="black" points="0.5,-129 0.5,-152 231.5,-152 231.5,-129 0.5,-129"/>
<text text-anchor="start" x="96" y="-137.8" font-family="arial" font-size="14.00"> </text>
<text text-anchor="start" x="101" y="-137.8" font-family="arial" font-weight="bold" font-size="14.00"> X1 </text>
<text text-anchor="start" x="131" y="-137.8" font-family="arial" font-size="14.00"> </text>
<polygon fill="none" stroke="black" points="0.5,-106 0.5,-129 112.5,-129 112.5,-106 0.5,-106"/>
<text text-anchor="start" x="4.5" y="-113.8" font-family="arial" font-size="14.00"> Molex KK 254 </text>
<polygon fill="none" stroke="black" points="112.5,-106 112.5,-129 177.5,-129 177.5,-106 112.5,-106"/>
<text text-anchor="start" x="116.5" y="-113.8" font-family="arial" font-size="14.00"> female </text>
<polygon fill="none" stroke="black" points="177.5,-106 177.5,-129 231.5,-129 231.5,-106 177.5,-106"/>
<text text-anchor="start" x="181.5" y="-113.8" font-family="arial" font-size="14.00"> 4&#45;pin </text>
<polygon fill="none" stroke="black" points="0.5,-83 0.5,-106 153.5,-106 153.5,-83 0.5,-83"/>
<text text-anchor="start" x="56.5" y="-90.8" font-family="arial" font-size="14.00"> GND </text>
<polygon fill="none" stroke="black" points="153.5,-83 153.5,-106 231.5,-106 231.5,-83 153.5,-83"/>
<text text-anchor="start" x="183" y="-90.8" font-family="arial" font-size="14.00"> 1 </text>
<polygon fill="none" stroke="black" points="0.5,-60 0.5,-83 153.5,-83 153.5,-60 0.5,-60"/>
<text text-anchor="start" x="57.5" y="-67.8" font-family="arial" font-size="14.00"> VCC </text>
<polygon fill="none" stroke="black" points="153.5,-60 153.5,-83 231.5,-83 231.5,-60 153.5,-60"/>
<text text-anchor="start" x="183" y="-67.8" font-family="arial" font-size="14.00"> 2 </text>
<polygon fill="none" stroke="black" points="0.5,-37 0.5,-60 153.5,-60 153.5,-37 0.5,-37"/>
<text text-anchor="start" x="59" y="-44.8" font-family="arial" font-size="14.00"> SCL </text>
<polygon fill="none" stroke="black" points="153.5,-37 153.5,-60 231.5,-60 231.5,-37 153.5,-37"/>
<text text-anchor="start" x="183" y="-44.8" font-family="arial" font-size="14.00"> 3 </text>
<polygon fill="none" stroke="black" points="0.5,-14 0.5,-37 153.5,-37 153.5,-14 0.5,-14"/>
<text text-anchor="start" x="57.5" y="-21.8" font-family="arial" font-size="14.00"> SDA </text>
<polygon fill="none" stroke="black" points="153.5,-14 153.5,-37 231.5,-37 231.5,-14 153.5,-14"/>
<text text-anchor="start" x="183" y="-21.8" font-family="arial" font-size="14.00"> 4 </text>
</g>
<!-- W1 -->
<g id="node4" class="node">
<title>W1</title>
<polygon fill="#ffffff" stroke="black" points="676,-184 447,-184 447,0 676,0 676,-184"/>
<polygon fill="#ffffff" stroke="transparent" points="447,0 447,-184 676,-184 676,0 447,0"/>
<polygon fill="#ffffff" stroke="transparent" points="447.5,-161 447.5,-184 676.5,-184 676.5,-161 447.5,-161"/>
<polygon fill="none" stroke="black" points="447.5,-161 447.5,-184 676.5,-184 676.5,-161 447.5,-161"/>
<text text-anchor="start" x="539.5" y="-169.8" font-family="arial" font-size="14.00"> </text>
<text text-anchor="start" x="544.5" y="-169.8" font-family="arial" font-weight="bold" font-size="14.00"> W1 </text>
<text text-anchor="start" x="579.5" y="-169.8" font-family="arial" font-size="14.00"> </text>
<polygon fill="none" stroke="black" points="447.5,-138 447.5,-161 488.5,-161 488.5,-138 447.5,-138"/>
<text text-anchor="start" x="451.5" y="-145.8" font-family="arial" font-size="14.00"> I2C </text>
<polygon fill="none" stroke="black" points="488.5,-138 488.5,-161 523.5,-161 523.5,-138 488.5,-138"/>
<text text-anchor="start" x="492.5" y="-145.8" font-family="arial" font-size="14.00"> 4x </text>
<polygon fill="none" stroke="black" points="523.5,-138 523.5,-161 609.5,-161 609.5,-138 523.5,-138"/>
<text text-anchor="start" x="527.5" y="-145.8" font-family="arial" font-size="14.00"> 0.25 mm² </text>
<polygon fill="none" stroke="black" points="609.5,-138 609.5,-161 676.5,-161 676.5,-138 609.5,-138"/>
<text text-anchor="start" x="613.5" y="-145.8" font-family="arial" font-size="14.00"> 0.20 m </text>
<text text-anchor="start" x="486.5" y="-124.8" font-family="arial" font-size="14.00"> </text>
<text text-anchor="start" x="449.5" y="-105.8" font-family="arial" font-size="14.00"> X1:1:GND </text>
<text text-anchor="start" x="533" y="-105.8" font-family="arial" font-size="14.00"> </text>
<text text-anchor="start" x="544.5" y="-105.8" font-family="arial" font-size="14.00"> 1:PK </text>
<text text-anchor="start" x="591" y="-105.8" font-family="arial" font-size="14.00"> </text>
<text text-anchor="start" x="601.5" y="-105.8" font-family="arial" font-size="14.00"> X2:1:GND</text>
<polygon fill="#000000" stroke="transparent" points="447.5,-98 447.5,-100 676.5,-100 676.5,-98 447.5,-98"/>
<polygon fill="#ff66cc" stroke="transparent" points="447.5,-96 447.5,-98 676.5,-98 676.5,-96 447.5,-96"/>
<polygon fill="#000000" stroke="transparent" points="447.5,-94 447.5,-96 676.5,-96 676.5,-94 447.5,-94"/>
<text text-anchor="start" x="449.5" y="-80.8" font-family="arial" font-size="14.00"> X1:2:VCC </text>
<text text-anchor="start" x="533" y="-80.8" font-family="arial" font-size="14.00"> </text>
<text text-anchor="start" x="543" y="-80.8" font-family="arial" font-size="14.00"> 2:TQ </text>
<text text-anchor="start" x="591" y="-80.8" font-family="arial" font-size="14.00"> </text>
<text text-anchor="start" x="603.5" y="-80.8" font-family="arial" font-size="14.00"> X2:2:VCC</text>
<polygon fill="#000000" stroke="transparent" points="447.5,-73 447.5,-75 676.5,-75 676.5,-73 447.5,-73"/>
<polygon fill="#00ffff" stroke="transparent" points="447.5,-71 447.5,-73 676.5,-73 676.5,-71 447.5,-71"/>
<polygon fill="#000000" stroke="transparent" points="447.5,-69 447.5,-71 676.5,-71 676.5,-69 447.5,-69"/>
<text text-anchor="start" x="449.5" y="-55.8" font-family="arial" font-size="14.00"> X1:3:SCL </text>
<text text-anchor="start" x="533" y="-55.8" font-family="arial" font-size="14.00"> </text>
<text text-anchor="start" x="544.5" y="-55.8" font-family="arial" font-size="14.00"> 3:YE </text>
<text text-anchor="start" x="591" y="-55.8" font-family="arial" font-size="14.00"> </text>
<text text-anchor="start" x="606.5" y="-55.8" font-family="arial" font-size="14.00"> X2:3:SCL</text>
<polygon fill="#000000" stroke="transparent" points="447.5,-48 447.5,-50 676.5,-50 676.5,-48 447.5,-48"/>
<polygon fill="#ffff00" stroke="transparent" points="447.5,-46 447.5,-48 676.5,-48 676.5,-46 447.5,-46"/>
<polygon fill="#000000" stroke="transparent" points="447.5,-44 447.5,-46 676.5,-46 676.5,-44 447.5,-44"/>
<text text-anchor="start" x="449.5" y="-30.8" font-family="arial" font-size="14.00"> X1:4:SDA </text>
<text text-anchor="start" x="533" y="-30.8" font-family="arial" font-size="14.00"> </text>
<text text-anchor="start" x="544" y="-30.8" font-family="arial" font-size="14.00"> 4:VT </text>
<text text-anchor="start" x="591" y="-30.8" font-family="arial" font-size="14.00"> </text>
<text text-anchor="start" x="603.5" y="-30.8" font-family="arial" font-size="14.00"> X2:4:SDA</text>
<polygon fill="#000000" stroke="transparent" points="447.5,-23 447.5,-25 676.5,-25 676.5,-23 447.5,-23"/>
<polygon fill="#8000ff" stroke="transparent" points="447.5,-21 447.5,-23 676.5,-23 676.5,-21 447.5,-21"/>
<polygon fill="#000000" stroke="transparent" points="447.5,-19 447.5,-21 676.5,-21 676.5,-19 447.5,-19"/>
<text text-anchor="start" x="486.5" y="-5.8" font-family="arial" font-size="14.00"> </text>
</g>
<!-- X1&#45;&#45;W1 -->
<g id="edge1" class="edge">
<title>X1:e&#45;&#45;W1:w</title>
<path fill="none" stroke="#000000" stroke-width="2" d="M231,-95C231.02,-93 447.02,-95 447,-97"/>
<path fill="none" stroke="#ff66cc" stroke-width="2" d="M231,-95C231,-95 447,-97 447,-97"/>
<path fill="none" stroke="#000000" stroke-width="2" d="M231,-95C230.98,-97 446.98,-99 447,-97"/>
</g>
<!-- X1&#45;&#45;W1 -->
<g id="edge3" class="edge">
<title>X1:e&#45;&#45;W1:w</title>
<path fill="none" stroke="#000000" stroke-width="2" d="M231,-71C231.01,-69 447.01,-70 447,-72"/>
<path fill="none" stroke="#00ffff" stroke-width="2" d="M231,-71C231,-71 447,-72 447,-72"/>
<path fill="none" stroke="#000000" stroke-width="2" d="M231,-71C230.99,-73 446.99,-74 447,-72"/>
</g>
<!-- X1&#45;&#45;W1 -->
<g id="edge5" class="edge">
<title>X1:e&#45;&#45;W1:w</title>
<path fill="none" stroke="#000000" stroke-width="2" d="M231,-48C230.99,-46 446.99,-45 447,-47"/>
<path fill="none" stroke="#ffff00" stroke-width="2" d="M231,-48C231,-48 447,-47 447,-47"/>
<path fill="none" stroke="#000000" stroke-width="2" d="M231,-48C231.01,-50 447.01,-49 447,-47"/>
</g>
<!-- X1&#45;&#45;W1 -->
<g id="edge7" class="edge">
<title>X1:e&#45;&#45;W1:w</title>
<path fill="none" stroke="#000000" stroke-width="2" d="M231,-25C230.97,-23 446.97,-20 447,-22"/>
<path fill="none" stroke="#8000ff" stroke-width="2" d="M231,-25C231,-25 447,-22 447,-22"/>
<path fill="none" stroke="#000000" stroke-width="2" d="M231,-25C231.03,-27 447.03,-24 447,-22"/>
</g>
<!-- X2 -->
<g id="node2" class="node">
<title>X2</title>
<polygon fill="#ffffff" stroke="black" points="1123,-152 892,-152 892,-14 1123,-14 1123,-152"/>
<polygon fill="#ffffff" stroke="transparent" points="892,-14 892,-152 1123,-152 1123,-14 892,-14"/>
<polygon fill="#ffffff" stroke="transparent" points="892.5,-129 892.5,-152 1123.5,-152 1123.5,-129 892.5,-129"/>
<polygon fill="none" stroke="black" points="892.5,-129 892.5,-152 1123.5,-152 1123.5,-129 892.5,-129"/>
<text text-anchor="start" x="988" y="-137.8" font-family="arial" font-size="14.00"> </text>
<text text-anchor="start" x="993" y="-137.8" font-family="arial" font-weight="bold" font-size="14.00"> X2 </text>
<text text-anchor="start" x="1023" y="-137.8" font-family="arial" font-size="14.00"> </text>
<polygon fill="none" stroke="black" points="892.5,-106 892.5,-129 1004.5,-129 1004.5,-106 892.5,-106"/>
<text text-anchor="start" x="896.5" y="-113.8" font-family="arial" font-size="14.00"> Molex KK 254 </text>
<polygon fill="none" stroke="black" points="1004.5,-106 1004.5,-129 1069.5,-129 1069.5,-106 1004.5,-106"/>
<text text-anchor="start" x="1008.5" y="-113.8" font-family="arial" font-size="14.00"> female </text>
<polygon fill="none" stroke="black" points="1069.5,-106 1069.5,-129 1123.5,-129 1123.5,-106 1069.5,-106"/>
<text text-anchor="start" x="1073.5" y="-113.8" font-family="arial" font-size="14.00"> 4&#45;pin </text>
<polygon fill="none" stroke="black" points="892.5,-83 892.5,-106 951.5,-106 951.5,-83 892.5,-83"/>
<text text-anchor="start" x="912.5" y="-90.8" font-family="arial" font-size="14.00"> 1 </text>
<polygon fill="none" stroke="black" points="951.5,-83 951.5,-106 1064.5,-106 1064.5,-83 951.5,-83"/>
<text text-anchor="start" x="987.5" y="-90.8" font-family="arial" font-size="14.00"> GND </text>
<polygon fill="none" stroke="black" points="1064.5,-83 1064.5,-106 1123.5,-106 1123.5,-83 1064.5,-83"/>
<text text-anchor="start" x="1084.5" y="-90.8" font-family="arial" font-size="14.00"> 1 </text>
<polygon fill="none" stroke="black" points="892.5,-60 892.5,-83 951.5,-83 951.5,-60 892.5,-60"/>
<text text-anchor="start" x="912.5" y="-67.8" font-family="arial" font-size="14.00"> 2 </text>
<polygon fill="none" stroke="black" points="951.5,-60 951.5,-83 1064.5,-83 1064.5,-60 951.5,-60"/>
<text text-anchor="start" x="988.5" y="-67.8" font-family="arial" font-size="14.00"> VCC </text>
<polygon fill="none" stroke="black" points="1064.5,-60 1064.5,-83 1123.5,-83 1123.5,-60 1064.5,-60"/>
<text text-anchor="start" x="1084.5" y="-67.8" font-family="arial" font-size="14.00"> 2 </text>
<polygon fill="none" stroke="black" points="892.5,-37 892.5,-60 951.5,-60 951.5,-37 892.5,-37"/>
<text text-anchor="start" x="912.5" y="-44.8" font-family="arial" font-size="14.00"> 3 </text>
<polygon fill="none" stroke="black" points="951.5,-37 951.5,-60 1064.5,-60 1064.5,-37 951.5,-37"/>
<text text-anchor="start" x="990" y="-44.8" font-family="arial" font-size="14.00"> SCL </text>
<polygon fill="none" stroke="black" points="1064.5,-37 1064.5,-60 1123.5,-60 1123.5,-37 1064.5,-37"/>
<text text-anchor="start" x="1084.5" y="-44.8" font-family="arial" font-size="14.00"> 3 </text>
<polygon fill="none" stroke="black" points="892.5,-14 892.5,-37 951.5,-37 951.5,-14 892.5,-14"/>
<text text-anchor="start" x="912.5" y="-21.8" font-family="arial" font-size="14.00"> 4 </text>
<polygon fill="none" stroke="black" points="951.5,-14 951.5,-37 1064.5,-37 1064.5,-14 951.5,-14"/>
<text text-anchor="start" x="988.5" y="-21.8" font-family="arial" font-size="14.00"> SDA </text>
<polygon fill="none" stroke="black" points="1064.5,-14 1064.5,-37 1123.5,-37 1123.5,-14 1064.5,-14"/>
<text text-anchor="start" x="1084.5" y="-21.8" font-family="arial" font-size="14.00"> 4 </text>
</g>
<!-- W2 -->
<g id="node5" class="node">
<title>W2</title>
<polygon fill="#ffffff" stroke="black" points="1568,-184 1339,-184 1339,0 1568,0 1568,-184"/>
<polygon fill="#ffffff" stroke="transparent" points="1339,0 1339,-184 1568,-184 1568,0 1339,0"/>
<polygon fill="#ffffff" stroke="transparent" points="1339.5,-161 1339.5,-184 1568.5,-184 1568.5,-161 1339.5,-161"/>
<polygon fill="none" stroke="black" points="1339.5,-161 1339.5,-184 1568.5,-184 1568.5,-161 1339.5,-161"/>
<text text-anchor="start" x="1431.5" y="-169.8" font-family="arial" font-size="14.00"> </text>
<text text-anchor="start" x="1436.5" y="-169.8" font-family="arial" font-weight="bold" font-size="14.00"> W2 </text>
<text text-anchor="start" x="1471.5" y="-169.8" font-family="arial" font-size="14.00"> </text>
<polygon fill="none" stroke="black" points="1339.5,-138 1339.5,-161 1380.5,-161 1380.5,-138 1339.5,-138"/>
<text text-anchor="start" x="1343.5" y="-145.8" font-family="arial" font-size="14.00"> I2C </text>
<polygon fill="none" stroke="black" points="1380.5,-138 1380.5,-161 1415.5,-161 1415.5,-138 1380.5,-138"/>
<text text-anchor="start" x="1384.5" y="-145.8" font-family="arial" font-size="14.00"> 4x </text>
<polygon fill="none" stroke="black" points="1415.5,-138 1415.5,-161 1501.5,-161 1501.5,-138 1415.5,-138"/>
<text text-anchor="start" x="1419.5" y="-145.8" font-family="arial" font-size="14.00"> 0.25 mm² </text>
<polygon fill="none" stroke="black" points="1501.5,-138 1501.5,-161 1568.5,-161 1568.5,-138 1501.5,-138"/>
<text text-anchor="start" x="1505.5" y="-145.8" font-family="arial" font-size="14.00"> 0.20 m </text>
<text text-anchor="start" x="1378.5" y="-124.8" font-family="arial" font-size="14.00"> </text>
<text text-anchor="start" x="1341.5" y="-105.8" font-family="arial" font-size="14.00"> X2:1:GND </text>
<text text-anchor="start" x="1425" y="-105.8" font-family="arial" font-size="14.00"> </text>
<text text-anchor="start" x="1436.5" y="-105.8" font-family="arial" font-size="14.00"> 1:PK </text>
<text text-anchor="start" x="1483" y="-105.8" font-family="arial" font-size="14.00"> </text>
<text text-anchor="start" x="1493.5" y="-105.8" font-family="arial" font-size="14.00"> X3:1:GND</text>
<polygon fill="#000000" stroke="transparent" points="1339.5,-98 1339.5,-100 1568.5,-100 1568.5,-98 1339.5,-98"/>
<polygon fill="#ff66cc" stroke="transparent" points="1339.5,-96 1339.5,-98 1568.5,-98 1568.5,-96 1339.5,-96"/>
<polygon fill="#000000" stroke="transparent" points="1339.5,-94 1339.5,-96 1568.5,-96 1568.5,-94 1339.5,-94"/>
<text text-anchor="start" x="1341.5" y="-80.8" font-family="arial" font-size="14.00"> X2:2:VCC </text>
<text text-anchor="start" x="1425" y="-80.8" font-family="arial" font-size="14.00"> </text>
<text text-anchor="start" x="1435" y="-80.8" font-family="arial" font-size="14.00"> 2:TQ </text>
<text text-anchor="start" x="1483" y="-80.8" font-family="arial" font-size="14.00"> </text>
<text text-anchor="start" x="1495.5" y="-80.8" font-family="arial" font-size="14.00"> X3:2:VCC</text>
<polygon fill="#000000" stroke="transparent" points="1339.5,-73 1339.5,-75 1568.5,-75 1568.5,-73 1339.5,-73"/>
<polygon fill="#00ffff" stroke="transparent" points="1339.5,-71 1339.5,-73 1568.5,-73 1568.5,-71 1339.5,-71"/>
<polygon fill="#000000" stroke="transparent" points="1339.5,-69 1339.5,-71 1568.5,-71 1568.5,-69 1339.5,-69"/>
<text text-anchor="start" x="1341.5" y="-55.8" font-family="arial" font-size="14.00"> X2:3:SCL </text>
<text text-anchor="start" x="1425" y="-55.8" font-family="arial" font-size="14.00"> </text>
<text text-anchor="start" x="1436.5" y="-55.8" font-family="arial" font-size="14.00"> 3:YE </text>
<text text-anchor="start" x="1483" y="-55.8" font-family="arial" font-size="14.00"> </text>
<text text-anchor="start" x="1498.5" y="-55.8" font-family="arial" font-size="14.00"> X3:3:SCL</text>
<polygon fill="#000000" stroke="transparent" points="1339.5,-48 1339.5,-50 1568.5,-50 1568.5,-48 1339.5,-48"/>
<polygon fill="#ffff00" stroke="transparent" points="1339.5,-46 1339.5,-48 1568.5,-48 1568.5,-46 1339.5,-46"/>
<polygon fill="#000000" stroke="transparent" points="1339.5,-44 1339.5,-46 1568.5,-46 1568.5,-44 1339.5,-44"/>
<text text-anchor="start" x="1341.5" y="-30.8" font-family="arial" font-size="14.00"> X2:4:SDA </text>
<text text-anchor="start" x="1425" y="-30.8" font-family="arial" font-size="14.00"> </text>
<text text-anchor="start" x="1436" y="-30.8" font-family="arial" font-size="14.00"> 4:VT </text>
<text text-anchor="start" x="1483" y="-30.8" font-family="arial" font-size="14.00"> </text>
<text text-anchor="start" x="1495.5" y="-30.8" font-family="arial" font-size="14.00"> X3:4:SDA</text>
<polygon fill="#000000" stroke="transparent" points="1339.5,-23 1339.5,-25 1568.5,-25 1568.5,-23 1339.5,-23"/>
<polygon fill="#8000ff" stroke="transparent" points="1339.5,-21 1339.5,-23 1568.5,-23 1568.5,-21 1339.5,-21"/>
<polygon fill="#000000" stroke="transparent" points="1339.5,-19 1339.5,-21 1568.5,-21 1568.5,-19 1339.5,-19"/>
<text text-anchor="start" x="1378.5" y="-5.8" font-family="arial" font-size="14.00"> </text>
</g>
<!-- X2&#45;&#45;W2 -->
<g id="edge9" class="edge">
<title>X2:e&#45;&#45;W2:w</title>
<path fill="none" stroke="#000000" stroke-width="2" d="M1123,-95C1123.02,-93 1339.02,-95 1339,-97"/>
<path fill="none" stroke="#ff66cc" stroke-width="2" d="M1123,-95C1123,-95 1339,-97 1339,-97"/>
<path fill="none" stroke="#000000" stroke-width="2" d="M1123,-95C1122.98,-97 1338.98,-99 1339,-97"/>
</g>
<!-- X2&#45;&#45;W2 -->
<g id="edge11" class="edge">
<title>X2:e&#45;&#45;W2:w</title>
<path fill="none" stroke="#000000" stroke-width="2" d="M1123,-71C1123.01,-69 1339.01,-70 1339,-72"/>
<path fill="none" stroke="#00ffff" stroke-width="2" d="M1123,-71C1123,-71 1339,-72 1339,-72"/>
<path fill="none" stroke="#000000" stroke-width="2" d="M1123,-71C1122.99,-73 1338.99,-74 1339,-72"/>
</g>
<!-- X2&#45;&#45;W2 -->
<g id="edge13" class="edge">
<title>X2:e&#45;&#45;W2:w</title>
<path fill="none" stroke="#000000" stroke-width="2" d="M1123,-48C1122.99,-46 1338.99,-45 1339,-47"/>
<path fill="none" stroke="#ffff00" stroke-width="2" d="M1123,-48C1123,-48 1339,-47 1339,-47"/>
<path fill="none" stroke="#000000" stroke-width="2" d="M1123,-48C1123.01,-50 1339.01,-49 1339,-47"/>
</g>
<!-- X2&#45;&#45;W2 -->
<g id="edge15" class="edge">
<title>X2:e&#45;&#45;W2:w</title>
<path fill="none" stroke="#000000" stroke-width="2" d="M1123,-25C1122.97,-23 1338.97,-20 1339,-22"/>
<path fill="none" stroke="#8000ff" stroke-width="2" d="M1123,-25C1123,-25 1339,-22 1339,-22"/>
<path fill="none" stroke="#000000" stroke-width="2" d="M1123,-25C1123.03,-27 1339.03,-24 1339,-22"/>
</g>
<!-- X3 -->
<g id="node3" class="node">
<title>X3</title>
<polygon fill="#ffffff" stroke="black" points="2015,-152 1784,-152 1784,-14 2015,-14 2015,-152"/>
<polygon fill="#ffffff" stroke="transparent" points="1784,-14 1784,-152 2015,-152 2015,-14 1784,-14"/>
<polygon fill="#ffffff" stroke="transparent" points="1784.5,-129 1784.5,-152 2015.5,-152 2015.5,-129 1784.5,-129"/>
<polygon fill="none" stroke="black" points="1784.5,-129 1784.5,-152 2015.5,-152 2015.5,-129 1784.5,-129"/>
<text text-anchor="start" x="1880" y="-137.8" font-family="arial" font-size="14.00"> </text>
<text text-anchor="start" x="1885" y="-137.8" font-family="arial" font-weight="bold" font-size="14.00"> X3 </text>
<text text-anchor="start" x="1915" y="-137.8" font-family="arial" font-size="14.00"> </text>
<polygon fill="none" stroke="black" points="1784.5,-106 1784.5,-129 1896.5,-129 1896.5,-106 1784.5,-106"/>
<text text-anchor="start" x="1788.5" y="-113.8" font-family="arial" font-size="14.00"> Molex KK 254 </text>
<polygon fill="none" stroke="black" points="1896.5,-106 1896.5,-129 1961.5,-129 1961.5,-106 1896.5,-106"/>
<text text-anchor="start" x="1900.5" y="-113.8" font-family="arial" font-size="14.00"> female </text>
<polygon fill="none" stroke="black" points="1961.5,-106 1961.5,-129 2015.5,-129 2015.5,-106 1961.5,-106"/>
<text text-anchor="start" x="1965.5" y="-113.8" font-family="arial" font-size="14.00"> 4&#45;pin </text>
<polygon fill="none" stroke="black" points="1784.5,-83 1784.5,-106 1863.5,-106 1863.5,-83 1784.5,-83"/>
<text text-anchor="start" x="1814.5" y="-90.8" font-family="arial" font-size="14.00"> 1 </text>
<polygon fill="none" stroke="black" points="1863.5,-83 1863.5,-106 2015.5,-106 2015.5,-83 1863.5,-83"/>
<text text-anchor="start" x="1919" y="-90.8" font-family="arial" font-size="14.00"> GND </text>
<polygon fill="none" stroke="black" points="1784.5,-60 1784.5,-83 1863.5,-83 1863.5,-60 1784.5,-60"/>
<text text-anchor="start" x="1814.5" y="-67.8" font-family="arial" font-size="14.00"> 2 </text>
<polygon fill="none" stroke="black" points="1863.5,-60 1863.5,-83 2015.5,-83 2015.5,-60 1863.5,-60"/>
<text text-anchor="start" x="1920" y="-67.8" font-family="arial" font-size="14.00"> VCC </text>
<polygon fill="none" stroke="black" points="1784.5,-37 1784.5,-60 1863.5,-60 1863.5,-37 1784.5,-37"/>
<text text-anchor="start" x="1814.5" y="-44.8" font-family="arial" font-size="14.00"> 3 </text>
<polygon fill="none" stroke="black" points="1863.5,-37 1863.5,-60 2015.5,-60 2015.5,-37 1863.5,-37"/>
<text text-anchor="start" x="1921.5" y="-44.8" font-family="arial" font-size="14.00"> SCL </text>
<polygon fill="none" stroke="black" points="1784.5,-14 1784.5,-37 1863.5,-37 1863.5,-14 1784.5,-14"/>
<text text-anchor="start" x="1814.5" y="-21.8" font-family="arial" font-size="14.00"> 4 </text>
<polygon fill="none" stroke="black" points="1863.5,-14 1863.5,-37 2015.5,-37 2015.5,-14 1863.5,-14"/>
<text text-anchor="start" x="1920" y="-21.8" font-family="arial" font-size="14.00"> SDA </text>
</g>
<!-- W1&#45;&#45;X2 -->
<g id="edge2" class="edge">
<title>W1:e&#45;&#45;X2:w</title>
<path fill="none" stroke="#000000" stroke-width="2" d="M676,-97C675.98,-95 891.98,-93 892,-95"/>
<path fill="none" stroke="#ff66cc" stroke-width="2" d="M676,-97C676,-97 892,-95 892,-95"/>
<path fill="none" stroke="#000000" stroke-width="2" d="M676,-97C676.02,-99 892.02,-97 892,-95"/>
</g>
<!-- W1&#45;&#45;X2 -->
<g id="edge4" class="edge">
<title>W1:e&#45;&#45;X2:w</title>
<path fill="none" stroke="#000000" stroke-width="2" d="M676,-72C675.99,-70 891.99,-69 892,-71"/>
<path fill="none" stroke="#00ffff" stroke-width="2" d="M676,-72C676,-72 892,-71 892,-71"/>
<path fill="none" stroke="#000000" stroke-width="2" d="M676,-72C676.01,-74 892.01,-73 892,-71"/>
</g>
<!-- W1&#45;&#45;X2 -->
<g id="edge6" class="edge">
<title>W1:e&#45;&#45;X2:w</title>
<path fill="none" stroke="#000000" stroke-width="2" d="M676,-47C676.01,-45 892.01,-46 892,-48"/>
<path fill="none" stroke="#ffff00" stroke-width="2" d="M676,-47C676,-47 892,-48 892,-48"/>
<path fill="none" stroke="#000000" stroke-width="2" d="M676,-47C675.99,-49 891.99,-50 892,-48"/>
</g>
<!-- W1&#45;&#45;X2 -->
<g id="edge8" class="edge">
<title>W1:e&#45;&#45;X2:w</title>
<path fill="none" stroke="#000000" stroke-width="2" d="M676,-22C676.03,-20 892.03,-23 892,-25"/>
<path fill="none" stroke="#8000ff" stroke-width="2" d="M676,-22C676,-22 892,-25 892,-25"/>
<path fill="none" stroke="#000000" stroke-width="2" d="M676,-22C675.97,-24 891.97,-27 892,-25"/>
</g>
<!-- W2&#45;&#45;X3 -->
<g id="edge10" class="edge">
<title>W2:e&#45;&#45;X3:w</title>
<path fill="none" stroke="#000000" stroke-width="2" d="M1568,-97C1567.98,-95 1783.98,-93 1784,-95"/>
<path fill="none" stroke="#ff66cc" stroke-width="2" d="M1568,-97C1568,-97 1784,-95 1784,-95"/>
<path fill="none" stroke="#000000" stroke-width="2" d="M1568,-97C1568.02,-99 1784.02,-97 1784,-95"/>
</g>
<!-- W2&#45;&#45;X3 -->
<g id="edge12" class="edge">
<title>W2:e&#45;&#45;X3:w</title>
<path fill="none" stroke="#000000" stroke-width="2" d="M1568,-72C1567.99,-70 1783.99,-69 1784,-71"/>
<path fill="none" stroke="#00ffff" stroke-width="2" d="M1568,-72C1568,-72 1784,-71 1784,-71"/>
<path fill="none" stroke="#000000" stroke-width="2" d="M1568,-72C1568.01,-74 1784.01,-73 1784,-71"/>
</g>
<!-- W2&#45;&#45;X3 -->
<g id="edge14" class="edge">
<title>W2:e&#45;&#45;X3:w</title>
<path fill="none" stroke="#000000" stroke-width="2" d="M1568,-47C1568.01,-45 1784.01,-46 1784,-48"/>
<path fill="none" stroke="#ffff00" stroke-width="2" d="M1568,-47C1568,-47 1784,-48 1784,-48"/>
<path fill="none" stroke="#000000" stroke-width="2" d="M1568,-47C1567.99,-49 1783.99,-50 1784,-48"/>
</g>
<!-- W2&#45;&#45;X3 -->
<g id="edge16" class="edge">
<title>W2:e&#45;&#45;X3:w</title>
<path fill="none" stroke="#000000" stroke-width="2" d="M1568,-22C1568.03,-20 1784.03,-23 1784,-25"/>
<path fill="none" stroke="#8000ff" stroke-width="2" d="M1568,-22C1568,-22 1784,-25 1784,-25"/>
<path fill="none" stroke="#000000" stroke-width="2" d="M1568,-22C1567.97,-24 1783.97,-27 1784,-25"/>
</g>
</g>
</svg>
