<?xml version="1.0" encoding="UTF-8" standalone="no"?>
<!DOCTYPE svg PUBLIC "-//W3C//DTD SVG 1.1//EN"
 "http://www.w3.org/Graphics/SVG/1.1/DTD/svg11.dtd">
<!-- Generated by graphviz version 2.43.0 (0)
 -->
<!-- Title: %3 Pages: 1 -->
<svg width="1058pt" height="1158pt"
 viewBox="0.00 0.00 1058.00 1158.00" xmlns="http://www.w3.org/2000/svg" xmlns:xlink="http://www.w3.org/1999/xlink">
<g id="graph0" class="graph" transform="scale(1 1) rotate(0) translate(4 1154)">
<title>%3</title>
<polygon fill="#ffffff" stroke="transparent" points="-4,4 -4,-1154 1054,-1154 1054,4 -4,4"/>
<!-- X1 -->
<g id="node1" class="node">
<title>X1</title>
<polygon fill="#ffffff" stroke="black" points="174,-721.5 0,-721.5 0,-376.5 174,-376.5 174,-721.5"/>
<polygon fill="#ffffff" stroke="transparent" points="0,-376.5 0,-721.5 174,-721.5 174,-376.5 0,-376.5"/>
<polygon fill="#ffffff" stroke="transparent" points="0,-698 0,-721 174,-721 174,-698 0,-698"/>
<polygon fill="none" stroke="black" points="0,-698 0,-721 174,-721 174,-698 0,-698"/>
<text text-anchor="start" x="67" y="-706.8" font-family="arial" font-size="14.00"> </text>
<text text-anchor="start" x="72" y="-706.8" font-family="arial" font-weight="bold" font-size="14.00"> X1 </text>
<text text-anchor="start" x="102" y="-706.8" font-family="arial" font-size="14.00"> </text>
<polygon fill="none" stroke="black" points="0,-675 0,-698 60,-698 60,-675 0,-675"/>
<text text-anchor="start" x="4" y="-682.8" font-family="arial" font-size="14.00"> D&#45;Sub </text>
<polygon fill="none" stroke="black" points="60,-675 60,-698 111,-698 111,-675 60,-675"/>
<text text-anchor="start" x="64" y="-682.8" font-family="arial" font-size="14.00"> male </text>
<polygon fill="none" stroke="black" points="111,-675 111,-698 174,-698 174,-675 111,-675"/>
<text text-anchor="start" x="115" y="-682.8" font-family="arial" font-size="14.00"> 25&#45;pin </text>
<polygon fill="none" stroke="black" points="0,-652 0,-675 125,-675 125,-652 0,-652"/>
<text text-anchor="start" x="19" y="-659.8" font-family="arial" font-size="14.00"> SENSE_P_1 </text>
<polygon fill="none" stroke="black" points="125,-652 125,-675 174,-675 174,-652 125,-652"/>
<text text-anchor="start" x="140" y="-659.8" font-family="arial" font-size="14.00"> 1 </text>
<polygon fill="none" stroke="black" points="0,-629 0,-652 125,-652 125,-629 0,-629"/>
<text text-anchor="start" x="18" y="-636.8" font-family="arial" font-size="14.00"> SENSE_N_1 </text>
<polygon fill="none" stroke="black" points="125,-629 125,-652 174,-652 174,-629 125,-629"/>
<text text-anchor="start" x="135.5" y="-636.8" font-family="arial" font-size="14.00"> 14 </text>
<polygon fill="none" stroke="black" points="0,-606 0,-629 125,-629 125,-606 0,-606"/>
<text text-anchor="start" x="19" y="-613.8" font-family="arial" font-size="14.00"> SENSE_P_2 </text>
<polygon fill="none" stroke="black" points="125,-606 125,-629 174,-629 174,-606 125,-606"/>
<text text-anchor="start" x="140" y="-613.8" font-family="arial" font-size="14.00"> 3 </text>
<polygon fill="none" stroke="black" points="0,-583 0,-606 125,-606 125,-583 0,-583"/>
<text text-anchor="start" x="18" y="-590.8" font-family="arial" font-size="14.00"> SENSE_N_2 </text>
<polygon fill="none" stroke="black" points="125,-583 125,-606 174,-606 174,-583 125,-583"/>
<text text-anchor="start" x="135.5" y="-590.8" font-family="arial" font-size="14.00"> 16 </text>
<polygon fill="none" stroke="black" points="0,-560 0,-583 125,-583 125,-560 0,-560"/>
<text text-anchor="start" x="19" y="-567.8" font-family="arial" font-size="14.00"> SENSE_P_3 </text>
<polygon fill="none" stroke="black" points="125,-560 125,-583 174,-583 174,-560 125,-560"/>
<text text-anchor="start" x="140" y="-567.8" font-family="arial" font-size="14.00"> 5 </text>
<polygon fill="none" stroke="black" points="0,-537 0,-560 125,-560 125,-537 0,-537"/>
<text text-anchor="start" x="18" y="-544.8" font-family="arial" font-size="14.00"> SENSE_N_3 </text>
<polygon fill="none" stroke="black" points="125,-537 125,-560 174,-560 174,-537 125,-537"/>
<text text-anchor="start" x="135.5" y="-544.8" font-family="arial" font-size="14.00"> 18 </text>
<polygon fill="none" stroke="black" points="0,-514 0,-537 125,-537 125,-514 0,-514"/>
<text text-anchor="start" x="19" y="-521.8" font-family="arial" font-size="14.00"> SENSE_P_4 </text>
<polygon fill="none" stroke="black" points="125,-514 125,-537 174,-537 174,-514 125,-514"/>
<text text-anchor="start" x="140" y="-521.8" font-family="arial" font-size="14.00"> 7 </text>
<polygon fill="none" stroke="black" points="0,-491 0,-514 125,-514 125,-491 0,-491"/>
<text text-anchor="start" x="18" y="-498.8" font-family="arial" font-size="14.00"> SENSE_N_4 </text>
<polygon fill="none" stroke="black" points="125,-491 125,-514 174,-514 174,-491 125,-491"/>
<text text-anchor="start" x="135.5" y="-498.8" font-family="arial" font-size="14.00"> 20 </text>
<polygon fill="none" stroke="black" points="0,-468 0,-491 125,-491 125,-468 0,-468"/>
<text text-anchor="start" x="19" y="-475.8" font-family="arial" font-size="14.00"> SENSE_P_5 </text>
<polygon fill="none" stroke="black" points="125,-468 125,-491 174,-491 174,-468 125,-468"/>
<text text-anchor="start" x="140" y="-475.8" font-family="arial" font-size="14.00"> 9 </text>
<polygon fill="none" stroke="black" points="0,-445 0,-468 125,-468 125,-445 0,-445"/>
<text text-anchor="start" x="18" y="-452.8" font-family="arial" font-size="14.00"> SENSE_N_5 </text>
<polygon fill="none" stroke="black" points="125,-445 125,-468 174,-468 174,-445 125,-445"/>
<text text-anchor="start" x="135.5" y="-452.8" font-family="arial" font-size="14.00"> 22 </text>
<polygon fill="none" stroke="black" points="0,-422 0,-445 125,-445 125,-422 0,-422"/>
<text text-anchor="start" x="19" y="-429.8" font-family="arial" font-size="14.00"> SENSE_P_6 </text>
<polygon fill="none" stroke="black" points="125,-422 125,-445 174,-445 174,-422 125,-422"/>
<text text-anchor="start" x="135.5" y="-429.8" font-family="arial" font-size="14.00"> 11 </text>
<polygon fill="none" stroke="black" points="0,-399 0,-422 125,-422 125,-399 0,-399"/>
<text text-anchor="start" x="18" y="-406.8" font-family="arial" font-size="14.00"> SENSE_N_6 </text>
<polygon fill="none" stroke="black" points="125,-399 125,-422 174,-422 174,-399 125,-399"/>
<text text-anchor="start" x="135.5" y="-406.8" font-family="arial" font-size="14.00"> 24 </text>
<polygon fill="none" stroke="black" points="0,-376 0,-399 125,-399 125,-376 0,-376"/>
<text text-anchor="start" x="42" y="-383.8" font-family="arial" font-size="14.00"> GND </text>
<polygon fill="none" stroke="black" points="125,-376 125,-399 174,-399 174,-376 125,-376"/>
<text text-anchor="start" x="135.5" y="-383.8" font-family="arial" font-size="14.00"> 13 </text>
</g>
<!-- W1 -->
<g id="node3" class="node">
<title>W1</title>
<polygon fill="#ffffff" stroke="black" points="662,-776 390,-776 390,-348 662,-348 662,-776"/>
<polygon fill="#ffffff" stroke="transparent" points="390,-348 390,-776 662,-776 662,-348 390,-348"/>
<polygon fill="#ffffff" stroke="transparent" points="390,-753 390,-776 662,-776 662,-753 390,-753"/>
<polygon fill="none" stroke="black" points="390,-753 390,-776 662,-776 662,-753 390,-753"/>
<text text-anchor="start" x="503.5" y="-761.8" font-family="arial" font-size="14.00"> </text>
<text text-anchor="start" x="508.5" y="-761.8" font-family="arial" font-weight="bold" font-size="14.00"> W1 </text>
<text text-anchor="start" x="543.5" y="-761.8" font-family="arial" font-size="14.00"> </text>
<polygon fill="none" stroke="black" points="390,-730 390,-753 442,-753 442,-730 390,-730"/>
<text text-anchor="start" x="398" y="-737.8" font-family="arial" font-size="14.00"> 12x </text>
<polygon fill="none" stroke="black" points="442,-730 442,-753 536,-753 536,-730 442,-730"/>
<text text-anchor="start" x="450" y="-737.8" font-family="arial" font-size="14.00"> 0.25 mm² </text>
<polygon fill="none" stroke="black" points="536,-730 536,-753 587,-753 587,-730 536,-730"/>
<text text-anchor="start" x="544" y="-737.8" font-family="arial" font-size="14.00"> + S </text>
<polygon fill="none" stroke="black" points="587,-730 587,-753 662,-753 662,-730 587,-730"/>
<text text-anchor="start" x="595" y="-737.8" font-family="arial" font-size="14.00"> 0.20 m </text>
<text text-anchor="start" x="457" y="-716.8" font-family="arial" font-size="14.00"> </text>
<text text-anchor="start" x="392" y="-697.8" font-family="arial" font-size="14.00"> X1:14:SENSE_N_1 </text>
<text text-anchor="start" x="531" y="-697.8" font-family="arial" font-size="14.00"> </text>
<text text-anchor="start" x="542.5" y="-697.8" font-family="arial" font-size="14.00"> 1:WH </text>
<text text-anchor="start" x="596" y="-697.8" font-family="arial" font-size="14.00"> </text>
<text text-anchor="start" x="615" y="-697.8" font-family="arial" font-size="14.00"> X2:z2</text>
<polygon fill="#000000" stroke="transparent" points="390,-690 390,-692 662,-692 662,-690 390,-690"/>
<polygon fill="#ffffff" stroke="transparent" points="390,-688 390,-690 662,-690 662,-688 390,-688"/>
<polygon fill="#000000" stroke="transparent" points="390,-686 390,-688 662,-688 662,-686 390,-686"/>
<text text-anchor="start" x="392" y="-672.8" font-family="arial" font-size="14.00"> X1:1:SENSE_P_1 </text>
<text text-anchor="start" x="531" y="-672.8" font-family="arial" font-size="14.00"> </text>
<text text-anchor="start" x="544.5" y="-672.8" font-family="arial" font-size="14.00"> 2:BN </text>
<text text-anchor="start" x="596" y="-672.8" font-family="arial" font-size="14.00"> </text>
<text text-anchor="start" x="614" y="-672.8" font-family="arial" font-size="14.00"> X2:d4</text>
<polygon fill="#000000" stroke="transparent" points="390,-665 390,-667 662,-667 662,-665 390,-665"/>
<polygon fill="#895956" stroke="transparent" points="390,-663 390,-665 662,-665 662,-663 390,-663"/>
<polygon fill="#000000" stroke="transparent" points="390,-661 390,-663 662,-663 662,-661 390,-661"/>
<text text-anchor="start" x="392" y="-647.8" font-family="arial" font-size="14.00"> X1:16:SENSE_N_2 </text>
<text text-anchor="start" x="531" y="-647.8" font-family="arial" font-size="14.00"> </text>
<text text-anchor="start" x="544" y="-647.8" font-family="arial" font-size="14.00"> 3:GN </text>
<text text-anchor="start" x="596" y="-647.8" font-family="arial" font-size="14.00"> </text>
<text text-anchor="start" x="615" y="-647.8" font-family="arial" font-size="14.00"> X2:z8</text>
<polygon fill="#000000" stroke="transparent" points="390,-640 390,-642 662,-642 662,-640 390,-640"/>
<polygon fill="#00aa00" stroke="transparent" points="390,-638 390,-640 662,-640 662,-638 390,-638"/>
<polygon fill="#000000" stroke="transparent" points="390,-636 390,-638 662,-638 662,-636 390,-636"/>
<text text-anchor="start" x="392" y="-622.8" font-family="arial" font-size="14.00"> X1:3:SENSE_P_2 </text>
<text text-anchor="start" x="531" y="-622.8" font-family="arial" font-size="14.00"> </text>
<text text-anchor="start" x="546" y="-622.8" font-family="arial" font-size="14.00"> 4:YE </text>
<text text-anchor="start" x="596" y="-622.8" font-family="arial" font-size="14.00"> </text>
<text text-anchor="start" x="605" y="-622.8" font-family="arial" font-size="14.00"> X2:d10</text>
<polygon fill="#000000" stroke="transparent" points="390,-615 390,-617 662,-617 662,-615 390,-615"/>
<polygon fill="#ffff00" stroke="transparent" points="390,-613 390,-615 662,-615 662,-613 390,-613"/>
<polygon fill="#000000" stroke="transparent" points="390,-611 390,-613 662,-613 662,-611 390,-611"/>
<text text-anchor="start" x="392" y="-597.8" font-family="arial" font-size="14.00"> X1:18:SENSE_N_3 </text>
<text text-anchor="start" x="531" y="-597.8" font-family="arial" font-size="14.00"> </text>
<text text-anchor="start" x="545" y="-597.8" font-family="arial" font-size="14.00"> 5:GY </text>
<text text-anchor="start" x="596" y="-597.8" font-family="arial" font-size="14.00"> </text>
<text text-anchor="start" x="606" y="-597.8" font-family="arial" font-size="14.00"> X2:z14</text>
<polygon fill="#000000" stroke="transparent" points="390,-590 390,-592 662,-592 662,-590 390,-590"/>
<polygon fill="#999999" stroke="transparent" points="390,-588 390,-590 662,-590 662,-588 390,-588"/>
<polygon fill="#000000" stroke="transparent" points="390,-586 390,-588 662,-588 662,-586 390,-586"/>
<text text-anchor="start" x="392" y="-572.8" font-family="arial" font-size="14.00"> X1:5:SENSE_P_3 </text>
<text text-anchor="start" x="531" y="-572.8" font-family="arial" font-size="14.00"> </text>
<text text-anchor="start" x="546" y="-572.8" font-family="arial" font-size="14.00"> 6:PK </text>
<text text-anchor="start" x="596" y="-572.8" font-family="arial" font-size="14.00"> </text>
<text text-anchor="start" x="605" y="-572.8" font-family="arial" font-size="14.00"> X2:d16</text>
<polygon fill="#000000" stroke="transparent" points="390,-565 390,-567 662,-567 662,-565 390,-565"/>
<polygon fill="#ff66cc" stroke="transparent" points="390,-563 390,-565 662,-565 662,-563 390,-563"/>
<polygon fill="#000000" stroke="transparent" points="390,-561 390,-563 662,-563 662,-561 390,-561"/>
<text text-anchor="start" x="392" y="-547.8" font-family="arial" font-size="14.00"> X1:20:SENSE_N_4 </text>
<text text-anchor="start" x="531" y="-547.8" font-family="arial" font-size="14.00"> </text>
<text text-anchor="start" x="544.5" y="-547.8" font-family="arial" font-size="14.00"> 7:BU </text>
<text text-anchor="start" x="596" y="-547.8" font-family="arial" font-size="14.00"> </text>
<text text-anchor="start" x="606" y="-547.8" font-family="arial" font-size="14.00"> X2:z18</text>
<polygon fill="#000000" stroke="transparent" points="390,-540 390,-542 662,-542 662,-540 390,-540"/>
<polygon fill="#0066ff" stroke="transparent" points="390,-538 390,-540 662,-540 662,-538 390,-538"/>
<polygon fill="#000000" stroke="transparent" points="390,-536 390,-538 662,-538 662,-536 390,-536"/>
<text text-anchor="start" x="392" y="-522.8" font-family="arial" font-size="14.00"> X1:7:SENSE_P_4 </text>
<text text-anchor="start" x="531" y="-522.8" font-family="arial" font-size="14.00"> </text>
<text text-anchor="start" x="544.5" y="-522.8" font-family="arial" font-size="14.00"> 8:RD </text>
<text text-anchor="start" x="596" y="-522.8" font-family="arial" font-size="14.00"> </text>
<text text-anchor="start" x="605" y="-522.8" font-family="arial" font-size="14.00"> X2:d20</text>
<polygon fill="#000000" stroke="transparent" points="390,-515 390,-517 662,-517 662,-515 390,-515"/>
<polygon fill="#ff0000" stroke="transparent" points="390,-513 390,-515 662,-515 662,-513 390,-513"/>
<polygon fill="#000000" stroke="transparent" points="390,-511 390,-513 662,-513 662,-511 390,-511"/>
<text text-anchor="start" x="392" y="-497.8" font-family="arial" font-size="14.00"> X1:22:SENSE_N_5 </text>
<text text-anchor="start" x="531" y="-497.8" font-family="arial" font-size="14.00"> </text>
<text text-anchor="start" x="545" y="-497.8" font-family="arial" font-size="14.00"> 9:BK </text>
<text text-anchor="start" x="596" y="-497.8" font-family="arial" font-size="14.00"> </text>
<text text-anchor="start" x="606" y="-497.8" font-family="arial" font-size="14.00"> X2:z24</text>
<polygon fill="#000000" stroke="transparent" points="390,-490 390,-492 662,-492 662,-490 390,-490"/>
<polygon fill="#000000" stroke="transparent" points="390,-488 390,-490 662,-490 662,-488 390,-488"/>
<polygon fill="#000000" stroke="transparent" points="390,-486 390,-488 662,-488 662,-486 390,-486"/>
<text text-anchor="start" x="392" y="-472.8" font-family="arial" font-size="14.00"> X1:9:SENSE_P_5 </text>
<text text-anchor="start" x="531" y="-472.8" font-family="arial" font-size="14.00"> </text>
<text text-anchor="start" x="541" y="-472.8" font-family="arial" font-size="14.00"> 10:VT </text>
<text text-anchor="start" x="596" y="-472.8" font-family="arial" font-size="14.00"> </text>
<text text-anchor="start" x="605" y="-472.8" font-family="arial" font-size="14.00"> X2:d26</text>
<polygon fill="#000000" stroke="transparent" points="390,-465 390,-467 662,-467 662,-465 390,-465"/>
<polygon fill="#8000ff" stroke="transparent" points="390,-463 390,-465 662,-465 662,-463 390,-463"/>
<polygon fill="#000000" stroke="transparent" points="390,-461 390,-463 662,-463 662,-461 390,-461"/>
<text text-anchor="start" x="392" y="-447.8" font-family="arial" font-size="14.00"> X1:24:SENSE_N_6 </text>
<text text-anchor="start" x="531" y="-447.8" font-family="arial" font-size="14.00"> </text>
<text text-anchor="start" x="540.5" y="-447.8" font-family="arial" font-size="14.00"> 11:GY </text>
<text text-anchor="start" x="596" y="-447.8" font-family="arial" font-size="14.00"> </text>
<text text-anchor="start" x="606" y="-447.8" font-family="arial" font-size="14.00"> X2:z30</text>
<polygon fill="#000000" stroke="transparent" points="390,-440 390,-442 662,-442 662,-440 390,-440"/>
<polygon fill="#999999" stroke="transparent" points="390,-438 390,-440 662,-440 662,-438 390,-438"/>
<polygon fill="#000000" stroke="transparent" points="390,-436 390,-438 662,-438 662,-436 390,-436"/>
<text text-anchor="start" x="392" y="-422.8" font-family="arial" font-size="14.00"> X1:11:SENSE_P_6 </text>
<text text-anchor="start" x="531" y="-422.8" font-family="arial" font-size="14.00"> </text>
<text text-anchor="start" x="540" y="-422.8" font-family="arial" font-size="14.00"> 12:BU </text>
<text text-anchor="start" x="596" y="-422.8" font-family="arial" font-size="14.00"> </text>
<text text-anchor="start" x="605" y="-422.8" font-family="arial" font-size="14.00"> X2:d32</text>
<polygon fill="#000000" stroke="transparent" points="390,-415 390,-417 662,-417 662,-415 390,-415"/>
<polygon fill="#0066ff" stroke="transparent" points="390,-413 390,-415 662,-415 662,-413 390,-413"/>
<polygon fill="#000000" stroke="transparent" points="390,-411 390,-413 662,-413 662,-411 390,-411"/>
<text text-anchor="start" x="457" y="-397.8" font-family="arial" font-size="14.00"> </text>
<text text-anchor="start" x="392" y="-378.8" font-family="arial" font-size="14.00"> X1:13:GND </text>
<text text-anchor="start" x="531" y="-378.8" font-family="arial" font-size="14.00"> </text>
<text text-anchor="start" x="540" y="-378.8" font-family="arial" font-size="14.00"> Shield </text>
<text text-anchor="start" x="596" y="-378.8" font-family="arial" font-size="14.00"> </text>
<text text-anchor="start" x="655" y="-378.8" font-family="arial" font-size="14.00"> </text>
<polygon fill="#000000" stroke="transparent" points="390,-371 390,-373 662,-373 662,-371 390,-371"/>
<polygon fill="#ffffff" stroke="transparent" points="390,-369 390,-371 662,-371 662,-369 390,-369"/>
<polygon fill="#000000" stroke="transparent" points="390,-367 390,-369 662,-369 662,-367 390,-367"/>
<text text-anchor="start" x="457" y="-353.8" font-family="arial" font-size="14.00"> </text>
</g>
<!-- X1&#45;&#45;W1 -->
<g id="edge1" class="edge">
<title>X1:e&#45;&#45;W1:w</title>
<path fill="none" stroke="#000000" stroke-width="2" d="M174,-664C174,-662 390,-662 390,-664"/>
<path fill="none" stroke="#895956" stroke-width="2" d="M174,-664C174,-664 390,-664 390,-664"/>
<path fill="none" stroke="#000000" stroke-width="2" d="M174,-664C174,-666 390,-666 390,-664"/>
</g>
<!-- X1&#45;&#45;W1 -->
<g id="edge3" class="edge">
<title>X1:e&#45;&#45;W1:w</title>
<path fill="none" stroke="#000000" stroke-width="2" d="M174,-641C174.43,-639.05 390.43,-687.05 390,-689"/>
<path fill="none" stroke="#ffffff" stroke-width="2" d="M174,-641C174,-641 390,-689 390,-689"/>
<path fill="none" stroke="#000000" stroke-width="2" d="M174,-641C173.57,-642.95 389.57,-690.95 390,-689"/>
</g>
<!-- X1&#45;&#45;W1 -->
<g id="edge5" class="edge">
<title>X1:e&#45;&#45;W1:w</title>
<path fill="none" stroke="#000000" stroke-width="2" d="M174,-618C173.96,-616 389.96,-612 390,-614"/>
<path fill="none" stroke="#ffff00" stroke-width="2" d="M174,-618C174,-618 390,-614 390,-614"/>
<path fill="none" stroke="#000000" stroke-width="2" d="M174,-618C174.04,-620 390.04,-616 390,-614"/>
</g>
<!-- X1&#45;&#45;W1 -->
<g id="edge7" class="edge">
<title>X1:e&#45;&#45;W1:w</title>
<path fill="none" stroke="#000000" stroke-width="2" d="M174,-595C174.4,-593.04 390.4,-637.04 390,-639"/>
<path fill="none" stroke="#00aa00" stroke-width="2" d="M174,-595C174,-595 390,-639 390,-639"/>
<path fill="none" stroke="#000000" stroke-width="2" d="M174,-595C173.6,-596.96 389.6,-640.96 390,-639"/>
</g>
<!-- X1&#45;&#45;W1 -->
<g id="edge9" class="edge">
<title>X1:e&#45;&#45;W1:w</title>
<path fill="none" stroke="#000000" stroke-width="2" d="M174,-572C173.93,-570 389.93,-562 390,-564"/>
<path fill="none" stroke="#ff66cc" stroke-width="2" d="M174,-572C174,-572 390,-564 390,-564"/>
<path fill="none" stroke="#000000" stroke-width="2" d="M174,-572C174.07,-574 390.07,-566 390,-564"/>
</g>
<!-- X1&#45;&#45;W1 -->
<g id="edge11" class="edge">
<title>X1:e&#45;&#45;W1:w</title>
<path fill="none" stroke="#000000" stroke-width="2" d="M174,-548C174.37,-546.04 390.37,-587.04 390,-589"/>
<path fill="none" stroke="#999999" stroke-width="2" d="M174,-548C174,-548 390,-589 390,-589"/>
<path fill="none" stroke="#000000" stroke-width="2" d="M174,-548C173.63,-549.96 389.63,-590.96 390,-589"/>
</g>
<!-- X1&#45;&#45;W1 -->
<g id="edge13" class="edge">
<title>X1:e&#45;&#45;W1:w</title>
<path fill="none" stroke="#000000" stroke-width="2" d="M174,-525C173.9,-523 389.9,-512 390,-514"/>
<path fill="none" stroke="#ff0000" stroke-width="2" d="M174,-525C174,-525 390,-514 390,-514"/>
<path fill="none" stroke="#000000" stroke-width="2" d="M174,-525C174.1,-527 390.1,-516 390,-514"/>
</g>
<!-- X1&#45;&#45;W1 -->
<g id="edge15" class="edge">
<title>X1:e&#45;&#45;W1:w</title>
<path fill="none" stroke="#000000" stroke-width="2" d="M174,-502C174.34,-500.03 390.34,-537.03 390,-539"/>
<path fill="none" stroke="#0066ff" stroke-width="2" d="M174,-502C174,-502 390,-539 390,-539"/>
<path fill="none" stroke="#000000" stroke-width="2" d="M174,-502C173.66,-503.97 389.66,-540.97 390,-539"/>
</g>
<!-- X1&#45;&#45;W1 -->
<g id="edge17" class="edge">
<title>X1:e&#45;&#45;W1:w</title>
<path fill="none" stroke="#000000" stroke-width="2" d="M174,-479C173.86,-477 389.86,-462 390,-464"/>
<path fill="none" stroke="#8000ff" stroke-width="2" d="M174,-479C174,-479 390,-464 390,-464"/>
<path fill="none" stroke="#000000" stroke-width="2" d="M174,-479C174.14,-481 390.14,-466 390,-464"/>
</g>
<!-- X1&#45;&#45;W1 -->
<g id="edge19" class="edge">
<title>X1:e&#45;&#45;W1:w</title>
<path fill="none" stroke="#000000" stroke-width="2" d="M174,-456C174.3,-454.02 390.3,-487.02 390,-489"/>
<path fill="none" stroke="#000000" stroke-width="2" d="M174,-456C174,-456 390,-489 390,-489"/>
<path fill="none" stroke="#000000" stroke-width="2" d="M174,-456C173.7,-457.98 389.7,-490.98 390,-489"/>
</g>
<!-- X1&#45;&#45;W1 -->
<g id="edge21" class="edge">
<title>X1:e&#45;&#45;W1:w</title>
<path fill="none" stroke="#000000" stroke-width="2" d="M174,-433C173.82,-431.01 389.82,-412.01 390,-414"/>
<path fill="none" stroke="#0066ff" stroke-width="2" d="M174,-433C174,-433 390,-414 390,-414"/>
<path fill="none" stroke="#000000" stroke-width="2" d="M174,-433C174.18,-434.99 390.18,-415.99 390,-414"/>
</g>
<!-- X1&#45;&#45;W1 -->
<g id="edge23" class="edge">
<title>X1:e&#45;&#45;W1:w</title>
<path fill="none" stroke="#000000" stroke-width="2" d="M174,-410C174.27,-408.02 390.27,-437.02 390,-439"/>
<path fill="none" stroke="#999999" stroke-width="2" d="M174,-410C174,-410 390,-439 390,-439"/>
<path fill="none" stroke="#000000" stroke-width="2" d="M174,-410C173.73,-411.98 389.73,-440.98 390,-439"/>
</g>
<!-- X1&#45;&#45;W1 -->
<g id="edge25" class="edge">
<title>X1:e&#45;&#45;W1:w</title>
<path fill="none" stroke="#000000" stroke-width="2" d="M174,-387C174,-387 390,-370 390,-370"/>
</g>
<!-- X2 -->
<g id="node2" class="node">
<title>X2</title>
<polygon fill="#ffffff" stroke="black" points="1050,-1150 878,-1150 878,0 1050,0 1050,-1150"/>
<polygon fill="#ffffff" stroke="transparent" points="878,0 878,-1150 1050,-1150 1050,0 878,0"/>
<polygon fill="#ffffff" stroke="transparent" points="878,-1127 878,-1150 1050,-1150 1050,-1127 878,-1127"/>
<polygon fill="none" stroke="black" points="878,-1127 878,-1150 1050,-1150 1050,-1127 878,-1127"/>
<text text-anchor="start" x="944" y="-1135.8" font-family="arial" font-size="14.00"> </text>
<text text-anchor="start" x="949" y="-1135.8" font-family="arial" font-weight="bold" font-size="14.00"> X2 </text>
<text text-anchor="start" x="979" y="-1135.8" font-family="arial" font-size="14.00"> </text>
<polygon fill="none" stroke="black" points="878,-1104 878,-1127 922,-1127 922,-1104 878,-1104"/>
<text text-anchor="start" x="882" y="-1111.8" font-family="arial" font-size="14.00"> F48 </text>
<polygon fill="none" stroke="black" points="922,-1104 922,-1127 987,-1127 987,-1104 922,-1104"/>
<text text-anchor="start" x="926" y="-1111.8" font-family="arial" font-size="14.00"> female </text>
<polygon fill="none" stroke="black" points="987,-1104 987,-1127 1050,-1127 1050,-1104 987,-1104"/>
<text text-anchor="start" x="991" y="-1111.8" font-family="arial" font-size="14.00"> 48&#45;pin </text>
<polygon fill="none" stroke="black" points="878,-1081 878,-1104 948,-1104 948,-1081 878,-1081"/>
<text text-anchor="start" x="900" y="-1088.8" font-family="arial" font-size="14.00"> z2 </text>
<polygon fill="none" stroke="black" points="948,-1081 948,-1104 1050,-1104 1050,-1081 948,-1081"/>
<text text-anchor="start" x="976" y="-1088.8" font-family="arial" font-size="14.00"> None </text>
<polygon fill="none" stroke="black" points="878,-1058 878,-1081 948,-1081 948,-1058 878,-1058"/>
<text text-anchor="start" x="899" y="-1065.8" font-family="arial" font-size="14.00"> b2 </text>
<polygon fill="none" stroke="black" points="948,-1058 948,-1081 1050,-1081 1050,-1058 948,-1058"/>
<text text-anchor="start" x="976" y="-1065.8" font-family="arial" font-size="14.00"> None </text>
<polygon fill="none" stroke="black" points="878,-1035 878,-1058 948,-1058 948,-1035 878,-1035"/>
<text text-anchor="start" x="899" y="-1042.8" font-family="arial" font-size="14.00"> d2 </text>
<polygon fill="none" stroke="black" points="948,-1035 948,-1058 1050,-1058 1050,-1035 948,-1035"/>
<text text-anchor="start" x="976" y="-1042.8" font-family="arial" font-size="14.00"> None </text>
<polygon fill="none" stroke="black" points="878,-1012 878,-1035 948,-1035 948,-1012 878,-1012"/>
<text text-anchor="start" x="900" y="-1019.8" font-family="arial" font-size="14.00"> z4 </text>
<polygon fill="none" stroke="black" points="948,-1012 948,-1035 1050,-1035 1050,-1012 948,-1012"/>
<text text-anchor="start" x="976" y="-1019.8" font-family="arial" font-size="14.00"> None </text>
<polygon fill="none" stroke="black" points="878,-989 878,-1012 948,-1012 948,-989 878,-989"/>
<text text-anchor="start" x="899" y="-996.8" font-family="arial" font-size="14.00"> b4 </text>
<polygon fill="none" stroke="black" points="948,-989 948,-1012 1050,-1012 1050,-989 948,-989"/>
<text text-anchor="start" x="976" y="-996.8" font-family="arial" font-size="14.00"> None </text>
<polygon fill="none" stroke="black" points="878,-966 878,-989 948,-989 948,-966 878,-966"/>
<text text-anchor="start" x="899" y="-973.8" font-family="arial" font-size="14.00"> d4 </text>
<polygon fill="none" stroke="black" points="948,-966 948,-989 1050,-989 1050,-966 948,-966"/>
<text text-anchor="start" x="976" y="-973.8" font-family="arial" font-size="14.00"> None </text>
<polygon fill="none" stroke="black" points="878,-943 878,-966 948,-966 948,-943 878,-943"/>
<text text-anchor="start" x="900" y="-950.8" font-family="arial" font-size="14.00"> z6 </text>
<polygon fill="none" stroke="black" points="948,-943 948,-966 1050,-966 1050,-943 948,-943"/>
<text text-anchor="start" x="976" y="-950.8" font-family="arial" font-size="14.00"> None </text>
<polygon fill="none" stroke="black" points="878,-920 878,-943 948,-943 948,-920 878,-920"/>
<text text-anchor="start" x="899" y="-927.8" font-family="arial" font-size="14.00"> b6 </text>
<polygon fill="none" stroke="black" points="948,-920 948,-943 1050,-943 1050,-920 948,-920"/>
<text text-anchor="start" x="976" y="-927.8" font-family="arial" font-size="14.00"> None </text>
<polygon fill="none" stroke="black" points="878,-897 878,-920 948,-920 948,-897 878,-897"/>
<text text-anchor="start" x="899" y="-904.8" font-family="arial" font-size="14.00"> d6 </text>
<polygon fill="none" stroke="black" points="948,-897 948,-920 1050,-920 1050,-897 948,-897"/>
<text text-anchor="start" x="976" y="-904.8" font-family="arial" font-size="14.00"> None </text>
<polygon fill="none" stroke="black" points="878,-874 878,-897 948,-897 948,-874 878,-874"/>
<text text-anchor="start" x="900" y="-881.8" font-family="arial" font-size="14.00"> z8 </text>
<polygon fill="none" stroke="black" points="948,-874 948,-897 1050,-897 1050,-874 948,-874"/>
<text text-anchor="start" x="976" y="-881.8" font-family="arial" font-size="14.00"> None </text>
<polygon fill="none" stroke="black" points="878,-851 878,-874 948,-874 948,-851 878,-851"/>
<text text-anchor="start" x="899" y="-858.8" font-family="arial" font-size="14.00"> b8 </text>
<polygon fill="none" stroke="black" points="948,-851 948,-874 1050,-874 1050,-851 948,-851"/>
<text text-anchor="start" x="976" y="-858.8" font-family="arial" font-size="14.00"> None </text>
<polygon fill="none" stroke="black" points="878,-828 878,-851 948,-851 948,-828 878,-828"/>
<text text-anchor="start" x="899" y="-835.8" font-family="arial" font-size="14.00"> d8 </text>
<polygon fill="none" stroke="black" points="948,-828 948,-851 1050,-851 1050,-828 948,-828"/>
<text text-anchor="start" x="976" y="-835.8" font-family="arial" font-size="14.00"> None </text>
<polygon fill="none" stroke="black" points="878,-805 878,-828 948,-828 948,-805 878,-805"/>
<text text-anchor="start" x="895.5" y="-812.8" font-family="arial" font-size="14.00"> z10 </text>
<polygon fill="none" stroke="black" points="948,-805 948,-828 1050,-828 1050,-805 948,-805"/>
<text text-anchor="start" x="976" y="-812.8" font-family="arial" font-size="14.00"> None </text>
<polygon fill="none" stroke="black" points="878,-782 878,-805 948,-805 948,-782 878,-782"/>
<text text-anchor="start" x="894.5" y="-789.8" font-family="arial" font-size="14.00"> b10 </text>
<polygon fill="none" stroke="black" points="948,-782 948,-805 1050,-805 1050,-782 948,-782"/>
<text text-anchor="start" x="976" y="-789.8" font-family="arial" font-size="14.00"> None </text>
<polygon fill="none" stroke="black" points="878,-759 878,-782 948,-782 948,-759 878,-759"/>
<text text-anchor="start" x="894.5" y="-766.8" font-family="arial" font-size="14.00"> d10 </text>
<polygon fill="none" stroke="black" points="948,-759 948,-782 1050,-782 1050,-759 948,-759"/>
<text text-anchor="start" x="976" y="-766.8" font-family="arial" font-size="14.00"> None </text>
<polygon fill="none" stroke="black" points="878,-736 878,-759 948,-759 948,-736 878,-736"/>
<text text-anchor="start" x="895.5" y="-743.8" font-family="arial" font-size="14.00"> z12 </text>
<polygon fill="none" stroke="black" points="948,-736 948,-759 1050,-759 1050,-736 948,-736"/>
<text text-anchor="start" x="976" y="-743.8" font-family="arial" font-size="14.00"> None </text>
<polygon fill="none" stroke="black" points="878,-713 878,-736 948,-736 948,-713 878,-713"/>
<text text-anchor="start" x="894.5" y="-720.8" font-family="arial" font-size="14.00"> b12 </text>
<polygon fill="none" stroke="black" points="948,-713 948,-736 1050,-736 1050,-713 948,-713"/>
<text text-anchor="start" x="976" y="-720.8" font-family="arial" font-size="14.00"> None </text>
<polygon fill="none" stroke="black" points="878,-690 878,-713 948,-713 948,-690 878,-690"/>
<text text-anchor="start" x="894.5" y="-697.8" font-family="arial" font-size="14.00"> d12 </text>
<polygon fill="none" stroke="black" points="948,-690 948,-713 1050,-713 1050,-690 948,-690"/>
<text text-anchor="start" x="976" y="-697.8" font-family="arial" font-size="14.00"> None </text>
<polygon fill="none" stroke="black" points="878,-667 878,-690 948,-690 948,-667 878,-667"/>
<text text-anchor="start" x="895.5" y="-674.8" font-family="arial" font-size="14.00"> z14 </text>
<polygon fill="none" stroke="black" points="948,-667 948,-690 1050,-690 1050,-667 948,-667"/>
<text text-anchor="start" x="976" y="-674.8" font-family="arial" font-size="14.00"> None </text>
<polygon fill="none" stroke="black" points="878,-644 878,-667 948,-667 948,-644 878,-644"/>
<text text-anchor="start" x="894.5" y="-651.8" font-family="arial" font-size="14.00"> b14 </text>
<polygon fill="none" stroke="black" points="948,-644 948,-667 1050,-667 1050,-644 948,-644"/>
<text text-anchor="start" x="976" y="-651.8" font-family="arial" font-size="14.00"> None </text>
<polygon fill="none" stroke="black" points="878,-621 878,-644 948,-644 948,-621 878,-621"/>
<text text-anchor="start" x="894.5" y="-628.8" font-family="arial" font-size="14.00"> d14 </text>
<polygon fill="none" stroke="black" points="948,-621 948,-644 1050,-644 1050,-621 948,-621"/>
<text text-anchor="start" x="976" y="-628.8" font-family="arial" font-size="14.00"> None </text>
<polygon fill="none" stroke="black" points="878,-598 878,-621 948,-621 948,-598 878,-598"/>
<text text-anchor="start" x="895.5" y="-605.8" font-family="arial" font-size="14.00"> z16 </text>
<polygon fill="none" stroke="black" points="948,-598 948,-621 1050,-621 1050,-598 948,-598"/>
<text text-anchor="start" x="976" y="-605.8" font-family="arial" font-size="14.00"> None </text>
<polygon fill="none" stroke="black" points="878,-575 878,-598 948,-598 948,-575 878,-575"/>
<text text-anchor="start" x="894.5" y="-582.8" font-family="arial" font-size="14.00"> b16 </text>
<polygon fill="none" stroke="black" points="948,-575 948,-598 1050,-598 1050,-575 948,-575"/>
<text text-anchor="start" x="976" y="-582.8" font-family="arial" font-size="14.00"> None </text>
<polygon fill="none" stroke="black" points="878,-552 878,-575 948,-575 948,-552 878,-552"/>
<text text-anchor="start" x="894.5" y="-559.8" font-family="arial" font-size="14.00"> d16 </text>
<polygon fill="none" stroke="black" points="948,-552 948,-575 1050,-575 1050,-552 948,-552"/>
<text text-anchor="start" x="976" y="-559.8" font-family="arial" font-size="14.00"> None </text>
<polygon fill="none" stroke="black" points="878,-529 878,-552 948,-552 948,-529 878,-529"/>
<text text-anchor="start" x="895.5" y="-536.8" font-family="arial" font-size="14.00"> z18 </text>
<polygon fill="none" stroke="black" points="948,-529 948,-552 1050,-552 1050,-529 948,-529"/>
<text text-anchor="start" x="976" y="-536.8" font-family="arial" font-size="14.00"> None </text>
<polygon fill="none" stroke="black" points="878,-506 878,-529 948,-529 948,-506 878,-506"/>
<text text-anchor="start" x="894.5" y="-513.8" font-family="arial" font-size="14.00"> b18 </text>
<polygon fill="none" stroke="black" points="948,-506 948,-529 1050,-529 1050,-506 948,-506"/>
<text text-anchor="start" x="976" y="-513.8" font-family="arial" font-size="14.00"> None </text>
<polygon fill="none" stroke="black" points="878,-483 878,-506 948,-506 948,-483 878,-483"/>
<text text-anchor="start" x="894.5" y="-490.8" font-family="arial" font-size="14.00"> d18 </text>
<polygon fill="none" stroke="black" points="948,-483 948,-506 1050,-506 1050,-483 948,-483"/>
<text text-anchor="start" x="976" y="-490.8" font-family="arial" font-size="14.00"> None </text>
<polygon fill="none" stroke="black" points="878,-460 878,-483 948,-483 948,-460 878,-460"/>
<text text-anchor="start" x="895.5" y="-467.8" font-family="arial" font-size="14.00"> z20 </text>
<polygon fill="none" stroke="black" points="948,-460 948,-483 1050,-483 1050,-460 948,-460"/>
<text text-anchor="start" x="976" y="-467.8" font-family="arial" font-size="14.00"> None </text>
<polygon fill="none" stroke="black" points="878,-437 878,-460 948,-460 948,-437 878,-437"/>
<text text-anchor="start" x="894.5" y="-444.8" font-family="arial" font-size="14.00"> b20 </text>
<polygon fill="none" stroke="black" points="948,-437 948,-460 1050,-460 1050,-437 948,-437"/>
<text text-anchor="start" x="976" y="-444.8" font-family="arial" font-size="14.00"> None </text>
<polygon fill="none" stroke="black" points="878,-414 878,-437 948,-437 948,-414 878,-414"/>
<text text-anchor="start" x="894.5" y="-421.8" font-family="arial" font-size="14.00"> d20 </text>
<polygon fill="none" stroke="black" points="948,-414 948,-437 1050,-437 1050,-414 948,-414"/>
<text text-anchor="start" x="976" y="-421.8" font-family="arial" font-size="14.00"> None </text>
<polygon fill="none" stroke="black" points="878,-391 878,-414 948,-414 948,-391 878,-391"/>
<text text-anchor="start" x="895.5" y="-398.8" font-family="arial" font-size="14.00"> z22 </text>
<polygon fill="none" stroke="black" points="948,-391 948,-414 1050,-414 1050,-391 948,-391"/>
<text text-anchor="start" x="976" y="-398.8" font-family="arial" font-size="14.00"> None </text>
<polygon fill="none" stroke="black" points="878,-368 878,-391 948,-391 948,-368 878,-368"/>
<text text-anchor="start" x="894.5" y="-375.8" font-family="arial" font-size="14.00"> b22 </text>
<polygon fill="none" stroke="black" points="948,-368 948,-391 1050,-391 1050,-368 948,-368"/>
<text text-anchor="start" x="976" y="-375.8" font-family="arial" font-size="14.00"> None </text>
<polygon fill="none" stroke="black" points="878,-345 878,-368 948,-368 948,-345 878,-345"/>
<text text-anchor="start" x="894.5" y="-352.8" font-family="arial" font-size="14.00"> d22 </text>
<polygon fill="none" stroke="black" points="948,-345 948,-368 1050,-368 1050,-345 948,-345"/>
<text text-anchor="start" x="976" y="-352.8" font-family="arial" font-size="14.00"> None </text>
<polygon fill="none" stroke="black" points="878,-322 878,-345 948,-345 948,-322 878,-322"/>
<text text-anchor="start" x="895.5" y="-329.8" font-family="arial" font-size="14.00"> z24 </text>
<polygon fill="none" stroke="black" points="948,-322 948,-345 1050,-345 1050,-322 948,-322"/>
<text text-anchor="start" x="976" y="-329.8" font-family="arial" font-size="14.00"> None </text>
<polygon fill="none" stroke="black" points="878,-299 878,-322 948,-322 948,-299 878,-299"/>
<text text-anchor="start" x="894.5" y="-306.8" font-family="arial" font-size="14.00"> b24 </text>
<polygon fill="none" stroke="black" points="948,-299 948,-322 1050,-322 1050,-299 948,-299"/>
<text text-anchor="start" x="976" y="-306.8" font-family="arial" font-size="14.00"> None </text>
<polygon fill="none" stroke="black" points="878,-276 878,-299 948,-299 948,-276 878,-276"/>
<text text-anchor="start" x="894.5" y="-283.8" font-family="arial" font-size="14.00"> d24 </text>
<polygon fill="none" stroke="black" points="948,-276 948,-299 1050,-299 1050,-276 948,-276"/>
<text text-anchor="start" x="976" y="-283.8" font-family="arial" font-size="14.00"> None </text>
<polygon fill="none" stroke="black" points="878,-253 878,-276 948,-276 948,-253 878,-253"/>
<text text-anchor="start" x="895.5" y="-260.8" font-family="arial" font-size="14.00"> z26 </text>
<polygon fill="none" stroke="black" points="948,-253 948,-276 1050,-276 1050,-253 948,-253"/>
<text text-anchor="start" x="976" y="-260.8" font-family="arial" font-size="14.00"> None </text>
<polygon fill="none" stroke="black" points="878,-230 878,-253 948,-253 948,-230 878,-230"/>
<text text-anchor="start" x="894.5" y="-237.8" font-family="arial" font-size="14.00"> b26 </text>
<polygon fill="none" stroke="black" points="948,-230 948,-253 1050,-253 1050,-230 948,-230"/>
<text text-anchor="start" x="976" y="-237.8" font-family="arial" font-size="14.00"> None </text>
<polygon fill="none" stroke="black" points="878,-207 878,-230 948,-230 948,-207 878,-207"/>
<text text-anchor="start" x="894.5" y="-214.8" font-family="arial" font-size="14.00"> d26 </text>
<polygon fill="none" stroke="black" points="948,-207 948,-230 1050,-230 1050,-207 948,-207"/>
<text text-anchor="start" x="976" y="-214.8" font-family="arial" font-size="14.00"> None </text>
<polygon fill="none" stroke="black" points="878,-184 878,-207 948,-207 948,-184 878,-184"/>
<text text-anchor="start" x="895.5" y="-191.8" font-family="arial" font-size="14.00"> z28 </text>
<polygon fill="none" stroke="black" points="948,-184 948,-207 1050,-207 1050,-184 948,-184"/>
<text text-anchor="start" x="976" y="-191.8" font-family="arial" font-size="14.00"> None </text>
<polygon fill="none" stroke="black" points="878,-161 878,-184 948,-184 948,-161 878,-161"/>
<text text-anchor="start" x="894.5" y="-168.8" font-family="arial" font-size="14.00"> b28 </text>
<polygon fill="none" stroke="black" points="948,-161 948,-184 1050,-184 1050,-161 948,-161"/>
<text text-anchor="start" x="976" y="-168.8" font-family="arial" font-size="14.00"> None </text>
<polygon fill="none" stroke="black" points="878,-138 878,-161 948,-161 948,-138 878,-138"/>
<text text-anchor="start" x="894.5" y="-145.8" font-family="arial" font-size="14.00"> d28 </text>
<polygon fill="none" stroke="black" points="948,-138 948,-161 1050,-161 1050,-138 948,-138"/>
<text text-anchor="start" x="976" y="-145.8" font-family="arial" font-size="14.00"> None </text>
<polygon fill="none" stroke="black" points="878,-115 878,-138 948,-138 948,-115 878,-115"/>
<text text-anchor="start" x="895.5" y="-122.8" font-family="arial" font-size="14.00"> z30 </text>
<polygon fill="none" stroke="black" points="948,-115 948,-138 1050,-138 1050,-115 948,-115"/>
<text text-anchor="start" x="976" y="-122.8" font-family="arial" font-size="14.00"> None </text>
<polygon fill="none" stroke="black" points="878,-92 878,-115 948,-115 948,-92 878,-92"/>
<text text-anchor="start" x="894.5" y="-99.8" font-family="arial" font-size="14.00"> b30 </text>
<polygon fill="none" stroke="black" points="948,-92 948,-115 1050,-115 1050,-92 948,-92"/>
<text text-anchor="start" x="976" y="-99.8" font-family="arial" font-size="14.00"> None </text>
<polygon fill="none" stroke="black" points="878,-69 878,-92 948,-92 948,-69 878,-69"/>
<text text-anchor="start" x="894.5" y="-76.8" font-family="arial" font-size="14.00"> d30 </text>
<polygon fill="none" stroke="black" points="948,-69 948,-92 1050,-92 1050,-69 948,-69"/>
<text text-anchor="start" x="976" y="-76.8" font-family="arial" font-size="14.00"> None </text>
<polygon fill="none" stroke="black" points="878,-46 878,-69 948,-69 948,-46 878,-46"/>
<text text-anchor="start" x="895.5" y="-53.8" font-family="arial" font-size="14.00"> z32 </text>
<polygon fill="none" stroke="black" points="948,-46 948,-69 1050,-69 1050,-46 948,-46"/>
<text text-anchor="start" x="976" y="-53.8" font-family="arial" font-size="14.00"> None </text>
<polygon fill="none" stroke="black" points="878,-23 878,-46 948,-46 948,-23 878,-23"/>
<text text-anchor="start" x="894.5" y="-30.8" font-family="arial" font-size="14.00"> b32 </text>
<polygon fill="none" stroke="black" points="948,-23 948,-46 1050,-46 1050,-23 948,-23"/>
<text text-anchor="start" x="976" y="-30.8" font-family="arial" font-size="14.00"> None </text>
<polygon fill="none" stroke="black" points="878,0 878,-23 948,-23 948,0 878,0"/>
<text text-anchor="start" x="894.5" y="-7.8" font-family="arial" font-size="14.00"> d32 </text>
<polygon fill="none" stroke="black" points="948,0 948,-23 1050,-23 1050,0 948,0"/>
<text text-anchor="start" x="976" y="-7.8" font-family="arial" font-size="14.00"> None </text>
</g>
<!-- W1&#45;&#45;X2 -->
<g id="edge2" class="edge">
<title>W1:e&#45;&#45;X2:w</title>
<path fill="none" stroke="#000000" stroke-width="2" d="M662,-664C663.65,-662.87 879.65,-976.87 878,-978"/>
<path fill="none" stroke="#895956" stroke-width="2" d="M662,-664C662,-664 878,-978 878,-978"/>
<path fill="none" stroke="#000000" stroke-width="2" d="M662,-664C660.35,-665.13 876.35,-979.13 878,-978"/>
</g>
<!-- W1&#45;&#45;X2 -->
<g id="edge4" class="edge">
<title>W1:e&#45;&#45;X2:w</title>
<path fill="none" stroke="#000000" stroke-width="2" d="M662,-689C663.76,-688.06 879.76,-1092.06 878,-1093"/>
<path fill="none" stroke="#ffffff" stroke-width="2" d="M662,-689C662,-689 878,-1093 878,-1093"/>
<path fill="none" stroke="#000000" stroke-width="2" d="M662,-689C660.24,-689.94 876.24,-1093.94 878,-1093"/>
</g>
<!-- W1&#45;&#45;X2 -->
<g id="edge6" class="edge">
<title>W1:e&#45;&#45;X2:w</title>
<path fill="none" stroke="#000000" stroke-width="2" d="M662,-614C663.18,-612.38 879.18,-769.38 878,-771"/>
<path fill="none" stroke="#ffff00" stroke-width="2" d="M662,-614C662,-614 878,-771 878,-771"/>
<path fill="none" stroke="#000000" stroke-width="2" d="M662,-614C660.82,-615.62 876.82,-772.62 878,-771"/>
</g>
<!-- W1&#45;&#45;X2 -->
<g id="edge8" class="edge">
<title>W1:e&#45;&#45;X2:w</title>
<path fill="none" stroke="#000000" stroke-width="2" d="M662,-639C663.51,-637.68 879.51,-884.68 878,-886"/>
<path fill="none" stroke="#00aa00" stroke-width="2" d="M662,-639C662,-639 878,-886 878,-886"/>
<path fill="none" stroke="#000000" stroke-width="2" d="M662,-639C660.49,-640.32 876.49,-887.32 878,-886"/>
</g>
<!-- W1&#45;&#45;X2 -->
<g id="edge10" class="edge">
<title>W1:e&#45;&#45;X2:w</title>
<path fill="none" stroke="#000000" stroke-width="2" d="M662,-564C661.99,-562 877.99,-561 878,-563"/>
<path fill="none" stroke="#ff66cc" stroke-width="2" d="M662,-564C662,-564 878,-563 878,-563"/>
<path fill="none" stroke="#000000" stroke-width="2" d="M662,-564C662.01,-566 878.01,-565 878,-563"/>
</g>
<!-- W1&#45;&#45;X2 -->
<g id="edge12" class="edge">
<title>W1:e&#45;&#45;X2:w</title>
<path fill="none" stroke="#000000" stroke-width="2" d="M662,-589C662.77,-587.15 878.77,-677.15 878,-679"/>
<path fill="none" stroke="#999999" stroke-width="2" d="M662,-589C662,-589 878,-679 878,-679"/>
<path fill="none" stroke="#000000" stroke-width="2" d="M662,-589C661.23,-590.85 877.23,-680.85 878,-679"/>
</g>
<!-- W1&#45;&#45;X2 -->
<g id="edge14" class="edge">
<title>W1:e&#45;&#45;X2:w</title>
<path fill="none" stroke="#000000" stroke-width="2" d="M662,-514C661.24,-512.15 877.24,-423.15 878,-425"/>
<path fill="none" stroke="#ff0000" stroke-width="2" d="M662,-514C662,-514 878,-425 878,-425"/>
<path fill="none" stroke="#000000" stroke-width="2" d="M662,-514C662.76,-515.85 878.76,-426.85 878,-425"/>
</g>
<!-- W1&#45;&#45;X2 -->
<g id="edge16" class="edge">
<title>W1:e&#45;&#45;X2:w</title>
<path fill="none" stroke="#000000" stroke-width="2" d="M662,-539C662.01,-537 878.01,-538 878,-540"/>
<path fill="none" stroke="#0066ff" stroke-width="2" d="M662,-539C662,-539 878,-540 878,-540"/>
<path fill="none" stroke="#000000" stroke-width="2" d="M662,-539C661.99,-541 877.99,-542 878,-540"/>
</g>
<!-- W1&#45;&#45;X2 -->
<g id="edge18" class="edge">
<title>W1:e&#45;&#45;X2:w</title>
<path fill="none" stroke="#000000" stroke-width="2" d="M662,-464C660.5,-462.68 876.5,-216.68 878,-218"/>
<path fill="none" stroke="#8000ff" stroke-width="2" d="M662,-464C662,-464 878,-218 878,-218"/>
<path fill="none" stroke="#000000" stroke-width="2" d="M662,-464C663.5,-465.32 879.5,-219.32 878,-218"/>
</g>
<!-- W1&#45;&#45;X2 -->
<g id="edge20" class="edge">
<title>W1:e&#45;&#45;X2:w</title>
<path fill="none" stroke="#000000" stroke-width="2" d="M662,-489C660.83,-487.38 876.83,-331.38 878,-333"/>
<path fill="none" stroke="#000000" stroke-width="2" d="M662,-489C662,-489 878,-333 878,-333"/>
<path fill="none" stroke="#000000" stroke-width="2" d="M662,-489C663.17,-490.62 879.17,-334.62 878,-333"/>
</g>
<!-- W1&#45;&#45;X2 -->
<g id="edge22" class="edge">
<title>W1:e&#45;&#45;X2:w</title>
<path fill="none" stroke="#000000" stroke-width="2" d="M662,-414C660.24,-413.06 876.24,-10.06 878,-11"/>
<path fill="none" stroke="#0066ff" stroke-width="2" d="M662,-414C662,-414 878,-11 878,-11"/>
<path fill="none" stroke="#000000" stroke-width="2" d="M662,-414C663.76,-414.94 879.76,-11.94 878,-11"/>
</g>
<!-- W1&#45;&#45;X2 -->
<g id="edge24" class="edge">
<title>W1:e&#45;&#45;X2:w</title>
<path fill="none" stroke="#000000" stroke-width="2" d="M662,-439C660.35,-437.86 876.35,-124.86 878,-126"/>
<path fill="none" stroke="#999999" stroke-width="2" d="M662,-439C662,-439 878,-126 878,-126"/>
<path fill="none" stroke="#000000" stroke-width="2" d="M662,-439C663.65,-440.14 879.65,-127.14 878,-126"/>
</g>
</g>
</svg>
