<?xml version="1.0" encoding="UTF-8" standalone="no"?>
<!DOCTYPE svg PUBLIC "-//W3C//DTD SVG 1.1//EN"
 "http://www.w3.org/Graphics/SVG/1.1/DTD/svg11.dtd">
<!-- Generated by graphviz version 2.43.0 (0)
 -->
<!-- Title: %3 Pages: 1 -->
<svg width="1385pt" height="292pt"
 viewBox="0.00 0.00 1385.00 292.00" xmlns="http://www.w3.org/2000/svg" xmlns:xlink="http://www.w3.org/1999/xlink">
<g id="graph0" class="graph" transform="scale(1 1) rotate(0) translate(4 288)">
<title>%3</title>
<polygon fill="#ffffff" stroke="transparent" points="-4,4 -4,-288 1381,-288 1381,4 -4,4"/>
<!-- X1 -->
<g id="node1" class="node">
<title>X1</title>
<polygon fill="#ffffff" stroke="black" points="357,-248 0,-248 0,-18 357,-18 357,-248"/>
<polygon fill="#ffffff" stroke="transparent" points="0,-18 0,-248 357,-248 357,-18 0,-18"/>
<polygon fill="#ffffff" stroke="transparent" points="0.5,-225 0.5,-248 357.5,-248 357.5,-225 0.5,-225"/>
<polygon fill="none" stroke="black" points="0.5,-225 0.5,-248 357.5,-248 357.5,-225 0.5,-225"/>
<text text-anchor="start" x="159" y="-233.8" font-family="arial" font-size="14.00"> </text>
<text text-anchor="start" x="164" y="-233.8" font-family="arial" font-weight="bold" font-size="14.00"> X1 </text>
<text text-anchor="start" x="194" y="-233.8" font-family="arial" font-size="14.00"> </text>
<polygon fill="none" stroke="black" points="0.5,-202 0.5,-225 252.5,-225 252.5,-202 0.5,-202"/>
<text text-anchor="start" x="4.5" y="-209.8" font-family="arial" font-size="14.00"> Stewart Connector SS&#45;37000&#45;002 </text>
<polygon fill="none" stroke="black" points="252.5,-202 252.5,-225 303.5,-225 303.5,-202 252.5,-202"/>
<text text-anchor="start" x="256.5" y="-209.8" font-family="arial" font-size="14.00"> male </text>
<polygon fill="none" stroke="black" points="303.5,-202 303.5,-225 357.5,-225 357.5,-202 303.5,-202"/>
<text text-anchor="start" x="307.5" y="-209.8" font-family="arial" font-size="14.00"> 8&#45;pin </text>
<polygon fill="none" stroke="black" points="0.5,-179 0.5,-202 237.5,-202 237.5,-179 0.5,-179"/>
<text text-anchor="start" x="98" y="-186.8" font-family="arial" font-size="14.00"> DA+ </text>
<polygon fill="none" stroke="black" points="237.5,-179 237.5,-202 357.5,-202 357.5,-179 237.5,-179"/>
<text text-anchor="start" x="288" y="-186.8" font-family="arial" font-size="14.00"> 1 </text>
<polygon fill="none" stroke="black" points="0.5,-156 0.5,-179 237.5,-179 237.5,-156 0.5,-156"/>
<text text-anchor="start" x="102" y="-163.8" font-family="arial" font-size="14.00"> DA&#45; </text>
<polygon fill="none" stroke="black" points="237.5,-156 237.5,-179 357.5,-179 357.5,-156 237.5,-156"/>
<text text-anchor="start" x="288" y="-163.8" font-family="arial" font-size="14.00"> 2 </text>
<polygon fill="none" stroke="black" points="0.5,-133 0.5,-156 237.5,-156 237.5,-133 0.5,-133"/>
<text text-anchor="start" x="98" y="-140.8" font-family="arial" font-size="14.00"> DB+ </text>
<polygon fill="none" stroke="black" points="237.5,-133 237.5,-156 357.5,-156 357.5,-133 237.5,-133"/>
<text text-anchor="start" x="288" y="-140.8" font-family="arial" font-size="14.00"> 3 </text>
<polygon fill="none" stroke="black" points="0.5,-110 0.5,-133 237.5,-133 237.5,-110 0.5,-110"/>
<text text-anchor="start" x="98" y="-117.8" font-family="arial" font-size="14.00"> DC+ </text>
<polygon fill="none" stroke="black" points="237.5,-110 237.5,-133 357.5,-133 357.5,-110 237.5,-110"/>
<text text-anchor="start" x="288" y="-117.8" font-family="arial" font-size="14.00"> 4 </text>
<polygon fill="none" stroke="black" points="0.5,-87 0.5,-110 237.5,-110 237.5,-87 0.5,-87"/>
<text text-anchor="start" x="101.5" y="-94.8" font-family="arial" font-size="14.00"> DC&#45; </text>
<polygon fill="none" stroke="black" points="237.5,-87 237.5,-110 357.5,-110 357.5,-87 237.5,-87"/>
<text text-anchor="start" x="288" y="-94.8" font-family="arial" font-size="14.00"> 5 </text>
<polygon fill="none" stroke="black" points="0.5,-64 0.5,-87 237.5,-87 237.5,-64 0.5,-64"/>
<text text-anchor="start" x="101.5" y="-71.8" font-family="arial" font-size="14.00"> DB&#45; </text>
<polygon fill="none" stroke="black" points="237.5,-64 237.5,-87 357.5,-87 357.5,-64 237.5,-64"/>
<text text-anchor="start" x="288" y="-71.8" font-family="arial" font-size="14.00"> 6 </text>
<polygon fill="none" stroke="black" points="0.5,-41 0.5,-64 237.5,-64 237.5,-41 0.5,-41"/>
<text text-anchor="start" x="97.5" y="-48.8" font-family="arial" font-size="14.00"> DD+ </text>
<polygon fill="none" stroke="black" points="237.5,-41 237.5,-64 357.5,-64 357.5,-41 237.5,-41"/>
<text text-anchor="start" x="288" y="-48.8" font-family="arial" font-size="14.00"> 7 </text>
<polygon fill="none" stroke="black" points="0.5,-18 0.5,-41 237.5,-41 237.5,-18 0.5,-18"/>
<text text-anchor="start" x="101" y="-25.8" font-family="arial" font-size="14.00"> DD&#45; </text>
<polygon fill="none" stroke="black" points="237.5,-18 237.5,-41 357.5,-41 357.5,-18 237.5,-18"/>
<text text-anchor="start" x="288" y="-25.8" font-family="arial" font-size="14.00"> 8 </text>
</g>
<!-- W1 -->
<g id="node3" class="node">
<title>W1</title>
<polygon fill="#ffffff" stroke="black" points="804,-284 573,-284 573,0 804,0 804,-284"/>
<polygon fill="#ffffff" stroke="transparent" points="573,0 573,-284 804,-284 804,0 573,0"/>
<polygon fill="#ffffff" stroke="transparent" points="573.5,-261 573.5,-284 804.5,-284 804.5,-261 573.5,-261"/>
<polygon fill="none" stroke="black" points="573.5,-261 573.5,-284 804.5,-284 804.5,-261 573.5,-261"/>
<text text-anchor="start" x="666.5" y="-269.8" font-family="arial" font-size="14.00"> </text>
<text text-anchor="start" x="671.5" y="-269.8" font-family="arial" font-weight="bold" font-size="14.00"> W1 </text>
<text text-anchor="start" x="706.5" y="-269.8" font-family="arial" font-size="14.00"> </text>
<polygon fill="none" stroke="black" points="573.5,-238 573.5,-261 639.5,-261 639.5,-238 573.5,-238"/>
<text text-anchor="start" x="580" y="-245.8" font-family="arial" font-size="14.00"> CAT5e </text>
<polygon fill="none" stroke="black" points="639.5,-238 639.5,-261 678.5,-261 678.5,-238 639.5,-238"/>
<text text-anchor="start" x="645.5" y="-245.8" font-family="arial" font-size="14.00"> 8x </text>
<polygon fill="none" stroke="black" points="678.5,-238 678.5,-261 755.5,-261 755.5,-238 678.5,-238"/>
<text text-anchor="start" x="684.5" y="-245.8" font-family="arial" font-size="14.00"> 24 AWG </text>
<polygon fill="none" stroke="black" points="755.5,-238 755.5,-261 804.5,-261 804.5,-238 755.5,-238"/>
<text text-anchor="start" x="761.5" y="-245.8" font-family="arial" font-size="14.00"> 1 m </text>
<text text-anchor="start" x="612.5" y="-224.8" font-family="arial" font-size="14.00"> </text>
<text text-anchor="start" x="575.5" y="-205.8" font-family="arial" font-size="14.00"> X1:1:DA+ </text>
<text text-anchor="start" x="658.5" y="-205.8" font-family="arial" font-size="14.00"> </text>
<text text-anchor="start" x="667.5" y="-205.8" font-family="arial" font-size="14.00"> 1:WH </text>
<text text-anchor="start" x="718.5" y="-205.8" font-family="arial" font-size="14.00"> </text>
<text text-anchor="start" x="728.5" y="-205.8" font-family="arial" font-size="14.00"> X2:3:DA+</text>
<polygon fill="#000000" stroke="transparent" points="573.5,-198 573.5,-200 804.5,-200 804.5,-198 573.5,-198"/>
<polygon fill="#ffffff" stroke="transparent" points="573.5,-196 573.5,-198 804.5,-198 804.5,-196 573.5,-196"/>
<polygon fill="#000000" stroke="transparent" points="573.5,-194 573.5,-196 804.5,-196 804.5,-194 573.5,-194"/>
<text text-anchor="start" x="575.5" y="-180.8" font-family="arial" font-size="14.00"> X1:2:DA&#45; </text>
<text text-anchor="start" x="658.5" y="-180.8" font-family="arial" font-size="14.00"> </text>
<text text-anchor="start" x="669" y="-180.8" font-family="arial" font-size="14.00"> 2:GN </text>
<text text-anchor="start" x="718.5" y="-180.8" font-family="arial" font-size="14.00"> </text>
<text text-anchor="start" x="735.5" y="-180.8" font-family="arial" font-size="14.00"> X2:6:DA&#45;</text>
<polygon fill="#000000" stroke="transparent" points="573.5,-173 573.5,-175 804.5,-175 804.5,-173 573.5,-173"/>
<polygon fill="#00aa00" stroke="transparent" points="573.5,-171 573.5,-173 804.5,-173 804.5,-171 573.5,-171"/>
<polygon fill="#000000" stroke="transparent" points="573.5,-169 573.5,-171 804.5,-171 804.5,-169 573.5,-169"/>
<text text-anchor="start" x="575.5" y="-155.8" font-family="arial" font-size="14.00"> X1:3:DB+ </text>
<text text-anchor="start" x="658.5" y="-155.8" font-family="arial" font-size="14.00"> </text>
<text text-anchor="start" x="667.5" y="-155.8" font-family="arial" font-size="14.00"> 3:WH </text>
<text text-anchor="start" x="718.5" y="-155.8" font-family="arial" font-size="14.00"> </text>
<text text-anchor="start" x="728.5" y="-155.8" font-family="arial" font-size="14.00"> X2:1:DB+</text>
<polygon fill="#000000" stroke="transparent" points="573.5,-148 573.5,-150 804.5,-150 804.5,-148 573.5,-148"/>
<polygon fill="#ffffff" stroke="transparent" points="573.5,-146 573.5,-148 804.5,-148 804.5,-146 573.5,-146"/>
<polygon fill="#000000" stroke="transparent" points="573.5,-144 573.5,-146 804.5,-146 804.5,-144 573.5,-144"/>
<text text-anchor="start" x="575.5" y="-130.8" font-family="arial" font-size="14.00"> X1:4:DC+ </text>
<text text-anchor="start" x="658.5" y="-130.8" font-family="arial" font-size="14.00"> </text>
<text text-anchor="start" x="669.5" y="-130.8" font-family="arial" font-size="14.00"> 4:BU </text>
<text text-anchor="start" x="718.5" y="-130.8" font-family="arial" font-size="14.00"> </text>
<text text-anchor="start" x="728.5" y="-130.8" font-family="arial" font-size="14.00"> X2:7:DC+</text>
<polygon fill="#000000" stroke="transparent" points="573.5,-123 573.5,-125 804.5,-125 804.5,-123 573.5,-123"/>
<polygon fill="#0066ff" stroke="transparent" points="573.5,-121 573.5,-123 804.5,-123 804.5,-121 573.5,-121"/>
<polygon fill="#000000" stroke="transparent" points="573.5,-119 573.5,-121 804.5,-121 804.5,-119 573.5,-119"/>
<text text-anchor="start" x="575.5" y="-105.8" font-family="arial" font-size="14.00"> X1:5:DC&#45; </text>
<text text-anchor="start" x="658.5" y="-105.8" font-family="arial" font-size="14.00"> </text>
<text text-anchor="start" x="667.5" y="-105.8" font-family="arial" font-size="14.00"> 5:WH </text>
<text text-anchor="start" x="718.5" y="-105.8" font-family="arial" font-size="14.00"> </text>
<text text-anchor="start" x="735.5" y="-105.8" font-family="arial" font-size="14.00"> X2:8:DC&#45;</text>
<polygon fill="#000000" stroke="transparent" points="573.5,-98 573.5,-100 804.5,-100 804.5,-98 573.5,-98"/>
<polygon fill="#ffffff" stroke="transparent" points="573.5,-96 573.5,-98 804.5,-98 804.5,-96 573.5,-96"/>
<polygon fill="#000000" stroke="transparent" points="573.5,-94 573.5,-96 804.5,-96 804.5,-94 573.5,-94"/>
<text text-anchor="start" x="575.5" y="-80.8" font-family="arial" font-size="14.00"> X1:6:DB&#45; </text>
<text text-anchor="start" x="658.5" y="-80.8" font-family="arial" font-size="14.00"> </text>
<text text-anchor="start" x="668.5" y="-80.8" font-family="arial" font-size="14.00"> 6:OG </text>
<text text-anchor="start" x="718.5" y="-80.8" font-family="arial" font-size="14.00"> </text>
<text text-anchor="start" x="735.5" y="-80.8" font-family="arial" font-size="14.00"> X2:2:DB&#45;</text>
<polygon fill="#000000" stroke="transparent" points="573.5,-73 573.5,-75 804.5,-75 804.5,-73 573.5,-73"/>
<polygon fill="#ff8000" stroke="transparent" points="573.5,-71 573.5,-73 804.5,-73 804.5,-71 573.5,-71"/>
<polygon fill="#000000" stroke="transparent" points="573.5,-69 573.5,-71 804.5,-71 804.5,-69 573.5,-69"/>
<text text-anchor="start" x="575.5" y="-55.8" font-family="arial" font-size="14.00"> X1:7:DD+ </text>
<text text-anchor="start" x="658.5" y="-55.8" font-family="arial" font-size="14.00"> </text>
<text text-anchor="start" x="667.5" y="-55.8" font-family="arial" font-size="14.00"> 7:WH </text>
<text text-anchor="start" x="718.5" y="-55.8" font-family="arial" font-size="14.00"> </text>
<text text-anchor="start" x="727.5" y="-55.8" font-family="arial" font-size="14.00"> X2:4:DD+</text>
<polygon fill="#000000" stroke="transparent" points="573.5,-48 573.5,-50 804.5,-50 804.5,-48 573.5,-48"/>
<polygon fill="#ffffff" stroke="transparent" points="573.5,-46 573.5,-48 804.5,-48 804.5,-46 573.5,-46"/>
<polygon fill="#000000" stroke="transparent" points="573.5,-44 573.5,-46 804.5,-46 804.5,-44 573.5,-44"/>
<text text-anchor="start" x="575.5" y="-30.8" font-family="arial" font-size="14.00"> X1:8:DD&#45; </text>
<text text-anchor="start" x="658.5" y="-30.8" font-family="arial" font-size="14.00"> </text>
<text text-anchor="start" x="669.5" y="-30.8" font-family="arial" font-size="14.00"> 8:BN </text>
<text text-anchor="start" x="718.5" y="-30.8" font-family="arial" font-size="14.00"> </text>
<text text-anchor="start" x="734.5" y="-30.8" font-family="arial" font-size="14.00"> X2:5:DD&#45;</text>
<polygon fill="#000000" stroke="transparent" points="573.5,-23 573.5,-25 804.5,-25 804.5,-23 573.5,-23"/>
<polygon fill="#895956" stroke="transparent" points="573.5,-21 573.5,-23 804.5,-23 804.5,-21 573.5,-21"/>
<polygon fill="#000000" stroke="transparent" points="573.5,-19 573.5,-21 804.5,-21 804.5,-19 573.5,-19"/>
<text text-anchor="start" x="612.5" y="-5.8" font-family="arial" font-size="14.00"> </text>
</g>
<!-- X1&#45;&#45;W1 -->
<g id="edge1" class="edge">
<title>X1:e&#45;&#45;W1:w</title>
<path fill="none" stroke="#000000" stroke-width="2" d="M357,-191C357.06,-189 573.06,-195 573,-197"/>
<path fill="none" stroke="#ffffff" stroke-width="2" d="M357,-191C357,-191 573,-197 573,-197"/>
<path fill="none" stroke="#000000" stroke-width="2" d="M357,-191C356.94,-193 572.94,-199 573,-197"/>
</g>
<!-- X1&#45;&#45;W1 -->
<g id="edge3" class="edge">
<title>X1:e&#45;&#45;W1:w</title>
<path fill="none" stroke="#000000" stroke-width="2" d="M357,-168C357.04,-166 573.04,-170 573,-172"/>
<path fill="none" stroke="#00aa00" stroke-width="2" d="M357,-168C357,-168 573,-172 573,-172"/>
<path fill="none" stroke="#000000" stroke-width="2" d="M357,-168C356.96,-170 572.96,-174 573,-172"/>
</g>
<!-- X1&#45;&#45;W1 -->
<g id="edge5" class="edge">
<title>X1:e&#45;&#45;W1:w</title>
<path fill="none" stroke="#000000" stroke-width="2" d="M357,-145C357.02,-143 573.02,-145 573,-147"/>
<path fill="none" stroke="#ffffff" stroke-width="2" d="M357,-145C357,-145 573,-147 573,-147"/>
<path fill="none" stroke="#000000" stroke-width="2" d="M357,-145C356.98,-147 572.98,-149 573,-147"/>
</g>
<!-- X1&#45;&#45;W1 -->
<g id="edge7" class="edge">
<title>X1:e&#45;&#45;W1:w</title>
<path fill="none" stroke="#000000" stroke-width="2" d="M357,-121C357.01,-119 573.01,-120 573,-122"/>
<path fill="none" stroke="#0066ff" stroke-width="2" d="M357,-121C357,-121 573,-122 573,-122"/>
<path fill="none" stroke="#000000" stroke-width="2" d="M357,-121C356.99,-123 572.99,-124 573,-122"/>
</g>
<!-- X1&#45;&#45;W1 -->
<g id="edge9" class="edge">
<title>X1:e&#45;&#45;W1:w</title>
<path fill="none" stroke="#000000" stroke-width="2" d="M357,-98C356.99,-96 572.99,-95 573,-97"/>
<path fill="none" stroke="#ffffff" stroke-width="2" d="M357,-98C357,-98 573,-97 573,-97"/>
<path fill="none" stroke="#000000" stroke-width="2" d="M357,-98C357.01,-100 573.01,-99 573,-97"/>
</g>
<!-- X1&#45;&#45;W1 -->
<g id="edge11" class="edge">
<title>X1:e&#45;&#45;W1:w</title>
<path fill="none" stroke="#000000" stroke-width="2" d="M357,-75C356.97,-73 572.97,-70 573,-72"/>
<path fill="none" stroke="#ff8000" stroke-width="2" d="M357,-75C357,-75 573,-72 573,-72"/>
<path fill="none" stroke="#000000" stroke-width="2" d="M357,-75C357.03,-77 573.03,-74 573,-72"/>
</g>
<!-- X1&#45;&#45;W1 -->
<g id="edge13" class="edge">
<title>X1:e&#45;&#45;W1:w</title>
<path fill="none" stroke="#000000" stroke-width="2" d="M357,-52C356.95,-50 572.95,-45 573,-47"/>
<path fill="none" stroke="#ffffff" stroke-width="2" d="M357,-52C357,-52 573,-47 573,-47"/>
<path fill="none" stroke="#000000" stroke-width="2" d="M357,-52C357.05,-54 573.05,-49 573,-47"/>
</g>
<!-- X1&#45;&#45;W1 -->
<g id="edge15" class="edge">
<title>X1:e&#45;&#45;W1:w</title>
<path fill="none" stroke="#000000" stroke-width="2" d="M357,-29C356.94,-27 572.94,-20 573,-22"/>
<path fill="none" stroke="#895956" stroke-width="2" d="M357,-29C357,-29 573,-22 573,-22"/>
<path fill="none" stroke="#000000" stroke-width="2" d="M357,-29C357.06,-31 573.06,-24 573,-22"/>
</g>
<!-- X2 -->
<g id="node2" class="node">
<title>X2</title>
<polygon fill="#ffffff" stroke="black" points="1377,-252 1020,-252 1020,-22 1377,-22 1377,-252"/>
<polygon fill="#ffffff" stroke="transparent" points="1020,-22 1020,-252 1377,-252 1377,-22 1020,-22"/>
<polygon fill="#ffffff" stroke="transparent" points="1020.5,-229 1020.5,-252 1377.5,-252 1377.5,-229 1020.5,-229"/>
<polygon fill="none" stroke="black" points="1020.5,-229 1020.5,-252 1377.5,-252 1377.5,-229 1020.5,-229"/>
<text text-anchor="start" x="1179" y="-237.8" font-family="arial" font-size="14.00"> </text>
<text text-anchor="start" x="1184" y="-237.8" font-family="arial" font-weight="bold" font-size="14.00"> X2 </text>
<text text-anchor="start" x="1214" y="-237.8" font-family="arial" font-size="14.00"> </text>
<polygon fill="none" stroke="black" points="1020.5,-206 1020.5,-229 1272.5,-229 1272.5,-206 1020.5,-206"/>
<text text-anchor="start" x="1024.5" y="-213.8" font-family="arial" font-size="14.00"> Stewart Connector SS&#45;37000&#45;002 </text>
<polygon fill="none" stroke="black" points="1272.5,-206 1272.5,-229 1323.5,-229 1323.5,-206 1272.5,-206"/>
<text text-anchor="start" x="1276.5" y="-213.8" font-family="arial" font-size="14.00"> male </text>
<polygon fill="none" stroke="black" points="1323.5,-206 1323.5,-229 1377.5,-229 1377.5,-206 1323.5,-206"/>
<text text-anchor="start" x="1327.5" y="-213.8" font-family="arial" font-size="14.00"> 8&#45;pin </text>
<polygon fill="none" stroke="black" points="1020.5,-183 1020.5,-206 1140.5,-206 1140.5,-183 1020.5,-183"/>
<text text-anchor="start" x="1071" y="-190.8" font-family="arial" font-size="14.00"> 1 </text>
<polygon fill="none" stroke="black" points="1140.5,-183 1140.5,-206 1377.5,-206 1377.5,-183 1140.5,-183"/>
<text text-anchor="start" x="1238" y="-190.8" font-family="arial" font-size="14.00"> DB+ </text>
<polygon fill="none" stroke="black" points="1020.5,-160 1020.5,-183 1140.5,-183 1140.5,-160 1020.5,-160"/>
<text text-anchor="start" x="1071" y="-167.8" font-family="arial" font-size="14.00"> 2 </text>
<polygon fill="none" stroke="black" points="1140.5,-160 1140.5,-183 1377.5,-183 1377.5,-160 1140.5,-160"/>
<text text-anchor="start" x="1241.5" y="-167.8" font-family="arial" font-size="14.00"> DB&#45; </text>
<polygon fill="none" stroke="black" points="1020.5,-137 1020.5,-160 1140.5,-160 1140.5,-137 1020.5,-137"/>
<text text-anchor="start" x="1071" y="-144.8" font-family="arial" font-size="14.00"> 3 </text>
<polygon fill="none" stroke="black" points="1140.5,-137 1140.5,-160 1377.5,-160 1377.5,-137 1140.5,-137"/>
<text text-anchor="start" x="1238" y="-144.8" font-family="arial" font-size="14.00"> DA+ </text>
<polygon fill="none" stroke="black" points="1020.5,-114 1020.5,-137 1140.5,-137 1140.5,-114 1020.5,-114"/>
<text text-anchor="start" x="1071" y="-121.8" font-family="arial" font-size="14.00"> 4 </text>
<polygon fill="none" stroke="black" points="1140.5,-114 1140.5,-137 1377.5,-137 1377.5,-114 1140.5,-114"/>
<text text-anchor="start" x="1237.5" y="-121.8" font-family="arial" font-size="14.00"> DD+ </text>
<polygon fill="none" stroke="black" points="1020.5,-91 1020.5,-114 1140.5,-114 1140.5,-91 1020.5,-91"/>
<text text-anchor="start" x="1071" y="-98.8" font-family="arial" font-size="14.00"> 5 </text>
<polygon fill="none" stroke="black" points="1140.5,-91 1140.5,-114 1377.5,-114 1377.5,-91 1140.5,-91"/>
<text text-anchor="start" x="1241" y="-98.8" font-family="arial" font-size="14.00"> DD&#45; </text>
<polygon fill="none" stroke="black" points="1020.5,-68 1020.5,-91 1140.5,-91 1140.5,-68 1020.5,-68"/>
<text text-anchor="start" x="1071" y="-75.8" font-family="arial" font-size="14.00"> 6 </text>
<polygon fill="none" stroke="black" points="1140.5,-68 1140.5,-91 1377.5,-91 1377.5,-68 1140.5,-68"/>
<text text-anchor="start" x="1242" y="-75.8" font-family="arial" font-size="14.00"> DA&#45; </text>
<polygon fill="none" stroke="black" points="1020.5,-45 1020.5,-68 1140.5,-68 1140.5,-45 1020.5,-45"/>
<text text-anchor="start" x="1071" y="-52.8" font-family="arial" font-size="14.00"> 7 </text>
<polygon fill="none" stroke="black" points="1140.5,-45 1140.5,-68 1377.5,-68 1377.5,-45 1140.5,-45"/>
<text text-anchor="start" x="1238" y="-52.8" font-family="arial" font-size="14.00"> DC+ </text>
<polygon fill="none" stroke="black" points="1020.5,-22 1020.5,-45 1140.5,-45 1140.5,-22 1020.5,-22"/>
<text text-anchor="start" x="1071" y="-29.8" font-family="arial" font-size="14.00"> 8 </text>
<polygon fill="none" stroke="black" points="1140.5,-22 1140.5,-45 1377.5,-45 1377.5,-22 1140.5,-22"/>
<text text-anchor="start" x="1241.5" y="-29.8" font-family="arial" font-size="14.00"> DC&#45; </text>
</g>
<!-- W1&#45;&#45;X2 -->
<g id="edge2" class="edge">
<title>W1:e&#45;&#45;X2:w</title>
<path fill="none" stroke="#000000" stroke-width="2" d="M804,-197C803.57,-195.05 1019.57,-147.05 1020,-149"/>
<path fill="none" stroke="#ffffff" stroke-width="2" d="M804,-197C804,-197 1020,-149 1020,-149"/>
<path fill="none" stroke="#000000" stroke-width="2" d="M804,-197C804.43,-198.95 1020.43,-150.95 1020,-149"/>
</g>
<!-- W1&#45;&#45;X2 -->
<g id="edge4" class="edge">
<title>W1:e&#45;&#45;X2:w</title>
<path fill="none" stroke="#000000" stroke-width="2" d="M804,-172C803.21,-170.16 1019.21,-77.16 1020,-79"/>
<path fill="none" stroke="#00aa00" stroke-width="2" d="M804,-172C804,-172 1020,-79 1020,-79"/>
<path fill="none" stroke="#000000" stroke-width="2" d="M804,-172C804.79,-173.84 1020.79,-80.84 1020,-79"/>
</g>
<!-- W1&#45;&#45;X2 -->
<g id="edge6" class="edge">
<title>W1:e&#45;&#45;X2:w</title>
<path fill="none" stroke="#000000" stroke-width="2" d="M804,-147C804.43,-145.05 1020.43,-193.05 1020,-195"/>
<path fill="none" stroke="#ffffff" stroke-width="2" d="M804,-147C804,-147 1020,-195 1020,-195"/>
<path fill="none" stroke="#000000" stroke-width="2" d="M804,-147C803.57,-148.95 1019.57,-196.95 1020,-195"/>
</g>
<!-- W1&#45;&#45;X2 -->
<g id="edge8" class="edge">
<title>W1:e&#45;&#45;X2:w</title>
<path fill="none" stroke="#000000" stroke-width="2" d="M804,-122C803.42,-120.09 1019.42,-54.09 1020,-56"/>
<path fill="none" stroke="#0066ff" stroke-width="2" d="M804,-122C804,-122 1020,-56 1020,-56"/>
<path fill="none" stroke="#000000" stroke-width="2" d="M804,-122C804.58,-123.91 1020.58,-57.91 1020,-56"/>
</g>
<!-- W1&#45;&#45;X2 -->
<g id="edge10" class="edge">
<title>W1:e&#45;&#45;X2:w</title>
<path fill="none" stroke="#000000" stroke-width="2" d="M804,-97C803.43,-95.08 1019.43,-31.08 1020,-33"/>
<path fill="none" stroke="#ffffff" stroke-width="2" d="M804,-97C804,-97 1020,-33 1020,-33"/>
<path fill="none" stroke="#000000" stroke-width="2" d="M804,-97C804.57,-98.92 1020.57,-34.92 1020,-33"/>
</g>
<!-- W1&#45;&#45;X2 -->
<g id="edge12" class="edge">
<title>W1:e&#45;&#45;X2:w</title>
<path fill="none" stroke="#000000" stroke-width="2" d="M804,-72C804.84,-70.19 1020.84,-170.19 1020,-172"/>
<path fill="none" stroke="#ff8000" stroke-width="2" d="M804,-72C804,-72 1020,-172 1020,-172"/>
<path fill="none" stroke="#000000" stroke-width="2" d="M804,-72C803.16,-73.81 1019.16,-173.81 1020,-172"/>
</g>
<!-- W1&#45;&#45;X2 -->
<g id="edge14" class="edge">
<title>W1:e&#45;&#45;X2:w</title>
<path fill="none" stroke="#000000" stroke-width="2" d="M804,-47C804.68,-45.12 1020.68,-123.12 1020,-125"/>
<path fill="none" stroke="#ffffff" stroke-width="2" d="M804,-47C804,-47 1020,-125 1020,-125"/>
<path fill="none" stroke="#000000" stroke-width="2" d="M804,-47C803.32,-48.88 1019.32,-126.88 1020,-125"/>
</g>
<!-- W1&#45;&#45;X2 -->
<g id="edge16" class="edge">
<title>W1:e&#45;&#45;X2:w</title>
<path fill="none" stroke="#000000" stroke-width="2" d="M804,-22C804.69,-20.12 1020.69,-100.12 1020,-102"/>
<path fill="none" stroke="#895956" stroke-width="2" d="M804,-22C804,-22 1020,-102 1020,-102"/>
<path fill="none" stroke="#000000" stroke-width="2" d="M804,-22C803.31,-23.88 1019.31,-103.88 1020,-102"/>
</g>
</g>
</svg>
