<?xml version="1.0" encoding="UTF-8" standalone="no"?>
<!DOCTYPE svg PUBLIC "-//W3C//DTD SVG 1.1//EN"
 "http://www.w3.org/Graphics/SVG/1.1/DTD/svg11.dtd">
<!-- Generated by graphviz version 2.43.0 (0)
 -->
<!-- Title: %3 Pages: 1 -->
<svg width="784pt" height="415pt"
 viewBox="0.00 0.00 784.00 415.00" xmlns="http://www.w3.org/2000/svg" xmlns:xlink="http://www.w3.org/1999/xlink">
<g id="graph0" class="graph" transform="scale(1 1) rotate(0) translate(4 411)">
<title>%3</title>
<polygon fill="#ffffff" stroke="transparent" points="-4,4 -4,-411 780,-411 780,4 -4,4"/>
<!-- J1 -->
<g id="node1" class="node">
<title>J1</title>
<polygon fill="#ffffff" stroke="black" points="84,-367 0,-367 0,-22 84,-22 84,-367"/>
<polygon fill="#ffffff" stroke="transparent" points="0,-22 0,-367 84,-367 84,-22 0,-22"/>
<polygon fill="#ffffff" stroke="transparent" points="0,-343.5 0,-366.5 84,-366.5 84,-343.5 0,-343.5"/>
<polygon fill="none" stroke="black" points="0,-343.5 0,-366.5 84,-366.5 84,-343.5 0,-343.5"/>
<text text-anchor="start" x="26.5" y="-352.3" font-family="arial" font-size="14.00"> </text>
<text text-anchor="start" x="30.5" y="-352.3" font-family="arial" font-weight="bold" font-size="14.00"> J1 </text>
<text text-anchor="start" x="53.5" y="-352.3" font-family="arial" font-size="14.00"> </text>
<polygon fill="none" stroke="black" points="0,-320.5 0,-343.5 84,-343.5 84,-320.5 0,-320.5"/>
<text text-anchor="start" x="4" y="-328.3" font-family="arial" font-size="14.00"> P/N: J1&#45;PN </text>
<polygon fill="none" stroke="black" points="0,-297.5 0,-320.5 23,-320.5 23,-297.5 0,-297.5"/>
<text text-anchor="start" x="7.5" y="-305.3" font-family="arial" font-size="14.00"> &#160;</text>
<polygon fill="none" stroke="black" points="23,-297.5 23,-320.5 84,-320.5 84,-297.5 23,-297.5"/>
<text text-anchor="start" x="30.5" y="-305.3" font-family="arial" font-size="14.00"> 12&#45;pin </text>
<polygon fill="none" stroke="black" points="0,-274.5 0,-297.5 46,-297.5 46,-274.5 0,-274.5"/>
<text text-anchor="start" x="15" y="-282.3" font-family="arial" font-size="14.00"> 1 </text>
<polygon fill="none" stroke="black" points="46,-274.5 46,-297.5 84,-297.5 84,-274.5 46,-274.5"/>
<text text-anchor="start" x="57" y="-282.3" font-family="arial" font-size="14.00"> 1 </text>
<polygon fill="none" stroke="black" points="0,-251.5 0,-274.5 46,-274.5 46,-251.5 0,-251.5"/>
<text text-anchor="start" x="15" y="-259.3" font-family="arial" font-size="14.00"> 2 </text>
<polygon fill="none" stroke="black" points="46,-251.5 46,-274.5 84,-274.5 84,-251.5 46,-251.5"/>
<text text-anchor="start" x="57" y="-259.3" font-family="arial" font-size="14.00"> 2 </text>
<polygon fill="none" stroke="black" points="0,-228.5 0,-251.5 46,-251.5 46,-228.5 0,-228.5"/>
<text text-anchor="start" x="15" y="-236.3" font-family="arial" font-size="14.00"> 3 </text>
<polygon fill="none" stroke="black" points="46,-228.5 46,-251.5 84,-251.5 84,-228.5 46,-228.5"/>
<text text-anchor="start" x="57" y="-236.3" font-family="arial" font-size="14.00"> 3 </text>
<polygon fill="none" stroke="black" points="0,-205.5 0,-228.5 46,-228.5 46,-205.5 0,-205.5"/>
<text text-anchor="start" x="15" y="-213.3" font-family="arial" font-size="14.00"> 4 </text>
<polygon fill="none" stroke="black" points="46,-205.5 46,-228.5 84,-228.5 84,-205.5 46,-205.5"/>
<text text-anchor="start" x="57" y="-213.3" font-family="arial" font-size="14.00"> 4 </text>
<polygon fill="none" stroke="black" points="0,-182.5 0,-205.5 46,-205.5 46,-182.5 0,-182.5"/>
<text text-anchor="start" x="15" y="-190.3" font-family="arial" font-size="14.00"> 5 </text>
<polygon fill="none" stroke="black" points="46,-182.5 46,-205.5 84,-205.5 84,-182.5 46,-182.5"/>
<text text-anchor="start" x="57" y="-190.3" font-family="arial" font-size="14.00"> 5 </text>
<polygon fill="none" stroke="black" points="0,-159.5 0,-182.5 46,-182.5 46,-159.5 0,-159.5"/>
<text text-anchor="start" x="15" y="-167.3" font-family="arial" font-size="14.00"> 6 </text>
<polygon fill="none" stroke="black" points="46,-159.5 46,-182.5 84,-182.5 84,-159.5 46,-159.5"/>
<text text-anchor="start" x="57" y="-167.3" font-family="arial" font-size="14.00"> 6 </text>
<polygon fill="none" stroke="black" points="0,-136.5 0,-159.5 46,-159.5 46,-136.5 0,-136.5"/>
<text text-anchor="start" x="15" y="-144.3" font-family="arial" font-size="14.00"> 7 </text>
<polygon fill="none" stroke="black" points="46,-136.5 46,-159.5 84,-159.5 84,-136.5 46,-136.5"/>
<text text-anchor="start" x="57" y="-144.3" font-family="arial" font-size="14.00"> 7 </text>
<polygon fill="none" stroke="black" points="0,-113.5 0,-136.5 46,-136.5 46,-113.5 0,-113.5"/>
<text text-anchor="start" x="15" y="-121.3" font-family="arial" font-size="14.00"> 8 </text>
<polygon fill="none" stroke="black" points="46,-113.5 46,-136.5 84,-136.5 84,-113.5 46,-113.5"/>
<text text-anchor="start" x="57" y="-121.3" font-family="arial" font-size="14.00"> 8 </text>
<polygon fill="none" stroke="black" points="0,-90.5 0,-113.5 46,-113.5 46,-90.5 0,-90.5"/>
<text text-anchor="start" x="15" y="-98.3" font-family="arial" font-size="14.00"> 9 </text>
<polygon fill="none" stroke="black" points="46,-90.5 46,-113.5 84,-113.5 84,-90.5 46,-90.5"/>
<text text-anchor="start" x="57" y="-98.3" font-family="arial" font-size="14.00"> 9 </text>
<polygon fill="none" stroke="black" points="0,-67.5 0,-90.5 46,-90.5 46,-67.5 0,-67.5"/>
<text text-anchor="start" x="11.5" y="-75.3" font-family="arial" font-size="14.00"> 10 </text>
<polygon fill="none" stroke="black" points="46,-67.5 46,-90.5 84,-90.5 84,-67.5 46,-67.5"/>
<text text-anchor="start" x="53.5" y="-75.3" font-family="arial" font-size="14.00"> 10 </text>
<polygon fill="none" stroke="black" points="0,-44.5 0,-67.5 46,-67.5 46,-44.5 0,-44.5"/>
<text text-anchor="start" x="11.5" y="-52.3" font-family="arial" font-size="14.00"> 11 </text>
<polygon fill="none" stroke="black" points="46,-44.5 46,-67.5 84,-67.5 84,-44.5 46,-44.5"/>
<text text-anchor="start" x="53.5" y="-52.3" font-family="arial" font-size="14.00"> 11 </text>
<polygon fill="none" stroke="black" points="0,-21.5 0,-44.5 46,-44.5 46,-21.5 0,-21.5"/>
<text text-anchor="start" x="11.5" y="-29.3" font-family="arial" font-size="14.00"> 12 </text>
<polygon fill="none" stroke="black" points="46,-21.5 46,-44.5 84,-44.5 84,-21.5 46,-21.5"/>
<text text-anchor="start" x="53.5" y="-29.3" font-family="arial" font-size="14.00"> 12 </text>
</g>
<!-- C1 -->
<g id="node3" class="node">
<title>C1</title>
<polygon fill="#ffffff" stroke="black" points="476,-407 300,-407 300,0 476,0 476,-407"/>
<polygon fill="#ffffff" stroke="transparent" points="300,0 300,-407 476,-407 476,0 300,0"/>
<polygon fill="#ffffff" stroke="transparent" points="300,-383.5 300,-406.5 476,-406.5 476,-383.5 300,-383.5"/>
<polygon fill="none" stroke="black" points="300,-383.5 300,-406.5 476,-406.5 476,-383.5 300,-383.5"/>
<text text-anchor="start" x="371.5" y="-392.3" font-family="arial" font-size="14.00"> </text>
<text text-anchor="start" x="375.5" y="-392.3" font-family="arial" font-weight="bold" font-size="14.00"> C1 </text>
<text text-anchor="start" x="400.5" y="-392.3" font-family="arial" font-size="14.00"> </text>
<polygon fill="none" stroke="black" points="300,-360.5 300,-383.5 476,-383.5 476,-360.5 300,-360.5"/>
<text text-anchor="start" x="348.5" y="-368.3" font-family="arial" font-size="14.00"> P/N: C1&#45;PN </text>
<polygon fill="none" stroke="black" points="300,-337.5 300,-360.5 388,-360.5 388,-337.5 300,-337.5"/>
<text text-anchor="start" x="329" y="-345.3" font-family="arial" font-size="14.00"> 12x </text>
<polygon fill="none" stroke="black" points="388,-337.5 388,-360.5 476,-360.5 476,-337.5 388,-337.5"/>
<text text-anchor="start" x="416.5" y="-345.3" font-family="arial" font-size="14.00"> 5 m </text>
<text text-anchor="start" x="320.5" y="-324.3" font-family="arial" font-size="14.00"> </text>
<text text-anchor="start" x="302" y="-305.3" font-family="arial" font-size="14.00"> J1:1 </text>
<text text-anchor="start" x="347" y="-305.3" font-family="arial" font-size="14.00"> </text>
<text text-anchor="start" x="370.5" y="-305.3" font-family="arial" font-size="14.00"> 1:RD </text>
<text text-anchor="start" x="429" y="-305.3" font-family="arial" font-size="14.00"> </text>
<text text-anchor="start" x="444" y="-305.3" font-family="arial" font-size="14.00"> J2:1</text>
<polygon fill="#000000" stroke="transparent" points="300,-297.5 300,-299.5 476,-299.5 476,-297.5 300,-297.5"/>
<defs>
<linearGradient id="l_0" gradientUnits="userSpaceOnUse" x1="300" y1="-296.5" x2="476" y2="-296.5" >
<stop offset="0" style="stop-color:#ff0000;stop-opacity:1.;"/>
<stop offset="1" style="stop-color:#ff0000;stop-opacity:1.;"/>
</linearGradient>
</defs>
<polygon fill="url(#l_0)" stroke="transparent" points="300,-295.5 300,-297.5 476,-297.5 476,-295.5 300,-295.5"/>
<polygon fill="#000000" stroke="transparent" points="300,-293.5 300,-295.5 476,-295.5 476,-293.5 300,-293.5"/>
<text text-anchor="start" x="302" y="-280.3" font-family="arial" font-size="14.00"> J1:2 </text>
<text text-anchor="start" x="347" y="-280.3" font-family="arial" font-size="14.00"> </text>
<text text-anchor="start" x="371.5" y="-280.3" font-family="arial" font-size="14.00"> 2:BK </text>
<text text-anchor="start" x="429" y="-280.3" font-family="arial" font-size="14.00"> </text>
<text text-anchor="start" x="444" y="-280.3" font-family="arial" font-size="14.00"> J2:2</text>
<polygon fill="#000000" stroke="transparent" points="300,-272.5 300,-274.5 476,-274.5 476,-272.5 300,-272.5"/>
<defs>
<linearGradient id="l_1" gradientUnits="userSpaceOnUse" x1="300" y1="-271.5" x2="476" y2="-271.5" >
<stop offset="0" style="stop-color:#000000;stop-opacity:1.;"/>
<stop offset="1" style="stop-color:#000000;stop-opacity:1.;"/>
</linearGradient>
</defs>
<polygon fill="url(#l_1)" stroke="transparent" points="300,-270.5 300,-272.5 476,-272.5 476,-270.5 300,-270.5"/>
<polygon fill="#000000" stroke="transparent" points="300,-268.5 300,-270.5 476,-270.5 476,-268.5 300,-268.5"/>
<text text-anchor="start" x="302" y="-255.3" font-family="arial" font-size="14.00"> J1:3 </text>
<text text-anchor="start" x="347" y="-255.3" font-family="arial" font-size="14.00"> </text>
<text text-anchor="start" x="370" y="-255.3" font-family="arial" font-size="14.00"> 3:GN </text>
<text text-anchor="start" x="429" y="-255.3" font-family="arial" font-size="14.00"> </text>
<text text-anchor="start" x="444" y="-255.3" font-family="arial" font-size="14.00"> J2:3</text>
<polygon fill="#000000" stroke="transparent" points="300,-247.5 300,-249.5 476,-249.5 476,-247.5 300,-247.5"/>
<defs>
<linearGradient id="l_2" gradientUnits="userSpaceOnUse" x1="300" y1="-246.5" x2="476" y2="-246.5" >
<stop offset="0" style="stop-color:#00aa00;stop-opacity:1.;"/>
<stop offset="1" style="stop-color:#00aa00;stop-opacity:1.;"/>
</linearGradient>
</defs>
<polygon fill="url(#l_2)" stroke="transparent" points="300,-245.5 300,-247.5 476,-247.5 476,-245.5 300,-245.5"/>
<polygon fill="#000000" stroke="transparent" points="300,-243.5 300,-245.5 476,-245.5 476,-243.5 300,-243.5"/>
<text text-anchor="start" x="302" y="-230.3" font-family="arial" font-size="14.00"> J1:4 </text>
<text text-anchor="start" x="347" y="-230.3" font-family="arial" font-size="14.00"> </text>
<text text-anchor="start" x="368.5" y="-230.3" font-family="arial" font-size="14.00"> 4:WH </text>
<text text-anchor="start" x="429" y="-230.3" font-family="arial" font-size="14.00"> </text>
<text text-anchor="start" x="444" y="-230.3" font-family="arial" font-size="14.00"> J2:4</text>
<polygon fill="#000000" stroke="transparent" points="300,-222.5 300,-224.5 476,-224.5 476,-222.5 300,-222.5"/>
<defs>
<linearGradient id="l_3" gradientUnits="userSpaceOnUse" x1="300" y1="-221.5" x2="476" y2="-221.5" >
<stop offset="0" style="stop-color:#ffffff;stop-opacity:1.;"/>
<stop offset="1" style="stop-color:#ffffff;stop-opacity:1.;"/>
</linearGradient>
</defs>
<polygon fill="url(#l_3)" stroke="transparent" points="300,-220.5 300,-222.5 476,-222.5 476,-220.5 300,-220.5"/>
<polygon fill="#000000" stroke="transparent" points="300,-218.5 300,-220.5 476,-220.5 476,-218.5 300,-218.5"/>
<text text-anchor="start" x="302" y="-205.3" font-family="arial" font-size="14.00"> J1:5 </text>
<text text-anchor="start" x="347" y="-205.3" font-family="arial" font-size="14.00"> </text>
<text text-anchor="start" x="371" y="-205.3" font-family="arial" font-size="14.00"> 5:BU </text>
<text text-anchor="start" x="429" y="-205.3" font-family="arial" font-size="14.00"> </text>
<text text-anchor="start" x="444" y="-205.3" font-family="arial" font-size="14.00"> J2:5</text>
<polygon fill="#000000" stroke="transparent" points="300,-197.5 300,-199.5 476,-199.5 476,-197.5 300,-197.5"/>
<defs>
<linearGradient id="l_4" gradientUnits="userSpaceOnUse" x1="300" y1="-196.5" x2="476" y2="-196.5" >
<stop offset="0" style="stop-color:#0066ff;stop-opacity:1.;"/>
<stop offset="1" style="stop-color:#0066ff;stop-opacity:1.;"/>
</linearGradient>
</defs>
<polygon fill="url(#l_4)" stroke="transparent" points="300,-195.5 300,-197.5 476,-197.5 476,-195.5 300,-195.5"/>
<polygon fill="#000000" stroke="transparent" points="300,-193.5 300,-195.5 476,-195.5 476,-193.5 300,-193.5"/>
<text text-anchor="start" x="302" y="-180.3" font-family="arial" font-size="14.00"> J1:6 </text>
<text text-anchor="start" x="347" y="-180.3" font-family="arial" font-size="14.00"> </text>
<text text-anchor="start" x="371.5" y="-180.3" font-family="arial" font-size="14.00"> 6:YE </text>
<text text-anchor="start" x="429" y="-180.3" font-family="arial" font-size="14.00"> </text>
<text text-anchor="start" x="444" y="-180.3" font-family="arial" font-size="14.00"> J2:6</text>
<polygon fill="#000000" stroke="transparent" points="300,-172.5 300,-174.5 476,-174.5 476,-172.5 300,-172.5"/>
<defs>
<linearGradient id="l_5" gradientUnits="userSpaceOnUse" x1="300" y1="-171.5" x2="476" y2="-171.5" >
<stop offset="0" style="stop-color:#ffff00;stop-opacity:1.;"/>
<stop offset="1" style="stop-color:#ffff00;stop-opacity:1.;"/>
</linearGradient>
</defs>
<polygon fill="url(#l_5)" stroke="transparent" points="300,-170.5 300,-172.5 476,-172.5 476,-170.5 300,-170.5"/>
<polygon fill="#000000" stroke="transparent" points="300,-168.5 300,-170.5 476,-170.5 476,-168.5 300,-168.5"/>
<text text-anchor="start" x="302" y="-155.3" font-family="arial" font-size="14.00"> J1:7 </text>
<text text-anchor="start" x="347" y="-155.3" font-family="arial" font-size="14.00"> </text>
<text text-anchor="start" x="371.5" y="-155.3" font-family="arial" font-size="14.00"> 7:VT </text>
<text text-anchor="start" x="429" y="-155.3" font-family="arial" font-size="14.00"> </text>
<text text-anchor="start" x="444" y="-155.3" font-family="arial" font-size="14.00"> J2:7</text>
<polygon fill="#000000" stroke="transparent" points="300,-147.5 300,-149.5 476,-149.5 476,-147.5 300,-147.5"/>
<defs>
<linearGradient id="l_6" gradientUnits="userSpaceOnUse" x1="300" y1="-146.5" x2="476" y2="-146.5" >
<stop offset="0" style="stop-color:#8000ff;stop-opacity:1.;"/>
<stop offset="1" style="stop-color:#8000ff;stop-opacity:1.;"/>
</linearGradient>
</defs>
<polygon fill="url(#l_6)" stroke="transparent" points="300,-145.5 300,-147.5 476,-147.5 476,-145.5 300,-145.5"/>
<polygon fill="#000000" stroke="transparent" points="300,-143.5 300,-145.5 476,-145.5 476,-143.5 300,-143.5"/>
<text text-anchor="start" x="302" y="-130.3" font-family="arial" font-size="14.00"> J1:8 </text>
<text text-anchor="start" x="347" y="-130.3" font-family="arial" font-size="14.00"> </text>
<text text-anchor="start" x="370" y="-130.3" font-family="arial" font-size="14.00"> 8:GY </text>
<text text-anchor="start" x="429" y="-130.3" font-family="arial" font-size="14.00"> </text>
<text text-anchor="start" x="444" y="-130.3" font-family="arial" font-size="14.00"> J2:8</text>
<polygon fill="#000000" stroke="transparent" points="300,-122.5 300,-124.5 476,-124.5 476,-122.5 300,-122.5"/>
<defs>
<linearGradient id="l_7" gradientUnits="userSpaceOnUse" x1="300" y1="-121.5" x2="476" y2="-121.5" >
<stop offset="0" style="stop-color:#999999;stop-opacity:1.;"/>
<stop offset="1" style="stop-color:#999999;stop-opacity:1.;"/>
</linearGradient>
</defs>
<polygon fill="url(#l_7)" stroke="transparent" points="300,-120.5 300,-122.5 476,-122.5 476,-120.5 300,-120.5"/>
<polygon fill="#000000" stroke="transparent" points="300,-118.5 300,-120.5 476,-120.5 476,-118.5 300,-118.5"/>
<text text-anchor="start" x="302" y="-105.3" font-family="arial" font-size="14.00"> J1:9 </text>
<text text-anchor="start" x="347" y="-105.3" font-family="arial" font-size="14.00"> </text>
<text text-anchor="start" x="369" y="-105.3" font-family="arial" font-size="14.00"> 9:OG </text>
<text text-anchor="start" x="429" y="-105.3" font-family="arial" font-size="14.00"> </text>
<text text-anchor="start" x="444" y="-105.3" font-family="arial" font-size="14.00"> J2:9</text>
<polygon fill="#000000" stroke="transparent" points="300,-97.5 300,-99.5 476,-99.5 476,-97.5 300,-97.5"/>
<defs>
<linearGradient id="l_8" gradientUnits="userSpaceOnUse" x1="300" y1="-96.5" x2="476" y2="-96.5" >
<stop offset="0" style="stop-color:#ff8000;stop-opacity:1.;"/>
<stop offset="1" style="stop-color:#ff8000;stop-opacity:1.;"/>
</linearGradient>
</defs>
<polygon fill="url(#l_8)" stroke="transparent" points="300,-95.5 300,-97.5 476,-97.5 476,-95.5 300,-95.5"/>
<polygon fill="#000000" stroke="transparent" points="300,-93.5 300,-95.5 476,-95.5 476,-93.5 300,-93.5"/>
<text text-anchor="start" x="302" y="-80.3" font-family="arial" font-size="14.00"> J1:10 </text>
<text text-anchor="start" x="347" y="-80.3" font-family="arial" font-size="14.00"> </text>
<text text-anchor="start" x="367" y="-80.3" font-family="arial" font-size="14.00"> 10:BN </text>
<text text-anchor="start" x="429" y="-80.3" font-family="arial" font-size="14.00"> </text>
<text text-anchor="start" x="437" y="-80.3" font-family="arial" font-size="14.00"> J2:10</text>
<polygon fill="#000000" stroke="transparent" points="300,-72.5 300,-74.5 476,-74.5 476,-72.5 300,-72.5"/>
<defs>
<linearGradient id="l_9" gradientUnits="userSpaceOnUse" x1="300" y1="-71.5" x2="476" y2="-71.5" >
<stop offset="0" style="stop-color:#895956;stop-opacity:1.;"/>
<stop offset="1" style="stop-color:#895956;stop-opacity:1.;"/>
</linearGradient>
</defs>
<polygon fill="url(#l_9)" stroke="transparent" points="300,-70.5 300,-72.5 476,-72.5 476,-70.5 300,-70.5"/>
<polygon fill="#000000" stroke="transparent" points="300,-68.5 300,-70.5 476,-70.5 476,-68.5 300,-68.5"/>
<text text-anchor="start" x="302" y="-55.3" font-family="arial" font-size="14.00"> J1:11 </text>
<text text-anchor="start" x="347" y="-55.3" font-family="arial" font-size="14.00"> </text>
<text text-anchor="start" x="368" y="-55.3" font-family="arial" font-size="14.00"> 11:PK </text>
<text text-anchor="start" x="429" y="-55.3" font-family="arial" font-size="14.00"> </text>
<text text-anchor="start" x="437" y="-55.3" font-family="arial" font-size="14.00"> J2:11</text>
<polygon fill="#000000" stroke="transparent" points="300,-47.5 300,-49.5 476,-49.5 476,-47.5 300,-47.5"/>
<defs>
<linearGradient id="l_10" gradientUnits="userSpaceOnUse" x1="300" y1="-46.5" x2="476" y2="-46.5" >
<stop offset="0" style="stop-color:#ff66cc;stop-opacity:1.;"/>
<stop offset="1" style="stop-color:#ff66cc;stop-opacity:1.;"/>
</linearGradient>
</defs>
<polygon fill="url(#l_10)" stroke="transparent" points="300,-45.5 300,-47.5 476,-47.5 476,-45.5 300,-45.5"/>
<polygon fill="#000000" stroke="transparent" points="300,-43.5 300,-45.5 476,-45.5 476,-43.5 300,-43.5"/>
<text text-anchor="start" x="302" y="-30.3" font-family="arial" font-size="14.00"> J1:12 </text>
<text text-anchor="start" x="347" y="-30.3" font-family="arial" font-size="14.00"> </text>
<text text-anchor="start" x="355" y="-30.3" font-family="arial" font-size="14.00"> 12:RDWH </text>
<text text-anchor="start" x="429" y="-30.3" font-family="arial" font-size="14.00"> </text>
<text text-anchor="start" x="437" y="-30.3" font-family="arial" font-size="14.00"> J2:12</text>
<polygon fill="#000000" stroke="transparent" points="300,-22.5 300,-24.5 476,-24.5 476,-22.5 300,-22.5"/>
<defs>
<linearGradient id="l_11" gradientUnits="userSpaceOnUse" x1="300" y1="-21.5" x2="476" y2="-21.5" >
<stop offset="0" style="stop-color:#ff0000;stop-opacity:1.;"/>
<stop offset="1" style="stop-color:#ffffff;stop-opacity:1.;"/>
</linearGradient>
</defs>
<polygon fill="url(#l_11)" stroke="transparent" points="300,-20.5 300,-22.5 476,-22.5 476,-20.5 300,-20.5"/>
<polygon fill="#000000" stroke="transparent" points="300,-18.5 300,-20.5 476,-20.5 476,-18.5 300,-18.5"/>
<text text-anchor="start" x="320.5" y="-5.3" font-family="arial" font-size="14.00"> </text>
</g>
<!-- J1&#45;&#45;C1 -->
<g id="edge1" class="edge">
<title>J1:e&#45;&#45;C1:w</title>
<path fill="none" stroke="#000000" stroke-width="2" d="M84,-286.5C84.18,-282.5 300.18,-292.5 300,-296.5"/>
<path fill="none" stroke="#ff0000" stroke-width="2" d="M84,-286.5C84.09,-284.5 300.09,-294.5 300,-296.5"/>
<path fill="none" stroke="#ff0000" stroke-width="2" d="M84,-286.5C84,-286.5 300,-296.5 300,-296.5"/>
<path fill="none" stroke="#ff0000" stroke-width="2" d="M84,-286.5C83.91,-288.5 299.91,-298.5 300,-296.5"/>
<path fill="none" stroke="#000000" stroke-width="2" d="M84,-286.5C83.82,-290.5 299.82,-300.5 300,-296.5"/>
</g>
<!-- J1&#45;&#45;C1 -->
<g id="edge3" class="edge">
<title>J1:e&#45;&#45;C1:w</title>
<path fill="none" stroke="#000000" stroke-width="2" d="M84,-263.5C84.15,-259.5 300.15,-267.5 300,-271.5"/>
<path fill="none" stroke="#000000" stroke-width="2" d="M84,-263.5C84.07,-261.5 300.07,-269.5 300,-271.5"/>
<path fill="none" stroke="#000000" stroke-width="2" d="M84,-263.5C84,-263.5 300,-271.5 300,-271.5"/>
<path fill="none" stroke="#000000" stroke-width="2" d="M84,-263.5C83.93,-265.5 299.93,-273.5 300,-271.5"/>
<path fill="none" stroke="#000000" stroke-width="2" d="M84,-263.5C83.85,-267.5 299.85,-275.5 300,-271.5"/>
</g>
<!-- J1&#45;&#45;C1 -->
<g id="edge5" class="edge">
<title>J1:e&#45;&#45;C1:w</title>
<path fill="none" stroke="#000000" stroke-width="2" d="M84,-240.5C84.11,-236.5 300.11,-242.5 300,-246.5"/>
<path fill="none" stroke="#00aa00" stroke-width="2" d="M84,-240.5C84.06,-238.5 300.06,-244.5 300,-246.5"/>
<path fill="none" stroke="#00aa00" stroke-width="2" d="M84,-240.5C84,-240.5 300,-246.5 300,-246.5"/>
<path fill="none" stroke="#00aa00" stroke-width="2" d="M84,-240.5C83.94,-242.5 299.94,-248.5 300,-246.5"/>
<path fill="none" stroke="#000000" stroke-width="2" d="M84,-240.5C83.89,-244.5 299.89,-250.5 300,-246.5"/>
</g>
<!-- J1&#45;&#45;C1 -->
<g id="edge7" class="edge">
<title>J1:e&#45;&#45;C1:w</title>
<path fill="none" stroke="#000000" stroke-width="2" d="M84,-217.5C84.07,-213.5 300.07,-217.5 300,-221.5"/>
<path fill="none" stroke="#ffffff" stroke-width="2" d="M84,-217.5C84.04,-215.5 300.04,-219.5 300,-221.5"/>
<path fill="none" stroke="#ffffff" stroke-width="2" d="M84,-217.5C84,-217.5 300,-221.5 300,-221.5"/>
<path fill="none" stroke="#ffffff" stroke-width="2" d="M84,-217.5C83.96,-219.5 299.96,-223.5 300,-221.5"/>
<path fill="none" stroke="#000000" stroke-width="2" d="M84,-217.5C83.93,-221.5 299.93,-225.5 300,-221.5"/>
</g>
<!-- J1&#45;&#45;C1 -->
<g id="edge9" class="edge">
<title>J1:e&#45;&#45;C1:w</title>
<path fill="none" stroke="#000000" stroke-width="2" d="M84,-193.5C84.06,-189.5 300.06,-192.5 300,-196.5"/>
<path fill="none" stroke="#0066ff" stroke-width="2" d="M84,-193.5C84.03,-191.5 300.03,-194.5 300,-196.5"/>
<path fill="none" stroke="#0066ff" stroke-width="2" d="M84,-193.5C84,-193.5 300,-196.5 300,-196.5"/>
<path fill="none" stroke="#0066ff" stroke-width="2" d="M84,-193.5C83.97,-195.5 299.97,-198.5 300,-196.5"/>
<path fill="none" stroke="#000000" stroke-width="2" d="M84,-193.5C83.94,-197.5 299.94,-200.5 300,-196.5"/>
</g>
<!-- J1&#45;&#45;C1 -->
<g id="edge11" class="edge">
<title>J1:e&#45;&#45;C1:w</title>
<path fill="none" stroke="#000000" stroke-width="2" d="M84,-170.5C84.02,-166.5 300.02,-167.5 300,-171.5"/>
<path fill="none" stroke="#ffff00" stroke-width="2" d="M84,-170.5C84.01,-168.5 300.01,-169.5 300,-171.5"/>
<path fill="none" stroke="#ffff00" stroke-width="2" d="M84,-170.5C84,-170.5 300,-171.5 300,-171.5"/>
<path fill="none" stroke="#ffff00" stroke-width="2" d="M84,-170.5C83.99,-172.5 299.99,-173.5 300,-171.5"/>
<path fill="none" stroke="#000000" stroke-width="2" d="M84,-170.5C83.98,-174.5 299.98,-175.5 300,-171.5"/>
</g>
<!-- J1&#45;&#45;C1 -->
<g id="edge13" class="edge">
<title>J1:e&#45;&#45;C1:w</title>
<path fill="none" stroke="#000000" stroke-width="2" d="M84,-147.5C83.98,-143.5 299.98,-142.5 300,-146.5"/>
<path fill="none" stroke="#8000ff" stroke-width="2" d="M84,-147.5C83.99,-145.5 299.99,-144.5 300,-146.5"/>
<path fill="none" stroke="#8000ff" stroke-width="2" d="M84,-147.5C84,-147.5 300,-146.5 300,-146.5"/>
<path fill="none" stroke="#8000ff" stroke-width="2" d="M84,-147.5C84.01,-149.5 300.01,-148.5 300,-146.5"/>
<path fill="none" stroke="#000000" stroke-width="2" d="M84,-147.5C84.02,-151.5 300.02,-150.5 300,-146.5"/>
</g>
<!-- J1&#45;&#45;C1 -->
<g id="edge15" class="edge">
<title>J1:e&#45;&#45;C1:w</title>
<path fill="none" stroke="#000000" stroke-width="2" d="M84,-124.5C83.94,-120.5 299.94,-117.5 300,-121.5"/>
<path fill="none" stroke="#999999" stroke-width="2" d="M84,-124.5C83.97,-122.5 299.97,-119.5 300,-121.5"/>
<path fill="none" stroke="#999999" stroke-width="2" d="M84,-124.5C84,-124.5 300,-121.5 300,-121.5"/>
<path fill="none" stroke="#999999" stroke-width="2" d="M84,-124.5C84.03,-126.5 300.03,-123.5 300,-121.5"/>
<path fill="none" stroke="#000000" stroke-width="2" d="M84,-124.5C84.06,-128.5 300.06,-125.5 300,-121.5"/>
</g>
<!-- J1&#45;&#45;C1 -->
<g id="edge17" class="edge">
<title>J1:e&#45;&#45;C1:w</title>
<path fill="none" stroke="#000000" stroke-width="2" d="M84,-101.5C83.91,-97.5 299.91,-92.5 300,-96.5"/>
<path fill="none" stroke="#ff8000" stroke-width="2" d="M84,-101.5C83.95,-99.5 299.95,-94.5 300,-96.5"/>
<path fill="none" stroke="#ff8000" stroke-width="2" d="M84,-101.5C84,-101.5 300,-96.5 300,-96.5"/>
<path fill="none" stroke="#ff8000" stroke-width="2" d="M84,-101.5C84.05,-103.5 300.05,-98.5 300,-96.5"/>
<path fill="none" stroke="#000000" stroke-width="2" d="M84,-101.5C84.09,-105.5 300.09,-100.5 300,-96.5"/>
</g>
<!-- J1&#45;&#45;C1 -->
<g id="edge19" class="edge">
<title>J1:e&#45;&#45;C1:w</title>
<path fill="none" stroke="#000000" stroke-width="2" d="M84,-78.5C83.87,-74.5 299.87,-67.5 300,-71.5"/>
<path fill="none" stroke="#895956" stroke-width="2" d="M84,-78.5C83.94,-76.5 299.94,-69.5 300,-71.5"/>
<path fill="none" stroke="#895956" stroke-width="2" d="M84,-78.5C84,-78.5 300,-71.5 300,-71.5"/>
<path fill="none" stroke="#895956" stroke-width="2" d="M84,-78.5C84.06,-80.5 300.06,-73.5 300,-71.5"/>
<path fill="none" stroke="#000000" stroke-width="2" d="M84,-78.5C84.13,-82.5 300.13,-75.5 300,-71.5"/>
</g>
<!-- J1&#45;&#45;C1 -->
<g id="edge21" class="edge">
<title>J1:e&#45;&#45;C1:w</title>
<path fill="none" stroke="#000000" stroke-width="2" d="M84,-55.5C83.83,-51.5 299.83,-42.5 300,-46.5"/>
<path fill="none" stroke="#ff66cc" stroke-width="2" d="M84,-55.5C83.92,-53.5 299.92,-44.5 300,-46.5"/>
<path fill="none" stroke="#ff66cc" stroke-width="2" d="M84,-55.5C84,-55.5 300,-46.5 300,-46.5"/>
<path fill="none" stroke="#ff66cc" stroke-width="2" d="M84,-55.5C84.08,-57.5 300.08,-48.5 300,-46.5"/>
<path fill="none" stroke="#000000" stroke-width="2" d="M84,-55.5C84.17,-59.5 300.17,-50.5 300,-46.5"/>
</g>
<!-- J1&#45;&#45;C1 -->
<g id="edge23" class="edge">
<title>J1:e&#45;&#45;C1:w</title>
<path fill="none" stroke="#000000" stroke-width="2" d="M84,-32.5C83.8,-28.51 299.8,-17.51 300,-21.5"/>
<path fill="none" stroke="#ff0000" stroke-width="2" d="M84,-32.5C83.9,-30.5 299.9,-19.5 300,-21.5"/>
<path fill="none" stroke="#ffffff" stroke-width="2" d="M84,-32.5C84,-32.5 300,-21.5 300,-21.5"/>
<path fill="none" stroke="#ff0000" stroke-width="2" d="M84,-32.5C84.1,-34.5 300.1,-23.5 300,-21.5"/>
<path fill="none" stroke="#000000" stroke-width="2" d="M84,-32.5C84.2,-36.49 300.2,-25.49 300,-21.5"/>
</g>
<!-- J2 -->
<g id="node2" class="node">
<title>J2</title>
<polygon fill="#ffffff" stroke="black" points="776,-367 692,-367 692,-22 776,-22 776,-367"/>
<polygon fill="#ffffff" stroke="transparent" points="692,-22 692,-367 776,-367 776,-22 692,-22"/>
<polygon fill="#ffffff" stroke="transparent" points="692,-343.5 692,-366.5 776,-366.5 776,-343.5 692,-343.5"/>
<polygon fill="none" stroke="black" points="692,-343.5 692,-366.5 776,-366.5 776,-343.5 692,-343.5"/>
<text text-anchor="start" x="718.5" y="-352.3" font-family="arial" font-size="14.00"> </text>
<text text-anchor="start" x="722.5" y="-352.3" font-family="arial" font-weight="bold" font-size="14.00"> J2 </text>
<text text-anchor="start" x="745.5" y="-352.3" font-family="arial" font-size="14.00"> </text>
<polygon fill="none" stroke="black" points="692,-320.5 692,-343.5 776,-343.5 776,-320.5 692,-320.5"/>
<text text-anchor="start" x="696" y="-328.3" font-family="arial" font-size="14.00"> P/N: J2&#45;PN </text>
<polygon fill="none" stroke="black" points="692,-297.5 692,-320.5 715,-320.5 715,-297.5 692,-297.5"/>
<text text-anchor="start" x="699.5" y="-305.3" font-family="arial" font-size="14.00"> &#160;</text>
<polygon fill="none" stroke="black" points="715,-297.5 715,-320.5 776,-320.5 776,-297.5 715,-297.5"/>
<text text-anchor="start" x="722.5" y="-305.3" font-family="arial" font-size="14.00"> 12&#45;pin </text>
<polygon fill="none" stroke="black" points="692,-274.5 692,-297.5 731,-297.5 731,-274.5 692,-274.5"/>
<text text-anchor="start" x="703.5" y="-282.3" font-family="arial" font-size="14.00"> 1 </text>
<polygon fill="none" stroke="black" points="731,-274.5 731,-297.5 776,-297.5 776,-274.5 731,-274.5"/>
<text text-anchor="start" x="745.5" y="-282.3" font-family="arial" font-size="14.00"> 1 </text>
<polygon fill="none" stroke="black" points="692,-251.5 692,-274.5 731,-274.5 731,-251.5 692,-251.5"/>
<text text-anchor="start" x="703.5" y="-259.3" font-family="arial" font-size="14.00"> 2 </text>
<polygon fill="none" stroke="black" points="731,-251.5 731,-274.5 776,-274.5 776,-251.5 731,-251.5"/>
<text text-anchor="start" x="745.5" y="-259.3" font-family="arial" font-size="14.00"> 2 </text>
<polygon fill="none" stroke="black" points="692,-228.5 692,-251.5 731,-251.5 731,-228.5 692,-228.5"/>
<text text-anchor="start" x="703.5" y="-236.3" font-family="arial" font-size="14.00"> 3 </text>
<polygon fill="none" stroke="black" points="731,-228.5 731,-251.5 776,-251.5 776,-228.5 731,-228.5"/>
<text text-anchor="start" x="745.5" y="-236.3" font-family="arial" font-size="14.00"> 3 </text>
<polygon fill="none" stroke="black" points="692,-205.5 692,-228.5 731,-228.5 731,-205.5 692,-205.5"/>
<text text-anchor="start" x="703.5" y="-213.3" font-family="arial" font-size="14.00"> 4 </text>
<polygon fill="none" stroke="black" points="731,-205.5 731,-228.5 776,-228.5 776,-205.5 731,-205.5"/>
<text text-anchor="start" x="745.5" y="-213.3" font-family="arial" font-size="14.00"> 4 </text>
<polygon fill="none" stroke="black" points="692,-182.5 692,-205.5 731,-205.5 731,-182.5 692,-182.5"/>
<text text-anchor="start" x="703.5" y="-190.3" font-family="arial" font-size="14.00"> 5 </text>
<polygon fill="none" stroke="black" points="731,-182.5 731,-205.5 776,-205.5 776,-182.5 731,-182.5"/>
<text text-anchor="start" x="745.5" y="-190.3" font-family="arial" font-size="14.00"> 5 </text>
<polygon fill="none" stroke="black" points="692,-159.5 692,-182.5 731,-182.5 731,-159.5 692,-159.5"/>
<text text-anchor="start" x="703.5" y="-167.3" font-family="arial" font-size="14.00"> 6 </text>
<polygon fill="none" stroke="black" points="731,-159.5 731,-182.5 776,-182.5 776,-159.5 731,-159.5"/>
<text text-anchor="start" x="745.5" y="-167.3" font-family="arial" font-size="14.00"> 6 </text>
<polygon fill="none" stroke="black" points="692,-136.5 692,-159.5 731,-159.5 731,-136.5 692,-136.5"/>
<text text-anchor="start" x="703.5" y="-144.3" font-family="arial" font-size="14.00"> 7 </text>
<polygon fill="none" stroke="black" points="731,-136.5 731,-159.5 776,-159.5 776,-136.5 731,-136.5"/>
<text text-anchor="start" x="745.5" y="-144.3" font-family="arial" font-size="14.00"> 7 </text>
<polygon fill="none" stroke="black" points="692,-113.5 692,-136.5 731,-136.5 731,-113.5 692,-113.5"/>
<text text-anchor="start" x="703.5" y="-121.3" font-family="arial" font-size="14.00"> 8 </text>
<polygon fill="none" stroke="black" points="731,-113.5 731,-136.5 776,-136.5 776,-113.5 731,-113.5"/>
<text text-anchor="start" x="745.5" y="-121.3" font-family="arial" font-size="14.00"> 8 </text>
<polygon fill="none" stroke="black" points="692,-90.5 692,-113.5 731,-113.5 731,-90.5 692,-90.5"/>
<text text-anchor="start" x="703.5" y="-98.3" font-family="arial" font-size="14.00"> 9 </text>
<polygon fill="none" stroke="black" points="731,-90.5 731,-113.5 776,-113.5 776,-90.5 731,-90.5"/>
<text text-anchor="start" x="745.5" y="-98.3" font-family="arial" font-size="14.00"> 9 </text>
<polygon fill="none" stroke="black" points="692,-67.5 692,-90.5 731,-90.5 731,-67.5 692,-67.5"/>
<text text-anchor="start" x="700" y="-75.3" font-family="arial" font-size="14.00"> 10 </text>
<polygon fill="none" stroke="black" points="731,-67.5 731,-90.5 776,-90.5 776,-67.5 731,-67.5"/>
<text text-anchor="start" x="742" y="-75.3" font-family="arial" font-size="14.00"> 10 </text>
<polygon fill="none" stroke="black" points="692,-44.5 692,-67.5 731,-67.5 731,-44.5 692,-44.5"/>
<text text-anchor="start" x="700" y="-52.3" font-family="arial" font-size="14.00"> 11 </text>
<polygon fill="none" stroke="black" points="731,-44.5 731,-67.5 776,-67.5 776,-44.5 731,-44.5"/>
<text text-anchor="start" x="742" y="-52.3" font-family="arial" font-size="14.00"> 11 </text>
<polygon fill="none" stroke="black" points="692,-21.5 692,-44.5 731,-44.5 731,-21.5 692,-21.5"/>
<text text-anchor="start" x="700" y="-29.3" font-family="arial" font-size="14.00"> 12 </text>
<polygon fill="none" stroke="black" points="731,-21.5 731,-44.5 776,-44.5 776,-21.5 731,-21.5"/>
<text text-anchor="start" x="742" y="-29.3" font-family="arial" font-size="14.00"> 12 </text>
</g>
<!-- C1&#45;&#45;J2 -->
<g id="edge2" class="edge">
<title>C1:e&#45;&#45;J2:w</title>
<path fill="none" stroke="#000000" stroke-width="2" d="M476,-296.5C475.82,-292.5 691.82,-282.5 692,-286.5"/>
<path fill="none" stroke="#ff0000" stroke-width="2" d="M476,-296.5C475.91,-294.5 691.91,-284.5 692,-286.5"/>
<path fill="none" stroke="#ff0000" stroke-width="2" d="M476,-296.5C476,-296.5 692,-286.5 692,-286.5"/>
<path fill="none" stroke="#ff0000" stroke-width="2" d="M476,-296.5C476.09,-298.5 692.09,-288.5 692,-286.5"/>
<path fill="none" stroke="#000000" stroke-width="2" d="M476,-296.5C476.18,-300.5 692.18,-290.5 692,-286.5"/>
</g>
<!-- C1&#45;&#45;J2 -->
<g id="edge4" class="edge">
<title>C1:e&#45;&#45;J2:w</title>
<path fill="none" stroke="#000000" stroke-width="2" d="M476,-271.5C475.85,-267.5 691.85,-259.5 692,-263.5"/>
<path fill="none" stroke="#000000" stroke-width="2" d="M476,-271.5C475.93,-269.5 691.93,-261.5 692,-263.5"/>
<path fill="none" stroke="#000000" stroke-width="2" d="M476,-271.5C476,-271.5 692,-263.5 692,-263.5"/>
<path fill="none" stroke="#000000" stroke-width="2" d="M476,-271.5C476.07,-273.5 692.07,-265.5 692,-263.5"/>
<path fill="none" stroke="#000000" stroke-width="2" d="M476,-271.5C476.15,-275.5 692.15,-267.5 692,-263.5"/>
</g>
<!-- C1&#45;&#45;J2 -->
<g id="edge6" class="edge">
<title>C1:e&#45;&#45;J2:w</title>
<path fill="none" stroke="#000000" stroke-width="2" d="M476,-246.5C475.89,-242.5 691.89,-236.5 692,-240.5"/>
<path fill="none" stroke="#00aa00" stroke-width="2" d="M476,-246.5C475.94,-244.5 691.94,-238.5 692,-240.5"/>
<path fill="none" stroke="#00aa00" stroke-width="2" d="M476,-246.5C476,-246.5 692,-240.5 692,-240.5"/>
<path fill="none" stroke="#00aa00" stroke-width="2" d="M476,-246.5C476.06,-248.5 692.06,-242.5 692,-240.5"/>
<path fill="none" stroke="#000000" stroke-width="2" d="M476,-246.5C476.11,-250.5 692.11,-244.5 692,-240.5"/>
</g>
<!-- C1&#45;&#45;J2 -->
<g id="edge8" class="edge">
<title>C1:e&#45;&#45;J2:w</title>
<path fill="none" stroke="#000000" stroke-width="2" d="M476,-221.5C475.93,-217.5 691.93,-213.5 692,-217.5"/>
<path fill="none" stroke="#ffffff" stroke-width="2" d="M476,-221.5C475.96,-219.5 691.96,-215.5 692,-217.5"/>
<path fill="none" stroke="#ffffff" stroke-width="2" d="M476,-221.5C476,-221.5 692,-217.5 692,-217.5"/>
<path fill="none" stroke="#ffffff" stroke-width="2" d="M476,-221.5C476.04,-223.5 692.04,-219.5 692,-217.5"/>
<path fill="none" stroke="#000000" stroke-width="2" d="M476,-221.5C476.07,-225.5 692.07,-221.5 692,-217.5"/>
</g>
<!-- C1&#45;&#45;J2 -->
<g id="edge10" class="edge">
<title>C1:e&#45;&#45;J2:w</title>
<path fill="none" stroke="#000000" stroke-width="2" d="M476,-196.5C475.94,-192.5 691.94,-189.5 692,-193.5"/>
<path fill="none" stroke="#0066ff" stroke-width="2" d="M476,-196.5C475.97,-194.5 691.97,-191.5 692,-193.5"/>
<path fill="none" stroke="#0066ff" stroke-width="2" d="M476,-196.5C476,-196.5 692,-193.5 692,-193.5"/>
<path fill="none" stroke="#0066ff" stroke-width="2" d="M476,-196.5C476.03,-198.5 692.03,-195.5 692,-193.5"/>
<path fill="none" stroke="#000000" stroke-width="2" d="M476,-196.5C476.06,-200.5 692.06,-197.5 692,-193.5"/>
</g>
<!-- C1&#45;&#45;J2 -->
<g id="edge12" class="edge">
<title>C1:e&#45;&#45;J2:w</title>
<path fill="none" stroke="#000000" stroke-width="2" d="M476,-171.5C475.98,-167.5 691.98,-166.5 692,-170.5"/>
<path fill="none" stroke="#ffff00" stroke-width="2" d="M476,-171.5C475.99,-169.5 691.99,-168.5 692,-170.5"/>
<path fill="none" stroke="#ffff00" stroke-width="2" d="M476,-171.5C476,-171.5 692,-170.5 692,-170.5"/>
<path fill="none" stroke="#ffff00" stroke-width="2" d="M476,-171.5C476.01,-173.5 692.01,-172.5 692,-170.5"/>
<path fill="none" stroke="#000000" stroke-width="2" d="M476,-171.5C476.02,-175.5 692.02,-174.5 692,-170.5"/>
</g>
<!-- C1&#45;&#45;J2 -->
<g id="edge14" class="edge">
<title>C1:e&#45;&#45;J2:w</title>
<path fill="none" stroke="#000000" stroke-width="2" d="M476,-146.5C476.02,-142.5 692.02,-143.5 692,-147.5"/>
<path fill="none" stroke="#8000ff" stroke-width="2" d="M476,-146.5C476.01,-144.5 692.01,-145.5 692,-147.5"/>
<path fill="none" stroke="#8000ff" stroke-width="2" d="M476,-146.5C476,-146.5 692,-147.5 692,-147.5"/>
<path fill="none" stroke="#8000ff" stroke-width="2" d="M476,-146.5C475.99,-148.5 691.99,-149.5 692,-147.5"/>
<path fill="none" stroke="#000000" stroke-width="2" d="M476,-146.5C475.98,-150.5 691.98,-151.5 692,-147.5"/>
</g>
<!-- C1&#45;&#45;J2 -->
<g id="edge16" class="edge">
<title>C1:e&#45;&#45;J2:w</title>
<path fill="none" stroke="#000000" stroke-width="2" d="M476,-121.5C476.06,-117.5 692.06,-120.5 692,-124.5"/>
<path fill="none" stroke="#999999" stroke-width="2" d="M476,-121.5C476.03,-119.5 692.03,-122.5 692,-124.5"/>
<path fill="none" stroke="#999999" stroke-width="2" d="M476,-121.5C476,-121.5 692,-124.5 692,-124.5"/>
<path fill="none" stroke="#999999" stroke-width="2" d="M476,-121.5C475.97,-123.5 691.97,-126.5 692,-124.5"/>
<path fill="none" stroke="#000000" stroke-width="2" d="M476,-121.5C475.94,-125.5 691.94,-128.5 692,-124.5"/>
</g>
<!-- C1&#45;&#45;J2 -->
<g id="edge18" class="edge">
<title>C1:e&#45;&#45;J2:w</title>
<path fill="none" stroke="#000000" stroke-width="2" d="M476,-96.5C476.09,-92.5 692.09,-97.5 692,-101.5"/>
<path fill="none" stroke="#ff8000" stroke-width="2" d="M476,-96.5C476.05,-94.5 692.05,-99.5 692,-101.5"/>
<path fill="none" stroke="#ff8000" stroke-width="2" d="M476,-96.5C476,-96.5 692,-101.5 692,-101.5"/>
<path fill="none" stroke="#ff8000" stroke-width="2" d="M476,-96.5C475.95,-98.5 691.95,-103.5 692,-101.5"/>
<path fill="none" stroke="#000000" stroke-width="2" d="M476,-96.5C475.91,-100.5 691.91,-105.5 692,-101.5"/>
</g>
<!-- C1&#45;&#45;J2 -->
<g id="edge20" class="edge">
<title>C1:e&#45;&#45;J2:w</title>
<path fill="none" stroke="#000000" stroke-width="2" d="M476,-71.5C476.13,-67.5 692.13,-74.5 692,-78.5"/>
<path fill="none" stroke="#895956" stroke-width="2" d="M476,-71.5C476.06,-69.5 692.06,-76.5 692,-78.5"/>
<path fill="none" stroke="#895956" stroke-width="2" d="M476,-71.5C476,-71.5 692,-78.5 692,-78.5"/>
<path fill="none" stroke="#895956" stroke-width="2" d="M476,-71.5C475.94,-73.5 691.94,-80.5 692,-78.5"/>
<path fill="none" stroke="#000000" stroke-width="2" d="M476,-71.5C475.87,-75.5 691.87,-82.5 692,-78.5"/>
</g>
<!-- C1&#45;&#45;J2 -->
<g id="edge22" class="edge">
<title>C1:e&#45;&#45;J2:w</title>
<path fill="none" stroke="#000000" stroke-width="2" d="M476,-46.5C476.17,-42.5 692.17,-51.5 692,-55.5"/>
<path fill="none" stroke="#ff66cc" stroke-width="2" d="M476,-46.5C476.08,-44.5 692.08,-53.5 692,-55.5"/>
<path fill="none" stroke="#ff66cc" stroke-width="2" d="M476,-46.5C476,-46.5 692,-55.5 692,-55.5"/>
<path fill="none" stroke="#ff66cc" stroke-width="2" d="M476,-46.5C475.92,-48.5 691.92,-57.5 692,-55.5"/>
<path fill="none" stroke="#000000" stroke-width="2" d="M476,-46.5C475.83,-50.5 691.83,-59.5 692,-55.5"/>
</g>
<!-- C1&#45;&#45;J2 -->
<g id="edge24" class="edge">
<title>C1:e&#45;&#45;J2:w</title>
<path fill="none" stroke="#000000" stroke-width="2" d="M476,-21.5C476.2,-17.51 692.2,-28.51 692,-32.5"/>
<path fill="none" stroke="#ff0000" stroke-width="2" d="M476,-21.5C476.1,-19.5 692.1,-30.5 692,-32.5"/>
<path fill="none" stroke="#ffffff" stroke-width="2" d="M476,-21.5C476,-21.5 692,-32.5 692,-32.5"/>
<path fill="none" stroke="#ff0000" stroke-width="2" d="M476,-21.5C475.9,-23.5 691.9,-34.5 692,-32.5"/>
<path fill="none" stroke="#000000" stroke-width="2" d="M476,-21.5C475.8,-25.49 691.8,-36.49 692,-32.5"/>
</g>
</g>
</svg>
