<?xml version="1.0" encoding="UTF-8" standalone="no"?>
<!DOCTYPE svg PUBLIC "-//W3C//DTD SVG 1.1//EN"
 "http://www.w3.org/Graphics/SVG/1.1/DTD/svg11.dtd">
<!-- Generated by graphviz version 2.43.0 (0)
 -->
<!-- Title: %3 Pages: 1 -->
<svg width="1056pt" height="192pt"
 viewBox="0.00 0.00 1056.00 192.00" xmlns="http://www.w3.org/2000/svg" xmlns:xlink="http://www.w3.org/1999/xlink">
<g id="graph0" class="graph" transform="scale(1 1) rotate(0) translate(4 188)">
<title>%3</title>
<polygon fill="#ffffff" stroke="transparent" points="-4,4 -4,-188 1052,-188 1052,4 -4,4"/>
<!-- X1 -->
<g id="node1" class="node">
<title>X1</title>
<polygon fill="#ffffff" stroke="black" points="204,-152 0,-152 0,-14 204,-14 204,-152"/>
<polygon fill="#ffffff" stroke="transparent" points="0,-14 0,-152 204,-152 204,-14 0,-14"/>
<polygon fill="#ffffff" stroke="transparent" points="0,-129 0,-152 204,-152 204,-129 0,-129"/>
<polygon fill="none" stroke="black" points="0,-129 0,-152 204,-152 204,-129 0,-129"/>
<text text-anchor="start" x="85.5" y="-137.8" font-family="arial" font-size="14.00"> </text>
<text text-anchor="start" x="89.5" y="-137.8" font-family="arial" font-weight="bold" font-size="14.00"> X1 </text>
<text text-anchor="start" x="114.5" y="-137.8" font-family="arial" font-size="14.00"> </text>
<polygon fill="none" stroke="black" points="0,-106 0,-129 101,-129 101,-106 0,-106"/>
<text text-anchor="start" x="4" y="-113.8" font-family="arial" font-size="14.00"> Molex KK 254 </text>
<polygon fill="none" stroke="black" points="101,-106 101,-129 158,-129 158,-106 101,-106"/>
<text text-anchor="start" x="105" y="-113.8" font-family="arial" font-size="14.00"> female </text>
<polygon fill="none" stroke="black" points="158,-106 158,-129 204,-129 204,-106 158,-106"/>
<text text-anchor="start" x="162" y="-113.8" font-family="arial" font-size="14.00"> 4&#45;pin </text>
<polygon fill="none" stroke="black" points="0,-83 0,-106 136,-106 136,-83 0,-83"/>
<text text-anchor="start" x="48" y="-90.8" font-family="arial" font-size="14.00"> None </text>
<polygon fill="none" stroke="black" points="136,-83 136,-106 204,-106 204,-83 136,-83"/>
<text text-anchor="start" x="162" y="-90.8" font-family="arial" font-size="14.00"> 1 </text>
<polygon fill="none" stroke="black" points="0,-60 0,-83 136,-83 136,-60 0,-60"/>
<text text-anchor="start" x="48" y="-67.8" font-family="arial" font-size="14.00"> None </text>
<polygon fill="none" stroke="black" points="136,-60 136,-83 204,-83 204,-60 136,-60"/>
<text text-anchor="start" x="162" y="-67.8" font-family="arial" font-size="14.00"> 2 </text>
<polygon fill="none" stroke="black" points="0,-37 0,-60 136,-60 136,-37 0,-37"/>
<text text-anchor="start" x="48" y="-44.8" font-family="arial" font-size="14.00"> None </text>
<polygon fill="none" stroke="black" points="136,-37 136,-60 204,-60 204,-37 136,-37"/>
<text text-anchor="start" x="162" y="-44.8" font-family="arial" font-size="14.00"> 3 </text>
<polygon fill="none" stroke="black" points="0,-14 0,-37 136,-37 136,-14 0,-14"/>
<text text-anchor="start" x="48" y="-21.8" font-family="arial" font-size="14.00"> None </text>
<polygon fill="none" stroke="black" points="136,-14 136,-37 204,-37 204,-14 136,-14"/>
<text text-anchor="start" x="162" y="-21.8" font-family="arial" font-size="14.00"> 4 </text>
</g>
<!-- W1 -->
<g id="node3" class="node">
<title>W1</title>
<polygon fill="#ffffff" stroke="black" points="628,-184 420,-184 420,0 628,0 628,-184"/>
<polygon fill="#ffffff" stroke="transparent" points="420,0 420,-184 628,-184 628,0 420,0"/>
<polygon fill="#ffffff" stroke="transparent" points="420,-161 420,-184 628,-184 628,-161 420,-161"/>
<polygon fill="none" stroke="black" points="420,-161 420,-184 628,-184 628,-161 420,-161"/>
<text text-anchor="start" x="505.5" y="-169.8" font-family="arial" font-size="14.00"> </text>
<text text-anchor="start" x="509.5" y="-169.8" font-family="arial" font-weight="bold" font-size="14.00"> W1 </text>
<text text-anchor="start" x="538.5" y="-169.8" font-family="arial" font-size="14.00"> </text>
<polygon fill="none" stroke="black" points="420,-138 420,-161 450,-161 450,-138 420,-138"/>
<text text-anchor="start" x="424" y="-145.8" font-family="arial" font-size="14.00"> 4x </text>
<polygon fill="none" stroke="black" points="450,-138 450,-161 589,-161 589,-138 450,-138"/>
<text text-anchor="start" x="454" y="-145.8" font-family="arial" font-size="14.00"> 0.25 mm² (24 AWG) </text>
<polygon fill="none" stroke="black" points="589,-138 589,-161 628,-161 628,-138 589,-138"/>
<text text-anchor="start" x="593" y="-145.8" font-family="arial" font-size="14.00"> 1 m </text>
<text text-anchor="start" x="445" y="-124.8" font-family="arial" font-size="14.00"> </text>
<text text-anchor="start" x="422" y="-105.8" font-family="arial" font-size="14.00"> X1:1 </text>
<text text-anchor="start" x="483" y="-105.8" font-family="arial" font-size="14.00"> </text>
<text text-anchor="start" x="505" y="-105.8" font-family="arial" font-size="14.00"> 1:WH </text>
<text text-anchor="start" x="566" y="-105.8" font-family="arial" font-size="14.00"> </text>
<text text-anchor="start" x="594" y="-105.8" font-family="arial" font-size="14.00"> X2:1</text>
<polygon fill="#000000" stroke="transparent" points="420,-98 420,-100 628,-100 628,-98 420,-98"/>
<polygon fill="#ffffff" stroke="transparent" points="420,-96 420,-98 628,-98 628,-96 420,-96"/>
<polygon fill="#000000" stroke="transparent" points="420,-94 420,-96 628,-96 628,-94 420,-94"/>
<text text-anchor="start" x="422" y="-80.8" font-family="arial" font-size="14.00"> X1:2 </text>
<text text-anchor="start" x="483" y="-80.8" font-family="arial" font-size="14.00"> </text>
<text text-anchor="start" x="507.5" y="-80.8" font-family="arial" font-size="14.00"> 2:BN </text>
<text text-anchor="start" x="566" y="-80.8" font-family="arial" font-size="14.00"> </text>
<text text-anchor="start" x="594" y="-80.8" font-family="arial" font-size="14.00"> X2:2</text>
<polygon fill="#000000" stroke="transparent" points="420,-73 420,-75 628,-75 628,-73 420,-73"/>
<polygon fill="#895956" stroke="transparent" points="420,-71 420,-73 628,-73 628,-71 420,-71"/>
<polygon fill="#000000" stroke="transparent" points="420,-69 420,-71 628,-71 628,-69 420,-69"/>
<text text-anchor="start" x="422" y="-55.8" font-family="arial" font-size="14.00"> X1:3 </text>
<text text-anchor="start" x="483" y="-55.8" font-family="arial" font-size="14.00"> </text>
<text text-anchor="start" x="506.5" y="-55.8" font-family="arial" font-size="14.00"> 3:GN </text>
<text text-anchor="start" x="566" y="-55.8" font-family="arial" font-size="14.00"> </text>
<text text-anchor="start" x="594" y="-55.8" font-family="arial" font-size="14.00"> X2:4</text>
<polygon fill="#000000" stroke="transparent" points="420,-48 420,-50 628,-50 628,-48 420,-48"/>
<polygon fill="#00aa00" stroke="transparent" points="420,-46 420,-48 628,-48 628,-46 420,-46"/>
<polygon fill="#000000" stroke="transparent" points="420,-44 420,-46 628,-46 628,-44 420,-44"/>
<text text-anchor="start" x="422" y="-30.8" font-family="arial" font-size="14.00"> X1:4 </text>
<text text-anchor="start" x="483" y="-30.8" font-family="arial" font-size="14.00"> </text>
<text text-anchor="start" x="508" y="-30.8" font-family="arial" font-size="14.00"> 4:YE </text>
<text text-anchor="start" x="566" y="-30.8" font-family="arial" font-size="14.00"> </text>
<text text-anchor="start" x="594" y="-30.8" font-family="arial" font-size="14.00"> X2:3</text>
<polygon fill="#000000" stroke="transparent" points="420,-23 420,-25 628,-25 628,-23 420,-23"/>
<polygon fill="#ffff00" stroke="transparent" points="420,-21 420,-23 628,-23 628,-21 420,-21"/>
<polygon fill="#000000" stroke="transparent" points="420,-19 420,-21 628,-21 628,-19 420,-19"/>
<text text-anchor="start" x="445" y="-5.8" font-family="arial" font-size="14.00"> </text>
</g>
<!-- X1&#45;&#45;W1 -->
<g id="edge1" class="edge">
<title>X1:e&#45;&#45;W1:w</title>
<path fill="none" stroke="#000000" stroke-width="2" d="M204,-95C204.02,-93 420.02,-95 420,-97"/>
<path fill="none" stroke="#ffffff" stroke-width="2" d="M204,-95C204,-95 420,-97 420,-97"/>
<path fill="none" stroke="#000000" stroke-width="2" d="M204,-95C203.98,-97 419.98,-99 420,-97"/>
</g>
<!-- X1&#45;&#45;W1 -->
<g id="edge3" class="edge">
<title>X1:e&#45;&#45;W1:w</title>
<path fill="none" stroke="#000000" stroke-width="2" d="M204,-71C204.01,-69 420.01,-70 420,-72"/>
<path fill="none" stroke="#895956" stroke-width="2" d="M204,-71C204,-71 420,-72 420,-72"/>
<path fill="none" stroke="#000000" stroke-width="2" d="M204,-71C203.99,-73 419.99,-74 420,-72"/>
</g>
<!-- X1&#45;&#45;W1 -->
<g id="edge5" class="edge">
<title>X1:e&#45;&#45;W1:w</title>
<path fill="none" stroke="#000000" stroke-width="2" d="M204,-48C203.99,-46 419.99,-45 420,-47"/>
<path fill="none" stroke="#00aa00" stroke-width="2" d="M204,-48C204,-48 420,-47 420,-47"/>
<path fill="none" stroke="#000000" stroke-width="2" d="M204,-48C204.01,-50 420.01,-49 420,-47"/>
</g>
<!-- X1&#45;&#45;W1 -->
<g id="edge7" class="edge">
<title>X1:e&#45;&#45;W1:w</title>
<path fill="none" stroke="#000000" stroke-width="2" d="M204,-25C203.97,-23 419.97,-20 420,-22"/>
<path fill="none" stroke="#ffff00" stroke-width="2" d="M204,-25C204,-25 420,-22 420,-22"/>
<path fill="none" stroke="#000000" stroke-width="2" d="M204,-25C204.03,-27 420.03,-24 420,-22"/>
</g>
<!-- X2 -->
<g id="node2" class="node">
<title>X2</title>
<polygon fill="#ffffff" stroke="black" points="1048,-154 844,-154 844,-16 1048,-16 1048,-154"/>
<polygon fill="#ffffff" stroke="transparent" points="844,-16 844,-154 1048,-154 1048,-16 844,-16"/>
<polygon fill="#ffffff" stroke="transparent" points="844,-131 844,-154 1048,-154 1048,-131 844,-131"/>
<polygon fill="none" stroke="black" points="844,-131 844,-154 1048,-154 1048,-131 844,-131"/>
<text text-anchor="start" x="929.5" y="-139.8" font-family="arial" font-size="14.00"> </text>
<text text-anchor="start" x="933.5" y="-139.8" font-family="arial" font-weight="bold" font-size="14.00"> X2 </text>
<text text-anchor="start" x="958.5" y="-139.8" font-family="arial" font-size="14.00"> </text>
<polygon fill="none" stroke="black" points="844,-108 844,-131 945,-131 945,-108 844,-108"/>
<text text-anchor="start" x="848" y="-115.8" font-family="arial" font-size="14.00"> Molex KK 254 </text>
<polygon fill="none" stroke="black" points="945,-108 945,-131 1002,-131 1002,-108 945,-108"/>
<text text-anchor="start" x="949" y="-115.8" font-family="arial" font-size="14.00"> female </text>
<polygon fill="none" stroke="black" points="1002,-108 1002,-131 1048,-131 1048,-108 1002,-108"/>
<text text-anchor="start" x="1006" y="-115.8" font-family="arial" font-size="14.00"> 4&#45;pin </text>
<polygon fill="none" stroke="black" points="844,-85 844,-108 912,-108 912,-85 844,-85"/>
<text text-anchor="start" x="870" y="-92.8" font-family="arial" font-size="14.00"> 1 </text>
<polygon fill="none" stroke="black" points="912,-85 912,-108 1048,-108 1048,-85 912,-85"/>
<text text-anchor="start" x="960" y="-92.8" font-family="arial" font-size="14.00"> None </text>
<polygon fill="none" stroke="black" points="844,-62 844,-85 912,-85 912,-62 844,-62"/>
<text text-anchor="start" x="870" y="-69.8" font-family="arial" font-size="14.00"> 2 </text>
<polygon fill="none" stroke="black" points="912,-62 912,-85 1048,-85 1048,-62 912,-62"/>
<text text-anchor="start" x="960" y="-69.8" font-family="arial" font-size="14.00"> None </text>
<polygon fill="none" stroke="black" points="844,-39 844,-62 912,-62 912,-39 844,-39"/>
<text text-anchor="start" x="870" y="-46.8" font-family="arial" font-size="14.00"> 3 </text>
<polygon fill="none" stroke="black" points="912,-39 912,-62 1048,-62 1048,-39 912,-39"/>
<text text-anchor="start" x="960" y="-46.8" font-family="arial" font-size="14.00"> None </text>
<polygon fill="none" stroke="black" points="844,-16 844,-39 912,-39 912,-16 844,-16"/>
<text text-anchor="start" x="870" y="-23.8" font-family="arial" font-size="14.00"> 4 </text>
<polygon fill="none" stroke="black" points="912,-16 912,-39 1048,-39 1048,-16 912,-16"/>
<text text-anchor="start" x="960" y="-23.8" font-family="arial" font-size="14.00"> None </text>
</g>
<!-- W1&#45;&#45;X2 -->
<g id="edge2" class="edge">
<title>W1:e&#45;&#45;X2:w</title>
<path fill="none" stroke="#000000" stroke-width="2" d="M628,-97C628,-95 844,-95 844,-97"/>
<path fill="none" stroke="#ffffff" stroke-width="2" d="M628,-97C628,-97 844,-97 844,-97"/>
<path fill="none" stroke="#000000" stroke-width="2" d="M628,-97C628,-99 844,-99 844,-97"/>
</g>
<!-- W1&#45;&#45;X2 -->
<g id="edge4" class="edge">
<title>W1:e&#45;&#45;X2:w</title>
<path fill="none" stroke="#000000" stroke-width="2" d="M628,-72C628.01,-70 844.01,-71 844,-73"/>
<path fill="none" stroke="#895956" stroke-width="2" d="M628,-72C628,-72 844,-73 844,-73"/>
<path fill="none" stroke="#000000" stroke-width="2" d="M628,-72C627.99,-74 843.99,-75 844,-73"/>
</g>
<!-- W1&#45;&#45;X2 -->
<g id="edge6" class="edge">
<title>W1:e&#45;&#45;X2:w</title>
<path fill="none" stroke="#000000" stroke-width="2" d="M628,-47C627.82,-45.01 843.82,-25.01 844,-27"/>
<path fill="none" stroke="#00aa00" stroke-width="2" d="M628,-47C628,-47 844,-27 844,-27"/>
<path fill="none" stroke="#000000" stroke-width="2" d="M628,-47C628.18,-48.99 844.18,-28.99 844,-27"/>
</g>
<!-- W1&#45;&#45;X2 -->
<g id="edge8" class="edge">
<title>W1:e&#45;&#45;X2:w</title>
<path fill="none" stroke="#000000" stroke-width="2" d="M628,-22C628.26,-20.02 844.26,-48.02 844,-50"/>
<path fill="none" stroke="#ffff00" stroke-width="2" d="M628,-22C628,-22 844,-50 844,-50"/>
<path fill="none" stroke="#000000" stroke-width="2" d="M628,-22C627.74,-23.98 843.74,-51.98 844,-50"/>
</g>
</g>
</svg>
