<?xml version="1.0" encoding="UTF-8" standalone="no"?>
<!DOCTYPE svg PUBLIC "-//W3C//DTD SVG 1.1//EN"
 "http://www.w3.org/Graphics/SVG/1.1/DTD/svg11.dtd">
<!-- Generated by graphviz version 2.43.0 (0)
 -->
<!-- Title: %3 Pages: 1 -->
<svg width="966pt" height="286pt"
 viewBox="0.00 0.00 966.00 286.00" xmlns="http://www.w3.org/2000/svg" xmlns:xlink="http://www.w3.org/1999/xlink">
<g id="graph0" class="graph" transform="scale(1 1) rotate(0) translate(4 282)">
<title>%3</title>
<polygon fill="#ffffff" stroke="transparent" points="-4,4 -4,-282 962,-282 962,4 -4,4"/>
<!-- A2&#45;J1 -->
<g id="node1" class="node">
<title>A2&#45;J1</title>
<polygon fill="#ffffff" stroke="black" points="166,-244 0,-244 0,-60 166,-60 166,-244"/>
<polygon fill="#ffffff" stroke="transparent" points="0,-60 0,-244 166,-244 166,-60 0,-60"/>
<polygon fill="#ffffff" stroke="transparent" points="0,-221 0,-244 166,-244 166,-221 0,-221"/>
<polygon fill="none" stroke="black" points="0,-221 0,-244 166,-244 166,-221 0,-221"/>
<text text-anchor="start" x="57" y="-229.8" font-family="arial" font-size="14.00"> </text>
<text text-anchor="start" x="61" y="-229.8" font-family="arial" font-weight="bold" font-size="14.00"> A2&#45;J1 </text>
<text text-anchor="start" x="105" y="-229.8" font-family="arial" font-size="14.00"> </text>
<polygon fill="none" stroke="black" points="0,-198 0,-221 63,-221 63,-198 0,-198"/>
<text text-anchor="start" x="4" y="-205.8" font-family="arial" font-size="14.00"> Circular </text>
<polygon fill="none" stroke="black" points="63,-198 63,-221 120,-221 120,-198 63,-198"/>
<text text-anchor="start" x="67" y="-205.8" font-family="arial" font-size="14.00"> female </text>
<polygon fill="none" stroke="black" points="120,-198 120,-221 166,-221 166,-198 120,-198"/>
<text text-anchor="start" x="124" y="-205.8" font-family="arial" font-size="14.00"> 6&#45;pin </text>
<polygon fill="none" stroke="black" points="0,-175 0,-198 104,-198 104,-175 0,-175"/>
<text text-anchor="start" x="44" y="-182.8" font-family="arial" font-size="14.00"> A </text>
<polygon fill="none" stroke="black" points="104,-175 104,-198 166,-198 166,-175 104,-175"/>
<text text-anchor="start" x="127" y="-182.8" font-family="arial" font-size="14.00"> 1 </text>
<polygon fill="none" stroke="black" points="0,-152 0,-175 104,-175 104,-152 0,-152"/>
<text text-anchor="start" x="43.5" y="-159.8" font-family="arial" font-size="14.00"> B </text>
<polygon fill="none" stroke="black" points="104,-152 104,-175 166,-175 166,-152 104,-152"/>
<text text-anchor="start" x="127" y="-159.8" font-family="arial" font-size="14.00"> 2 </text>
<polygon fill="none" stroke="black" points="0,-129 0,-152 104,-152 104,-129 0,-129"/>
<text text-anchor="start" x="43" y="-136.8" font-family="arial" font-size="14.00"> C </text>
<polygon fill="none" stroke="black" points="104,-129 104,-152 166,-152 166,-129 104,-129"/>
<text text-anchor="start" x="127" y="-136.8" font-family="arial" font-size="14.00"> 3 </text>
<polygon fill="none" stroke="black" points="0,-106 0,-129 104,-129 104,-106 0,-106"/>
<text text-anchor="start" x="43" y="-113.8" font-family="arial" font-size="14.00"> D </text>
<polygon fill="none" stroke="black" points="104,-106 104,-129 166,-129 166,-106 104,-106"/>
<text text-anchor="start" x="127" y="-113.8" font-family="arial" font-size="14.00"> 4 </text>
<polygon fill="none" stroke="black" points="0,-83 0,-106 104,-106 104,-83 0,-83"/>
<text text-anchor="start" x="43.5" y="-90.8" font-family="arial" font-size="14.00"> E </text>
<polygon fill="none" stroke="black" points="104,-83 104,-106 166,-106 166,-83 104,-83"/>
<text text-anchor="start" x="127" y="-90.8" font-family="arial" font-size="14.00"> 5 </text>
<polygon fill="none" stroke="black" points="0,-60 0,-83 104,-83 104,-60 0,-60"/>
<text text-anchor="start" x="44" y="-67.8" font-family="arial" font-size="14.00"> F </text>
<polygon fill="none" stroke="black" points="104,-60 104,-83 166,-83 166,-60 104,-60"/>
<text text-anchor="start" x="127" y="-67.8" font-family="arial" font-size="14.00"> 6 </text>
</g>
<!-- A2&#45;W1 -->
<g id="node3" class="node">
<title>A2&#45;W1</title>
<polygon fill="#ffffff" stroke="black" points="587,-278 382,-278 382,0 587,0 587,-278"/>
<polygon fill="#ffffff" stroke="transparent" points="382,0 382,-278 587,-278 587,0 382,0"/>
<polygon fill="#ffffff" stroke="transparent" points="382.5,-255 382.5,-278 587.5,-278 587.5,-255 382.5,-255"/>
<polygon fill="none" stroke="black" points="382.5,-255 382.5,-278 587.5,-278 587.5,-255 382.5,-255"/>
<text text-anchor="start" x="456" y="-263.8" font-family="arial" font-size="14.00"> </text>
<text text-anchor="start" x="460" y="-263.8" font-family="arial" font-weight="bold" font-size="14.00"> A2&#45;W1 </text>
<text text-anchor="start" x="510" y="-263.8" font-family="arial" font-size="14.00"> </text>
<polygon fill="none" stroke="black" points="382.5,-232 382.5,-255 414.5,-255 414.5,-232 382.5,-232"/>
<text text-anchor="start" x="387.5" y="-239.8" font-family="arial" font-size="14.00"> 6x </text>
<polygon fill="none" stroke="black" points="414.5,-232 414.5,-255 490.5,-255 490.5,-232 414.5,-232"/>
<text text-anchor="start" x="419" y="-239.8" font-family="arial" font-size="14.00"> 0.75 mm² </text>
<polygon fill="none" stroke="black" points="490.5,-232 490.5,-255 528.5,-255 528.5,-232 490.5,-232"/>
<text text-anchor="start" x="495" y="-239.8" font-family="arial" font-size="14.00"> + S </text>
<polygon fill="none" stroke="black" points="528.5,-232 528.5,-255 587.5,-255 587.5,-232 528.5,-232"/>
<text text-anchor="start" x="533" y="-239.8" font-family="arial" font-size="14.00"> 1.80 m </text>
<text text-anchor="start" x="416" y="-218.8" font-family="arial" font-size="14.00"> </text>
<text text-anchor="start" x="384.5" y="-199.8" font-family="arial" font-size="14.00"> A2&#45;J1:1:A </text>
<text text-anchor="start" x="455.5" y="-199.8" font-family="arial" font-size="14.00"> </text>
<text text-anchor="start" x="467" y="-199.8" font-family="arial" font-size="14.00"> 1:RD </text>
<text text-anchor="start" x="513.5" y="-199.8" font-family="arial" font-size="14.00"> </text>
<text text-anchor="start" x="522.5" y="-199.8" font-family="arial" font-size="14.00"> A2&#45;J2:1:A</text>
<polygon fill="#000000" stroke="transparent" points="382.5,-192 382.5,-194 587.5,-194 587.5,-192 382.5,-192"/>
<polygon fill="#ff0000" stroke="transparent" points="382.5,-190 382.5,-192 587.5,-192 587.5,-190 382.5,-190"/>
<polygon fill="#000000" stroke="transparent" points="382.5,-188 382.5,-190 587.5,-190 587.5,-188 382.5,-188"/>
<text text-anchor="start" x="384.5" y="-174.8" font-family="arial" font-size="14.00"> A2&#45;J1:2:B </text>
<text text-anchor="start" x="455.5" y="-174.8" font-family="arial" font-size="14.00"> </text>
<text text-anchor="start" x="468" y="-174.8" font-family="arial" font-size="14.00"> 2:BK </text>
<text text-anchor="start" x="513.5" y="-174.8" font-family="arial" font-size="14.00"> </text>
<text text-anchor="start" x="522.5" y="-174.8" font-family="arial" font-size="14.00"> A2&#45;J2:2:B</text>
<polygon fill="#000000" stroke="transparent" points="382.5,-167 382.5,-169 587.5,-169 587.5,-167 382.5,-167"/>
<polygon fill="#000000" stroke="transparent" points="382.5,-165 382.5,-167 587.5,-167 587.5,-165 382.5,-165"/>
<polygon fill="#000000" stroke="transparent" points="382.5,-163 382.5,-165 587.5,-165 587.5,-163 382.5,-163"/>
<text text-anchor="start" x="384.5" y="-149.8" font-family="arial" font-size="14.00"> A2&#45;J1:3:C </text>
<text text-anchor="start" x="455.5" y="-149.8" font-family="arial" font-size="14.00"> </text>
<text text-anchor="start" x="466.5" y="-149.8" font-family="arial" font-size="14.00"> 3:GN </text>
<text text-anchor="start" x="513.5" y="-149.8" font-family="arial" font-size="14.00"> </text>
<text text-anchor="start" x="521.5" y="-149.8" font-family="arial" font-size="14.00"> A2&#45;J2:3:C</text>
<polygon fill="#000000" stroke="transparent" points="382.5,-142 382.5,-144 587.5,-144 587.5,-142 382.5,-142"/>
<polygon fill="#00aa00" stroke="transparent" points="382.5,-140 382.5,-142 587.5,-142 587.5,-140 382.5,-140"/>
<polygon fill="#000000" stroke="transparent" points="382.5,-138 382.5,-140 587.5,-140 587.5,-138 382.5,-138"/>
<text text-anchor="start" x="384.5" y="-124.8" font-family="arial" font-size="14.00"> A2&#45;J1:4:D </text>
<text text-anchor="start" x="455.5" y="-124.8" font-family="arial" font-size="14.00"> </text>
<text text-anchor="start" x="467.5" y="-124.8" font-family="arial" font-size="14.00"> 4:BU </text>
<text text-anchor="start" x="513.5" y="-124.8" font-family="arial" font-size="14.00"> </text>
<text text-anchor="start" x="521.5" y="-124.8" font-family="arial" font-size="14.00"> A2&#45;J2:4:D</text>
<polygon fill="#000000" stroke="transparent" points="382.5,-117 382.5,-119 587.5,-119 587.5,-117 382.5,-117"/>
<polygon fill="#0066ff" stroke="transparent" points="382.5,-115 382.5,-117 587.5,-117 587.5,-115 382.5,-115"/>
<polygon fill="#000000" stroke="transparent" points="382.5,-113 382.5,-115 587.5,-115 587.5,-113 382.5,-113"/>
<text text-anchor="start" x="384.5" y="-99.8" font-family="arial" font-size="14.00"> A2&#45;J1:5:E </text>
<text text-anchor="start" x="455.5" y="-99.8" font-family="arial" font-size="14.00"> </text>
<text text-anchor="start" x="468" y="-99.8" font-family="arial" font-size="14.00"> 5:YE </text>
<text text-anchor="start" x="513.5" y="-99.8" font-family="arial" font-size="14.00"> </text>
<text text-anchor="start" x="522.5" y="-99.8" font-family="arial" font-size="14.00"> A2&#45;J2:5:E</text>
<polygon fill="#000000" stroke="transparent" points="382.5,-92 382.5,-94 587.5,-94 587.5,-92 382.5,-92"/>
<polygon fill="#ffff00" stroke="transparent" points="382.5,-90 382.5,-92 587.5,-92 587.5,-90 382.5,-90"/>
<polygon fill="#000000" stroke="transparent" points="382.5,-88 382.5,-90 587.5,-90 587.5,-88 382.5,-88"/>
<text text-anchor="start" x="384.5" y="-74.8" font-family="arial" font-size="14.00"> A2&#45;J1:6:F </text>
<text text-anchor="start" x="455.5" y="-74.8" font-family="arial" font-size="14.00"> </text>
<text text-anchor="start" x="465" y="-74.8" font-family="arial" font-size="14.00"> 6:WH </text>
<text text-anchor="start" x="513.5" y="-74.8" font-family="arial" font-size="14.00"> </text>
<text text-anchor="start" x="523.5" y="-74.8" font-family="arial" font-size="14.00"> A2&#45;J2:6:F</text>
<polygon fill="#000000" stroke="transparent" points="382.5,-67 382.5,-69 587.5,-69 587.5,-67 382.5,-67"/>
<polygon fill="#ffffff" stroke="transparent" points="382.5,-65 382.5,-67 587.5,-67 587.5,-65 382.5,-65"/>
<polygon fill="#000000" stroke="transparent" points="382.5,-63 382.5,-65 587.5,-65 587.5,-63 382.5,-63"/>
<text text-anchor="start" x="416" y="-49.8" font-family="arial" font-size="14.00"> </text>
<text text-anchor="start" x="384.5" y="-30.8" font-family="arial" font-size="14.00"> &#160;</text>
<text text-anchor="start" x="455.5" y="-30.8" font-family="arial" font-size="14.00"> </text>
<text text-anchor="start" x="463.5" y="-30.8" font-family="arial" font-size="14.00"> Shield </text>
<text text-anchor="start" x="513.5" y="-30.8" font-family="arial" font-size="14.00"> </text>
<text text-anchor="start" x="581.5" y="-30.8" font-family="arial" font-size="14.00"> </text>
<polygon fill="#000000" stroke="transparent" points="382.5,-23 382.5,-25 587.5,-25 587.5,-23 382.5,-23"/>
<polygon fill="#ffffff" stroke="transparent" points="382.5,-21 382.5,-23 587.5,-23 587.5,-21 382.5,-21"/>
<polygon fill="#000000" stroke="transparent" points="382.5,-19 382.5,-21 587.5,-21 587.5,-19 382.5,-19"/>
<text text-anchor="start" x="416" y="-5.8" font-family="arial" font-size="14.00"> </text>
</g>
<!-- A2&#45;J1&#45;&#45;A2&#45;W1 -->
<g id="edge1" class="edge">
<title>A2&#45;J1:e&#45;&#45;A2&#45;W1:w</title>
<path fill="none" stroke="#000000" stroke-width="2" d="M166,-187C166.04,-185 382.04,-189 382,-191"/>
<path fill="none" stroke="#ff0000" stroke-width="2" d="M166,-187C166,-187 382,-191 382,-191"/>
<path fill="none" stroke="#000000" stroke-width="2" d="M166,-187C165.96,-189 381.96,-193 382,-191"/>
</g>
<!-- A2&#45;J1&#45;&#45;A2&#45;W1 -->
<g id="edge3" class="edge">
<title>A2&#45;J1:e&#45;&#45;A2&#45;W1:w</title>
<path fill="none" stroke="#000000" stroke-width="2" d="M166,-164C166.02,-162 382.02,-164 382,-166"/>
<path fill="none" stroke="#000000" stroke-width="2" d="M166,-164C166,-164 382,-166 382,-166"/>
<path fill="none" stroke="#000000" stroke-width="2" d="M166,-164C165.98,-166 381.98,-168 382,-166"/>
</g>
<!-- A2&#45;J1&#45;&#45;A2&#45;W1 -->
<g id="edge5" class="edge">
<title>A2&#45;J1:e&#45;&#45;A2&#45;W1:w</title>
<path fill="none" stroke="#000000" stroke-width="2" d="M166,-140C166.01,-138 382.01,-139 382,-141"/>
<path fill="none" stroke="#00aa00" stroke-width="2" d="M166,-140C166,-140 382,-141 382,-141"/>
<path fill="none" stroke="#000000" stroke-width="2" d="M166,-140C165.99,-142 381.99,-143 382,-141"/>
</g>
<!-- A2&#45;J1&#45;&#45;A2&#45;W1 -->
<g id="edge7" class="edge">
<title>A2&#45;J1:e&#45;&#45;A2&#45;W1:w</title>
<path fill="none" stroke="#000000" stroke-width="2" d="M166,-117C165.99,-115 381.99,-114 382,-116"/>
<path fill="none" stroke="#0066ff" stroke-width="2" d="M166,-117C166,-117 382,-116 382,-116"/>
<path fill="none" stroke="#000000" stroke-width="2" d="M166,-117C166.01,-119 382.01,-118 382,-116"/>
</g>
<!-- A2&#45;J1&#45;&#45;A2&#45;W1 -->
<g id="edge9" class="edge">
<title>A2&#45;J1:e&#45;&#45;A2&#45;W1:w</title>
<path fill="none" stroke="#000000" stroke-width="2" d="M166,-94C165.97,-92 381.97,-89 382,-91"/>
<path fill="none" stroke="#ffff00" stroke-width="2" d="M166,-94C166,-94 382,-91 382,-91"/>
<path fill="none" stroke="#000000" stroke-width="2" d="M166,-94C166.03,-96 382.03,-93 382,-91"/>
</g>
<!-- A2&#45;J1&#45;&#45;A2&#45;W1 -->
<g id="edge11" class="edge">
<title>A2&#45;J1:e&#45;&#45;A2&#45;W1:w</title>
<path fill="none" stroke="#000000" stroke-width="2" d="M166,-71C165.95,-69 381.95,-64 382,-66"/>
<path fill="none" stroke="#ffffff" stroke-width="2" d="M166,-71C166,-71 382,-66 382,-66"/>
<path fill="none" stroke="#000000" stroke-width="2" d="M166,-71C166.05,-73 382.05,-68 382,-66"/>
</g>
<!-- A2&#45;J2 -->
<g id="node2" class="node">
<title>A2&#45;J2</title>
<polygon fill="#ffffff" stroke="black" points="958,-244 803,-244 803,-60 958,-60 958,-244"/>
<polygon fill="#ffffff" stroke="transparent" points="803,-60 803,-244 958,-244 958,-60 803,-60"/>
<polygon fill="#ffffff" stroke="transparent" points="803.5,-221 803.5,-244 958.5,-244 958.5,-221 803.5,-221"/>
<polygon fill="none" stroke="black" points="803.5,-221 803.5,-244 958.5,-244 958.5,-221 803.5,-221"/>
<text text-anchor="start" x="855" y="-229.8" font-family="arial" font-size="14.00"> </text>
<text text-anchor="start" x="859" y="-229.8" font-family="arial" font-weight="bold" font-size="14.00"> A2&#45;J2 </text>
<text text-anchor="start" x="903" y="-229.8" font-family="arial" font-size="14.00"> </text>
<polygon fill="none" stroke="black" points="803.5,-198 803.5,-221 866.5,-221 866.5,-198 803.5,-198"/>
<text text-anchor="start" x="807.5" y="-205.8" font-family="arial" font-size="14.00"> Circular </text>
<polygon fill="none" stroke="black" points="866.5,-198 866.5,-221 912.5,-221 912.5,-198 866.5,-198"/>
<text text-anchor="start" x="870.5" y="-205.8" font-family="arial" font-size="14.00"> male </text>
<polygon fill="none" stroke="black" points="912.5,-198 912.5,-221 958.5,-221 958.5,-198 912.5,-198"/>
<text text-anchor="start" x="916.5" y="-205.8" font-family="arial" font-size="14.00"> 6&#45;pin </text>
<polygon fill="none" stroke="black" points="803.5,-175 803.5,-198 862.5,-198 862.5,-175 803.5,-175"/>
<text text-anchor="start" x="825" y="-182.8" font-family="arial" font-size="14.00"> 1 </text>
<polygon fill="none" stroke="black" points="862.5,-175 862.5,-198 958.5,-198 958.5,-175 862.5,-175"/>
<text text-anchor="start" x="902.5" y="-182.8" font-family="arial" font-size="14.00"> A </text>
<polygon fill="none" stroke="black" points="803.5,-152 803.5,-175 862.5,-175 862.5,-152 803.5,-152"/>
<text text-anchor="start" x="825" y="-159.8" font-family="arial" font-size="14.00"> 2 </text>
<polygon fill="none" stroke="black" points="862.5,-152 862.5,-175 958.5,-175 958.5,-152 862.5,-152"/>
<text text-anchor="start" x="902" y="-159.8" font-family="arial" font-size="14.00"> B </text>
<polygon fill="none" stroke="black" points="803.5,-129 803.5,-152 862.5,-152 862.5,-129 803.5,-129"/>
<text text-anchor="start" x="825" y="-136.8" font-family="arial" font-size="14.00"> 3 </text>
<polygon fill="none" stroke="black" points="862.5,-129 862.5,-152 958.5,-152 958.5,-129 862.5,-129"/>
<text text-anchor="start" x="901.5" y="-136.8" font-family="arial" font-size="14.00"> C </text>
<polygon fill="none" stroke="black" points="803.5,-106 803.5,-129 862.5,-129 862.5,-106 803.5,-106"/>
<text text-anchor="start" x="825" y="-113.8" font-family="arial" font-size="14.00"> 4 </text>
<polygon fill="none" stroke="black" points="862.5,-106 862.5,-129 958.5,-129 958.5,-106 862.5,-106"/>
<text text-anchor="start" x="901.5" y="-113.8" font-family="arial" font-size="14.00"> D </text>
<polygon fill="none" stroke="black" points="803.5,-83 803.5,-106 862.5,-106 862.5,-83 803.5,-83"/>
<text text-anchor="start" x="825" y="-90.8" font-family="arial" font-size="14.00"> 5 </text>
<polygon fill="none" stroke="black" points="862.5,-83 862.5,-106 958.5,-106 958.5,-83 862.5,-83"/>
<text text-anchor="start" x="902" y="-90.8" font-family="arial" font-size="14.00"> E </text>
<polygon fill="none" stroke="black" points="803.5,-60 803.5,-83 862.5,-83 862.5,-60 803.5,-60"/>
<text text-anchor="start" x="825" y="-67.8" font-family="arial" font-size="14.00"> 6 </text>
<polygon fill="none" stroke="black" points="862.5,-60 862.5,-83 958.5,-83 958.5,-60 862.5,-60"/>
<text text-anchor="start" x="902.5" y="-67.8" font-family="arial" font-size="14.00"> F </text>
</g>
<!-- A2&#45;W1&#45;&#45;A2&#45;J2 -->
<g id="edge2" class="edge">
<title>A2&#45;W1:e&#45;&#45;A2&#45;J2:w</title>
<path fill="none" stroke="#000000" stroke-width="2" d="M587,-191C586.96,-189 802.96,-185 803,-187"/>
<path fill="none" stroke="#ff0000" stroke-width="2" d="M587,-191C587,-191 803,-187 803,-187"/>
<path fill="none" stroke="#000000" stroke-width="2" d="M587,-191C587.04,-193 803.04,-189 803,-187"/>
</g>
<!-- A2&#45;W1&#45;&#45;A2&#45;J2 -->
<g id="edge4" class="edge">
<title>A2&#45;W1:e&#45;&#45;A2&#45;J2:w</title>
<path fill="none" stroke="#000000" stroke-width="2" d="M587,-166C586.98,-164 802.98,-162 803,-164"/>
<path fill="none" stroke="#000000" stroke-width="2" d="M587,-166C587,-166 803,-164 803,-164"/>
<path fill="none" stroke="#000000" stroke-width="2" d="M587,-166C587.02,-168 803.02,-166 803,-164"/>
</g>
<!-- A2&#45;W1&#45;&#45;A2&#45;J2 -->
<g id="edge6" class="edge">
<title>A2&#45;W1:e&#45;&#45;A2&#45;J2:w</title>
<path fill="none" stroke="#000000" stroke-width="2" d="M587,-141C586.99,-139 802.99,-138 803,-140"/>
<path fill="none" stroke="#00aa00" stroke-width="2" d="M587,-141C587,-141 803,-140 803,-140"/>
<path fill="none" stroke="#000000" stroke-width="2" d="M587,-141C587.01,-143 803.01,-142 803,-140"/>
</g>
<!-- A2&#45;W1&#45;&#45;A2&#45;J2 -->
<g id="edge8" class="edge">
<title>A2&#45;W1:e&#45;&#45;A2&#45;J2:w</title>
<path fill="none" stroke="#000000" stroke-width="2" d="M587,-116C587.01,-114 803.01,-115 803,-117"/>
<path fill="none" stroke="#0066ff" stroke-width="2" d="M587,-116C587,-116 803,-117 803,-117"/>
<path fill="none" stroke="#000000" stroke-width="2" d="M587,-116C586.99,-118 802.99,-119 803,-117"/>
</g>
<!-- A2&#45;W1&#45;&#45;A2&#45;J2 -->
<g id="edge10" class="edge">
<title>A2&#45;W1:e&#45;&#45;A2&#45;J2:w</title>
<path fill="none" stroke="#000000" stroke-width="2" d="M587,-91C587.03,-89 803.03,-92 803,-94"/>
<path fill="none" stroke="#ffff00" stroke-width="2" d="M587,-91C587,-91 803,-94 803,-94"/>
<path fill="none" stroke="#000000" stroke-width="2" d="M587,-91C586.97,-93 802.97,-96 803,-94"/>
</g>
<!-- A2&#45;W1&#45;&#45;A2&#45;J2 -->
<g id="edge12" class="edge">
<title>A2&#45;W1:e&#45;&#45;A2&#45;J2:w</title>
<path fill="none" stroke="#000000" stroke-width="2" d="M587,-66C587.05,-64 803.05,-69 803,-71"/>
<path fill="none" stroke="#ffffff" stroke-width="2" d="M587,-66C587,-66 803,-71 803,-71"/>
<path fill="none" stroke="#000000" stroke-width="2" d="M587,-66C586.95,-68 802.95,-73 803,-71"/>
</g>
</g>
</svg>
