<?xml version="1.0" encoding="UTF-8" standalone="no"?>
<!DOCTYPE svg PUBLIC "-//W3C//DTD SVG 1.1//EN"
 "http://www.w3.org/Graphics/SVG/1.1/DTD/svg11.dtd">
<!-- Generated by graphviz version 2.43.0 (0)
 -->
<!-- Title: %3 Pages: 1 -->
<svg width="1005pt" height="336pt"
 viewBox="0.00 0.00 1005.00 336.00" xmlns="http://www.w3.org/2000/svg" xmlns:xlink="http://www.w3.org/1999/xlink">
<g id="graph0" class="graph" transform="scale(1 1) rotate(0) translate(4 332)">
<title>%3</title>
<polygon fill="#ffffff" stroke="transparent" points="-4,4 -4,-332 1001,-332 1001,4 -4,4"/>
<!-- A1&#45;J1 -->
<g id="node1" class="node">
<title>A1&#45;J1</title>
<polygon fill="#ffffff" stroke="black" points="157,-292 0,-292 0,-62 157,-62 157,-292"/>
<polygon fill="#ffffff" stroke="transparent" points="0,-62 0,-292 157,-292 157,-62 0,-62"/>
<polygon fill="#ffffff" stroke="transparent" points="0.5,-269 0.5,-292 157.5,-292 157.5,-269 0.5,-269"/>
<polygon fill="none" stroke="black" points="0.5,-269 0.5,-292 157.5,-292 157.5,-269 0.5,-269"/>
<text text-anchor="start" x="53" y="-277.8" font-family="arial" font-size="14.00"> </text>
<text text-anchor="start" x="57" y="-277.8" font-family="arial" font-weight="bold" font-size="14.00"> A1&#45;J1 </text>
<text text-anchor="start" x="101" y="-277.8" font-family="arial" font-size="14.00"> </text>
<polygon fill="none" stroke="black" points="0.5,-246 0.5,-269 54.5,-269 54.5,-246 0.5,-246"/>
<text text-anchor="start" x="4.5" y="-253.8" font-family="arial" font-size="14.00"> D&#45;Sub </text>
<polygon fill="none" stroke="black" points="54.5,-246 54.5,-269 111.5,-269 111.5,-246 54.5,-246"/>
<text text-anchor="start" x="58.5" y="-253.8" font-family="arial" font-size="14.00"> female </text>
<polygon fill="none" stroke="black" points="111.5,-246 111.5,-269 157.5,-269 157.5,-246 111.5,-246"/>
<text text-anchor="start" x="115.5" y="-253.8" font-family="arial" font-size="14.00"> 8&#45;pin </text>
<polygon fill="none" stroke="black" points="0.5,-223 0.5,-246 97.5,-246 97.5,-223 0.5,-223"/>
<text text-anchor="start" x="41" y="-230.8" font-family="arial" font-size="14.00"> 1 </text>
<polygon fill="none" stroke="black" points="97.5,-223 97.5,-246 157.5,-246 157.5,-223 97.5,-223"/>
<text text-anchor="start" x="119.5" y="-230.8" font-family="arial" font-size="14.00"> 1 </text>
<polygon fill="none" stroke="black" points="0.5,-200 0.5,-223 97.5,-223 97.5,-200 0.5,-200"/>
<text text-anchor="start" x="41" y="-207.8" font-family="arial" font-size="14.00"> 2 </text>
<polygon fill="none" stroke="black" points="97.5,-200 97.5,-223 157.5,-223 157.5,-200 97.5,-200"/>
<text text-anchor="start" x="119.5" y="-207.8" font-family="arial" font-size="14.00"> 2 </text>
<polygon fill="none" stroke="black" points="0.5,-177 0.5,-200 97.5,-200 97.5,-177 0.5,-177"/>
<text text-anchor="start" x="41" y="-184.8" font-family="arial" font-size="14.00"> 3 </text>
<polygon fill="none" stroke="black" points="97.5,-177 97.5,-200 157.5,-200 157.5,-177 97.5,-177"/>
<text text-anchor="start" x="119.5" y="-184.8" font-family="arial" font-size="14.00"> 3 </text>
<polygon fill="none" stroke="black" points="0.5,-154 0.5,-177 97.5,-177 97.5,-154 0.5,-154"/>
<text text-anchor="start" x="41" y="-161.8" font-family="arial" font-size="14.00"> 4 </text>
<polygon fill="none" stroke="black" points="97.5,-154 97.5,-177 157.5,-177 157.5,-154 97.5,-154"/>
<text text-anchor="start" x="119.5" y="-161.8" font-family="arial" font-size="14.00"> 4 </text>
<polygon fill="none" stroke="black" points="0.5,-131 0.5,-154 97.5,-154 97.5,-131 0.5,-131"/>
<text text-anchor="start" x="41" y="-138.8" font-family="arial" font-size="14.00"> 5 </text>
<polygon fill="none" stroke="black" points="97.5,-131 97.5,-154 157.5,-154 157.5,-131 97.5,-131"/>
<text text-anchor="start" x="119.5" y="-138.8" font-family="arial" font-size="14.00"> 5 </text>
<polygon fill="none" stroke="black" points="0.5,-108 0.5,-131 97.5,-131 97.5,-108 0.5,-108"/>
<text text-anchor="start" x="41" y="-115.8" font-family="arial" font-size="14.00"> 6 </text>
<polygon fill="none" stroke="black" points="97.5,-108 97.5,-131 157.5,-131 157.5,-108 97.5,-108"/>
<text text-anchor="start" x="119.5" y="-115.8" font-family="arial" font-size="14.00"> 6 </text>
<polygon fill="none" stroke="black" points="0.5,-85 0.5,-108 97.5,-108 97.5,-85 0.5,-85"/>
<text text-anchor="start" x="41" y="-92.8" font-family="arial" font-size="14.00"> 7 </text>
<polygon fill="none" stroke="black" points="97.5,-85 97.5,-108 157.5,-108 157.5,-85 97.5,-85"/>
<text text-anchor="start" x="119.5" y="-92.8" font-family="arial" font-size="14.00"> 7 </text>
<polygon fill="none" stroke="black" points="0.5,-62 0.5,-85 97.5,-85 97.5,-62 0.5,-62"/>
<text text-anchor="start" x="41" y="-69.8" font-family="arial" font-size="14.00"> 8 </text>
<polygon fill="none" stroke="black" points="97.5,-62 97.5,-85 157.5,-85 157.5,-62 97.5,-62"/>
<text text-anchor="start" x="119.5" y="-69.8" font-family="arial" font-size="14.00"> 8 </text>
</g>
<!-- A1&#45;W1 -->
<g id="node3" class="node">
<title>A1&#45;W1</title>
<polygon fill="#ffffff" stroke="black" points="573,-328 373,-328 373,0 573,0 573,-328"/>
<polygon fill="#ffffff" stroke="transparent" points="373,0 373,-328 573,-328 573,0 373,0"/>
<polygon fill="#ffffff" stroke="transparent" points="373,-305 373,-328 573,-328 573,-305 373,-305"/>
<polygon fill="none" stroke="black" points="373,-305 373,-328 573,-328 573,-305 373,-305"/>
<text text-anchor="start" x="444" y="-313.8" font-family="arial" font-size="14.00"> </text>
<text text-anchor="start" x="448" y="-313.8" font-family="arial" font-weight="bold" font-size="14.00"> A1&#45;W1 </text>
<text text-anchor="start" x="498" y="-313.8" font-family="arial" font-size="14.00"> </text>
<polygon fill="none" stroke="black" points="373,-282 373,-305 410,-305 410,-282 373,-282"/>
<text text-anchor="start" x="380.5" y="-289.8" font-family="arial" font-size="14.00"> 8x </text>
<polygon fill="none" stroke="black" points="410,-282 410,-305 484,-305 484,-282 410,-282"/>
<text text-anchor="start" x="417.5" y="-289.8" font-family="arial" font-size="14.00"> 0.5 mm² </text>
<polygon fill="none" stroke="black" points="484,-282 484,-305 528,-305 528,-282 484,-282"/>
<text text-anchor="start" x="491.5" y="-289.8" font-family="arial" font-size="14.00"> + S </text>
<polygon fill="none" stroke="black" points="528,-282 528,-305 573,-305 573,-282 528,-282"/>
<text text-anchor="start" x="535" y="-289.8" font-family="arial" font-size="14.00"> 2 m </text>
<text text-anchor="start" x="405.5" y="-268.8" font-family="arial" font-size="14.00"> </text>
<text text-anchor="start" x="375" y="-249.8" font-family="arial" font-size="14.00"> A1&#45;J1:1:1 </text>
<text text-anchor="start" x="444" y="-249.8" font-family="arial" font-size="14.00"> </text>
<text text-anchor="start" x="455.5" y="-249.8" font-family="arial" font-size="14.00"> 1:RD </text>
<text text-anchor="start" x="502" y="-249.8" font-family="arial" font-size="14.00"> </text>
<text text-anchor="start" x="510" y="-249.8" font-family="arial" font-size="14.00"> A1&#45;J2:8:8</text>
<polygon fill="#000000" stroke="transparent" points="373,-242 373,-244 573,-244 573,-242 373,-242"/>
<polygon fill="#ff0000" stroke="transparent" points="373,-240 373,-242 573,-242 573,-240 373,-240"/>
<polygon fill="#000000" stroke="transparent" points="373,-238 373,-240 573,-240 573,-238 373,-238"/>
<text text-anchor="start" x="375" y="-224.8" font-family="arial" font-size="14.00"> A1&#45;J1:2:2 </text>
<text text-anchor="start" x="444" y="-224.8" font-family="arial" font-size="14.00"> </text>
<text text-anchor="start" x="456.5" y="-224.8" font-family="arial" font-size="14.00"> 2:BK </text>
<text text-anchor="start" x="502" y="-224.8" font-family="arial" font-size="14.00"> </text>
<text text-anchor="start" x="510" y="-224.8" font-family="arial" font-size="14.00"> A1&#45;J2:7:7</text>
<polygon fill="#000000" stroke="transparent" points="373,-217 373,-219 573,-219 573,-217 373,-217"/>
<polygon fill="#000000" stroke="transparent" points="373,-215 373,-217 573,-217 573,-215 373,-215"/>
<polygon fill="#000000" stroke="transparent" points="373,-213 373,-215 573,-215 573,-213 373,-213"/>
<text text-anchor="start" x="375" y="-199.8" font-family="arial" font-size="14.00"> A1&#45;J1:3:3 </text>
<text text-anchor="start" x="444" y="-199.8" font-family="arial" font-size="14.00"> </text>
<text text-anchor="start" x="456" y="-199.8" font-family="arial" font-size="14.00"> 3:BU </text>
<text text-anchor="start" x="502" y="-199.8" font-family="arial" font-size="14.00"> </text>
<text text-anchor="start" x="510" y="-199.8" font-family="arial" font-size="14.00"> A1&#45;J2:6:6</text>
<polygon fill="#000000" stroke="transparent" points="373,-192 373,-194 573,-194 573,-192 373,-192"/>
<polygon fill="#0066ff" stroke="transparent" points="373,-190 373,-192 573,-192 573,-190 373,-190"/>
<polygon fill="#000000" stroke="transparent" points="373,-188 373,-190 573,-190 573,-188 373,-188"/>
<text text-anchor="start" x="375" y="-174.8" font-family="arial" font-size="14.00"> A1&#45;J1:4:4 </text>
<text text-anchor="start" x="444" y="-174.8" font-family="arial" font-size="14.00"> </text>
<text text-anchor="start" x="455" y="-174.8" font-family="arial" font-size="14.00"> 4:GN </text>
<text text-anchor="start" x="502" y="-174.8" font-family="arial" font-size="14.00"> </text>
<text text-anchor="start" x="510" y="-174.8" font-family="arial" font-size="14.00"> A1&#45;J2:5:5</text>
<polygon fill="#000000" stroke="transparent" points="373,-167 373,-169 573,-169 573,-167 373,-167"/>
<polygon fill="#00aa00" stroke="transparent" points="373,-165 373,-167 573,-167 573,-165 373,-165"/>
<polygon fill="#000000" stroke="transparent" points="373,-163 373,-165 573,-165 573,-163 373,-163"/>
<text text-anchor="start" x="375" y="-149.8" font-family="arial" font-size="14.00"> A1&#45;J1:5:5 </text>
<text text-anchor="start" x="444" y="-149.8" font-family="arial" font-size="14.00"> </text>
<text text-anchor="start" x="456.5" y="-149.8" font-family="arial" font-size="14.00"> 5:YE </text>
<text text-anchor="start" x="502" y="-149.8" font-family="arial" font-size="14.00"> </text>
<text text-anchor="start" x="510" y="-149.8" font-family="arial" font-size="14.00"> A1&#45;J2:4:4</text>
<polygon fill="#000000" stroke="transparent" points="373,-142 373,-144 573,-144 573,-142 373,-142"/>
<polygon fill="#ffff00" stroke="transparent" points="373,-140 373,-142 573,-142 573,-140 373,-140"/>
<polygon fill="#000000" stroke="transparent" points="373,-138 373,-140 573,-140 573,-138 373,-138"/>
<text text-anchor="start" x="375" y="-124.8" font-family="arial" font-size="14.00"> A1&#45;J1:6:6 </text>
<text text-anchor="start" x="444" y="-124.8" font-family="arial" font-size="14.00"> </text>
<text text-anchor="start" x="453.5" y="-124.8" font-family="arial" font-size="14.00"> 6:WH </text>
<text text-anchor="start" x="502" y="-124.8" font-family="arial" font-size="14.00"> </text>
<text text-anchor="start" x="510" y="-124.8" font-family="arial" font-size="14.00"> A1&#45;J2:3:3</text>
<polygon fill="#000000" stroke="transparent" points="373,-117 373,-119 573,-119 573,-117 373,-117"/>
<polygon fill="#ffffff" stroke="transparent" points="373,-115 373,-117 573,-117 573,-115 373,-115"/>
<polygon fill="#000000" stroke="transparent" points="373,-113 373,-115 573,-115 573,-113 373,-113"/>
<text text-anchor="start" x="375" y="-99.8" font-family="arial" font-size="14.00"> A1&#45;J1:7:7 </text>
<text text-anchor="start" x="444" y="-99.8" font-family="arial" font-size="14.00"> </text>
<text text-anchor="start" x="456.5" y="-99.8" font-family="arial" font-size="14.00"> 7:VT </text>
<text text-anchor="start" x="502" y="-99.8" font-family="arial" font-size="14.00"> </text>
<text text-anchor="start" x="510" y="-99.8" font-family="arial" font-size="14.00"> A1&#45;J2:2:2</text>
<polygon fill="#000000" stroke="transparent" points="373,-92 373,-94 573,-94 573,-92 373,-92"/>
<polygon fill="#8000ff" stroke="transparent" points="373,-90 373,-92 573,-92 573,-90 373,-90"/>
<polygon fill="#000000" stroke="transparent" points="373,-88 373,-90 573,-90 573,-88 373,-88"/>
<text text-anchor="start" x="375" y="-74.8" font-family="arial" font-size="14.00"> A1&#45;J1:8:8 </text>
<text text-anchor="start" x="444" y="-74.8" font-family="arial" font-size="14.00"> </text>
<text text-anchor="start" x="455" y="-74.8" font-family="arial" font-size="14.00"> 8:OR </text>
<text text-anchor="start" x="502" y="-74.8" font-family="arial" font-size="14.00"> </text>
<text text-anchor="start" x="510" y="-74.8" font-family="arial" font-size="14.00"> A1&#45;J2:1:1</text>
<polygon fill="#000000" stroke="transparent" points="373,-67 373,-69 573,-69 573,-67 373,-67"/>
<polygon fill="#000000" stroke="transparent" points="373,-65 373,-67 573,-67 573,-65 373,-65"/>
<polygon fill="#000000" stroke="transparent" points="373,-63 373,-65 573,-65 573,-63 373,-63"/>
<text text-anchor="start" x="405.5" y="-49.8" font-family="arial" font-size="14.00"> </text>
<text text-anchor="start" x="375" y="-30.8" font-family="arial" font-size="14.00"> &#160;</text>
<text text-anchor="start" x="444" y="-30.8" font-family="arial" font-size="14.00"> </text>
<text text-anchor="start" x="452" y="-30.8" font-family="arial" font-size="14.00"> Shield </text>
<text text-anchor="start" x="502" y="-30.8" font-family="arial" font-size="14.00"> </text>
<text text-anchor="start" x="567" y="-30.8" font-family="arial" font-size="14.00"> </text>
<polygon fill="#000000" stroke="transparent" points="373,-23 373,-25 573,-25 573,-23 373,-23"/>
<polygon fill="#ffffff" stroke="transparent" points="373,-21 373,-23 573,-23 573,-21 373,-21"/>
<polygon fill="#000000" stroke="transparent" points="373,-19 373,-21 573,-21 573,-19 373,-19"/>
<text text-anchor="start" x="405.5" y="-5.8" font-family="arial" font-size="14.00"> </text>
</g>
<!-- A1&#45;J1&#45;&#45;A1&#45;W1 -->
<g id="edge1" class="edge">
<title>A1&#45;J1:e&#45;&#45;A1&#45;W1:w</title>
<path fill="none" stroke="#000000" stroke-width="2" d="M157,-235C157.06,-233 373.06,-239 373,-241"/>
<path fill="none" stroke="#ff0000" stroke-width="2" d="M157,-235C157,-235 373,-241 373,-241"/>
<path fill="none" stroke="#000000" stroke-width="2" d="M157,-235C156.94,-237 372.94,-243 373,-241"/>
</g>
<!-- A1&#45;J1&#45;&#45;A1&#45;W1 -->
<g id="edge3" class="edge">
<title>A1&#45;J1:e&#45;&#45;A1&#45;W1:w</title>
<path fill="none" stroke="#000000" stroke-width="2" d="M157,-212C157.04,-210 373.04,-214 373,-216"/>
<path fill="none" stroke="#000000" stroke-width="2" d="M157,-212C157,-212 373,-216 373,-216"/>
<path fill="none" stroke="#000000" stroke-width="2" d="M157,-212C156.96,-214 372.96,-218 373,-216"/>
</g>
<!-- A1&#45;J1&#45;&#45;A1&#45;W1 -->
<g id="edge5" class="edge">
<title>A1&#45;J1:e&#45;&#45;A1&#45;W1:w</title>
<path fill="none" stroke="#000000" stroke-width="2" d="M157,-189C157.02,-187 373.02,-189 373,-191"/>
<path fill="none" stroke="#0066ff" stroke-width="2" d="M157,-189C157,-189 373,-191 373,-191"/>
<path fill="none" stroke="#000000" stroke-width="2" d="M157,-189C156.98,-191 372.98,-193 373,-191"/>
</g>
<!-- A1&#45;J1&#45;&#45;A1&#45;W1 -->
<g id="edge7" class="edge">
<title>A1&#45;J1:e&#45;&#45;A1&#45;W1:w</title>
<path fill="none" stroke="#000000" stroke-width="2" d="M157,-165C157.01,-163 373.01,-164 373,-166"/>
<path fill="none" stroke="#00aa00" stroke-width="2" d="M157,-165C157,-165 373,-166 373,-166"/>
<path fill="none" stroke="#000000" stroke-width="2" d="M157,-165C156.99,-167 372.99,-168 373,-166"/>
</g>
<!-- A1&#45;J1&#45;&#45;A1&#45;W1 -->
<g id="edge9" class="edge">
<title>A1&#45;J1:e&#45;&#45;A1&#45;W1:w</title>
<path fill="none" stroke="#000000" stroke-width="2" d="M157,-142C156.99,-140 372.99,-139 373,-141"/>
<path fill="none" stroke="#ffff00" stroke-width="2" d="M157,-142C157,-142 373,-141 373,-141"/>
<path fill="none" stroke="#000000" stroke-width="2" d="M157,-142C157.01,-144 373.01,-143 373,-141"/>
</g>
<!-- A1&#45;J1&#45;&#45;A1&#45;W1 -->
<g id="edge11" class="edge">
<title>A1&#45;J1:e&#45;&#45;A1&#45;W1:w</title>
<path fill="none" stroke="#000000" stroke-width="2" d="M157,-119C156.97,-117 372.97,-114 373,-116"/>
<path fill="none" stroke="#ffffff" stroke-width="2" d="M157,-119C157,-119 373,-116 373,-116"/>
<path fill="none" stroke="#000000" stroke-width="2" d="M157,-119C157.03,-121 373.03,-118 373,-116"/>
</g>
<!-- A1&#45;J1&#45;&#45;A1&#45;W1 -->
<g id="edge13" class="edge">
<title>A1&#45;J1:e&#45;&#45;A1&#45;W1:w</title>
<path fill="none" stroke="#000000" stroke-width="2" d="M157,-96C156.95,-94 372.95,-89 373,-91"/>
<path fill="none" stroke="#8000ff" stroke-width="2" d="M157,-96C157,-96 373,-91 373,-91"/>
<path fill="none" stroke="#000000" stroke-width="2" d="M157,-96C157.05,-98 373.05,-93 373,-91"/>
</g>
<!-- A1&#45;J1&#45;&#45;A1&#45;W1 -->
<g id="edge15" class="edge">
<title>A1&#45;J1:e&#45;&#45;A1&#45;W1:w</title>
<path fill="none" stroke="#000000" stroke-width="2" d="M157,-73C156.94,-71 372.94,-64 373,-66"/>
<path fill="none" stroke="#000000" stroke-width="2" d="M157,-73C157,-73 373,-66 373,-66"/>
<path fill="none" stroke="#000000" stroke-width="2" d="M157,-73C157.06,-75 373.06,-68 373,-66"/>
</g>
<!-- A1&#45;J2 -->
<g id="node2" class="node">
<title>A1&#45;J2</title>
<polygon fill="#ffffff" stroke="black" points="997,-292 789,-292 789,-62 997,-62 997,-292"/>
<polygon fill="#ffffff" stroke="transparent" points="789,-62 789,-292 997,-292 997,-62 789,-62"/>
<polygon fill="#ffffff" stroke="transparent" points="789,-269 789,-292 997,-292 997,-269 789,-269"/>
<polygon fill="none" stroke="black" points="789,-269 789,-292 997,-292 997,-269 789,-269"/>
<text text-anchor="start" x="867" y="-277.8" font-family="arial" font-size="14.00"> </text>
<text text-anchor="start" x="871" y="-277.8" font-family="arial" font-weight="bold" font-size="14.00"> A1&#45;J2 </text>
<text text-anchor="start" x="915" y="-277.8" font-family="arial" font-size="14.00"> </text>
<polygon fill="none" stroke="black" points="789,-246 789,-269 894,-269 894,-246 789,-246"/>
<text text-anchor="start" x="793" y="-253.8" font-family="arial" font-size="14.00"> Terminal Block </text>
<polygon fill="none" stroke="black" points="894,-246 894,-269 951,-269 951,-246 894,-246"/>
<text text-anchor="start" x="898" y="-253.8" font-family="arial" font-size="14.00"> female </text>
<polygon fill="none" stroke="black" points="951,-246 951,-269 997,-269 997,-246 951,-246"/>
<text text-anchor="start" x="955" y="-253.8" font-family="arial" font-size="14.00"> 8&#45;pin </text>
<polygon fill="none" stroke="black" points="789,-223 789,-246 867,-246 867,-223 789,-223"/>
<text text-anchor="start" x="820" y="-230.8" font-family="arial" font-size="14.00"> 1 </text>
<polygon fill="none" stroke="black" points="867,-223 867,-246 997,-246 997,-223 867,-223"/>
<text text-anchor="start" x="924" y="-230.8" font-family="arial" font-size="14.00"> 1 </text>
<polygon fill="none" stroke="black" points="789,-200 789,-223 867,-223 867,-200 789,-200"/>
<text text-anchor="start" x="820" y="-207.8" font-family="arial" font-size="14.00"> 2 </text>
<polygon fill="none" stroke="black" points="867,-200 867,-223 997,-223 997,-200 867,-200"/>
<text text-anchor="start" x="924" y="-207.8" font-family="arial" font-size="14.00"> 2 </text>
<polygon fill="none" stroke="black" points="789,-177 789,-200 867,-200 867,-177 789,-177"/>
<text text-anchor="start" x="820" y="-184.8" font-family="arial" font-size="14.00"> 3 </text>
<polygon fill="none" stroke="black" points="867,-177 867,-200 997,-200 997,-177 867,-177"/>
<text text-anchor="start" x="924" y="-184.8" font-family="arial" font-size="14.00"> 3 </text>
<polygon fill="none" stroke="black" points="789,-154 789,-177 867,-177 867,-154 789,-154"/>
<text text-anchor="start" x="820" y="-161.8" font-family="arial" font-size="14.00"> 4 </text>
<polygon fill="none" stroke="black" points="867,-154 867,-177 997,-177 997,-154 867,-154"/>
<text text-anchor="start" x="924" y="-161.8" font-family="arial" font-size="14.00"> 4 </text>
<polygon fill="none" stroke="black" points="789,-131 789,-154 867,-154 867,-131 789,-131"/>
<text text-anchor="start" x="820" y="-138.8" font-family="arial" font-size="14.00"> 5 </text>
<polygon fill="none" stroke="black" points="867,-131 867,-154 997,-154 997,-131 867,-131"/>
<text text-anchor="start" x="924" y="-138.8" font-family="arial" font-size="14.00"> 5 </text>
<polygon fill="none" stroke="black" points="789,-108 789,-131 867,-131 867,-108 789,-108"/>
<text text-anchor="start" x="820" y="-115.8" font-family="arial" font-size="14.00"> 6 </text>
<polygon fill="none" stroke="black" points="867,-108 867,-131 997,-131 997,-108 867,-108"/>
<text text-anchor="start" x="924" y="-115.8" font-family="arial" font-size="14.00"> 6 </text>
<polygon fill="none" stroke="black" points="789,-85 789,-108 867,-108 867,-85 789,-85"/>
<text text-anchor="start" x="820" y="-92.8" font-family="arial" font-size="14.00"> 7 </text>
<polygon fill="none" stroke="black" points="867,-85 867,-108 997,-108 997,-85 867,-85"/>
<text text-anchor="start" x="924" y="-92.8" font-family="arial" font-size="14.00"> 7 </text>
<polygon fill="none" stroke="black" points="789,-62 789,-85 867,-85 867,-62 789,-62"/>
<text text-anchor="start" x="820" y="-69.8" font-family="arial" font-size="14.00"> 8 </text>
<polygon fill="none" stroke="black" points="867,-62 867,-85 997,-85 997,-62 867,-62"/>
<text text-anchor="start" x="924" y="-69.8" font-family="arial" font-size="14.00"> 8 </text>
</g>
<!-- A1&#45;W1&#45;&#45;A1&#45;J2 -->
<g id="edge2" class="edge">
<title>A1&#45;W1:e&#45;&#45;A1&#45;J2:w</title>
<path fill="none" stroke="#000000" stroke-width="2" d="M573,-241C571.77,-239.42 787.77,-71.42 789,-73"/>
<path fill="none" stroke="#ff0000" stroke-width="2" d="M573,-241C573,-241 789,-73 789,-73"/>
<path fill="none" stroke="#000000" stroke-width="2" d="M573,-241C574.23,-242.58 790.23,-74.58 789,-73"/>
</g>
<!-- A1&#45;W1&#45;&#45;A1&#45;J2 -->
<g id="edge4" class="edge">
<title>A1&#45;W1:e&#45;&#45;A1&#45;J2:w</title>
<path fill="none" stroke="#000000" stroke-width="2" d="M573,-216C572.03,-214.25 788.03,-94.25 789,-96"/>
<path fill="none" stroke="#000000" stroke-width="2" d="M573,-216C573,-216 789,-96 789,-96"/>
<path fill="none" stroke="#000000" stroke-width="2" d="M573,-216C573.97,-217.75 789.97,-97.75 789,-96"/>
</g>
<!-- A1&#45;W1&#45;&#45;A1&#45;J2 -->
<g id="edge6" class="edge">
<title>A1&#45;W1:e&#45;&#45;A1&#45;J2:w</title>
<path fill="none" stroke="#000000" stroke-width="2" d="M573,-191C572.37,-189.1 788.37,-117.1 789,-119"/>
<path fill="none" stroke="#0066ff" stroke-width="2" d="M573,-191C573,-191 789,-119 789,-119"/>
<path fill="none" stroke="#000000" stroke-width="2" d="M573,-191C573.63,-192.9 789.63,-120.9 789,-119"/>
</g>
<!-- A1&#45;W1&#45;&#45;A1&#45;J2 -->
<g id="edge8" class="edge">
<title>A1&#45;W1:e&#45;&#45;A1&#45;J2:w</title>
<path fill="none" stroke="#000000" stroke-width="2" d="M573,-166C572.78,-164.01 788.78,-140.01 789,-142"/>
<path fill="none" stroke="#00aa00" stroke-width="2" d="M573,-166C573,-166 789,-142 789,-142"/>
<path fill="none" stroke="#000000" stroke-width="2" d="M573,-166C573.22,-167.99 789.22,-143.99 789,-142"/>
</g>
<!-- A1&#45;W1&#45;&#45;A1&#45;J2 -->
<g id="edge10" class="edge">
<title>A1&#45;W1:e&#45;&#45;A1&#45;J2:w</title>
<path fill="none" stroke="#000000" stroke-width="2" d="M573,-141C573.22,-139.01 789.22,-163.01 789,-165"/>
<path fill="none" stroke="#ffff00" stroke-width="2" d="M573,-141C573,-141 789,-165 789,-165"/>
<path fill="none" stroke="#000000" stroke-width="2" d="M573,-141C572.78,-142.99 788.78,-166.99 789,-165"/>
</g>
<!-- A1&#45;W1&#45;&#45;A1&#45;J2 -->
<g id="edge12" class="edge">
<title>A1&#45;W1:e&#45;&#45;A1&#45;J2:w</title>
<path fill="none" stroke="#000000" stroke-width="2" d="M573,-116C573.64,-114.11 789.64,-187.11 789,-189"/>
<path fill="none" stroke="#ffffff" stroke-width="2" d="M573,-116C573,-116 789,-189 789,-189"/>
<path fill="none" stroke="#000000" stroke-width="2" d="M573,-116C572.36,-117.89 788.36,-190.89 789,-189"/>
</g>
<!-- A1&#45;W1&#45;&#45;A1&#45;J2 -->
<g id="edge14" class="edge">
<title>A1&#45;W1:e&#45;&#45;A1&#45;J2:w</title>
<path fill="none" stroke="#000000" stroke-width="2" d="M573,-91C573.98,-89.26 789.98,-210.26 789,-212"/>
<path fill="none" stroke="#8000ff" stroke-width="2" d="M573,-91C573,-91 789,-212 789,-212"/>
<path fill="none" stroke="#000000" stroke-width="2" d="M573,-91C572.02,-92.74 788.02,-213.74 789,-212"/>
</g>
<!-- A1&#45;W1&#45;&#45;A1&#45;J2 -->
<g id="edge16" class="edge">
<title>A1&#45;W1:e&#45;&#45;A1&#45;J2:w</title>
<path fill="none" stroke="#000000" stroke-width="2" d="M573,-66C574.23,-64.42 790.23,-233.42 789,-235"/>
<path fill="none" stroke="#000000" stroke-width="2" d="M573,-66C573,-66 789,-235 789,-235"/>
<path fill="none" stroke="#000000" stroke-width="2" d="M573,-66C571.77,-67.58 787.77,-236.58 789,-235"/>
</g>
</g>
</svg>
