<?xml version="1.0" encoding="UTF-8" standalone="no"?>
<!DOCTYPE svg PUBLIC "-//W3C//DTD SVG 1.1//EN"
 "http://www.w3.org/Graphics/SVG/1.1/DTD/svg11.dtd">
<!-- Generated by graphviz version 2.43.0 (0)
 -->
<!-- Title: %3 Pages: 1 -->
<svg width="1052pt" height="167pt"
 viewBox="0.00 0.00 1052.00 167.00" xmlns="http://www.w3.org/2000/svg" xmlns:xlink="http://www.w3.org/1999/xlink">
<g id="graph0" class="graph" transform="scale(1 1) rotate(0) translate(4 163)">
<title>%3</title>
<polygon fill="#ffffff" stroke="transparent" points="-4,4 -4,-163 1048,-163 1048,4 -4,4"/>
<!-- C2&#45;J1 -->
<g id="node1" class="node">
<title>C2&#45;J1</title>
<polygon fill="#ffffff" stroke="black" points="208,-128 0,-128 0,-13 208,-13 208,-128"/>
<polygon fill="#ffffff" stroke="transparent" points="0,-13 0,-128 208,-128 208,-13 0,-13"/>
<polygon fill="#ffffff" stroke="transparent" points="0,-104.5 0,-127.5 208,-127.5 208,-104.5 0,-104.5"/>
<polygon fill="none" stroke="black" points="0,-104.5 0,-127.5 208,-127.5 208,-104.5 0,-104.5"/>
<text text-anchor="start" x="77.5" y="-113.3" font-family="arial" font-size="14.00"> </text>
<text text-anchor="start" x="81.5" y="-113.3" font-family="arial" font-weight="bold" font-size="14.00"> C2&#45;J1 </text>
<text text-anchor="start" x="126.5" y="-113.3" font-family="arial" font-size="14.00"> </text>
<polygon fill="none" stroke="black" points="0,-81.5 0,-104.5 105,-104.5 105,-81.5 0,-81.5"/>
<text text-anchor="start" x="4" y="-89.3" font-family="arial" font-size="14.00"> Terminal Block </text>
<polygon fill="none" stroke="black" points="105,-81.5 105,-104.5 162,-104.5 162,-81.5 105,-81.5"/>
<text text-anchor="start" x="109" y="-89.3" font-family="arial" font-size="14.00"> female </text>
<polygon fill="none" stroke="black" points="162,-81.5 162,-104.5 208,-104.5 208,-81.5 162,-81.5"/>
<text text-anchor="start" x="166" y="-89.3" font-family="arial" font-size="14.00"> 3&#45;pin </text>
<polygon fill="none" stroke="black" points="0,-58.5 0,-81.5 131,-81.5 131,-58.5 0,-58.5"/>
<text text-anchor="start" x="57.5" y="-66.3" font-family="arial" font-size="14.00"> 1 </text>
<polygon fill="none" stroke="black" points="131,-58.5 131,-81.5 208,-81.5 208,-58.5 131,-58.5"/>
<text text-anchor="start" x="161.5" y="-66.3" font-family="arial" font-size="14.00"> 1 </text>
<polygon fill="none" stroke="black" points="0,-35.5 0,-58.5 131,-58.5 131,-35.5 0,-35.5"/>
<text text-anchor="start" x="57.5" y="-43.3" font-family="arial" font-size="14.00"> 2 </text>
<polygon fill="none" stroke="black" points="131,-35.5 131,-58.5 208,-58.5 208,-35.5 131,-35.5"/>
<text text-anchor="start" x="161.5" y="-43.3" font-family="arial" font-size="14.00"> 2 </text>
<polygon fill="none" stroke="black" points="0,-12.5 0,-35.5 131,-35.5 131,-12.5 0,-12.5"/>
<text text-anchor="start" x="57.5" y="-20.3" font-family="arial" font-size="14.00"> 3 </text>
<polygon fill="none" stroke="black" points="131,-12.5 131,-35.5 208,-35.5 208,-12.5 131,-12.5"/>
<text text-anchor="start" x="161.5" y="-20.3" font-family="arial" font-size="14.00"> 3 </text>
</g>
<!-- C2&#45;W1 -->
<g id="node3" class="node">
<title>C2&#45;W1</title>
<polygon fill="#ffffff" stroke="black" points="620,-159 424,-159 424,0 620,0 620,-159"/>
<polygon fill="#ffffff" stroke="transparent" points="424,0 424,-159 620,-159 620,0 424,0"/>
<polygon fill="#ffffff" stroke="transparent" points="424,-135.5 424,-158.5 620,-158.5 620,-135.5 424,-135.5"/>
<polygon fill="none" stroke="black" points="424,-135.5 424,-158.5 620,-158.5 620,-135.5 424,-135.5"/>
<text text-anchor="start" x="492.5" y="-144.3" font-family="arial" font-size="14.00"> </text>
<text text-anchor="start" x="496.5" y="-144.3" font-family="arial" font-weight="bold" font-size="14.00"> C2&#45;W1 </text>
<text text-anchor="start" x="547.5" y="-144.3" font-family="arial" font-size="14.00"> </text>
<polygon fill="none" stroke="black" points="424,-112.5 424,-135.5 465,-135.5 465,-112.5 424,-112.5"/>
<text text-anchor="start" x="433.5" y="-120.3" font-family="arial" font-size="14.00"> 3x </text>
<polygon fill="none" stroke="black" points="465,-112.5 465,-135.5 551,-135.5 551,-112.5 465,-112.5"/>
<text text-anchor="start" x="474.5" y="-120.3" font-family="arial" font-size="14.00"> 0.75 mm² </text>
<polygon fill="none" stroke="black" points="551,-112.5 551,-135.5 620,-135.5 620,-112.5 551,-112.5"/>
<text text-anchor="start" x="560.5" y="-120.3" font-family="arial" font-size="14.00"> 0.75 m </text>
<text text-anchor="start" x="457.5" y="-99.3" font-family="arial" font-size="14.00"> </text>
<text text-anchor="start" x="426" y="-80.3" font-family="arial" font-size="14.00"> C2&#45;J1:1:1 </text>
<text text-anchor="start" x="497" y="-80.3" font-family="arial" font-size="14.00"> </text>
<text text-anchor="start" x="505" y="-80.3" font-family="arial" font-size="14.00"> 1:BN </text>
<text text-anchor="start" x="547" y="-80.3" font-family="arial" font-size="14.00"> </text>
<text text-anchor="start" x="555" y="-80.3" font-family="arial" font-size="14.00"> C2&#45;J2:1:1</text>
<polygon fill="#000000" stroke="transparent" points="424,-72.5 424,-74.5 620,-74.5 620,-72.5 424,-72.5"/>
<polygon fill="#895956" stroke="transparent" points="424,-70.5 424,-72.5 620,-72.5 620,-70.5 424,-70.5"/>
<polygon fill="#000000" stroke="transparent" points="424,-68.5 424,-70.5 620,-70.5 620,-68.5 424,-68.5"/>
<text text-anchor="start" x="426" y="-55.3" font-family="arial" font-size="14.00"> C2&#45;J1:2:2 </text>
<text text-anchor="start" x="497" y="-55.3" font-family="arial" font-size="14.00"> </text>
<text text-anchor="start" x="505.5" y="-55.3" font-family="arial" font-size="14.00"> 2:BK </text>
<text text-anchor="start" x="547" y="-55.3" font-family="arial" font-size="14.00"> </text>
<text text-anchor="start" x="555" y="-55.3" font-family="arial" font-size="14.00"> C2&#45;J2:2:2</text>
<polygon fill="#000000" stroke="transparent" points="424,-47.5 424,-49.5 620,-49.5 620,-47.5 424,-47.5"/>
<polygon fill="#000000" stroke="transparent" points="424,-45.5 424,-47.5 620,-47.5 620,-45.5 424,-45.5"/>
<polygon fill="#000000" stroke="transparent" points="424,-43.5 424,-45.5 620,-45.5 620,-43.5 424,-43.5"/>
<text text-anchor="start" x="426" y="-30.3" font-family="arial" font-size="14.00"> C2&#45;J1:3:3 </text>
<text text-anchor="start" x="497" y="-30.3" font-family="arial" font-size="14.00"> </text>
<text text-anchor="start" x="506" y="-30.3" font-family="arial" font-size="14.00"> 3:BL </text>
<text text-anchor="start" x="547" y="-30.3" font-family="arial" font-size="14.00"> </text>
<text text-anchor="start" x="555" y="-30.3" font-family="arial" font-size="14.00"> C2&#45;J2:3:3</text>
<polygon fill="#000000" stroke="transparent" points="424,-22.5 424,-24.5 620,-24.5 620,-22.5 424,-22.5"/>
<polygon fill="#000000" stroke="transparent" points="424,-20.5 424,-22.5 620,-22.5 620,-20.5 424,-20.5"/>
<polygon fill="#000000" stroke="transparent" points="424,-18.5 424,-20.5 620,-20.5 620,-18.5 424,-18.5"/>
<text text-anchor="start" x="457.5" y="-5.3" font-family="arial" font-size="14.00"> </text>
</g>
<!-- C2&#45;J1&#45;&#45;C2&#45;W1 -->
<g id="edge1" class="edge">
<title>C2&#45;J1:e&#45;&#45;C2&#45;W1:w</title>
<path fill="none" stroke="#000000" stroke-width="2" d="M208,-69.5C208.02,-67.5 424.02,-69.5 424,-71.5"/>
<path fill="none" stroke="#895956" stroke-width="2" d="M208,-69.5C208,-69.5 424,-71.5 424,-71.5"/>
<path fill="none" stroke="#000000" stroke-width="2" d="M208,-69.5C207.98,-71.5 423.98,-73.5 424,-71.5"/>
</g>
<!-- C2&#45;J1&#45;&#45;C2&#45;W1 -->
<g id="edge3" class="edge">
<title>C2&#45;J1:e&#45;&#45;C2&#45;W1:w</title>
<path fill="none" stroke="#000000" stroke-width="2" d="M208,-46.5C208,-44.5 424,-44.5 424,-46.5"/>
<path fill="none" stroke="#000000" stroke-width="2" d="M208,-46.5C208,-46.5 424,-46.5 424,-46.5"/>
<path fill="none" stroke="#000000" stroke-width="2" d="M208,-46.5C208,-48.5 424,-48.5 424,-46.5"/>
</g>
<!-- C2&#45;J1&#45;&#45;C2&#45;W1 -->
<g id="edge5" class="edge">
<title>C2&#45;J1:e&#45;&#45;C2&#45;W1:w</title>
<path fill="none" stroke="#000000" stroke-width="2" d="M208,-23.5C207.98,-21.5 423.98,-19.5 424,-21.5"/>
<path fill="none" stroke="#000000" stroke-width="2" d="M208,-23.5C208,-23.5 424,-21.5 424,-21.5"/>
<path fill="none" stroke="#000000" stroke-width="2" d="M208,-23.5C208.02,-25.5 424.02,-23.5 424,-21.5"/>
</g>
<!-- C2&#45;J2 -->
<g id="node2" class="node">
<title>C2&#45;J2</title>
<polygon fill="#ffffff" stroke="black" points="1044,-128 836,-128 836,-13 1044,-13 1044,-128"/>
<polygon fill="#ffffff" stroke="transparent" points="836,-13 836,-128 1044,-128 1044,-13 836,-13"/>
<polygon fill="#ffffff" stroke="transparent" points="836,-104.5 836,-127.5 1044,-127.5 1044,-104.5 836,-104.5"/>
<polygon fill="none" stroke="black" points="836,-104.5 836,-127.5 1044,-127.5 1044,-104.5 836,-104.5"/>
<text text-anchor="start" x="913.5" y="-113.3" font-family="arial" font-size="14.00"> </text>
<text text-anchor="start" x="917.5" y="-113.3" font-family="arial" font-weight="bold" font-size="14.00"> C2&#45;J2 </text>
<text text-anchor="start" x="962.5" y="-113.3" font-family="arial" font-size="14.00"> </text>
<polygon fill="none" stroke="black" points="836,-81.5 836,-104.5 941,-104.5 941,-81.5 836,-81.5"/>
<text text-anchor="start" x="840" y="-89.3" font-family="arial" font-size="14.00"> Terminal Block </text>
<polygon fill="none" stroke="black" points="941,-81.5 941,-104.5 998,-104.5 998,-81.5 941,-81.5"/>
<text text-anchor="start" x="945" y="-89.3" font-family="arial" font-size="14.00"> female </text>
<polygon fill="none" stroke="black" points="998,-81.5 998,-104.5 1044,-104.5 1044,-81.5 998,-81.5"/>
<text text-anchor="start" x="1002" y="-89.3" font-family="arial" font-size="14.00"> 3&#45;pin </text>
<polygon fill="none" stroke="black" points="836,-58.5 836,-81.5 914,-81.5 914,-58.5 836,-58.5"/>
<text text-anchor="start" x="867" y="-66.3" font-family="arial" font-size="14.00"> 1 </text>
<polygon fill="none" stroke="black" points="914,-58.5 914,-81.5 1044,-81.5 1044,-58.5 914,-58.5"/>
<text text-anchor="start" x="971" y="-66.3" font-family="arial" font-size="14.00"> 1 </text>
<polygon fill="none" stroke="black" points="836,-35.5 836,-58.5 914,-58.5 914,-35.5 836,-35.5"/>
<text text-anchor="start" x="867" y="-43.3" font-family="arial" font-size="14.00"> 2 </text>
<polygon fill="none" stroke="black" points="914,-35.5 914,-58.5 1044,-58.5 1044,-35.5 914,-35.5"/>
<text text-anchor="start" x="971" y="-43.3" font-family="arial" font-size="14.00"> 2 </text>
<polygon fill="none" stroke="black" points="836,-12.5 836,-35.5 914,-35.5 914,-12.5 836,-12.5"/>
<text text-anchor="start" x="867" y="-20.3" font-family="arial" font-size="14.00"> 3 </text>
<polygon fill="none" stroke="black" points="914,-12.5 914,-35.5 1044,-35.5 1044,-12.5 914,-12.5"/>
<text text-anchor="start" x="971" y="-20.3" font-family="arial" font-size="14.00"> 3 </text>
</g>
<!-- C2&#45;W1&#45;&#45;C2&#45;J2 -->
<g id="edge2" class="edge">
<title>C2&#45;W1:e&#45;&#45;C2&#45;J2:w</title>
<path fill="none" stroke="#000000" stroke-width="2" d="M620,-71.5C619.98,-69.5 835.98,-67.5 836,-69.5"/>
<path fill="none" stroke="#895956" stroke-width="2" d="M620,-71.5C620,-71.5 836,-69.5 836,-69.5"/>
<path fill="none" stroke="#000000" stroke-width="2" d="M620,-71.5C620.02,-73.5 836.02,-71.5 836,-69.5"/>
</g>
<!-- C2&#45;W1&#45;&#45;C2&#45;J2 -->
<g id="edge4" class="edge">
<title>C2&#45;W1:e&#45;&#45;C2&#45;J2:w</title>
<path fill="none" stroke="#000000" stroke-width="2" d="M620,-46.5C620,-44.5 836,-44.5 836,-46.5"/>
<path fill="none" stroke="#000000" stroke-width="2" d="M620,-46.5C620,-46.5 836,-46.5 836,-46.5"/>
<path fill="none" stroke="#000000" stroke-width="2" d="M620,-46.5C620,-48.5 836,-48.5 836,-46.5"/>
</g>
<!-- C2&#45;W1&#45;&#45;C2&#45;J2 -->
<g id="edge6" class="edge">
<title>C2&#45;W1:e&#45;&#45;C2&#45;J2:w</title>
<path fill="none" stroke="#000000" stroke-width="2" d="M620,-21.5C620.02,-19.5 836.02,-21.5 836,-23.5"/>
<path fill="none" stroke="#000000" stroke-width="2" d="M620,-21.5C620,-21.5 836,-23.5 836,-23.5"/>
<path fill="none" stroke="#000000" stroke-width="2" d="M620,-21.5C619.98,-23.5 835.98,-25.5 836,-23.5"/>
</g>
</g>
</svg>
