<?xml version="1.0" encoding="UTF-8" standalone="no"?>
<!DOCTYPE svg PUBLIC "-//W3C//DTD SVG 1.1//EN"
 "http://www.w3.org/Graphics/SVG/1.1/DTD/svg11.dtd">
<!-- Generated by graphviz version 2.43.0 (0)
 -->
<!-- Title: %3 Pages: 1 -->
<svg width="1089pt" height="217pt"
 viewBox="0.00 0.00 1089.00 217.00" xmlns="http://www.w3.org/2000/svg" xmlns:xlink="http://www.w3.org/1999/xlink">
<g id="graph0" class="graph" transform="scale(1 1) rotate(0) translate(4 213)">
<title>%3</title>
<polygon fill="#ffffff" stroke="transparent" points="-4,4 -4,-213 1085,-213 1085,4 -4,4"/>
<!-- C3&#45;J1 -->
<g id="node1" class="node">
<title>C3&#45;J1</title>
<polygon fill="#ffffff" stroke="black" points="231,-176 0,-176 0,-15 231,-15 231,-176"/>
<polygon fill="#ffffff" stroke="transparent" points="0,-15 0,-176 231,-176 231,-15 0,-15"/>
<polygon fill="#ffffff" stroke="transparent" points="0.5,-152.5 0.5,-175.5 231.5,-175.5 231.5,-152.5 0.5,-152.5"/>
<polygon fill="none" stroke="black" points="0.5,-152.5 0.5,-175.5 231.5,-175.5 231.5,-152.5 0.5,-152.5"/>
<text text-anchor="start" x="89.5" y="-161.3" font-family="arial" font-size="14.00"> </text>
<text text-anchor="start" x="93.5" y="-161.3" font-family="arial" font-weight="bold" font-size="14.00"> C3&#45;J1 </text>
<text text-anchor="start" x="138.5" y="-161.3" font-family="arial" font-size="14.00"> </text>
<polygon fill="none" stroke="black" points="0.5,-129.5 0.5,-152.5 128.5,-152.5 128.5,-129.5 0.5,-129.5"/>
<text text-anchor="start" x="4.5" y="-137.3" font-family="arial" font-size="14.00"> Molex MicroFit 3.0 </text>
<polygon fill="none" stroke="black" points="128.5,-129.5 128.5,-152.5 185.5,-152.5 185.5,-129.5 128.5,-129.5"/>
<text text-anchor="start" x="132.5" y="-137.3" font-family="arial" font-size="14.00"> female </text>
<polygon fill="none" stroke="black" points="185.5,-129.5 185.5,-152.5 231.5,-152.5 231.5,-129.5 185.5,-129.5"/>
<text text-anchor="start" x="189.5" y="-137.3" font-family="arial" font-size="14.00"> 5&#45;pin </text>
<polygon fill="none" stroke="black" points="0.5,-106.5 0.5,-129.5 146.5,-129.5 146.5,-106.5 0.5,-106.5"/>
<text text-anchor="start" x="65.5" y="-114.3" font-family="arial" font-size="14.00"> 1 </text>
<polygon fill="none" stroke="black" points="146.5,-106.5 146.5,-129.5 231.5,-129.5 231.5,-106.5 146.5,-106.5"/>
<text text-anchor="start" x="181" y="-114.3" font-family="arial" font-size="14.00"> 1 </text>
<polygon fill="none" stroke="black" points="0.5,-83.5 0.5,-106.5 146.5,-106.5 146.5,-83.5 0.5,-83.5"/>
<text text-anchor="start" x="65.5" y="-91.3" font-family="arial" font-size="14.00"> 2 </text>
<polygon fill="none" stroke="black" points="146.5,-83.5 146.5,-106.5 231.5,-106.5 231.5,-83.5 146.5,-83.5"/>
<text text-anchor="start" x="181" y="-91.3" font-family="arial" font-size="14.00"> 2 </text>
<polygon fill="none" stroke="black" points="0.5,-60.5 0.5,-83.5 146.5,-83.5 146.5,-60.5 0.5,-60.5"/>
<text text-anchor="start" x="65.5" y="-68.3" font-family="arial" font-size="14.00"> 3 </text>
<polygon fill="none" stroke="black" points="146.5,-60.5 146.5,-83.5 231.5,-83.5 231.5,-60.5 146.5,-60.5"/>
<text text-anchor="start" x="181" y="-68.3" font-family="arial" font-size="14.00"> 3 </text>
<polygon fill="none" stroke="black" points="0.5,-37.5 0.5,-60.5 146.5,-60.5 146.5,-37.5 0.5,-37.5"/>
<text text-anchor="start" x="65.5" y="-45.3" font-family="arial" font-size="14.00"> 4 </text>
<polygon fill="none" stroke="black" points="146.5,-37.5 146.5,-60.5 231.5,-60.5 231.5,-37.5 146.5,-37.5"/>
<text text-anchor="start" x="181" y="-45.3" font-family="arial" font-size="14.00"> 4 </text>
<polygon fill="none" stroke="black" points="0.5,-14.5 0.5,-37.5 146.5,-37.5 146.5,-14.5 0.5,-14.5"/>
<text text-anchor="start" x="65.5" y="-22.3" font-family="arial" font-size="14.00"> 5 </text>
<polygon fill="none" stroke="black" points="146.5,-14.5 146.5,-37.5 231.5,-37.5 231.5,-14.5 146.5,-14.5"/>
<text text-anchor="start" x="181" y="-22.3" font-family="arial" font-size="14.00"> 5 </text>
</g>
<!-- C3&#45;W1 -->
<g id="node3" class="node">
<title>C3&#45;W1</title>
<polygon fill="#ffffff" stroke="black" points="645,-209 447,-209 447,0 645,0 645,-209"/>
<polygon fill="#ffffff" stroke="transparent" points="447,0 447,-209 645,-209 645,0 447,0"/>
<polygon fill="#ffffff" stroke="transparent" points="447,-185.5 447,-208.5 645,-208.5 645,-185.5 447,-185.5"/>
<polygon fill="none" stroke="black" points="447,-185.5 447,-208.5 645,-208.5 645,-185.5 447,-185.5"/>
<text text-anchor="start" x="516.5" y="-194.3" font-family="arial" font-size="14.00"> </text>
<text text-anchor="start" x="520.5" y="-194.3" font-family="arial" font-weight="bold" font-size="14.00"> C3&#45;W1 </text>
<text text-anchor="start" x="571.5" y="-194.3" font-family="arial" font-size="14.00"> </text>
<polygon fill="none" stroke="black" points="447,-162.5 447,-185.5 492,-185.5 492,-162.5 447,-162.5"/>
<text text-anchor="start" x="458.5" y="-170.3" font-family="arial" font-size="14.00"> 5x </text>
<polygon fill="none" stroke="black" points="492,-162.5 492,-185.5 573,-185.5 573,-162.5 492,-162.5"/>
<text text-anchor="start" x="503" y="-170.3" font-family="arial" font-size="14.00"> 0.5 mm² </text>
<polygon fill="none" stroke="black" points="573,-162.5 573,-185.5 645,-185.5 645,-162.5 573,-162.5"/>
<text text-anchor="start" x="584" y="-170.3" font-family="arial" font-size="14.00"> 1.50 m </text>
<text text-anchor="start" x="480.5" y="-149.3" font-family="arial" font-size="14.00"> </text>
<text text-anchor="start" x="449" y="-130.3" font-family="arial" font-size="14.00"> C3&#45;J1:1:1 </text>
<text text-anchor="start" x="520" y="-130.3" font-family="arial" font-size="14.00"> </text>
<text text-anchor="start" x="528.5" y="-130.3" font-family="arial" font-size="14.00"> 1:RD </text>
<text text-anchor="start" x="572" y="-130.3" font-family="arial" font-size="14.00"> </text>
<text text-anchor="start" x="580" y="-130.3" font-family="arial" font-size="14.00"> C3&#45;J2:1:1</text>
<polygon fill="#000000" stroke="transparent" points="447,-122.5 447,-124.5 645,-124.5 645,-122.5 447,-122.5"/>
<polygon fill="#ff0000" stroke="transparent" points="447,-120.5 447,-122.5 645,-122.5 645,-120.5 447,-120.5"/>
<polygon fill="#000000" stroke="transparent" points="447,-118.5 447,-120.5 645,-120.5 645,-118.5 447,-118.5"/>
<text text-anchor="start" x="449" y="-105.3" font-family="arial" font-size="14.00"> C3&#45;J1:2:2 </text>
<text text-anchor="start" x="520" y="-105.3" font-family="arial" font-size="14.00"> </text>
<text text-anchor="start" x="529.5" y="-105.3" font-family="arial" font-size="14.00"> 2:BK </text>
<text text-anchor="start" x="572" y="-105.3" font-family="arial" font-size="14.00"> </text>
<text text-anchor="start" x="580" y="-105.3" font-family="arial" font-size="14.00"> C3&#45;J2:2:2</text>
<polygon fill="#000000" stroke="transparent" points="447,-97.5 447,-99.5 645,-99.5 645,-97.5 447,-97.5"/>
<polygon fill="#000000" stroke="transparent" points="447,-95.5 447,-97.5 645,-97.5 645,-95.5 447,-95.5"/>
<polygon fill="#000000" stroke="transparent" points="447,-93.5 447,-95.5 645,-95.5 645,-93.5 447,-93.5"/>
<text text-anchor="start" x="449" y="-80.3" font-family="arial" font-size="14.00"> C3&#45;J1:3:3 </text>
<text text-anchor="start" x="520" y="-80.3" font-family="arial" font-size="14.00"> </text>
<text text-anchor="start" x="529.5" y="-80.3" font-family="arial" font-size="14.00"> 3:YE </text>
<text text-anchor="start" x="572" y="-80.3" font-family="arial" font-size="14.00"> </text>
<text text-anchor="start" x="580" y="-80.3" font-family="arial" font-size="14.00"> C3&#45;J2:3:3</text>
<polygon fill="#000000" stroke="transparent" points="447,-72.5 447,-74.5 645,-74.5 645,-72.5 447,-72.5"/>
<polygon fill="#ffff00" stroke="transparent" points="447,-70.5 447,-72.5 645,-72.5 645,-70.5 447,-70.5"/>
<polygon fill="#000000" stroke="transparent" points="447,-68.5 447,-70.5 645,-70.5 645,-68.5 447,-68.5"/>
<text text-anchor="start" x="449" y="-55.3" font-family="arial" font-size="14.00"> C3&#45;J1:4:4 </text>
<text text-anchor="start" x="520" y="-55.3" font-family="arial" font-size="14.00"> </text>
<text text-anchor="start" x="528" y="-55.3" font-family="arial" font-size="14.00"> 4:GN </text>
<text text-anchor="start" x="572" y="-55.3" font-family="arial" font-size="14.00"> </text>
<text text-anchor="start" x="580" y="-55.3" font-family="arial" font-size="14.00"> C3&#45;J2:4:4</text>
<polygon fill="#000000" stroke="transparent" points="447,-47.5 447,-49.5 645,-49.5 645,-47.5 447,-47.5"/>
<polygon fill="#00aa00" stroke="transparent" points="447,-45.5 447,-47.5 645,-47.5 645,-45.5 447,-45.5"/>
<polygon fill="#000000" stroke="transparent" points="447,-43.5 447,-45.5 645,-45.5 645,-43.5 447,-43.5"/>
<text text-anchor="start" x="449" y="-30.3" font-family="arial" font-size="14.00"> C3&#45;J1:5:5 </text>
<text text-anchor="start" x="520" y="-30.3" font-family="arial" font-size="14.00"> </text>
<text text-anchor="start" x="529" y="-30.3" font-family="arial" font-size="14.00"> 5:BU </text>
<text text-anchor="start" x="572" y="-30.3" font-family="arial" font-size="14.00"> </text>
<text text-anchor="start" x="580" y="-30.3" font-family="arial" font-size="14.00"> C3&#45;J2:5:5</text>
<polygon fill="#000000" stroke="transparent" points="447,-22.5 447,-24.5 645,-24.5 645,-22.5 447,-22.5"/>
<polygon fill="#0066ff" stroke="transparent" points="447,-20.5 447,-22.5 645,-22.5 645,-20.5 447,-20.5"/>
<polygon fill="#000000" stroke="transparent" points="447,-18.5 447,-20.5 645,-20.5 645,-18.5 447,-18.5"/>
<text text-anchor="start" x="480.5" y="-5.3" font-family="arial" font-size="14.00"> </text>
</g>
<!-- C3&#45;J1&#45;&#45;C3&#45;W1 -->
<g id="edge1" class="edge">
<title>C3&#45;J1:e&#45;&#45;C3&#45;W1:w</title>
<path fill="none" stroke="#000000" stroke-width="2" d="M231,-118.5C231.03,-116.5 447.03,-119.5 447,-121.5"/>
<path fill="none" stroke="#ff0000" stroke-width="2" d="M231,-118.5C231,-118.5 447,-121.5 447,-121.5"/>
<path fill="none" stroke="#000000" stroke-width="2" d="M231,-118.5C230.97,-120.5 446.97,-123.5 447,-121.5"/>
</g>
<!-- C3&#45;J1&#45;&#45;C3&#45;W1 -->
<g id="edge3" class="edge">
<title>C3&#45;J1:e&#45;&#45;C3&#45;W1:w</title>
<path fill="none" stroke="#000000" stroke-width="2" d="M231,-94.5C231.02,-92.5 447.02,-94.5 447,-96.5"/>
<path fill="none" stroke="#000000" stroke-width="2" d="M231,-94.5C231,-94.5 447,-96.5 447,-96.5"/>
<path fill="none" stroke="#000000" stroke-width="2" d="M231,-94.5C230.98,-96.5 446.98,-98.5 447,-96.5"/>
</g>
<!-- C3&#45;J1&#45;&#45;C3&#45;W1 -->
<g id="edge5" class="edge">
<title>C3&#45;J1:e&#45;&#45;C3&#45;W1:w</title>
<path fill="none" stroke="#000000" stroke-width="2" d="M231,-71.5C231,-69.5 447,-69.5 447,-71.5"/>
<path fill="none" stroke="#ffff00" stroke-width="2" d="M231,-71.5C231,-71.5 447,-71.5 447,-71.5"/>
<path fill="none" stroke="#000000" stroke-width="2" d="M231,-71.5C231,-73.5 447,-73.5 447,-71.5"/>
</g>
<!-- C3&#45;J1&#45;&#45;C3&#45;W1 -->
<g id="edge7" class="edge">
<title>C3&#45;J1:e&#45;&#45;C3&#45;W1:w</title>
<path fill="none" stroke="#000000" stroke-width="2" d="M231,-48.5C230.98,-46.5 446.98,-44.5 447,-46.5"/>
<path fill="none" stroke="#00aa00" stroke-width="2" d="M231,-48.5C231,-48.5 447,-46.5 447,-46.5"/>
<path fill="none" stroke="#000000" stroke-width="2" d="M231,-48.5C231.02,-50.5 447.02,-48.5 447,-46.5"/>
</g>
<!-- C3&#45;J1&#45;&#45;C3&#45;W1 -->
<g id="edge9" class="edge">
<title>C3&#45;J1:e&#45;&#45;C3&#45;W1:w</title>
<path fill="none" stroke="#000000" stroke-width="2" d="M231,-25.5C230.96,-23.5 446.96,-19.5 447,-21.5"/>
<path fill="none" stroke="#0066ff" stroke-width="2" d="M231,-25.5C231,-25.5 447,-21.5 447,-21.5"/>
<path fill="none" stroke="#000000" stroke-width="2" d="M231,-25.5C231.04,-27.5 447.04,-23.5 447,-21.5"/>
</g>
<!-- C3&#45;J2 -->
<g id="node2" class="node">
<title>C3&#45;J2</title>
<polygon fill="#ffffff" stroke="black" points="1081,-176 861,-176 861,-15 1081,-15 1081,-176"/>
<polygon fill="#ffffff" stroke="transparent" points="861,-15 861,-176 1081,-176 1081,-15 861,-15"/>
<polygon fill="#ffffff" stroke="transparent" points="861,-152.5 861,-175.5 1081,-175.5 1081,-152.5 861,-152.5"/>
<polygon fill="none" stroke="black" points="861,-152.5 861,-175.5 1081,-175.5 1081,-152.5 861,-152.5"/>
<text text-anchor="start" x="944.5" y="-161.3" font-family="arial" font-size="14.00"> </text>
<text text-anchor="start" x="948.5" y="-161.3" font-family="arial" font-weight="bold" font-size="14.00"> C3&#45;J2 </text>
<text text-anchor="start" x="993.5" y="-161.3" font-family="arial" font-size="14.00"> </text>
<polygon fill="none" stroke="black" points="861,-129.5 861,-152.5 989,-152.5 989,-129.5 861,-129.5"/>
<text text-anchor="start" x="865" y="-137.3" font-family="arial" font-size="14.00"> Molex MicroFit 3.0 </text>
<polygon fill="none" stroke="black" points="989,-129.5 989,-152.5 1035,-152.5 1035,-129.5 989,-129.5"/>
<text text-anchor="start" x="993" y="-137.3" font-family="arial" font-size="14.00"> male </text>
<polygon fill="none" stroke="black" points="1035,-129.5 1035,-152.5 1081,-152.5 1081,-129.5 1035,-129.5"/>
<text text-anchor="start" x="1039" y="-137.3" font-family="arial" font-size="14.00"> 5&#45;pin </text>
<polygon fill="none" stroke="black" points="861,-106.5 861,-129.5 943,-129.5 943,-106.5 861,-106.5"/>
<text text-anchor="start" x="894" y="-114.3" font-family="arial" font-size="14.00"> 1 </text>
<polygon fill="none" stroke="black" points="943,-106.5 943,-129.5 1081,-129.5 1081,-106.5 943,-106.5"/>
<text text-anchor="start" x="1004" y="-114.3" font-family="arial" font-size="14.00"> 1 </text>
<polygon fill="none" stroke="black" points="861,-83.5 861,-106.5 943,-106.5 943,-83.5 861,-83.5"/>
<text text-anchor="start" x="894" y="-91.3" font-family="arial" font-size="14.00"> 2 </text>
<polygon fill="none" stroke="black" points="943,-83.5 943,-106.5 1081,-106.5 1081,-83.5 943,-83.5"/>
<text text-anchor="start" x="1004" y="-91.3" font-family="arial" font-size="14.00"> 2 </text>
<polygon fill="none" stroke="black" points="861,-60.5 861,-83.5 943,-83.5 943,-60.5 861,-60.5"/>
<text text-anchor="start" x="894" y="-68.3" font-family="arial" font-size="14.00"> 3 </text>
<polygon fill="none" stroke="black" points="943,-60.5 943,-83.5 1081,-83.5 1081,-60.5 943,-60.5"/>
<text text-anchor="start" x="1004" y="-68.3" font-family="arial" font-size="14.00"> 3 </text>
<polygon fill="none" stroke="black" points="861,-37.5 861,-60.5 943,-60.5 943,-37.5 861,-37.5"/>
<text text-anchor="start" x="894" y="-45.3" font-family="arial" font-size="14.00"> 4 </text>
<polygon fill="none" stroke="black" points="943,-37.5 943,-60.5 1081,-60.5 1081,-37.5 943,-37.5"/>
<text text-anchor="start" x="1004" y="-45.3" font-family="arial" font-size="14.00"> 4 </text>
<polygon fill="none" stroke="black" points="861,-14.5 861,-37.5 943,-37.5 943,-14.5 861,-14.5"/>
<text text-anchor="start" x="894" y="-22.3" font-family="arial" font-size="14.00"> 5 </text>
<polygon fill="none" stroke="black" points="943,-14.5 943,-37.5 1081,-37.5 1081,-14.5 943,-14.5"/>
<text text-anchor="start" x="1004" y="-22.3" font-family="arial" font-size="14.00"> 5 </text>
</g>
<!-- C3&#45;W1&#45;&#45;C3&#45;J2 -->
<g id="edge2" class="edge">
<title>C3&#45;W1:e&#45;&#45;C3&#45;J2:w</title>
<path fill="none" stroke="#000000" stroke-width="2" d="M645,-121.5C644.97,-119.5 860.97,-116.5 861,-118.5"/>
<path fill="none" stroke="#ff0000" stroke-width="2" d="M645,-121.5C645,-121.5 861,-118.5 861,-118.5"/>
<path fill="none" stroke="#000000" stroke-width="2" d="M645,-121.5C645.03,-123.5 861.03,-120.5 861,-118.5"/>
</g>
<!-- C3&#45;W1&#45;&#45;C3&#45;J2 -->
<g id="edge4" class="edge">
<title>C3&#45;W1:e&#45;&#45;C3&#45;J2:w</title>
<path fill="none" stroke="#000000" stroke-width="2" d="M645,-96.5C644.98,-94.5 860.98,-92.5 861,-94.5"/>
<path fill="none" stroke="#000000" stroke-width="2" d="M645,-96.5C645,-96.5 861,-94.5 861,-94.5"/>
<path fill="none" stroke="#000000" stroke-width="2" d="M645,-96.5C645.02,-98.5 861.02,-96.5 861,-94.5"/>
</g>
<!-- C3&#45;W1&#45;&#45;C3&#45;J2 -->
<g id="edge6" class="edge">
<title>C3&#45;W1:e&#45;&#45;C3&#45;J2:w</title>
<path fill="none" stroke="#000000" stroke-width="2" d="M645,-71.5C645,-69.5 861,-69.5 861,-71.5"/>
<path fill="none" stroke="#ffff00" stroke-width="2" d="M645,-71.5C645,-71.5 861,-71.5 861,-71.5"/>
<path fill="none" stroke="#000000" stroke-width="2" d="M645,-71.5C645,-73.5 861,-73.5 861,-71.5"/>
</g>
<!-- C3&#45;W1&#45;&#45;C3&#45;J2 -->
<g id="edge8" class="edge">
<title>C3&#45;W1:e&#45;&#45;C3&#45;J2:w</title>
<path fill="none" stroke="#000000" stroke-width="2" d="M645,-46.5C645.02,-44.5 861.02,-46.5 861,-48.5"/>
<path fill="none" stroke="#00aa00" stroke-width="2" d="M645,-46.5C645,-46.5 861,-48.5 861,-48.5"/>
<path fill="none" stroke="#000000" stroke-width="2" d="M645,-46.5C644.98,-48.5 860.98,-50.5 861,-48.5"/>
</g>
<!-- C3&#45;W1&#45;&#45;C3&#45;J2 -->
<g id="edge10" class="edge">
<title>C3&#45;W1:e&#45;&#45;C3&#45;J2:w</title>
<path fill="none" stroke="#000000" stroke-width="2" d="M645,-21.5C645.04,-19.5 861.04,-23.5 861,-25.5"/>
<path fill="none" stroke="#0066ff" stroke-width="2" d="M645,-21.5C645,-21.5 861,-25.5 861,-25.5"/>
<path fill="none" stroke="#000000" stroke-width="2" d="M645,-21.5C644.96,-23.5 860.96,-27.5 861,-25.5"/>
</g>
</g>
</svg>
