<?xml version="1.0" encoding="UTF-8" standalone="no"?>
<!DOCTYPE svg PUBLIC "-//W3C//DTD SVG 1.1//EN"
 "http://www.w3.org/Graphics/SVG/1.1/DTD/svg11.dtd">
<!-- Generated by graphviz version 2.43.0 (0)
 -->
<!-- Title: %3 Pages: 1 -->
<svg width="959pt" height="192pt"
 viewBox="0.00 0.00 959.00 192.00" xmlns="http://www.w3.org/2000/svg" xmlns:xlink="http://www.w3.org/1999/xlink">
<g id="graph0" class="graph" transform="scale(1 1) rotate(0) translate(4 188)">
<title>%3</title>
<polygon fill="#ffffff" stroke="transparent" points="-4,4 -4,-188 955,-188 955,4 -4,4"/>
<!-- C1&#45;J1 -->
<g id="node1" class="node">
<title>C1&#45;J1</title>
<polygon fill="#ffffff" stroke="black" points="166,-152 0,-152 0,-14 166,-14 166,-152"/>
<polygon fill="#ffffff" stroke="transparent" points="0,-14 0,-152 166,-152 166,-14 0,-14"/>
<polygon fill="#ffffff" stroke="transparent" points="0,-129 0,-152 166,-152 166,-129 0,-129"/>
<polygon fill="none" stroke="black" points="0,-129 0,-152 166,-152 166,-129 0,-129"/>
<text text-anchor="start" x="56.5" y="-137.8" font-family="arial" font-size="14.00"> </text>
<text text-anchor="start" x="60.5" y="-137.8" font-family="arial" font-weight="bold" font-size="14.00"> C1&#45;J1 </text>
<text text-anchor="start" x="105.5" y="-137.8" font-family="arial" font-size="14.00"> </text>
<polygon fill="none" stroke="black" points="0,-106 0,-129 63,-129 63,-106 0,-106"/>
<text text-anchor="start" x="4" y="-113.8" font-family="arial" font-size="14.00"> Circular </text>
<polygon fill="none" stroke="black" points="63,-106 63,-129 120,-129 120,-106 63,-106"/>
<text text-anchor="start" x="67" y="-113.8" font-family="arial" font-size="14.00"> female </text>
<polygon fill="none" stroke="black" points="120,-106 120,-129 166,-129 166,-106 120,-106"/>
<text text-anchor="start" x="124" y="-113.8" font-family="arial" font-size="14.00"> 4&#45;pin </text>
<polygon fill="none" stroke="black" points="0,-83 0,-106 103,-106 103,-83 0,-83"/>
<text text-anchor="start" x="43.5" y="-90.8" font-family="arial" font-size="14.00"> 1 </text>
<polygon fill="none" stroke="black" points="103,-83 103,-106 166,-106 166,-83 103,-83"/>
<text text-anchor="start" x="126.5" y="-90.8" font-family="arial" font-size="14.00"> 1 </text>
<polygon fill="none" stroke="black" points="0,-60 0,-83 103,-83 103,-60 0,-60"/>
<text text-anchor="start" x="43.5" y="-67.8" font-family="arial" font-size="14.00"> 2 </text>
<polygon fill="none" stroke="black" points="103,-60 103,-83 166,-83 166,-60 103,-60"/>
<text text-anchor="start" x="126.5" y="-67.8" font-family="arial" font-size="14.00"> 2 </text>
<polygon fill="none" stroke="black" points="0,-37 0,-60 103,-60 103,-37 0,-37"/>
<text text-anchor="start" x="43.5" y="-44.8" font-family="arial" font-size="14.00"> 3 </text>
<polygon fill="none" stroke="black" points="103,-37 103,-60 166,-60 166,-37 103,-37"/>
<text text-anchor="start" x="126.5" y="-44.8" font-family="arial" font-size="14.00"> 3 </text>
<polygon fill="none" stroke="black" points="0,-14 0,-37 103,-37 103,-14 0,-14"/>
<text text-anchor="start" x="43.5" y="-21.8" font-family="arial" font-size="14.00"> 4 </text>
<polygon fill="none" stroke="black" points="103,-14 103,-37 166,-37 166,-14 103,-14"/>
<text text-anchor="start" x="126.5" y="-21.8" font-family="arial" font-size="14.00"> 4 </text>
</g>
<!-- C1&#45;W1 -->
<g id="node3" class="node">
<title>C1&#45;W1</title>
<polygon fill="#ffffff" stroke="black" points="580,-184 382,-184 382,0 580,0 580,-184"/>
<polygon fill="#ffffff" stroke="transparent" points="382,0 382,-184 580,-184 580,0 382,0"/>
<polygon fill="#ffffff" stroke="transparent" points="382,-161 382,-184 580,-184 580,-161 382,-161"/>
<polygon fill="none" stroke="black" points="382,-161 382,-184 580,-184 580,-161 382,-161"/>
<text text-anchor="start" x="451.5" y="-169.8" font-family="arial" font-size="14.00"> </text>
<text text-anchor="start" x="455.5" y="-169.8" font-family="arial" font-weight="bold" font-size="14.00"> C1&#45;W1 </text>
<text text-anchor="start" x="506.5" y="-169.8" font-family="arial" font-size="14.00"> </text>
<polygon fill="none" stroke="black" points="382,-138 382,-161 433,-161 433,-138 382,-138"/>
<text text-anchor="start" x="396.5" y="-145.8" font-family="arial" font-size="14.00"> 4x </text>
<polygon fill="none" stroke="black" points="433,-138 433,-161 521,-161 521,-138 433,-138"/>
<text text-anchor="start" x="447.5" y="-145.8" font-family="arial" font-size="14.00"> 0.5 mm² </text>
<polygon fill="none" stroke="black" points="521,-138 521,-161 580,-161 580,-138 521,-138"/>
<text text-anchor="start" x="535" y="-145.8" font-family="arial" font-size="14.00"> 1 m </text>
<text text-anchor="start" x="415.5" y="-124.8" font-family="arial" font-size="14.00"> </text>
<text text-anchor="start" x="384" y="-105.8" font-family="arial" font-size="14.00"> C1&#45;J1:1:1 </text>
<text text-anchor="start" x="455" y="-105.8" font-family="arial" font-size="14.00"> </text>
<text text-anchor="start" x="463.5" y="-105.8" font-family="arial" font-size="14.00"> 1:RD </text>
<text text-anchor="start" x="507" y="-105.8" font-family="arial" font-size="14.00"> </text>
<text text-anchor="start" x="515" y="-105.8" font-family="arial" font-size="14.00"> C1&#45;J2:4:4</text>
<polygon fill="#000000" stroke="transparent" points="382,-98 382,-100 580,-100 580,-98 382,-98"/>
<polygon fill="#ff0000" stroke="transparent" points="382,-96 382,-98 580,-98 580,-96 382,-96"/>
<polygon fill="#000000" stroke="transparent" points="382,-94 382,-96 580,-96 580,-94 382,-94"/>
<text text-anchor="start" x="384" y="-80.8" font-family="arial" font-size="14.00"> C1&#45;J1:2:2 </text>
<text text-anchor="start" x="455" y="-80.8" font-family="arial" font-size="14.00"> </text>
<text text-anchor="start" x="464.5" y="-80.8" font-family="arial" font-size="14.00"> 2:BK </text>
<text text-anchor="start" x="507" y="-80.8" font-family="arial" font-size="14.00"> </text>
<text text-anchor="start" x="515" y="-80.8" font-family="arial" font-size="14.00"> C1&#45;J2:3:3</text>
<polygon fill="#000000" stroke="transparent" points="382,-73 382,-75 580,-75 580,-73 382,-73"/>
<polygon fill="#000000" stroke="transparent" points="382,-71 382,-73 580,-73 580,-71 382,-71"/>
<polygon fill="#000000" stroke="transparent" points="382,-69 382,-71 580,-71 580,-69 382,-69"/>
<text text-anchor="start" x="384" y="-55.8" font-family="arial" font-size="14.00"> C1&#45;J1:3:3 </text>
<text text-anchor="start" x="455" y="-55.8" font-family="arial" font-size="14.00"> </text>
<text text-anchor="start" x="463" y="-55.8" font-family="arial" font-size="14.00"> 3:GN </text>
<text text-anchor="start" x="507" y="-55.8" font-family="arial" font-size="14.00"> </text>
<text text-anchor="start" x="515" y="-55.8" font-family="arial" font-size="14.00"> C1&#45;J2:2:2</text>
<polygon fill="#000000" stroke="transparent" points="382,-48 382,-50 580,-50 580,-48 382,-48"/>
<polygon fill="#00aa00" stroke="transparent" points="382,-46 382,-48 580,-48 580,-46 382,-46"/>
<polygon fill="#000000" stroke="transparent" points="382,-44 382,-46 580,-46 580,-44 382,-44"/>
<text text-anchor="start" x="384" y="-30.8" font-family="arial" font-size="14.00"> C1&#45;J1:4:4 </text>
<text text-anchor="start" x="455" y="-30.8" font-family="arial" font-size="14.00"> </text>
<text text-anchor="start" x="464.5" y="-30.8" font-family="arial" font-size="14.00"> 4:YE </text>
<text text-anchor="start" x="507" y="-30.8" font-family="arial" font-size="14.00"> </text>
<text text-anchor="start" x="515" y="-30.8" font-family="arial" font-size="14.00"> C1&#45;J2:1:1</text>
<polygon fill="#000000" stroke="transparent" points="382,-23 382,-25 580,-25 580,-23 382,-23"/>
<polygon fill="#ffff00" stroke="transparent" points="382,-21 382,-23 580,-23 580,-21 382,-21"/>
<polygon fill="#000000" stroke="transparent" points="382,-19 382,-21 580,-21 580,-19 382,-19"/>
<text text-anchor="start" x="415.5" y="-5.8" font-family="arial" font-size="14.00"> </text>
</g>
<!-- C1&#45;J1&#45;&#45;C1&#45;W1 -->
<g id="edge1" class="edge">
<title>C1&#45;J1:e&#45;&#45;C1&#45;W1:w</title>
<path fill="none" stroke="#000000" stroke-width="2" d="M166,-95C166.02,-93 382.02,-95 382,-97"/>
<path fill="none" stroke="#ff0000" stroke-width="2" d="M166,-95C166,-95 382,-97 382,-97"/>
<path fill="none" stroke="#000000" stroke-width="2" d="M166,-95C165.98,-97 381.98,-99 382,-97"/>
</g>
<!-- C1&#45;J1&#45;&#45;C1&#45;W1 -->
<g id="edge3" class="edge">
<title>C1&#45;J1:e&#45;&#45;C1&#45;W1:w</title>
<path fill="none" stroke="#000000" stroke-width="2" d="M166,-71C166.01,-69 382.01,-70 382,-72"/>
<path fill="none" stroke="#000000" stroke-width="2" d="M166,-71C166,-71 382,-72 382,-72"/>
<path fill="none" stroke="#000000" stroke-width="2" d="M166,-71C165.99,-73 381.99,-74 382,-72"/>
</g>
<!-- C1&#45;J1&#45;&#45;C1&#45;W1 -->
<g id="edge5" class="edge">
<title>C1&#45;J1:e&#45;&#45;C1&#45;W1:w</title>
<path fill="none" stroke="#000000" stroke-width="2" d="M166,-48C165.99,-46 381.99,-45 382,-47"/>
<path fill="none" stroke="#00aa00" stroke-width="2" d="M166,-48C166,-48 382,-47 382,-47"/>
<path fill="none" stroke="#000000" stroke-width="2" d="M166,-48C166.01,-50 382.01,-49 382,-47"/>
</g>
<!-- C1&#45;J1&#45;&#45;C1&#45;W1 -->
<g id="edge7" class="edge">
<title>C1&#45;J1:e&#45;&#45;C1&#45;W1:w</title>
<path fill="none" stroke="#000000" stroke-width="2" d="M166,-25C165.97,-23 381.97,-20 382,-22"/>
<path fill="none" stroke="#ffff00" stroke-width="2" d="M166,-25C166,-25 382,-22 382,-22"/>
<path fill="none" stroke="#000000" stroke-width="2" d="M166,-25C166.03,-27 382.03,-24 382,-22"/>
</g>
<!-- C1&#45;J2 -->
<g id="node2" class="node">
<title>C1&#45;J2</title>
<polygon fill="#ffffff" stroke="black" points="951,-152 796,-152 796,-14 951,-14 951,-152"/>
<polygon fill="#ffffff" stroke="transparent" points="796,-14 796,-152 951,-152 951,-14 796,-14"/>
<polygon fill="#ffffff" stroke="transparent" points="796.5,-129 796.5,-152 951.5,-152 951.5,-129 796.5,-129"/>
<polygon fill="none" stroke="black" points="796.5,-129 796.5,-152 951.5,-152 951.5,-129 796.5,-129"/>
<text text-anchor="start" x="847.5" y="-137.8" font-family="arial" font-size="14.00"> </text>
<text text-anchor="start" x="851.5" y="-137.8" font-family="arial" font-weight="bold" font-size="14.00"> C1&#45;J2 </text>
<text text-anchor="start" x="896.5" y="-137.8" font-family="arial" font-size="14.00"> </text>
<polygon fill="none" stroke="black" points="796.5,-106 796.5,-129 859.5,-129 859.5,-106 796.5,-106"/>
<text text-anchor="start" x="800.5" y="-113.8" font-family="arial" font-size="14.00"> Circular </text>
<polygon fill="none" stroke="black" points="859.5,-106 859.5,-129 905.5,-129 905.5,-106 859.5,-106"/>
<text text-anchor="start" x="863.5" y="-113.8" font-family="arial" font-size="14.00"> male </text>
<polygon fill="none" stroke="black" points="905.5,-106 905.5,-129 951.5,-129 951.5,-106 905.5,-106"/>
<text text-anchor="start" x="909.5" y="-113.8" font-family="arial" font-size="14.00"> 4&#45;pin </text>
<polygon fill="none" stroke="black" points="796.5,-83 796.5,-106 856.5,-106 856.5,-83 796.5,-83"/>
<text text-anchor="start" x="818.5" y="-90.8" font-family="arial" font-size="14.00"> 1 </text>
<polygon fill="none" stroke="black" points="856.5,-83 856.5,-106 951.5,-106 951.5,-83 856.5,-83"/>
<text text-anchor="start" x="896" y="-90.8" font-family="arial" font-size="14.00"> 1 </text>
<polygon fill="none" stroke="black" points="796.5,-60 796.5,-83 856.5,-83 856.5,-60 796.5,-60"/>
<text text-anchor="start" x="818.5" y="-67.8" font-family="arial" font-size="14.00"> 2 </text>
<polygon fill="none" stroke="black" points="856.5,-60 856.5,-83 951.5,-83 951.5,-60 856.5,-60"/>
<text text-anchor="start" x="896" y="-67.8" font-family="arial" font-size="14.00"> 2 </text>
<polygon fill="none" stroke="black" points="796.5,-37 796.5,-60 856.5,-60 856.5,-37 796.5,-37"/>
<text text-anchor="start" x="818.5" y="-44.8" font-family="arial" font-size="14.00"> 3 </text>
<polygon fill="none" stroke="black" points="856.5,-37 856.5,-60 951.5,-60 951.5,-37 856.5,-37"/>
<text text-anchor="start" x="896" y="-44.8" font-family="arial" font-size="14.00"> 3 </text>
<polygon fill="none" stroke="black" points="796.5,-14 796.5,-37 856.5,-37 856.5,-14 796.5,-14"/>
<text text-anchor="start" x="818.5" y="-21.8" font-family="arial" font-size="14.00"> 4 </text>
<polygon fill="none" stroke="black" points="856.5,-14 856.5,-37 951.5,-37 951.5,-14 856.5,-14"/>
<text text-anchor="start" x="896" y="-21.8" font-family="arial" font-size="14.00"> 4 </text>
</g>
<!-- C1&#45;W1&#45;&#45;C1&#45;J2 -->
<g id="edge2" class="edge">
<title>C1&#45;W1:e&#45;&#45;C1&#45;J2:w</title>
<path fill="none" stroke="#000000" stroke-width="2" d="M580,-97C579.37,-95.1 795.37,-23.1 796,-25"/>
<path fill="none" stroke="#ff0000" stroke-width="2" d="M580,-97C580,-97 796,-25 796,-25"/>
<path fill="none" stroke="#000000" stroke-width="2" d="M580,-97C580.63,-98.9 796.63,-26.9 796,-25"/>
</g>
<!-- C1&#45;W1&#45;&#45;C1&#45;J2 -->
<g id="edge4" class="edge">
<title>C1&#45;W1:e&#45;&#45;C1&#45;J2:w</title>
<path fill="none" stroke="#000000" stroke-width="2" d="M580,-72C579.78,-70.01 795.78,-46.01 796,-48"/>
<path fill="none" stroke="#000000" stroke-width="2" d="M580,-72C580,-72 796,-48 796,-48"/>
<path fill="none" stroke="#000000" stroke-width="2" d="M580,-72C580.22,-73.99 796.22,-49.99 796,-48"/>
</g>
<!-- C1&#45;W1&#45;&#45;C1&#45;J2 -->
<g id="edge6" class="edge">
<title>C1&#45;W1:e&#45;&#45;C1&#45;J2:w</title>
<path fill="none" stroke="#000000" stroke-width="2" d="M580,-47C580.22,-45.01 796.22,-69.01 796,-71"/>
<path fill="none" stroke="#00aa00" stroke-width="2" d="M580,-47C580,-47 796,-71 796,-71"/>
<path fill="none" stroke="#000000" stroke-width="2" d="M580,-47C579.78,-48.99 795.78,-72.99 796,-71"/>
</g>
<!-- C1&#45;W1&#45;&#45;C1&#45;J2 -->
<g id="edge8" class="edge">
<title>C1&#45;W1:e&#45;&#45;C1&#45;J2:w</title>
<path fill="none" stroke="#000000" stroke-width="2" d="M580,-22C580.64,-20.11 796.64,-93.11 796,-95"/>
<path fill="none" stroke="#ffff00" stroke-width="2" d="M580,-22C580,-22 796,-95 796,-95"/>
<path fill="none" stroke="#000000" stroke-width="2" d="M580,-22C579.36,-23.89 795.36,-96.89 796,-95"/>
</g>
</g>
</svg>
