<?xml version="1.0" encoding="UTF-8" standalone="no"?>
<!DOCTYPE svg PUBLIC "-//W3C//DTD SVG 1.1//EN"
 "http://www.w3.org/Graphics/SVG/1.1/DTD/svg11.dtd">
<!-- Generated by graphviz version 2.43.0 (0)
 -->
<!-- Title: %3 Pages: 1 -->
<svg width="1087pt" height="767pt"
 viewBox="0.00 0.00 1087.00 766.50" xmlns="http://www.w3.org/2000/svg" xmlns:xlink="http://www.w3.org/1999/xlink">
<g id="graph0" class="graph" transform="scale(1 1) rotate(0) translate(4 762.5)">
<title>%3</title>
<polygon fill="#ffffff" stroke="transparent" points="-4,4 -4,-762.5 1083,-762.5 1083,4 -4,4"/>
<!-- X1 -->
<g id="node1" class="node">
<title>X1</title>
<polygon fill="#ffffff" stroke="black" points="210,-517.5 6,-517.5 6,-287.5 210,-287.5 210,-517.5"/>
<polygon fill="#ffffff" stroke="transparent" points="6,-287.5 6,-517.5 210,-517.5 210,-287.5 6,-287.5"/>
<polygon fill="#ffffff" stroke="transparent" points="6,-494.5 6,-517.5 210,-517.5 210,-494.5 6,-494.5"/>
<polygon fill="none" stroke="black" points="6,-494.5 6,-517.5 210,-517.5 210,-494.5 6,-494.5"/>
<text text-anchor="start" x="91.5" y="-503.3" font-family="arial" font-size="14.00"> </text>
<text text-anchor="start" x="95.5" y="-503.3" font-family="arial" font-weight="bold" font-size="14.00"> X1 </text>
<text text-anchor="start" x="120.5" y="-503.3" font-family="arial" font-size="14.00"> </text>
<polygon fill="none" stroke="black" points="6,-471.5 6,-494.5 107,-494.5 107,-471.5 6,-471.5"/>
<text text-anchor="start" x="10" y="-479.3" font-family="arial" font-size="14.00"> Molex KK 254 </text>
<polygon fill="none" stroke="black" points="107,-471.5 107,-494.5 164,-494.5 164,-471.5 107,-471.5"/>
<text text-anchor="start" x="111" y="-479.3" font-family="arial" font-size="14.00"> female </text>
<polygon fill="none" stroke="black" points="164,-471.5 164,-494.5 210,-494.5 210,-471.5 164,-471.5"/>
<text text-anchor="start" x="168" y="-479.3" font-family="arial" font-size="14.00"> 8&#45;pin </text>
<polygon fill="none" stroke="black" points="6,-448.5 6,-471.5 144,-471.5 144,-448.5 6,-448.5"/>
<text text-anchor="start" x="55.5" y="-456.3" font-family="arial" font-size="14.00"> GND </text>
<polygon fill="none" stroke="black" points="144,-448.5 144,-471.5 210,-471.5 210,-448.5 144,-448.5"/>
<text text-anchor="start" x="169" y="-456.3" font-family="arial" font-size="14.00"> 1 </text>
<polygon fill="none" stroke="black" points="6,-425.5 6,-448.5 144,-448.5 144,-425.5 6,-425.5"/>
<text text-anchor="start" x="58.5" y="-433.3" font-family="arial" font-size="14.00"> +5V </text>
<polygon fill="none" stroke="black" points="144,-425.5 144,-448.5 210,-448.5 210,-425.5 144,-425.5"/>
<text text-anchor="start" x="169" y="-433.3" font-family="arial" font-size="14.00"> 2 </text>
<polygon fill="none" stroke="black" points="6,-402.5 6,-425.5 144,-425.5 144,-402.5 6,-402.5"/>
<text text-anchor="start" x="58" y="-410.3" font-family="arial" font-size="14.00"> SCL </text>
<polygon fill="none" stroke="black" points="144,-402.5 144,-425.5 210,-425.5 210,-402.5 144,-402.5"/>
<text text-anchor="start" x="169" y="-410.3" font-family="arial" font-size="14.00"> 3 </text>
<polygon fill="none" stroke="black" points="6,-379.5 6,-402.5 144,-402.5 144,-379.5 6,-379.5"/>
<text text-anchor="start" x="57.5" y="-387.3" font-family="arial" font-size="14.00"> SDA </text>
<polygon fill="none" stroke="black" points="144,-379.5 144,-402.5 210,-402.5 210,-379.5 144,-379.5"/>
<text text-anchor="start" x="169" y="-387.3" font-family="arial" font-size="14.00"> 4 </text>
<polygon fill="none" stroke="black" points="6,-356.5 6,-379.5 144,-379.5 144,-356.5 6,-356.5"/>
<text text-anchor="start" x="53" y="-364.3" font-family="arial" font-size="14.00"> MISO </text>
<polygon fill="none" stroke="black" points="144,-356.5 144,-379.5 210,-379.5 210,-356.5 144,-356.5"/>
<text text-anchor="start" x="169" y="-364.3" font-family="arial" font-size="14.00"> 5 </text>
<polygon fill="none" stroke="black" points="6,-333.5 6,-356.5 144,-356.5 144,-333.5 6,-333.5"/>
<text text-anchor="start" x="53" y="-341.3" font-family="arial" font-size="14.00"> MOSI </text>
<polygon fill="none" stroke="black" points="144,-333.5 144,-356.5 210,-356.5 210,-333.5 144,-333.5"/>
<text text-anchor="start" x="169" y="-341.3" font-family="arial" font-size="14.00"> 6 </text>
<polygon fill="none" stroke="black" points="6,-310.5 6,-333.5 144,-333.5 144,-310.5 6,-310.5"/>
<text text-anchor="start" x="57" y="-318.3" font-family="arial" font-size="14.00"> SCK </text>
<polygon fill="none" stroke="black" points="144,-310.5 144,-333.5 210,-333.5 210,-310.5 144,-310.5"/>
<text text-anchor="start" x="169" y="-318.3" font-family="arial" font-size="14.00"> 7 </text>
<polygon fill="none" stroke="black" points="6,-287.5 6,-310.5 144,-310.5 144,-287.5 6,-287.5"/>
<text text-anchor="start" x="59.5" y="-295.3" font-family="arial" font-size="14.00"> N/C </text>
<polygon fill="none" stroke="black" points="144,-287.5 144,-310.5 210,-310.5 210,-287.5 144,-287.5"/>
<text text-anchor="start" x="169" y="-295.3" font-family="arial" font-size="14.00"> 8 </text>
</g>
<!-- W1 -->
<g id="node7" class="node">
<title>W1</title>
<polygon fill="#ffffff" stroke="black" points="659,-758.5 432,-758.5 432,-574.5 659,-574.5 659,-758.5"/>
<polygon fill="#ffffff" stroke="transparent" points="432,-574.5 432,-758.5 659,-758.5 659,-574.5 432,-574.5"/>
<polygon fill="#ffffff" stroke="transparent" points="432.5,-735.5 432.5,-758.5 659.5,-758.5 659.5,-735.5 432.5,-735.5"/>
<polygon fill="none" stroke="black" points="432.5,-735.5 432.5,-758.5 659.5,-758.5 659.5,-735.5 432.5,-735.5"/>
<text text-anchor="start" x="527.5" y="-744.3" font-family="arial" font-size="14.00"> </text>
<text text-anchor="start" x="531.5" y="-744.3" font-family="arial" font-weight="bold" font-size="14.00"> W1 </text>
<text text-anchor="start" x="560.5" y="-744.3" font-family="arial" font-size="14.00"> </text>
<polygon fill="none" stroke="black" points="432.5,-712.5 432.5,-735.5 462.5,-735.5 462.5,-712.5 432.5,-712.5"/>
<text text-anchor="start" x="436.5" y="-720.3" font-family="arial" font-size="14.00"> 4x </text>
<polygon fill="none" stroke="black" points="462.5,-712.5 462.5,-735.5 601.5,-735.5 601.5,-712.5 462.5,-712.5"/>
<text text-anchor="start" x="466.5" y="-720.3" font-family="arial" font-size="14.00"> 0.14 mm² (26 AWG) </text>
<polygon fill="none" stroke="black" points="601.5,-712.5 601.5,-735.5 659.5,-735.5 659.5,-712.5 601.5,-712.5"/>
<text text-anchor="start" x="605.5" y="-720.3" font-family="arial" font-size="14.00"> 0.20 m </text>
<text text-anchor="start" x="470" y="-699.3" font-family="arial" font-size="14.00"> </text>
<text text-anchor="start" x="434.5" y="-680.3" font-family="arial" font-size="14.00"> X1:1:GND </text>
<text text-anchor="start" x="516" y="-680.3" font-family="arial" font-size="14.00"> </text>
<text text-anchor="start" x="530" y="-680.3" font-family="arial" font-size="14.00"> 1:BK </text>
<text text-anchor="start" x="576.5" y="-680.3" font-family="arial" font-size="14.00"> </text>
<text text-anchor="start" x="590.5" y="-680.3" font-family="arial" font-size="14.00"> X2:1:GND</text>
<polygon fill="#000000" stroke="transparent" points="432.5,-672.5 432.5,-674.5 659.5,-674.5 659.5,-672.5 432.5,-672.5"/>
<polygon fill="#000000" stroke="transparent" points="432.5,-670.5 432.5,-672.5 659.5,-672.5 659.5,-670.5 432.5,-670.5"/>
<polygon fill="#000000" stroke="transparent" points="432.5,-668.5 432.5,-670.5 659.5,-670.5 659.5,-668.5 432.5,-668.5"/>
<text text-anchor="start" x="434.5" y="-655.3" font-family="arial" font-size="14.00"> X1:2:+5V </text>
<text text-anchor="start" x="516" y="-655.3" font-family="arial" font-size="14.00"> </text>
<text text-anchor="start" x="529" y="-655.3" font-family="arial" font-size="14.00"> 2:RD </text>
<text text-anchor="start" x="576.5" y="-655.3" font-family="arial" font-size="14.00"> </text>
<text text-anchor="start" x="596.5" y="-655.3" font-family="arial" font-size="14.00"> X2:2:+5V</text>
<polygon fill="#000000" stroke="transparent" points="432.5,-647.5 432.5,-649.5 659.5,-649.5 659.5,-647.5 432.5,-647.5"/>
<polygon fill="#ff0000" stroke="transparent" points="432.5,-645.5 432.5,-647.5 659.5,-647.5 659.5,-645.5 432.5,-645.5"/>
<polygon fill="#000000" stroke="transparent" points="432.5,-643.5 432.5,-645.5 659.5,-645.5 659.5,-643.5 432.5,-643.5"/>
<text text-anchor="start" x="434.5" y="-630.3" font-family="arial" font-size="14.00"> X1:3:SCL </text>
<text text-anchor="start" x="516" y="-630.3" font-family="arial" font-size="14.00"> </text>
<text text-anchor="start" x="530" y="-630.3" font-family="arial" font-size="14.00"> 3:YE </text>
<text text-anchor="start" x="576.5" y="-630.3" font-family="arial" font-size="14.00"> </text>
<text text-anchor="start" x="595.5" y="-630.3" font-family="arial" font-size="14.00"> X2:3:SCL</text>
<polygon fill="#000000" stroke="transparent" points="432.5,-622.5 432.5,-624.5 659.5,-624.5 659.5,-622.5 432.5,-622.5"/>
<polygon fill="#ffff00" stroke="transparent" points="432.5,-620.5 432.5,-622.5 659.5,-622.5 659.5,-620.5 432.5,-620.5"/>
<polygon fill="#000000" stroke="transparent" points="432.5,-618.5 432.5,-620.5 659.5,-620.5 659.5,-618.5 432.5,-618.5"/>
<text text-anchor="start" x="434.5" y="-605.3" font-family="arial" font-size="14.00"> X1:4:SDA </text>
<text text-anchor="start" x="516" y="-605.3" font-family="arial" font-size="14.00"> </text>
<text text-anchor="start" x="528.5" y="-605.3" font-family="arial" font-size="14.00"> 4:GN </text>
<text text-anchor="start" x="576.5" y="-605.3" font-family="arial" font-size="14.00"> </text>
<text text-anchor="start" x="593.5" y="-605.3" font-family="arial" font-size="14.00"> X2:4:SDA</text>
<polygon fill="#000000" stroke="transparent" points="432.5,-597.5 432.5,-599.5 659.5,-599.5 659.5,-597.5 432.5,-597.5"/>
<polygon fill="#00aa00" stroke="transparent" points="432.5,-595.5 432.5,-597.5 659.5,-597.5 659.5,-595.5 432.5,-595.5"/>
<polygon fill="#000000" stroke="transparent" points="432.5,-593.5 432.5,-595.5 659.5,-595.5 659.5,-593.5 432.5,-593.5"/>
<text text-anchor="start" x="470" y="-580.3" font-family="arial" font-size="14.00"> </text>
</g>
<!-- X1&#45;&#45;W1 -->
<g id="edge1" class="edge">
<title>X1:e&#45;&#45;W1:w</title>
<path fill="none" stroke="#000000" stroke-width="2" d="M211,-460.5C212.38,-459.05 433.38,-670.05 432,-671.5"/>
<path fill="none" stroke="#000000" stroke-width="2" d="M211,-460.5C211,-460.5 432,-671.5 432,-671.5"/>
<path fill="none" stroke="#000000" stroke-width="2" d="M211,-460.5C209.62,-461.95 430.62,-672.95 432,-671.5"/>
</g>
<!-- X1&#45;&#45;W1 -->
<g id="edge3" class="edge">
<title>X1:e&#45;&#45;W1:w</title>
<path fill="none" stroke="#000000" stroke-width="2" d="M211,-437.5C212.37,-436.05 433.37,-645.05 432,-646.5"/>
<path fill="none" stroke="#ff0000" stroke-width="2" d="M211,-437.5C211,-437.5 432,-646.5 432,-646.5"/>
<path fill="none" stroke="#000000" stroke-width="2" d="M211,-437.5C209.63,-438.95 430.63,-647.95 432,-646.5"/>
</g>
<!-- X1&#45;&#45;W1 -->
<g id="edge5" class="edge">
<title>X1:e&#45;&#45;W1:w</title>
<path fill="none" stroke="#000000" stroke-width="2" d="M211,-414.5C212.37,-413.04 433.37,-620.04 432,-621.5"/>
<path fill="none" stroke="#ffff00" stroke-width="2" d="M211,-414.5C211,-414.5 432,-621.5 432,-621.5"/>
<path fill="none" stroke="#000000" stroke-width="2" d="M211,-414.5C209.63,-415.96 430.63,-622.96 432,-621.5"/>
</g>
<!-- X1&#45;&#45;W1 -->
<g id="edge7" class="edge">
<title>X1:e&#45;&#45;W1:w</title>
<path fill="none" stroke="#000000" stroke-width="2" d="M211,-390.5C212.36,-389.04 433.36,-595.04 432,-596.5"/>
<path fill="none" stroke="#00aa00" stroke-width="2" d="M211,-390.5C211,-390.5 432,-596.5 432,-596.5"/>
<path fill="none" stroke="#000000" stroke-width="2" d="M211,-390.5C209.64,-391.96 430.64,-597.96 432,-596.5"/>
</g>
<!-- W2 -->
<g id="node8" class="node">
<title>W2</title>
<polygon fill="#ffffff" stroke="black" points="659,-550.5 432,-550.5 432,-366.5 659,-366.5 659,-550.5"/>
<polygon fill="#ffffff" stroke="transparent" points="432,-366.5 432,-550.5 659,-550.5 659,-366.5 432,-366.5"/>
<polygon fill="#ffffff" stroke="transparent" points="432.5,-527.5 432.5,-550.5 659.5,-550.5 659.5,-527.5 432.5,-527.5"/>
<polygon fill="none" stroke="black" points="432.5,-527.5 432.5,-550.5 659.5,-550.5 659.5,-527.5 432.5,-527.5"/>
<text text-anchor="start" x="527.5" y="-536.3" font-family="arial" font-size="14.00"> </text>
<text text-anchor="start" x="531.5" y="-536.3" font-family="arial" font-weight="bold" font-size="14.00"> W2 </text>
<text text-anchor="start" x="560.5" y="-536.3" font-family="arial" font-size="14.00"> </text>
<polygon fill="none" stroke="black" points="432.5,-504.5 432.5,-527.5 462.5,-527.5 462.5,-504.5 432.5,-504.5"/>
<text text-anchor="start" x="436.5" y="-512.3" font-family="arial" font-size="14.00"> 4x </text>
<polygon fill="none" stroke="black" points="462.5,-504.5 462.5,-527.5 601.5,-527.5 601.5,-504.5 462.5,-504.5"/>
<text text-anchor="start" x="466.5" y="-512.3" font-family="arial" font-size="14.00"> 0.14 mm² (26 AWG) </text>
<polygon fill="none" stroke="black" points="601.5,-504.5 601.5,-527.5 659.5,-527.5 659.5,-504.5 601.5,-504.5"/>
<text text-anchor="start" x="605.5" y="-512.3" font-family="arial" font-size="14.00"> 0.40 m </text>
<text text-anchor="start" x="470" y="-491.3" font-family="arial" font-size="14.00"> </text>
<text text-anchor="start" x="434.5" y="-472.3" font-family="arial" font-size="14.00"> X1:1:GND </text>
<text text-anchor="start" x="516" y="-472.3" font-family="arial" font-size="14.00"> </text>
<text text-anchor="start" x="530" y="-472.3" font-family="arial" font-size="14.00"> 1:BK </text>
<text text-anchor="start" x="576.5" y="-472.3" font-family="arial" font-size="14.00"> </text>
<text text-anchor="start" x="590.5" y="-472.3" font-family="arial" font-size="14.00"> X3:1:GND</text>
<polygon fill="#000000" stroke="transparent" points="432.5,-464.5 432.5,-466.5 659.5,-466.5 659.5,-464.5 432.5,-464.5"/>
<polygon fill="#000000" stroke="transparent" points="432.5,-462.5 432.5,-464.5 659.5,-464.5 659.5,-462.5 432.5,-462.5"/>
<polygon fill="#000000" stroke="transparent" points="432.5,-460.5 432.5,-462.5 659.5,-462.5 659.5,-460.5 432.5,-460.5"/>
<text text-anchor="start" x="434.5" y="-447.3" font-family="arial" font-size="14.00"> X1:2:+5V </text>
<text text-anchor="start" x="516" y="-447.3" font-family="arial" font-size="14.00"> </text>
<text text-anchor="start" x="529" y="-447.3" font-family="arial" font-size="14.00"> 2:RD </text>
<text text-anchor="start" x="576.5" y="-447.3" font-family="arial" font-size="14.00"> </text>
<text text-anchor="start" x="596.5" y="-447.3" font-family="arial" font-size="14.00"> X3:2:+5V</text>
<polygon fill="#000000" stroke="transparent" points="432.5,-439.5 432.5,-441.5 659.5,-441.5 659.5,-439.5 432.5,-439.5"/>
<polygon fill="#ff0000" stroke="transparent" points="432.5,-437.5 432.5,-439.5 659.5,-439.5 659.5,-437.5 432.5,-437.5"/>
<polygon fill="#000000" stroke="transparent" points="432.5,-435.5 432.5,-437.5 659.5,-437.5 659.5,-435.5 432.5,-435.5"/>
<text text-anchor="start" x="434.5" y="-422.3" font-family="arial" font-size="14.00"> X1:3:SCL </text>
<text text-anchor="start" x="516" y="-422.3" font-family="arial" font-size="14.00"> </text>
<text text-anchor="start" x="530" y="-422.3" font-family="arial" font-size="14.00"> 3:YE </text>
<text text-anchor="start" x="576.5" y="-422.3" font-family="arial" font-size="14.00"> </text>
<text text-anchor="start" x="595.5" y="-422.3" font-family="arial" font-size="14.00"> X3:3:SCL</text>
<polygon fill="#000000" stroke="transparent" points="432.5,-414.5 432.5,-416.5 659.5,-416.5 659.5,-414.5 432.5,-414.5"/>
<polygon fill="#ffff00" stroke="transparent" points="432.5,-412.5 432.5,-414.5 659.5,-414.5 659.5,-412.5 432.5,-412.5"/>
<polygon fill="#000000" stroke="transparent" points="432.5,-410.5 432.5,-412.5 659.5,-412.5 659.5,-410.5 432.5,-410.5"/>
<text text-anchor="start" x="434.5" y="-397.3" font-family="arial" font-size="14.00"> X1:4:SDA </text>
<text text-anchor="start" x="516" y="-397.3" font-family="arial" font-size="14.00"> </text>
<text text-anchor="start" x="528.5" y="-397.3" font-family="arial" font-size="14.00"> 4:GN </text>
<text text-anchor="start" x="576.5" y="-397.3" font-family="arial" font-size="14.00"> </text>
<text text-anchor="start" x="593.5" y="-397.3" font-family="arial" font-size="14.00"> X3:4:SDA</text>
<polygon fill="#000000" stroke="transparent" points="432.5,-389.5 432.5,-391.5 659.5,-391.5 659.5,-389.5 432.5,-389.5"/>
<polygon fill="#00aa00" stroke="transparent" points="432.5,-387.5 432.5,-389.5 659.5,-389.5 659.5,-387.5 432.5,-387.5"/>
<polygon fill="#000000" stroke="transparent" points="432.5,-385.5 432.5,-387.5 659.5,-387.5 659.5,-385.5 432.5,-385.5"/>
<text text-anchor="start" x="470" y="-372.3" font-family="arial" font-size="14.00"> </text>
</g>
<!-- X1&#45;&#45;W2 -->
<g id="edge9" class="edge">
<title>X1:e&#45;&#45;W2:w</title>
<path fill="none" stroke="#000000" stroke-width="2" d="M211,-460.5C211.03,-458.5 432.03,-461.5 432,-463.5"/>
<path fill="none" stroke="#000000" stroke-width="2" d="M211,-460.5C211,-460.5 432,-463.5 432,-463.5"/>
<path fill="none" stroke="#000000" stroke-width="2" d="M211,-460.5C210.97,-462.5 431.97,-465.5 432,-463.5"/>
</g>
<!-- X1&#45;&#45;W2 -->
<g id="edge11" class="edge">
<title>X1:e&#45;&#45;W2:w</title>
<path fill="none" stroke="#000000" stroke-width="2" d="M211,-437.5C211.01,-435.5 432.01,-436.5 432,-438.5"/>
<path fill="none" stroke="#ff0000" stroke-width="2" d="M211,-437.5C211,-437.5 432,-438.5 432,-438.5"/>
<path fill="none" stroke="#000000" stroke-width="2" d="M211,-437.5C210.99,-439.5 431.99,-440.5 432,-438.5"/>
</g>
<!-- X1&#45;&#45;W2 -->
<g id="edge13" class="edge">
<title>X1:e&#45;&#45;W2:w</title>
<path fill="none" stroke="#000000" stroke-width="2" d="M211,-414.5C210.99,-412.5 431.99,-411.5 432,-413.5"/>
<path fill="none" stroke="#ffff00" stroke-width="2" d="M211,-414.5C211,-414.5 432,-413.5 432,-413.5"/>
<path fill="none" stroke="#000000" stroke-width="2" d="M211,-414.5C211.01,-416.5 432.01,-415.5 432,-413.5"/>
</g>
<!-- X1&#45;&#45;W2 -->
<g id="edge15" class="edge">
<title>X1:e&#45;&#45;W2:w</title>
<path fill="none" stroke="#000000" stroke-width="2" d="M211,-390.5C210.98,-388.5 431.98,-386.5 432,-388.5"/>
<path fill="none" stroke="#00aa00" stroke-width="2" d="M211,-390.5C211,-390.5 432,-388.5 432,-388.5"/>
<path fill="none" stroke="#000000" stroke-width="2" d="M211,-390.5C211.02,-392.5 432.02,-390.5 432,-388.5"/>
</g>
<!-- W3 -->
<g id="node9" class="node">
<title>W3</title>
<polygon fill="#ffffff" stroke="black" points="659,-342.5 432,-342.5 432,-158.5 659,-158.5 659,-342.5"/>
<polygon fill="#ffffff" stroke="transparent" points="432,-158.5 432,-342.5 659,-342.5 659,-158.5 432,-158.5"/>
<polygon fill="#ffffff" stroke="transparent" points="432.5,-319.5 432.5,-342.5 659.5,-342.5 659.5,-319.5 432.5,-319.5"/>
<polygon fill="none" stroke="black" points="432.5,-319.5 432.5,-342.5 659.5,-342.5 659.5,-319.5 432.5,-319.5"/>
<text text-anchor="start" x="527.5" y="-328.3" font-family="arial" font-size="14.00"> </text>
<text text-anchor="start" x="531.5" y="-328.3" font-family="arial" font-weight="bold" font-size="14.00"> W3 </text>
<text text-anchor="start" x="560.5" y="-328.3" font-family="arial" font-size="14.00"> </text>
<polygon fill="none" stroke="black" points="432.5,-296.5 432.5,-319.5 462.5,-319.5 462.5,-296.5 432.5,-296.5"/>
<text text-anchor="start" x="436.5" y="-304.3" font-family="arial" font-size="14.00"> 4x </text>
<polygon fill="none" stroke="black" points="462.5,-296.5 462.5,-319.5 601.5,-319.5 601.5,-296.5 462.5,-296.5"/>
<text text-anchor="start" x="466.5" y="-304.3" font-family="arial" font-size="14.00"> 0.14 mm² (26 AWG) </text>
<polygon fill="none" stroke="black" points="601.5,-296.5 601.5,-319.5 659.5,-319.5 659.5,-296.5 601.5,-296.5"/>
<text text-anchor="start" x="605.5" y="-304.3" font-family="arial" font-size="14.00"> 0.30 m </text>
<text text-anchor="start" x="471.5" y="-283.3" font-family="arial" font-size="14.00"> </text>
<text text-anchor="start" x="434.5" y="-264.3" font-family="arial" font-size="14.00"> X1:1:GND </text>
<text text-anchor="start" x="517.5" y="-264.3" font-family="arial" font-size="14.00"> </text>
<text text-anchor="start" x="530" y="-264.3" font-family="arial" font-size="14.00"> 1:BK </text>
<text text-anchor="start" x="575.5" y="-264.3" font-family="arial" font-size="14.00"> </text>
<text text-anchor="start" x="590.5" y="-264.3" font-family="arial" font-size="14.00"> X4:1:GND</text>
<polygon fill="#000000" stroke="transparent" points="432.5,-256.5 432.5,-258.5 659.5,-258.5 659.5,-256.5 432.5,-256.5"/>
<polygon fill="#000000" stroke="transparent" points="432.5,-254.5 432.5,-256.5 659.5,-256.5 659.5,-254.5 432.5,-254.5"/>
<polygon fill="#000000" stroke="transparent" points="432.5,-252.5 432.5,-254.5 659.5,-254.5 659.5,-252.5 432.5,-252.5"/>
<text text-anchor="start" x="434.5" y="-239.3" font-family="arial" font-size="14.00"> X1:5:MISO </text>
<text text-anchor="start" x="517.5" y="-239.3" font-family="arial" font-size="14.00"> </text>
<text text-anchor="start" x="529.5" y="-239.3" font-family="arial" font-size="14.00"> 2:BU </text>
<text text-anchor="start" x="575.5" y="-239.3" font-family="arial" font-size="14.00"> </text>
<text text-anchor="start" x="585.5" y="-239.3" font-family="arial" font-size="14.00"> X4:3:MISO</text>
<polygon fill="#000000" stroke="transparent" points="432.5,-231.5 432.5,-233.5 659.5,-233.5 659.5,-231.5 432.5,-231.5"/>
<polygon fill="#0066ff" stroke="transparent" points="432.5,-229.5 432.5,-231.5 659.5,-231.5 659.5,-229.5 432.5,-229.5"/>
<polygon fill="#000000" stroke="transparent" points="432.5,-227.5 432.5,-229.5 659.5,-229.5 659.5,-227.5 432.5,-227.5"/>
<text text-anchor="start" x="434.5" y="-214.3" font-family="arial" font-size="14.00"> X1:6:MOSI </text>
<text text-anchor="start" x="517.5" y="-214.3" font-family="arial" font-size="14.00"> </text>
<text text-anchor="start" x="527.5" y="-214.3" font-family="arial" font-size="14.00"> 3:OG </text>
<text text-anchor="start" x="575.5" y="-214.3" font-family="arial" font-size="14.00"> </text>
<text text-anchor="start" x="585.5" y="-214.3" font-family="arial" font-size="14.00"> X4:4:MOSI</text>
<polygon fill="#000000" stroke="transparent" points="432.5,-206.5 432.5,-208.5 659.5,-208.5 659.5,-206.5 432.5,-206.5"/>
<polygon fill="#ff8000" stroke="transparent" points="432.5,-204.5 432.5,-206.5 659.5,-206.5 659.5,-204.5 432.5,-204.5"/>
<polygon fill="#000000" stroke="transparent" points="432.5,-202.5 432.5,-204.5 659.5,-204.5 659.5,-202.5 432.5,-202.5"/>
<text text-anchor="start" x="434.5" y="-189.3" font-family="arial" font-size="14.00"> X1:7:SCK </text>
<text text-anchor="start" x="517.5" y="-189.3" font-family="arial" font-size="14.00"> </text>
<text text-anchor="start" x="530" y="-189.3" font-family="arial" font-size="14.00"> 4:VT </text>
<text text-anchor="start" x="575.5" y="-189.3" font-family="arial" font-size="14.00"> </text>
<text text-anchor="start" x="593.5" y="-189.3" font-family="arial" font-size="14.00"> X4:5:SCK</text>
<polygon fill="#000000" stroke="transparent" points="432.5,-181.5 432.5,-183.5 659.5,-183.5 659.5,-181.5 432.5,-181.5"/>
<polygon fill="#8000ff" stroke="transparent" points="432.5,-179.5 432.5,-181.5 659.5,-181.5 659.5,-179.5 432.5,-179.5"/>
<polygon fill="#000000" stroke="transparent" points="432.5,-177.5 432.5,-179.5 659.5,-179.5 659.5,-177.5 432.5,-177.5"/>
<text text-anchor="start" x="471.5" y="-164.3" font-family="arial" font-size="14.00"> </text>
</g>
<!-- X1&#45;&#45;W3 -->
<g id="edge17" class="edge">
<title>X1:e&#45;&#45;W3:w</title>
<path fill="none" stroke="#000000" stroke-width="2" d="M211,-460.5C209.64,-459.03 430.64,-254.03 432,-255.5"/>
<path fill="none" stroke="#000000" stroke-width="2" d="M211,-460.5C211,-460.5 432,-255.5 432,-255.5"/>
<path fill="none" stroke="#000000" stroke-width="2" d="M211,-460.5C212.36,-461.97 433.36,-256.97 432,-255.5"/>
</g>
<!-- X1&#45;&#45;W3 -->
<g id="edge19" class="edge">
<title>X1:e&#45;&#45;W3:w</title>
<path fill="none" stroke="#000000" stroke-width="2" d="M211,-367.5C209.95,-365.8 430.95,-228.8 432,-230.5"/>
<path fill="none" stroke="#0066ff" stroke-width="2" d="M211,-367.5C211,-367.5 432,-230.5 432,-230.5"/>
<path fill="none" stroke="#000000" stroke-width="2" d="M211,-367.5C212.05,-369.2 433.05,-232.2 432,-230.5"/>
</g>
<!-- X1&#45;&#45;W3 -->
<g id="edge21" class="edge">
<title>X1:e&#45;&#45;W3:w</title>
<path fill="none" stroke="#000000" stroke-width="2" d="M211,-344.5C209.94,-342.81 430.94,-203.81 432,-205.5"/>
<path fill="none" stroke="#ff8000" stroke-width="2" d="M211,-344.5C211,-344.5 432,-205.5 432,-205.5"/>
<path fill="none" stroke="#000000" stroke-width="2" d="M211,-344.5C212.06,-346.19 433.06,-207.19 432,-205.5"/>
</g>
<!-- X1&#45;&#45;W3 -->
<g id="edge23" class="edge">
<title>X1:e&#45;&#45;W3:w</title>
<path fill="none" stroke="#000000" stroke-width="2" d="M211,-321.5C209.92,-319.81 430.92,-178.81 432,-180.5"/>
<path fill="none" stroke="#8000ff" stroke-width="2" d="M211,-321.5C211,-321.5 432,-180.5 432,-180.5"/>
<path fill="none" stroke="#000000" stroke-width="2" d="M211,-321.5C212.08,-323.19 433.08,-182.19 432,-180.5"/>
</g>
<!-- X2 -->
<g id="node2" class="node">
<title>X2</title>
<polygon fill="#ffffff" stroke="black" points="1079,-726.5 875,-726.5 875,-588.5 1079,-588.5 1079,-726.5"/>
<polygon fill="#ffffff" stroke="transparent" points="875,-588.5 875,-726.5 1079,-726.5 1079,-588.5 875,-588.5"/>
<polygon fill="#ffffff" stroke="transparent" points="875,-703.5 875,-726.5 1079,-726.5 1079,-703.5 875,-703.5"/>
<polygon fill="none" stroke="black" points="875,-703.5 875,-726.5 1079,-726.5 1079,-703.5 875,-703.5"/>
<text text-anchor="start" x="960.5" y="-712.3" font-family="arial" font-size="14.00"> </text>
<text text-anchor="start" x="964.5" y="-712.3" font-family="arial" font-weight="bold" font-size="14.00"> X2 </text>
<text text-anchor="start" x="989.5" y="-712.3" font-family="arial" font-size="14.00"> </text>
<polygon fill="none" stroke="black" points="875,-680.5 875,-703.5 976,-703.5 976,-680.5 875,-680.5"/>
<text text-anchor="start" x="879" y="-688.3" font-family="arial" font-size="14.00"> Molex KK 254 </text>
<polygon fill="none" stroke="black" points="976,-680.5 976,-703.5 1033,-703.5 1033,-680.5 976,-680.5"/>
<text text-anchor="start" x="980" y="-688.3" font-family="arial" font-size="14.00"> female </text>
<polygon fill="none" stroke="black" points="1033,-680.5 1033,-703.5 1079,-703.5 1079,-680.5 1033,-680.5"/>
<text text-anchor="start" x="1037" y="-688.3" font-family="arial" font-size="14.00"> 4&#45;pin </text>
<polygon fill="none" stroke="black" points="875,-657.5 875,-680.5 944,-680.5 944,-657.5 875,-657.5"/>
<text text-anchor="start" x="901.5" y="-665.3" font-family="arial" font-size="14.00"> 1 </text>
<polygon fill="none" stroke="black" points="944,-657.5 944,-680.5 1079,-680.5 1079,-657.5 944,-657.5"/>
<text text-anchor="start" x="992" y="-665.3" font-family="arial" font-size="14.00"> GND </text>
<polygon fill="none" stroke="black" points="875,-634.5 875,-657.5 944,-657.5 944,-634.5 875,-634.5"/>
<text text-anchor="start" x="901.5" y="-642.3" font-family="arial" font-size="14.00"> 2 </text>
<polygon fill="none" stroke="black" points="944,-634.5 944,-657.5 1079,-657.5 1079,-634.5 944,-634.5"/>
<text text-anchor="start" x="995" y="-642.3" font-family="arial" font-size="14.00"> +5V </text>
<polygon fill="none" stroke="black" points="875,-611.5 875,-634.5 944,-634.5 944,-611.5 875,-611.5"/>
<text text-anchor="start" x="901.5" y="-619.3" font-family="arial" font-size="14.00"> 3 </text>
<polygon fill="none" stroke="black" points="944,-611.5 944,-634.5 1079,-634.5 1079,-611.5 944,-611.5"/>
<text text-anchor="start" x="994.5" y="-619.3" font-family="arial" font-size="14.00"> SCL </text>
<polygon fill="none" stroke="black" points="875,-588.5 875,-611.5 944,-611.5 944,-588.5 875,-588.5"/>
<text text-anchor="start" x="901.5" y="-596.3" font-family="arial" font-size="14.00"> 4 </text>
<polygon fill="none" stroke="black" points="944,-588.5 944,-611.5 1079,-611.5 1079,-588.5 944,-588.5"/>
<text text-anchor="start" x="994" y="-596.3" font-family="arial" font-size="14.00"> SDA </text>
</g>
<!-- X3 -->
<g id="node3" class="node">
<title>X3</title>
<polygon fill="#ffffff" stroke="black" points="1079,-518.5 875,-518.5 875,-380.5 1079,-380.5 1079,-518.5"/>
<polygon fill="#ffffff" stroke="transparent" points="875,-380.5 875,-518.5 1079,-518.5 1079,-380.5 875,-380.5"/>
<polygon fill="#ffffff" stroke="transparent" points="875,-495.5 875,-518.5 1079,-518.5 1079,-495.5 875,-495.5"/>
<polygon fill="none" stroke="black" points="875,-495.5 875,-518.5 1079,-518.5 1079,-495.5 875,-495.5"/>
<text text-anchor="start" x="960.5" y="-504.3" font-family="arial" font-size="14.00"> </text>
<text text-anchor="start" x="964.5" y="-504.3" font-family="arial" font-weight="bold" font-size="14.00"> X3 </text>
<text text-anchor="start" x="989.5" y="-504.3" font-family="arial" font-size="14.00"> </text>
<polygon fill="none" stroke="black" points="875,-472.5 875,-495.5 976,-495.5 976,-472.5 875,-472.5"/>
<text text-anchor="start" x="879" y="-480.3" font-family="arial" font-size="14.00"> Molex KK 254 </text>
<polygon fill="none" stroke="black" points="976,-472.5 976,-495.5 1033,-495.5 1033,-472.5 976,-472.5"/>
<text text-anchor="start" x="980" y="-480.3" font-family="arial" font-size="14.00"> female </text>
<polygon fill="none" stroke="black" points="1033,-472.5 1033,-495.5 1079,-495.5 1079,-472.5 1033,-472.5"/>
<text text-anchor="start" x="1037" y="-480.3" font-family="arial" font-size="14.00"> 4&#45;pin </text>
<polygon fill="none" stroke="black" points="875,-449.5 875,-472.5 944,-472.5 944,-449.5 875,-449.5"/>
<text text-anchor="start" x="901.5" y="-457.3" font-family="arial" font-size="14.00"> 1 </text>
<polygon fill="none" stroke="black" points="944,-449.5 944,-472.5 1079,-472.5 1079,-449.5 944,-449.5"/>
<text text-anchor="start" x="992" y="-457.3" font-family="arial" font-size="14.00"> GND </text>
<polygon fill="none" stroke="black" points="875,-426.5 875,-449.5 944,-449.5 944,-426.5 875,-426.5"/>
<text text-anchor="start" x="901.5" y="-434.3" font-family="arial" font-size="14.00"> 2 </text>
<polygon fill="none" stroke="black" points="944,-426.5 944,-449.5 1079,-449.5 1079,-426.5 944,-426.5"/>
<text text-anchor="start" x="995" y="-434.3" font-family="arial" font-size="14.00"> +5V </text>
<polygon fill="none" stroke="black" points="875,-403.5 875,-426.5 944,-426.5 944,-403.5 875,-403.5"/>
<text text-anchor="start" x="901.5" y="-411.3" font-family="arial" font-size="14.00"> 3 </text>
<polygon fill="none" stroke="black" points="944,-403.5 944,-426.5 1079,-426.5 1079,-403.5 944,-403.5"/>
<text text-anchor="start" x="994.5" y="-411.3" font-family="arial" font-size="14.00"> SCL </text>
<polygon fill="none" stroke="black" points="875,-380.5 875,-403.5 944,-403.5 944,-380.5 875,-380.5"/>
<text text-anchor="start" x="901.5" y="-388.3" font-family="arial" font-size="14.00"> 4 </text>
<polygon fill="none" stroke="black" points="944,-380.5 944,-403.5 1079,-403.5 1079,-380.5 944,-380.5"/>
<text text-anchor="start" x="994" y="-388.3" font-family="arial" font-size="14.00"> SDA </text>
</g>
<!-- X4 -->
<g id="node4" class="node">
<title>X4</title>
<polygon fill="#ffffff" stroke="black" points="1079,-322 875,-322 875,-161 1079,-161 1079,-322"/>
<polygon fill="#ffffff" stroke="transparent" points="875,-161 875,-322 1079,-322 1079,-161 875,-161"/>
<polygon fill="#ffffff" stroke="transparent" points="875,-298.5 875,-321.5 1079,-321.5 1079,-298.5 875,-298.5"/>
<polygon fill="none" stroke="black" points="875,-298.5 875,-321.5 1079,-321.5 1079,-298.5 875,-298.5"/>
<text text-anchor="start" x="960.5" y="-307.3" font-family="arial" font-size="14.00"> </text>
<text text-anchor="start" x="964.5" y="-307.3" font-family="arial" font-weight="bold" font-size="14.00"> X4 </text>
<text text-anchor="start" x="989.5" y="-307.3" font-family="arial" font-size="14.00"> </text>
<polygon fill="none" stroke="black" points="875,-275.5 875,-298.5 976,-298.5 976,-275.5 875,-275.5"/>
<text text-anchor="start" x="879" y="-283.3" font-family="arial" font-size="14.00"> Molex KK 254 </text>
<polygon fill="none" stroke="black" points="976,-275.5 976,-298.5 1033,-298.5 1033,-275.5 976,-275.5"/>
<text text-anchor="start" x="980" y="-283.3" font-family="arial" font-size="14.00"> female </text>
<polygon fill="none" stroke="black" points="1033,-275.5 1033,-298.5 1079,-298.5 1079,-275.5 1033,-275.5"/>
<text text-anchor="start" x="1037" y="-283.3" font-family="arial" font-size="14.00"> 5&#45;pin </text>
<polygon fill="none" stroke="black" points="875,-252.5 875,-275.5 942,-275.5 942,-252.5 875,-252.5"/>
<text text-anchor="start" x="900.5" y="-260.3" font-family="arial" font-size="14.00"> 1 </text>
<polygon fill="none" stroke="black" points="942,-252.5 942,-275.5 1079,-275.5 1079,-252.5 942,-252.5"/>
<text text-anchor="start" x="991" y="-260.3" font-family="arial" font-size="14.00"> GND </text>
<polygon fill="none" stroke="black" points="875,-229.5 875,-252.5 942,-252.5 942,-229.5 875,-229.5"/>
<text text-anchor="start" x="900.5" y="-237.3" font-family="arial" font-size="14.00"> 2 </text>
<polygon fill="none" stroke="black" points="942,-229.5 942,-252.5 1079,-252.5 1079,-229.5 942,-229.5"/>
<text text-anchor="start" x="990.5" y="-237.3" font-family="arial" font-size="14.00"> +12V </text>
<polygon fill="none" stroke="black" points="875,-206.5 875,-229.5 942,-229.5 942,-206.5 875,-206.5"/>
<text text-anchor="start" x="900.5" y="-214.3" font-family="arial" font-size="14.00"> 3 </text>
<polygon fill="none" stroke="black" points="942,-206.5 942,-229.5 1079,-229.5 1079,-206.5 942,-206.5"/>
<text text-anchor="start" x="988.5" y="-214.3" font-family="arial" font-size="14.00"> MISO </text>
<polygon fill="none" stroke="black" points="875,-183.5 875,-206.5 942,-206.5 942,-183.5 875,-183.5"/>
<text text-anchor="start" x="900.5" y="-191.3" font-family="arial" font-size="14.00"> 4 </text>
<polygon fill="none" stroke="black" points="942,-183.5 942,-206.5 1079,-206.5 1079,-183.5 942,-183.5"/>
<text text-anchor="start" x="988.5" y="-191.3" font-family="arial" font-size="14.00"> MOSI </text>
<polygon fill="none" stroke="black" points="875,-160.5 875,-183.5 942,-183.5 942,-160.5 875,-160.5"/>
<text text-anchor="start" x="900.5" y="-168.3" font-family="arial" font-size="14.00"> 5 </text>
<polygon fill="none" stroke="black" points="942,-160.5 942,-183.5 1079,-183.5 1079,-160.5 942,-160.5"/>
<text text-anchor="start" x="992.5" y="-168.3" font-family="arial" font-size="14.00"> SCK </text>
</g>
<!-- AUTOGENERATED_F_1 -->
<g id="node5" class="node">
<title>AUTOGENERATED_F_1</title>
<polygon fill="#ffffff" stroke="black" points="216,-70 0,-70 0,-47 216,-47 216,-70"/>
<polygon fill="#ffffff" stroke="transparent" points="0,-47 0,-70 216,-70 216,-47 0,-47"/>
<polygon fill="none" stroke="black" points="0,-46.5 0,-69.5 95,-69.5 95,-46.5 0,-46.5"/>
<text text-anchor="start" x="4" y="-54.3" font-family="arial" font-size="14.00"> Crimp ferrule </text>
<polygon fill="none" stroke="black" points="95,-46.5 95,-69.5 170,-69.5 170,-46.5 95,-46.5"/>
<text text-anchor="start" x="99" y="-54.3" font-family="arial" font-size="14.00"> 0.25 mm² </text>
<polygon fill="none" stroke="black" points="170,-46.5 170,-69.5 204,-69.5 204,-46.5 170,-46.5"/>
<text text-anchor="start" x="174" y="-54.3" font-family="arial" font-size="14.00"> YE </text>
<polygon fill="#ffff00" stroke="transparent" points="204,-46.5 204,-69.5 216,-69.5 216,-46.5 204,-46.5"/>
<polygon fill="none" stroke="black" points="204,-46.5 204,-69.5 216,-69.5 216,-46.5 204,-46.5"/>
<text text-anchor="start" x="208" y="-54.3" font-family="arial" font-size="14.00"> </text>
</g>
<!-- W4 -->
<g id="node10" class="node">
<title>W4</title>
<polygon fill="#ffffff" stroke="black" points="659,-134.5 432,-134.5 432,-0.5 659,-0.5 659,-134.5"/>
<polygon fill="#ffffff" stroke="transparent" points="432,-0.5 432,-134.5 659,-134.5 659,-0.5 432,-0.5"/>
<polygon fill="#ffffff" stroke="transparent" points="432.5,-111.5 432.5,-134.5 659.5,-134.5 659.5,-111.5 432.5,-111.5"/>
<polygon fill="none" stroke="black" points="432.5,-111.5 432.5,-134.5 659.5,-134.5 659.5,-111.5 432.5,-111.5"/>
<text text-anchor="start" x="527.5" y="-120.3" font-family="arial" font-size="14.00"> </text>
<text text-anchor="start" x="531.5" y="-120.3" font-family="arial" font-weight="bold" font-size="14.00"> W4 </text>
<text text-anchor="start" x="560.5" y="-120.3" font-family="arial" font-size="14.00"> </text>
<polygon fill="none" stroke="black" points="432.5,-88.5 432.5,-111.5 462.5,-111.5 462.5,-88.5 432.5,-88.5"/>
<text text-anchor="start" x="436.5" y="-96.3" font-family="arial" font-size="14.00"> 2x </text>
<polygon fill="none" stroke="black" points="462.5,-88.5 462.5,-111.5 601.5,-111.5 601.5,-88.5 462.5,-88.5"/>
<text text-anchor="start" x="466.5" y="-96.3" font-family="arial" font-size="14.00"> 0.25 mm² (24 AWG) </text>
<polygon fill="none" stroke="black" points="601.5,-88.5 601.5,-111.5 659.5,-111.5 659.5,-88.5 601.5,-88.5"/>
<text text-anchor="start" x="605.5" y="-96.3" font-family="arial" font-size="14.00"> 0.30 m </text>
<text text-anchor="start" x="445" y="-75.3" font-family="arial" font-size="14.00"> </text>
<text text-anchor="start" x="434.5" y="-56.3" font-family="arial" font-size="14.00"> &#160;</text>
<text text-anchor="start" x="472" y="-56.3" font-family="arial" font-size="14.00"> </text>
<text text-anchor="start" x="498" y="-56.3" font-family="arial" font-size="14.00"> 1:BK </text>
<text text-anchor="start" x="557" y="-56.3" font-family="arial" font-size="14.00"> </text>
<text text-anchor="start" x="590.5" y="-56.3" font-family="arial" font-size="14.00"> X4:1:GND</text>
<polygon fill="#000000" stroke="transparent" points="432.5,-48.5 432.5,-50.5 659.5,-50.5 659.5,-48.5 432.5,-48.5"/>
<polygon fill="#000000" stroke="transparent" points="432.5,-46.5 432.5,-48.5 659.5,-48.5 659.5,-46.5 432.5,-46.5"/>
<polygon fill="#000000" stroke="transparent" points="432.5,-44.5 432.5,-46.5 659.5,-46.5 659.5,-44.5 432.5,-44.5"/>
<text text-anchor="start" x="434.5" y="-31.3" font-family="arial" font-size="14.00"> &#160;</text>
<text text-anchor="start" x="472" y="-31.3" font-family="arial" font-size="14.00"> </text>
<text text-anchor="start" x="497" y="-31.3" font-family="arial" font-size="14.00"> 2:RD </text>
<text text-anchor="start" x="557" y="-31.3" font-family="arial" font-size="14.00"> </text>
<text text-anchor="start" x="589.5" y="-31.3" font-family="arial" font-size="14.00"> X4:2:+12V</text>
<polygon fill="#000000" stroke="transparent" points="432.5,-23.5 432.5,-25.5 659.5,-25.5 659.5,-23.5 432.5,-23.5"/>
<polygon fill="#ff0000" stroke="transparent" points="432.5,-21.5 432.5,-23.5 659.5,-23.5 659.5,-21.5 432.5,-21.5"/>
<polygon fill="#000000" stroke="transparent" points="432.5,-19.5 432.5,-21.5 659.5,-21.5 659.5,-19.5 432.5,-19.5"/>
<text text-anchor="start" x="445" y="-6.3" font-family="arial" font-size="14.00"> </text>
</g>
<!-- AUTOGENERATED_F_1&#45;&#45;W4 -->
<g id="edge25" class="edge">
<title>AUTOGENERATED_F_1:e&#45;&#45;W4:w</title>
<path fill="none" stroke="#000000" stroke-width="2" d="M216,-58.5C215.9,-56.5 431.9,-45.5 432,-47.5"/>
<path fill="none" stroke="#000000" stroke-width="2" d="M216,-58.5C216,-58.5 432,-47.5 432,-47.5"/>
<path fill="none" stroke="#000000" stroke-width="2" d="M216,-58.5C216.1,-60.5 432.1,-49.5 432,-47.5"/>
</g>
<!-- AUTOGENERATED_F_2 -->
<g id="node6" class="node">
<title>AUTOGENERATED_F_2</title>
<polygon fill="#ffffff" stroke="black" points="216,-23 0,-23 0,0 216,0 216,-23"/>
<polygon fill="#ffffff" stroke="transparent" points="0,0 0,-23 216,-23 216,0 0,0"/>
<polygon fill="none" stroke="black" points="0,0.5 0,-22.5 95,-22.5 95,0.5 0,0.5"/>
<text text-anchor="start" x="4" y="-7.3" font-family="arial" font-size="14.00"> Crimp ferrule </text>
<polygon fill="none" stroke="black" points="95,0.5 95,-22.5 170,-22.5 170,0.5 95,0.5"/>
<text text-anchor="start" x="99" y="-7.3" font-family="arial" font-size="14.00"> 0.25 mm² </text>
<polygon fill="none" stroke="black" points="170,0.5 170,-22.5 204,-22.5 204,0.5 170,0.5"/>
<text text-anchor="start" x="174" y="-7.3" font-family="arial" font-size="14.00"> YE </text>
<polygon fill="#ffff00" stroke="transparent" points="204,0.5 204,-22.5 216,-22.5 216,0.5 204,0.5"/>
<polygon fill="none" stroke="black" points="204,0.5 204,-22.5 216,-22.5 216,0.5 204,0.5"/>
<text text-anchor="start" x="208" y="-7.3" font-family="arial" font-size="14.00"> </text>
</g>
<!-- AUTOGENERATED_F_2&#45;&#45;W4 -->
<g id="edge27" class="edge">
<title>AUTOGENERATED_F_2:e&#45;&#45;W4:w</title>
<path fill="none" stroke="#000000" stroke-width="2" d="M216,-11.5C216.1,-9.5 432.1,-20.5 432,-22.5"/>
<path fill="none" stroke="#ff0000" stroke-width="2" d="M216,-11.5C216,-11.5 432,-22.5 432,-22.5"/>
<path fill="none" stroke="#000000" stroke-width="2" d="M216,-11.5C215.9,-13.5 431.9,-24.5 432,-22.5"/>
</g>
<!-- W1&#45;&#45;X2 -->
<g id="edge2" class="edge">
<title>W1:e&#45;&#45;X2:w</title>
<path fill="none" stroke="#000000" stroke-width="2" d="M659,-671.5C658.98,-669.5 874.98,-667.5 875,-669.5"/>
<path fill="none" stroke="#000000" stroke-width="2" d="M659,-671.5C659,-671.5 875,-669.5 875,-669.5"/>
<path fill="none" stroke="#000000" stroke-width="2" d="M659,-671.5C659.02,-673.5 875.02,-671.5 875,-669.5"/>
</g>
<!-- W1&#45;&#45;X2 -->
<g id="edge4" class="edge">
<title>W1:e&#45;&#45;X2:w</title>
<path fill="none" stroke="#000000" stroke-width="2" d="M659,-646.5C658.99,-644.5 874.99,-643.5 875,-645.5"/>
<path fill="none" stroke="#ff0000" stroke-width="2" d="M659,-646.5C659,-646.5 875,-645.5 875,-645.5"/>
<path fill="none" stroke="#000000" stroke-width="2" d="M659,-646.5C659.01,-648.5 875.01,-647.5 875,-645.5"/>
</g>
<!-- W1&#45;&#45;X2 -->
<g id="edge6" class="edge">
<title>W1:e&#45;&#45;X2:w</title>
<path fill="none" stroke="#000000" stroke-width="2" d="M659,-621.5C659.01,-619.5 875.01,-620.5 875,-622.5"/>
<path fill="none" stroke="#ffff00" stroke-width="2" d="M659,-621.5C659,-621.5 875,-622.5 875,-622.5"/>
<path fill="none" stroke="#000000" stroke-width="2" d="M659,-621.5C658.99,-623.5 874.99,-624.5 875,-622.5"/>
</g>
<!-- W1&#45;&#45;X2 -->
<g id="edge8" class="edge">
<title>W1:e&#45;&#45;X2:w</title>
<path fill="none" stroke="#000000" stroke-width="2" d="M659,-596.5C659.03,-594.5 875.03,-597.5 875,-599.5"/>
<path fill="none" stroke="#00aa00" stroke-width="2" d="M659,-596.5C659,-596.5 875,-599.5 875,-599.5"/>
<path fill="none" stroke="#000000" stroke-width="2" d="M659,-596.5C658.97,-598.5 874.97,-601.5 875,-599.5"/>
</g>
<!-- W2&#45;&#45;X3 -->
<g id="edge10" class="edge">
<title>W2:e&#45;&#45;X3:w</title>
<path fill="none" stroke="#000000" stroke-width="2" d="M659,-463.5C658.98,-461.5 874.98,-459.5 875,-461.5"/>
<path fill="none" stroke="#000000" stroke-width="2" d="M659,-463.5C659,-463.5 875,-461.5 875,-461.5"/>
<path fill="none" stroke="#000000" stroke-width="2" d="M659,-463.5C659.02,-465.5 875.02,-463.5 875,-461.5"/>
</g>
<!-- W2&#45;&#45;X3 -->
<g id="edge12" class="edge">
<title>W2:e&#45;&#45;X3:w</title>
<path fill="none" stroke="#000000" stroke-width="2" d="M659,-438.5C658.99,-436.5 874.99,-435.5 875,-437.5"/>
<path fill="none" stroke="#ff0000" stroke-width="2" d="M659,-438.5C659,-438.5 875,-437.5 875,-437.5"/>
<path fill="none" stroke="#000000" stroke-width="2" d="M659,-438.5C659.01,-440.5 875.01,-439.5 875,-437.5"/>
</g>
<!-- W2&#45;&#45;X3 -->
<g id="edge14" class="edge">
<title>W2:e&#45;&#45;X3:w</title>
<path fill="none" stroke="#000000" stroke-width="2" d="M659,-413.5C659.01,-411.5 875.01,-412.5 875,-414.5"/>
<path fill="none" stroke="#ffff00" stroke-width="2" d="M659,-413.5C659,-413.5 875,-414.5 875,-414.5"/>
<path fill="none" stroke="#000000" stroke-width="2" d="M659,-413.5C658.99,-415.5 874.99,-416.5 875,-414.5"/>
</g>
<!-- W2&#45;&#45;X3 -->
<g id="edge16" class="edge">
<title>W2:e&#45;&#45;X3:w</title>
<path fill="none" stroke="#000000" stroke-width="2" d="M659,-388.5C659.03,-386.5 875.03,-389.5 875,-391.5"/>
<path fill="none" stroke="#00aa00" stroke-width="2" d="M659,-388.5C659,-388.5 875,-391.5 875,-391.5"/>
<path fill="none" stroke="#000000" stroke-width="2" d="M659,-388.5C658.97,-390.5 874.97,-393.5 875,-391.5"/>
</g>
<!-- W3&#45;&#45;X4 -->
<g id="edge18" class="edge">
<title>W3:e&#45;&#45;X4:w</title>
<path fill="none" stroke="#000000" stroke-width="2" d="M659,-255.5C659.08,-253.5 875.08,-262.5 875,-264.5"/>
<path fill="none" stroke="#000000" stroke-width="2" d="M659,-255.5C659,-255.5 875,-264.5 875,-264.5"/>
<path fill="none" stroke="#000000" stroke-width="2" d="M659,-255.5C658.92,-257.5 874.92,-266.5 875,-264.5"/>
</g>
<!-- W3&#45;&#45;X4 -->
<g id="edge20" class="edge">
<title>W3:e&#45;&#45;X4:w</title>
<path fill="none" stroke="#000000" stroke-width="2" d="M659,-230.5C658.88,-228.5 874.88,-215.5 875,-217.5"/>
<path fill="none" stroke="#0066ff" stroke-width="2" d="M659,-230.5C659,-230.5 875,-217.5 875,-217.5"/>
<path fill="none" stroke="#000000" stroke-width="2" d="M659,-230.5C659.12,-232.5 875.12,-219.5 875,-217.5"/>
</g>
<!-- W3&#45;&#45;X4 -->
<g id="edge22" class="edge">
<title>W3:e&#45;&#45;X4:w</title>
<path fill="none" stroke="#000000" stroke-width="2" d="M659,-205.5C658.9,-203.5 874.9,-192.5 875,-194.5"/>
<path fill="none" stroke="#ff8000" stroke-width="2" d="M659,-205.5C659,-205.5 875,-194.5 875,-194.5"/>
<path fill="none" stroke="#000000" stroke-width="2" d="M659,-205.5C659.1,-207.5 875.1,-196.5 875,-194.5"/>
</g>
<!-- W3&#45;&#45;X4 -->
<g id="edge24" class="edge">
<title>W3:e&#45;&#45;X4:w</title>
<path fill="none" stroke="#000000" stroke-width="2" d="M659,-180.5C658.92,-178.5 874.92,-169.5 875,-171.5"/>
<path fill="none" stroke="#8000ff" stroke-width="2" d="M659,-180.5C659,-180.5 875,-171.5 875,-171.5"/>
<path fill="none" stroke="#000000" stroke-width="2" d="M659,-180.5C659.08,-182.5 875.08,-173.5 875,-171.5"/>
</g>
<!-- W4&#45;&#45;X4 -->
<g id="edge26" class="edge">
<title>W4:e&#45;&#45;X4:w</title>
<path fill="none" stroke="#000000" stroke-width="2" d="M659,-47.5C660.42,-46.09 876.42,-263.09 875,-264.5"/>
<path fill="none" stroke="#000000" stroke-width="2" d="M659,-47.5C659,-47.5 875,-264.5 875,-264.5"/>
<path fill="none" stroke="#000000" stroke-width="2" d="M659,-47.5C657.58,-48.91 873.58,-265.91 875,-264.5"/>
</g>
<!-- W4&#45;&#45;X4 -->
<g id="edge28" class="edge">
<title>W4:e&#45;&#45;X4:w</title>
<path fill="none" stroke="#000000" stroke-width="2" d="M659,-22.5C660.42,-21.09 876.42,-239.09 875,-240.5"/>
<path fill="none" stroke="#ff0000" stroke-width="2" d="M659,-22.5C659,-22.5 875,-240.5 875,-240.5"/>
<path fill="none" stroke="#000000" stroke-width="2" d="M659,-22.5C657.58,-23.91 873.58,-241.91 875,-240.5"/>
</g>
</g>
</svg>
