<?xml version="1.0" encoding="UTF-8" standalone="no"?>
<!DOCTYPE svg PUBLIC "-//W3C//DTD SVG 1.1//EN"
 "http://www.w3.org/Graphics/SVG/1.1/DTD/svg11.dtd">
<!-- Generated by graphviz version 2.43.0 (0)
 -->
<!-- Title: %3 Pages: 1 -->
<svg width="1083pt" height="292pt"
 viewBox="0.00 0.00 1083.00 292.00" xmlns="http://www.w3.org/2000/svg" xmlns:xlink="http://www.w3.org/1999/xlink">
<g id="graph0" class="graph" transform="scale(1 1) rotate(0) translate(4 288)">
<title>%3</title>
<polygon fill="#ffffff" stroke="transparent" points="-4,4 -4,-288 1079,-288 1079,4 -4,4"/>
<!-- X1 -->
<g id="node1" class="node">
<title>X1</title>
<polygon fill="#ffffff" stroke="black" points="179,-253 0,-253 0,0 179,0 179,-253"/>
<polygon fill="#ffffff" stroke="transparent" points="0,0 0,-253 179,-253 179,0 0,0"/>
<polygon fill="#ffffff" stroke="transparent" points="0.5,-229.5 0.5,-252.5 179.5,-252.5 179.5,-229.5 0.5,-229.5"/>
<polygon fill="none" stroke="black" points="0.5,-229.5 0.5,-252.5 179.5,-252.5 179.5,-229.5 0.5,-229.5"/>
<text text-anchor="start" x="70" y="-238.3" font-family="arial" font-size="14.00"> </text>
<text text-anchor="start" x="75" y="-238.3" font-family="arial" font-weight="bold" font-size="14.00"> X1 </text>
<text text-anchor="start" x="105" y="-238.3" font-family="arial" font-size="14.00"> </text>
<polygon fill="none" stroke="black" points="0.5,-206.5 0.5,-229.5 60.5,-229.5 60.5,-206.5 0.5,-206.5"/>
<text text-anchor="start" x="4.5" y="-214.3" font-family="arial" font-size="14.00"> D&#45;Sub </text>
<polygon fill="none" stroke="black" points="60.5,-206.5 60.5,-229.5 125.5,-229.5 125.5,-206.5 60.5,-206.5"/>
<text text-anchor="start" x="64.5" y="-214.3" font-family="arial" font-size="14.00"> female </text>
<polygon fill="none" stroke="black" points="125.5,-206.5 125.5,-229.5 179.5,-229.5 179.5,-206.5 125.5,-206.5"/>
<text text-anchor="start" x="129.5" y="-214.3" font-family="arial" font-size="14.00"> 9&#45;pin </text>
<polygon fill="none" stroke="black" points="0.5,-183.5 0.5,-206.5 118.5,-206.5 118.5,-183.5 0.5,-183.5"/>
<text text-anchor="start" x="39.5" y="-191.3" font-family="arial" font-size="14.00"> DCD </text>
<polygon fill="none" stroke="black" points="118.5,-183.5 118.5,-206.5 179.5,-206.5 179.5,-183.5 118.5,-183.5"/>
<text text-anchor="start" x="139.5" y="-191.3" font-family="arial" font-size="14.00"> 1 </text>
<polygon fill="none" stroke="black" points="0.5,-160.5 0.5,-183.5 118.5,-183.5 118.5,-160.5 0.5,-160.5"/>
<text text-anchor="start" x="45" y="-168.3" font-family="arial" font-size="14.00"> RX </text>
<polygon fill="none" stroke="black" points="118.5,-160.5 118.5,-183.5 179.5,-183.5 179.5,-160.5 118.5,-160.5"/>
<text text-anchor="start" x="139.5" y="-168.3" font-family="arial" font-size="14.00"> 2 </text>
<polygon fill="none" stroke="black" points="0.5,-137.5 0.5,-160.5 118.5,-160.5 118.5,-137.5 0.5,-137.5"/>
<text text-anchor="start" x="45.5" y="-145.3" font-family="arial" font-size="14.00"> TX </text>
<polygon fill="none" stroke="black" points="118.5,-137.5 118.5,-160.5 179.5,-160.5 179.5,-137.5 118.5,-137.5"/>
<text text-anchor="start" x="139.5" y="-145.3" font-family="arial" font-size="14.00"> 3 </text>
<polygon fill="none" stroke="black" points="0.5,-114.5 0.5,-137.5 118.5,-137.5 118.5,-114.5 0.5,-114.5"/>
<text text-anchor="start" x="40.5" y="-122.3" font-family="arial" font-size="14.00"> DTR </text>
<polygon fill="none" stroke="black" points="118.5,-114.5 118.5,-137.5 179.5,-137.5 179.5,-114.5 118.5,-114.5"/>
<text text-anchor="start" x="139.5" y="-122.3" font-family="arial" font-size="14.00"> 4 </text>
<polygon fill="none" stroke="black" points="0.5,-91.5 0.5,-114.5 118.5,-114.5 118.5,-91.5 0.5,-91.5"/>
<text text-anchor="start" x="39" y="-99.3" font-family="arial" font-size="14.00"> GND </text>
<polygon fill="none" stroke="black" points="118.5,-91.5 118.5,-114.5 179.5,-114.5 179.5,-91.5 118.5,-91.5"/>
<text text-anchor="start" x="139.5" y="-99.3" font-family="arial" font-size="14.00"> 5 </text>
<polygon fill="none" stroke="black" points="0.5,-68.5 0.5,-91.5 118.5,-91.5 118.5,-68.5 0.5,-68.5"/>
<text text-anchor="start" x="40" y="-76.3" font-family="arial" font-size="14.00"> DSR </text>
<polygon fill="none" stroke="black" points="118.5,-68.5 118.5,-91.5 179.5,-91.5 179.5,-68.5 118.5,-68.5"/>
<text text-anchor="start" x="139.5" y="-76.3" font-family="arial" font-size="14.00"> 6 </text>
<polygon fill="none" stroke="black" points="0.5,-45.5 0.5,-68.5 118.5,-68.5 118.5,-45.5 0.5,-45.5"/>
<text text-anchor="start" x="41.5" y="-53.3" font-family="arial" font-size="14.00"> RTS </text>
<polygon fill="none" stroke="black" points="118.5,-45.5 118.5,-68.5 179.5,-68.5 179.5,-45.5 118.5,-45.5"/>
<text text-anchor="start" x="139.5" y="-53.3" font-family="arial" font-size="14.00"> 7 </text>
<polygon fill="none" stroke="black" points="0.5,-22.5 0.5,-45.5 118.5,-45.5 118.5,-22.5 0.5,-22.5"/>
<text text-anchor="start" x="41" y="-30.3" font-family="arial" font-size="14.00"> CTS </text>
<polygon fill="none" stroke="black" points="118.5,-22.5 118.5,-45.5 179.5,-45.5 179.5,-22.5 118.5,-22.5"/>
<text text-anchor="start" x="139.5" y="-30.3" font-family="arial" font-size="14.00"> 8 </text>
<polygon fill="none" stroke="black" points="0.5,0.5 0.5,-22.5 118.5,-22.5 118.5,0.5 0.5,0.5"/>
<text text-anchor="start" x="47.5" y="-7.3" font-family="arial" font-size="14.00"> RI </text>
<polygon fill="none" stroke="black" points="118.5,0.5 118.5,-22.5 179.5,-22.5 179.5,0.5 118.5,0.5"/>
<text text-anchor="start" x="139.5" y="-7.3" font-family="arial" font-size="14.00"> 9 </text>
</g>
<!-- X1&#45;&#45;X1 -->
<g id="edge1" class="edge">
<title>X1:e&#45;&#45;X1:e</title>
<path fill="none" stroke="black" stroke-width="2" d="M179.5,-56.5C249.33,-68.5 390,-68.5 390,-45 390,-21.5 249.33,-21.5 179.5,-33.5"/>
<text text-anchor="middle" x="320.5" y="-33.8" font-family="arial" font-size="14.00">X1:7:RTS⇿X1:8:CTS</text>
</g>
<!-- W1 -->
<g id="node3" class="node">
<title>W1</title>
<polygon fill="#ffffff" stroke="black" points="628,-284 395,-284 395,-81 628,-81 628,-284"/>
<polygon fill="#ffffff" stroke="transparent" points="395,-81 395,-284 628,-284 628,-81 395,-81"/>
<polygon fill="#ffffff" stroke="transparent" points="395.5,-260.5 395.5,-283.5 628.5,-283.5 628.5,-260.5 395.5,-260.5"/>
<polygon fill="none" stroke="black" points="395.5,-260.5 395.5,-283.5 628.5,-283.5 628.5,-260.5 395.5,-260.5"/>
<text text-anchor="start" x="489.5" y="-269.3" font-family="arial" font-size="14.00"> </text>
<text text-anchor="start" x="494.5" y="-269.3" font-family="arial" font-weight="bold" font-size="14.00"> W1 </text>
<text text-anchor="start" x="529.5" y="-269.3" font-family="arial" font-size="14.00"> </text>
<polygon fill="none" stroke="black" points="395.5,-237.5 395.5,-260.5 431.5,-260.5 431.5,-237.5 395.5,-237.5"/>
<text text-anchor="start" x="400" y="-245.3" font-family="arial" font-size="14.00"> 3x </text>
<polygon fill="none" stroke="black" points="431.5,-237.5 431.5,-260.5 518.5,-260.5 518.5,-237.5 431.5,-237.5"/>
<text text-anchor="start" x="436" y="-245.3" font-family="arial" font-size="14.00"> 0.25 mm² </text>
<polygon fill="none" stroke="black" points="518.5,-237.5 518.5,-260.5 561.5,-260.5 561.5,-237.5 518.5,-237.5"/>
<text text-anchor="start" x="522.5" y="-245.3" font-family="arial" font-size="14.00"> + S </text>
<polygon fill="none" stroke="black" points="561.5,-237.5 561.5,-260.5 628.5,-260.5 628.5,-237.5 561.5,-237.5"/>
<text text-anchor="start" x="565.5" y="-245.3" font-family="arial" font-size="14.00"> 0.20 m </text>
<text text-anchor="start" x="434" y="-224.3" font-family="arial" font-size="14.00"> </text>
<text text-anchor="start" x="397.5" y="-205.3" font-family="arial" font-size="14.00"> X1:5:GND </text>
<text text-anchor="start" x="479.5" y="-205.3" font-family="arial" font-size="14.00"> </text>
<text text-anchor="start" x="491" y="-205.3" font-family="arial" font-size="14.00"> 1:WH </text>
<text text-anchor="start" x="544.5" y="-205.3" font-family="arial" font-size="14.00"> </text>
<text text-anchor="start" x="553.5" y="-205.3" font-family="arial" font-size="14.00"> X2:1:GND</text>
<polygon fill="#000000" stroke="transparent" points="395.5,-197.5 395.5,-199.5 628.5,-199.5 628.5,-197.5 395.5,-197.5"/>
<polygon fill="#ffffff" stroke="transparent" points="395.5,-195.5 395.5,-197.5 628.5,-197.5 628.5,-195.5 395.5,-195.5"/>
<polygon fill="#000000" stroke="transparent" points="395.5,-193.5 395.5,-195.5 628.5,-195.5 628.5,-193.5 395.5,-193.5"/>
<text text-anchor="start" x="397.5" y="-180.3" font-family="arial" font-size="14.00"> X1:2:RX </text>
<text text-anchor="start" x="479.5" y="-180.3" font-family="arial" font-size="14.00"> </text>
<text text-anchor="start" x="493" y="-180.3" font-family="arial" font-size="14.00"> 2:BN </text>
<text text-anchor="start" x="544.5" y="-180.3" font-family="arial" font-size="14.00"> </text>
<text text-anchor="start" x="566.5" y="-180.3" font-family="arial" font-size="14.00"> X2:3:TX</text>
<polygon fill="#000000" stroke="transparent" points="395.5,-172.5 395.5,-174.5 628.5,-174.5 628.5,-172.5 395.5,-172.5"/>
<polygon fill="#895956" stroke="transparent" points="395.5,-170.5 395.5,-172.5 628.5,-172.5 628.5,-170.5 395.5,-170.5"/>
<polygon fill="#000000" stroke="transparent" points="395.5,-168.5 395.5,-170.5 628.5,-170.5 628.5,-168.5 395.5,-168.5"/>
<text text-anchor="start" x="397.5" y="-155.3" font-family="arial" font-size="14.00"> X1:3:TX </text>
<text text-anchor="start" x="479.5" y="-155.3" font-family="arial" font-size="14.00"> </text>
<text text-anchor="start" x="492.5" y="-155.3" font-family="arial" font-size="14.00"> 3:GN </text>
<text text-anchor="start" x="544.5" y="-155.3" font-family="arial" font-size="14.00"> </text>
<text text-anchor="start" x="565.5" y="-155.3" font-family="arial" font-size="14.00"> X2:2:RX</text>
<polygon fill="#000000" stroke="transparent" points="395.5,-147.5 395.5,-149.5 628.5,-149.5 628.5,-147.5 395.5,-147.5"/>
<polygon fill="#00aa00" stroke="transparent" points="395.5,-145.5 395.5,-147.5 628.5,-147.5 628.5,-145.5 395.5,-145.5"/>
<polygon fill="#000000" stroke="transparent" points="395.5,-143.5 395.5,-145.5 628.5,-145.5 628.5,-143.5 395.5,-143.5"/>
<text text-anchor="start" x="434" y="-130.3" font-family="arial" font-size="14.00"> </text>
<text text-anchor="start" x="397.5" y="-111.3" font-family="arial" font-size="14.00"> X1:5:GND </text>
<text text-anchor="start" x="479.5" y="-111.3" font-family="arial" font-size="14.00"> </text>
<text text-anchor="start" x="488.5" y="-111.3" font-family="arial" font-size="14.00"> Shield </text>
<text text-anchor="start" x="544.5" y="-111.3" font-family="arial" font-size="14.00"> </text>
<text text-anchor="start" x="621.5" y="-111.3" font-family="arial" font-size="14.00"> </text>
<polygon fill="#000000" stroke="transparent" points="395.5,-103.5 395.5,-105.5 628.5,-105.5 628.5,-103.5 395.5,-103.5"/>
<polygon fill="#ffffff" stroke="transparent" points="395.5,-101.5 395.5,-103.5 628.5,-103.5 628.5,-101.5 395.5,-101.5"/>
<polygon fill="#000000" stroke="transparent" points="395.5,-99.5 395.5,-101.5 628.5,-101.5 628.5,-99.5 395.5,-99.5"/>
<text text-anchor="start" x="434" y="-86.3" font-family="arial" font-size="14.00"> </text>
</g>
<!-- X1&#45;&#45;W1 -->
<g id="edge2" class="edge">
<title>X1:e&#45;&#45;W1:w</title>
<path fill="none" stroke="#000000" stroke-width="2" d="M179,-102.5C179.8,-100.67 395.8,-194.67 395,-196.5"/>
<path fill="none" stroke="#ffffff" stroke-width="2" d="M179,-102.5C179,-102.5 395,-196.5 395,-196.5"/>
<path fill="none" stroke="#000000" stroke-width="2" d="M179,-102.5C178.2,-104.33 394.2,-198.33 395,-196.5"/>
</g>
<!-- X1&#45;&#45;W1 -->
<g id="edge4" class="edge">
<title>X1:e&#45;&#45;W1:w</title>
<path fill="none" stroke="#000000" stroke-width="2" d="M179,-172.5C178.99,-170.5 394.99,-169.5 395,-171.5"/>
<path fill="none" stroke="#895956" stroke-width="2" d="M179,-172.5C179,-172.5 395,-171.5 395,-171.5"/>
<path fill="none" stroke="#000000" stroke-width="2" d="M179,-172.5C179.01,-174.5 395.01,-173.5 395,-171.5"/>
</g>
<!-- X1&#45;&#45;W1 -->
<g id="edge6" class="edge">
<title>X1:e&#45;&#45;W1:w</title>
<path fill="none" stroke="#000000" stroke-width="2" d="M179,-149.5C178.97,-147.5 394.97,-144.5 395,-146.5"/>
<path fill="none" stroke="#00aa00" stroke-width="2" d="M179,-149.5C179,-149.5 395,-146.5 395,-146.5"/>
<path fill="none" stroke="#000000" stroke-width="2" d="M179,-149.5C179.03,-151.5 395.03,-148.5 395,-146.5"/>
</g>
<!-- X1&#45;&#45;W1 -->
<g id="edge8" class="edge">
<title>X1:e&#45;&#45;W1:w</title>
<path fill="none" stroke="#000000" stroke-width="2" d="M179,-102.5C179,-102.5 395,-102.5 395,-102.5"/>
</g>
<!-- X2 -->
<g id="node2" class="node">
<title>X2</title>
<polygon fill="#ffffff" stroke="black" points="1075,-255 844,-255 844,-140 1075,-140 1075,-255"/>
<polygon fill="#ffffff" stroke="transparent" points="844,-140 844,-255 1075,-255 1075,-140 844,-140"/>
<polygon fill="#ffffff" stroke="transparent" points="844.5,-231.5 844.5,-254.5 1075.5,-254.5 1075.5,-231.5 844.5,-231.5"/>
<polygon fill="none" stroke="black" points="844.5,-231.5 844.5,-254.5 1075.5,-254.5 1075.5,-231.5 844.5,-231.5"/>
<text text-anchor="start" x="940" y="-240.3" font-family="arial" font-size="14.00"> </text>
<text text-anchor="start" x="945" y="-240.3" font-family="arial" font-weight="bold" font-size="14.00"> X2 </text>
<text text-anchor="start" x="975" y="-240.3" font-family="arial" font-size="14.00"> </text>
<polygon fill="none" stroke="black" points="844.5,-208.5 844.5,-231.5 956.5,-231.5 956.5,-208.5 844.5,-208.5"/>
<text text-anchor="start" x="848.5" y="-216.3" font-family="arial" font-size="14.00"> Molex KK 254 </text>
<polygon fill="none" stroke="black" points="956.5,-208.5 956.5,-231.5 1021.5,-231.5 1021.5,-208.5 956.5,-208.5"/>
<text text-anchor="start" x="960.5" y="-216.3" font-family="arial" font-size="14.00"> female </text>
<polygon fill="none" stroke="black" points="1021.5,-208.5 1021.5,-231.5 1075.5,-231.5 1075.5,-208.5 1021.5,-208.5"/>
<text text-anchor="start" x="1025.5" y="-216.3" font-family="arial" font-size="14.00"> 3&#45;pin </text>
<polygon fill="none" stroke="black" points="844.5,-185.5 844.5,-208.5 923.5,-208.5 923.5,-185.5 844.5,-185.5"/>
<text text-anchor="start" x="874.5" y="-193.3" font-family="arial" font-size="14.00"> 1 </text>
<polygon fill="none" stroke="black" points="923.5,-185.5 923.5,-208.5 1075.5,-208.5 1075.5,-185.5 923.5,-185.5"/>
<text text-anchor="start" x="979" y="-193.3" font-family="arial" font-size="14.00"> GND </text>
<polygon fill="none" stroke="black" points="844.5,-162.5 844.5,-185.5 923.5,-185.5 923.5,-162.5 844.5,-162.5"/>
<text text-anchor="start" x="874.5" y="-170.3" font-family="arial" font-size="14.00"> 2 </text>
<polygon fill="none" stroke="black" points="923.5,-162.5 923.5,-185.5 1075.5,-185.5 1075.5,-162.5 923.5,-162.5"/>
<text text-anchor="start" x="985" y="-170.3" font-family="arial" font-size="14.00"> RX </text>
<polygon fill="none" stroke="black" points="844.5,-139.5 844.5,-162.5 923.5,-162.5 923.5,-139.5 844.5,-139.5"/>
<text text-anchor="start" x="874.5" y="-147.3" font-family="arial" font-size="14.00"> 3 </text>
<polygon fill="none" stroke="black" points="923.5,-139.5 923.5,-162.5 1075.5,-162.5 1075.5,-139.5 923.5,-139.5"/>
<text text-anchor="start" x="985.5" y="-147.3" font-family="arial" font-size="14.00"> TX </text>
</g>
<!-- W1&#45;&#45;X2 -->
<g id="edge3" class="edge">
<title>W1:e&#45;&#45;X2:w</title>
<path fill="none" stroke="#000000" stroke-width="2" d="M628,-196.5C628,-194.5 844,-194.5 844,-196.5"/>
<path fill="none" stroke="#ffffff" stroke-width="2" d="M628,-196.5C628,-196.5 844,-196.5 844,-196.5"/>
<path fill="none" stroke="#000000" stroke-width="2" d="M628,-196.5C628,-198.5 844,-198.5 844,-196.5"/>
</g>
<!-- W1&#45;&#45;X2 -->
<g id="edge5" class="edge">
<title>W1:e&#45;&#45;X2:w</title>
<path fill="none" stroke="#000000" stroke-width="2" d="M628,-171.5C627.81,-169.51 843.81,-148.51 844,-150.5"/>
<path fill="none" stroke="#895956" stroke-width="2" d="M628,-171.5C628,-171.5 844,-150.5 844,-150.5"/>
<path fill="none" stroke="#000000" stroke-width="2" d="M628,-171.5C628.19,-173.49 844.19,-152.49 844,-150.5"/>
</g>
<!-- W1&#45;&#45;X2 -->
<g id="edge7" class="edge">
<title>W1:e&#45;&#45;X2:w</title>
<path fill="none" stroke="#000000" stroke-width="2" d="M628,-146.5C628.25,-144.52 844.25,-171.52 844,-173.5"/>
<path fill="none" stroke="#00aa00" stroke-width="2" d="M628,-146.5C628,-146.5 844,-173.5 844,-173.5"/>
<path fill="none" stroke="#000000" stroke-width="2" d="M628,-146.5C627.75,-148.48 843.75,-175.48 844,-173.5"/>
</g>
</g>
</svg>
