<?xml version="1.0" encoding="UTF-8" standalone="no"?>
<!DOCTYPE svg PUBLIC "-//W3C//DTD SVG 1.1//EN"
 "http://www.w3.org/Graphics/SVG/1.1/DTD/svg11.dtd">
<!-- Generated by graphviz version 2.43.0 (0)
 -->
<!-- Title: %3 Pages: 1 -->
<svg width="1115pt" height="458pt"
 viewBox="0.00 0.00 1115.00 458.00" xmlns="http://www.w3.org/2000/svg" xmlns:xlink="http://www.w3.org/1999/xlink">
<g id="graph0" class="graph" transform="scale(1 1) rotate(0) translate(4 454)">
<title>%3</title>
<polygon fill="#ffffff" stroke="transparent" points="-4,4 -4,-454 1111,-454 1111,4 -4,4"/>
<!-- X1 -->
<g id="node1" class="node">
<title>X1</title>
<polygon fill="#ffffff" stroke="black" points="202,-262 0,-262 0,-170 202,-170 202,-262"/>
<polygon fill="#ffffff" stroke="transparent" points="0,-170 0,-262 202,-262 202,-170 0,-170"/>
<polygon fill="#ffffff" stroke="transparent" points="0,-239 0,-262 202,-262 202,-239 0,-239"/>
<polygon fill="none" stroke="black" points="0,-239 0,-262 202,-262 202,-239 0,-239"/>
<text text-anchor="start" x="84.5" y="-247.8" font-family="arial" font-size="14.00"> </text>
<text text-anchor="start" x="88.5" y="-247.8" font-family="arial" font-weight="bold" font-size="14.00"> X1 </text>
<text text-anchor="start" x="113.5" y="-247.8" font-family="arial" font-size="14.00"> </text>
<polygon fill="none" stroke="black" points="0,-216 0,-239 110,-239 110,-216 0,-216"/>
<text text-anchor="start" x="4" y="-223.8" font-family="arial" font-size="14.00"> Molex Micro&#45;Fit </text>
<polygon fill="none" stroke="black" points="110,-216 110,-239 156,-239 156,-216 110,-216"/>
<text text-anchor="start" x="114" y="-223.8" font-family="arial" font-size="14.00"> male </text>
<polygon fill="none" stroke="black" points="156,-216 156,-239 202,-239 202,-216 156,-216"/>
<text text-anchor="start" x="160" y="-223.8" font-family="arial" font-size="14.00"> 2&#45;pin </text>
<polygon fill="none" stroke="black" points="0,-193 0,-216 135,-216 135,-193 0,-193"/>
<text text-anchor="start" x="48" y="-200.8" font-family="arial" font-size="14.00"> GND </text>
<polygon fill="none" stroke="black" points="135,-193 135,-216 202,-216 202,-193 135,-193"/>
<text text-anchor="start" x="160.5" y="-200.8" font-family="arial" font-size="14.00"> 1 </text>
<polygon fill="none" stroke="black" points="0,-170 0,-193 135,-193 135,-170 0,-170"/>
<text text-anchor="start" x="49" y="-177.8" font-family="arial" font-size="14.00"> VCC </text>
<polygon fill="none" stroke="black" points="135,-170 135,-193 202,-193 202,-170 135,-170"/>
<text text-anchor="start" x="160.5" y="-177.8" font-family="arial" font-size="14.00"> 2 </text>
</g>
<!-- W1 -->
<g id="node5" class="node">
<title>W1</title>
<polygon fill="#ffffff" stroke="black" points="661.5,-450 434.5,-450 434.5,-316 661.5,-316 661.5,-450"/>
<polygon fill="#ffffff" stroke="transparent" points="434.5,-316 434.5,-450 661.5,-450 661.5,-316 434.5,-316"/>
<polygon fill="#ffffff" stroke="transparent" points="435,-427 435,-450 662,-450 662,-427 435,-427"/>
<polygon fill="none" stroke="black" points="435,-427 435,-450 662,-450 662,-427 435,-427"/>
<text text-anchor="start" x="530" y="-435.8" font-family="arial" font-size="14.00"> </text>
<text text-anchor="start" x="534" y="-435.8" font-family="arial" font-weight="bold" font-size="14.00"> W1 </text>
<text text-anchor="start" x="563" y="-435.8" font-family="arial" font-size="14.00"> </text>
<polygon fill="none" stroke="black" points="435,-404 435,-427 465,-427 465,-404 435,-404"/>
<text text-anchor="start" x="439" y="-411.8" font-family="arial" font-size="14.00"> 2x </text>
<polygon fill="none" stroke="black" points="465,-404 465,-427 604,-427 604,-404 465,-404"/>
<text text-anchor="start" x="469" y="-411.8" font-family="arial" font-size="14.00"> 0.25 mm² (24 AWG) </text>
<polygon fill="none" stroke="black" points="604,-404 604,-427 662,-427 662,-404 604,-404"/>
<text text-anchor="start" x="608" y="-411.8" font-family="arial" font-size="14.00"> 0.20 m </text>
<text text-anchor="start" x="472.5" y="-390.8" font-family="arial" font-size="14.00"> </text>
<text text-anchor="start" x="437" y="-371.8" font-family="arial" font-size="14.00"> X1:1:GND </text>
<text text-anchor="start" x="518.5" y="-371.8" font-family="arial" font-size="14.00"> </text>
<text text-anchor="start" x="532.5" y="-371.8" font-family="arial" font-size="14.00"> 1:BK </text>
<text text-anchor="start" x="579" y="-371.8" font-family="arial" font-size="14.00"> </text>
<text text-anchor="start" x="593" y="-371.8" font-family="arial" font-size="14.00"> X2:1:GND</text>
<polygon fill="#000000" stroke="transparent" points="435,-364 435,-366 662,-366 662,-364 435,-364"/>
<polygon fill="#000000" stroke="transparent" points="435,-362 435,-364 662,-364 662,-362 435,-362"/>
<polygon fill="#000000" stroke="transparent" points="435,-360 435,-362 662,-362 662,-360 435,-360"/>
<text text-anchor="start" x="437" y="-346.8" font-family="arial" font-size="14.00"> X1:2:VCC </text>
<text text-anchor="start" x="518.5" y="-346.8" font-family="arial" font-size="14.00"> </text>
<text text-anchor="start" x="531.5" y="-346.8" font-family="arial" font-size="14.00"> 2:RD </text>
<text text-anchor="start" x="579" y="-346.8" font-family="arial" font-size="14.00"> </text>
<text text-anchor="start" x="596" y="-346.8" font-family="arial" font-size="14.00"> X2:2:VCC</text>
<polygon fill="#000000" stroke="transparent" points="435,-339 435,-341 662,-341 662,-339 435,-339"/>
<polygon fill="#ff0000" stroke="transparent" points="435,-337 435,-339 662,-339 662,-337 435,-337"/>
<polygon fill="#000000" stroke="transparent" points="435,-335 435,-337 662,-337 662,-335 435,-335"/>
<text text-anchor="start" x="472.5" y="-321.8" font-family="arial" font-size="14.00"> </text>
</g>
<!-- X1&#45;&#45;W1 -->
<g id="edge1" class="edge">
<title>X1:e&#45;&#45;W1:w</title>
<path fill="none" stroke="#000000" stroke-width="2" d="M202,-204C203.13,-202.35 435.13,-361.35 434,-363"/>
<path fill="none" stroke="#000000" stroke-width="2" d="M202,-204C202,-204 434,-363 434,-363"/>
<path fill="none" stroke="#000000" stroke-width="2" d="M202,-204C200.87,-205.65 432.87,-364.65 434,-363"/>
</g>
<!-- X1&#45;&#45;W1 -->
<g id="edge3" class="edge">
<title>X1:e&#45;&#45;W1:w</title>
<path fill="none" stroke="#000000" stroke-width="2" d="M202,-181C203.12,-179.34 435.12,-336.34 434,-338"/>
<path fill="none" stroke="#ff0000" stroke-width="2" d="M202,-181C202,-181 434,-338 434,-338"/>
<path fill="none" stroke="#000000" stroke-width="2" d="M202,-181C200.88,-182.66 432.88,-339.66 434,-338"/>
</g>
<!-- W2 -->
<g id="node6" class="node">
<title>W2</title>
<polygon fill="#ffffff" stroke="black" points="661.5,-292 434.5,-292 434.5,-158 661.5,-158 661.5,-292"/>
<polygon fill="#ffffff" stroke="transparent" points="434.5,-158 434.5,-292 661.5,-292 661.5,-158 434.5,-158"/>
<polygon fill="#ffffff" stroke="transparent" points="435,-269 435,-292 662,-292 662,-269 435,-269"/>
<polygon fill="none" stroke="black" points="435,-269 435,-292 662,-292 662,-269 435,-269"/>
<text text-anchor="start" x="530" y="-277.8" font-family="arial" font-size="14.00"> </text>
<text text-anchor="start" x="534" y="-277.8" font-family="arial" font-weight="bold" font-size="14.00"> W2 </text>
<text text-anchor="start" x="563" y="-277.8" font-family="arial" font-size="14.00"> </text>
<polygon fill="none" stroke="black" points="435,-246 435,-269 465,-269 465,-246 435,-246"/>
<text text-anchor="start" x="439" y="-253.8" font-family="arial" font-size="14.00"> 2x </text>
<polygon fill="none" stroke="black" points="465,-246 465,-269 604,-269 604,-246 465,-246"/>
<text text-anchor="start" x="469" y="-253.8" font-family="arial" font-size="14.00"> 0.25 mm² (24 AWG) </text>
<polygon fill="none" stroke="black" points="604,-246 604,-269 662,-269 662,-246 604,-246"/>
<text text-anchor="start" x="608" y="-253.8" font-family="arial" font-size="14.00"> 0.20 m </text>
<text text-anchor="start" x="472.5" y="-232.8" font-family="arial" font-size="14.00"> </text>
<text text-anchor="start" x="437" y="-213.8" font-family="arial" font-size="14.00"> X1:1:GND </text>
<text text-anchor="start" x="518.5" y="-213.8" font-family="arial" font-size="14.00"> </text>
<text text-anchor="start" x="532.5" y="-213.8" font-family="arial" font-size="14.00"> 1:BK </text>
<text text-anchor="start" x="579" y="-213.8" font-family="arial" font-size="14.00"> </text>
<text text-anchor="start" x="593" y="-213.8" font-family="arial" font-size="14.00"> X3:1:GND</text>
<polygon fill="#000000" stroke="transparent" points="435,-206 435,-208 662,-208 662,-206 435,-206"/>
<polygon fill="#000000" stroke="transparent" points="435,-204 435,-206 662,-206 662,-204 435,-204"/>
<polygon fill="#000000" stroke="transparent" points="435,-202 435,-204 662,-204 662,-202 435,-202"/>
<text text-anchor="start" x="437" y="-188.8" font-family="arial" font-size="14.00"> X1:2:VCC </text>
<text text-anchor="start" x="518.5" y="-188.8" font-family="arial" font-size="14.00"> </text>
<text text-anchor="start" x="531.5" y="-188.8" font-family="arial" font-size="14.00"> 2:RD </text>
<text text-anchor="start" x="579" y="-188.8" font-family="arial" font-size="14.00"> </text>
<text text-anchor="start" x="596" y="-188.8" font-family="arial" font-size="14.00"> X3:2:VCC</text>
<polygon fill="#000000" stroke="transparent" points="435,-181 435,-183 662,-183 662,-181 435,-181"/>
<polygon fill="#ff0000" stroke="transparent" points="435,-179 435,-181 662,-181 662,-179 435,-179"/>
<polygon fill="#000000" stroke="transparent" points="435,-177 435,-179 662,-179 662,-177 435,-177"/>
<text text-anchor="start" x="472.5" y="-163.8" font-family="arial" font-size="14.00"> </text>
</g>
<!-- X1&#45;&#45;W2 -->
<g id="edge5" class="edge">
<title>X1:e&#45;&#45;W2:w</title>
<path fill="none" stroke="#000000" stroke-width="2" d="M202,-204C202.01,-202 434.01,-203 434,-205"/>
<path fill="none" stroke="#000000" stroke-width="2" d="M202,-204C202,-204 434,-205 434,-205"/>
<path fill="none" stroke="#000000" stroke-width="2" d="M202,-204C201.99,-206 433.99,-207 434,-205"/>
</g>
<!-- X1&#45;&#45;W2 -->
<g id="edge7" class="edge">
<title>X1:e&#45;&#45;W2:w</title>
<path fill="none" stroke="#000000" stroke-width="2" d="M202,-181C201.99,-179 433.99,-178 434,-180"/>
<path fill="none" stroke="#ff0000" stroke-width="2" d="M202,-181C202,-181 434,-180 434,-180"/>
<path fill="none" stroke="#000000" stroke-width="2" d="M202,-181C202.01,-183 434.01,-182 434,-180"/>
</g>
<!-- W3 -->
<g id="node7" class="node">
<title>W3</title>
<polygon fill="#ffffff" stroke="black" points="678,-134 418,-134 418,0 678,0 678,-134"/>
<polygon fill="#ffffff" stroke="transparent" points="418,0 418,-134 678,-134 678,0 418,0"/>
<polygon fill="#ffffff" stroke="transparent" points="418,-111 418,-134 678,-134 678,-111 418,-111"/>
<polygon fill="none" stroke="black" points="418,-111 418,-134 678,-134 678,-111 418,-111"/>
<text text-anchor="start" x="529.5" y="-119.8" font-family="arial" font-size="14.00"> </text>
<text text-anchor="start" x="533.5" y="-119.8" font-family="arial" font-weight="bold" font-size="14.00"> W3 </text>
<text text-anchor="start" x="562.5" y="-119.8" font-family="arial" font-size="14.00"> </text>
<polygon fill="none" stroke="black" points="418,-88 418,-111 448,-111 448,-88 418,-88"/>
<text text-anchor="start" x="422" y="-95.8" font-family="arial" font-size="14.00"> 2x </text>
<polygon fill="none" stroke="black" points="448,-88 448,-111 620,-111 620,-88 448,-88"/>
<text text-anchor="start" x="452" y="-95.8" font-family="arial" font-size="14.00"> 20.0 awg (Unknown mm²) </text>
<polygon fill="none" stroke="black" points="620,-88 620,-111 678,-111 678,-88 620,-88"/>
<text text-anchor="start" x="624" y="-95.8" font-family="arial" font-size="14.00"> 0.20 m </text>
<text text-anchor="start" x="459" y="-74.8" font-family="arial" font-size="14.00"> </text>
<text text-anchor="start" x="420" y="-55.8" font-family="arial" font-size="14.00"> X1:1:GND </text>
<text text-anchor="start" x="511.5" y="-55.8" font-family="arial" font-size="14.00"> </text>
<text text-anchor="start" x="531.5" y="-55.8" font-family="arial" font-size="14.00"> 1:BK </text>
<text text-anchor="start" x="584.5" y="-55.8" font-family="arial" font-size="14.00"> </text>
<text text-anchor="start" x="609" y="-55.8" font-family="arial" font-size="14.00"> X4:1:GND</text>
<polygon fill="#000000" stroke="transparent" points="418,-48 418,-50 678,-50 678,-48 418,-48"/>
<polygon fill="#000000" stroke="transparent" points="418,-46 418,-48 678,-48 678,-46 418,-46"/>
<polygon fill="#000000" stroke="transparent" points="418,-44 418,-46 678,-46 678,-44 418,-44"/>
<text text-anchor="start" x="420" y="-30.8" font-family="arial" font-size="14.00"> X1:2:VCC </text>
<text text-anchor="start" x="511.5" y="-30.8" font-family="arial" font-size="14.00"> </text>
<text text-anchor="start" x="530.5" y="-30.8" font-family="arial" font-size="14.00"> 2:RD </text>
<text text-anchor="start" x="584.5" y="-30.8" font-family="arial" font-size="14.00"> </text>
<text text-anchor="start" x="612" y="-30.8" font-family="arial" font-size="14.00"> X4:2:VCC</text>
<polygon fill="#000000" stroke="transparent" points="418,-23 418,-25 678,-25 678,-23 418,-23"/>
<polygon fill="#ff0000" stroke="transparent" points="418,-21 418,-23 678,-23 678,-21 418,-21"/>
<polygon fill="#000000" stroke="transparent" points="418,-19 418,-21 678,-21 678,-19 418,-19"/>
<text text-anchor="start" x="459" y="-5.8" font-family="arial" font-size="14.00"> </text>
</g>
<!-- X1&#45;&#45;W3 -->
<g id="edge9" class="edge">
<title>X1:e&#45;&#45;W3:w</title>
<path fill="none" stroke="#000000" stroke-width="2" d="M202,-204C200.82,-202.38 416.82,-45.38 418,-47"/>
<path fill="none" stroke="#000000" stroke-width="2" d="M202,-204C202,-204 418,-47 418,-47"/>
<path fill="none" stroke="#000000" stroke-width="2" d="M202,-204C203.18,-205.62 419.18,-48.62 418,-47"/>
</g>
<!-- X1&#45;&#45;W3 -->
<g id="edge11" class="edge">
<title>X1:e&#45;&#45;W3:w</title>
<path fill="none" stroke="#000000" stroke-width="2" d="M202,-181C200.81,-179.39 416.81,-20.39 418,-22"/>
<path fill="none" stroke="#ff0000" stroke-width="2" d="M202,-181C202,-181 418,-22 418,-22"/>
<path fill="none" stroke="#000000" stroke-width="2" d="M202,-181C203.19,-182.61 419.19,-23.61 418,-22"/>
</g>
<!-- X2 -->
<g id="node2" class="node">
<title>X2</title>
<polygon fill="#ffffff" stroke="black" points="1107,-420 894,-420 894,-328 1107,-328 1107,-420"/>
<polygon fill="#ffffff" stroke="transparent" points="894,-328 894,-420 1107,-420 1107,-328 894,-328"/>
<polygon fill="#ffffff" stroke="transparent" points="894.5,-397 894.5,-420 1107.5,-420 1107.5,-397 894.5,-397"/>
<polygon fill="none" stroke="black" points="894.5,-397 894.5,-420 1107.5,-420 1107.5,-397 894.5,-397"/>
<text text-anchor="start" x="984.5" y="-405.8" font-family="arial" font-size="14.00"> </text>
<text text-anchor="start" x="988.5" y="-405.8" font-family="arial" font-weight="bold" font-size="14.00"> X2 </text>
<text text-anchor="start" x="1013.5" y="-405.8" font-family="arial" font-size="14.00"> </text>
<polygon fill="none" stroke="black" points="894.5,-374 894.5,-397 1004.5,-397 1004.5,-374 894.5,-374"/>
<text text-anchor="start" x="898.5" y="-381.8" font-family="arial" font-size="14.00"> Molex Micro&#45;Fit </text>
<polygon fill="none" stroke="black" points="1004.5,-374 1004.5,-397 1061.5,-397 1061.5,-374 1004.5,-374"/>
<text text-anchor="start" x="1008.5" y="-381.8" font-family="arial" font-size="14.00"> female </text>
<polygon fill="none" stroke="black" points="1061.5,-374 1061.5,-397 1107.5,-397 1107.5,-374 1061.5,-374"/>
<text text-anchor="start" x="1065.5" y="-381.8" font-family="arial" font-size="14.00"> 2&#45;pin </text>
<polygon fill="none" stroke="black" points="894.5,-351 894.5,-374 966.5,-374 966.5,-351 894.5,-351"/>
<text text-anchor="start" x="922.5" y="-358.8" font-family="arial" font-size="14.00"> 1 </text>
<polygon fill="none" stroke="black" points="966.5,-351 966.5,-374 1107.5,-374 1107.5,-351 966.5,-351"/>
<text text-anchor="start" x="1017.5" y="-358.8" font-family="arial" font-size="14.00"> GND </text>
<polygon fill="none" stroke="black" points="894.5,-328 894.5,-351 966.5,-351 966.5,-328 894.5,-328"/>
<text text-anchor="start" x="922.5" y="-335.8" font-family="arial" font-size="14.00"> 2 </text>
<polygon fill="none" stroke="black" points="966.5,-328 966.5,-351 1107.5,-351 1107.5,-328 966.5,-328"/>
<text text-anchor="start" x="1018.5" y="-335.8" font-family="arial" font-size="14.00"> VCC </text>
</g>
<!-- X3 -->
<g id="node3" class="node">
<title>X3</title>
<polygon fill="#ffffff" stroke="black" points="1107,-262 894,-262 894,-170 1107,-170 1107,-262"/>
<polygon fill="#ffffff" stroke="transparent" points="894,-170 894,-262 1107,-262 1107,-170 894,-170"/>
<polygon fill="#ffffff" stroke="transparent" points="894.5,-239 894.5,-262 1107.5,-262 1107.5,-239 894.5,-239"/>
<polygon fill="none" stroke="black" points="894.5,-239 894.5,-262 1107.5,-262 1107.5,-239 894.5,-239"/>
<text text-anchor="start" x="984.5" y="-247.8" font-family="arial" font-size="14.00"> </text>
<text text-anchor="start" x="988.5" y="-247.8" font-family="arial" font-weight="bold" font-size="14.00"> X3 </text>
<text text-anchor="start" x="1013.5" y="-247.8" font-family="arial" font-size="14.00"> </text>
<polygon fill="none" stroke="black" points="894.5,-216 894.5,-239 1004.5,-239 1004.5,-216 894.5,-216"/>
<text text-anchor="start" x="898.5" y="-223.8" font-family="arial" font-size="14.00"> Molex Micro&#45;Fit </text>
<polygon fill="none" stroke="black" points="1004.5,-216 1004.5,-239 1061.5,-239 1061.5,-216 1004.5,-216"/>
<text text-anchor="start" x="1008.5" y="-223.8" font-family="arial" font-size="14.00"> female </text>
<polygon fill="none" stroke="black" points="1061.5,-216 1061.5,-239 1107.5,-239 1107.5,-216 1061.5,-216"/>
<text text-anchor="start" x="1065.5" y="-223.8" font-family="arial" font-size="14.00"> 2&#45;pin </text>
<polygon fill="none" stroke="black" points="894.5,-193 894.5,-216 966.5,-216 966.5,-193 894.5,-193"/>
<text text-anchor="start" x="922.5" y="-200.8" font-family="arial" font-size="14.00"> 1 </text>
<polygon fill="none" stroke="black" points="966.5,-193 966.5,-216 1107.5,-216 1107.5,-193 966.5,-193"/>
<text text-anchor="start" x="1017.5" y="-200.8" font-family="arial" font-size="14.00"> GND </text>
<polygon fill="none" stroke="black" points="894.5,-170 894.5,-193 966.5,-193 966.5,-170 894.5,-170"/>
<text text-anchor="start" x="922.5" y="-177.8" font-family="arial" font-size="14.00"> 2 </text>
<polygon fill="none" stroke="black" points="966.5,-170 966.5,-193 1107.5,-193 1107.5,-170 966.5,-170"/>
<text text-anchor="start" x="1018.5" y="-177.8" font-family="arial" font-size="14.00"> VCC </text>
</g>
<!-- X4 -->
<g id="node4" class="node">
<title>X4</title>
<polygon fill="#ffffff" stroke="black" points="1107,-104 894,-104 894,-12 1107,-12 1107,-104"/>
<polygon fill="#ffffff" stroke="transparent" points="894,-12 894,-104 1107,-104 1107,-12 894,-12"/>
<polygon fill="#ffffff" stroke="transparent" points="894.5,-81 894.5,-104 1107.5,-104 1107.5,-81 894.5,-81"/>
<polygon fill="none" stroke="black" points="894.5,-81 894.5,-104 1107.5,-104 1107.5,-81 894.5,-81"/>
<text text-anchor="start" x="984.5" y="-89.8" font-family="arial" font-size="14.00"> </text>
<text text-anchor="start" x="988.5" y="-89.8" font-family="arial" font-weight="bold" font-size="14.00"> X4 </text>
<text text-anchor="start" x="1013.5" y="-89.8" font-family="arial" font-size="14.00"> </text>
<polygon fill="none" stroke="black" points="894.5,-58 894.5,-81 1004.5,-81 1004.5,-58 894.5,-58"/>
<text text-anchor="start" x="898.5" y="-65.8" font-family="arial" font-size="14.00"> Molex Micro&#45;Fit </text>
<polygon fill="none" stroke="black" points="1004.5,-58 1004.5,-81 1061.5,-81 1061.5,-58 1004.5,-58"/>
<text text-anchor="start" x="1008.5" y="-65.8" font-family="arial" font-size="14.00"> female </text>
<polygon fill="none" stroke="black" points="1061.5,-58 1061.5,-81 1107.5,-81 1107.5,-58 1061.5,-58"/>
<text text-anchor="start" x="1065.5" y="-65.8" font-family="arial" font-size="14.00"> 2&#45;pin </text>
<polygon fill="none" stroke="black" points="894.5,-35 894.5,-58 966.5,-58 966.5,-35 894.5,-35"/>
<text text-anchor="start" x="922.5" y="-42.8" font-family="arial" font-size="14.00"> 1 </text>
<polygon fill="none" stroke="black" points="966.5,-35 966.5,-58 1107.5,-58 1107.5,-35 966.5,-35"/>
<text text-anchor="start" x="1017.5" y="-42.8" font-family="arial" font-size="14.00"> GND </text>
<polygon fill="none" stroke="black" points="894.5,-12 894.5,-35 966.5,-35 966.5,-12 894.5,-12"/>
<text text-anchor="start" x="922.5" y="-19.8" font-family="arial" font-size="14.00"> 2 </text>
<polygon fill="none" stroke="black" points="966.5,-12 966.5,-35 1107.5,-35 1107.5,-12 966.5,-12"/>
<text text-anchor="start" x="1018.5" y="-19.8" font-family="arial" font-size="14.00"> VCC </text>
</g>
<!-- W1&#45;&#45;X2 -->
<g id="edge2" class="edge">
<title>W1:e&#45;&#45;X2:w</title>
<path fill="none" stroke="#000000" stroke-width="2" d="M663,-363C662.99,-361 893.99,-360 894,-362"/>
<path fill="none" stroke="#000000" stroke-width="2" d="M663,-363C663,-363 894,-362 894,-362"/>
<path fill="none" stroke="#000000" stroke-width="2" d="M663,-363C663.01,-365 894.01,-364 894,-362"/>
</g>
<!-- W1&#45;&#45;X2 -->
<g id="edge4" class="edge">
<title>W1:e&#45;&#45;X2:w</title>
<path fill="none" stroke="#000000" stroke-width="2" d="M663,-338C663.01,-336 894.01,-337 894,-339"/>
<path fill="none" stroke="#ff0000" stroke-width="2" d="M663,-338C663,-338 894,-339 894,-339"/>
<path fill="none" stroke="#000000" stroke-width="2" d="M663,-338C662.99,-340 893.99,-341 894,-339"/>
</g>
<!-- W2&#45;&#45;X3 -->
<g id="edge6" class="edge">
<title>W2:e&#45;&#45;X3:w</title>
<path fill="none" stroke="#000000" stroke-width="2" d="M663,-205C662.99,-203 893.99,-202 894,-204"/>
<path fill="none" stroke="#000000" stroke-width="2" d="M663,-205C663,-205 894,-204 894,-204"/>
<path fill="none" stroke="#000000" stroke-width="2" d="M663,-205C663.01,-207 894.01,-206 894,-204"/>
</g>
<!-- W2&#45;&#45;X3 -->
<g id="edge8" class="edge">
<title>W2:e&#45;&#45;X3:w</title>
<path fill="none" stroke="#000000" stroke-width="2" d="M663,-180C663.01,-178 894.01,-179 894,-181"/>
<path fill="none" stroke="#ff0000" stroke-width="2" d="M663,-180C663,-180 894,-181 894,-181"/>
<path fill="none" stroke="#000000" stroke-width="2" d="M663,-180C662.99,-182 893.99,-183 894,-181"/>
</g>
<!-- W3&#45;&#45;X4 -->
<g id="edge10" class="edge">
<title>W3:e&#45;&#45;X4:w</title>
<path fill="none" stroke="#000000" stroke-width="2" d="M678,-47C677.99,-45 893.99,-44 894,-46"/>
<path fill="none" stroke="#000000" stroke-width="2" d="M678,-47C678,-47 894,-46 894,-46"/>
<path fill="none" stroke="#000000" stroke-width="2" d="M678,-47C678.01,-49 894.01,-48 894,-46"/>
</g>
<!-- W3&#45;&#45;X4 -->
<g id="edge12" class="edge">
<title>W3:e&#45;&#45;X4:w</title>
<path fill="none" stroke="#000000" stroke-width="2" d="M678,-22C678.01,-20 894.01,-21 894,-23"/>
<path fill="none" stroke="#ff0000" stroke-width="2" d="M678,-22C678,-22 894,-23 894,-23"/>
<path fill="none" stroke="#000000" stroke-width="2" d="M678,-22C677.99,-24 893.99,-25 894,-23"/>
</g>
</g>
</svg>
