<?xml version="1.0" encoding="UTF-8" standalone="no"?>
<!DOCTYPE svg PUBLIC "-//W3C//DTD SVG 1.1//EN"
 "http://www.w3.org/Graphics/SVG/1.1/DTD/svg11.dtd">
<!-- Generated by graphviz version 2.43.0 (0)
 -->
<!-- Title: %3 Pages: 1 -->
<svg width="1164pt" height="332pt"
 viewBox="0.00 0.00 1164.00 332.00" xmlns="http://www.w3.org/2000/svg" xmlns:xlink="http://www.w3.org/1999/xlink">
<g id="graph0" class="graph" transform="scale(1 1) rotate(0) translate(4 328)">
<title>%3</title>
<polygon fill="#ffffff" stroke="transparent" points="-4,4 -4,-328 1160,-328 1160,4 -4,4"/>
<!-- X1 -->
<g id="node1" class="node">
<title>X1</title>
<polygon fill="#ffffff" stroke="black" points="226,-208 0,-208 0,-116 226,-116 226,-208"/>
<polygon fill="#ffffff" stroke="transparent" points="0,-116 0,-208 226,-208 226,-116 0,-116"/>
<polygon fill="#ffffff" stroke="transparent" points="0,-185 0,-208 226,-208 226,-185 0,-185"/>
<polygon fill="none" stroke="black" points="0,-185 0,-208 226,-208 226,-185 0,-185"/>
<text text-anchor="start" x="93" y="-193.8" font-family="arial" font-size="14.00"> </text>
<text text-anchor="start" x="98" y="-193.8" font-family="arial" font-weight="bold" font-size="14.00"> X1 </text>
<text text-anchor="start" x="128" y="-193.8" font-family="arial" font-size="14.00"> </text>
<polygon fill="none" stroke="black" points="0,-162 0,-185 121,-185 121,-162 0,-162"/>
<text text-anchor="start" x="4" y="-169.8" font-family="arial" font-size="14.00"> Molex Micro&#45;Fit </text>
<polygon fill="none" stroke="black" points="121,-162 121,-185 172,-185 172,-162 121,-162"/>
<text text-anchor="start" x="125" y="-169.8" font-family="arial" font-size="14.00"> male </text>
<polygon fill="none" stroke="black" points="172,-162 172,-185 226,-185 226,-162 172,-162"/>
<text text-anchor="start" x="176" y="-169.8" font-family="arial" font-size="14.00"> 2&#45;pin </text>
<polygon fill="none" stroke="black" points="0,-139 0,-162 149,-162 149,-139 0,-139"/>
<text text-anchor="start" x="54" y="-146.8" font-family="arial" font-size="14.00"> GND </text>
<polygon fill="none" stroke="black" points="149,-139 149,-162 226,-162 226,-139 149,-139"/>
<text text-anchor="start" x="178" y="-146.8" font-family="arial" font-size="14.00"> 1 </text>
<polygon fill="none" stroke="black" points="0,-116 0,-139 149,-139 149,-116 0,-116"/>
<text text-anchor="start" x="55" y="-123.8" font-family="arial" font-size="14.00"> VCC </text>
<polygon fill="none" stroke="black" points="149,-116 149,-139 226,-139 226,-116 149,-116"/>
<text text-anchor="start" x="178" y="-123.8" font-family="arial" font-size="14.00"> 2 </text>
</g>
<!-- W1 -->
<g id="node5" class="node">
<title>W1</title>
<polygon fill="#ffffff" stroke="black" points="700,-288 442,-288 442,-54 700,-54 700,-288"/>
<polygon fill="#ffffff" stroke="transparent" points="442,-54 442,-288 700,-288 700,-54 442,-54"/>
<polygon fill="#ffffff" stroke="transparent" points="442,-265 442,-288 700,-288 700,-265 442,-265"/>
<polygon fill="none" stroke="black" points="442,-265 442,-288 700,-288 700,-265 442,-265"/>
<text text-anchor="start" x="548.5" y="-273.8" font-family="arial" font-size="14.00"> </text>
<text text-anchor="start" x="553.5" y="-273.8" font-family="arial" font-weight="bold" font-size="14.00"> W1 </text>
<text text-anchor="start" x="588.5" y="-273.8" font-family="arial" font-size="14.00"> </text>
<polygon fill="none" stroke="black" points="442,-242 442,-265 477,-265 477,-242 442,-242"/>
<text text-anchor="start" x="446" y="-249.8" font-family="arial" font-size="14.00"> 6x </text>
<polygon fill="none" stroke="black" points="477,-242 477,-265 633,-265 633,-242 477,-242"/>
<text text-anchor="start" x="481" y="-249.8" font-family="arial" font-size="14.00"> 0.25 mm² (24 AWG) </text>
<polygon fill="none" stroke="black" points="633,-242 633,-265 700,-265 700,-242 633,-242"/>
<text text-anchor="start" x="637" y="-249.8" font-family="arial" font-size="14.00"> 0.20 m </text>
<text text-anchor="start" x="484" y="-228.8" font-family="arial" font-size="14.00"> </text>
<text text-anchor="start" x="444" y="-209.8" font-family="arial" font-size="14.00"> X1:1:GND </text>
<text text-anchor="start" x="536.5" y="-209.8" font-family="arial" font-size="14.00"> </text>
<text text-anchor="start" x="553" y="-209.8" font-family="arial" font-size="14.00"> 1:BK </text>
<text text-anchor="start" x="606.5" y="-209.8" font-family="arial" font-size="14.00"> </text>
<text text-anchor="start" x="625" y="-209.8" font-family="arial" font-size="14.00"> X2:1:GND</text>
<polygon fill="#000000" stroke="transparent" points="442,-202 442,-204 700,-204 700,-202 442,-202"/>
<polygon fill="#000000" stroke="transparent" points="442,-200 442,-202 700,-202 700,-200 442,-200"/>
<polygon fill="#000000" stroke="transparent" points="442,-198 442,-200 700,-200 700,-198 442,-198"/>
<text text-anchor="start" x="444" y="-184.8" font-family="arial" font-size="14.00"> X1:2:VCC </text>
<text text-anchor="start" x="536.5" y="-184.8" font-family="arial" font-size="14.00"> </text>
<text text-anchor="start" x="552.5" y="-184.8" font-family="arial" font-size="14.00"> 2:RD </text>
<text text-anchor="start" x="606.5" y="-184.8" font-family="arial" font-size="14.00"> </text>
<text text-anchor="start" x="627" y="-184.8" font-family="arial" font-size="14.00"> X2:2:VCC</text>
<polygon fill="#000000" stroke="transparent" points="442,-177 442,-179 700,-179 700,-177 442,-177"/>
<polygon fill="#ff0000" stroke="transparent" points="442,-175 442,-177 700,-177 700,-175 442,-175"/>
<polygon fill="#000000" stroke="transparent" points="442,-173 442,-175 700,-175 700,-173 442,-173"/>
<text text-anchor="start" x="444" y="-159.8" font-family="arial" font-size="14.00"> X1:1:GND </text>
<text text-anchor="start" x="536.5" y="-159.8" font-family="arial" font-size="14.00"> </text>
<text text-anchor="start" x="553" y="-159.8" font-family="arial" font-size="14.00"> 3:BK </text>
<text text-anchor="start" x="606.5" y="-159.8" font-family="arial" font-size="14.00"> </text>
<text text-anchor="start" x="625" y="-159.8" font-family="arial" font-size="14.00"> X3:1:GND</text>
<polygon fill="#000000" stroke="transparent" points="442,-152 442,-154 700,-154 700,-152 442,-152"/>
<polygon fill="#000000" stroke="transparent" points="442,-150 442,-152 700,-152 700,-150 442,-150"/>
<polygon fill="#000000" stroke="transparent" points="442,-148 442,-150 700,-150 700,-148 442,-148"/>
<text text-anchor="start" x="444" y="-134.8" font-family="arial" font-size="14.00"> X1:2:VCC </text>
<text text-anchor="start" x="536.5" y="-134.8" font-family="arial" font-size="14.00"> </text>
<text text-anchor="start" x="552.5" y="-134.8" font-family="arial" font-size="14.00"> 4:RD </text>
<text text-anchor="start" x="606.5" y="-134.8" font-family="arial" font-size="14.00"> </text>
<text text-anchor="start" x="627" y="-134.8" font-family="arial" font-size="14.00"> X3:2:VCC</text>
<polygon fill="#000000" stroke="transparent" points="442,-127 442,-129 700,-129 700,-127 442,-127"/>
<polygon fill="#ff0000" stroke="transparent" points="442,-125 442,-127 700,-127 700,-125 442,-125"/>
<polygon fill="#000000" stroke="transparent" points="442,-123 442,-125 700,-125 700,-123 442,-123"/>
<text text-anchor="start" x="444" y="-109.8" font-family="arial" font-size="14.00"> X1:1:GND </text>
<text text-anchor="start" x="536.5" y="-109.8" font-family="arial" font-size="14.00"> </text>
<text text-anchor="start" x="553" y="-109.8" font-family="arial" font-size="14.00"> 5:BK </text>
<text text-anchor="start" x="606.5" y="-109.8" font-family="arial" font-size="14.00"> </text>
<text text-anchor="start" x="625" y="-109.8" font-family="arial" font-size="14.00"> X4:1:GND</text>
<polygon fill="#000000" stroke="transparent" points="442,-102 442,-104 700,-104 700,-102 442,-102"/>
<polygon fill="#000000" stroke="transparent" points="442,-100 442,-102 700,-102 700,-100 442,-100"/>
<polygon fill="#000000" stroke="transparent" points="442,-98 442,-100 700,-100 700,-98 442,-98"/>
<text text-anchor="start" x="444" y="-84.8" font-family="arial" font-size="14.00"> X1:2:VCC </text>
<text text-anchor="start" x="536.5" y="-84.8" font-family="arial" font-size="14.00"> </text>
<text text-anchor="start" x="552.5" y="-84.8" font-family="arial" font-size="14.00"> 6:RD </text>
<text text-anchor="start" x="606.5" y="-84.8" font-family="arial" font-size="14.00"> </text>
<text text-anchor="start" x="627" y="-84.8" font-family="arial" font-size="14.00"> X4:2:VCC</text>
<polygon fill="#000000" stroke="transparent" points="442,-77 442,-79 700,-79 700,-77 442,-77"/>
<polygon fill="#ff0000" stroke="transparent" points="442,-75 442,-77 700,-77 700,-75 442,-75"/>
<polygon fill="#000000" stroke="transparent" points="442,-73 442,-75 700,-75 700,-73 442,-73"/>
<text text-anchor="start" x="484" y="-59.8" font-family="arial" font-size="14.00"> </text>
</g>
<!-- X1&#45;&#45;W1 -->
<g id="edge1" class="edge">
<title>X1:e&#45;&#45;W1:w</title>
<path fill="none" stroke="#000000" stroke-width="2" d="M226,-150C226.46,-148.05 442.46,-199.05 442,-201"/>
<path fill="none" stroke="#000000" stroke-width="2" d="M226,-150C226,-150 442,-201 442,-201"/>
<path fill="none" stroke="#000000" stroke-width="2" d="M226,-150C225.54,-151.95 441.54,-202.95 442,-201"/>
</g>
<!-- X1&#45;&#45;W1 -->
<g id="edge3" class="edge">
<title>X1:e&#45;&#45;W1:w</title>
<path fill="none" stroke="#000000" stroke-width="2" d="M226,-127C226.44,-125.05 442.44,-174.05 442,-176"/>
<path fill="none" stroke="#ff0000" stroke-width="2" d="M226,-127C226,-127 442,-176 442,-176"/>
<path fill="none" stroke="#000000" stroke-width="2" d="M226,-127C225.56,-128.95 441.56,-177.95 442,-176"/>
</g>
<!-- X1&#45;&#45;W1 -->
<g id="edge5" class="edge">
<title>X1:e&#45;&#45;W1:w</title>
<path fill="none" stroke="#000000" stroke-width="2" d="M226,-150C226.01,-148 442.01,-149 442,-151"/>
<path fill="none" stroke="#000000" stroke-width="2" d="M226,-150C226,-150 442,-151 442,-151"/>
<path fill="none" stroke="#000000" stroke-width="2" d="M226,-150C225.99,-152 441.99,-153 442,-151"/>
</g>
<!-- X1&#45;&#45;W1 -->
<g id="edge7" class="edge">
<title>X1:e&#45;&#45;W1:w</title>
<path fill="none" stroke="#000000" stroke-width="2" d="M226,-127C225.99,-125 441.99,-124 442,-126"/>
<path fill="none" stroke="#ff0000" stroke-width="2" d="M226,-127C226,-127 442,-126 442,-126"/>
<path fill="none" stroke="#000000" stroke-width="2" d="M226,-127C226.01,-129 442.01,-128 442,-126"/>
</g>
<!-- X1&#45;&#45;W1 -->
<g id="edge9" class="edge">
<title>X1:e&#45;&#45;W1:w</title>
<path fill="none" stroke="#000000" stroke-width="2" d="M226,-150C225.56,-148.05 441.56,-99.05 442,-101"/>
<path fill="none" stroke="#000000" stroke-width="2" d="M226,-150C226,-150 442,-101 442,-101"/>
<path fill="none" stroke="#000000" stroke-width="2" d="M226,-150C226.44,-151.95 442.44,-102.95 442,-101"/>
</g>
<!-- X1&#45;&#45;W1 -->
<g id="edge11" class="edge">
<title>X1:e&#45;&#45;W1:w</title>
<path fill="none" stroke="#000000" stroke-width="2" d="M226,-127C225.54,-125.05 441.54,-74.05 442,-76"/>
<path fill="none" stroke="#ff0000" stroke-width="2" d="M226,-127C226,-127 442,-76 442,-76"/>
<path fill="none" stroke="#000000" stroke-width="2" d="M226,-127C226.46,-128.95 442.46,-77.95 442,-76"/>
</g>
<!-- X2 -->
<g id="node2" class="node">
<title>X2</title>
<polygon fill="#ffffff" stroke="black" points="1156,-324 916,-324 916,-232 1156,-232 1156,-324"/>
<polygon fill="#ffffff" stroke="transparent" points="916,-232 916,-324 1156,-324 1156,-232 916,-232"/>
<polygon fill="#ffffff" stroke="transparent" points="916,-301 916,-324 1156,-324 1156,-301 916,-301"/>
<polygon fill="none" stroke="black" points="916,-301 916,-324 1156,-324 1156,-301 916,-301"/>
<text text-anchor="start" x="1016" y="-309.8" font-family="arial" font-size="14.00"> </text>
<text text-anchor="start" x="1021" y="-309.8" font-family="arial" font-weight="bold" font-size="14.00"> X2 </text>
<text text-anchor="start" x="1051" y="-309.8" font-family="arial" font-size="14.00"> </text>
<polygon fill="none" stroke="black" points="916,-278 916,-301 1037,-301 1037,-278 916,-278"/>
<text text-anchor="start" x="920" y="-285.8" font-family="arial" font-size="14.00"> Molex Micro&#45;Fit </text>
<polygon fill="none" stroke="black" points="1037,-278 1037,-301 1102,-301 1102,-278 1037,-278"/>
<text text-anchor="start" x="1041" y="-285.8" font-family="arial" font-size="14.00"> female </text>
<polygon fill="none" stroke="black" points="1102,-278 1102,-301 1156,-301 1156,-278 1102,-278"/>
<text text-anchor="start" x="1106" y="-285.8" font-family="arial" font-size="14.00"> 2&#45;pin </text>
<polygon fill="none" stroke="black" points="916,-255 916,-278 998,-278 998,-255 916,-255"/>
<text text-anchor="start" x="947.5" y="-262.8" font-family="arial" font-size="14.00"> 1 </text>
<polygon fill="none" stroke="black" points="998,-255 998,-278 1156,-278 1156,-255 998,-255"/>
<text text-anchor="start" x="1056.5" y="-262.8" font-family="arial" font-size="14.00"> GND </text>
<polygon fill="none" stroke="black" points="916,-232 916,-255 998,-255 998,-232 916,-232"/>
<text text-anchor="start" x="947.5" y="-239.8" font-family="arial" font-size="14.00"> 2 </text>
<polygon fill="none" stroke="black" points="998,-232 998,-255 1156,-255 1156,-232 998,-232"/>
<text text-anchor="start" x="1057.5" y="-239.8" font-family="arial" font-size="14.00"> VCC </text>
</g>
<!-- X3 -->
<g id="node3" class="node">
<title>X3</title>
<polygon fill="#ffffff" stroke="black" points="1156,-208 916,-208 916,-116 1156,-116 1156,-208"/>
<polygon fill="#ffffff" stroke="transparent" points="916,-116 916,-208 1156,-208 1156,-116 916,-116"/>
<polygon fill="#ffffff" stroke="transparent" points="916,-185 916,-208 1156,-208 1156,-185 916,-185"/>
<polygon fill="none" stroke="black" points="916,-185 916,-208 1156,-208 1156,-185 916,-185"/>
<text text-anchor="start" x="1016" y="-193.8" font-family="arial" font-size="14.00"> </text>
<text text-anchor="start" x="1021" y="-193.8" font-family="arial" font-weight="bold" font-size="14.00"> X3 </text>
<text text-anchor="start" x="1051" y="-193.8" font-family="arial" font-size="14.00"> </text>
<polygon fill="none" stroke="black" points="916,-162 916,-185 1037,-185 1037,-162 916,-162"/>
<text text-anchor="start" x="920" y="-169.8" font-family="arial" font-size="14.00"> Molex Micro&#45;Fit </text>
<polygon fill="none" stroke="black" points="1037,-162 1037,-185 1102,-185 1102,-162 1037,-162"/>
<text text-anchor="start" x="1041" y="-169.8" font-family="arial" font-size="14.00"> female </text>
<polygon fill="none" stroke="black" points="1102,-162 1102,-185 1156,-185 1156,-162 1102,-162"/>
<text text-anchor="start" x="1106" y="-169.8" font-family="arial" font-size="14.00"> 2&#45;pin </text>
<polygon fill="none" stroke="black" points="916,-139 916,-162 998,-162 998,-139 916,-139"/>
<text text-anchor="start" x="947.5" y="-146.8" font-family="arial" font-size="14.00"> 1 </text>
<polygon fill="none" stroke="black" points="998,-139 998,-162 1156,-162 1156,-139 998,-139"/>
<text text-anchor="start" x="1056.5" y="-146.8" font-family="arial" font-size="14.00"> GND </text>
<polygon fill="none" stroke="black" points="916,-116 916,-139 998,-139 998,-116 916,-116"/>
<text text-anchor="start" x="947.5" y="-123.8" font-family="arial" font-size="14.00"> 2 </text>
<polygon fill="none" stroke="black" points="998,-116 998,-139 1156,-139 1156,-116 998,-116"/>
<text text-anchor="start" x="1057.5" y="-123.8" font-family="arial" font-size="14.00"> VCC </text>
</g>
<!-- X4 -->
<g id="node4" class="node">
<title>X4</title>
<polygon fill="#ffffff" stroke="black" points="1156,-92 916,-92 916,0 1156,0 1156,-92"/>
<polygon fill="#ffffff" stroke="transparent" points="916,0 916,-92 1156,-92 1156,0 916,0"/>
<polygon fill="#ffffff" stroke="transparent" points="916,-69 916,-92 1156,-92 1156,-69 916,-69"/>
<polygon fill="none" stroke="black" points="916,-69 916,-92 1156,-92 1156,-69 916,-69"/>
<text text-anchor="start" x="1016" y="-77.8" font-family="arial" font-size="14.00"> </text>
<text text-anchor="start" x="1021" y="-77.8" font-family="arial" font-weight="bold" font-size="14.00"> X4 </text>
<text text-anchor="start" x="1051" y="-77.8" font-family="arial" font-size="14.00"> </text>
<polygon fill="none" stroke="black" points="916,-46 916,-69 1037,-69 1037,-46 916,-46"/>
<text text-anchor="start" x="920" y="-53.8" font-family="arial" font-size="14.00"> Molex Micro&#45;Fit </text>
<polygon fill="none" stroke="black" points="1037,-46 1037,-69 1102,-69 1102,-46 1037,-46"/>
<text text-anchor="start" x="1041" y="-53.8" font-family="arial" font-size="14.00"> female </text>
<polygon fill="none" stroke="black" points="1102,-46 1102,-69 1156,-69 1156,-46 1102,-46"/>
<text text-anchor="start" x="1106" y="-53.8" font-family="arial" font-size="14.00"> 2&#45;pin </text>
<polygon fill="none" stroke="black" points="916,-23 916,-46 998,-46 998,-23 916,-23"/>
<text text-anchor="start" x="947.5" y="-30.8" font-family="arial" font-size="14.00"> 1 </text>
<polygon fill="none" stroke="black" points="998,-23 998,-46 1156,-46 1156,-23 998,-23"/>
<text text-anchor="start" x="1056.5" y="-30.8" font-family="arial" font-size="14.00"> GND </text>
<polygon fill="none" stroke="black" points="916,0 916,-23 998,-23 998,0 916,0"/>
<text text-anchor="start" x="947.5" y="-7.8" font-family="arial" font-size="14.00"> 2 </text>
<polygon fill="none" stroke="black" points="998,0 998,-23 1156,-23 1156,0 998,0"/>
<text text-anchor="start" x="1057.5" y="-7.8" font-family="arial" font-size="14.00"> VCC </text>
</g>
<!-- W1&#45;&#45;X2 -->
<g id="edge2" class="edge">
<title>W1:e&#45;&#45;X2:w</title>
<path fill="none" stroke="#000000" stroke-width="2" d="M700,-201C700.58,-199.08 916.58,-264.08 916,-266"/>
<path fill="none" stroke="#000000" stroke-width="2" d="M700,-201C700,-201 916,-266 916,-266"/>
<path fill="none" stroke="#000000" stroke-width="2" d="M700,-201C699.42,-202.92 915.42,-267.92 916,-266"/>
</g>
<!-- W1&#45;&#45;X2 -->
<g id="edge4" class="edge">
<title>W1:e&#45;&#45;X2:w</title>
<path fill="none" stroke="#000000" stroke-width="2" d="M700,-176C700.59,-174.09 916.59,-241.09 916,-243"/>
<path fill="none" stroke="#ff0000" stroke-width="2" d="M700,-176C700,-176 916,-243 916,-243"/>
<path fill="none" stroke="#000000" stroke-width="2" d="M700,-176C699.41,-177.91 915.41,-244.91 916,-243"/>
</g>
<!-- W1&#45;&#45;X3 -->
<g id="edge6" class="edge">
<title>W1:e&#45;&#45;X3:w</title>
<path fill="none" stroke="#000000" stroke-width="2" d="M700,-151C699.99,-149 915.99,-148 916,-150"/>
<path fill="none" stroke="#000000" stroke-width="2" d="M700,-151C700,-151 916,-150 916,-150"/>
<path fill="none" stroke="#000000" stroke-width="2" d="M700,-151C700.01,-153 916.01,-152 916,-150"/>
</g>
<!-- W1&#45;&#45;X3 -->
<g id="edge8" class="edge">
<title>W1:e&#45;&#45;X3:w</title>
<path fill="none" stroke="#000000" stroke-width="2" d="M700,-126C700.01,-124 916.01,-125 916,-127"/>
<path fill="none" stroke="#ff0000" stroke-width="2" d="M700,-126C700,-126 916,-127 916,-127"/>
<path fill="none" stroke="#000000" stroke-width="2" d="M700,-126C699.99,-128 915.99,-129 916,-127"/>
</g>
<!-- W1&#45;&#45;X4 -->
<g id="edge10" class="edge">
<title>W1:e&#45;&#45;X4:w</title>
<path fill="none" stroke="#000000" stroke-width="2" d="M700,-101C699.41,-99.09 915.41,-32.09 916,-34"/>
<path fill="none" stroke="#000000" stroke-width="2" d="M700,-101C700,-101 916,-34 916,-34"/>
<path fill="none" stroke="#000000" stroke-width="2" d="M700,-101C700.59,-102.91 916.59,-35.91 916,-34"/>
</g>
<!-- W1&#45;&#45;X4 -->
<g id="edge12" class="edge">
<title>W1:e&#45;&#45;X4:w</title>
<path fill="none" stroke="#000000" stroke-width="2" d="M700,-76C699.42,-74.08 915.42,-9.08 916,-11"/>
<path fill="none" stroke="#ff0000" stroke-width="2" d="M700,-76C700,-76 916,-11 916,-11"/>
<path fill="none" stroke="#000000" stroke-width="2" d="M700,-76C700.58,-77.92 916.58,-12.92 916,-11"/>
</g>
</g>
</svg>
