<?xml version="1.0" encoding="UTF-8" standalone="no"?>
<!DOCTYPE svg PUBLIC "-//W3C//DTD SVG 1.1//EN"
 "http://www.w3.org/Graphics/SVG/1.1/DTD/svg11.dtd">
<!-- Generated by graphviz version 2.43.0 (0)
 -->
<!-- Title: %3 Pages: 1 -->
<svg width="918pt" height="287pt"
 viewBox="0.00 0.00 918.00 286.50" xmlns="http://www.w3.org/2000/svg" xmlns:xlink="http://www.w3.org/1999/xlink">
<g id="graph0" class="graph" transform="scale(1 1) rotate(0) translate(4 282.5)">
<title>%3</title>
<polygon fill="#ffffff" stroke="transparent" points="-4,4 -4,-282.5 914,-282.5 914,4 -4,4"/>
<!-- AUTOGENERATED_F_1 -->
<g id="node1" class="node">
<title>AUTOGENERATED_F_1</title>
<polygon fill="#ffffff" stroke="black" points="110,-258 0,-258 0,-235 110,-235 110,-258"/>
<polygon fill="#ffffff" stroke="transparent" points="0,-235 0,-258 110,-258 110,-235 0,-235"/>
<polygon fill="none" stroke="black" points="0,-234.5 0,-257.5 110,-257.5 110,-234.5 0,-234.5"/>
<text text-anchor="start" x="4" y="-242.3" font-family="arial" font-size="14.00"> Crimp ferrule </text>
</g>
<!-- W1 -->
<g id="node13" class="node">
<title>W1</title>
<polygon fill="#ffffff" stroke="black" points="584,-278.5 326,-278.5 326,-44.5 584,-44.5 584,-278.5"/>
<polygon fill="#ffffff" stroke="transparent" points="326,-44.5 326,-278.5 584,-278.5 584,-44.5 326,-44.5"/>
<polygon fill="#ffffff" stroke="transparent" points="326,-255.5 326,-278.5 584,-278.5 584,-255.5 326,-255.5"/>
<polygon fill="none" stroke="black" points="326,-255.5 326,-278.5 584,-278.5 584,-255.5 326,-255.5"/>
<text text-anchor="start" x="432.5" y="-264.3" font-family="arial" font-size="14.00"> </text>
<text text-anchor="start" x="437.5" y="-264.3" font-family="arial" font-weight="bold" font-size="14.00"> W1 </text>
<text text-anchor="start" x="472.5" y="-264.3" font-family="arial" font-size="14.00"> </text>
<polygon fill="none" stroke="black" points="326,-232.5 326,-255.5 361,-255.5 361,-232.5 326,-232.5"/>
<text text-anchor="start" x="330" y="-240.3" font-family="arial" font-size="14.00"> 6x </text>
<polygon fill="none" stroke="black" points="361,-232.5 361,-255.5 517,-255.5 517,-232.5 361,-232.5"/>
<text text-anchor="start" x="365" y="-240.3" font-family="arial" font-size="14.00"> 0.25 mm² (24 AWG) </text>
<polygon fill="none" stroke="black" points="517,-232.5 517,-255.5 584,-255.5 584,-232.5 517,-232.5"/>
<text text-anchor="start" x="521" y="-240.3" font-family="arial" font-size="14.00"> 0.20 m </text>
<text text-anchor="start" x="347.5" y="-219.3" font-family="arial" font-size="14.00"> </text>
<text text-anchor="start" x="328" y="-200.3" font-family="arial" font-size="14.00"> &#160;</text>
<text text-anchor="start" x="393" y="-200.3" font-family="arial" font-size="14.00"> </text>
<text text-anchor="start" x="437" y="-200.3" font-family="arial" font-size="14.00"> 1:BN </text>
<text text-anchor="start" x="518.5" y="-200.3" font-family="arial" font-size="14.00"> </text>
<text text-anchor="start" x="577" y="-200.3" font-family="arial" font-size="14.00"> </text>
<polygon fill="#000000" stroke="transparent" points="326,-192.5 326,-194.5 584,-194.5 584,-192.5 326,-192.5"/>
<polygon fill="#895956" stroke="transparent" points="326,-190.5 326,-192.5 584,-192.5 584,-190.5 326,-190.5"/>
<polygon fill="#000000" stroke="transparent" points="326,-188.5 326,-190.5 584,-190.5 584,-188.5 326,-188.5"/>
<text text-anchor="start" x="328" y="-175.3" font-family="arial" font-size="14.00"> &#160;</text>
<text text-anchor="start" x="393" y="-175.3" font-family="arial" font-size="14.00"> </text>
<text text-anchor="start" x="437" y="-175.3" font-family="arial" font-size="14.00"> 2:RD </text>
<text text-anchor="start" x="518.5" y="-175.3" font-family="arial" font-size="14.00"> </text>
<text text-anchor="start" x="577" y="-175.3" font-family="arial" font-size="14.00"> </text>
<polygon fill="#000000" stroke="transparent" points="326,-167.5 326,-169.5 584,-169.5 584,-167.5 326,-167.5"/>
<polygon fill="#ff0000" stroke="transparent" points="326,-165.5 326,-167.5 584,-167.5 584,-165.5 326,-165.5"/>
<polygon fill="#000000" stroke="transparent" points="326,-163.5 326,-165.5 584,-165.5 584,-163.5 326,-163.5"/>
<text text-anchor="start" x="328" y="-150.3" font-family="arial" font-size="14.00"> &#160;</text>
<text text-anchor="start" x="393" y="-150.3" font-family="arial" font-size="14.00"> </text>
<text text-anchor="start" x="436" y="-150.3" font-family="arial" font-size="14.00"> 3:OG </text>
<text text-anchor="start" x="518.5" y="-150.3" font-family="arial" font-size="14.00"> </text>
<text text-anchor="start" x="577" y="-150.3" font-family="arial" font-size="14.00"> </text>
<polygon fill="#000000" stroke="transparent" points="326,-142.5 326,-144.5 584,-144.5 584,-142.5 326,-142.5"/>
<polygon fill="#ff8000" stroke="transparent" points="326,-140.5 326,-142.5 584,-142.5 584,-140.5 326,-140.5"/>
<polygon fill="#000000" stroke="transparent" points="326,-138.5 326,-140.5 584,-140.5 584,-138.5 326,-138.5"/>
<text text-anchor="start" x="328" y="-125.3" font-family="arial" font-size="14.00"> &#160;</text>
<text text-anchor="start" x="393" y="-125.3" font-family="arial" font-size="14.00"> </text>
<text text-anchor="start" x="438.5" y="-125.3" font-family="arial" font-size="14.00"> 4:YE </text>
<text text-anchor="start" x="518.5" y="-125.3" font-family="arial" font-size="14.00"> </text>
<text text-anchor="start" x="577" y="-125.3" font-family="arial" font-size="14.00"> </text>
<polygon fill="#000000" stroke="transparent" points="326,-117.5 326,-119.5 584,-119.5 584,-117.5 326,-117.5"/>
<polygon fill="#ffff00" stroke="transparent" points="326,-115.5 326,-117.5 584,-117.5 584,-115.5 326,-115.5"/>
<polygon fill="#000000" stroke="transparent" points="326,-113.5 326,-115.5 584,-115.5 584,-113.5 326,-113.5"/>
<text text-anchor="start" x="328" y="-100.3" font-family="arial" font-size="14.00"> &#160;</text>
<text text-anchor="start" x="393" y="-100.3" font-family="arial" font-size="14.00"> </text>
<text text-anchor="start" x="436.5" y="-100.3" font-family="arial" font-size="14.00"> 5:GN </text>
<text text-anchor="start" x="518.5" y="-100.3" font-family="arial" font-size="14.00"> </text>
<text text-anchor="start" x="577" y="-100.3" font-family="arial" font-size="14.00"> </text>
<polygon fill="#000000" stroke="transparent" points="326,-92.5 326,-94.5 584,-94.5 584,-92.5 326,-92.5"/>
<polygon fill="#00aa00" stroke="transparent" points="326,-90.5 326,-92.5 584,-92.5 584,-90.5 326,-90.5"/>
<polygon fill="#000000" stroke="transparent" points="326,-88.5 326,-90.5 584,-90.5 584,-88.5 326,-88.5"/>
<text text-anchor="start" x="328" y="-75.3" font-family="arial" font-size="14.00"> &#160;</text>
<text text-anchor="start" x="393" y="-75.3" font-family="arial" font-size="14.00"> </text>
<text text-anchor="start" x="437" y="-75.3" font-family="arial" font-size="14.00"> 6:BU </text>
<text text-anchor="start" x="518.5" y="-75.3" font-family="arial" font-size="14.00"> </text>
<text text-anchor="start" x="577" y="-75.3" font-family="arial" font-size="14.00"> </text>
<polygon fill="#000000" stroke="transparent" points="326,-67.5 326,-69.5 584,-69.5 584,-67.5 326,-67.5"/>
<polygon fill="#0066ff" stroke="transparent" points="326,-65.5 326,-67.5 584,-67.5 584,-65.5 326,-65.5"/>
<polygon fill="#000000" stroke="transparent" points="326,-63.5 326,-65.5 584,-65.5 584,-63.5 326,-63.5"/>
<text text-anchor="start" x="347.5" y="-50.3" font-family="arial" font-size="14.00"> </text>
</g>
<!-- AUTOGENERATED_F_1&#45;&#45;W1 -->
<g id="edge1" class="edge">
<title>AUTOGENERATED_F_1:e&#45;&#45;W1:w</title>
<path fill="none" stroke="#000000" stroke-width="2" d="M110,-246.5C109.51,-244.56 325.51,-189.56 326,-191.5"/>
<path fill="none" stroke="#895956" stroke-width="2" d="M110,-246.5C110,-246.5 326,-191.5 326,-191.5"/>
<path fill="none" stroke="#000000" stroke-width="2" d="M110,-246.5C110.49,-248.44 326.49,-193.44 326,-191.5"/>
</g>
<!-- AUTOGENERATED_F_2 -->
<g id="node2" class="node">
<title>AUTOGENERATED_F_2</title>
<polygon fill="#ffffff" stroke="black" points="110,-211 0,-211 0,-188 110,-188 110,-211"/>
<polygon fill="#ffffff" stroke="transparent" points="0,-188 0,-211 110,-211 110,-188 0,-188"/>
<polygon fill="none" stroke="black" points="0,-187.5 0,-210.5 110,-210.5 110,-187.5 0,-187.5"/>
<text text-anchor="start" x="4" y="-195.3" font-family="arial" font-size="14.00"> Crimp ferrule </text>
</g>
<!-- AUTOGENERATED_F_2&#45;&#45;W1 -->
<g id="edge3" class="edge">
<title>AUTOGENERATED_F_2:e&#45;&#45;W1:w</title>
<path fill="none" stroke="#000000" stroke-width="2" d="M110,-199.5C109.7,-197.52 325.7,-164.52 326,-166.5"/>
<path fill="none" stroke="#ff0000" stroke-width="2" d="M110,-199.5C110,-199.5 326,-166.5 326,-166.5"/>
<path fill="none" stroke="#000000" stroke-width="2" d="M110,-199.5C110.3,-201.48 326.3,-168.48 326,-166.5"/>
</g>
<!-- AUTOGENERATED_F_3 -->
<g id="node3" class="node">
<title>AUTOGENERATED_F_3</title>
<polygon fill="#ffffff" stroke="black" points="110,-164 0,-164 0,-141 110,-141 110,-164"/>
<polygon fill="#ffffff" stroke="transparent" points="0,-141 0,-164 110,-164 110,-141 0,-141"/>
<polygon fill="none" stroke="black" points="0,-140.5 0,-163.5 110,-163.5 110,-140.5 0,-140.5"/>
<text text-anchor="start" x="4" y="-148.3" font-family="arial" font-size="14.00"> Crimp ferrule </text>
</g>
<!-- AUTOGENERATED_F_3&#45;&#45;W1 -->
<g id="edge5" class="edge">
<title>AUTOGENERATED_F_3:e&#45;&#45;W1:w</title>
<path fill="none" stroke="#000000" stroke-width="2" d="M110,-152.5C109.9,-150.5 325.9,-139.5 326,-141.5"/>
<path fill="none" stroke="#ff8000" stroke-width="2" d="M110,-152.5C110,-152.5 326,-141.5 326,-141.5"/>
<path fill="none" stroke="#000000" stroke-width="2" d="M110,-152.5C110.1,-154.5 326.1,-143.5 326,-141.5"/>
</g>
<!-- AUTOGENERATED_F_4 -->
<g id="node4" class="node">
<title>AUTOGENERATED_F_4</title>
<polygon fill="#ffffff" stroke="black" points="110,-117 0,-117 0,-94 110,-94 110,-117"/>
<polygon fill="#ffffff" stroke="transparent" points="0,-94 0,-117 110,-117 110,-94 0,-94"/>
<polygon fill="none" stroke="black" points="0,-93.5 0,-116.5 110,-116.5 110,-93.5 0,-93.5"/>
<text text-anchor="start" x="4" y="-101.3" font-family="arial" font-size="14.00"> Crimp ferrule </text>
</g>
<!-- AUTOGENERATED_F_4&#45;&#45;W1 -->
<g id="edge7" class="edge">
<title>AUTOGENERATED_F_4:e&#45;&#45;W1:w</title>
<path fill="none" stroke="#000000" stroke-width="2" d="M110,-105.5C110.1,-103.5 326.1,-114.5 326,-116.5"/>
<path fill="none" stroke="#ffff00" stroke-width="2" d="M110,-105.5C110,-105.5 326,-116.5 326,-116.5"/>
<path fill="none" stroke="#000000" stroke-width="2" d="M110,-105.5C109.9,-107.5 325.9,-118.5 326,-116.5"/>
</g>
<!-- AUTOGENERATED_F_5 -->
<g id="node5" class="node">
<title>AUTOGENERATED_F_5</title>
<polygon fill="#ffffff" stroke="black" points="110,-70 0,-70 0,-47 110,-47 110,-70"/>
<polygon fill="#ffffff" stroke="transparent" points="0,-47 0,-70 110,-70 110,-47 0,-47"/>
<polygon fill="none" stroke="black" points="0,-46.5 0,-69.5 110,-69.5 110,-46.5 0,-46.5"/>
<text text-anchor="start" x="4" y="-54.3" font-family="arial" font-size="14.00"> Crimp ferrule </text>
</g>
<!-- AUTOGENERATED_F_5&#45;&#45;W1 -->
<g id="edge9" class="edge">
<title>AUTOGENERATED_F_5:e&#45;&#45;W1:w</title>
<path fill="none" stroke="#000000" stroke-width="2" d="M110,-58.5C110.3,-56.52 326.3,-89.52 326,-91.5"/>
<path fill="none" stroke="#00aa00" stroke-width="2" d="M110,-58.5C110,-58.5 326,-91.5 326,-91.5"/>
<path fill="none" stroke="#000000" stroke-width="2" d="M110,-58.5C109.7,-60.48 325.7,-93.48 326,-91.5"/>
</g>
<!-- AUTOGENERATED_F_6 -->
<g id="node6" class="node">
<title>AUTOGENERATED_F_6</title>
<polygon fill="#ffffff" stroke="black" points="110,-23 0,-23 0,0 110,0 110,-23"/>
<polygon fill="#ffffff" stroke="transparent" points="0,0 0,-23 110,-23 110,0 0,0"/>
<polygon fill="none" stroke="black" points="0,0.5 0,-22.5 110,-22.5 110,0.5 0,0.5"/>
<text text-anchor="start" x="4" y="-7.3" font-family="arial" font-size="14.00"> Crimp ferrule </text>
</g>
<!-- AUTOGENERATED_F_6&#45;&#45;W1 -->
<g id="edge11" class="edge">
<title>AUTOGENERATED_F_6:e&#45;&#45;W1:w</title>
<path fill="none" stroke="#000000" stroke-width="2" d="M110,-11.5C110.49,-9.56 326.49,-64.56 326,-66.5"/>
<path fill="none" stroke="#0066ff" stroke-width="2" d="M110,-11.5C110,-11.5 326,-66.5 326,-66.5"/>
<path fill="none" stroke="#000000" stroke-width="2" d="M110,-11.5C109.51,-13.44 325.51,-68.44 326,-66.5"/>
</g>
<!-- AUTOGENERATED_F_7 -->
<g id="node7" class="node">
<title>AUTOGENERATED_F_7</title>
<polygon fill="#ffffff" stroke="black" points="910,-258 800,-258 800,-235 910,-235 910,-258"/>
<polygon fill="#ffffff" stroke="transparent" points="800,-235 800,-258 910,-258 910,-235 800,-235"/>
<polygon fill="none" stroke="black" points="800,-234.5 800,-257.5 910,-257.5 910,-234.5 800,-234.5"/>
<text text-anchor="start" x="804" y="-242.3" font-family="arial" font-size="14.00"> Crimp ferrule </text>
</g>
<!-- AUTOGENERATED_F_8 -->
<g id="node8" class="node">
<title>AUTOGENERATED_F_8</title>
<polygon fill="#ffffff" stroke="black" points="910,-211 800,-211 800,-188 910,-188 910,-211"/>
<polygon fill="#ffffff" stroke="transparent" points="800,-188 800,-211 910,-211 910,-188 800,-188"/>
<polygon fill="none" stroke="black" points="800,-187.5 800,-210.5 910,-210.5 910,-187.5 800,-187.5"/>
<text text-anchor="start" x="804" y="-195.3" font-family="arial" font-size="14.00"> Crimp ferrule </text>
</g>
<!-- AUTOGENERATED_F_9 -->
<g id="node9" class="node">
<title>AUTOGENERATED_F_9</title>
<polygon fill="#ffffff" stroke="black" points="910,-164 800,-164 800,-141 910,-141 910,-164"/>
<polygon fill="#ffffff" stroke="transparent" points="800,-141 800,-164 910,-164 910,-141 800,-141"/>
<polygon fill="none" stroke="black" points="800,-140.5 800,-163.5 910,-163.5 910,-140.5 800,-140.5"/>
<text text-anchor="start" x="804" y="-148.3" font-family="arial" font-size="14.00"> Crimp ferrule </text>
</g>
<!-- AUTOGENERATED_F_10 -->
<g id="node10" class="node">
<title>AUTOGENERATED_F_10</title>
<polygon fill="#ffffff" stroke="black" points="910,-117 800,-117 800,-94 910,-94 910,-117"/>
<polygon fill="#ffffff" stroke="transparent" points="800,-94 800,-117 910,-117 910,-94 800,-94"/>
<polygon fill="none" stroke="black" points="800,-93.5 800,-116.5 910,-116.5 910,-93.5 800,-93.5"/>
<text text-anchor="start" x="804" y="-101.3" font-family="arial" font-size="14.00"> Crimp ferrule </text>
</g>
<!-- AUTOGENERATED_F_11 -->
<g id="node11" class="node">
<title>AUTOGENERATED_F_11</title>
<polygon fill="#ffffff" stroke="black" points="910,-70 800,-70 800,-47 910,-47 910,-70"/>
<polygon fill="#ffffff" stroke="transparent" points="800,-47 800,-70 910,-70 910,-47 800,-47"/>
<polygon fill="none" stroke="black" points="800,-46.5 800,-69.5 910,-69.5 910,-46.5 800,-46.5"/>
<text text-anchor="start" x="804" y="-54.3" font-family="arial" font-size="14.00"> Crimp ferrule </text>
</g>
<!-- AUTOGENERATED_F_12 -->
<g id="node12" class="node">
<title>AUTOGENERATED_F_12</title>
<polygon fill="#ffffff" stroke="black" points="910,-23 800,-23 800,0 910,0 910,-23"/>
<polygon fill="#ffffff" stroke="transparent" points="800,0 800,-23 910,-23 910,0 800,0"/>
<polygon fill="none" stroke="black" points="800,0.5 800,-22.5 910,-22.5 910,0.5 800,0.5"/>
<text text-anchor="start" x="804" y="-7.3" font-family="arial" font-size="14.00"> Crimp ferrule </text>
</g>
<!-- W1&#45;&#45;AUTOGENERATED_F_7 -->
<g id="edge2" class="edge">
<title>W1:e&#45;&#45;AUTOGENERATED_F_7:w</title>
<path fill="none" stroke="#000000" stroke-width="2" d="M584,-191.5C584.49,-189.56 800.49,-244.56 800,-246.5"/>
<path fill="none" stroke="#895956" stroke-width="2" d="M584,-191.5C584,-191.5 800,-246.5 800,-246.5"/>
<path fill="none" stroke="#000000" stroke-width="2" d="M584,-191.5C583.51,-193.44 799.51,-248.44 800,-246.5"/>
</g>
<!-- W1&#45;&#45;AUTOGENERATED_F_8 -->
<g id="edge4" class="edge">
<title>W1:e&#45;&#45;AUTOGENERATED_F_8:w</title>
<path fill="none" stroke="#000000" stroke-width="2" d="M584,-166.5C584.3,-164.52 800.3,-197.52 800,-199.5"/>
<path fill="none" stroke="#ff0000" stroke-width="2" d="M584,-166.5C584,-166.5 800,-199.5 800,-199.5"/>
<path fill="none" stroke="#000000" stroke-width="2" d="M584,-166.5C583.7,-168.48 799.7,-201.48 800,-199.5"/>
</g>
<!-- W1&#45;&#45;AUTOGENERATED_F_9 -->
<g id="edge6" class="edge">
<title>W1:e&#45;&#45;AUTOGENERATED_F_9:w</title>
<path fill="none" stroke="#000000" stroke-width="2" d="M584,-141.5C584.1,-139.5 800.1,-150.5 800,-152.5"/>
<path fill="none" stroke="#ff8000" stroke-width="2" d="M584,-141.5C584,-141.5 800,-152.5 800,-152.5"/>
<path fill="none" stroke="#000000" stroke-width="2" d="M584,-141.5C583.9,-143.5 799.9,-154.5 800,-152.5"/>
</g>
<!-- W1&#45;&#45;AUTOGENERATED_F_10 -->
<g id="edge8" class="edge">
<title>W1:e&#45;&#45;AUTOGENERATED_F_10:w</title>
<path fill="none" stroke="#000000" stroke-width="2" d="M584,-116.5C583.9,-114.5 799.9,-103.5 800,-105.5"/>
<path fill="none" stroke="#ffff00" stroke-width="2" d="M584,-116.5C584,-116.5 800,-105.5 800,-105.5"/>
<path fill="none" stroke="#000000" stroke-width="2" d="M584,-116.5C584.1,-118.5 800.1,-107.5 800,-105.5"/>
</g>
<!-- W1&#45;&#45;AUTOGENERATED_F_11 -->
<g id="edge10" class="edge">
<title>W1:e&#45;&#45;AUTOGENERATED_F_11:w</title>
<path fill="none" stroke="#000000" stroke-width="2" d="M584,-91.5C583.7,-89.52 799.7,-56.52 800,-58.5"/>
<path fill="none" stroke="#00aa00" stroke-width="2" d="M584,-91.5C584,-91.5 800,-58.5 800,-58.5"/>
<path fill="none" stroke="#000000" stroke-width="2" d="M584,-91.5C584.3,-93.48 800.3,-60.48 800,-58.5"/>
</g>
<!-- W1&#45;&#45;AUTOGENERATED_F_12 -->
<g id="edge12" class="edge">
<title>W1:e&#45;&#45;AUTOGENERATED_F_12:w</title>
<path fill="none" stroke="#000000" stroke-width="2" d="M584,-66.5C583.51,-64.56 799.51,-9.56 800,-11.5"/>
<path fill="none" stroke="#0066ff" stroke-width="2" d="M584,-66.5C584,-66.5 800,-11.5 800,-11.5"/>
<path fill="none" stroke="#000000" stroke-width="2" d="M584,-66.5C584.49,-68.44 800.49,-13.44 800,-11.5"/>
</g>
</g>
</svg>
