<?xml version="1.0" encoding="UTF-8" standalone="no"?>
<!DOCTYPE svg PUBLIC "-//W3C//DTD SVG 1.1//EN"
 "http://www.w3.org/Graphics/SVG/1.1/DTD/svg11.dtd">
<!-- Generated by graphviz version 2.43.0 (0)
 -->
<!-- Title: %3 Pages: 1 -->
<svg width="1085pt" height="153pt"
 viewBox="0.00 0.00 1085.00 152.50" xmlns="http://www.w3.org/2000/svg" xmlns:xlink="http://www.w3.org/1999/xlink">
<g id="graph0" class="graph" transform="scale(1 1) rotate(0) translate(4 148.5)">
<title>%3</title>
<polygon fill="#ffffff" stroke="transparent" points="-4,4 -4,-148.5 1081,-148.5 1081,4 -4,4"/>
<!-- X1 -->
<g id="node1" class="node">
<title>X1</title>
<polygon fill="#ffffff" stroke="black" points="246,-115 0,-115 0,0 246,0 246,-115"/>
<polygon fill="#ffffff" stroke="transparent" points="0,0 0,-115 246,-115 246,0 0,0"/>
<polygon fill="#ffffff" stroke="transparent" points="0,-91.5 0,-114.5 246,-114.5 246,-91.5 0,-91.5"/>
<polygon fill="none" stroke="black" points="0,-91.5 0,-114.5 246,-114.5 246,-91.5 0,-91.5"/>
<text text-anchor="start" x="103" y="-100.3" font-family="arial" font-size="14.00"> </text>
<text text-anchor="start" x="108" y="-100.3" font-family="arial" font-weight="bold" font-size="14.00"> X1 </text>
<text text-anchor="start" x="138" y="-100.3" font-family="arial" font-size="14.00"> </text>
<polygon fill="none" stroke="black" points="0,-68.5 0,-91.5 112,-91.5 112,-68.5 0,-68.5"/>
<text text-anchor="start" x="6" y="-76.3" font-family="arial" font-size="14.00"> TE 776164&#45;1 </text>
<polygon fill="none" stroke="black" points="112,-68.5 112,-91.5 180,-91.5 180,-68.5 112,-68.5"/>
<text text-anchor="start" x="117.5" y="-76.3" font-family="arial" font-size="14.00"> female </text>
<polygon fill="none" stroke="black" points="180,-68.5 180,-91.5 246,-91.5 246,-68.5 180,-68.5"/>
<text text-anchor="start" x="185.5" y="-76.3" font-family="arial" font-size="14.00"> 35&#45;pin </text>
<polygon fill="none" stroke="black" points="0,-45.5 0,-68.5 164,-68.5 164,-45.5 0,-45.5"/>
<text text-anchor="start" x="59" y="-53.3" font-family="arial" font-size="14.00"> None </text>
<polygon fill="none" stroke="black" points="164,-45.5 164,-68.5 246,-68.5 246,-45.5 164,-45.5"/>
<text text-anchor="start" x="195.5" y="-53.3" font-family="arial" font-size="14.00"> 5 </text>
<polygon fill="none" stroke="black" points="0,-22.5 0,-45.5 164,-45.5 164,-22.5 0,-22.5"/>
<text text-anchor="start" x="59" y="-30.3" font-family="arial" font-size="14.00"> None </text>
<polygon fill="none" stroke="black" points="164,-22.5 164,-45.5 246,-45.5 246,-22.5 164,-22.5"/>
<text text-anchor="start" x="195.5" y="-30.3" font-family="arial" font-size="14.00"> 6 </text>
<polygon fill="none" stroke="black" points="0,0.5 0,-22.5 246,-22.5 246,0.5 0,0.5"/>
<text text-anchor="start" x="4" y="-7.3" font-family="arial" font-size="14.00"> Unconnected pins are not shown </text>
</g>
<!-- C1 -->
<g id="node3" class="node">
<title>C1</title>
<polygon fill="#ffffff" stroke="black" points="615,-144.5 462,-144.5 462,-10.5 615,-10.5 615,-144.5"/>
<polygon fill="#ffffff" stroke="transparent" points="462,-10.5 462,-144.5 615,-144.5 615,-10.5 462,-10.5"/>
<polygon fill="#ffffff" stroke="transparent" points="462.5,-121.5 462.5,-144.5 615.5,-144.5 615.5,-121.5 462.5,-121.5"/>
<polygon fill="none" stroke="black" points="462.5,-121.5 462.5,-144.5 615.5,-144.5 615.5,-121.5 462.5,-121.5"/>
<text text-anchor="start" x="519" y="-130.3" font-family="arial" font-size="14.00"> </text>
<text text-anchor="start" x="524" y="-130.3" font-family="arial" font-weight="bold" font-size="14.00"> C1 </text>
<text text-anchor="start" x="554" y="-130.3" font-family="arial" font-size="14.00"> </text>
<polygon fill="none" stroke="black" points="462.5,-98.5 462.5,-121.5 497.5,-121.5 497.5,-98.5 462.5,-98.5"/>
<text text-anchor="start" x="466.5" y="-106.3" font-family="arial" font-size="14.00"> 2x </text>
<polygon fill="none" stroke="black" points="497.5,-98.5 497.5,-121.5 570.5,-121.5 570.5,-98.5 497.5,-98.5"/>
<text text-anchor="start" x="501.5" y="-106.3" font-family="arial" font-size="14.00"> 20 AWG </text>
<polygon fill="none" stroke="black" points="570.5,-98.5 570.5,-121.5 615.5,-121.5 615.5,-98.5 570.5,-98.5"/>
<text text-anchor="start" x="574.5" y="-106.3" font-family="arial" font-size="14.00"> 1 m </text>
<text text-anchor="start" x="483" y="-85.3" font-family="arial" font-size="14.00"> </text>
<text text-anchor="start" x="464.5" y="-66.3" font-family="arial" font-size="14.00"> X1:5 </text>
<text text-anchor="start" x="510.5" y="-66.3" font-family="arial" font-size="14.00"> </text>
<text text-anchor="start" x="521.5" y="-66.3" font-family="arial" font-size="14.00"> 1:YE </text>
<text text-anchor="start" x="567.5" y="-66.3" font-family="arial" font-size="14.00"> </text>
<text text-anchor="start" x="576.5" y="-66.3" font-family="arial" font-size="14.00"> X2:7</text>
<polygon fill="#000000" stroke="transparent" points="462.5,-58.5 462.5,-60.5 615.5,-60.5 615.5,-58.5 462.5,-58.5"/>
<polygon fill="#ffff00" stroke="transparent" points="462.5,-56.5 462.5,-58.5 615.5,-58.5 615.5,-56.5 462.5,-56.5"/>
<polygon fill="#000000" stroke="transparent" points="462.5,-54.5 462.5,-56.5 615.5,-56.5 615.5,-54.5 462.5,-54.5"/>
<text text-anchor="start" x="464.5" y="-41.3" font-family="arial" font-size="14.00"> X1:6 </text>
<text text-anchor="start" x="510.5" y="-41.3" font-family="arial" font-size="14.00"> </text>
<text text-anchor="start" x="519.5" y="-41.3" font-family="arial" font-size="14.00"> 2:GN </text>
<text text-anchor="start" x="567.5" y="-41.3" font-family="arial" font-size="14.00"> </text>
<text text-anchor="start" x="576.5" y="-41.3" font-family="arial" font-size="14.00"> X2:2</text>
<polygon fill="#000000" stroke="transparent" points="462.5,-33.5 462.5,-35.5 615.5,-35.5 615.5,-33.5 462.5,-33.5"/>
<polygon fill="#00aa00" stroke="transparent" points="462.5,-31.5 462.5,-33.5 615.5,-33.5 615.5,-31.5 462.5,-31.5"/>
<polygon fill="#000000" stroke="transparent" points="462.5,-29.5 462.5,-31.5 615.5,-31.5 615.5,-29.5 462.5,-29.5"/>
<text text-anchor="start" x="483" y="-16.3" font-family="arial" font-size="14.00"> </text>
</g>
<!-- X1&#45;&#45;C1 -->
<g id="edge1" class="edge">
<title>X1:e&#45;&#45;C1:w</title>
<path fill="none" stroke="#000000" stroke-width="2" d="M246,-56.5C246.01,-54.5 462.01,-55.5 462,-57.5"/>
<path fill="none" stroke="#ffff00" stroke-width="2" d="M246,-56.5C246,-56.5 462,-57.5 462,-57.5"/>
<path fill="none" stroke="#000000" stroke-width="2" d="M246,-56.5C245.99,-58.5 461.99,-59.5 462,-57.5"/>
</g>
<!-- X1&#45;&#45;C1 -->
<g id="edge3" class="edge">
<title>X1:e&#45;&#45;C1:w</title>
<path fill="none" stroke="#000000" stroke-width="2" d="M246,-33.5C245.99,-31.5 461.99,-30.5 462,-32.5"/>
<path fill="none" stroke="#00aa00" stroke-width="2" d="M246,-33.5C246,-33.5 462,-32.5 462,-32.5"/>
<path fill="none" stroke="#000000" stroke-width="2" d="M246,-33.5C246.01,-35.5 462.01,-34.5 462,-32.5"/>
</g>
<!-- X2 -->
<g id="node2" class="node">
<title>X2</title>
<polygon fill="#ffffff" stroke="black" points="1077,-115 831,-115 831,0 1077,0 1077,-115"/>
<polygon fill="#ffffff" stroke="transparent" points="831,0 831,-115 1077,-115 1077,0 831,0"/>
<polygon fill="#ffffff" stroke="transparent" points="831,-91.5 831,-114.5 1077,-114.5 1077,-91.5 831,-91.5"/>
<polygon fill="none" stroke="black" points="831,-91.5 831,-114.5 1077,-114.5 1077,-91.5 831,-91.5"/>
<text text-anchor="start" x="934" y="-100.3" font-family="arial" font-size="14.00"> </text>
<text text-anchor="start" x="939" y="-100.3" font-family="arial" font-weight="bold" font-size="14.00"> X2 </text>
<text text-anchor="start" x="969" y="-100.3" font-family="arial" font-size="14.00"> </text>
<polygon fill="none" stroke="black" points="831,-68.5 831,-91.5 914,-91.5 914,-68.5 831,-68.5"/>
<text text-anchor="start" x="846.5" y="-76.3" font-family="arial" font-size="14.00"> D&#45;Sub </text>
<polygon fill="none" stroke="black" points="914,-68.5 914,-91.5 1001,-91.5 1001,-68.5 914,-68.5"/>
<text text-anchor="start" x="929" y="-76.3" font-family="arial" font-size="14.00"> female </text>
<polygon fill="none" stroke="black" points="1001,-68.5 1001,-91.5 1077,-91.5 1077,-68.5 1001,-68.5"/>
<text text-anchor="start" x="1016" y="-76.3" font-family="arial" font-size="14.00"> 9&#45;pin </text>
<polygon fill="none" stroke="black" points="831,-45.5 831,-68.5 913,-68.5 913,-45.5 831,-45.5"/>
<text text-anchor="start" x="862.5" y="-53.3" font-family="arial" font-size="14.00"> 2 </text>
<polygon fill="none" stroke="black" points="913,-45.5 913,-68.5 1077,-68.5 1077,-45.5 913,-45.5"/>
<text text-anchor="start" x="972" y="-53.3" font-family="arial" font-size="14.00"> None </text>
<polygon fill="none" stroke="black" points="831,-22.5 831,-45.5 913,-45.5 913,-22.5 831,-22.5"/>
<text text-anchor="start" x="862.5" y="-30.3" font-family="arial" font-size="14.00"> 7 </text>
<polygon fill="none" stroke="black" points="913,-22.5 913,-45.5 1077,-45.5 1077,-22.5 913,-22.5"/>
<text text-anchor="start" x="972" y="-30.3" font-family="arial" font-size="14.00"> None </text>
<polygon fill="none" stroke="black" points="831,0.5 831,-22.5 1077,-22.5 1077,0.5 831,0.5"/>
<text text-anchor="start" x="835" y="-7.3" font-family="arial" font-size="14.00"> Unconnected pins are not shown </text>
</g>
<!-- C1&#45;&#45;X2 -->
<g id="edge2" class="edge">
<title>C1:e&#45;&#45;X2:w</title>
<path fill="none" stroke="#000000" stroke-width="2" d="M615,-57.5C614.78,-55.51 830.78,-31.51 831,-33.5"/>
<path fill="none" stroke="#ffff00" stroke-width="2" d="M615,-57.5C615,-57.5 831,-33.5 831,-33.5"/>
<path fill="none" stroke="#000000" stroke-width="2" d="M615,-57.5C615.22,-59.49 831.22,-35.49 831,-33.5"/>
</g>
<!-- C1&#45;&#45;X2 -->
<g id="edge4" class="edge">
<title>C1:e&#45;&#45;X2:w</title>
<path fill="none" stroke="#000000" stroke-width="2" d="M615,-32.5C615.22,-30.51 831.22,-54.51 831,-56.5"/>
<path fill="none" stroke="#00aa00" stroke-width="2" d="M615,-32.5C615,-32.5 831,-56.5 831,-56.5"/>
<path fill="none" stroke="#000000" stroke-width="2" d="M615,-32.5C614.78,-34.49 830.78,-58.49 831,-56.5"/>
</g>
</g>
</svg>
