<?xml version="1.0" encoding="UTF-8" standalone="no"?>
<!DOCTYPE svg PUBLIC "-//W3C//DTD SVG 1.1//EN"
 "http://www.w3.org/Graphics/SVG/1.1/DTD/svg11.dtd">
<!-- Generated by graphviz version 2.43.0 (0)
 -->
<!-- Title: %3 Pages: 1 -->
<svg width="1003pt" height="153pt"
 viewBox="0.00 0.00 1003.00 152.50" xmlns="http://www.w3.org/2000/svg" xmlns:xlink="http://www.w3.org/1999/xlink">
<g id="graph0" class="graph" transform="scale(1 1) rotate(0) translate(4 148.5)">
<title>%3</title>
<polygon fill="#ffffff" stroke="transparent" points="-4,4 -4,-148.5 999,-148.5 999,4 -4,4"/>
<!-- X1 -->
<g id="node1" class="node">
<title>X1</title>
<polygon fill="#ffffff" stroke="black" points="213,-115 0,-115 0,0 213,0 213,-115"/>
<polygon fill="#ffffff" stroke="transparent" points="0,0 0,-115 213,-115 213,0 0,0"/>
<polygon fill="#ffffff" stroke="transparent" points="0.5,-91.5 0.5,-114.5 213.5,-114.5 213.5,-91.5 0.5,-91.5"/>
<polygon fill="none" stroke="black" points="0.5,-91.5 0.5,-114.5 213.5,-114.5 213.5,-91.5 0.5,-91.5"/>
<text text-anchor="start" x="90.5" y="-100.3" font-family="arial" font-size="14.00"> </text>
<text text-anchor="start" x="94.5" y="-100.3" font-family="arial" font-weight="bold" font-size="14.00"> X1 </text>
<text text-anchor="start" x="119.5" y="-100.3" font-family="arial" font-size="14.00"> </text>
<polygon fill="none" stroke="black" points="0.5,-68.5 0.5,-91.5 97.5,-91.5 97.5,-68.5 0.5,-68.5"/>
<text text-anchor="start" x="6" y="-76.3" font-family="arial" font-size="14.00"> TE 776164&#45;1 </text>
<polygon fill="none" stroke="black" points="97.5,-68.5 97.5,-91.5 157.5,-91.5 157.5,-68.5 97.5,-68.5"/>
<text text-anchor="start" x="103" y="-76.3" font-family="arial" font-size="14.00"> female </text>
<polygon fill="none" stroke="black" points="157.5,-68.5 157.5,-91.5 213.5,-91.5 213.5,-68.5 157.5,-68.5"/>
<text text-anchor="start" x="162.5" y="-76.3" font-family="arial" font-size="14.00"> 35&#45;pin </text>
<polygon fill="none" stroke="black" points="0.5,-45.5 0.5,-68.5 142.5,-68.5 142.5,-45.5 0.5,-45.5"/>
<text text-anchor="start" x="51.5" y="-53.3" font-family="arial" font-size="14.00"> None </text>
<polygon fill="none" stroke="black" points="142.5,-45.5 142.5,-68.5 213.5,-68.5 213.5,-45.5 142.5,-45.5"/>
<text text-anchor="start" x="170" y="-53.3" font-family="arial" font-size="14.00"> 5 </text>
<polygon fill="none" stroke="black" points="0.5,-22.5 0.5,-45.5 142.5,-45.5 142.5,-22.5 0.5,-22.5"/>
<text text-anchor="start" x="51.5" y="-30.3" font-family="arial" font-size="14.00"> None </text>
<polygon fill="none" stroke="black" points="142.5,-22.5 142.5,-45.5 213.5,-45.5 213.5,-22.5 142.5,-22.5"/>
<text text-anchor="start" x="170" y="-30.3" font-family="arial" font-size="14.00"> 6 </text>
<polygon fill="none" stroke="black" points="0.5,0.5 0.5,-22.5 213.5,-22.5 213.5,0.5 0.5,0.5"/>
<text text-anchor="start" x="4.5" y="-7.3" font-family="arial" font-size="14.00"> Unconnected pins are not shown </text>
</g>
<!-- C1 -->
<g id="node3" class="node">
<title>C1</title>
<polygon fill="#ffffff" stroke="black" points="566,-144.5 429,-144.5 429,-10.5 566,-10.5 566,-144.5"/>
<polygon fill="#ffffff" stroke="transparent" points="429,-10.5 429,-144.5 566,-144.5 566,-10.5 429,-10.5"/>
<polygon fill="#ffffff" stroke="transparent" points="429.5,-121.5 429.5,-144.5 566.5,-144.5 566.5,-121.5 429.5,-121.5"/>
<polygon fill="none" stroke="black" points="429.5,-121.5 429.5,-144.5 566.5,-144.5 566.5,-121.5 429.5,-121.5"/>
<text text-anchor="start" x="481.5" y="-130.3" font-family="arial" font-size="14.00"> </text>
<text text-anchor="start" x="485.5" y="-130.3" font-family="arial" font-weight="bold" font-size="14.00"> C1 </text>
<text text-anchor="start" x="510.5" y="-130.3" font-family="arial" font-size="14.00"> </text>
<polygon fill="none" stroke="black" points="429.5,-98.5 429.5,-121.5 459.5,-121.5 459.5,-98.5 429.5,-98.5"/>
<text text-anchor="start" x="433.5" y="-106.3" font-family="arial" font-size="14.00"> 2x </text>
<polygon fill="none" stroke="black" points="459.5,-98.5 459.5,-121.5 527.5,-121.5 527.5,-98.5 459.5,-98.5"/>
<text text-anchor="start" x="463.5" y="-106.3" font-family="arial" font-size="14.00"> 20 AWG </text>
<polygon fill="none" stroke="black" points="527.5,-98.5 527.5,-121.5 566.5,-121.5 566.5,-98.5 527.5,-98.5"/>
<text text-anchor="start" x="531.5" y="-106.3" font-family="arial" font-size="14.00"> 1 m </text>
<text text-anchor="start" x="448" y="-85.3" font-family="arial" font-size="14.00"> </text>
<text text-anchor="start" x="431.5" y="-66.3" font-family="arial" font-size="14.00"> X1:5 </text>
<text text-anchor="start" x="472.5" y="-66.3" font-family="arial" font-size="14.00"> </text>
<text text-anchor="start" x="482" y="-66.3" font-family="arial" font-size="14.00"> 1:YE </text>
<text text-anchor="start" x="524.5" y="-66.3" font-family="arial" font-size="14.00"> </text>
<text text-anchor="start" x="532.5" y="-66.3" font-family="arial" font-size="14.00"> X2:7</text>
<polygon fill="#000000" stroke="transparent" points="429.5,-58.5 429.5,-60.5 566.5,-60.5 566.5,-58.5 429.5,-58.5"/>
<polygon fill="#ffff00" stroke="transparent" points="429.5,-56.5 429.5,-58.5 566.5,-58.5 566.5,-56.5 429.5,-56.5"/>
<polygon fill="#000000" stroke="transparent" points="429.5,-54.5 429.5,-56.5 566.5,-56.5 566.5,-54.5 429.5,-54.5"/>
<text text-anchor="start" x="431.5" y="-41.3" font-family="arial" font-size="14.00"> X1:6 </text>
<text text-anchor="start" x="472.5" y="-41.3" font-family="arial" font-size="14.00"> </text>
<text text-anchor="start" x="480.5" y="-41.3" font-family="arial" font-size="14.00"> 2:GN </text>
<text text-anchor="start" x="524.5" y="-41.3" font-family="arial" font-size="14.00"> </text>
<text text-anchor="start" x="532.5" y="-41.3" font-family="arial" font-size="14.00"> X2:2</text>
<polygon fill="#000000" stroke="transparent" points="429.5,-33.5 429.5,-35.5 566.5,-35.5 566.5,-33.5 429.5,-33.5"/>
<polygon fill="#00aa00" stroke="transparent" points="429.5,-31.5 429.5,-33.5 566.5,-33.5 566.5,-31.5 429.5,-31.5"/>
<polygon fill="#000000" stroke="transparent" points="429.5,-29.5 429.5,-31.5 566.5,-31.5 566.5,-29.5 429.5,-29.5"/>
<text text-anchor="start" x="448" y="-16.3" font-family="arial" font-size="14.00"> </text>
</g>
<!-- X1&#45;&#45;C1 -->
<g id="edge1" class="edge">
<title>X1:e&#45;&#45;C1:w</title>
<path fill="none" stroke="#000000" stroke-width="2" d="M213,-56.5C213.01,-54.5 429.01,-55.5 429,-57.5"/>
<path fill="none" stroke="#ffff00" stroke-width="2" d="M213,-56.5C213,-56.5 429,-57.5 429,-57.5"/>
<path fill="none" stroke="#000000" stroke-width="2" d="M213,-56.5C212.99,-58.5 428.99,-59.5 429,-57.5"/>
</g>
<!-- X1&#45;&#45;C1 -->
<g id="edge3" class="edge">
<title>X1:e&#45;&#45;C1:w</title>
<path fill="none" stroke="#000000" stroke-width="2" d="M213,-33.5C212.99,-31.5 428.99,-30.5 429,-32.5"/>
<path fill="none" stroke="#00aa00" stroke-width="2" d="M213,-33.5C213,-33.5 429,-32.5 429,-32.5"/>
<path fill="none" stroke="#000000" stroke-width="2" d="M213,-33.5C213.01,-35.5 429.01,-34.5 429,-32.5"/>
</g>
<!-- X2 -->
<g id="node2" class="node">
<title>X2</title>
<polygon fill="#ffffff" stroke="black" points="995,-115 782,-115 782,0 995,0 995,-115"/>
<polygon fill="#ffffff" stroke="transparent" points="782,0 782,-115 995,-115 995,0 782,0"/>
<polygon fill="#ffffff" stroke="transparent" points="782.5,-91.5 782.5,-114.5 995.5,-114.5 995.5,-91.5 782.5,-91.5"/>
<polygon fill="none" stroke="black" points="782.5,-91.5 782.5,-114.5 995.5,-114.5 995.5,-91.5 782.5,-91.5"/>
<text text-anchor="start" x="872.5" y="-100.3" font-family="arial" font-size="14.00"> </text>
<text text-anchor="start" x="876.5" y="-100.3" font-family="arial" font-weight="bold" font-size="14.00"> X2 </text>
<text text-anchor="start" x="901.5" y="-100.3" font-family="arial" font-size="14.00"> </text>
<polygon fill="none" stroke="black" points="782.5,-68.5 782.5,-91.5 855.5,-91.5 855.5,-68.5 782.5,-68.5"/>
<text text-anchor="start" x="796" y="-76.3" font-family="arial" font-size="14.00"> D&#45;Sub </text>
<polygon fill="none" stroke="black" points="855.5,-68.5 855.5,-91.5 931.5,-91.5 931.5,-68.5 855.5,-68.5"/>
<text text-anchor="start" x="869" y="-76.3" font-family="arial" font-size="14.00"> female </text>
<polygon fill="none" stroke="black" points="931.5,-68.5 931.5,-91.5 995.5,-91.5 995.5,-68.5 931.5,-68.5"/>
<text text-anchor="start" x="944.5" y="-76.3" font-family="arial" font-size="14.00"> 9&#45;pin </text>
<polygon fill="none" stroke="black" points="782.5,-45.5 782.5,-68.5 853.5,-68.5 853.5,-45.5 782.5,-45.5"/>
<text text-anchor="start" x="810" y="-53.3" font-family="arial" font-size="14.00"> 2 </text>
<polygon fill="none" stroke="black" points="853.5,-45.5 853.5,-68.5 995.5,-68.5 995.5,-45.5 853.5,-45.5"/>
<text text-anchor="start" x="904.5" y="-53.3" font-family="arial" font-size="14.00"> None </text>
<polygon fill="none" stroke="black" points="782.5,-22.5 782.5,-45.5 853.5,-45.5 853.5,-22.5 782.5,-22.5"/>
<text text-anchor="start" x="810" y="-30.3" font-family="arial" font-size="14.00"> 7 </text>
<polygon fill="none" stroke="black" points="853.5,-22.5 853.5,-45.5 995.5,-45.5 995.5,-22.5 853.5,-22.5"/>
<text text-anchor="start" x="904.5" y="-30.3" font-family="arial" font-size="14.00"> None </text>
<polygon fill="none" stroke="black" points="782.5,0.5 782.5,-22.5 995.5,-22.5 995.5,0.5 782.5,0.5"/>
<text text-anchor="start" x="786.5" y="-7.3" font-family="arial" font-size="14.00"> Unconnected pins are not shown </text>
</g>
<!-- C1&#45;&#45;X2 -->
<g id="edge2" class="edge">
<title>C1:e&#45;&#45;X2:w</title>
<path fill="none" stroke="#000000" stroke-width="2" d="M566,-57.5C565.78,-55.51 781.78,-31.51 782,-33.5"/>
<path fill="none" stroke="#ffff00" stroke-width="2" d="M566,-57.5C566,-57.5 782,-33.5 782,-33.5"/>
<path fill="none" stroke="#000000" stroke-width="2" d="M566,-57.5C566.22,-59.49 782.22,-35.49 782,-33.5"/>
</g>
<!-- C1&#45;&#45;X2 -->
<g id="edge4" class="edge">
<title>C1:e&#45;&#45;X2:w</title>
<path fill="none" stroke="#000000" stroke-width="2" d="M566,-32.5C566.22,-30.51 782.22,-54.51 782,-56.5"/>
<path fill="none" stroke="#00aa00" stroke-width="2" d="M566,-32.5C566,-32.5 782,-56.5 782,-56.5"/>
<path fill="none" stroke="#000000" stroke-width="2" d="M566,-32.5C565.78,-34.49 781.78,-58.49 782,-56.5"/>
</g>
</g>
</svg>
