<?xml version="1.0" encoding="UTF-8" standalone="no"?>
<!DOCTYPE svg PUBLIC "-//W3C//DTD SVG 1.1//EN"
 "http://www.w3.org/Graphics/SVG/1.1/DTD/svg11.dtd">
<!-- Generated by graphviz version 2.43.0 (0)
 -->
<!-- Title: %3 Pages: 1 -->
<svg width="2035pt" height="281pt"
 viewBox="0.00 0.00 2035.00 281.00" xmlns="http://www.w3.org/2000/svg" xmlns:xlink="http://www.w3.org/1999/xlink">
<g id="graph0" class="graph" transform="scale(1 1) rotate(0) translate(4 277)">
<title>%3</title>
<polygon fill="#ffffff" stroke="transparent" points="-4,4 -4,-277 2031,-277 2031,4 -4,4"/>
<!-- X1 -->
<g id="node1" class="node">
<title>X1</title>
<polygon fill="#ffffff" stroke="black" points="754,-264 397,-264 397,-34 754,-34 754,-264"/>
<polygon fill="#ffffff" stroke="transparent" points="397,-34 397,-264 754,-264 754,-34 397,-34"/>
<polygon fill="#ffffff" stroke="transparent" points="397.5,-241 397.5,-264 754.5,-264 754.5,-241 397.5,-241"/>
<polygon fill="none" stroke="black" points="397.5,-241 397.5,-264 754.5,-264 754.5,-241 397.5,-241"/>
<text text-anchor="start" x="556" y="-249.8" font-family="arial" font-size="14.00"> </text>
<text text-anchor="start" x="561" y="-249.8" font-family="arial" font-weight="bold" font-size="14.00"> X1 </text>
<text text-anchor="start" x="591" y="-249.8" font-family="arial" font-size="14.00"> </text>
<polygon fill="none" stroke="black" points="397.5,-218 397.5,-241 649.5,-241 649.5,-218 397.5,-218"/>
<text text-anchor="start" x="401.5" y="-225.8" font-family="arial" font-size="14.00"> Stewart Connector SS&#45;37000&#45;002 </text>
<polygon fill="none" stroke="black" points="649.5,-218 649.5,-241 700.5,-241 700.5,-218 649.5,-218"/>
<text text-anchor="start" x="653.5" y="-225.8" font-family="arial" font-size="14.00"> male </text>
<polygon fill="none" stroke="black" points="700.5,-218 700.5,-241 754.5,-241 754.5,-218 700.5,-218"/>
<text text-anchor="start" x="704.5" y="-225.8" font-family="arial" font-size="14.00"> 8&#45;pin </text>
<polygon fill="none" stroke="black" points="397.5,-195 397.5,-218 487.5,-218 487.5,-195 397.5,-195"/>
<text text-anchor="start" x="433" y="-202.8" font-family="arial" font-size="14.00"> 1 </text>
<polygon fill="none" stroke="black" points="487.5,-195 487.5,-218 664.5,-218 664.5,-195 487.5,-195"/>
<text text-anchor="start" x="555" y="-202.8" font-family="arial" font-size="14.00"> DA+ </text>
<polygon fill="none" stroke="black" points="664.5,-195 664.5,-218 754.5,-218 754.5,-195 664.5,-195"/>
<text text-anchor="start" x="700" y="-202.8" font-family="arial" font-size="14.00"> 1 </text>
<polygon fill="none" stroke="black" points="397.5,-172 397.5,-195 487.5,-195 487.5,-172 397.5,-172"/>
<text text-anchor="start" x="433" y="-179.8" font-family="arial" font-size="14.00"> 2 </text>
<polygon fill="none" stroke="black" points="487.5,-172 487.5,-195 664.5,-195 664.5,-172 487.5,-172"/>
<text text-anchor="start" x="559" y="-179.8" font-family="arial" font-size="14.00"> DA&#45; </text>
<polygon fill="none" stroke="black" points="664.5,-172 664.5,-195 754.5,-195 754.5,-172 664.5,-172"/>
<text text-anchor="start" x="700" y="-179.8" font-family="arial" font-size="14.00"> 2 </text>
<polygon fill="none" stroke="black" points="397.5,-149 397.5,-172 487.5,-172 487.5,-149 397.5,-149"/>
<text text-anchor="start" x="433" y="-156.8" font-family="arial" font-size="14.00"> 3 </text>
<polygon fill="none" stroke="black" points="487.5,-149 487.5,-172 664.5,-172 664.5,-149 487.5,-149"/>
<text text-anchor="start" x="558" y="-156.8" font-family="arial" font-size="14.00"> LB4 </text>
<polygon fill="none" stroke="black" points="664.5,-149 664.5,-172 754.5,-172 754.5,-149 664.5,-149"/>
<text text-anchor="start" x="700" y="-156.8" font-family="arial" font-size="14.00"> 3 </text>
<polygon fill="none" stroke="black" points="397.5,-126 397.5,-149 487.5,-149 487.5,-126 397.5,-126"/>
<text text-anchor="start" x="433" y="-133.8" font-family="arial" font-size="14.00"> 4 </text>
<polygon fill="none" stroke="black" points="487.5,-126 487.5,-149 664.5,-149 664.5,-126 487.5,-126"/>
<text text-anchor="start" x="558" y="-133.8" font-family="arial" font-size="14.00"> LB3 </text>
<polygon fill="none" stroke="black" points="664.5,-126 664.5,-149 754.5,-149 754.5,-126 664.5,-126"/>
<text text-anchor="start" x="700" y="-133.8" font-family="arial" font-size="14.00"> 4 </text>
<polygon fill="none" stroke="black" points="397.5,-103 397.5,-126 487.5,-126 487.5,-103 397.5,-103"/>
<text text-anchor="start" x="433" y="-110.8" font-family="arial" font-size="14.00"> 5 </text>
<polygon fill="none" stroke="black" points="487.5,-103 487.5,-126 664.5,-126 664.5,-103 487.5,-103"/>
<text text-anchor="start" x="554.5" y="-110.8" font-family="arial" font-size="14.00"> DD+ </text>
<polygon fill="none" stroke="black" points="664.5,-103 664.5,-126 754.5,-126 754.5,-103 664.5,-103"/>
<text text-anchor="start" x="700" y="-110.8" font-family="arial" font-size="14.00"> 5 </text>
<polygon fill="none" stroke="black" points="397.5,-80 397.5,-103 487.5,-103 487.5,-80 397.5,-80"/>
<text text-anchor="start" x="433" y="-87.8" font-family="arial" font-size="14.00"> 6 </text>
<polygon fill="none" stroke="black" points="487.5,-80 487.5,-103 664.5,-103 664.5,-80 487.5,-80"/>
<text text-anchor="start" x="558" y="-87.8" font-family="arial" font-size="14.00"> DD&#45; </text>
<polygon fill="none" stroke="black" points="664.5,-80 664.5,-103 754.5,-103 754.5,-80 664.5,-80"/>
<text text-anchor="start" x="700" y="-87.8" font-family="arial" font-size="14.00"> 6 </text>
<polygon fill="none" stroke="black" points="397.5,-57 397.5,-80 487.5,-80 487.5,-57 397.5,-57"/>
<text text-anchor="start" x="433" y="-64.8" font-family="arial" font-size="14.00"> 7 </text>
<polygon fill="none" stroke="black" points="487.5,-57 487.5,-80 664.5,-80 664.5,-57 487.5,-57"/>
<text text-anchor="start" x="558" y="-64.8" font-family="arial" font-size="14.00"> LB1 </text>
<polygon fill="none" stroke="black" points="664.5,-57 664.5,-80 754.5,-80 754.5,-57 664.5,-57"/>
<text text-anchor="start" x="700" y="-64.8" font-family="arial" font-size="14.00"> 7 </text>
<polygon fill="none" stroke="black" points="397.5,-34 397.5,-57 487.5,-57 487.5,-34 397.5,-34"/>
<text text-anchor="start" x="433" y="-41.8" font-family="arial" font-size="14.00"> 8 </text>
<polygon fill="none" stroke="black" points="487.5,-34 487.5,-57 664.5,-57 664.5,-34 487.5,-34"/>
<text text-anchor="start" x="558" y="-41.8" font-family="arial" font-size="14.00"> LB2 </text>
<polygon fill="none" stroke="black" points="664.5,-34 664.5,-57 754.5,-57 754.5,-34 664.5,-34"/>
<text text-anchor="start" x="700" y="-41.8" font-family="arial" font-size="14.00"> 8 </text>
</g>
<!-- X1&#45;&#45;X1 -->
<g id="edge1" class="edge">
<title>X1:w&#45;&#45;X1:w</title>
<path fill="none" stroke="#ff66cc" stroke-width="2" d="M397.5,-207C312.33,-219 143,-219 143,-195.5 143,-172 312.33,-172 397.5,-184"/>
<text text-anchor="middle" x="71.5" y="-184.3" font-family="arial" font-size="14.00">X1:1:DA+⇿X1:2:DA&#45;</text>
</g>
<!-- X1&#45;&#45;X1 -->
<g id="edge2" class="edge">
<title>X1:w&#45;&#45;X1:w</title>
<path fill="none" stroke="black" stroke-width="2" d="M397.5,-137C312.33,-125 143,-125 143,-149 143,-173 312.33,-173 397.5,-161"/>
<text text-anchor="middle" x="73.5" y="-137.8" font-family="arial" font-size="14.00">X1:4:LB3⇿X1:3:LB4</text>
</g>
<!-- W1 -->
<g id="node3" class="node">
<title>W1</title>
<polygon fill="#ffffff" stroke="black" points="1200,-273 970,-273 970,-89 1200,-89 1200,-273"/>
<polygon fill="#ffffff" stroke="transparent" points="970,-89 970,-273 1200,-273 1200,-89 970,-89"/>
<polygon fill="#ffffff" stroke="transparent" points="970,-250 970,-273 1200,-273 1200,-250 970,-250"/>
<polygon fill="none" stroke="black" points="970,-250 970,-273 1200,-273 1200,-250 970,-250"/>
<text text-anchor="start" x="1062.5" y="-258.8" font-family="arial" font-size="14.00"> </text>
<text text-anchor="start" x="1067.5" y="-258.8" font-family="arial" font-weight="bold" font-size="14.00"> W1 </text>
<text text-anchor="start" x="1102.5" y="-258.8" font-family="arial" font-size="14.00"> </text>
<polygon fill="none" stroke="black" points="970,-227 970,-250 1035,-250 1035,-227 970,-227"/>
<text text-anchor="start" x="976" y="-234.8" font-family="arial" font-size="14.00"> CAT5e </text>
<polygon fill="none" stroke="black" points="1035,-227 1035,-250 1074,-250 1074,-227 1035,-227"/>
<text text-anchor="start" x="1041" y="-234.8" font-family="arial" font-size="14.00"> 4x </text>
<polygon fill="none" stroke="black" points="1074,-227 1074,-250 1151,-250 1151,-227 1074,-227"/>
<text text-anchor="start" x="1080" y="-234.8" font-family="arial" font-size="14.00"> 24 AWG </text>
<polygon fill="none" stroke="black" points="1151,-227 1151,-250 1200,-250 1200,-227 1151,-227"/>
<text text-anchor="start" x="1157" y="-234.8" font-family="arial" font-size="14.00"> 1 m </text>
<text text-anchor="start" x="1009" y="-213.8" font-family="arial" font-size="14.00"> </text>
<text text-anchor="start" x="972" y="-194.8" font-family="arial" font-size="14.00"> X1:1:DA+ </text>
<text text-anchor="start" x="1055" y="-194.8" font-family="arial" font-size="14.00"> </text>
<text text-anchor="start" x="1064" y="-194.8" font-family="arial" font-size="14.00"> 1:WH </text>
<text text-anchor="start" x="1115" y="-194.8" font-family="arial" font-size="14.00"> </text>
<text text-anchor="start" x="1124" y="-194.8" font-family="arial" font-size="14.00"> X2:3:DA+</text>
<polygon fill="#000000" stroke="transparent" points="970,-187 970,-189 1200,-189 1200,-187 970,-187"/>
<polygon fill="#ffffff" stroke="transparent" points="970,-185 970,-187 1200,-187 1200,-185 970,-185"/>
<polygon fill="#000000" stroke="transparent" points="970,-183 970,-185 1200,-185 1200,-183 970,-183"/>
<text text-anchor="start" x="972" y="-169.8" font-family="arial" font-size="14.00"> X1:2:DA&#45; </text>
<text text-anchor="start" x="1055" y="-169.8" font-family="arial" font-size="14.00"> </text>
<text text-anchor="start" x="1065.5" y="-169.8" font-family="arial" font-size="14.00"> 2:GN </text>
<text text-anchor="start" x="1115" y="-169.8" font-family="arial" font-size="14.00"> </text>
<text text-anchor="start" x="1142" y="-169.8" font-family="arial" font-size="14.00"> X2:6:A&#45;</text>
<polygon fill="#000000" stroke="transparent" points="970,-162 970,-164 1200,-164 1200,-162 970,-162"/>
<polygon fill="#00aa00" stroke="transparent" points="970,-160 970,-162 1200,-162 1200,-160 970,-160"/>
<polygon fill="#000000" stroke="transparent" points="970,-158 970,-160 1200,-160 1200,-158 970,-158"/>
<text text-anchor="start" x="972" y="-144.8" font-family="arial" font-size="14.00"> X1:5:DD+ </text>
<text text-anchor="start" x="1055" y="-144.8" font-family="arial" font-size="14.00"> </text>
<text text-anchor="start" x="1064" y="-144.8" font-family="arial" font-size="14.00"> 3:WH </text>
<text text-anchor="start" x="1115" y="-144.8" font-family="arial" font-size="14.00"> </text>
<text text-anchor="start" x="1134" y="-144.8" font-family="arial" font-size="14.00"> X2:4:D+</text>
<polygon fill="#000000" stroke="transparent" points="970,-137 970,-139 1200,-139 1200,-137 970,-137"/>
<polygon fill="#ffffff" stroke="transparent" points="970,-135 970,-137 1200,-137 1200,-135 970,-135"/>
<polygon fill="#000000" stroke="transparent" points="970,-133 970,-135 1200,-135 1200,-133 970,-133"/>
<text text-anchor="start" x="972" y="-119.8" font-family="arial" font-size="14.00"> X1:6:DD&#45; </text>
<text text-anchor="start" x="1055" y="-119.8" font-family="arial" font-size="14.00"> </text>
<text text-anchor="start" x="1066" y="-119.8" font-family="arial" font-size="14.00"> 4:BU </text>
<text text-anchor="start" x="1115" y="-119.8" font-family="arial" font-size="14.00"> </text>
<text text-anchor="start" x="1140" y="-119.8" font-family="arial" font-size="14.00"> X2:5:D&#45;</text>
<polygon fill="#000000" stroke="transparent" points="970,-112 970,-114 1200,-114 1200,-112 970,-112"/>
<polygon fill="#0066ff" stroke="transparent" points="970,-110 970,-112 1200,-112 1200,-110 970,-110"/>
<polygon fill="#000000" stroke="transparent" points="970,-108 970,-110 1200,-110 1200,-108 970,-108"/>
<text text-anchor="start" x="1009" y="-94.8" font-family="arial" font-size="14.00"> </text>
</g>
<!-- X1&#45;&#45;W1 -->
<g id="edge5" class="edge">
<title>X1:e&#45;&#45;W1:w</title>
<path fill="none" stroke="#000000" stroke-width="2" d="M754,-207C753.81,-205.01 969.81,-184.01 970,-186"/>
<path fill="none" stroke="#ffffff" stroke-width="2" d="M754,-207C754,-207 970,-186 970,-186"/>
<path fill="none" stroke="#000000" stroke-width="2" d="M754,-207C754.19,-208.99 970.19,-187.99 970,-186"/>
</g>
<!-- X1&#45;&#45;W1 -->
<g id="edge7" class="edge">
<title>X1:e&#45;&#45;W1:w</title>
<path fill="none" stroke="#000000" stroke-width="2" d="M754,-184C753.79,-182.01 969.79,-159.01 970,-161"/>
<path fill="none" stroke="#00aa00" stroke-width="2" d="M754,-184C754,-184 970,-161 970,-161"/>
<path fill="none" stroke="#000000" stroke-width="2" d="M754,-184C754.21,-185.99 970.21,-162.99 970,-161"/>
</g>
<!-- X1&#45;&#45;W1 -->
<g id="edge9" class="edge">
<title>X1:e&#45;&#45;W1:w</title>
<path fill="none" stroke="#000000" stroke-width="2" d="M754,-114C754.2,-112.01 970.2,-134.01 970,-136"/>
<path fill="none" stroke="#ffffff" stroke-width="2" d="M754,-114C754,-114 970,-136 970,-136"/>
<path fill="none" stroke="#000000" stroke-width="2" d="M754,-114C753.8,-115.99 969.8,-137.99 970,-136"/>
</g>
<!-- X1&#45;&#45;W1 -->
<g id="edge11" class="edge">
<title>X1:e&#45;&#45;W1:w</title>
<path fill="none" stroke="#000000" stroke-width="2" d="M754,-91C754.18,-89.01 970.18,-109.01 970,-111"/>
<path fill="none" stroke="#0066ff" stroke-width="2" d="M754,-91C754,-91 970,-111 970,-111"/>
<path fill="none" stroke="#000000" stroke-width="2" d="M754,-91C753.82,-92.99 969.82,-112.99 970,-111"/>
</g>
<!-- X2 -->
<g id="node2" class="node">
<title>X2</title>
<polygon fill="#ffffff" stroke="black" points="1773,-230 1416,-230 1416,0 1773,0 1773,-230"/>
<polygon fill="#ffffff" stroke="transparent" points="1416,0 1416,-230 1773,-230 1773,0 1416,0"/>
<polygon fill="#ffffff" stroke="transparent" points="1416.5,-207 1416.5,-230 1773.5,-230 1773.5,-207 1416.5,-207"/>
<polygon fill="none" stroke="black" points="1416.5,-207 1416.5,-230 1773.5,-230 1773.5,-207 1416.5,-207"/>
<text text-anchor="start" x="1575" y="-215.8" font-family="arial" font-size="14.00"> </text>
<text text-anchor="start" x="1580" y="-215.8" font-family="arial" font-weight="bold" font-size="14.00"> X2 </text>
<text text-anchor="start" x="1610" y="-215.8" font-family="arial" font-size="14.00"> </text>
<polygon fill="none" stroke="black" points="1416.5,-184 1416.5,-207 1668.5,-207 1668.5,-184 1416.5,-184"/>
<text text-anchor="start" x="1420.5" y="-191.8" font-family="arial" font-size="14.00"> Stewart Connector SS&#45;37000&#45;002 </text>
<polygon fill="none" stroke="black" points="1668.5,-184 1668.5,-207 1719.5,-207 1719.5,-184 1668.5,-184"/>
<text text-anchor="start" x="1672.5" y="-191.8" font-family="arial" font-size="14.00"> male </text>
<polygon fill="none" stroke="black" points="1719.5,-184 1719.5,-207 1773.5,-207 1773.5,-184 1719.5,-184"/>
<text text-anchor="start" x="1723.5" y="-191.8" font-family="arial" font-size="14.00"> 8&#45;pin </text>
<polygon fill="none" stroke="black" points="1416.5,-161 1416.5,-184 1507.5,-184 1507.5,-161 1416.5,-161"/>
<text text-anchor="start" x="1452.5" y="-168.8" font-family="arial" font-size="14.00"> 3 </text>
<polygon fill="none" stroke="black" points="1507.5,-161 1507.5,-184 1683.5,-184 1683.5,-161 1507.5,-161"/>
<text text-anchor="start" x="1574.5" y="-168.8" font-family="arial" font-size="14.00"> DA+ </text>
<polygon fill="none" stroke="black" points="1683.5,-161 1683.5,-184 1773.5,-184 1773.5,-161 1683.5,-161"/>
<text text-anchor="start" x="1719" y="-168.8" font-family="arial" font-size="14.00"> 3 </text>
<polygon fill="none" stroke="black" points="1416.5,-138 1416.5,-161 1507.5,-161 1507.5,-138 1416.5,-138"/>
<text text-anchor="start" x="1452.5" y="-145.8" font-family="arial" font-size="14.00"> 4 </text>
<polygon fill="none" stroke="black" points="1507.5,-138 1507.5,-161 1683.5,-161 1683.5,-138 1507.5,-138"/>
<text text-anchor="start" x="1579.5" y="-145.8" font-family="arial" font-size="14.00"> D+ </text>
<polygon fill="none" stroke="black" points="1683.5,-138 1683.5,-161 1773.5,-161 1773.5,-138 1683.5,-138"/>
<text text-anchor="start" x="1719" y="-145.8" font-family="arial" font-size="14.00"> 4 </text>
<polygon fill="none" stroke="black" points="1416.5,-115 1416.5,-138 1507.5,-138 1507.5,-115 1416.5,-115"/>
<text text-anchor="start" x="1452.5" y="-122.8" font-family="arial" font-size="14.00"> 5 </text>
<polygon fill="none" stroke="black" points="1507.5,-115 1507.5,-138 1683.5,-138 1683.5,-115 1507.5,-115"/>
<text text-anchor="start" x="1583" y="-122.8" font-family="arial" font-size="14.00"> D&#45; </text>
<polygon fill="none" stroke="black" points="1683.5,-115 1683.5,-138 1773.5,-138 1773.5,-115 1683.5,-115"/>
<text text-anchor="start" x="1719" y="-122.8" font-family="arial" font-size="14.00"> 5 </text>
<polygon fill="none" stroke="black" points="1416.5,-92 1416.5,-115 1507.5,-115 1507.5,-92 1416.5,-92"/>
<text text-anchor="start" x="1452.5" y="-99.8" font-family="arial" font-size="14.00"> 6 </text>
<polygon fill="none" stroke="black" points="1507.5,-92 1507.5,-115 1683.5,-115 1683.5,-92 1507.5,-92"/>
<text text-anchor="start" x="1583.5" y="-99.8" font-family="arial" font-size="14.00"> A&#45; </text>
<polygon fill="none" stroke="black" points="1683.5,-92 1683.5,-115 1773.5,-115 1773.5,-92 1683.5,-92"/>
<text text-anchor="start" x="1719" y="-99.8" font-family="arial" font-size="14.00"> 6 </text>
<polygon fill="none" stroke="black" points="1416.5,-69 1416.5,-92 1507.5,-92 1507.5,-69 1416.5,-69"/>
<text text-anchor="start" x="1452.5" y="-76.8" font-family="arial" font-size="14.00"> 1 </text>
<polygon fill="none" stroke="black" points="1507.5,-69 1507.5,-92 1683.5,-92 1683.5,-69 1507.5,-69"/>
<text text-anchor="start" x="1577.5" y="-76.8" font-family="arial" font-size="14.00"> LB5 </text>
<polygon fill="none" stroke="black" points="1683.5,-69 1683.5,-92 1773.5,-92 1773.5,-69 1683.5,-69"/>
<text text-anchor="start" x="1719" y="-76.8" font-family="arial" font-size="14.00"> 1 </text>
<polygon fill="none" stroke="black" points="1416.5,-46 1416.5,-69 1507.5,-69 1507.5,-46 1416.5,-46"/>
<text text-anchor="start" x="1452.5" y="-53.8" font-family="arial" font-size="14.00"> 2 </text>
<polygon fill="none" stroke="black" points="1507.5,-46 1507.5,-69 1683.5,-69 1683.5,-46 1507.5,-46"/>
<text text-anchor="start" x="1577.5" y="-53.8" font-family="arial" font-size="14.00"> LB6 </text>
<polygon fill="none" stroke="black" points="1683.5,-46 1683.5,-69 1773.5,-69 1773.5,-46 1683.5,-46"/>
<text text-anchor="start" x="1719" y="-53.8" font-family="arial" font-size="14.00"> 2 </text>
<polygon fill="none" stroke="black" points="1416.5,-23 1416.5,-46 1507.5,-46 1507.5,-23 1416.5,-23"/>
<text text-anchor="start" x="1452.5" y="-30.8" font-family="arial" font-size="14.00"> 7 </text>
<polygon fill="none" stroke="black" points="1507.5,-23 1507.5,-46 1683.5,-46 1683.5,-23 1507.5,-23"/>
<text text-anchor="start" x="1577.5" y="-30.8" font-family="arial" font-size="14.00"> LB7 </text>
<polygon fill="none" stroke="black" points="1683.5,-23 1683.5,-46 1773.5,-46 1773.5,-23 1683.5,-23"/>
<text text-anchor="start" x="1719" y="-30.8" font-family="arial" font-size="14.00"> 7 </text>
<polygon fill="none" stroke="black" points="1416.5,0 1416.5,-23 1507.5,-23 1507.5,0 1416.5,0"/>
<text text-anchor="start" x="1452.5" y="-7.8" font-family="arial" font-size="14.00"> 8 </text>
<polygon fill="none" stroke="black" points="1507.5,0 1507.5,-23 1683.5,-23 1683.5,0 1507.5,0"/>
<text text-anchor="start" x="1577.5" y="-7.8" font-family="arial" font-size="14.00"> LB8 </text>
<polygon fill="none" stroke="black" points="1683.5,0 1683.5,-23 1773.5,-23 1773.5,0 1683.5,0"/>
<text text-anchor="start" x="1719" y="-7.8" font-family="arial" font-size="14.00"> 8 </text>
</g>
<!-- X2&#45;&#45;X2 -->
<g id="edge3" class="edge">
<title>X2:e&#45;&#45;X2:e</title>
<path fill="none" stroke="#ff0000" stroke-width="2" d="M1773.5,-80C1857.67,-92 2027,-92 2027,-68.5 2027,-45 1857.67,-45 1773.5,-57"/>
</g>
<!-- X2&#45;&#45;X2 -->
<g id="edge4" class="edge">
<title>X2:w&#45;&#45;X2:w</title>
<path fill="none" stroke="#00aa00" stroke-width="2" d="M1416.5,-34C1331.33,-46 1162,-46 1162,-22.5 1162,1 1331.33,1 1416.5,-11"/>
<text text-anchor="middle" x="1092.5" y="-11.3" font-family="arial" font-size="14.00">X2:7:LB7⇿X2:8:LB8</text>
</g>
<!-- W1&#45;&#45;X2 -->
<g id="edge6" class="edge">
<title>W1:e&#45;&#45;X2:w</title>
<path fill="none" stroke="#000000" stroke-width="2" d="M1200,-186C1199.88,-184 1415.88,-171 1416,-173"/>
<path fill="none" stroke="#ffffff" stroke-width="2" d="M1200,-186C1200,-186 1416,-173 1416,-173"/>
<path fill="none" stroke="#000000" stroke-width="2" d="M1200,-186C1200.12,-188 1416.12,-175 1416,-173"/>
</g>
<!-- W1&#45;&#45;X2 -->
<g id="edge8" class="edge">
<title>W1:e&#45;&#45;X2:w</title>
<path fill="none" stroke="#000000" stroke-width="2" d="M1200,-161C1199.48,-159.07 1415.48,-101.07 1416,-103"/>
<path fill="none" stroke="#00aa00" stroke-width="2" d="M1200,-161C1200,-161 1416,-103 1416,-103"/>
<path fill="none" stroke="#000000" stroke-width="2" d="M1200,-161C1200.52,-162.93 1416.52,-104.93 1416,-103"/>
</g>
<!-- W1&#45;&#45;X2 -->
<g id="edge10" class="edge">
<title>W1:e&#45;&#45;X2:w</title>
<path fill="none" stroke="#000000" stroke-width="2" d="M1200,-136C1200.13,-134 1416.13,-148 1416,-150"/>
<path fill="none" stroke="#ffffff" stroke-width="2" d="M1200,-136C1200,-136 1416,-150 1416,-150"/>
<path fill="none" stroke="#000000" stroke-width="2" d="M1200,-136C1199.87,-138 1415.87,-152 1416,-150"/>
</g>
<!-- W1&#45;&#45;X2 -->
<g id="edge12" class="edge">
<title>W1:e&#45;&#45;X2:w</title>
<path fill="none" stroke="#000000" stroke-width="2" d="M1200,-111C1200.15,-109.01 1416.15,-125.01 1416,-127"/>
<path fill="none" stroke="#0066ff" stroke-width="2" d="M1200,-111C1200,-111 1416,-127 1416,-127"/>
<path fill="none" stroke="#000000" stroke-width="2" d="M1200,-111C1199.85,-112.99 1415.85,-128.99 1416,-127"/>
</g>
</g>
</svg>
