<?xml version="1.0" encoding="UTF-8" standalone="no"?>
<!DOCTYPE svg PUBLIC "-//W3C//DTD SVG 1.1//EN"
 "http://www.w3.org/Graphics/SVG/1.1/DTD/svg11.dtd">
<!-- Generated by graphviz version 6.0.1 (20220911.1526)
 -->
<!-- Pages: 1 -->
<svg width="1163pt" height="336pt"
 viewBox="0.00 0.00 1163.00 336.00" xmlns="http://www.w3.org/2000/svg" xmlns:xlink="http://www.w3.org/1999/xlink">
<g id="graph0" class="graph" transform="scale(1 1) rotate(0) translate(4 332)">
<polygon fill="#ffffff" stroke="none" points="-4,4 -4,-332 1159,-332 1159,4 -4,4"/>
<!-- X1 -->
<g id="node1" class="node">
<title>X1</title>
<polygon fill="#ffffff" stroke="black" points="204,-291 0,-291 0,-61 204,-61 204,-291"/>
<polygon fill="#ffffff" stroke="none" points="0,-61 0,-291 204,-291 204,-61 0,-61"/>
<polygon fill="#ffffff" stroke="none" points="0,-268 0,-291 204,-291 204,-268 0,-268"/>
<polygon fill="none" stroke="black" points="0,-268 0,-291 204,-291 204,-268 0,-268"/>
<text text-anchor="start" x="85.5" y="-276.8" font-family="arial" font-size="14.00"> </text>
<text text-anchor="start" x="89.5" y="-276.8" font-family="arial" font-weight="bold" font-size="14.00"> X1 </text>
<text text-anchor="start" x="114.5" y="-276.8" font-family="arial" font-size="14.00"> </text>
<polygon fill="none" stroke="black" points="0,-245 0,-268 101,-268 101,-245 0,-245"/>
<text text-anchor="start" x="4" y="-252.8" font-family="arial" font-size="14.00"> Molex KK 254 </text>
<polygon fill="none" stroke="black" points="101,-245 101,-268 158,-268 158,-245 101,-245"/>
<text text-anchor="start" x="105" y="-252.8" font-family="arial" font-size="14.00"> female </text>
<polygon fill="none" stroke="black" points="158,-245 158,-268 204,-268 204,-245 158,-245"/>
<text text-anchor="start" x="162" y="-252.8" font-family="arial" font-size="14.00"> 8&#45;pin </text>
<polygon fill="none" stroke="black" points="0,-222 0,-245 138,-245 138,-222 0,-222"/>
<text text-anchor="start" x="49.5" y="-229.8" font-family="arial" font-size="14.00"> GND </text>
<polygon fill="none" stroke="black" points="138,-222 138,-245 204,-245 204,-222 138,-222"/>
<text text-anchor="start" x="163" y="-229.8" font-family="arial" font-size="14.00"> 1 </text>
<polygon fill="none" stroke="black" points="0,-199 0,-222 138,-222 138,-199 0,-199"/>
<text text-anchor="start" x="50.5" y="-206.8" font-family="arial" font-size="14.00"> VCC </text>
<polygon fill="none" stroke="black" points="138,-199 138,-222 204,-222 204,-199 138,-199"/>
<text text-anchor="start" x="163" y="-206.8" font-family="arial" font-size="14.00"> 2 </text>
<polygon fill="none" stroke="black" points="0,-176 0,-199 138,-199 138,-176 0,-176"/>
<text text-anchor="start" x="47" y="-183.8" font-family="arial" font-size="14.00"> RX_N </text>
<polygon fill="none" stroke="black" points="138,-176 138,-199 204,-199 204,-176 138,-176"/>
<text text-anchor="start" x="163" y="-183.8" font-family="arial" font-size="14.00"> 3 </text>
<polygon fill="none" stroke="black" points="0,-153 0,-176 138,-176 138,-153 0,-153"/>
<text text-anchor="start" x="47.5" y="-160.8" font-family="arial" font-size="14.00"> RX_P </text>
<polygon fill="none" stroke="black" points="138,-153 138,-176 204,-176 204,-153 138,-153"/>
<text text-anchor="start" x="163" y="-160.8" font-family="arial" font-size="14.00"> 4 </text>
<polygon fill="none" stroke="black" points="0,-130 0,-153 138,-153 138,-130 0,-130"/>
<text text-anchor="start" x="47.5" y="-137.8" font-family="arial" font-size="14.00"> TX_N </text>
<polygon fill="none" stroke="black" points="138,-130 138,-153 204,-153 204,-130 138,-130"/>
<text text-anchor="start" x="163" y="-137.8" font-family="arial" font-size="14.00"> 5 </text>
<polygon fill="none" stroke="black" points="0,-107 0,-130 138,-130 138,-107 0,-107"/>
<text text-anchor="start" x="48" y="-114.8" font-family="arial" font-size="14.00"> TX_P </text>
<polygon fill="none" stroke="black" points="138,-107 138,-130 204,-130 204,-107 138,-107"/>
<text text-anchor="start" x="163" y="-114.8" font-family="arial" font-size="14.00"> 6 </text>
<polygon fill="none" stroke="black" points="0,-84 0,-107 138,-107 138,-84 0,-84"/>
<text text-anchor="start" x="49.5" y="-91.8" font-family="arial" font-size="14.00"> GND </text>
<polygon fill="none" stroke="black" points="138,-84 138,-107 204,-107 204,-84 138,-84"/>
<text text-anchor="start" x="163" y="-91.8" font-family="arial" font-size="14.00"> 7 </text>
<polygon fill="none" stroke="black" points="0,-61 0,-84 138,-84 138,-61 0,-61"/>
<text text-anchor="start" x="50.5" y="-68.8" font-family="arial" font-size="14.00"> VCC </text>
<polygon fill="none" stroke="black" points="138,-61 138,-84 204,-84 204,-61 138,-61"/>
<text text-anchor="start" x="163" y="-68.8" font-family="arial" font-size="14.00"> 8 </text>
</g>
<!-- W1 -->
<g id="node4" class="node">
<title>W1</title>
<polygon fill="#ffffff" stroke="black" points="735,-328 420,-328 420,0 735,0 735,-328"/>
<polygon fill="#ffffff" stroke="none" points="420,0 420,-328 735,-328 735,0 420,0"/>
<polygon fill="#ffffff" stroke="none" points="420.5,-305 420.5,-328 735.5,-328 735.5,-305 420.5,-305"/>
<polygon fill="none" stroke="black" points="420.5,-305 420.5,-328 735.5,-328 735.5,-305 420.5,-305"/>
<text text-anchor="start" x="559.5" y="-313.8" font-family="arial" font-size="14.00"> </text>
<text text-anchor="start" x="563.5" y="-313.8" font-family="arial" font-weight="bold" font-size="14.00"> W1 </text>
<text text-anchor="start" x="592.5" y="-313.8" font-family="arial" font-size="14.00"> </text>
<polygon fill="none" stroke="black" points="420.5,-282 420.5,-305 471.5,-305 471.5,-282 420.5,-282"/>
<text text-anchor="start" x="424.5" y="-289.8" font-family="arial" font-size="14.00"> Serial </text>
<polygon fill="none" stroke="black" points="471.5,-282 471.5,-305 501.5,-305 501.5,-282 471.5,-282"/>
<text text-anchor="start" x="475.5" y="-289.8" font-family="arial" font-size="14.00"> 8x </text>
<polygon fill="none" stroke="black" points="501.5,-282 501.5,-305 640.5,-305 640.5,-282 501.5,-282"/>
<text text-anchor="start" x="505.5" y="-289.8" font-family="arial" font-size="14.00"> 0.25 mm² (24 AWG) </text>
<polygon fill="none" stroke="black" points="640.5,-282 640.5,-305 677.5,-305 677.5,-282 640.5,-282"/>
<text text-anchor="start" x="644.5" y="-289.8" font-family="arial" font-size="14.00"> + S </text>
<polygon fill="none" stroke="black" points="677.5,-282 677.5,-305 735.5,-305 735.5,-282 677.5,-282"/>
<text text-anchor="start" x="681.5" y="-289.8" font-family="arial" font-size="14.00"> 0.20 m </text>
<text text-anchor="start" x="468" y="-268.8" font-family="arial" font-size="14.00"> </text>
<text text-anchor="start" x="422.5" y="-249.8" font-family="arial" font-size="14.00"> X1:1:GND </text>
<text text-anchor="start" x="531" y="-249.8" font-family="arial" font-size="14.00"> </text>
<text text-anchor="start" x="562" y="-249.8" font-family="arial" font-size="14.00"> 1:BN </text>
<text text-anchor="start" x="626.5" y="-249.8" font-family="arial" font-size="14.00"> </text>
<text text-anchor="start" x="666.5" y="-249.8" font-family="arial" font-size="14.00"> X2:1:GND</text>
<polygon fill="#000000" stroke="none" points="420.5,-242 420.5,-244 735.5,-244 735.5,-242 420.5,-242"/>
<polygon fill="#895956" stroke="none" points="420.5,-240 420.5,-242 735.5,-242 735.5,-240 420.5,-240"/>
<polygon fill="#000000" stroke="none" points="420.5,-238 420.5,-240 735.5,-240 735.5,-238 420.5,-238"/>
<text text-anchor="start" x="422.5" y="-224.8" font-family="arial" font-size="14.00"> X1:2:VCC </text>
<text text-anchor="start" x="531" y="-224.8" font-family="arial" font-size="14.00"> </text>
<text text-anchor="start" x="561.5" y="-224.8" font-family="arial" font-size="14.00"> 2:RD </text>
<text text-anchor="start" x="626.5" y="-224.8" font-family="arial" font-size="14.00"> </text>
<text text-anchor="start" x="669.5" y="-224.8" font-family="arial" font-size="14.00"> X2:2:VCC</text>
<polygon fill="#000000" stroke="none" points="420.5,-217 420.5,-219 735.5,-219 735.5,-217 420.5,-217"/>
<polygon fill="#ff0000" stroke="none" points="420.5,-215 420.5,-217 735.5,-217 735.5,-215 420.5,-215"/>
<polygon fill="#000000" stroke="none" points="420.5,-213 420.5,-215 735.5,-215 735.5,-213 420.5,-213"/>
<text text-anchor="start" x="422.5" y="-199.8" font-family="arial" font-size="14.00"> X1:3:RX_N </text>
<text text-anchor="start" x="531" y="-199.8" font-family="arial" font-size="14.00"> </text>
<text text-anchor="start" x="560" y="-199.8" font-family="arial" font-size="14.00"> 3:OG </text>
<text text-anchor="start" x="626.5" y="-199.8" font-family="arial" font-size="14.00"> </text>
<text text-anchor="start" x="661.5" y="-199.8" font-family="arial" font-size="14.00"> X2:4:RX_N</text>
<polygon fill="#000000" stroke="none" points="420.5,-192 420.5,-194 735.5,-194 735.5,-192 420.5,-192"/>
<polygon fill="#ff8000" stroke="none" points="420.5,-190 420.5,-192 735.5,-192 735.5,-190 420.5,-190"/>
<polygon fill="#000000" stroke="none" points="420.5,-188 420.5,-190 735.5,-190 735.5,-188 420.5,-188"/>
<text text-anchor="start" x="422.5" y="-174.8" font-family="arial" font-size="14.00"> X1:4:RX_P </text>
<text text-anchor="start" x="531" y="-174.8" font-family="arial" font-size="14.00"> </text>
<text text-anchor="start" x="562.5" y="-174.8" font-family="arial" font-size="14.00"> 4:YE </text>
<text text-anchor="start" x="626.5" y="-174.8" font-family="arial" font-size="14.00"> </text>
<text text-anchor="start" x="662.5" y="-174.8" font-family="arial" font-size="14.00"> X2:3:RX_P</text>
<polygon fill="#000000" stroke="none" points="420.5,-167 420.5,-169 735.5,-169 735.5,-167 420.5,-167"/>
<polygon fill="#ffff00" stroke="none" points="420.5,-165 420.5,-167 735.5,-167 735.5,-165 420.5,-165"/>
<polygon fill="#000000" stroke="none" points="420.5,-163 420.5,-165 735.5,-165 735.5,-163 420.5,-163"/>
<text text-anchor="start" x="422.5" y="-149.8" font-family="arial" font-size="14.00"> X1:5:TX_N </text>
<text text-anchor="start" x="531" y="-149.8" font-family="arial" font-size="14.00"> </text>
<text text-anchor="start" x="561" y="-149.8" font-family="arial" font-size="14.00"> 5:GN </text>
<text text-anchor="start" x="626.5" y="-149.8" font-family="arial" font-size="14.00"> </text>
<text text-anchor="start" x="663.5" y="-149.8" font-family="arial" font-size="14.00"> X2:6:TX_N</text>
<polygon fill="#000000" stroke="none" points="420.5,-142 420.5,-144 735.5,-144 735.5,-142 420.5,-142"/>
<polygon fill="#00aa00" stroke="none" points="420.5,-140 420.5,-142 735.5,-142 735.5,-140 420.5,-140"/>
<polygon fill="#000000" stroke="none" points="420.5,-138 420.5,-140 735.5,-140 735.5,-138 420.5,-138"/>
<text text-anchor="start" x="422.5" y="-124.8" font-family="arial" font-size="14.00"> X1:6:TX_P </text>
<text text-anchor="start" x="531" y="-124.8" font-family="arial" font-size="14.00"> </text>
<text text-anchor="start" x="562" y="-124.8" font-family="arial" font-size="14.00"> 6:BU </text>
<text text-anchor="start" x="626.5" y="-124.8" font-family="arial" font-size="14.00"> </text>
<text text-anchor="start" x="663.5" y="-124.8" font-family="arial" font-size="14.00"> X2:5:TX_P</text>
<polygon fill="#000000" stroke="none" points="420.5,-117 420.5,-119 735.5,-119 735.5,-117 420.5,-117"/>
<polygon fill="#0066ff" stroke="none" points="420.5,-115 420.5,-117 735.5,-117 735.5,-115 420.5,-115"/>
<polygon fill="#000000" stroke="none" points="420.5,-113 420.5,-115 735.5,-115 735.5,-113 420.5,-113"/>
<text text-anchor="start" x="422.5" y="-99.8" font-family="arial" font-size="14.00"> X1:7:GND </text>
<text text-anchor="start" x="531" y="-99.8" font-family="arial" font-size="14.00"> </text>
<text text-anchor="start" x="562.5" y="-99.8" font-family="arial" font-size="14.00"> 7:VT </text>
<text text-anchor="start" x="626.5" y="-99.8" font-family="arial" font-size="14.00"> </text>
<text text-anchor="start" x="666.5" y="-99.8" font-family="arial" font-size="14.00"> P3:1:GND</text>
<polygon fill="#000000" stroke="none" points="420.5,-92 420.5,-94 735.5,-94 735.5,-92 420.5,-92"/>
<polygon fill="#8000ff" stroke="none" points="420.5,-90 420.5,-92 735.5,-92 735.5,-90 420.5,-90"/>
<polygon fill="#000000" stroke="none" points="420.5,-88 420.5,-90 735.5,-90 735.5,-88 420.5,-88"/>
<text text-anchor="start" x="422.5" y="-74.8" font-family="arial" font-size="14.00"> X1:8:VCC </text>
<text text-anchor="start" x="531" y="-74.8" font-family="arial" font-size="14.00"> </text>
<text text-anchor="start" x="561" y="-74.8" font-family="arial" font-size="14.00"> 8:GY </text>
<text text-anchor="start" x="626.5" y="-74.8" font-family="arial" font-size="14.00"> </text>
<text text-anchor="start" x="669.5" y="-74.8" font-family="arial" font-size="14.00"> P3:2:VCC</text>
<polygon fill="#000000" stroke="none" points="420.5,-67 420.5,-69 735.5,-69 735.5,-67 420.5,-67"/>
<polygon fill="#999999" stroke="none" points="420.5,-65 420.5,-67 735.5,-67 735.5,-65 420.5,-65"/>
<polygon fill="#000000" stroke="none" points="420.5,-63 420.5,-65 735.5,-65 735.5,-63 420.5,-63"/>
<text text-anchor="start" x="468" y="-49.8" font-family="arial" font-size="14.00"> </text>
<text text-anchor="start" x="422.5" y="-30.8" font-family="arial" font-size="14.00"> X1:1:GND </text>
<text text-anchor="start" x="531" y="-30.8" font-family="arial" font-size="14.00"> </text>
<text text-anchor="start" x="558" y="-30.8" font-family="arial" font-size="14.00"> Shield </text>
<text text-anchor="start" x="626.5" y="-30.8" font-family="arial" font-size="14.00"> </text>
<text text-anchor="start" x="729.5" y="-30.8" font-family="arial" font-size="14.00"> </text>
<polygon fill="#000000" stroke="none" points="420.5,-23 420.5,-25 735.5,-25 735.5,-23 420.5,-23"/>
<polygon fill="#ffffff" stroke="none" points="420.5,-21 420.5,-23 735.5,-23 735.5,-21 420.5,-21"/>
<polygon fill="#000000" stroke="none" points="420.5,-19 420.5,-21 735.5,-21 735.5,-19 420.5,-19"/>
<text text-anchor="start" x="468" y="-5.8" font-family="arial" font-size="14.00"> </text>
</g>
<!-- X1&#45;&#45;W1 -->
<g id="edge1" class="edge">
<title>X1:e&#45;&#45;W1:w</title>
<path fill="none" stroke="#000000" stroke-width="2" d="M204,-234C204.06,-232 420.06,-239 420,-241"/>
<path fill="none" stroke="#895956" stroke-width="2" d="M204,-234C204,-234 420,-241 420,-241"/>
<path fill="none" stroke="#000000" stroke-width="2" d="M204,-234C203.94,-236 419.94,-243 420,-241"/>
</g>
<!-- X1&#45;&#45;W1 -->
<g id="edge3" class="edge">
<title>X1:e&#45;&#45;W1:w</title>
<path fill="none" stroke="#000000" stroke-width="2" d="M204,-211C204.05,-209 420.05,-214 420,-216"/>
<path fill="none" stroke="#ff0000" stroke-width="2" d="M204,-211C204,-211 420,-216 420,-216"/>
<path fill="none" stroke="#000000" stroke-width="2" d="M204,-211C203.95,-213 419.95,-218 420,-216"/>
</g>
<!-- X1&#45;&#45;W1 -->
<g id="edge5" class="edge">
<title>X1:e&#45;&#45;W1:w</title>
<path fill="none" stroke="#000000" stroke-width="2" d="M204,-188C204.03,-186 420.03,-189 420,-191"/>
<path fill="none" stroke="#ff8000" stroke-width="2" d="M204,-188C204,-188 420,-191 420,-191"/>
<path fill="none" stroke="#000000" stroke-width="2" d="M204,-188C203.97,-190 419.97,-193 420,-191"/>
</g>
<!-- X1&#45;&#45;W1 -->
<g id="edge7" class="edge">
<title>X1:e&#45;&#45;W1:w</title>
<path fill="none" stroke="#000000" stroke-width="2" d="M204,-164C204.02,-162 420.02,-164 420,-166"/>
<path fill="none" stroke="#ffff00" stroke-width="2" d="M204,-164C204,-164 420,-166 420,-166"/>
<path fill="none" stroke="#000000" stroke-width="2" d="M204,-164C203.98,-166 419.98,-168 420,-166"/>
</g>
<!-- X1&#45;&#45;W1 -->
<g id="edge9" class="edge">
<title>X1:e&#45;&#45;W1:w</title>
<path fill="none" stroke="#000000" stroke-width="2" d="M204,-141C204,-139 420,-139 420,-141"/>
<path fill="none" stroke="#00aa00" stroke-width="2" d="M204,-141C204,-141 420,-141 420,-141"/>
<path fill="none" stroke="#000000" stroke-width="2" d="M204,-141C204,-143 420,-143 420,-141"/>
</g>
<!-- X1&#45;&#45;W1 -->
<g id="edge11" class="edge">
<title>X1:e&#45;&#45;W1:w</title>
<path fill="none" stroke="#000000" stroke-width="2" d="M204,-118C203.98,-116 419.98,-114 420,-116"/>
<path fill="none" stroke="#0066ff" stroke-width="2" d="M204,-118C204,-118 420,-116 420,-116"/>
<path fill="none" stroke="#000000" stroke-width="2" d="M204,-118C204.02,-120 420.02,-118 420,-116"/>
</g>
<!-- X1&#45;&#45;W1 -->
<g id="edge13" class="edge">
<title>X1:e&#45;&#45;W1:w</title>
<path fill="none" stroke="#000000" stroke-width="2" d="M204,-234C204,-234 420,-22 420,-22"/>
</g>
<!-- X1&#45;&#45;W1 -->
<g id="edge14" class="edge">
<title>X1:e&#45;&#45;W1:w</title>
<path fill="none" stroke="#000000" stroke-width="2" d="M204,-95C203.96,-93 419.96,-89 420,-91"/>
<path fill="none" stroke="#8000ff" stroke-width="2" d="M204,-95C204,-95 420,-91 420,-91"/>
<path fill="none" stroke="#000000" stroke-width="2" d="M204,-95C204.04,-97 420.04,-93 420,-91"/>
</g>
<!-- X1&#45;&#45;W1 -->
<g id="edge16" class="edge">
<title>X1:e&#45;&#45;W1:w</title>
<path fill="none" stroke="#000000" stroke-width="2" d="M204,-72C203.94,-70 419.94,-64 420,-66"/>
<path fill="none" stroke="#999999" stroke-width="2" d="M204,-72C204,-72 420,-66 420,-66"/>
<path fill="none" stroke="#000000" stroke-width="2" d="M204,-72C204.06,-74 420.06,-68 420,-66"/>
</g>
<!-- X2 -->
<g id="node2" class="node">
<title>X2</title>
<polygon fill="#ffffff" stroke="black" points="1155,-306 951,-306 951,-122 1155,-122 1155,-306"/>
<polygon fill="#ffffff" stroke="none" points="951,-122 951,-306 1155,-306 1155,-122 951,-122"/>
<polygon fill="#ffffff" stroke="none" points="951,-283 951,-306 1155,-306 1155,-283 951,-283"/>
<polygon fill="none" stroke="black" points="951,-283 951,-306 1155,-306 1155,-283 951,-283"/>
<text text-anchor="start" x="1036.5" y="-291.8" font-family="arial" font-size="14.00"> </text>
<text text-anchor="start" x="1040.5" y="-291.8" font-family="arial" font-weight="bold" font-size="14.00"> X2 </text>
<text text-anchor="start" x="1065.5" y="-291.8" font-family="arial" font-size="14.00"> </text>
<polygon fill="none" stroke="black" points="951,-260 951,-283 1052,-283 1052,-260 951,-260"/>
<text text-anchor="start" x="955" y="-267.8" font-family="arial" font-size="14.00"> Molex KK 254 </text>
<polygon fill="none" stroke="black" points="1052,-260 1052,-283 1109,-283 1109,-260 1052,-260"/>
<text text-anchor="start" x="1056" y="-267.8" font-family="arial" font-size="14.00"> female </text>
<polygon fill="none" stroke="black" points="1109,-260 1109,-283 1155,-283 1155,-260 1109,-260"/>
<text text-anchor="start" x="1113" y="-267.8" font-family="arial" font-size="14.00"> 6&#45;pin </text>
<polygon fill="none" stroke="black" points="951,-237 951,-260 1018,-260 1018,-237 951,-237"/>
<text text-anchor="start" x="976.5" y="-244.8" font-family="arial" font-size="14.00"> 1 </text>
<polygon fill="none" stroke="black" points="1018,-237 1018,-260 1155,-260 1155,-237 1018,-237"/>
<text text-anchor="start" x="1067" y="-244.8" font-family="arial" font-size="14.00"> GND </text>
<polygon fill="none" stroke="black" points="951,-214 951,-237 1018,-237 1018,-214 951,-214"/>
<text text-anchor="start" x="976.5" y="-221.8" font-family="arial" font-size="14.00"> 2 </text>
<polygon fill="none" stroke="black" points="1018,-214 1018,-237 1155,-237 1155,-214 1018,-214"/>
<text text-anchor="start" x="1068" y="-221.8" font-family="arial" font-size="14.00"> VCC </text>
<polygon fill="none" stroke="black" points="951,-191 951,-214 1018,-214 1018,-191 951,-191"/>
<text text-anchor="start" x="976.5" y="-198.8" font-family="arial" font-size="14.00"> 3 </text>
<polygon fill="none" stroke="black" points="1018,-191 1018,-214 1155,-214 1155,-191 1018,-191"/>
<text text-anchor="start" x="1065" y="-198.8" font-family="arial" font-size="14.00"> RX_P </text>
<polygon fill="none" stroke="black" points="951,-168 951,-191 1018,-191 1018,-168 951,-168"/>
<text text-anchor="start" x="976.5" y="-175.8" font-family="arial" font-size="14.00"> 4 </text>
<polygon fill="none" stroke="black" points="1018,-168 1018,-191 1155,-191 1155,-168 1018,-168"/>
<text text-anchor="start" x="1064.5" y="-175.8" font-family="arial" font-size="14.00"> RX_N </text>
<polygon fill="none" stroke="black" points="951,-145 951,-168 1018,-168 1018,-145 951,-145"/>
<text text-anchor="start" x="976.5" y="-152.8" font-family="arial" font-size="14.00"> 5 </text>
<polygon fill="none" stroke="black" points="1018,-145 1018,-168 1155,-168 1155,-145 1018,-145"/>
<text text-anchor="start" x="1065.5" y="-152.8" font-family="arial" font-size="14.00"> TX_P </text>
<polygon fill="none" stroke="black" points="951,-122 951,-145 1018,-145 1018,-122 951,-122"/>
<text text-anchor="start" x="976.5" y="-129.8" font-family="arial" font-size="14.00"> 6 </text>
<polygon fill="none" stroke="black" points="1018,-122 1018,-145 1155,-145 1155,-122 1018,-122"/>
<text text-anchor="start" x="1065" y="-129.8" font-family="arial" font-size="14.00"> TX_N </text>
</g>
<!-- P3 -->
<g id="node3" class="node">
<title>P3</title>
<polygon fill="#ffffff" stroke="black" points="1155,-98 951,-98 951,-6 1155,-6 1155,-98"/>
<polygon fill="#ffffff" stroke="none" points="951,-6 951,-98 1155,-98 1155,-6 951,-6"/>
<polygon fill="#ffffff" stroke="none" points="951,-75 951,-98 1155,-98 1155,-75 951,-75"/>
<polygon fill="none" stroke="black" points="951,-75 951,-98 1155,-98 1155,-75 951,-75"/>
<text text-anchor="start" x="1036.5" y="-83.8" font-family="arial" font-size="14.00"> </text>
<text text-anchor="start" x="1040.5" y="-83.8" font-family="arial" font-weight="bold" font-size="14.00"> P3 </text>
<text text-anchor="start" x="1065.5" y="-83.8" font-family="arial" font-size="14.00"> </text>
<polygon fill="none" stroke="black" points="951,-52 951,-75 1052,-75 1052,-52 951,-52"/>
<text text-anchor="start" x="955" y="-59.8" font-family="arial" font-size="14.00"> Molex KK 254 </text>
<polygon fill="none" stroke="black" points="1052,-52 1052,-75 1109,-75 1109,-52 1052,-52"/>
<text text-anchor="start" x="1056" y="-59.8" font-family="arial" font-size="14.00"> female </text>
<polygon fill="none" stroke="black" points="1109,-52 1109,-75 1155,-75 1155,-52 1109,-52"/>
<text text-anchor="start" x="1113" y="-59.8" font-family="arial" font-size="14.00"> 2&#45;pin </text>
<polygon fill="none" stroke="black" points="951,-29 951,-52 1020,-52 1020,-29 951,-29"/>
<text text-anchor="start" x="977.5" y="-36.8" font-family="arial" font-size="14.00"> 1 </text>
<polygon fill="none" stroke="black" points="1020,-29 1020,-52 1155,-52 1155,-29 1020,-29"/>
<text text-anchor="start" x="1068" y="-36.8" font-family="arial" font-size="14.00"> GND </text>
<polygon fill="none" stroke="black" points="951,-6 951,-29 1020,-29 1020,-6 951,-6"/>
<text text-anchor="start" x="977.5" y="-13.8" font-family="arial" font-size="14.00"> 2 </text>
<polygon fill="none" stroke="black" points="1020,-6 1020,-29 1155,-29 1155,-6 1020,-6"/>
<text text-anchor="start" x="1069" y="-13.8" font-family="arial" font-size="14.00"> VCC </text>
</g>
<!-- W1&#45;&#45;X2 -->
<g id="edge2" class="edge">
<title>W1:e&#45;&#45;X2:w</title>
<path fill="none" stroke="#000000" stroke-width="2" d="M735,-241C735.07,-239 951.07,-247 951,-249"/>
<path fill="none" stroke="#895956" stroke-width="2" d="M735,-241C735,-241 951,-249 951,-249"/>
<path fill="none" stroke="#000000" stroke-width="2" d="M735,-241C734.93,-243 950.93,-251 951,-249"/>
</g>
<!-- W1&#45;&#45;X2 -->
<g id="edge4" class="edge">
<title>W1:e&#45;&#45;X2:w</title>
<path fill="none" stroke="#000000" stroke-width="2" d="M735,-216C735.09,-214 951.09,-224 951,-226"/>
<path fill="none" stroke="#ff0000" stroke-width="2" d="M735,-216C735,-216 951,-226 951,-226"/>
<path fill="none" stroke="#000000" stroke-width="2" d="M735,-216C734.91,-218 950.91,-228 951,-226"/>
</g>
<!-- W1&#45;&#45;X2 -->
<g id="edge6" class="edge">
<title>W1:e&#45;&#45;X2:w</title>
<path fill="none" stroke="#000000" stroke-width="2" d="M735,-191C734.89,-189 950.89,-177 951,-179"/>
<path fill="none" stroke="#ff8000" stroke-width="2" d="M735,-191C735,-191 951,-179 951,-179"/>
<path fill="none" stroke="#000000" stroke-width="2" d="M735,-191C735.11,-193 951.11,-181 951,-179"/>
</g>
<!-- W1&#45;&#45;X2 -->
<g id="edge8" class="edge">
<title>W1:e&#45;&#45;X2:w</title>
<path fill="none" stroke="#000000" stroke-width="2" d="M735,-166C735.33,-164.03 951.33,-200.03 951,-202"/>
<path fill="none" stroke="#ffff00" stroke-width="2" d="M735,-166C735,-166 951,-202 951,-202"/>
<path fill="none" stroke="#000000" stroke-width="2" d="M735,-166C734.67,-167.97 950.67,-203.97 951,-202"/>
</g>
<!-- W1&#45;&#45;X2 -->
<g id="edge10" class="edge">
<title>W1:e&#45;&#45;X2:w</title>
<path fill="none" stroke="#000000" stroke-width="2" d="M735,-141C734.93,-139 950.93,-131 951,-133"/>
<path fill="none" stroke="#00aa00" stroke-width="2" d="M735,-141C735,-141 951,-133 951,-133"/>
<path fill="none" stroke="#000000" stroke-width="2" d="M735,-141C735.07,-143 951.07,-135 951,-133"/>
</g>
<!-- W1&#45;&#45;X2 -->
<g id="edge12" class="edge">
<title>W1:e&#45;&#45;X2:w</title>
<path fill="none" stroke="#000000" stroke-width="2" d="M735,-116C735.36,-114.03 951.36,-154.03 951,-156"/>
<path fill="none" stroke="#0066ff" stroke-width="2" d="M735,-116C735,-116 951,-156 951,-156"/>
<path fill="none" stroke="#000000" stroke-width="2" d="M735,-116C734.64,-117.97 950.64,-157.97 951,-156"/>
</g>
<!-- W1&#45;&#45;P3 -->
<g id="edge15" class="edge">
<title>W1:e&#45;&#45;P3:w</title>
<path fill="none" stroke="#000000" stroke-width="2" d="M735,-91C734.54,-89.05 950.54,-38.05 951,-40"/>
<path fill="none" stroke="#8000ff" stroke-width="2" d="M735,-91C735,-91 951,-40 951,-40"/>
<path fill="none" stroke="#000000" stroke-width="2" d="M735,-91C735.46,-92.95 951.46,-41.95 951,-40"/>
</g>
<!-- W1&#45;&#45;P3 -->
<g id="edge17" class="edge">
<title>W1:e&#45;&#45;P3:w</title>
<path fill="none" stroke="#000000" stroke-width="2" d="M735,-66C734.56,-64.05 950.56,-15.05 951,-17"/>
<path fill="none" stroke="#999999" stroke-width="2" d="M735,-66C735,-66 951,-17 951,-17"/>
<path fill="none" stroke="#000000" stroke-width="2" d="M735,-66C735.44,-67.95 951.44,-18.95 951,-17"/>
</g>
</g>
</svg>
