<?xml version="1.0" encoding="UTF-8" standalone="no"?>
<!DOCTYPE svg PUBLIC "-//W3C//DTD SVG 1.1//EN"
 "http://www.w3.org/Graphics/SVG/1.1/DTD/svg11.dtd">
<!-- Generated by graphviz version 2.43.0 (0)
 -->
<!-- Title: %3 Pages: 1 -->
<svg width="990pt" height="192pt"
 viewBox="0.00 0.00 990.00 192.00" xmlns="http://www.w3.org/2000/svg" xmlns:xlink="http://www.w3.org/1999/xlink">
<g id="graph0" class="graph" transform="scale(1 1) rotate(0) translate(4 188)">
<title>%3</title>
<polygon fill="#ffffff" stroke="transparent" points="-4,4 -4,-188 986,-188 986,4 -4,4"/>
<!-- H2&#45;J1 -->
<g id="node1" class="node">
<title>H2&#45;J1</title>
<polygon fill="#ffffff" stroke="black" points="157,-153 0,-153 0,-15 157,-15 157,-153"/>
<polygon fill="#ffffff" stroke="transparent" points="0,-15 0,-153 157,-153 157,-15 0,-15"/>
<polygon fill="#ffffff" stroke="transparent" points="0.5,-130 0.5,-153 157.5,-153 157.5,-130 0.5,-130"/>
<polygon fill="none" stroke="black" points="0.5,-130 0.5,-153 157.5,-153 157.5,-130 0.5,-130"/>
<text text-anchor="start" x="52.5" y="-138.8" font-family="arial" font-size="14.00"> </text>
<text text-anchor="start" x="56.5" y="-138.8" font-family="arial" font-weight="bold" font-size="14.00"> H2&#45;J1 </text>
<text text-anchor="start" x="101.5" y="-138.8" font-family="arial" font-size="14.00"> </text>
<polygon fill="none" stroke="black" points="0.5,-107 0.5,-130 54.5,-130 54.5,-107 0.5,-107"/>
<text text-anchor="start" x="4.5" y="-114.8" font-family="arial" font-size="14.00"> D&#45;Sub </text>
<polygon fill="none" stroke="black" points="54.5,-107 54.5,-130 111.5,-130 111.5,-107 54.5,-107"/>
<text text-anchor="start" x="58.5" y="-114.8" font-family="arial" font-size="14.00"> female </text>
<polygon fill="none" stroke="black" points="111.5,-107 111.5,-130 157.5,-130 157.5,-107 111.5,-107"/>
<text text-anchor="start" x="115.5" y="-114.8" font-family="arial" font-size="14.00"> 4&#45;pin </text>
<polygon fill="none" stroke="black" points="0.5,-84 0.5,-107 105.5,-107 105.5,-84 0.5,-84"/>
<text text-anchor="start" x="39.5" y="-91.8" font-family="arial" font-size="14.00"> RX </text>
<polygon fill="none" stroke="black" points="105.5,-84 105.5,-107 157.5,-107 157.5,-84 105.5,-84"/>
<text text-anchor="start" x="123.5" y="-91.8" font-family="arial" font-size="14.00"> 1 </text>
<polygon fill="none" stroke="black" points="0.5,-61 0.5,-84 105.5,-84 105.5,-61 0.5,-61"/>
<text text-anchor="start" x="40.5" y="-68.8" font-family="arial" font-size="14.00"> TX </text>
<polygon fill="none" stroke="black" points="105.5,-61 105.5,-84 157.5,-84 157.5,-61 105.5,-61"/>
<text text-anchor="start" x="123.5" y="-68.8" font-family="arial" font-size="14.00"> 2 </text>
<polygon fill="none" stroke="black" points="0.5,-38 0.5,-61 105.5,-61 105.5,-38 0.5,-38"/>
<text text-anchor="start" x="33.5" y="-45.8" font-family="arial" font-size="14.00"> GND </text>
<polygon fill="none" stroke="black" points="105.5,-38 105.5,-61 157.5,-61 157.5,-38 105.5,-38"/>
<text text-anchor="start" x="123.5" y="-45.8" font-family="arial" font-size="14.00"> 3 </text>
<polygon fill="none" stroke="black" points="0.5,-15 0.5,-38 105.5,-38 105.5,-15 0.5,-15"/>
<text text-anchor="start" x="39" y="-22.8" font-family="arial" font-size="14.00"> NC </text>
<polygon fill="none" stroke="black" points="105.5,-15 105.5,-38 157.5,-38 157.5,-15 105.5,-15"/>
<text text-anchor="start" x="123.5" y="-22.8" font-family="arial" font-size="14.00"> 4 </text>
</g>
<!-- H2&#45;W1 -->
<g id="node3" class="node">
<title>H2&#45;W1</title>
<polygon fill="#ffffff" stroke="black" points="620,-184 373,-184 373,0 620,0 620,-184"/>
<polygon fill="#ffffff" stroke="transparent" points="373,0 373,-184 620,-184 620,0 373,0"/>
<polygon fill="#ffffff" stroke="transparent" points="373.5,-161 373.5,-184 620.5,-184 620.5,-161 373.5,-161"/>
<polygon fill="none" stroke="black" points="373.5,-161 373.5,-184 620.5,-184 620.5,-161 373.5,-161"/>
<text text-anchor="start" x="467.5" y="-169.8" font-family="arial" font-size="14.00"> </text>
<text text-anchor="start" x="471.5" y="-169.8" font-family="arial" font-weight="bold" font-size="14.00"> H2&#45;W1 </text>
<text text-anchor="start" x="522.5" y="-169.8" font-family="arial" font-size="14.00"> </text>
<polygon fill="none" stroke="black" points="373.5,-138 373.5,-161 431.5,-161 431.5,-138 373.5,-138"/>
<text text-anchor="start" x="391.5" y="-145.8" font-family="arial" font-size="14.00"> 4x </text>
<polygon fill="none" stroke="black" points="431.5,-138 431.5,-161 534.5,-161 534.5,-138 431.5,-138"/>
<text text-anchor="start" x="449.5" y="-145.8" font-family="arial" font-size="14.00"> 0.25 mm² </text>
<polygon fill="none" stroke="black" points="534.5,-138 534.5,-161 620.5,-161 620.5,-138 534.5,-138"/>
<text text-anchor="start" x="552.5" y="-145.8" font-family="arial" font-size="14.00"> 0.50 m </text>
<text text-anchor="start" x="418.5" y="-124.8" font-family="arial" font-size="14.00"> </text>
<text text-anchor="start" x="375.5" y="-105.8" font-family="arial" font-size="14.00"> H2&#45;J1:1:RX </text>
<text text-anchor="start" x="469.5" y="-105.8" font-family="arial" font-size="14.00"> </text>
<text text-anchor="start" x="479.5" y="-105.8" font-family="arial" font-size="14.00"> 1:RD </text>
<text text-anchor="start" x="524.5" y="-105.8" font-family="arial" font-size="14.00"> </text>
<text text-anchor="start" x="544.5" y="-105.8" font-family="arial" font-size="14.00"> H2&#45;J2:1:RX</text>
<polygon fill="#000000" stroke="transparent" points="373.5,-98 373.5,-100 620.5,-100 620.5,-98 373.5,-98"/>
<polygon fill="#ff0000" stroke="transparent" points="373.5,-96 373.5,-98 620.5,-98 620.5,-96 373.5,-96"/>
<polygon fill="#000000" stroke="transparent" points="373.5,-94 373.5,-96 620.5,-96 620.5,-94 373.5,-94"/>
<text text-anchor="start" x="375.5" y="-80.8" font-family="arial" font-size="14.00"> H2&#45;J1:2:TX </text>
<text text-anchor="start" x="469.5" y="-80.8" font-family="arial" font-size="14.00"> </text>
<text text-anchor="start" x="480.5" y="-80.8" font-family="arial" font-size="14.00"> 2:BK </text>
<text text-anchor="start" x="524.5" y="-80.8" font-family="arial" font-size="14.00"> </text>
<text text-anchor="start" x="545.5" y="-80.8" font-family="arial" font-size="14.00"> H2&#45;J2:2:TX</text>
<polygon fill="#000000" stroke="transparent" points="373.5,-73 373.5,-75 620.5,-75 620.5,-73 373.5,-73"/>
<polygon fill="#000000" stroke="transparent" points="373.5,-71 373.5,-73 620.5,-73 620.5,-71 373.5,-71"/>
<polygon fill="#000000" stroke="transparent" points="373.5,-69 373.5,-71 620.5,-71 620.5,-69 373.5,-69"/>
<text text-anchor="start" x="375.5" y="-55.8" font-family="arial" font-size="14.00"> H2&#45;J1:3:GND </text>
<text text-anchor="start" x="469.5" y="-55.8" font-family="arial" font-size="14.00"> </text>
<text text-anchor="start" x="479" y="-55.8" font-family="arial" font-size="14.00"> 3:GN </text>
<text text-anchor="start" x="524.5" y="-55.8" font-family="arial" font-size="14.00"> </text>
<text text-anchor="start" x="532.5" y="-55.8" font-family="arial" font-size="14.00"> H2&#45;J2:3:GND</text>
<polygon fill="#000000" stroke="transparent" points="373.5,-48 373.5,-50 620.5,-50 620.5,-48 373.5,-48"/>
<polygon fill="#00aa00" stroke="transparent" points="373.5,-46 373.5,-48 620.5,-48 620.5,-46 373.5,-46"/>
<polygon fill="#000000" stroke="transparent" points="373.5,-44 373.5,-46 620.5,-46 620.5,-44 373.5,-44"/>
<text text-anchor="start" x="375.5" y="-30.8" font-family="arial" font-size="14.00"> &#160;</text>
<text text-anchor="start" x="469.5" y="-30.8" font-family="arial" font-size="14.00"> </text>
<text text-anchor="start" x="477.5" y="-30.8" font-family="arial" font-size="14.00"> 4:WH </text>
<text text-anchor="start" x="524.5" y="-30.8" font-family="arial" font-size="14.00"> </text>
<text text-anchor="start" x="614.5" y="-30.8" font-family="arial" font-size="14.00"> </text>
<polygon fill="#000000" stroke="transparent" points="373.5,-23 373.5,-25 620.5,-25 620.5,-23 373.5,-23"/>
<polygon fill="#ffffff" stroke="transparent" points="373.5,-21 373.5,-23 620.5,-23 620.5,-21 373.5,-21"/>
<polygon fill="#000000" stroke="transparent" points="373.5,-19 373.5,-21 620.5,-21 620.5,-19 373.5,-19"/>
<text text-anchor="start" x="418.5" y="-5.8" font-family="arial" font-size="14.00"> </text>
</g>
<!-- H2&#45;J1&#45;&#45;H2&#45;W1 -->
<g id="edge1" class="edge">
<title>H2&#45;J1:e&#45;&#45;H2&#45;W1:w</title>
<path fill="none" stroke="#000000" stroke-width="2" d="M157,-96C157.01,-94 373.01,-95 373,-97"/>
<path fill="none" stroke="#ff0000" stroke-width="2" d="M157,-96C157,-96 373,-97 373,-97"/>
<path fill="none" stroke="#000000" stroke-width="2" d="M157,-96C156.99,-98 372.99,-99 373,-97"/>
</g>
<!-- H2&#45;J1&#45;&#45;H2&#45;W1 -->
<g id="edge3" class="edge">
<title>H2&#45;J1:e&#45;&#45;H2&#45;W1:w</title>
<path fill="none" stroke="#000000" stroke-width="2" d="M157,-72C157,-70 373,-70 373,-72"/>
<path fill="none" stroke="#000000" stroke-width="2" d="M157,-72C157,-72 373,-72 373,-72"/>
<path fill="none" stroke="#000000" stroke-width="2" d="M157,-72C157,-74 373,-74 373,-72"/>
</g>
<!-- H2&#45;J1&#45;&#45;H2&#45;W1 -->
<g id="edge5" class="edge">
<title>H2&#45;J1:e&#45;&#45;H2&#45;W1:w</title>
<path fill="none" stroke="#000000" stroke-width="2" d="M157,-49C156.98,-47 372.98,-45 373,-47"/>
<path fill="none" stroke="#00aa00" stroke-width="2" d="M157,-49C157,-49 373,-47 373,-47"/>
<path fill="none" stroke="#000000" stroke-width="2" d="M157,-49C157.02,-51 373.02,-49 373,-47"/>
</g>
<!-- H2&#45;J2 -->
<g id="node2" class="node">
<title>H2&#45;J2</title>
<polygon fill="#ffffff" stroke="black" points="982,-153 836,-153 836,-15 982,-15 982,-153"/>
<polygon fill="#ffffff" stroke="transparent" points="836,-15 836,-153 982,-153 982,-15 836,-15"/>
<polygon fill="#ffffff" stroke="transparent" points="836,-130 836,-153 982,-153 982,-130 836,-130"/>
<polygon fill="none" stroke="black" points="836,-130 836,-153 982,-153 982,-130 836,-130"/>
<text text-anchor="start" x="882.5" y="-138.8" font-family="arial" font-size="14.00"> </text>
<text text-anchor="start" x="886.5" y="-138.8" font-family="arial" font-weight="bold" font-size="14.00"> H2&#45;J2 </text>
<text text-anchor="start" x="931.5" y="-138.8" font-family="arial" font-size="14.00"> </text>
<polygon fill="none" stroke="black" points="836,-107 836,-130 890,-130 890,-107 836,-107"/>
<text text-anchor="start" x="840" y="-114.8" font-family="arial" font-size="14.00"> D&#45;Sub </text>
<polygon fill="none" stroke="black" points="890,-107 890,-130 936,-130 936,-107 890,-107"/>
<text text-anchor="start" x="894" y="-114.8" font-family="arial" font-size="14.00"> male </text>
<polygon fill="none" stroke="black" points="936,-107 936,-130 982,-130 982,-107 936,-107"/>
<text text-anchor="start" x="940" y="-114.8" font-family="arial" font-size="14.00"> 4&#45;pin </text>
<polygon fill="none" stroke="black" points="836,-84 836,-107 885,-107 885,-84 836,-84"/>
<text text-anchor="start" x="852.5" y="-91.8" font-family="arial" font-size="14.00"> 1 </text>
<polygon fill="none" stroke="black" points="885,-84 885,-107 982,-107 982,-84 885,-84"/>
<text text-anchor="start" x="920" y="-91.8" font-family="arial" font-size="14.00"> RX </text>
<polygon fill="none" stroke="black" points="836,-61 836,-84 885,-84 885,-61 836,-61"/>
<text text-anchor="start" x="852.5" y="-68.8" font-family="arial" font-size="14.00"> 2 </text>
<polygon fill="none" stroke="black" points="885,-61 885,-84 982,-84 982,-61 885,-61"/>
<text text-anchor="start" x="921" y="-68.8" font-family="arial" font-size="14.00"> TX </text>
<polygon fill="none" stroke="black" points="836,-38 836,-61 885,-61 885,-38 836,-38"/>
<text text-anchor="start" x="852.5" y="-45.8" font-family="arial" font-size="14.00"> 3 </text>
<polygon fill="none" stroke="black" points="885,-38 885,-61 982,-61 982,-38 885,-38"/>
<text text-anchor="start" x="914" y="-45.8" font-family="arial" font-size="14.00"> GND </text>
<polygon fill="none" stroke="black" points="836,-15 836,-38 885,-38 885,-15 836,-15"/>
<text text-anchor="start" x="852.5" y="-22.8" font-family="arial" font-size="14.00"> 4 </text>
<polygon fill="none" stroke="black" points="885,-15 885,-38 982,-38 982,-15 885,-15"/>
<text text-anchor="start" x="919.5" y="-22.8" font-family="arial" font-size="14.00"> NC </text>
</g>
<!-- H2&#45;W1&#45;&#45;H2&#45;J2 -->
<g id="edge2" class="edge">
<title>H2&#45;W1:e&#45;&#45;H2&#45;J2:w</title>
<path fill="none" stroke="#000000" stroke-width="2" d="M620,-97C619.99,-95 835.99,-94 836,-96"/>
<path fill="none" stroke="#ff0000" stroke-width="2" d="M620,-97C620,-97 836,-96 836,-96"/>
<path fill="none" stroke="#000000" stroke-width="2" d="M620,-97C620.01,-99 836.01,-98 836,-96"/>
</g>
<!-- H2&#45;W1&#45;&#45;H2&#45;J2 -->
<g id="edge4" class="edge">
<title>H2&#45;W1:e&#45;&#45;H2&#45;J2:w</title>
<path fill="none" stroke="#000000" stroke-width="2" d="M620,-72C620,-70 836,-70 836,-72"/>
<path fill="none" stroke="#000000" stroke-width="2" d="M620,-72C620,-72 836,-72 836,-72"/>
<path fill="none" stroke="#000000" stroke-width="2" d="M620,-72C620,-74 836,-74 836,-72"/>
</g>
<!-- H2&#45;W1&#45;&#45;H2&#45;J2 -->
<g id="edge6" class="edge">
<title>H2&#45;W1:e&#45;&#45;H2&#45;J2:w</title>
<path fill="none" stroke="#000000" stroke-width="2" d="M620,-47C620.02,-45 836.02,-47 836,-49"/>
<path fill="none" stroke="#00aa00" stroke-width="2" d="M620,-47C620,-47 836,-49 836,-49"/>
<path fill="none" stroke="#000000" stroke-width="2" d="M620,-47C619.98,-49 835.98,-51 836,-49"/>
</g>
</g>
</svg>
