<?xml version="1.0" encoding="UTF-8" standalone="no"?>
<!DOCTYPE svg PUBLIC "-//W3C//DTD SVG 1.1//EN"
 "http://www.w3.org/Graphics/SVG/1.1/DTD/svg11.dtd">
<!-- Generated by graphviz version 2.43.0 (0)
 -->
<!-- Title: %3 Pages: 1 -->
<svg width="1038pt" height="167pt"
 viewBox="0.00 0.00 1038.00 167.00" xmlns="http://www.w3.org/2000/svg" xmlns:xlink="http://www.w3.org/1999/xlink">
<g id="graph0" class="graph" transform="scale(1 1) rotate(0) translate(4 163)">
<title>%3</title>
<polygon fill="#ffffff" stroke="transparent" points="-4,4 -4,-163 1034,-163 1034,4 -4,4"/>
<!-- H1&#45;J1 -->
<g id="node1" class="node">
<title>H1&#45;J1</title>
<polygon fill="#ffffff" stroke="black" points="204,-128 0,-128 0,-13 204,-13 204,-128"/>
<polygon fill="#ffffff" stroke="transparent" points="0,-13 0,-128 204,-128 204,-13 0,-13"/>
<polygon fill="#ffffff" stroke="transparent" points="0,-104.5 0,-127.5 204,-127.5 204,-104.5 0,-104.5"/>
<polygon fill="none" stroke="black" points="0,-104.5 0,-127.5 204,-127.5 204,-104.5 0,-104.5"/>
<text text-anchor="start" x="75.5" y="-113.3" font-family="arial" font-size="14.00"> </text>
<text text-anchor="start" x="79.5" y="-113.3" font-family="arial" font-weight="bold" font-size="14.00"> H1&#45;J1 </text>
<text text-anchor="start" x="124.5" y="-113.3" font-family="arial" font-size="14.00"> </text>
<polygon fill="none" stroke="black" points="0,-81.5 0,-104.5 101,-104.5 101,-81.5 0,-81.5"/>
<text text-anchor="start" x="4" y="-89.3" font-family="arial" font-size="14.00"> Molex KK 254 </text>
<polygon fill="none" stroke="black" points="101,-81.5 101,-104.5 158,-104.5 158,-81.5 101,-81.5"/>
<text text-anchor="start" x="105" y="-89.3" font-family="arial" font-size="14.00"> female </text>
<polygon fill="none" stroke="black" points="158,-81.5 158,-104.5 204,-104.5 204,-81.5 158,-81.5"/>
<text text-anchor="start" x="162" y="-89.3" font-family="arial" font-size="14.00"> 3&#45;pin </text>
<polygon fill="none" stroke="black" points="0,-58.5 0,-81.5 128,-81.5 128,-58.5 0,-58.5"/>
<text text-anchor="start" x="56" y="-66.3" font-family="arial" font-size="14.00"> 1 </text>
<polygon fill="none" stroke="black" points="128,-58.5 128,-81.5 204,-81.5 204,-58.5 128,-58.5"/>
<text text-anchor="start" x="158" y="-66.3" font-family="arial" font-size="14.00"> 1 </text>
<polygon fill="none" stroke="black" points="0,-35.5 0,-58.5 128,-58.5 128,-35.5 0,-35.5"/>
<text text-anchor="start" x="56" y="-43.3" font-family="arial" font-size="14.00"> 2 </text>
<polygon fill="none" stroke="black" points="128,-35.5 128,-58.5 204,-58.5 204,-35.5 128,-35.5"/>
<text text-anchor="start" x="158" y="-43.3" font-family="arial" font-size="14.00"> 2 </text>
<polygon fill="none" stroke="black" points="0,-12.5 0,-35.5 128,-35.5 128,-12.5 0,-12.5"/>
<text text-anchor="start" x="56" y="-20.3" font-family="arial" font-size="14.00"> 3 </text>
<polygon fill="none" stroke="black" points="128,-12.5 128,-35.5 204,-35.5 204,-12.5 128,-12.5"/>
<text text-anchor="start" x="158" y="-20.3" font-family="arial" font-size="14.00"> 3 </text>
</g>
<!-- H1&#45;W1 -->
<g id="node3" class="node">
<title>H1&#45;W1</title>
<polygon fill="#ffffff" stroke="black" points="621,-159 420,-159 420,0 621,0 621,-159"/>
<polygon fill="#ffffff" stroke="transparent" points="420,0 420,-159 621,-159 621,0 420,0"/>
<polygon fill="#ffffff" stroke="transparent" points="420.5,-135.5 420.5,-158.5 621.5,-158.5 621.5,-135.5 420.5,-135.5"/>
<polygon fill="none" stroke="black" points="420.5,-135.5 420.5,-158.5 621.5,-158.5 621.5,-135.5 420.5,-135.5"/>
<text text-anchor="start" x="491.5" y="-144.3" font-family="arial" font-size="14.00"> </text>
<text text-anchor="start" x="495.5" y="-144.3" font-family="arial" font-weight="bold" font-size="14.00"> H1&#45;W1 </text>
<text text-anchor="start" x="546.5" y="-144.3" font-family="arial" font-size="14.00"> </text>
<polygon fill="none" stroke="black" points="420.5,-112.5 420.5,-135.5 463.5,-135.5 463.5,-112.5 420.5,-112.5"/>
<text text-anchor="start" x="431" y="-120.3" font-family="arial" font-size="14.00"> 3x </text>
<polygon fill="none" stroke="black" points="463.5,-112.5 463.5,-135.5 551.5,-135.5 551.5,-112.5 463.5,-112.5"/>
<text text-anchor="start" x="474" y="-120.3" font-family="arial" font-size="14.00"> 0.35 mm² </text>
<polygon fill="none" stroke="black" points="551.5,-112.5 551.5,-135.5 621.5,-135.5 621.5,-112.5 551.5,-112.5"/>
<text text-anchor="start" x="561.5" y="-120.3" font-family="arial" font-size="14.00"> 0.25 m </text>
<text text-anchor="start" x="454" y="-99.3" font-family="arial" font-size="14.00"> </text>
<text text-anchor="start" x="422.5" y="-80.3" font-family="arial" font-size="14.00"> H1&#45;J1:1:1 </text>
<text text-anchor="start" x="493.5" y="-80.3" font-family="arial" font-size="14.00"> </text>
<text text-anchor="start" x="503.5" y="-80.3" font-family="arial" font-size="14.00"> 1:RD </text>
<text text-anchor="start" x="548.5" y="-80.3" font-family="arial" font-size="14.00"> </text>
<text text-anchor="start" x="556.5" y="-80.3" font-family="arial" font-size="14.00"> H1&#45;J2:1:1</text>
<polygon fill="#000000" stroke="transparent" points="420.5,-72.5 420.5,-74.5 621.5,-74.5 621.5,-72.5 420.5,-72.5"/>
<polygon fill="#ff0000" stroke="transparent" points="420.5,-70.5 420.5,-72.5 621.5,-72.5 621.5,-70.5 420.5,-70.5"/>
<polygon fill="#000000" stroke="transparent" points="420.5,-68.5 420.5,-70.5 621.5,-70.5 621.5,-68.5 420.5,-68.5"/>
<text text-anchor="start" x="422.5" y="-55.3" font-family="arial" font-size="14.00"> H1&#45;J1:2:2 </text>
<text text-anchor="start" x="493.5" y="-55.3" font-family="arial" font-size="14.00"> </text>
<text text-anchor="start" x="504.5" y="-55.3" font-family="arial" font-size="14.00"> 2:BK </text>
<text text-anchor="start" x="548.5" y="-55.3" font-family="arial" font-size="14.00"> </text>
<text text-anchor="start" x="556.5" y="-55.3" font-family="arial" font-size="14.00"> H1&#45;J2:2:2</text>
<polygon fill="#000000" stroke="transparent" points="420.5,-47.5 420.5,-49.5 621.5,-49.5 621.5,-47.5 420.5,-47.5"/>
<polygon fill="#000000" stroke="transparent" points="420.5,-45.5 420.5,-47.5 621.5,-47.5 621.5,-45.5 420.5,-45.5"/>
<polygon fill="#000000" stroke="transparent" points="420.5,-43.5 420.5,-45.5 621.5,-45.5 621.5,-43.5 420.5,-43.5"/>
<text text-anchor="start" x="422.5" y="-30.3" font-family="arial" font-size="14.00"> H1&#45;J1:3:3 </text>
<text text-anchor="start" x="493.5" y="-30.3" font-family="arial" font-size="14.00"> </text>
<text text-anchor="start" x="501.5" y="-30.3" font-family="arial" font-size="14.00"> 3:WH </text>
<text text-anchor="start" x="548.5" y="-30.3" font-family="arial" font-size="14.00"> </text>
<text text-anchor="start" x="556.5" y="-30.3" font-family="arial" font-size="14.00"> H1&#45;J2:3:3</text>
<polygon fill="#000000" stroke="transparent" points="420.5,-22.5 420.5,-24.5 621.5,-24.5 621.5,-22.5 420.5,-22.5"/>
<polygon fill="#ffffff" stroke="transparent" points="420.5,-20.5 420.5,-22.5 621.5,-22.5 621.5,-20.5 420.5,-20.5"/>
<polygon fill="#000000" stroke="transparent" points="420.5,-18.5 420.5,-20.5 621.5,-20.5 621.5,-18.5 420.5,-18.5"/>
<text text-anchor="start" x="454" y="-5.3" font-family="arial" font-size="14.00"> </text>
</g>
<!-- H1&#45;J1&#45;&#45;H1&#45;W1 -->
<g id="edge1" class="edge">
<title>H1&#45;J1:e&#45;&#45;H1&#45;W1:w</title>
<path fill="none" stroke="#000000" stroke-width="2" d="M204,-69.5C204.02,-67.5 420.02,-69.5 420,-71.5"/>
<path fill="none" stroke="#ff0000" stroke-width="2" d="M204,-69.5C204,-69.5 420,-71.5 420,-71.5"/>
<path fill="none" stroke="#000000" stroke-width="2" d="M204,-69.5C203.98,-71.5 419.98,-73.5 420,-71.5"/>
</g>
<!-- H1&#45;J1&#45;&#45;H1&#45;W1 -->
<g id="edge3" class="edge">
<title>H1&#45;J1:e&#45;&#45;H1&#45;W1:w</title>
<path fill="none" stroke="#000000" stroke-width="2" d="M204,-46.5C204,-44.5 420,-44.5 420,-46.5"/>
<path fill="none" stroke="#000000" stroke-width="2" d="M204,-46.5C204,-46.5 420,-46.5 420,-46.5"/>
<path fill="none" stroke="#000000" stroke-width="2" d="M204,-46.5C204,-48.5 420,-48.5 420,-46.5"/>
</g>
<!-- H1&#45;J1&#45;&#45;H1&#45;W1 -->
<g id="edge5" class="edge">
<title>H1&#45;J1:e&#45;&#45;H1&#45;W1:w</title>
<path fill="none" stroke="#000000" stroke-width="2" d="M204,-23.5C203.98,-21.5 419.98,-19.5 420,-21.5"/>
<path fill="none" stroke="#ffffff" stroke-width="2" d="M204,-23.5C204,-23.5 420,-21.5 420,-21.5"/>
<path fill="none" stroke="#000000" stroke-width="2" d="M204,-23.5C204.02,-25.5 420.02,-23.5 420,-21.5"/>
</g>
<!-- H1&#45;J2 -->
<g id="node2" class="node">
<title>H1&#45;J2</title>
<polygon fill="#ffffff" stroke="black" points="1030,-128 837,-128 837,-13 1030,-13 1030,-128"/>
<polygon fill="#ffffff" stroke="transparent" points="837,-13 837,-128 1030,-128 1030,-13 837,-13"/>
<polygon fill="#ffffff" stroke="transparent" points="837.5,-104.5 837.5,-127.5 1030.5,-127.5 1030.5,-104.5 837.5,-104.5"/>
<polygon fill="none" stroke="black" points="837.5,-104.5 837.5,-127.5 1030.5,-127.5 1030.5,-104.5 837.5,-104.5"/>
<text text-anchor="start" x="907.5" y="-113.3" font-family="arial" font-size="14.00"> </text>
<text text-anchor="start" x="911.5" y="-113.3" font-family="arial" font-weight="bold" font-size="14.00"> H1&#45;J2 </text>
<text text-anchor="start" x="956.5" y="-113.3" font-family="arial" font-size="14.00"> </text>
<polygon fill="none" stroke="black" points="837.5,-81.5 837.5,-104.5 938.5,-104.5 938.5,-81.5 837.5,-81.5"/>
<text text-anchor="start" x="841.5" y="-89.3" font-family="arial" font-size="14.00"> Molex KK 254 </text>
<polygon fill="none" stroke="black" points="938.5,-81.5 938.5,-104.5 984.5,-104.5 984.5,-81.5 938.5,-81.5"/>
<text text-anchor="start" x="942.5" y="-89.3" font-family="arial" font-size="14.00"> male </text>
<polygon fill="none" stroke="black" points="984.5,-81.5 984.5,-104.5 1030.5,-104.5 1030.5,-81.5 984.5,-81.5"/>
<text text-anchor="start" x="988.5" y="-89.3" font-family="arial" font-size="14.00"> 3&#45;pin </text>
<polygon fill="none" stroke="black" points="837.5,-58.5 837.5,-81.5 910.5,-81.5 910.5,-58.5 837.5,-58.5"/>
<text text-anchor="start" x="866" y="-66.3" font-family="arial" font-size="14.00"> 1 </text>
<polygon fill="none" stroke="black" points="910.5,-58.5 910.5,-81.5 1030.5,-81.5 1030.5,-58.5 910.5,-58.5"/>
<text text-anchor="start" x="962.5" y="-66.3" font-family="arial" font-size="14.00"> 1 </text>
<polygon fill="none" stroke="black" points="837.5,-35.5 837.5,-58.5 910.5,-58.5 910.5,-35.5 837.5,-35.5"/>
<text text-anchor="start" x="866" y="-43.3" font-family="arial" font-size="14.00"> 2 </text>
<polygon fill="none" stroke="black" points="910.5,-35.5 910.5,-58.5 1030.5,-58.5 1030.5,-35.5 910.5,-35.5"/>
<text text-anchor="start" x="962.5" y="-43.3" font-family="arial" font-size="14.00"> 2 </text>
<polygon fill="none" stroke="black" points="837.5,-12.5 837.5,-35.5 910.5,-35.5 910.5,-12.5 837.5,-12.5"/>
<text text-anchor="start" x="866" y="-20.3" font-family="arial" font-size="14.00"> 3 </text>
<polygon fill="none" stroke="black" points="910.5,-12.5 910.5,-35.5 1030.5,-35.5 1030.5,-12.5 910.5,-12.5"/>
<text text-anchor="start" x="962.5" y="-20.3" font-family="arial" font-size="14.00"> 3 </text>
</g>
<!-- H1&#45;W1&#45;&#45;H1&#45;J2 -->
<g id="edge2" class="edge">
<title>H1&#45;W1:e&#45;&#45;H1&#45;J2:w</title>
<path fill="none" stroke="#000000" stroke-width="2" d="M621,-71.5C620.98,-69.5 836.98,-67.5 837,-69.5"/>
<path fill="none" stroke="#ff0000" stroke-width="2" d="M621,-71.5C621,-71.5 837,-69.5 837,-69.5"/>
<path fill="none" stroke="#000000" stroke-width="2" d="M621,-71.5C621.02,-73.5 837.02,-71.5 837,-69.5"/>
</g>
<!-- H1&#45;W1&#45;&#45;H1&#45;J2 -->
<g id="edge4" class="edge">
<title>H1&#45;W1:e&#45;&#45;H1&#45;J2:w</title>
<path fill="none" stroke="#000000" stroke-width="2" d="M621,-46.5C621,-44.5 837,-44.5 837,-46.5"/>
<path fill="none" stroke="#000000" stroke-width="2" d="M621,-46.5C621,-46.5 837,-46.5 837,-46.5"/>
<path fill="none" stroke="#000000" stroke-width="2" d="M621,-46.5C621,-48.5 837,-48.5 837,-46.5"/>
</g>
<!-- H1&#45;W1&#45;&#45;H1&#45;J2 -->
<g id="edge6" class="edge">
<title>H1&#45;W1:e&#45;&#45;H1&#45;J2:w</title>
<path fill="none" stroke="#000000" stroke-width="2" d="M621,-21.5C621.02,-19.5 837.02,-21.5 837,-23.5"/>
<path fill="none" stroke="#ffffff" stroke-width="2" d="M621,-21.5C621,-21.5 837,-23.5 837,-23.5"/>
<path fill="none" stroke="#000000" stroke-width="2" d="M621,-21.5C620.98,-23.5 836.98,-25.5 837,-23.5"/>
</g>
</g>
</svg>
