<?xml version="1.0" encoding="UTF-8" standalone="no"?>
<!DOCTYPE svg PUBLIC "-//W3C//DTD SVG 1.1//EN"
 "http://www.w3.org/Graphics/SVG/1.1/DTD/svg11.dtd">
<!-- Generated by graphviz version 2.43.0 (0)
 -->
<!-- Title: %3 Pages: 1 -->
<svg width="954pt" height="167pt"
 viewBox="0.00 0.00 954.00 167.00" xmlns="http://www.w3.org/2000/svg" xmlns:xlink="http://www.w3.org/1999/xlink">
<g id="graph0" class="graph" transform="scale(1 1) rotate(0) translate(4 163)">
<title>%3</title>
<polygon fill="#ffffff" stroke="transparent" points="-4,4 -4,-163 950,-163 950,4 -4,4"/>
<!-- T1&#45;J1 -->
<g id="node1" class="node">
<title>T1&#45;J1</title>
<polygon fill="#ffffff" stroke="black" points="166,-128 0,-128 0,-13 166,-13 166,-128"/>
<polygon fill="#ffffff" stroke="transparent" points="0,-13 0,-128 166,-128 166,-13 0,-13"/>
<polygon fill="#ffffff" stroke="transparent" points="0,-104.5 0,-127.5 166,-127.5 166,-104.5 0,-104.5"/>
<polygon fill="none" stroke="black" points="0,-104.5 0,-127.5 166,-127.5 166,-104.5 0,-104.5"/>
<text text-anchor="start" x="57.5" y="-113.3" font-family="arial" font-size="14.00"> </text>
<text text-anchor="start" x="61.5" y="-113.3" font-family="arial" font-weight="bold" font-size="14.00"> T1&#45;J1 </text>
<text text-anchor="start" x="104.5" y="-113.3" font-family="arial" font-size="14.00"> </text>
<polygon fill="none" stroke="black" points="0,-81.5 0,-104.5 63,-104.5 63,-81.5 0,-81.5"/>
<text text-anchor="start" x="4" y="-89.3" font-family="arial" font-size="14.00"> Circular </text>
<polygon fill="none" stroke="black" points="63,-81.5 63,-104.5 120,-104.5 120,-81.5 63,-81.5"/>
<text text-anchor="start" x="67" y="-89.3" font-family="arial" font-size="14.00"> female </text>
<polygon fill="none" stroke="black" points="120,-81.5 120,-104.5 166,-104.5 166,-81.5 120,-81.5"/>
<text text-anchor="start" x="124" y="-89.3" font-family="arial" font-size="14.00"> 3&#45;pin </text>
<polygon fill="none" stroke="black" points="0,-58.5 0,-81.5 103,-81.5 103,-58.5 0,-58.5"/>
<text text-anchor="start" x="43.5" y="-66.3" font-family="arial" font-size="14.00"> 1 </text>
<polygon fill="none" stroke="black" points="103,-58.5 103,-81.5 166,-81.5 166,-58.5 103,-58.5"/>
<text text-anchor="start" x="126.5" y="-66.3" font-family="arial" font-size="14.00"> 1 </text>
<polygon fill="none" stroke="black" points="0,-35.5 0,-58.5 103,-58.5 103,-35.5 0,-35.5"/>
<text text-anchor="start" x="43.5" y="-43.3" font-family="arial" font-size="14.00"> 2 </text>
<polygon fill="none" stroke="black" points="103,-35.5 103,-58.5 166,-58.5 166,-35.5 103,-35.5"/>
<text text-anchor="start" x="126.5" y="-43.3" font-family="arial" font-size="14.00"> 2 </text>
<polygon fill="none" stroke="black" points="0,-12.5 0,-35.5 103,-35.5 103,-12.5 0,-12.5"/>
<text text-anchor="start" x="43.5" y="-20.3" font-family="arial" font-size="14.00"> 3 </text>
<polygon fill="none" stroke="black" points="103,-12.5 103,-35.5 166,-35.5 166,-12.5 103,-12.5"/>
<text text-anchor="start" x="126.5" y="-20.3" font-family="arial" font-size="14.00"> 3 </text>
</g>
<!-- T1&#45;W1 -->
<g id="node3" class="node">
<title>T1&#45;W1</title>
<polygon fill="#ffffff" stroke="black" points="575,-159 382,-159 382,0 575,0 575,-159"/>
<polygon fill="#ffffff" stroke="transparent" points="382,0 382,-159 575,-159 575,0 382,0"/>
<polygon fill="#ffffff" stroke="transparent" points="382.5,-135.5 382.5,-158.5 575.5,-158.5 575.5,-135.5 382.5,-135.5"/>
<polygon fill="none" stroke="black" points="382.5,-135.5 382.5,-158.5 575.5,-158.5 575.5,-135.5 382.5,-135.5"/>
<text text-anchor="start" x="450.5" y="-144.3" font-family="arial" font-size="14.00"> </text>
<text text-anchor="start" x="454.5" y="-144.3" font-family="arial" font-weight="bold" font-size="14.00"> T1&#45;W1 </text>
<text text-anchor="start" x="503.5" y="-144.3" font-family="arial" font-size="14.00"> </text>
<polygon fill="none" stroke="black" points="382.5,-112.5 382.5,-135.5 425.5,-135.5 425.5,-112.5 382.5,-112.5"/>
<text text-anchor="start" x="393" y="-120.3" font-family="arial" font-size="14.00"> 3x </text>
<polygon fill="none" stroke="black" points="425.5,-112.5 425.5,-135.5 505.5,-135.5 505.5,-112.5 425.5,-112.5"/>
<text text-anchor="start" x="436" y="-120.3" font-family="arial" font-size="14.00"> 0.5 mm² </text>
<polygon fill="none" stroke="black" points="505.5,-112.5 505.5,-135.5 575.5,-135.5 575.5,-112.5 505.5,-112.5"/>
<text text-anchor="start" x="515.5" y="-120.3" font-family="arial" font-size="14.00"> 0.80 m </text>
<text text-anchor="start" x="415" y="-99.3" font-family="arial" font-size="14.00"> </text>
<text text-anchor="start" x="384.5" y="-80.3" font-family="arial" font-size="14.00"> T1&#45;J1:1:1 </text>
<text text-anchor="start" x="453.5" y="-80.3" font-family="arial" font-size="14.00"> </text>
<text text-anchor="start" x="461.5" y="-80.3" font-family="arial" font-size="14.00"> 1:RD </text>
<text text-anchor="start" x="504.5" y="-80.3" font-family="arial" font-size="14.00"> </text>
<text text-anchor="start" x="512.5" y="-80.3" font-family="arial" font-size="14.00"> T1&#45;J2:1:1</text>
<polygon fill="#000000" stroke="transparent" points="382.5,-72.5 382.5,-74.5 575.5,-74.5 575.5,-72.5 382.5,-72.5"/>
<polygon fill="#ff0000" stroke="transparent" points="382.5,-70.5 382.5,-72.5 575.5,-72.5 575.5,-70.5 382.5,-70.5"/>
<polygon fill="#000000" stroke="transparent" points="382.5,-68.5 382.5,-70.5 575.5,-70.5 575.5,-68.5 382.5,-68.5"/>
<text text-anchor="start" x="384.5" y="-55.3" font-family="arial" font-size="14.00"> T1&#45;J1:2:2 </text>
<text text-anchor="start" x="453.5" y="-55.3" font-family="arial" font-size="14.00"> </text>
<text text-anchor="start" x="462.5" y="-55.3" font-family="arial" font-size="14.00"> 2:BK </text>
<text text-anchor="start" x="504.5" y="-55.3" font-family="arial" font-size="14.00"> </text>
<text text-anchor="start" x="512.5" y="-55.3" font-family="arial" font-size="14.00"> T1&#45;J2:2:2</text>
<polygon fill="#000000" stroke="transparent" points="382.5,-47.5 382.5,-49.5 575.5,-49.5 575.5,-47.5 382.5,-47.5"/>
<polygon fill="#000000" stroke="transparent" points="382.5,-45.5 382.5,-47.5 575.5,-47.5 575.5,-45.5 382.5,-45.5"/>
<polygon fill="#000000" stroke="transparent" points="382.5,-43.5 382.5,-45.5 575.5,-45.5 575.5,-43.5 382.5,-43.5"/>
<text text-anchor="start" x="384.5" y="-30.3" font-family="arial" font-size="14.00"> T1&#45;J1:3:3 </text>
<text text-anchor="start" x="453.5" y="-30.3" font-family="arial" font-size="14.00"> </text>
<text text-anchor="start" x="462.5" y="-30.3" font-family="arial" font-size="14.00"> 3:YE </text>
<text text-anchor="start" x="504.5" y="-30.3" font-family="arial" font-size="14.00"> </text>
<text text-anchor="start" x="512.5" y="-30.3" font-family="arial" font-size="14.00"> T1&#45;J2:3:3</text>
<polygon fill="#000000" stroke="transparent" points="382.5,-22.5 382.5,-24.5 575.5,-24.5 575.5,-22.5 382.5,-22.5"/>
<polygon fill="#ffff00" stroke="transparent" points="382.5,-20.5 382.5,-22.5 575.5,-22.5 575.5,-20.5 382.5,-20.5"/>
<polygon fill="#000000" stroke="transparent" points="382.5,-18.5 382.5,-20.5 575.5,-20.5 575.5,-18.5 382.5,-18.5"/>
<text text-anchor="start" x="415" y="-5.3" font-family="arial" font-size="14.00"> </text>
</g>
<!-- T1&#45;J1&#45;&#45;T1&#45;W1 -->
<g id="edge1" class="edge">
<title>T1&#45;J1:e&#45;&#45;T1&#45;W1:w</title>
<path fill="none" stroke="#000000" stroke-width="2" d="M166,-69.5C166.02,-67.5 382.02,-69.5 382,-71.5"/>
<path fill="none" stroke="#ff0000" stroke-width="2" d="M166,-69.5C166,-69.5 382,-71.5 382,-71.5"/>
<path fill="none" stroke="#000000" stroke-width="2" d="M166,-69.5C165.98,-71.5 381.98,-73.5 382,-71.5"/>
</g>
<!-- T1&#45;J1&#45;&#45;T1&#45;W1 -->
<g id="edge3" class="edge">
<title>T1&#45;J1:e&#45;&#45;T1&#45;W1:w</title>
<path fill="none" stroke="#000000" stroke-width="2" d="M166,-46.5C166,-44.5 382,-44.5 382,-46.5"/>
<path fill="none" stroke="#000000" stroke-width="2" d="M166,-46.5C166,-46.5 382,-46.5 382,-46.5"/>
<path fill="none" stroke="#000000" stroke-width="2" d="M166,-46.5C166,-48.5 382,-48.5 382,-46.5"/>
</g>
<!-- T1&#45;J1&#45;&#45;T1&#45;W1 -->
<g id="edge5" class="edge">
<title>T1&#45;J1:e&#45;&#45;T1&#45;W1:w</title>
<path fill="none" stroke="#000000" stroke-width="2" d="M166,-23.5C165.98,-21.5 381.98,-19.5 382,-21.5"/>
<path fill="none" stroke="#ffff00" stroke-width="2" d="M166,-23.5C166,-23.5 382,-21.5 382,-21.5"/>
<path fill="none" stroke="#000000" stroke-width="2" d="M166,-23.5C166.02,-25.5 382.02,-23.5 382,-21.5"/>
</g>
<!-- T1&#45;J2 -->
<g id="node2" class="node">
<title>T1&#45;J2</title>
<polygon fill="#ffffff" stroke="black" points="946,-128 791,-128 791,-13 946,-13 946,-128"/>
<polygon fill="#ffffff" stroke="transparent" points="791,-13 791,-128 946,-128 946,-13 791,-13"/>
<polygon fill="#ffffff" stroke="transparent" points="791.5,-104.5 791.5,-127.5 946.5,-127.5 946.5,-104.5 791.5,-104.5"/>
<polygon fill="none" stroke="black" points="791.5,-104.5 791.5,-127.5 946.5,-127.5 946.5,-104.5 791.5,-104.5"/>
<text text-anchor="start" x="843.5" y="-113.3" font-family="arial" font-size="14.00"> </text>
<text text-anchor="start" x="847.5" y="-113.3" font-family="arial" font-weight="bold" font-size="14.00"> T1&#45;J2 </text>
<text text-anchor="start" x="890.5" y="-113.3" font-family="arial" font-size="14.00"> </text>
<polygon fill="none" stroke="black" points="791.5,-81.5 791.5,-104.5 854.5,-104.5 854.5,-81.5 791.5,-81.5"/>
<text text-anchor="start" x="795.5" y="-89.3" font-family="arial" font-size="14.00"> Circular </text>
<polygon fill="none" stroke="black" points="854.5,-81.5 854.5,-104.5 900.5,-104.5 900.5,-81.5 854.5,-81.5"/>
<text text-anchor="start" x="858.5" y="-89.3" font-family="arial" font-size="14.00"> male </text>
<polygon fill="none" stroke="black" points="900.5,-81.5 900.5,-104.5 946.5,-104.5 946.5,-81.5 900.5,-81.5"/>
<text text-anchor="start" x="904.5" y="-89.3" font-family="arial" font-size="14.00"> 3&#45;pin </text>
<polygon fill="none" stroke="black" points="791.5,-58.5 791.5,-81.5 851.5,-81.5 851.5,-58.5 791.5,-58.5"/>
<text text-anchor="start" x="813.5" y="-66.3" font-family="arial" font-size="14.00"> 1 </text>
<polygon fill="none" stroke="black" points="851.5,-58.5 851.5,-81.5 946.5,-81.5 946.5,-58.5 851.5,-58.5"/>
<text text-anchor="start" x="891" y="-66.3" font-family="arial" font-size="14.00"> 1 </text>
<polygon fill="none" stroke="black" points="791.5,-35.5 791.5,-58.5 851.5,-58.5 851.5,-35.5 791.5,-35.5"/>
<text text-anchor="start" x="813.5" y="-43.3" font-family="arial" font-size="14.00"> 2 </text>
<polygon fill="none" stroke="black" points="851.5,-35.5 851.5,-58.5 946.5,-58.5 946.5,-35.5 851.5,-35.5"/>
<text text-anchor="start" x="891" y="-43.3" font-family="arial" font-size="14.00"> 2 </text>
<polygon fill="none" stroke="black" points="791.5,-12.5 791.5,-35.5 851.5,-35.5 851.5,-12.5 791.5,-12.5"/>
<text text-anchor="start" x="813.5" y="-20.3" font-family="arial" font-size="14.00"> 3 </text>
<polygon fill="none" stroke="black" points="851.5,-12.5 851.5,-35.5 946.5,-35.5 946.5,-12.5 851.5,-12.5"/>
<text text-anchor="start" x="891" y="-20.3" font-family="arial" font-size="14.00"> 3 </text>
</g>
<!-- T1&#45;W1&#45;&#45;T1&#45;J2 -->
<g id="edge2" class="edge">
<title>T1&#45;W1:e&#45;&#45;T1&#45;J2:w</title>
<path fill="none" stroke="#000000" stroke-width="2" d="M575,-71.5C574.98,-69.5 790.98,-67.5 791,-69.5"/>
<path fill="none" stroke="#ff0000" stroke-width="2" d="M575,-71.5C575,-71.5 791,-69.5 791,-69.5"/>
<path fill="none" stroke="#000000" stroke-width="2" d="M575,-71.5C575.02,-73.5 791.02,-71.5 791,-69.5"/>
</g>
<!-- T1&#45;W1&#45;&#45;T1&#45;J2 -->
<g id="edge4" class="edge">
<title>T1&#45;W1:e&#45;&#45;T1&#45;J2:w</title>
<path fill="none" stroke="#000000" stroke-width="2" d="M575,-46.5C575,-44.5 791,-44.5 791,-46.5"/>
<path fill="none" stroke="#000000" stroke-width="2" d="M575,-46.5C575,-46.5 791,-46.5 791,-46.5"/>
<path fill="none" stroke="#000000" stroke-width="2" d="M575,-46.5C575,-48.5 791,-48.5 791,-46.5"/>
</g>
<!-- T1&#45;W1&#45;&#45;T1&#45;J2 -->
<g id="edge6" class="edge">
<title>T1&#45;W1:e&#45;&#45;T1&#45;J2:w</title>
<path fill="none" stroke="#000000" stroke-width="2" d="M575,-21.5C575.02,-19.5 791.02,-21.5 791,-23.5"/>
<path fill="none" stroke="#ffff00" stroke-width="2" d="M575,-21.5C575,-21.5 791,-23.5 791,-23.5"/>
<path fill="none" stroke="#000000" stroke-width="2" d="M575,-21.5C574.98,-23.5 790.98,-25.5 791,-23.5"/>
</g>
</g>
</svg>
