<?xml version="1.0" encoding="UTF-8" standalone="no"?>
<!DOCTYPE svg PUBLIC "-//W3C//DTD SVG 1.1//EN"
 "http://www.w3.org/Graphics/SVG/1.1/DTD/svg11.dtd">
<!-- Generated by graphviz version 2.43.0 (0)
 -->
<!-- Title: %3 Pages: 1 -->
<svg width="1085pt" height="217pt"
 viewBox="0.00 0.00 1085.00 217.00" xmlns="http://www.w3.org/2000/svg" xmlns:xlink="http://www.w3.org/1999/xlink">
<g id="graph0" class="graph" transform="scale(1 1) rotate(0) translate(4 213)">
<title>%3</title>
<polygon fill="#ffffff" stroke="transparent" points="-4,4 -4,-213 1081,-213 1081,4 -4,4"/>
<!-- T3&#45;J1 -->
<g id="node1" class="node">
<title>T3&#45;J1</title>
<polygon fill="#ffffff" stroke="black" points="231,-176 0,-176 0,-15 231,-15 231,-176"/>
<polygon fill="#ffffff" stroke="transparent" points="0,-15 0,-176 231,-176 231,-15 0,-15"/>
<polygon fill="#ffffff" stroke="transparent" points="0.5,-152.5 0.5,-175.5 231.5,-175.5 231.5,-152.5 0.5,-152.5"/>
<polygon fill="none" stroke="black" points="0.5,-152.5 0.5,-175.5 231.5,-175.5 231.5,-152.5 0.5,-152.5"/>
<text text-anchor="start" x="90.5" y="-161.3" font-family="arial" font-size="14.00"> </text>
<text text-anchor="start" x="94.5" y="-161.3" font-family="arial" font-weight="bold" font-size="14.00"> T3&#45;J1 </text>
<text text-anchor="start" x="137.5" y="-161.3" font-family="arial" font-size="14.00"> </text>
<polygon fill="none" stroke="black" points="0.5,-129.5 0.5,-152.5 128.5,-152.5 128.5,-129.5 0.5,-129.5"/>
<text text-anchor="start" x="4.5" y="-137.3" font-family="arial" font-size="14.00"> Molex MicroFit 3.0 </text>
<polygon fill="none" stroke="black" points="128.5,-129.5 128.5,-152.5 185.5,-152.5 185.5,-129.5 128.5,-129.5"/>
<text text-anchor="start" x="132.5" y="-137.3" font-family="arial" font-size="14.00"> female </text>
<polygon fill="none" stroke="black" points="185.5,-129.5 185.5,-152.5 231.5,-152.5 231.5,-129.5 185.5,-129.5"/>
<text text-anchor="start" x="189.5" y="-137.3" font-family="arial" font-size="14.00"> 5&#45;pin </text>
<polygon fill="none" stroke="black" points="0.5,-106.5 0.5,-129.5 146.5,-129.5 146.5,-106.5 0.5,-106.5"/>
<text text-anchor="start" x="65.5" y="-114.3" font-family="arial" font-size="14.00"> 1 </text>
<polygon fill="none" stroke="black" points="146.5,-106.5 146.5,-129.5 231.5,-129.5 231.5,-106.5 146.5,-106.5"/>
<text text-anchor="start" x="181" y="-114.3" font-family="arial" font-size="14.00"> 1 </text>
<polygon fill="none" stroke="black" points="0.5,-83.5 0.5,-106.5 146.5,-106.5 146.5,-83.5 0.5,-83.5"/>
<text text-anchor="start" x="65.5" y="-91.3" font-family="arial" font-size="14.00"> 2 </text>
<polygon fill="none" stroke="black" points="146.5,-83.5 146.5,-106.5 231.5,-106.5 231.5,-83.5 146.5,-83.5"/>
<text text-anchor="start" x="181" y="-91.3" font-family="arial" font-size="14.00"> 2 </text>
<polygon fill="none" stroke="black" points="0.5,-60.5 0.5,-83.5 146.5,-83.5 146.5,-60.5 0.5,-60.5"/>
<text text-anchor="start" x="65.5" y="-68.3" font-family="arial" font-size="14.00"> 3 </text>
<polygon fill="none" stroke="black" points="146.5,-60.5 146.5,-83.5 231.5,-83.5 231.5,-60.5 146.5,-60.5"/>
<text text-anchor="start" x="181" y="-68.3" font-family="arial" font-size="14.00"> 3 </text>
<polygon fill="none" stroke="black" points="0.5,-37.5 0.5,-60.5 146.5,-60.5 146.5,-37.5 0.5,-37.5"/>
<text text-anchor="start" x="65.5" y="-45.3" font-family="arial" font-size="14.00"> 4 </text>
<polygon fill="none" stroke="black" points="146.5,-37.5 146.5,-60.5 231.5,-60.5 231.5,-37.5 146.5,-37.5"/>
<text text-anchor="start" x="181" y="-45.3" font-family="arial" font-size="14.00"> 4 </text>
<polygon fill="none" stroke="black" points="0.5,-14.5 0.5,-37.5 146.5,-37.5 146.5,-14.5 0.5,-14.5"/>
<text text-anchor="start" x="65.5" y="-22.3" font-family="arial" font-size="14.00"> 5 </text>
<polygon fill="none" stroke="black" points="146.5,-14.5 146.5,-37.5 231.5,-37.5 231.5,-14.5 146.5,-14.5"/>
<text text-anchor="start" x="181" y="-22.3" font-family="arial" font-size="14.00"> 5 </text>
</g>
<!-- T3&#45;W1 -->
<g id="node3" class="node">
<title>T3&#45;W1</title>
<polygon fill="#ffffff" stroke="black" points="641,-209 447,-209 447,0 641,0 641,-209"/>
<polygon fill="#ffffff" stroke="transparent" points="447,0 447,-209 641,-209 641,0 447,0"/>
<polygon fill="#ffffff" stroke="transparent" points="447,-185.5 447,-208.5 641,-208.5 641,-185.5 447,-185.5"/>
<polygon fill="none" stroke="black" points="447,-185.5 447,-208.5 641,-208.5 641,-185.5 447,-185.5"/>
<text text-anchor="start" x="515.5" y="-194.3" font-family="arial" font-size="14.00"> </text>
<text text-anchor="start" x="519.5" y="-194.3" font-family="arial" font-weight="bold" font-size="14.00"> T3&#45;W1 </text>
<text text-anchor="start" x="568.5" y="-194.3" font-family="arial" font-size="14.00"> </text>
<polygon fill="none" stroke="black" points="447,-162.5 447,-185.5 490,-185.5 490,-162.5 447,-162.5"/>
<text text-anchor="start" x="457.5" y="-170.3" font-family="arial" font-size="14.00"> 5x </text>
<polygon fill="none" stroke="black" points="490,-162.5 490,-185.5 570,-185.5 570,-162.5 490,-162.5"/>
<text text-anchor="start" x="500.5" y="-170.3" font-family="arial" font-size="14.00"> 0.5 mm² </text>
<polygon fill="none" stroke="black" points="570,-162.5 570,-185.5 641,-185.5 641,-162.5 570,-162.5"/>
<text text-anchor="start" x="580.5" y="-170.3" font-family="arial" font-size="14.00"> 1.20 m </text>
<text text-anchor="start" x="479.5" y="-149.3" font-family="arial" font-size="14.00"> </text>
<text text-anchor="start" x="449" y="-130.3" font-family="arial" font-size="14.00"> T3&#45;J1:1:1 </text>
<text text-anchor="start" x="518" y="-130.3" font-family="arial" font-size="14.00"> </text>
<text text-anchor="start" x="526.5" y="-130.3" font-family="arial" font-size="14.00"> 1:RD </text>
<text text-anchor="start" x="570" y="-130.3" font-family="arial" font-size="14.00"> </text>
<text text-anchor="start" x="578" y="-130.3" font-family="arial" font-size="14.00"> T3&#45;J2:5:5</text>
<polygon fill="#000000" stroke="transparent" points="447,-122.5 447,-124.5 641,-124.5 641,-122.5 447,-122.5"/>
<polygon fill="#ff0000" stroke="transparent" points="447,-120.5 447,-122.5 641,-122.5 641,-120.5 447,-120.5"/>
<polygon fill="#000000" stroke="transparent" points="447,-118.5 447,-120.5 641,-120.5 641,-118.5 447,-118.5"/>
<text text-anchor="start" x="449" y="-105.3" font-family="arial" font-size="14.00"> T3&#45;J1:2:2 </text>
<text text-anchor="start" x="518" y="-105.3" font-family="arial" font-size="14.00"> </text>
<text text-anchor="start" x="527.5" y="-105.3" font-family="arial" font-size="14.00"> 2:BK </text>
<text text-anchor="start" x="570" y="-105.3" font-family="arial" font-size="14.00"> </text>
<text text-anchor="start" x="578" y="-105.3" font-family="arial" font-size="14.00"> T3&#45;J2:4:4</text>
<polygon fill="#000000" stroke="transparent" points="447,-97.5 447,-99.5 641,-99.5 641,-97.5 447,-97.5"/>
<polygon fill="#000000" stroke="transparent" points="447,-95.5 447,-97.5 641,-97.5 641,-95.5 447,-95.5"/>
<polygon fill="#000000" stroke="transparent" points="447,-93.5 447,-95.5 641,-95.5 641,-93.5 447,-93.5"/>
<text text-anchor="start" x="449" y="-80.3" font-family="arial" font-size="14.00"> T3&#45;J1:3:3 </text>
<text text-anchor="start" x="518" y="-80.3" font-family="arial" font-size="14.00"> </text>
<text text-anchor="start" x="527" y="-80.3" font-family="arial" font-size="14.00"> 3:BU </text>
<text text-anchor="start" x="570" y="-80.3" font-family="arial" font-size="14.00"> </text>
<text text-anchor="start" x="578" y="-80.3" font-family="arial" font-size="14.00"> T3&#45;J2:3:3</text>
<polygon fill="#000000" stroke="transparent" points="447,-72.5 447,-74.5 641,-74.5 641,-72.5 447,-72.5"/>
<polygon fill="#0066ff" stroke="transparent" points="447,-70.5 447,-72.5 641,-72.5 641,-70.5 447,-70.5"/>
<polygon fill="#000000" stroke="transparent" points="447,-68.5 447,-70.5 641,-70.5 641,-68.5 447,-68.5"/>
<text text-anchor="start" x="449" y="-55.3" font-family="arial" font-size="14.00"> T3&#45;J1:4:4 </text>
<text text-anchor="start" x="518" y="-55.3" font-family="arial" font-size="14.00"> </text>
<text text-anchor="start" x="527.5" y="-55.3" font-family="arial" font-size="14.00"> 4:YE </text>
<text text-anchor="start" x="570" y="-55.3" font-family="arial" font-size="14.00"> </text>
<text text-anchor="start" x="578" y="-55.3" font-family="arial" font-size="14.00"> T3&#45;J2:2:2</text>
<polygon fill="#000000" stroke="transparent" points="447,-47.5 447,-49.5 641,-49.5 641,-47.5 447,-47.5"/>
<polygon fill="#ffff00" stroke="transparent" points="447,-45.5 447,-47.5 641,-47.5 641,-45.5 447,-45.5"/>
<polygon fill="#000000" stroke="transparent" points="447,-43.5 447,-45.5 641,-45.5 641,-43.5 447,-43.5"/>
<text text-anchor="start" x="449" y="-30.3" font-family="arial" font-size="14.00"> T3&#45;J1:5:5 </text>
<text text-anchor="start" x="518" y="-30.3" font-family="arial" font-size="14.00"> </text>
<text text-anchor="start" x="526" y="-30.3" font-family="arial" font-size="14.00"> 5:GN </text>
<text text-anchor="start" x="570" y="-30.3" font-family="arial" font-size="14.00"> </text>
<text text-anchor="start" x="578" y="-30.3" font-family="arial" font-size="14.00"> T3&#45;J2:1:1</text>
<polygon fill="#000000" stroke="transparent" points="447,-22.5 447,-24.5 641,-24.5 641,-22.5 447,-22.5"/>
<polygon fill="#00aa00" stroke="transparent" points="447,-20.5 447,-22.5 641,-22.5 641,-20.5 447,-20.5"/>
<polygon fill="#000000" stroke="transparent" points="447,-18.5 447,-20.5 641,-20.5 641,-18.5 447,-18.5"/>
<text text-anchor="start" x="479.5" y="-5.3" font-family="arial" font-size="14.00"> </text>
</g>
<!-- T3&#45;J1&#45;&#45;T3&#45;W1 -->
<g id="edge1" class="edge">
<title>T3&#45;J1:e&#45;&#45;T3&#45;W1:w</title>
<path fill="none" stroke="#000000" stroke-width="2" d="M231,-118.5C231.03,-116.5 447.03,-119.5 447,-121.5"/>
<path fill="none" stroke="#ff0000" stroke-width="2" d="M231,-118.5C231,-118.5 447,-121.5 447,-121.5"/>
<path fill="none" stroke="#000000" stroke-width="2" d="M231,-118.5C230.97,-120.5 446.97,-123.5 447,-121.5"/>
</g>
<!-- T3&#45;J1&#45;&#45;T3&#45;W1 -->
<g id="edge3" class="edge">
<title>T3&#45;J1:e&#45;&#45;T3&#45;W1:w</title>
<path fill="none" stroke="#000000" stroke-width="2" d="M231,-94.5C231.02,-92.5 447.02,-94.5 447,-96.5"/>
<path fill="none" stroke="#000000" stroke-width="2" d="M231,-94.5C231,-94.5 447,-96.5 447,-96.5"/>
<path fill="none" stroke="#000000" stroke-width="2" d="M231,-94.5C230.98,-96.5 446.98,-98.5 447,-96.5"/>
</g>
<!-- T3&#45;J1&#45;&#45;T3&#45;W1 -->
<g id="edge5" class="edge">
<title>T3&#45;J1:e&#45;&#45;T3&#45;W1:w</title>
<path fill="none" stroke="#000000" stroke-width="2" d="M231,-71.5C231,-69.5 447,-69.5 447,-71.5"/>
<path fill="none" stroke="#0066ff" stroke-width="2" d="M231,-71.5C231,-71.5 447,-71.5 447,-71.5"/>
<path fill="none" stroke="#000000" stroke-width="2" d="M231,-71.5C231,-73.5 447,-73.5 447,-71.5"/>
</g>
<!-- T3&#45;J1&#45;&#45;T3&#45;W1 -->
<g id="edge7" class="edge">
<title>T3&#45;J1:e&#45;&#45;T3&#45;W1:w</title>
<path fill="none" stroke="#000000" stroke-width="2" d="M231,-48.5C230.98,-46.5 446.98,-44.5 447,-46.5"/>
<path fill="none" stroke="#ffff00" stroke-width="2" d="M231,-48.5C231,-48.5 447,-46.5 447,-46.5"/>
<path fill="none" stroke="#000000" stroke-width="2" d="M231,-48.5C231.02,-50.5 447.02,-48.5 447,-46.5"/>
</g>
<!-- T3&#45;J1&#45;&#45;T3&#45;W1 -->
<g id="edge9" class="edge">
<title>T3&#45;J1:e&#45;&#45;T3&#45;W1:w</title>
<path fill="none" stroke="#000000" stroke-width="2" d="M231,-25.5C230.96,-23.5 446.96,-19.5 447,-21.5"/>
<path fill="none" stroke="#00aa00" stroke-width="2" d="M231,-25.5C231,-25.5 447,-21.5 447,-21.5"/>
<path fill="none" stroke="#000000" stroke-width="2" d="M231,-25.5C231.04,-27.5 447.04,-23.5 447,-21.5"/>
</g>
<!-- T3&#45;J2 -->
<g id="node2" class="node">
<title>T3&#45;J2</title>
<polygon fill="#ffffff" stroke="black" points="1077,-176 857,-176 857,-15 1077,-15 1077,-176"/>
<polygon fill="#ffffff" stroke="transparent" points="857,-15 857,-176 1077,-176 1077,-15 857,-15"/>
<polygon fill="#ffffff" stroke="transparent" points="857,-152.5 857,-175.5 1077,-175.5 1077,-152.5 857,-152.5"/>
<polygon fill="none" stroke="black" points="857,-152.5 857,-175.5 1077,-175.5 1077,-152.5 857,-152.5"/>
<text text-anchor="start" x="941.5" y="-161.3" font-family="arial" font-size="14.00"> </text>
<text text-anchor="start" x="945.5" y="-161.3" font-family="arial" font-weight="bold" font-size="14.00"> T3&#45;J2 </text>
<text text-anchor="start" x="988.5" y="-161.3" font-family="arial" font-size="14.00"> </text>
<polygon fill="none" stroke="black" points="857,-129.5 857,-152.5 985,-152.5 985,-129.5 857,-129.5"/>
<text text-anchor="start" x="861" y="-137.3" font-family="arial" font-size="14.00"> Molex MicroFit 3.0 </text>
<polygon fill="none" stroke="black" points="985,-129.5 985,-152.5 1031,-152.5 1031,-129.5 985,-129.5"/>
<text text-anchor="start" x="989" y="-137.3" font-family="arial" font-size="14.00"> male </text>
<polygon fill="none" stroke="black" points="1031,-129.5 1031,-152.5 1077,-152.5 1077,-129.5 1031,-129.5"/>
<text text-anchor="start" x="1035" y="-137.3" font-family="arial" font-size="14.00"> 5&#45;pin </text>
<polygon fill="none" stroke="black" points="857,-106.5 857,-129.5 939,-129.5 939,-106.5 857,-106.5"/>
<text text-anchor="start" x="890" y="-114.3" font-family="arial" font-size="14.00"> 1 </text>
<polygon fill="none" stroke="black" points="939,-106.5 939,-129.5 1077,-129.5 1077,-106.5 939,-106.5"/>
<text text-anchor="start" x="1000" y="-114.3" font-family="arial" font-size="14.00"> 1 </text>
<polygon fill="none" stroke="black" points="857,-83.5 857,-106.5 939,-106.5 939,-83.5 857,-83.5"/>
<text text-anchor="start" x="890" y="-91.3" font-family="arial" font-size="14.00"> 2 </text>
<polygon fill="none" stroke="black" points="939,-83.5 939,-106.5 1077,-106.5 1077,-83.5 939,-83.5"/>
<text text-anchor="start" x="1000" y="-91.3" font-family="arial" font-size="14.00"> 2 </text>
<polygon fill="none" stroke="black" points="857,-60.5 857,-83.5 939,-83.5 939,-60.5 857,-60.5"/>
<text text-anchor="start" x="890" y="-68.3" font-family="arial" font-size="14.00"> 3 </text>
<polygon fill="none" stroke="black" points="939,-60.5 939,-83.5 1077,-83.5 1077,-60.5 939,-60.5"/>
<text text-anchor="start" x="1000" y="-68.3" font-family="arial" font-size="14.00"> 3 </text>
<polygon fill="none" stroke="black" points="857,-37.5 857,-60.5 939,-60.5 939,-37.5 857,-37.5"/>
<text text-anchor="start" x="890" y="-45.3" font-family="arial" font-size="14.00"> 4 </text>
<polygon fill="none" stroke="black" points="939,-37.5 939,-60.5 1077,-60.5 1077,-37.5 939,-37.5"/>
<text text-anchor="start" x="1000" y="-45.3" font-family="arial" font-size="14.00"> 4 </text>
<polygon fill="none" stroke="black" points="857,-14.5 857,-37.5 939,-37.5 939,-14.5 857,-14.5"/>
<text text-anchor="start" x="890" y="-22.3" font-family="arial" font-size="14.00"> 5 </text>
<polygon fill="none" stroke="black" points="939,-14.5 939,-37.5 1077,-37.5 1077,-14.5 939,-14.5"/>
<text text-anchor="start" x="1000" y="-22.3" font-family="arial" font-size="14.00"> 5 </text>
</g>
<!-- T3&#45;W1&#45;&#45;T3&#45;J2 -->
<g id="edge2" class="edge">
<title>T3&#45;W1:e&#45;&#45;T3&#45;J2:w</title>
<path fill="none" stroke="#000000" stroke-width="2" d="M641,-121.5C640.19,-119.67 856.19,-23.67 857,-25.5"/>
<path fill="none" stroke="#ff0000" stroke-width="2" d="M641,-121.5C641,-121.5 857,-25.5 857,-25.5"/>
<path fill="none" stroke="#000000" stroke-width="2" d="M641,-121.5C641.81,-123.33 857.81,-27.33 857,-25.5"/>
</g>
<!-- T3&#45;W1&#45;&#45;T3&#45;J2 -->
<g id="edge4" class="edge">
<title>T3&#45;W1:e&#45;&#45;T3&#45;J2:w</title>
<path fill="none" stroke="#000000" stroke-width="2" d="M641,-96.5C640.57,-94.55 856.57,-46.55 857,-48.5"/>
<path fill="none" stroke="#000000" stroke-width="2" d="M641,-96.5C641,-96.5 857,-48.5 857,-48.5"/>
<path fill="none" stroke="#000000" stroke-width="2" d="M641,-96.5C641.43,-98.45 857.43,-50.45 857,-48.5"/>
</g>
<!-- T3&#45;W1&#45;&#45;T3&#45;J2 -->
<g id="edge6" class="edge">
<title>T3&#45;W1:e&#45;&#45;T3&#45;J2:w</title>
<path fill="none" stroke="#000000" stroke-width="2" d="M641,-71.5C641,-69.5 857,-69.5 857,-71.5"/>
<path fill="none" stroke="#0066ff" stroke-width="2" d="M641,-71.5C641,-71.5 857,-71.5 857,-71.5"/>
<path fill="none" stroke="#000000" stroke-width="2" d="M641,-71.5C641,-73.5 857,-73.5 857,-71.5"/>
</g>
<!-- T3&#45;W1&#45;&#45;T3&#45;J2 -->
<g id="edge8" class="edge">
<title>T3&#45;W1:e&#45;&#45;T3&#45;J2:w</title>
<path fill="none" stroke="#000000" stroke-width="2" d="M641,-46.5C641.43,-44.55 857.43,-92.55 857,-94.5"/>
<path fill="none" stroke="#ffff00" stroke-width="2" d="M641,-46.5C641,-46.5 857,-94.5 857,-94.5"/>
<path fill="none" stroke="#000000" stroke-width="2" d="M641,-46.5C640.57,-48.45 856.57,-96.45 857,-94.5"/>
</g>
<!-- T3&#45;W1&#45;&#45;T3&#45;J2 -->
<g id="edge10" class="edge">
<title>T3&#45;W1:e&#45;&#45;T3&#45;J2:w</title>
<path fill="none" stroke="#000000" stroke-width="2" d="M641,-21.5C641.82,-19.68 857.82,-116.68 857,-118.5"/>
<path fill="none" stroke="#00aa00" stroke-width="2" d="M641,-21.5C641,-21.5 857,-118.5 857,-118.5"/>
<path fill="none" stroke="#000000" stroke-width="2" d="M641,-21.5C640.18,-23.32 856.18,-120.32 857,-118.5"/>
</g>
</g>
</svg>
