<?xml version="1.0" encoding="UTF-8" standalone="no"?>
<!DOCTYPE svg PUBLIC "-//W3C//DTD SVG 1.1//EN"
 "http://www.w3.org/Graphics/SVG/1.1/DTD/svg11.dtd">
<!-- Generated by graphviz version 2.43.0 (0)
 -->
<!-- Title: %3 Pages: 1 -->
<svg width="940pt" height="192pt"
 viewBox="0.00 0.00 940.00 192.00" xmlns="http://www.w3.org/2000/svg" xmlns:xlink="http://www.w3.org/1999/xlink">
<g id="graph0" class="graph" transform="scale(1 1) rotate(0) translate(4 188)">
<title>%3</title>
<polygon fill="#ffffff" stroke="transparent" points="-4,4 -4,-188 936,-188 936,4 -4,4"/>
<!-- T2&#45;J1 -->
<g id="node1" class="node">
<title>T2&#45;J1</title>
<polygon fill="#ffffff" stroke="black" points="157,-152 0,-152 0,-14 157,-14 157,-152"/>
<polygon fill="#ffffff" stroke="transparent" points="0,-14 0,-152 157,-152 157,-14 0,-14"/>
<polygon fill="#ffffff" stroke="transparent" points="0.5,-129 0.5,-152 157.5,-152 157.5,-129 0.5,-129"/>
<polygon fill="none" stroke="black" points="0.5,-129 0.5,-152 157.5,-152 157.5,-129 0.5,-129"/>
<text text-anchor="start" x="53.5" y="-137.8" font-family="arial" font-size="14.00"> </text>
<text text-anchor="start" x="57.5" y="-137.8" font-family="arial" font-weight="bold" font-size="14.00"> T2&#45;J1 </text>
<text text-anchor="start" x="100.5" y="-137.8" font-family="arial" font-size="14.00"> </text>
<polygon fill="none" stroke="black" points="0.5,-106 0.5,-129 54.5,-129 54.5,-106 0.5,-106"/>
<text text-anchor="start" x="4.5" y="-113.8" font-family="arial" font-size="14.00"> D&#45;Sub </text>
<polygon fill="none" stroke="black" points="54.5,-106 54.5,-129 111.5,-129 111.5,-106 54.5,-106"/>
<text text-anchor="start" x="58.5" y="-113.8" font-family="arial" font-size="14.00"> female </text>
<polygon fill="none" stroke="black" points="111.5,-106 111.5,-129 157.5,-129 157.5,-106 111.5,-106"/>
<text text-anchor="start" x="115.5" y="-113.8" font-family="arial" font-size="14.00"> 4&#45;pin </text>
<polygon fill="none" stroke="black" points="0.5,-83 0.5,-106 97.5,-106 97.5,-83 0.5,-83"/>
<text text-anchor="start" x="41" y="-90.8" font-family="arial" font-size="14.00"> 1 </text>
<polygon fill="none" stroke="black" points="97.5,-83 97.5,-106 157.5,-106 157.5,-83 97.5,-83"/>
<text text-anchor="start" x="119.5" y="-90.8" font-family="arial" font-size="14.00"> 1 </text>
<polygon fill="none" stroke="black" points="0.5,-60 0.5,-83 97.5,-83 97.5,-60 0.5,-60"/>
<text text-anchor="start" x="41" y="-67.8" font-family="arial" font-size="14.00"> 2 </text>
<polygon fill="none" stroke="black" points="97.5,-60 97.5,-83 157.5,-83 157.5,-60 97.5,-60"/>
<text text-anchor="start" x="119.5" y="-67.8" font-family="arial" font-size="14.00"> 2 </text>
<polygon fill="none" stroke="black" points="0.5,-37 0.5,-60 97.5,-60 97.5,-37 0.5,-37"/>
<text text-anchor="start" x="41" y="-44.8" font-family="arial" font-size="14.00"> 3 </text>
<polygon fill="none" stroke="black" points="97.5,-37 97.5,-60 157.5,-60 157.5,-37 97.5,-37"/>
<text text-anchor="start" x="119.5" y="-44.8" font-family="arial" font-size="14.00"> 3 </text>
<polygon fill="none" stroke="black" points="0.5,-14 0.5,-37 97.5,-37 97.5,-14 0.5,-14"/>
<text text-anchor="start" x="41" y="-21.8" font-family="arial" font-size="14.00"> 4 </text>
<polygon fill="none" stroke="black" points="97.5,-14 97.5,-37 157.5,-37 157.5,-14 97.5,-14"/>
<text text-anchor="start" x="119.5" y="-21.8" font-family="arial" font-size="14.00"> 4 </text>
</g>
<!-- T2&#45;W1 -->
<g id="node3" class="node">
<title>T2&#45;W1</title>
<polygon fill="#ffffff" stroke="black" points="570,-184 373,-184 373,0 570,0 570,-184"/>
<polygon fill="#ffffff" stroke="transparent" points="373,0 373,-184 570,-184 570,0 373,0"/>
<polygon fill="#ffffff" stroke="transparent" points="373.5,-161 373.5,-184 570.5,-184 570.5,-161 373.5,-161"/>
<polygon fill="none" stroke="black" points="373.5,-161 373.5,-184 570.5,-184 570.5,-161 373.5,-161"/>
<text text-anchor="start" x="443.5" y="-169.8" font-family="arial" font-size="14.00"> </text>
<text text-anchor="start" x="447.5" y="-169.8" font-family="arial" font-weight="bold" font-size="14.00"> T2&#45;W1 </text>
<text text-anchor="start" x="496.5" y="-169.8" font-family="arial" font-size="14.00"> </text>
<polygon fill="none" stroke="black" points="373.5,-138 373.5,-161 421.5,-161 421.5,-138 373.5,-138"/>
<text text-anchor="start" x="386.5" y="-145.8" font-family="arial" font-size="14.00"> 4x </text>
<polygon fill="none" stroke="black" points="421.5,-138 421.5,-161 514.5,-161 514.5,-138 421.5,-138"/>
<text text-anchor="start" x="434.5" y="-145.8" font-family="arial" font-size="14.00"> 0.35 mm² </text>
<polygon fill="none" stroke="black" points="514.5,-138 514.5,-161 570.5,-161 570.5,-138 514.5,-138"/>
<text text-anchor="start" x="527" y="-145.8" font-family="arial" font-size="14.00"> 1 m </text>
<text text-anchor="start" x="406" y="-124.8" font-family="arial" font-size="14.00"> </text>
<text text-anchor="start" x="375.5" y="-105.8" font-family="arial" font-size="14.00"> T2&#45;J1:1:1 </text>
<text text-anchor="start" x="444.5" y="-105.8" font-family="arial" font-size="14.00"> </text>
<text text-anchor="start" x="454.5" y="-105.8" font-family="arial" font-size="14.00"> 1:RD </text>
<text text-anchor="start" x="499.5" y="-105.8" font-family="arial" font-size="14.00"> </text>
<text text-anchor="start" x="507.5" y="-105.8" font-family="arial" font-size="14.00"> T2&#45;J2:1:1</text>
<polygon fill="#000000" stroke="transparent" points="373.5,-98 373.5,-100 570.5,-100 570.5,-98 373.5,-98"/>
<polygon fill="#ff0000" stroke="transparent" points="373.5,-96 373.5,-98 570.5,-98 570.5,-96 373.5,-96"/>
<polygon fill="#000000" stroke="transparent" points="373.5,-94 373.5,-96 570.5,-96 570.5,-94 373.5,-94"/>
<text text-anchor="start" x="375.5" y="-80.8" font-family="arial" font-size="14.00"> T2&#45;J1:2:2 </text>
<text text-anchor="start" x="444.5" y="-80.8" font-family="arial" font-size="14.00"> </text>
<text text-anchor="start" x="455.5" y="-80.8" font-family="arial" font-size="14.00"> 2:BK </text>
<text text-anchor="start" x="499.5" y="-80.8" font-family="arial" font-size="14.00"> </text>
<text text-anchor="start" x="507.5" y="-80.8" font-family="arial" font-size="14.00"> T2&#45;J2:2:2</text>
<polygon fill="#000000" stroke="transparent" points="373.5,-73 373.5,-75 570.5,-75 570.5,-73 373.5,-73"/>
<polygon fill="#000000" stroke="transparent" points="373.5,-71 373.5,-73 570.5,-73 570.5,-71 373.5,-71"/>
<polygon fill="#000000" stroke="transparent" points="373.5,-69 373.5,-71 570.5,-71 570.5,-69 373.5,-69"/>
<text text-anchor="start" x="375.5" y="-55.8" font-family="arial" font-size="14.00"> T2&#45;J1:3:3 </text>
<text text-anchor="start" x="444.5" y="-55.8" font-family="arial" font-size="14.00"> </text>
<text text-anchor="start" x="454" y="-55.8" font-family="arial" font-size="14.00"> 3:GN </text>
<text text-anchor="start" x="499.5" y="-55.8" font-family="arial" font-size="14.00"> </text>
<text text-anchor="start" x="507.5" y="-55.8" font-family="arial" font-size="14.00"> T2&#45;J2:3:3</text>
<polygon fill="#000000" stroke="transparent" points="373.5,-48 373.5,-50 570.5,-50 570.5,-48 373.5,-48"/>
<polygon fill="#00aa00" stroke="transparent" points="373.5,-46 373.5,-48 570.5,-48 570.5,-46 373.5,-46"/>
<polygon fill="#000000" stroke="transparent" points="373.5,-44 373.5,-46 570.5,-46 570.5,-44 373.5,-44"/>
<text text-anchor="start" x="375.5" y="-30.8" font-family="arial" font-size="14.00"> T2&#45;J1:4:4 </text>
<text text-anchor="start" x="444.5" y="-30.8" font-family="arial" font-size="14.00"> </text>
<text text-anchor="start" x="452.5" y="-30.8" font-family="arial" font-size="14.00"> 4:WH </text>
<text text-anchor="start" x="499.5" y="-30.8" font-family="arial" font-size="14.00"> </text>
<text text-anchor="start" x="507.5" y="-30.8" font-family="arial" font-size="14.00"> T2&#45;J2:4:4</text>
<polygon fill="#000000" stroke="transparent" points="373.5,-23 373.5,-25 570.5,-25 570.5,-23 373.5,-23"/>
<polygon fill="#ffffff" stroke="transparent" points="373.5,-21 373.5,-23 570.5,-23 570.5,-21 373.5,-21"/>
<polygon fill="#000000" stroke="transparent" points="373.5,-19 373.5,-21 570.5,-21 570.5,-19 373.5,-19"/>
<text text-anchor="start" x="406" y="-5.8" font-family="arial" font-size="14.00"> </text>
</g>
<!-- T2&#45;J1&#45;&#45;T2&#45;W1 -->
<g id="edge1" class="edge">
<title>T2&#45;J1:e&#45;&#45;T2&#45;W1:w</title>
<path fill="none" stroke="#000000" stroke-width="2" d="M157,-95C157.02,-93 373.02,-95 373,-97"/>
<path fill="none" stroke="#ff0000" stroke-width="2" d="M157,-95C157,-95 373,-97 373,-97"/>
<path fill="none" stroke="#000000" stroke-width="2" d="M157,-95C156.98,-97 372.98,-99 373,-97"/>
</g>
<!-- T2&#45;J1&#45;&#45;T2&#45;W1 -->
<g id="edge3" class="edge">
<title>T2&#45;J1:e&#45;&#45;T2&#45;W1:w</title>
<path fill="none" stroke="#000000" stroke-width="2" d="M157,-71C157.01,-69 373.01,-70 373,-72"/>
<path fill="none" stroke="#000000" stroke-width="2" d="M157,-71C157,-71 373,-72 373,-72"/>
<path fill="none" stroke="#000000" stroke-width="2" d="M157,-71C156.99,-73 372.99,-74 373,-72"/>
</g>
<!-- T2&#45;J1&#45;&#45;T2&#45;W1 -->
<g id="edge5" class="edge">
<title>T2&#45;J1:e&#45;&#45;T2&#45;W1:w</title>
<path fill="none" stroke="#000000" stroke-width="2" d="M157,-48C156.99,-46 372.99,-45 373,-47"/>
<path fill="none" stroke="#00aa00" stroke-width="2" d="M157,-48C157,-48 373,-47 373,-47"/>
<path fill="none" stroke="#000000" stroke-width="2" d="M157,-48C157.01,-50 373.01,-49 373,-47"/>
</g>
<!-- T2&#45;J1&#45;&#45;T2&#45;W1 -->
<g id="edge7" class="edge">
<title>T2&#45;J1:e&#45;&#45;T2&#45;W1:w</title>
<path fill="none" stroke="#000000" stroke-width="2" d="M157,-25C156.97,-23 372.97,-20 373,-22"/>
<path fill="none" stroke="#ffffff" stroke-width="2" d="M157,-25C157,-25 373,-22 373,-22"/>
<path fill="none" stroke="#000000" stroke-width="2" d="M157,-25C157.03,-27 373.03,-24 373,-22"/>
</g>
<!-- T2&#45;J2 -->
<g id="node2" class="node">
<title>T2&#45;J2</title>
<polygon fill="#ffffff" stroke="black" points="932,-152 786,-152 786,-14 932,-14 932,-152"/>
<polygon fill="#ffffff" stroke="transparent" points="786,-14 786,-152 932,-152 932,-14 786,-14"/>
<polygon fill="#ffffff" stroke="transparent" points="786,-129 786,-152 932,-152 932,-129 786,-129"/>
<polygon fill="none" stroke="black" points="786,-129 786,-152 932,-152 932,-129 786,-129"/>
<text text-anchor="start" x="833.5" y="-137.8" font-family="arial" font-size="14.00"> </text>
<text text-anchor="start" x="837.5" y="-137.8" font-family="arial" font-weight="bold" font-size="14.00"> T2&#45;J2 </text>
<text text-anchor="start" x="880.5" y="-137.8" font-family="arial" font-size="14.00"> </text>
<polygon fill="none" stroke="black" points="786,-106 786,-129 840,-129 840,-106 786,-106"/>
<text text-anchor="start" x="790" y="-113.8" font-family="arial" font-size="14.00"> D&#45;Sub </text>
<polygon fill="none" stroke="black" points="840,-106 840,-129 886,-129 886,-106 840,-106"/>
<text text-anchor="start" x="844" y="-113.8" font-family="arial" font-size="14.00"> male </text>
<polygon fill="none" stroke="black" points="886,-106 886,-129 932,-129 932,-106 886,-106"/>
<text text-anchor="start" x="890" y="-113.8" font-family="arial" font-size="14.00"> 4&#45;pin </text>
<polygon fill="none" stroke="black" points="786,-83 786,-106 843,-106 843,-83 786,-83"/>
<text text-anchor="start" x="806.5" y="-90.8" font-family="arial" font-size="14.00"> 1 </text>
<polygon fill="none" stroke="black" points="843,-83 843,-106 932,-106 932,-83 843,-83"/>
<text text-anchor="start" x="879.5" y="-90.8" font-family="arial" font-size="14.00"> 1 </text>
<polygon fill="none" stroke="black" points="786,-60 786,-83 843,-83 843,-60 786,-60"/>
<text text-anchor="start" x="806.5" y="-67.8" font-family="arial" font-size="14.00"> 2 </text>
<polygon fill="none" stroke="black" points="843,-60 843,-83 932,-83 932,-60 843,-60"/>
<text text-anchor="start" x="879.5" y="-67.8" font-family="arial" font-size="14.00"> 2 </text>
<polygon fill="none" stroke="black" points="786,-37 786,-60 843,-60 843,-37 786,-37"/>
<text text-anchor="start" x="806.5" y="-44.8" font-family="arial" font-size="14.00"> 3 </text>
<polygon fill="none" stroke="black" points="843,-37 843,-60 932,-60 932,-37 843,-37"/>
<text text-anchor="start" x="879.5" y="-44.8" font-family="arial" font-size="14.00"> 3 </text>
<polygon fill="none" stroke="black" points="786,-14 786,-37 843,-37 843,-14 786,-14"/>
<text text-anchor="start" x="806.5" y="-21.8" font-family="arial" font-size="14.00"> 4 </text>
<polygon fill="none" stroke="black" points="843,-14 843,-37 932,-37 932,-14 843,-14"/>
<text text-anchor="start" x="879.5" y="-21.8" font-family="arial" font-size="14.00"> 4 </text>
</g>
<!-- T2&#45;W1&#45;&#45;T2&#45;J2 -->
<g id="edge2" class="edge">
<title>T2&#45;W1:e&#45;&#45;T2&#45;J2:w</title>
<path fill="none" stroke="#000000" stroke-width="2" d="M570,-97C569.98,-95 785.98,-93 786,-95"/>
<path fill="none" stroke="#ff0000" stroke-width="2" d="M570,-97C570,-97 786,-95 786,-95"/>
<path fill="none" stroke="#000000" stroke-width="2" d="M570,-97C570.02,-99 786.02,-97 786,-95"/>
</g>
<!-- T2&#45;W1&#45;&#45;T2&#45;J2 -->
<g id="edge4" class="edge">
<title>T2&#45;W1:e&#45;&#45;T2&#45;J2:w</title>
<path fill="none" stroke="#000000" stroke-width="2" d="M570,-72C569.99,-70 785.99,-69 786,-71"/>
<path fill="none" stroke="#000000" stroke-width="2" d="M570,-72C570,-72 786,-71 786,-71"/>
<path fill="none" stroke="#000000" stroke-width="2" d="M570,-72C570.01,-74 786.01,-73 786,-71"/>
</g>
<!-- T2&#45;W1&#45;&#45;T2&#45;J2 -->
<g id="edge6" class="edge">
<title>T2&#45;W1:e&#45;&#45;T2&#45;J2:w</title>
<path fill="none" stroke="#000000" stroke-width="2" d="M570,-47C570.01,-45 786.01,-46 786,-48"/>
<path fill="none" stroke="#00aa00" stroke-width="2" d="M570,-47C570,-47 786,-48 786,-48"/>
<path fill="none" stroke="#000000" stroke-width="2" d="M570,-47C569.99,-49 785.99,-50 786,-48"/>
</g>
<!-- T2&#45;W1&#45;&#45;T2&#45;J2 -->
<g id="edge8" class="edge">
<title>T2&#45;W1:e&#45;&#45;T2&#45;J2:w</title>
<path fill="none" stroke="#000000" stroke-width="2" d="M570,-22C570.03,-20 786.03,-23 786,-25"/>
<path fill="none" stroke="#ffffff" stroke-width="2" d="M570,-22C570,-22 786,-25 786,-25"/>
<path fill="none" stroke="#000000" stroke-width="2" d="M570,-22C569.97,-24 785.97,-27 786,-25"/>
</g>
</g>
</svg>
