<?xml version="1.0" encoding="UTF-8" standalone="no"?>
<!DOCTYPE svg PUBLIC "-//W3C//DTD SVG 1.1//EN"
 "http://www.w3.org/Graphics/SVG/1.1/DTD/svg11.dtd">
<!-- Generated by graphviz version 2.43.0 (0)
 -->
<!-- Title: %3 Pages: 1 -->
<svg width="924pt" height="167pt"
 viewBox="0.00 0.00 924.00 167.00" xmlns="http://www.w3.org/2000/svg" xmlns:xlink="http://www.w3.org/1999/xlink">
<g id="graph0" class="graph" transform="scale(1 1) rotate(0) translate(4 163)">
<title>%3</title>
<polygon fill="#ffffff" stroke="transparent" points="-4,4 -4,-163 920,-163 920,4 -4,4"/>
<!-- J1 -->
<g id="node1" class="node">
<title>J1</title>
<polygon fill="#ffffff" stroke="black" points="166,-128 0,-128 0,-13 166,-13 166,-128"/>
<polygon fill="#ffffff" stroke="transparent" points="0,-13 0,-128 166,-128 166,-13 0,-13"/>
<polygon fill="#ffffff" stroke="transparent" points="0,-104.5 0,-127.5 166,-127.5 166,-104.5 0,-104.5"/>
<polygon fill="none" stroke="black" points="0,-104.5 0,-127.5 166,-127.5 166,-104.5 0,-104.5"/>
<text text-anchor="start" x="67.5" y="-113.3" font-family="arial" font-size="14.00"> </text>
<text text-anchor="start" x="71.5" y="-113.3" font-family="arial" font-weight="bold" font-size="14.00"> J1 </text>
<text text-anchor="start" x="94.5" y="-113.3" font-family="arial" font-size="14.00"> </text>
<polygon fill="none" stroke="black" points="0,-81.5 0,-104.5 63,-104.5 63,-81.5 0,-81.5"/>
<text text-anchor="start" x="4" y="-89.3" font-family="arial" font-size="14.00"> JST PH </text>
<polygon fill="none" stroke="black" points="63,-81.5 63,-104.5 120,-104.5 120,-81.5 63,-81.5"/>
<text text-anchor="start" x="67" y="-89.3" font-family="arial" font-size="14.00"> female </text>
<polygon fill="none" stroke="black" points="120,-81.5 120,-104.5 166,-104.5 166,-81.5 120,-81.5"/>
<text text-anchor="start" x="124" y="-89.3" font-family="arial" font-size="14.00"> 3&#45;pin </text>
<polygon fill="none" stroke="black" points="0,-58.5 0,-81.5 103,-81.5 103,-58.5 0,-58.5"/>
<text text-anchor="start" x="43.5" y="-66.3" font-family="arial" font-size="14.00"> 1 </text>
<polygon fill="none" stroke="black" points="103,-58.5 103,-81.5 166,-81.5 166,-58.5 103,-58.5"/>
<text text-anchor="start" x="126.5" y="-66.3" font-family="arial" font-size="14.00"> 1 </text>
<polygon fill="none" stroke="black" points="0,-35.5 0,-58.5 103,-58.5 103,-35.5 0,-35.5"/>
<text text-anchor="start" x="43.5" y="-43.3" font-family="arial" font-size="14.00"> 2 </text>
<polygon fill="none" stroke="black" points="103,-35.5 103,-58.5 166,-58.5 166,-35.5 103,-35.5"/>
<text text-anchor="start" x="126.5" y="-43.3" font-family="arial" font-size="14.00"> 2 </text>
<polygon fill="none" stroke="black" points="0,-12.5 0,-35.5 103,-35.5 103,-12.5 0,-12.5"/>
<text text-anchor="start" x="43.5" y="-20.3" font-family="arial" font-size="14.00"> 3 </text>
<polygon fill="none" stroke="black" points="103,-12.5 103,-35.5 166,-35.5 166,-12.5 103,-12.5"/>
<text text-anchor="start" x="126.5" y="-20.3" font-family="arial" font-size="14.00"> 3 </text>
</g>
<!-- W1 -->
<g id="node3" class="node">
<title>W1</title>
<polygon fill="#ffffff" stroke="black" points="545,-159 382,-159 382,0 545,0 545,-159"/>
<polygon fill="#ffffff" stroke="transparent" points="382,0 382,-159 545,-159 545,0 382,0"/>
<polygon fill="#ffffff" stroke="transparent" points="382.5,-135.5 382.5,-158.5 545.5,-158.5 545.5,-135.5 382.5,-135.5"/>
<polygon fill="none" stroke="black" points="382.5,-135.5 382.5,-158.5 545.5,-158.5 545.5,-135.5 382.5,-135.5"/>
<text text-anchor="start" x="445.5" y="-144.3" font-family="arial" font-size="14.00"> </text>
<text text-anchor="start" x="449.5" y="-144.3" font-family="arial" font-weight="bold" font-size="14.00"> W1 </text>
<text text-anchor="start" x="478.5" y="-144.3" font-family="arial" font-size="14.00"> </text>
<polygon fill="none" stroke="black" points="382.5,-112.5 382.5,-135.5 412.5,-135.5 412.5,-112.5 382.5,-112.5"/>
<text text-anchor="start" x="386.5" y="-120.3" font-family="arial" font-size="14.00"> 3x </text>
<polygon fill="none" stroke="black" points="412.5,-112.5 412.5,-135.5 487.5,-135.5 487.5,-112.5 412.5,-112.5"/>
<text text-anchor="start" x="416.5" y="-120.3" font-family="arial" font-size="14.00"> 0.35 mm² </text>
<polygon fill="none" stroke="black" points="487.5,-112.5 487.5,-135.5 545.5,-135.5 545.5,-112.5 487.5,-112.5"/>
<text text-anchor="start" x="491.5" y="-120.3" font-family="arial" font-size="14.00"> 0.40 m </text>
<text text-anchor="start" x="406" y="-99.3" font-family="arial" font-size="14.00"> </text>
<text text-anchor="start" x="384.5" y="-80.3" font-family="arial" font-size="14.00"> J1:1:1 </text>
<text text-anchor="start" x="436.5" y="-80.3" font-family="arial" font-size="14.00"> </text>
<text text-anchor="start" x="447" y="-80.3" font-family="arial" font-size="14.00"> 1:RD </text>
<text text-anchor="start" x="492.5" y="-80.3" font-family="arial" font-size="14.00"> </text>
<text text-anchor="start" x="502.5" y="-80.3" font-family="arial" font-size="14.00"> J2:3:3</text>
<polygon fill="#000000" stroke="transparent" points="382.5,-72.5 382.5,-74.5 545.5,-74.5 545.5,-72.5 382.5,-72.5"/>
<polygon fill="#ff0000" stroke="transparent" points="382.5,-70.5 382.5,-72.5 545.5,-72.5 545.5,-70.5 382.5,-70.5"/>
<polygon fill="#000000" stroke="transparent" points="382.5,-68.5 382.5,-70.5 545.5,-70.5 545.5,-68.5 382.5,-68.5"/>
<text text-anchor="start" x="384.5" y="-55.3" font-family="arial" font-size="14.00"> J1:2:2 </text>
<text text-anchor="start" x="436.5" y="-55.3" font-family="arial" font-size="14.00"> </text>
<text text-anchor="start" x="448" y="-55.3" font-family="arial" font-size="14.00"> 2:BK </text>
<text text-anchor="start" x="492.5" y="-55.3" font-family="arial" font-size="14.00"> </text>
<text text-anchor="start" x="502.5" y="-55.3" font-family="arial" font-size="14.00"> J2:2:2</text>
<polygon fill="#000000" stroke="transparent" points="382.5,-47.5 382.5,-49.5 545.5,-49.5 545.5,-47.5 382.5,-47.5"/>
<polygon fill="#000000" stroke="transparent" points="382.5,-45.5 382.5,-47.5 545.5,-47.5 545.5,-45.5 382.5,-45.5"/>
<polygon fill="#000000" stroke="transparent" points="382.5,-43.5 382.5,-45.5 545.5,-45.5 545.5,-43.5 382.5,-43.5"/>
<text text-anchor="start" x="384.5" y="-30.3" font-family="arial" font-size="14.00"> J1:3:3 </text>
<text text-anchor="start" x="436.5" y="-30.3" font-family="arial" font-size="14.00"> </text>
<text text-anchor="start" x="446.5" y="-30.3" font-family="arial" font-size="14.00"> 3:GN </text>
<text text-anchor="start" x="492.5" y="-30.3" font-family="arial" font-size="14.00"> </text>
<text text-anchor="start" x="502.5" y="-30.3" font-family="arial" font-size="14.00"> J2:1:1</text>
<polygon fill="#000000" stroke="transparent" points="382.5,-22.5 382.5,-24.5 545.5,-24.5 545.5,-22.5 382.5,-22.5"/>
<polygon fill="#00aa00" stroke="transparent" points="382.5,-20.5 382.5,-22.5 545.5,-22.5 545.5,-20.5 382.5,-20.5"/>
<polygon fill="#000000" stroke="transparent" points="382.5,-18.5 382.5,-20.5 545.5,-20.5 545.5,-18.5 382.5,-18.5"/>
<text text-anchor="start" x="406" y="-5.3" font-family="arial" font-size="14.00"> </text>
</g>
<!-- J1&#45;&#45;W1 -->
<g id="edge1" class="edge">
<title>J1:e&#45;&#45;W1:w</title>
<path fill="none" stroke="#000000" stroke-width="2" d="M166,-69.5C166.02,-67.5 382.02,-69.5 382,-71.5"/>
<path fill="none" stroke="#ff0000" stroke-width="2" d="M166,-69.5C166,-69.5 382,-71.5 382,-71.5"/>
<path fill="none" stroke="#000000" stroke-width="2" d="M166,-69.5C165.98,-71.5 381.98,-73.5 382,-71.5"/>
</g>
<!-- J1&#45;&#45;W1 -->
<g id="edge3" class="edge">
<title>J1:e&#45;&#45;W1:w</title>
<path fill="none" stroke="#000000" stroke-width="2" d="M166,-46.5C166,-44.5 382,-44.5 382,-46.5"/>
<path fill="none" stroke="#000000" stroke-width="2" d="M166,-46.5C166,-46.5 382,-46.5 382,-46.5"/>
<path fill="none" stroke="#000000" stroke-width="2" d="M166,-46.5C166,-48.5 382,-48.5 382,-46.5"/>
</g>
<!-- J1&#45;&#45;W1 -->
<g id="edge5" class="edge">
<title>J1:e&#45;&#45;W1:w</title>
<path fill="none" stroke="#000000" stroke-width="2" d="M166,-23.5C165.98,-21.5 381.98,-19.5 382,-21.5"/>
<path fill="none" stroke="#00aa00" stroke-width="2" d="M166,-23.5C166,-23.5 382,-21.5 382,-21.5"/>
<path fill="none" stroke="#000000" stroke-width="2" d="M166,-23.5C166.02,-25.5 382.02,-23.5 382,-21.5"/>
</g>
<!-- J2 -->
<g id="node2" class="node">
<title>J2</title>
<polygon fill="#ffffff" stroke="black" points="916,-128 761,-128 761,-13 916,-13 916,-128"/>
<polygon fill="#ffffff" stroke="transparent" points="761,-13 761,-128 916,-128 916,-13 761,-13"/>
<polygon fill="#ffffff" stroke="transparent" points="761.5,-104.5 761.5,-127.5 916.5,-127.5 916.5,-104.5 761.5,-104.5"/>
<polygon fill="none" stroke="black" points="761.5,-104.5 761.5,-127.5 916.5,-127.5 916.5,-104.5 761.5,-104.5"/>
<text text-anchor="start" x="823.5" y="-113.3" font-family="arial" font-size="14.00"> </text>
<text text-anchor="start" x="827.5" y="-113.3" font-family="arial" font-weight="bold" font-size="14.00"> J2 </text>
<text text-anchor="start" x="850.5" y="-113.3" font-family="arial" font-size="14.00"> </text>
<polygon fill="none" stroke="black" points="761.5,-81.5 761.5,-104.5 824.5,-104.5 824.5,-81.5 761.5,-81.5"/>
<text text-anchor="start" x="765.5" y="-89.3" font-family="arial" font-size="14.00"> JST PH </text>
<polygon fill="none" stroke="black" points="824.5,-81.5 824.5,-104.5 870.5,-104.5 870.5,-81.5 824.5,-81.5"/>
<text text-anchor="start" x="828.5" y="-89.3" font-family="arial" font-size="14.00"> male </text>
<polygon fill="none" stroke="black" points="870.5,-81.5 870.5,-104.5 916.5,-104.5 916.5,-81.5 870.5,-81.5"/>
<text text-anchor="start" x="874.5" y="-89.3" font-family="arial" font-size="14.00"> 3&#45;pin </text>
<polygon fill="none" stroke="black" points="761.5,-58.5 761.5,-81.5 821.5,-81.5 821.5,-58.5 761.5,-58.5"/>
<text text-anchor="start" x="783.5" y="-66.3" font-family="arial" font-size="14.00"> 1 </text>
<polygon fill="none" stroke="black" points="821.5,-58.5 821.5,-81.5 916.5,-81.5 916.5,-58.5 821.5,-58.5"/>
<text text-anchor="start" x="861" y="-66.3" font-family="arial" font-size="14.00"> 1 </text>
<polygon fill="none" stroke="black" points="761.5,-35.5 761.5,-58.5 821.5,-58.5 821.5,-35.5 761.5,-35.5"/>
<text text-anchor="start" x="783.5" y="-43.3" font-family="arial" font-size="14.00"> 2 </text>
<polygon fill="none" stroke="black" points="821.5,-35.5 821.5,-58.5 916.5,-58.5 916.5,-35.5 821.5,-35.5"/>
<text text-anchor="start" x="861" y="-43.3" font-family="arial" font-size="14.00"> 2 </text>
<polygon fill="none" stroke="black" points="761.5,-12.5 761.5,-35.5 821.5,-35.5 821.5,-12.5 761.5,-12.5"/>
<text text-anchor="start" x="783.5" y="-20.3" font-family="arial" font-size="14.00"> 3 </text>
<polygon fill="none" stroke="black" points="821.5,-12.5 821.5,-35.5 916.5,-35.5 916.5,-12.5 821.5,-12.5"/>
<text text-anchor="start" x="861" y="-20.3" font-family="arial" font-size="14.00"> 3 </text>
</g>
<!-- W1&#45;&#45;J2 -->
<g id="edge2" class="edge">
<title>W1:e&#45;&#45;J2:w</title>
<path fill="none" stroke="#000000" stroke-width="2" d="M545,-71.5C544.57,-69.55 760.57,-21.55 761,-23.5"/>
<path fill="none" stroke="#ff0000" stroke-width="2" d="M545,-71.5C545,-71.5 761,-23.5 761,-23.5"/>
<path fill="none" stroke="#000000" stroke-width="2" d="M545,-71.5C545.43,-73.45 761.43,-25.45 761,-23.5"/>
</g>
<!-- W1&#45;&#45;J2 -->
<g id="edge4" class="edge">
<title>W1:e&#45;&#45;J2:w</title>
<path fill="none" stroke="#000000" stroke-width="2" d="M545,-46.5C545,-44.5 761,-44.5 761,-46.5"/>
<path fill="none" stroke="#000000" stroke-width="2" d="M545,-46.5C545,-46.5 761,-46.5 761,-46.5"/>
<path fill="none" stroke="#000000" stroke-width="2" d="M545,-46.5C545,-48.5 761,-48.5 761,-46.5"/>
</g>
<!-- W1&#45;&#45;J2 -->
<g id="edge6" class="edge">
<title>W1:e&#45;&#45;J2:w</title>
<path fill="none" stroke="#000000" stroke-width="2" d="M545,-21.5C545.43,-19.55 761.43,-67.55 761,-69.5"/>
<path fill="none" stroke="#00aa00" stroke-width="2" d="M545,-21.5C545,-21.5 761,-69.5 761,-69.5"/>
<path fill="none" stroke="#000000" stroke-width="2" d="M545,-21.5C544.57,-23.45 760.57,-71.45 761,-69.5"/>
</g>
</g>
</svg>
