<?xml version="1.0" encoding="UTF-8" standalone="no"?>
<!DOCTYPE svg PUBLIC "-//W3C//DTD SVG 1.1//EN"
 "http://www.w3.org/Graphics/SVG/1.1/DTD/svg11.dtd">
<!-- Generated by graphviz version 2.43.0 (0)
 -->
<!-- Title: %3 Pages: 1 -->
<svg width="1138pt" height="192pt"
 viewBox="0.00 0.00 1138.00 192.00" xmlns="http://www.w3.org/2000/svg" xmlns:xlink="http://www.w3.org/1999/xlink">
<g id="graph0" class="graph" transform="scale(1 1) rotate(0) translate(4 188)">
<title>%3</title>
<polygon fill="#ffffff" stroke="transparent" points="-4,4 -4,-188 1134,-188 1134,4 -4,4"/>
<!-- X1 -->
<g id="node1" class="node">
<title>X1</title>
<polygon fill="#ffffff" stroke="black" points="231,-152 0,-152 0,-14 231,-14 231,-152"/>
<polygon fill="#ffffff" stroke="transparent" points="0,-14 0,-152 231,-152 231,-14 0,-14"/>
<polygon fill="#ffffff" stroke="transparent" points="0.5,-129 0.5,-152 231.5,-152 231.5,-129 0.5,-129"/>
<polygon fill="none" stroke="black" points="0.5,-129 0.5,-152 231.5,-152 231.5,-129 0.5,-129"/>
<text text-anchor="start" x="96" y="-137.8" font-family="arial" font-size="14.00"> </text>
<text text-anchor="start" x="101" y="-137.8" font-family="arial" font-weight="bold" font-size="14.00"> X1 </text>
<text text-anchor="start" x="131" y="-137.8" font-family="arial" font-size="14.00"> </text>
<polygon fill="none" stroke="black" points="0.5,-106 0.5,-129 112.5,-129 112.5,-106 0.5,-106"/>
<text text-anchor="start" x="4.5" y="-113.8" font-family="arial" font-size="14.00"> Molex KK 254 </text>
<polygon fill="none" stroke="black" points="112.5,-106 112.5,-129 177.5,-129 177.5,-106 112.5,-106"/>
<text text-anchor="start" x="116.5" y="-113.8" font-family="arial" font-size="14.00"> female </text>
<polygon fill="none" stroke="black" points="177.5,-106 177.5,-129 231.5,-129 231.5,-106 177.5,-106"/>
<text text-anchor="start" x="181.5" y="-113.8" font-family="arial" font-size="14.00"> 4&#45;pin </text>
<polygon fill="none" stroke="black" points="0.5,-83 0.5,-106 154.5,-106 154.5,-83 0.5,-83"/>
<text text-anchor="start" x="54.5" y="-90.8" font-family="arial" font-size="14.00"> None </text>
<polygon fill="none" stroke="black" points="154.5,-83 154.5,-106 231.5,-106 231.5,-83 154.5,-83"/>
<text text-anchor="start" x="183.5" y="-90.8" font-family="arial" font-size="14.00"> 1 </text>
<polygon fill="none" stroke="black" points="0.5,-60 0.5,-83 154.5,-83 154.5,-60 0.5,-60"/>
<text text-anchor="start" x="54.5" y="-67.8" font-family="arial" font-size="14.00"> None </text>
<polygon fill="none" stroke="black" points="154.5,-60 154.5,-83 231.5,-83 231.5,-60 154.5,-60"/>
<text text-anchor="start" x="183.5" y="-67.8" font-family="arial" font-size="14.00"> 2 </text>
<polygon fill="none" stroke="black" points="0.5,-37 0.5,-60 154.5,-60 154.5,-37 0.5,-37"/>
<text text-anchor="start" x="54.5" y="-44.8" font-family="arial" font-size="14.00"> None </text>
<polygon fill="none" stroke="black" points="154.5,-37 154.5,-60 231.5,-60 231.5,-37 154.5,-37"/>
<text text-anchor="start" x="183.5" y="-44.8" font-family="arial" font-size="14.00"> 3 </text>
<polygon fill="none" stroke="black" points="0.5,-14 0.5,-37 154.5,-37 154.5,-14 0.5,-14"/>
<text text-anchor="start" x="54.5" y="-21.8" font-family="arial" font-size="14.00"> None </text>
<polygon fill="none" stroke="black" points="154.5,-14 154.5,-37 231.5,-37 231.5,-14 154.5,-14"/>
<text text-anchor="start" x="183.5" y="-21.8" font-family="arial" font-size="14.00"> 4 </text>
</g>
<!-- W1 -->
<g id="node3" class="node">
<title>W1</title>
<polygon fill="#ffffff" stroke="black" points="683,-184 447,-184 447,0 683,0 683,-184"/>
<polygon fill="#ffffff" stroke="transparent" points="447,0 447,-184 683,-184 683,0 447,0"/>
<polygon fill="#ffffff" stroke="transparent" points="447,-161 447,-184 683,-184 683,-161 447,-161"/>
<polygon fill="none" stroke="black" points="447,-161 447,-184 683,-184 683,-161 447,-161"/>
<text text-anchor="start" x="542.5" y="-169.8" font-family="arial" font-size="14.00"> </text>
<text text-anchor="start" x="547.5" y="-169.8" font-family="arial" font-weight="bold" font-size="14.00"> W1 </text>
<text text-anchor="start" x="582.5" y="-169.8" font-family="arial" font-size="14.00"> </text>
<polygon fill="none" stroke="black" points="447,-138 447,-161 482,-161 482,-138 447,-138"/>
<text text-anchor="start" x="451" y="-145.8" font-family="arial" font-size="14.00"> 4x </text>
<polygon fill="none" stroke="black" points="482,-138 482,-161 638,-161 638,-138 482,-138"/>
<text text-anchor="start" x="486" y="-145.8" font-family="arial" font-size="14.00"> 0.25 mm² (24 AWG) </text>
<polygon fill="none" stroke="black" points="638,-138 638,-161 683,-161 683,-138 638,-138"/>
<text text-anchor="start" x="642" y="-145.8" font-family="arial" font-size="14.00"> 1 m </text>
<text text-anchor="start" x="475.5" y="-124.8" font-family="arial" font-size="14.00"> </text>
<text text-anchor="start" x="449" y="-105.8" font-family="arial" font-size="14.00"> X1:1 </text>
<text text-anchor="start" x="519" y="-105.8" font-family="arial" font-size="14.00"> </text>
<text text-anchor="start" x="544" y="-105.8" font-family="arial" font-size="14.00"> 1:WH </text>
<text text-anchor="start" x="611" y="-105.8" font-family="arial" font-size="14.00"> </text>
<text text-anchor="start" x="644" y="-105.8" font-family="arial" font-size="14.00"> X2:1</text>
<polygon fill="#000000" stroke="transparent" points="447,-98 447,-100 683,-100 683,-98 447,-98"/>
<polygon fill="#ffffff" stroke="transparent" points="447,-96 447,-98 683,-98 683,-96 447,-96"/>
<polygon fill="#000000" stroke="transparent" points="447,-94 447,-96 683,-96 683,-94 447,-94"/>
<text text-anchor="start" x="449" y="-80.8" font-family="arial" font-size="14.00"> X1:2 </text>
<text text-anchor="start" x="519" y="-80.8" font-family="arial" font-size="14.00"> </text>
<text text-anchor="start" x="546" y="-80.8" font-family="arial" font-size="14.00"> 2:BN </text>
<text text-anchor="start" x="611" y="-80.8" font-family="arial" font-size="14.00"> </text>
<text text-anchor="start" x="644" y="-80.8" font-family="arial" font-size="14.00"> X2:2</text>
<polygon fill="#000000" stroke="transparent" points="447,-73 447,-75 683,-75 683,-73 447,-73"/>
<polygon fill="#895956" stroke="transparent" points="447,-71 447,-73 683,-73 683,-71 447,-71"/>
<polygon fill="#000000" stroke="transparent" points="447,-69 447,-71 683,-71 683,-69 447,-69"/>
<text text-anchor="start" x="449" y="-55.8" font-family="arial" font-size="14.00"> X1:3 </text>
<text text-anchor="start" x="519" y="-55.8" font-family="arial" font-size="14.00"> </text>
<text text-anchor="start" x="545.5" y="-55.8" font-family="arial" font-size="14.00"> 3:GN </text>
<text text-anchor="start" x="611" y="-55.8" font-family="arial" font-size="14.00"> </text>
<text text-anchor="start" x="644" y="-55.8" font-family="arial" font-size="14.00"> X2:4</text>
<polygon fill="#000000" stroke="transparent" points="447,-48 447,-50 683,-50 683,-48 447,-48"/>
<polygon fill="#00aa00" stroke="transparent" points="447,-46 447,-48 683,-48 683,-46 447,-46"/>
<polygon fill="#000000" stroke="transparent" points="447,-44 447,-46 683,-46 683,-44 447,-44"/>
<text text-anchor="start" x="449" y="-30.8" font-family="arial" font-size="14.00"> X1:4 </text>
<text text-anchor="start" x="519" y="-30.8" font-family="arial" font-size="14.00"> </text>
<text text-anchor="start" x="547.5" y="-30.8" font-family="arial" font-size="14.00"> 4:YE </text>
<text text-anchor="start" x="611" y="-30.8" font-family="arial" font-size="14.00"> </text>
<text text-anchor="start" x="644" y="-30.8" font-family="arial" font-size="14.00"> X2:3</text>
<polygon fill="#000000" stroke="transparent" points="447,-23 447,-25 683,-25 683,-23 447,-23"/>
<polygon fill="#ffff00" stroke="transparent" points="447,-21 447,-23 683,-23 683,-21 447,-21"/>
<polygon fill="#000000" stroke="transparent" points="447,-19 447,-21 683,-21 683,-19 447,-19"/>
<text text-anchor="start" x="475.5" y="-5.8" font-family="arial" font-size="14.00"> </text>
</g>
<!-- X1&#45;&#45;W1 -->
<g id="edge1" class="edge">
<title>X1:e&#45;&#45;W1:w</title>
<path fill="none" stroke="#000000" stroke-width="2" d="M231,-95C231.02,-93 447.02,-95 447,-97"/>
<path fill="none" stroke="#ffffff" stroke-width="2" d="M231,-95C231,-95 447,-97 447,-97"/>
<path fill="none" stroke="#000000" stroke-width="2" d="M231,-95C230.98,-97 446.98,-99 447,-97"/>
</g>
<!-- X1&#45;&#45;W1 -->
<g id="edge3" class="edge">
<title>X1:e&#45;&#45;W1:w</title>
<path fill="none" stroke="#000000" stroke-width="2" d="M231,-71C231.01,-69 447.01,-70 447,-72"/>
<path fill="none" stroke="#895956" stroke-width="2" d="M231,-71C231,-71 447,-72 447,-72"/>
<path fill="none" stroke="#000000" stroke-width="2" d="M231,-71C230.99,-73 446.99,-74 447,-72"/>
</g>
<!-- X1&#45;&#45;W1 -->
<g id="edge5" class="edge">
<title>X1:e&#45;&#45;W1:w</title>
<path fill="none" stroke="#000000" stroke-width="2" d="M231,-48C230.99,-46 446.99,-45 447,-47"/>
<path fill="none" stroke="#00aa00" stroke-width="2" d="M231,-48C231,-48 447,-47 447,-47"/>
<path fill="none" stroke="#000000" stroke-width="2" d="M231,-48C231.01,-50 447.01,-49 447,-47"/>
</g>
<!-- X1&#45;&#45;W1 -->
<g id="edge7" class="edge">
<title>X1:e&#45;&#45;W1:w</title>
<path fill="none" stroke="#000000" stroke-width="2" d="M231,-25C230.97,-23 446.97,-20 447,-22"/>
<path fill="none" stroke="#ffff00" stroke-width="2" d="M231,-25C231,-25 447,-22 447,-22"/>
<path fill="none" stroke="#000000" stroke-width="2" d="M231,-25C231.03,-27 447.03,-24 447,-22"/>
</g>
<!-- X2 -->
<g id="node2" class="node">
<title>X2</title>
<polygon fill="#ffffff" stroke="black" points="1130,-154 899,-154 899,-16 1130,-16 1130,-154"/>
<polygon fill="#ffffff" stroke="transparent" points="899,-16 899,-154 1130,-154 1130,-16 899,-16"/>
<polygon fill="#ffffff" stroke="transparent" points="899.5,-131 899.5,-154 1130.5,-154 1130.5,-131 899.5,-131"/>
<polygon fill="none" stroke="black" points="899.5,-131 899.5,-154 1130.5,-154 1130.5,-131 899.5,-131"/>
<text text-anchor="start" x="995" y="-139.8" font-family="arial" font-size="14.00"> </text>
<text text-anchor="start" x="1000" y="-139.8" font-family="arial" font-weight="bold" font-size="14.00"> X2 </text>
<text text-anchor="start" x="1030" y="-139.8" font-family="arial" font-size="14.00"> </text>
<polygon fill="none" stroke="black" points="899.5,-108 899.5,-131 1011.5,-131 1011.5,-108 899.5,-108"/>
<text text-anchor="start" x="903.5" y="-115.8" font-family="arial" font-size="14.00"> Molex KK 254 </text>
<polygon fill="none" stroke="black" points="1011.5,-108 1011.5,-131 1076.5,-131 1076.5,-108 1011.5,-108"/>
<text text-anchor="start" x="1015.5" y="-115.8" font-family="arial" font-size="14.00"> female </text>
<polygon fill="none" stroke="black" points="1076.5,-108 1076.5,-131 1130.5,-131 1130.5,-108 1076.5,-108"/>
<text text-anchor="start" x="1080.5" y="-115.8" font-family="arial" font-size="14.00"> 4&#45;pin </text>
<polygon fill="none" stroke="black" points="899.5,-85 899.5,-108 976.5,-108 976.5,-85 899.5,-85"/>
<text text-anchor="start" x="928.5" y="-92.8" font-family="arial" font-size="14.00"> 1 </text>
<polygon fill="none" stroke="black" points="976.5,-85 976.5,-108 1130.5,-108 1130.5,-85 976.5,-85"/>
<text text-anchor="start" x="1030.5" y="-92.8" font-family="arial" font-size="14.00"> None </text>
<polygon fill="none" stroke="black" points="899.5,-62 899.5,-85 976.5,-85 976.5,-62 899.5,-62"/>
<text text-anchor="start" x="928.5" y="-69.8" font-family="arial" font-size="14.00"> 2 </text>
<polygon fill="none" stroke="black" points="976.5,-62 976.5,-85 1130.5,-85 1130.5,-62 976.5,-62"/>
<text text-anchor="start" x="1030.5" y="-69.8" font-family="arial" font-size="14.00"> None </text>
<polygon fill="none" stroke="black" points="899.5,-39 899.5,-62 976.5,-62 976.5,-39 899.5,-39"/>
<text text-anchor="start" x="928.5" y="-46.8" font-family="arial" font-size="14.00"> 3 </text>
<polygon fill="none" stroke="black" points="976.5,-39 976.5,-62 1130.5,-62 1130.5,-39 976.5,-39"/>
<text text-anchor="start" x="1030.5" y="-46.8" font-family="arial" font-size="14.00"> None </text>
<polygon fill="none" stroke="black" points="899.5,-16 899.5,-39 976.5,-39 976.5,-16 899.5,-16"/>
<text text-anchor="start" x="928.5" y="-23.8" font-family="arial" font-size="14.00"> 4 </text>
<polygon fill="none" stroke="black" points="976.5,-16 976.5,-39 1130.5,-39 1130.5,-16 976.5,-16"/>
<text text-anchor="start" x="1030.5" y="-23.8" font-family="arial" font-size="14.00"> None </text>
</g>
<!-- W1&#45;&#45;X2 -->
<g id="edge2" class="edge">
<title>W1:e&#45;&#45;X2:w</title>
<path fill="none" stroke="#000000" stroke-width="2" d="M683,-97C683,-95 899,-95 899,-97"/>
<path fill="none" stroke="#ffffff" stroke-width="2" d="M683,-97C683,-97 899,-97 899,-97"/>
<path fill="none" stroke="#000000" stroke-width="2" d="M683,-97C683,-99 899,-99 899,-97"/>
</g>
<!-- W1&#45;&#45;X2 -->
<g id="edge4" class="edge">
<title>W1:e&#45;&#45;X2:w</title>
<path fill="none" stroke="#000000" stroke-width="2" d="M683,-72C683.01,-70 899.01,-71 899,-73"/>
<path fill="none" stroke="#895956" stroke-width="2" d="M683,-72C683,-72 899,-73 899,-73"/>
<path fill="none" stroke="#000000" stroke-width="2" d="M683,-72C682.99,-74 898.99,-75 899,-73"/>
</g>
<!-- W1&#45;&#45;X2 -->
<g id="edge6" class="edge">
<title>W1:e&#45;&#45;X2:w</title>
<path fill="none" stroke="#000000" stroke-width="2" d="M683,-47C682.82,-45.01 898.82,-25.01 899,-27"/>
<path fill="none" stroke="#00aa00" stroke-width="2" d="M683,-47C683,-47 899,-27 899,-27"/>
<path fill="none" stroke="#000000" stroke-width="2" d="M683,-47C683.18,-48.99 899.18,-28.99 899,-27"/>
</g>
<!-- W1&#45;&#45;X2 -->
<g id="edge8" class="edge">
<title>W1:e&#45;&#45;X2:w</title>
<path fill="none" stroke="#000000" stroke-width="2" d="M683,-22C683.26,-20.02 899.26,-48.02 899,-50"/>
<path fill="none" stroke="#ffff00" stroke-width="2" d="M683,-22C683,-22 899,-50 899,-50"/>
<path fill="none" stroke="#000000" stroke-width="2" d="M683,-22C682.74,-23.98 898.74,-51.98 899,-50"/>
</g>
</g>
</svg>
