<?xml version="1.0" encoding="UTF-8" standalone="no"?>
<!DOCTYPE svg PUBLIC "-//W3C//DTD SVG 1.1//EN"
 "http://www.w3.org/Graphics/SVG/1.1/DTD/svg11.dtd">
<!-- Generated by graphviz version 2.43.0 (0)
 -->
<!-- Title: %3 Pages: 1 -->
<svg width="1539pt" height="560pt"
 viewBox="0.00 0.00 1539.00 559.50" xmlns="http://www.w3.org/2000/svg" xmlns:xlink="http://www.w3.org/1999/xlink">
<g id="graph0" class="graph" transform="scale(1 1) rotate(0) translate(4 555.5)">
<title>%3</title>
<polygon fill="#ffffff" stroke="transparent" points="-4,4 -4,-555.5 1535,-555.5 1535,4 -4,4"/>
<!-- X1 -->
<g id="node1" class="node">
<title>X1</title>
<polygon fill="#ffffff" stroke="black" points="298,-403.5 0,-403.5 0,-200.5 298,-200.5 298,-403.5"/>
<polygon fill="#ffffff" stroke="transparent" points="0,-200.5 0,-403.5 298,-403.5 298,-200.5 0,-200.5"/>
<polygon fill="#ffffff" stroke="transparent" points="0,-380 0,-403 298,-403 298,-380 0,-380"/>
<polygon fill="none" stroke="black" points="0,-380 0,-403 298,-403 298,-380 0,-380"/>
<text text-anchor="start" x="129" y="-388.8" font-family="arial" font-size="14.00"> </text>
<text text-anchor="start" x="134" y="-388.8" font-family="arial" font-weight="bold" font-size="14.00"> X1 </text>
<text text-anchor="start" x="164" y="-388.8" font-family="arial" font-size="14.00"> </text>
<polygon fill="none" stroke="black" points="0,-357 0,-380 151,-380 151,-357 0,-357"/>
<text text-anchor="start" x="10" y="-364.8" font-family="arial" font-size="14.00"> Molex: 22013047 </text>
<polygon fill="none" stroke="black" points="151,-357 151,-380 298,-380 298,-357 151,-357"/>
<text text-anchor="start" x="160.5" y="-364.8" font-family="arial" font-size="14.00"> Digimouse: 1234 </text>
<polygon fill="none" stroke="black" points="0,-334 0,-357 135,-357 135,-334 0,-334"/>
<text text-anchor="start" x="15.5" y="-341.8" font-family="arial" font-size="14.00"> Molex KK 254 </text>
<polygon fill="none" stroke="black" points="135,-334 135,-357 222,-357 222,-334 135,-334"/>
<text text-anchor="start" x="150" y="-341.8" font-family="arial" font-size="14.00"> female </text>
<polygon fill="none" stroke="black" points="222,-334 222,-357 298,-357 298,-334 222,-334"/>
<text text-anchor="start" x="237" y="-341.8" font-family="arial" font-size="14.00"> 4&#45;pin </text>
<polygon fill="none" stroke="black" points="0,-311 0,-334 199,-334 199,-311 0,-311"/>
<text text-anchor="start" x="76.5" y="-318.8" font-family="arial" font-size="14.00"> None </text>
<polygon fill="none" stroke="black" points="199,-311 199,-334 298,-334 298,-311 199,-311"/>
<text text-anchor="start" x="239" y="-318.8" font-family="arial" font-size="14.00"> 1 </text>
<polygon fill="none" stroke="black" points="0,-288 0,-311 199,-311 199,-288 0,-288"/>
<text text-anchor="start" x="76.5" y="-295.8" font-family="arial" font-size="14.00"> None </text>
<polygon fill="none" stroke="black" points="199,-288 199,-311 298,-311 298,-288 199,-288"/>
<text text-anchor="start" x="239" y="-295.8" font-family="arial" font-size="14.00"> 2 </text>
<polygon fill="none" stroke="black" points="0,-265 0,-288 199,-288 199,-265 0,-265"/>
<text text-anchor="start" x="76.5" y="-272.8" font-family="arial" font-size="14.00"> None </text>
<polygon fill="none" stroke="black" points="199,-265 199,-288 298,-288 298,-265 199,-265"/>
<text text-anchor="start" x="239" y="-272.8" font-family="arial" font-size="14.00"> 3 </text>
<polygon fill="none" stroke="black" points="0,-242 0,-265 199,-265 199,-242 0,-242"/>
<text text-anchor="start" x="76.5" y="-249.8" font-family="arial" font-size="14.00"> None </text>
<polygon fill="none" stroke="black" points="199,-242 199,-265 298,-265 298,-242 199,-242"/>
<text text-anchor="start" x="239" y="-249.8" font-family="arial" font-size="14.00"> 4 </text>
<text text-anchor="start" x="3" y="-227.8" font-family="arial" font-size="14.00"> 4.0 </text>
<text text-anchor="start" x="41" y="-227.8" font-family="arial" font-size="14.00"> </text>
<text text-anchor="start" x="52" y="-227.8" font-family="arial" font-size="14.00"> Crimp, Molex KK 254, 22&#45;30 AWG </text>
<text text-anchor="start" x="3" y="-206.8" font-family="arial" font-size="14.00"> 1.0 </text>
<text text-anchor="start" x="41" y="-206.8" font-family="arial" font-size="14.00"> </text>
<text text-anchor="start" x="52" y="-206.8" font-family="arial" font-size="14.00"> Test </text>
</g>
<!-- W1 -->
<g id="node4" class="node">
<title>W1</title>
<polygon fill="#ffffff" stroke="black" points="950,-551.5 514,-551.5 514,-344.5 950,-344.5 950,-551.5"/>
<polygon fill="#ffffff" stroke="transparent" points="514,-344.5 514,-551.5 950,-551.5 950,-344.5 514,-344.5"/>
<polygon fill="#ffffff" stroke="transparent" points="514,-528 514,-551 950,-551 950,-528 514,-528"/>
<polygon fill="none" stroke="black" points="514,-528 514,-551 950,-551 950,-528 514,-528"/>
<text text-anchor="start" x="709.5" y="-536.8" font-family="arial" font-size="14.00"> </text>
<text text-anchor="start" x="714.5" y="-536.8" font-family="arial" font-weight="bold" font-size="14.00"> W1 </text>
<text text-anchor="start" x="749.5" y="-536.8" font-family="arial" font-size="14.00"> </text>
<polygon fill="none" stroke="black" points="514,-505 514,-528 602,-528 602,-505 514,-505"/>
<text text-anchor="start" x="518" y="-512.8" font-family="arial" font-size="14.00"> P/N: CAB1 </text>
<polygon fill="none" stroke="black" points="602,-505 602,-528 749,-528 749,-505 602,-505"/>
<text text-anchor="start" x="606" y="-512.8" font-family="arial" font-size="14.00"> CablesCo: ABC123 </text>
<polygon fill="none" stroke="black" points="749,-505 749,-528 950,-528 950,-505 749,-505"/>
<text text-anchor="start" x="753" y="-512.8" font-family="arial" font-size="14.00"> Cables R Us: 999&#45;888&#45;777 </text>
<polygon fill="none" stroke="black" points="514,-482 514,-505 639,-505 639,-482 514,-482"/>
<text text-anchor="start" x="563" y="-489.8" font-family="arial" font-size="14.00"> 4x </text>
<polygon fill="none" stroke="black" points="639,-482 639,-505 815,-505 815,-482 639,-482"/>
<text text-anchor="start" x="688" y="-489.8" font-family="arial" font-size="14.00"> 0.25 mm² </text>
<polygon fill="none" stroke="black" points="815,-482 815,-505 950,-505 950,-482 815,-482"/>
<text text-anchor="start" x="864" y="-489.8" font-family="arial" font-size="14.00"> 1 m </text>
<text text-anchor="start" x="563" y="-468.8" font-family="arial" font-size="14.00"> </text>
<text text-anchor="start" x="516" y="-449.8" font-family="arial" font-size="14.00"> X1:1 </text>
<text text-anchor="start" x="647.5" y="-449.8" font-family="arial" font-size="14.00"> </text>
<text text-anchor="start" x="714" y="-449.8" font-family="arial" font-size="14.00"> 1:BN </text>
<text text-anchor="start" x="818" y="-449.8" font-family="arial" font-size="14.00"> </text>
<text text-anchor="start" x="911" y="-449.8" font-family="arial" font-size="14.00"> X2:1</text>
<polygon fill="#000000" stroke="transparent" points="514,-442 514,-444 950,-444 950,-442 514,-442"/>
<polygon fill="#895956" stroke="transparent" points="514,-440 514,-442 950,-442 950,-440 514,-440"/>
<polygon fill="#000000" stroke="transparent" points="514,-438 514,-440 950,-440 950,-438 514,-438"/>
<text text-anchor="start" x="516" y="-424.8" font-family="arial" font-size="14.00"> X1:2 </text>
<text text-anchor="start" x="647.5" y="-424.8" font-family="arial" font-size="14.00"> </text>
<text text-anchor="start" x="714" y="-424.8" font-family="arial" font-size="14.00"> 2:RD </text>
<text text-anchor="start" x="818" y="-424.8" font-family="arial" font-size="14.00"> </text>
<text text-anchor="start" x="911" y="-424.8" font-family="arial" font-size="14.00"> X2:2</text>
<polygon fill="#000000" stroke="transparent" points="514,-417 514,-419 950,-419 950,-417 514,-417"/>
<polygon fill="#ff0000" stroke="transparent" points="514,-415 514,-417 950,-417 950,-415 514,-415"/>
<polygon fill="#000000" stroke="transparent" points="514,-413 514,-415 950,-415 950,-413 514,-413"/>
<text text-anchor="start" x="516" y="-399.8" font-family="arial" font-size="14.00"> X1:3 </text>
<text text-anchor="start" x="647.5" y="-399.8" font-family="arial" font-size="14.00"> </text>
<text text-anchor="start" x="713" y="-399.8" font-family="arial" font-size="14.00"> 3:OG </text>
<text text-anchor="start" x="818" y="-399.8" font-family="arial" font-size="14.00"> </text>
<text text-anchor="start" x="911" y="-399.8" font-family="arial" font-size="14.00"> X2:3</text>
<polygon fill="#000000" stroke="transparent" points="514,-392 514,-394 950,-394 950,-392 514,-392"/>
<polygon fill="#ff8000" stroke="transparent" points="514,-390 514,-392 950,-392 950,-390 514,-390"/>
<polygon fill="#000000" stroke="transparent" points="514,-388 514,-390 950,-390 950,-388 514,-388"/>
<text text-anchor="start" x="516" y="-374.8" font-family="arial" font-size="14.00"> X1:4 </text>
<text text-anchor="start" x="647.5" y="-374.8" font-family="arial" font-size="14.00"> </text>
<text text-anchor="start" x="715.5" y="-374.8" font-family="arial" font-size="14.00"> 4:YE </text>
<text text-anchor="start" x="818" y="-374.8" font-family="arial" font-size="14.00"> </text>
<text text-anchor="start" x="911" y="-374.8" font-family="arial" font-size="14.00"> X2:4</text>
<polygon fill="#000000" stroke="transparent" points="514,-367 514,-369 950,-369 950,-367 514,-367"/>
<polygon fill="#ffff00" stroke="transparent" points="514,-365 514,-367 950,-367 950,-365 514,-365"/>
<polygon fill="#000000" stroke="transparent" points="514,-363 514,-365 950,-365 950,-363 514,-363"/>
<text text-anchor="start" x="563" y="-349.8" font-family="arial" font-size="14.00"> </text>
</g>
<!-- X1&#45;&#45;W1 -->
<g id="edge1" class="edge">
<title>X1:e&#45;&#45;W1:w</title>
<path fill="none" stroke="#000000" stroke-width="2" d="M298,-323C298.96,-321.24 514.96,-439.24 514,-441"/>
<path fill="none" stroke="#895956" stroke-width="2" d="M298,-323C298,-323 514,-441 514,-441"/>
<path fill="none" stroke="#000000" stroke-width="2" d="M298,-323C297.04,-324.76 513.04,-442.76 514,-441"/>
</g>
<!-- X1&#45;&#45;W1 -->
<g id="edge3" class="edge">
<title>X1:e&#45;&#45;W1:w</title>
<path fill="none" stroke="#000000" stroke-width="2" d="M298,-299C298.95,-297.24 514.95,-414.24 514,-416"/>
<path fill="none" stroke="#ff0000" stroke-width="2" d="M298,-299C298,-299 514,-416 514,-416"/>
<path fill="none" stroke="#000000" stroke-width="2" d="M298,-299C297.05,-300.76 513.05,-417.76 514,-416"/>
</g>
<!-- X1&#45;&#45;W1 -->
<g id="edge5" class="edge">
<title>X1:e&#45;&#45;W1:w</title>
<path fill="none" stroke="#000000" stroke-width="2" d="M298,-276C298.94,-274.23 514.94,-389.23 514,-391"/>
<path fill="none" stroke="#ff8000" stroke-width="2" d="M298,-276C298,-276 514,-391 514,-391"/>
<path fill="none" stroke="#000000" stroke-width="2" d="M298,-276C297.06,-277.77 513.06,-392.77 514,-391"/>
</g>
<!-- X1&#45;&#45;W1 -->
<g id="edge7" class="edge">
<title>X1:e&#45;&#45;W1:w</title>
<path fill="none" stroke="#000000" stroke-width="2" d="M298,-253C298.93,-251.23 514.93,-364.23 514,-366"/>
<path fill="none" stroke="#ffff00" stroke-width="2" d="M298,-253C298,-253 514,-366 514,-366"/>
<path fill="none" stroke="#000000" stroke-width="2" d="M298,-253C297.07,-254.77 513.07,-367.77 514,-366"/>
</g>
<!-- W2 -->
<g id="node5" class="node">
<title>W2</title>
<polygon fill="#ffffff" stroke="black" points="926.5,-320 537.5,-320 537.5,0 926.5,0 926.5,-320"/>
<polygon fill="#ffffff" stroke="transparent" points="537.5,0 537.5,-320 926.5,-320 926.5,0 537.5,0"/>
<polygon fill="#ffffff" stroke="transparent" points="538,-297 538,-320 927,-320 927,-297 538,-297"/>
<polygon fill="none" stroke="black" points="538,-297 538,-320 927,-320 927,-297 538,-297"/>
<text text-anchor="start" x="710" y="-305.8" font-family="arial" font-size="14.00"> </text>
<text text-anchor="start" x="715" y="-305.8" font-family="arial" font-weight="bold" font-size="14.00"> W2 </text>
<text text-anchor="start" x="750" y="-305.8" font-family="arial" font-size="14.00"> </text>
<polygon fill="none" stroke="black" points="538,-274 538,-297 742,-297 742,-274 538,-274"/>
<text text-anchor="start" x="556.5" y="-281.8" font-family="arial" font-size="14.00"> Manufacturer: WiresCo </text>
<polygon fill="none" stroke="black" points="742,-274 742,-297 927,-297 927,-274 742,-274"/>
<text text-anchor="start" x="760.5" y="-281.8" font-family="arial" font-size="14.00"> Supplier: WireShack </text>
<polygon fill="none" stroke="black" points="538,-251 538,-274 648,-274 648,-251 538,-251"/>
<text text-anchor="start" x="579.5" y="-258.8" font-family="arial" font-size="14.00"> 4x </text>
<polygon fill="none" stroke="black" points="648,-251 648,-274 808,-274 808,-251 648,-251"/>
<text text-anchor="start" x="689" y="-258.8" font-family="arial" font-size="14.00"> 0.25 mm² </text>
<polygon fill="none" stroke="black" points="808,-251 808,-274 927,-274 927,-251 808,-251"/>
<text text-anchor="start" x="849" y="-258.8" font-family="arial" font-size="14.00"> 1 m </text>
<text text-anchor="start" x="677" y="-237.8" font-family="arial" font-size="14.00"> </text>
<text text-anchor="start" x="540" y="-218.8" font-family="arial" font-size="14.00"> X1:1 </text>
<text text-anchor="start" x="823" y="-218.8" font-family="arial" font-size="14.00"> </text>
<text text-anchor="start" x="833.5" y="-218.8" font-family="arial" font-size="14.00"> 1:YE </text>
<text text-anchor="start" x="879" y="-218.8" font-family="arial" font-size="14.00"> </text>
<text text-anchor="start" x="888" y="-218.8" font-family="arial" font-size="14.00"> X3:1</text>
<polygon fill="#000000" stroke="transparent" points="538,-211 538,-213 927,-213 927,-211 538,-211"/>
<polygon fill="#ffff00" stroke="transparent" points="538,-209 538,-211 927,-211 927,-209 538,-209"/>
<polygon fill="#000000" stroke="transparent" points="538,-207 538,-209 927,-209 927,-207 538,-207"/>
<text text-anchor="start" x="544" y="-191.8" font-family="arial" font-size="14.00"> P/N: WIRE1 </text>
<text text-anchor="start" x="637" y="-191.8" font-family="arial" font-size="14.00"> MPN: W1&#45;YE </text>
<text text-anchor="start" x="735" y="-191.8" font-family="arial" font-size="14.00"> SPN: 1001 </text>
<text text-anchor="start" x="540" y="-170.8" font-family="arial" font-size="14.00"> X1:2 </text>
<text text-anchor="start" x="823" y="-170.8" font-family="arial" font-size="14.00"> </text>
<text text-anchor="start" x="832.5" y="-170.8" font-family="arial" font-size="14.00"> 2:BK </text>
<text text-anchor="start" x="879" y="-170.8" font-family="arial" font-size="14.00"> </text>
<text text-anchor="start" x="888" y="-170.8" font-family="arial" font-size="14.00"> X3:2</text>
<polygon fill="#000000" stroke="transparent" points="538,-163 538,-165 927,-165 927,-163 538,-163"/>
<polygon fill="#000000" stroke="transparent" points="538,-161 538,-163 927,-163 927,-161 538,-161"/>
<polygon fill="#000000" stroke="transparent" points="538,-159 538,-161 927,-161 927,-159 538,-159"/>
<text text-anchor="start" x="543" y="-143.8" font-family="arial" font-size="14.00"> P/N: WIRE2 </text>
<text text-anchor="start" x="636" y="-143.8" font-family="arial" font-size="14.00"> MPN: W1&#45;BK </text>
<text text-anchor="start" x="735" y="-143.8" font-family="arial" font-size="14.00"> SPN: 1002 </text>
<text text-anchor="start" x="540" y="-122.8" font-family="arial" font-size="14.00"> X1:3 </text>
<text text-anchor="start" x="823" y="-122.8" font-family="arial" font-size="14.00"> </text>
<text text-anchor="start" x="832.5" y="-122.8" font-family="arial" font-size="14.00"> 3:BK </text>
<text text-anchor="start" x="879" y="-122.8" font-family="arial" font-size="14.00"> </text>
<text text-anchor="start" x="888" y="-122.8" font-family="arial" font-size="14.00"> X3:3</text>
<polygon fill="#000000" stroke="transparent" points="538,-115 538,-117 927,-117 927,-115 538,-115"/>
<polygon fill="#000000" stroke="transparent" points="538,-113 538,-115 927,-115 927,-113 538,-113"/>
<polygon fill="#000000" stroke="transparent" points="538,-111 538,-113 927,-113 927,-111 538,-111"/>
<text text-anchor="start" x="543" y="-95.8" font-family="arial" font-size="14.00"> P/N: WIRE2 </text>
<text text-anchor="start" x="636" y="-95.8" font-family="arial" font-size="14.00"> MPN: W1&#45;BK </text>
<text text-anchor="start" x="735" y="-95.8" font-family="arial" font-size="14.00"> SPN: 1002 </text>
<text text-anchor="start" x="540" y="-74.8" font-family="arial" font-size="14.00"> X1:4 </text>
<text text-anchor="start" x="823" y="-74.8" font-family="arial" font-size="14.00"> </text>
<text text-anchor="start" x="832" y="-74.8" font-family="arial" font-size="14.00"> 4:RD </text>
<text text-anchor="start" x="879" y="-74.8" font-family="arial" font-size="14.00"> </text>
<text text-anchor="start" x="888" y="-74.8" font-family="arial" font-size="14.00"> X3:4</text>
<polygon fill="#000000" stroke="transparent" points="538,-67 538,-69 927,-69 927,-67 538,-67"/>
<polygon fill="#ff0000" stroke="transparent" points="538,-65 538,-67 927,-67 927,-65 538,-65"/>
<polygon fill="#000000" stroke="transparent" points="538,-63 538,-65 927,-65 927,-63 538,-63"/>
<text text-anchor="start" x="542" y="-47.8" font-family="arial" font-size="14.00"> P/N: WIRE3 </text>
<text text-anchor="start" x="634" y="-47.8" font-family="arial" font-size="14.00"> MPN: W1&#45;RD </text>
<text text-anchor="start" x="735" y="-47.8" font-family="arial" font-size="14.00"> SPN: 1009 </text>
<text text-anchor="start" x="677" y="-26.8" font-family="arial" font-size="14.00"> </text>
<text text-anchor="start" x="569" y="-6.8" font-family="arial" font-size="14.00"> 1.0 </text>
<text text-anchor="start" x="607" y="-6.8" font-family="arial" font-size="14.00"> </text>
<text text-anchor="start" x="645" y="-6.8" font-family="arial" font-size="14.00"> Sleeve, Braided nylon, black, 3mm </text>
</g>
<!-- X1&#45;&#45;W2 -->
<g id="edge9" class="edge">
<title>X1:e&#45;&#45;W2:w</title>
<path fill="none" stroke="#000000" stroke-width="2" d="M298,-323C297.15,-321.19 536.15,-208.19 537,-210"/>
<path fill="none" stroke="#ffff00" stroke-width="2" d="M298,-323C298,-323 537,-210 537,-210"/>
<path fill="none" stroke="#000000" stroke-width="2" d="M298,-323C298.85,-324.81 537.85,-211.81 537,-210"/>
</g>
<!-- X1&#45;&#45;W2 -->
<g id="edge11" class="edge">
<title>X1:e&#45;&#45;W2:w</title>
<path fill="none" stroke="#000000" stroke-width="2" d="M298,-299C297.01,-297.26 536.01,-160.26 537,-162"/>
<path fill="none" stroke="#000000" stroke-width="2" d="M298,-299C298,-299 537,-162 537,-162"/>
<path fill="none" stroke="#000000" stroke-width="2" d="M298,-299C298.99,-300.74 537.99,-163.74 537,-162"/>
</g>
<!-- X1&#45;&#45;W2 -->
<g id="edge13" class="edge">
<title>X1:e&#45;&#45;W2:w</title>
<path fill="none" stroke="#000000" stroke-width="2" d="M298,-276C296.88,-274.34 535.88,-112.34 537,-114"/>
<path fill="none" stroke="#000000" stroke-width="2" d="M298,-276C298,-276 537,-114 537,-114"/>
<path fill="none" stroke="#000000" stroke-width="2" d="M298,-276C299.12,-277.66 538.12,-115.66 537,-114"/>
</g>
<!-- X1&#45;&#45;W2 -->
<g id="edge15" class="edge">
<title>X1:e&#45;&#45;W2:w</title>
<path fill="none" stroke="#000000" stroke-width="2" d="M298,-253C296.77,-251.42 535.77,-64.42 537,-66"/>
<path fill="none" stroke="#ff0000" stroke-width="2" d="M298,-253C298,-253 537,-66 537,-66"/>
<path fill="none" stroke="#000000" stroke-width="2" d="M298,-253C299.23,-254.58 538.23,-67.58 537,-66"/>
</g>
<!-- X2 -->
<g id="node2" class="node">
<title>X2</title>
<polygon fill="#ffffff" stroke="black" points="1531,-519.5 1166,-519.5 1166,-316.5 1531,-316.5 1531,-519.5"/>
<polygon fill="#ffffff" stroke="transparent" points="1166,-316.5 1166,-519.5 1531,-519.5 1531,-316.5 1166,-316.5"/>
<polygon fill="#ffffff" stroke="transparent" points="1166.5,-496 1166.5,-519 1531.5,-519 1531.5,-496 1166.5,-496"/>
<polygon fill="none" stroke="black" points="1166.5,-496 1166.5,-519 1531.5,-519 1531.5,-496 1166.5,-496"/>
<text text-anchor="start" x="1329" y="-504.8" font-family="arial" font-size="14.00"> </text>
<text text-anchor="start" x="1334" y="-504.8" font-family="arial" font-weight="bold" font-size="14.00"> X2 </text>
<text text-anchor="start" x="1364" y="-504.8" font-family="arial" font-size="14.00"> </text>
<polygon fill="none" stroke="black" points="1166.5,-473 1166.5,-496 1256.5,-496 1256.5,-473 1166.5,-473"/>
<text text-anchor="start" x="1170.5" y="-480.8" font-family="arial" font-size="14.00"> P/N: CON4 </text>
<polygon fill="none" stroke="black" points="1256.5,-473 1256.5,-496 1395.5,-496 1395.5,-473 1256.5,-473"/>
<text text-anchor="start" x="1260.5" y="-480.8" font-family="arial" font-size="14.00"> Molex: 22013047 </text>
<polygon fill="none" stroke="black" points="1395.5,-473 1395.5,-496 1531.5,-496 1531.5,-473 1395.5,-473"/>
<text text-anchor="start" x="1399.5" y="-480.8" font-family="arial" font-size="14.00"> Digimouse: 1234 </text>
<polygon fill="none" stroke="black" points="1166.5,-450 1166.5,-473 1323.5,-473 1323.5,-450 1166.5,-450"/>
<text text-anchor="start" x="1193" y="-457.8" font-family="arial" font-size="14.00"> Molex KK 254 </text>
<polygon fill="none" stroke="black" points="1323.5,-450 1323.5,-473 1433.5,-473 1433.5,-450 1323.5,-450"/>
<text text-anchor="start" x="1350" y="-457.8" font-family="arial" font-size="14.00"> female </text>
<polygon fill="none" stroke="black" points="1433.5,-450 1433.5,-473 1531.5,-473 1531.5,-450 1433.5,-450"/>
<text text-anchor="start" x="1459.5" y="-457.8" font-family="arial" font-size="14.00"> 4&#45;pin </text>
<polygon fill="none" stroke="black" points="1166.5,-427 1166.5,-450 1288.5,-450 1288.5,-427 1166.5,-427"/>
<text text-anchor="start" x="1218" y="-434.8" font-family="arial" font-size="14.00"> 1 </text>
<polygon fill="none" stroke="black" points="1288.5,-427 1288.5,-450 1531.5,-450 1531.5,-427 1288.5,-427"/>
<text text-anchor="start" x="1387" y="-434.8" font-family="arial" font-size="14.00"> None </text>
<polygon fill="none" stroke="black" points="1166.5,-404 1166.5,-427 1288.5,-427 1288.5,-404 1166.5,-404"/>
<text text-anchor="start" x="1218" y="-411.8" font-family="arial" font-size="14.00"> 2 </text>
<polygon fill="none" stroke="black" points="1288.5,-404 1288.5,-427 1531.5,-427 1531.5,-404 1288.5,-404"/>
<text text-anchor="start" x="1387" y="-411.8" font-family="arial" font-size="14.00"> None </text>
<polygon fill="none" stroke="black" points="1166.5,-381 1166.5,-404 1288.5,-404 1288.5,-381 1166.5,-381"/>
<text text-anchor="start" x="1218" y="-388.8" font-family="arial" font-size="14.00"> 3 </text>
<polygon fill="none" stroke="black" points="1288.5,-381 1288.5,-404 1531.5,-404 1531.5,-381 1288.5,-381"/>
<text text-anchor="start" x="1387" y="-388.8" font-family="arial" font-size="14.00"> None </text>
<polygon fill="none" stroke="black" points="1166.5,-358 1166.5,-381 1288.5,-381 1288.5,-358 1166.5,-358"/>
<text text-anchor="start" x="1218" y="-365.8" font-family="arial" font-size="14.00"> 4 </text>
<polygon fill="none" stroke="black" points="1288.5,-358 1288.5,-381 1531.5,-381 1531.5,-358 1288.5,-358"/>
<text text-anchor="start" x="1387" y="-365.8" font-family="arial" font-size="14.00"> None </text>
<text text-anchor="start" x="1192.5" y="-343.8" font-family="arial" font-size="14.00"> 4.0 </text>
<text text-anchor="start" x="1230.5" y="-343.8" font-family="arial" font-size="14.00"> </text>
<text text-anchor="start" x="1263.5" y="-343.8" font-family="arial" font-size="14.00"> Crimp, Molex KK 254, 22&#45;30 AWG </text>
<text text-anchor="start" x="1192.5" y="-322.8" font-family="arial" font-size="14.00"> 1.0 </text>
<text text-anchor="start" x="1230.5" y="-322.8" font-family="arial" font-size="14.00"> </text>
<text text-anchor="start" x="1263.5" y="-322.8" font-family="arial" font-size="14.00"> Test </text>
</g>
<!-- X3 -->
<g id="node3" class="node">
<title>X3</title>
<polygon fill="#ffffff" stroke="black" points="1497.5,-254.5 1199.5,-254.5 1199.5,-51.5 1497.5,-51.5 1497.5,-254.5"/>
<polygon fill="#ffffff" stroke="transparent" points="1199.5,-51.5 1199.5,-254.5 1497.5,-254.5 1497.5,-51.5 1199.5,-51.5"/>
<polygon fill="#ffffff" stroke="transparent" points="1199.5,-231 1199.5,-254 1497.5,-254 1497.5,-231 1199.5,-231"/>
<polygon fill="none" stroke="black" points="1199.5,-231 1199.5,-254 1497.5,-254 1497.5,-231 1199.5,-231"/>
<text text-anchor="start" x="1328.5" y="-239.8" font-family="arial" font-size="14.00"> </text>
<text text-anchor="start" x="1333.5" y="-239.8" font-family="arial" font-weight="bold" font-size="14.00"> X3 </text>
<text text-anchor="start" x="1363.5" y="-239.8" font-family="arial" font-size="14.00"> </text>
<polygon fill="none" stroke="black" points="1199.5,-208 1199.5,-231 1350.5,-231 1350.5,-208 1199.5,-208"/>
<text text-anchor="start" x="1209.5" y="-215.8" font-family="arial" font-size="14.00"> Molex: 22013047 </text>
<polygon fill="none" stroke="black" points="1350.5,-208 1350.5,-231 1497.5,-231 1497.5,-208 1350.5,-208"/>
<text text-anchor="start" x="1360" y="-215.8" font-family="arial" font-size="14.00"> Digimouse: 1234 </text>
<polygon fill="none" stroke="black" points="1199.5,-185 1199.5,-208 1334.5,-208 1334.5,-185 1199.5,-185"/>
<text text-anchor="start" x="1215" y="-192.8" font-family="arial" font-size="14.00"> Molex KK 254 </text>
<polygon fill="none" stroke="black" points="1334.5,-185 1334.5,-208 1421.5,-208 1421.5,-185 1334.5,-185"/>
<text text-anchor="start" x="1349.5" y="-192.8" font-family="arial" font-size="14.00"> female </text>
<polygon fill="none" stroke="black" points="1421.5,-185 1421.5,-208 1497.5,-208 1497.5,-185 1421.5,-185"/>
<text text-anchor="start" x="1436.5" y="-192.8" font-family="arial" font-size="14.00"> 4&#45;pin </text>
<polygon fill="none" stroke="black" points="1199.5,-162 1199.5,-185 1299.5,-185 1299.5,-162 1199.5,-162"/>
<text text-anchor="start" x="1240" y="-169.8" font-family="arial" font-size="14.00"> 1 </text>
<polygon fill="none" stroke="black" points="1299.5,-162 1299.5,-185 1497.5,-185 1497.5,-162 1299.5,-162"/>
<text text-anchor="start" x="1375.5" y="-169.8" font-family="arial" font-size="14.00"> None </text>
<polygon fill="none" stroke="black" points="1199.5,-139 1199.5,-162 1299.5,-162 1299.5,-139 1199.5,-139"/>
<text text-anchor="start" x="1240" y="-146.8" font-family="arial" font-size="14.00"> 2 </text>
<polygon fill="none" stroke="black" points="1299.5,-139 1299.5,-162 1497.5,-162 1497.5,-139 1299.5,-139"/>
<text text-anchor="start" x="1375.5" y="-146.8" font-family="arial" font-size="14.00"> None </text>
<polygon fill="none" stroke="black" points="1199.5,-116 1199.5,-139 1299.5,-139 1299.5,-116 1199.5,-116"/>
<text text-anchor="start" x="1240" y="-123.8" font-family="arial" font-size="14.00"> 3 </text>
<polygon fill="none" stroke="black" points="1299.5,-116 1299.5,-139 1497.5,-139 1497.5,-116 1299.5,-116"/>
<text text-anchor="start" x="1375.5" y="-123.8" font-family="arial" font-size="14.00"> None </text>
<polygon fill="none" stroke="black" points="1199.5,-93 1199.5,-116 1299.5,-116 1299.5,-93 1199.5,-93"/>
<text text-anchor="start" x="1240" y="-100.8" font-family="arial" font-size="14.00"> 4 </text>
<polygon fill="none" stroke="black" points="1299.5,-93 1299.5,-116 1497.5,-116 1497.5,-93 1299.5,-93"/>
<text text-anchor="start" x="1375.5" y="-100.8" font-family="arial" font-size="14.00"> None </text>
<text text-anchor="start" x="1202.5" y="-78.8" font-family="arial" font-size="14.00"> 4.0 </text>
<text text-anchor="start" x="1240.5" y="-78.8" font-family="arial" font-size="14.00"> </text>
<text text-anchor="start" x="1251.5" y="-78.8" font-family="arial" font-size="14.00"> Crimp, Molex KK 254, 22&#45;30 AWG </text>
<text text-anchor="start" x="1202.5" y="-57.8" font-family="arial" font-size="14.00"> 1.0 </text>
<text text-anchor="start" x="1240.5" y="-57.8" font-family="arial" font-size="14.00"> </text>
<text text-anchor="start" x="1251.5" y="-57.8" font-family="arial" font-size="14.00"> Test </text>
</g>
<!-- W1&#45;&#45;X2 -->
<g id="edge2" class="edge">
<title>W1:e&#45;&#45;X2:w</title>
<path fill="none" stroke="#000000" stroke-width="2" d="M950,-441C949.98,-439 1165.98,-437 1166,-439"/>
<path fill="none" stroke="#895956" stroke-width="2" d="M950,-441C950,-441 1166,-439 1166,-439"/>
<path fill="none" stroke="#000000" stroke-width="2" d="M950,-441C950.02,-443 1166.02,-441 1166,-439"/>
</g>
<!-- W1&#45;&#45;X2 -->
<g id="edge4" class="edge">
<title>W1:e&#45;&#45;X2:w</title>
<path fill="none" stroke="#000000" stroke-width="2" d="M950,-416C949.99,-414 1165.99,-413 1166,-415"/>
<path fill="none" stroke="#ff0000" stroke-width="2" d="M950,-416C950,-416 1166,-415 1166,-415"/>
<path fill="none" stroke="#000000" stroke-width="2" d="M950,-416C950.01,-418 1166.01,-417 1166,-415"/>
</g>
<!-- W1&#45;&#45;X2 -->
<g id="edge6" class="edge">
<title>W1:e&#45;&#45;X2:w</title>
<path fill="none" stroke="#000000" stroke-width="2" d="M950,-391C950.01,-389 1166.01,-390 1166,-392"/>
<path fill="none" stroke="#ff8000" stroke-width="2" d="M950,-391C950,-391 1166,-392 1166,-392"/>
<path fill="none" stroke="#000000" stroke-width="2" d="M950,-391C949.99,-393 1165.99,-394 1166,-392"/>
</g>
<!-- W1&#45;&#45;X2 -->
<g id="edge8" class="edge">
<title>W1:e&#45;&#45;X2:w</title>
<path fill="none" stroke="#000000" stroke-width="2" d="M950,-366C950.03,-364 1166.03,-367 1166,-369"/>
<path fill="none" stroke="#ffff00" stroke-width="2" d="M950,-366C950,-366 1166,-369 1166,-369"/>
<path fill="none" stroke="#000000" stroke-width="2" d="M950,-366C949.97,-368 1165.97,-371 1166,-369"/>
</g>
<!-- W2&#45;&#45;X3 -->
<g id="edge10" class="edge">
<title>W2:e&#45;&#45;X3:w</title>
<path fill="none" stroke="#000000" stroke-width="2" d="M928,-210C927.74,-208.02 1198.24,-172.02 1198.5,-174"/>
<path fill="none" stroke="#ffff00" stroke-width="2" d="M928,-210C928,-210 1198.5,-174 1198.5,-174"/>
<path fill="none" stroke="#000000" stroke-width="2" d="M928,-210C928.26,-211.98 1198.76,-175.98 1198.5,-174"/>
</g>
<!-- W2&#45;&#45;X3 -->
<g id="edge12" class="edge">
<title>W2:e&#45;&#45;X3:w</title>
<path fill="none" stroke="#000000" stroke-width="2" d="M928,-162C927.91,-160 1198.41,-148 1198.5,-150"/>
<path fill="none" stroke="#000000" stroke-width="2" d="M928,-162C928,-162 1198.5,-150 1198.5,-150"/>
<path fill="none" stroke="#000000" stroke-width="2" d="M928,-162C928.09,-164 1198.59,-152 1198.5,-150"/>
</g>
<!-- W2&#45;&#45;X3 -->
<g id="edge14" class="edge">
<title>W2:e&#45;&#45;X3:w</title>
<path fill="none" stroke="#000000" stroke-width="2" d="M928,-114C928.1,-112 1198.6,-125 1198.5,-127"/>
<path fill="none" stroke="#000000" stroke-width="2" d="M928,-114C928,-114 1198.5,-127 1198.5,-127"/>
<path fill="none" stroke="#000000" stroke-width="2" d="M928,-114C927.9,-116 1198.4,-129 1198.5,-127"/>
</g>
<!-- W2&#45;&#45;X3 -->
<g id="edge16" class="edge">
<title>W2:e&#45;&#45;X3:w</title>
<path fill="none" stroke="#000000" stroke-width="2" d="M928,-66C928.28,-64.02 1198.78,-102.02 1198.5,-104"/>
<path fill="none" stroke="#ff0000" stroke-width="2" d="M928,-66C928,-66 1198.5,-104 1198.5,-104"/>
<path fill="none" stroke="#000000" stroke-width="2" d="M928,-66C927.72,-67.98 1198.22,-105.98 1198.5,-104"/>
</g>
</g>
</svg>
