<?xml version="1.0" encoding="UTF-8" standalone="no"?>
<!DOCTYPE svg PUBLIC "-//W3C//DTD SVG 1.1//EN"
 "http://www.w3.org/Graphics/SVG/1.1/DTD/svg11.dtd">
<!-- Generated by graphviz version 2.43.0 (0)
 -->
<!-- Title: %3 Pages: 1 -->
<svg width="730pt" height="192pt"
 viewBox="0.00 0.00 730.00 192.00" xmlns="http://www.w3.org/2000/svg" xmlns:xlink="http://www.w3.org/1999/xlink">
<g id="graph0" class="graph" transform="scale(1 1) rotate(0) translate(4 188)">
<title>%3</title>
<polygon fill="#ffffff" stroke="transparent" points="-4,4 -4,-188 726,-188 726,4 -4,4"/>
<!-- X1 -->
<g id="node1" class="node">
<title>X1</title>
<polygon fill="#ffffff" stroke="black" points="81,-152 0,-152 0,-14 81,-14 81,-152"/>
<polygon fill="#ffffff" stroke="transparent" points="0,-14 0,-152 81,-152 81,-14 0,-14"/>
<polygon fill="#ffffff" stroke="transparent" points="0.5,-129 0.5,-152 81.5,-152 81.5,-129 0.5,-129"/>
<polygon fill="none" stroke="black" points="0.5,-129 0.5,-152 81.5,-152 81.5,-129 0.5,-129"/>
<text text-anchor="start" x="21" y="-137.8" font-family="arial" font-size="14.00"> </text>
<text text-anchor="start" x="26" y="-137.8" font-family="arial" font-weight="bold" font-size="14.00"> X1 </text>
<text text-anchor="start" x="56" y="-137.8" font-family="arial" font-size="14.00"> </text>
<polygon fill="none" stroke="black" points="0.5,-106 0.5,-129 23.5,-129 23.5,-106 0.5,-106"/>
<text text-anchor="start" x="7" y="-113.8" font-family="arial" font-size="14.00"> &#160;</text>
<polygon fill="none" stroke="black" points="23.5,-106 23.5,-129 81.5,-129 81.5,-106 23.5,-106"/>
<text text-anchor="start" x="29.5" y="-113.8" font-family="arial" font-size="14.00"> 4&#45;pin </text>
<polygon fill="none" stroke="black" points="0.5,-83 0.5,-106 54.5,-106 54.5,-83 0.5,-83"/>
<text text-anchor="start" x="4.5" y="-90.8" font-family="arial" font-size="14.00"> None </text>
<polygon fill="none" stroke="black" points="54.5,-83 54.5,-106 81.5,-106 81.5,-83 54.5,-83"/>
<text text-anchor="start" x="58.5" y="-90.8" font-family="arial" font-size="14.00"> 1 </text>
<polygon fill="none" stroke="black" points="0.5,-60 0.5,-83 54.5,-83 54.5,-60 0.5,-60"/>
<text text-anchor="start" x="4.5" y="-67.8" font-family="arial" font-size="14.00"> None </text>
<polygon fill="none" stroke="black" points="54.5,-60 54.5,-83 81.5,-83 81.5,-60 54.5,-60"/>
<text text-anchor="start" x="58.5" y="-67.8" font-family="arial" font-size="14.00"> 2 </text>
<polygon fill="none" stroke="black" points="0.5,-37 0.5,-60 54.5,-60 54.5,-37 0.5,-37"/>
<text text-anchor="start" x="4.5" y="-44.8" font-family="arial" font-size="14.00"> None </text>
<polygon fill="none" stroke="black" points="54.5,-37 54.5,-60 81.5,-60 81.5,-37 54.5,-37"/>
<text text-anchor="start" x="58.5" y="-44.8" font-family="arial" font-size="14.00"> 3 </text>
<polygon fill="none" stroke="black" points="0.5,-14 0.5,-37 54.5,-37 54.5,-14 0.5,-14"/>
<text text-anchor="start" x="4.5" y="-21.8" font-family="arial" font-size="14.00"> None </text>
<polygon fill="none" stroke="black" points="54.5,-14 54.5,-37 81.5,-37 81.5,-14 54.5,-14"/>
<text text-anchor="start" x="58.5" y="-21.8" font-family="arial" font-size="14.00"> 4 </text>
</g>
<!-- W1 -->
<g id="node3" class="node">
<title>W1</title>
<polygon fill="#ffffff" stroke="black" points="425,-184 297,-184 297,0 425,0 425,-184"/>
<polygon fill="#ffffff" stroke="transparent" points="297,0 297,-184 425,-184 425,0 297,0"/>
<polygon fill="#ffffff" stroke="transparent" points="297,-161 297,-184 425,-184 425,-161 297,-161"/>
<polygon fill="none" stroke="black" points="297,-161 297,-184 425,-184 425,-161 297,-161"/>
<text text-anchor="start" x="338.5" y="-169.8" font-family="arial" font-size="14.00"> </text>
<text text-anchor="start" x="343.5" y="-169.8" font-family="arial" font-weight="bold" font-size="14.00"> W1 </text>
<text text-anchor="start" x="378.5" y="-169.8" font-family="arial" font-size="14.00"> </text>
<polygon fill="none" stroke="black" points="297,-138 297,-161 356,-161 356,-138 297,-138"/>
<text text-anchor="start" x="313" y="-145.8" font-family="arial" font-size="14.00"> 4x </text>
<polygon fill="none" stroke="black" points="356,-138 356,-161 425,-161 425,-138 356,-138"/>
<text text-anchor="start" x="372" y="-145.8" font-family="arial" font-size="14.00"> 1 m </text>
<text text-anchor="start" x="317.5" y="-124.8" font-family="arial" font-size="14.00"> </text>
<text text-anchor="start" x="299" y="-105.8" font-family="arial" font-size="14.00"> X1:1 </text>
<text text-anchor="start" x="345" y="-105.8" font-family="arial" font-size="14.00"> </text>
<text text-anchor="start" x="354" y="-105.8" font-family="arial" font-size="14.00"> 1 </text>
<text text-anchor="start" x="377" y="-105.8" font-family="arial" font-size="14.00"> </text>
<text text-anchor="start" x="386" y="-105.8" font-family="arial" font-size="14.00"> X2:1</text>
<polygon fill="#000000" stroke="transparent" points="297,-98 297,-100 425,-100 425,-98 297,-98"/>
<polygon fill="#ffffff" stroke="transparent" points="297,-96 297,-98 425,-98 425,-96 297,-96"/>
<polygon fill="#000000" stroke="transparent" points="297,-94 297,-96 425,-96 425,-94 297,-94"/>
<text text-anchor="start" x="299" y="-80.8" font-family="arial" font-size="14.00"> X1:2 </text>
<text text-anchor="start" x="345" y="-80.8" font-family="arial" font-size="14.00"> </text>
<text text-anchor="start" x="354" y="-80.8" font-family="arial" font-size="14.00"> 2 </text>
<text text-anchor="start" x="377" y="-80.8" font-family="arial" font-size="14.00"> </text>
<text text-anchor="start" x="386" y="-80.8" font-family="arial" font-size="14.00"> X2:2</text>
<polygon fill="#000000" stroke="transparent" points="297,-73 297,-75 425,-75 425,-73 297,-73"/>
<polygon fill="#ffffff" stroke="transparent" points="297,-71 297,-73 425,-73 425,-71 297,-71"/>
<polygon fill="#000000" stroke="transparent" points="297,-69 297,-71 425,-71 425,-69 297,-69"/>
<text text-anchor="start" x="299" y="-55.8" font-family="arial" font-size="14.00"> X1:3 </text>
<text text-anchor="start" x="345" y="-55.8" font-family="arial" font-size="14.00"> </text>
<text text-anchor="start" x="354" y="-55.8" font-family="arial" font-size="14.00"> 3 </text>
<text text-anchor="start" x="377" y="-55.8" font-family="arial" font-size="14.00"> </text>
<text text-anchor="start" x="386" y="-55.8" font-family="arial" font-size="14.00"> X2:3</text>
<polygon fill="#000000" stroke="transparent" points="297,-48 297,-50 425,-50 425,-48 297,-48"/>
<polygon fill="#ffffff" stroke="transparent" points="297,-46 297,-48 425,-48 425,-46 297,-46"/>
<polygon fill="#000000" stroke="transparent" points="297,-44 297,-46 425,-46 425,-44 297,-44"/>
<text text-anchor="start" x="299" y="-30.8" font-family="arial" font-size="14.00"> X1:4 </text>
<text text-anchor="start" x="345" y="-30.8" font-family="arial" font-size="14.00"> </text>
<text text-anchor="start" x="354" y="-30.8" font-family="arial" font-size="14.00"> 4 </text>
<text text-anchor="start" x="377" y="-30.8" font-family="arial" font-size="14.00"> </text>
<text text-anchor="start" x="386" y="-30.8" font-family="arial" font-size="14.00"> X2:4</text>
<polygon fill="#000000" stroke="transparent" points="297,-23 297,-25 425,-25 425,-23 297,-23"/>
<polygon fill="#ffffff" stroke="transparent" points="297,-21 297,-23 425,-23 425,-21 297,-21"/>
<polygon fill="#000000" stroke="transparent" points="297,-19 297,-21 425,-21 425,-19 297,-19"/>
<text text-anchor="start" x="317.5" y="-5.8" font-family="arial" font-size="14.00"> </text>
</g>
<!-- X1&#45;&#45;W1 -->
<g id="edge1" class="edge">
<title>X1:e&#45;&#45;W1:w</title>
<path fill="none" stroke="#000000" stroke-width="2" d="M81,-95C81,-95 297,-97 297,-97"/>
</g>
<!-- X1&#45;&#45;W1 -->
<g id="edge3" class="edge">
<title>X1:e&#45;&#45;W1:w</title>
<path fill="none" stroke="#000000" stroke-width="2" d="M81,-71C81,-71 297,-72 297,-72"/>
</g>
<!-- X1&#45;&#45;W1 -->
<g id="edge5" class="edge">
<title>X1:e&#45;&#45;W1:w</title>
<path fill="none" stroke="#000000" stroke-width="2" d="M81,-48C81,-48 297,-47 297,-47"/>
</g>
<!-- X1&#45;&#45;W1 -->
<g id="edge7" class="edge">
<title>X1:e&#45;&#45;W1:w</title>
<path fill="none" stroke="#000000" stroke-width="2" d="M81,-25C81,-25 297,-22 297,-22"/>
</g>
<!-- X2 -->
<g id="node2" class="node">
<title>X2</title>
<polygon fill="#ffffff" stroke="black" points="722,-152 641,-152 641,-14 722,-14 722,-152"/>
<polygon fill="#ffffff" stroke="transparent" points="641,-14 641,-152 722,-152 722,-14 641,-14"/>
<polygon fill="#ffffff" stroke="transparent" points="641.5,-129 641.5,-152 722.5,-152 722.5,-129 641.5,-129"/>
<polygon fill="none" stroke="black" points="641.5,-129 641.5,-152 722.5,-152 722.5,-129 641.5,-129"/>
<text text-anchor="start" x="662" y="-137.8" font-family="arial" font-size="14.00"> </text>
<text text-anchor="start" x="667" y="-137.8" font-family="arial" font-weight="bold" font-size="14.00"> X2 </text>
<text text-anchor="start" x="697" y="-137.8" font-family="arial" font-size="14.00"> </text>
<polygon fill="none" stroke="black" points="641.5,-106 641.5,-129 664.5,-129 664.5,-106 641.5,-106"/>
<text text-anchor="start" x="648" y="-113.8" font-family="arial" font-size="14.00"> &#160;</text>
<polygon fill="none" stroke="black" points="664.5,-106 664.5,-129 722.5,-129 722.5,-106 664.5,-106"/>
<text text-anchor="start" x="670.5" y="-113.8" font-family="arial" font-size="14.00"> 4&#45;pin </text>
<polygon fill="none" stroke="black" points="641.5,-83 641.5,-106 668.5,-106 668.5,-83 641.5,-83"/>
<text text-anchor="start" x="645.5" y="-90.8" font-family="arial" font-size="14.00"> 1 </text>
<polygon fill="none" stroke="black" points="668.5,-83 668.5,-106 722.5,-106 722.5,-83 668.5,-83"/>
<text text-anchor="start" x="672.5" y="-90.8" font-family="arial" font-size="14.00"> None </text>
<polygon fill="none" stroke="black" points="641.5,-60 641.5,-83 668.5,-83 668.5,-60 641.5,-60"/>
<text text-anchor="start" x="645.5" y="-67.8" font-family="arial" font-size="14.00"> 2 </text>
<polygon fill="none" stroke="black" points="668.5,-60 668.5,-83 722.5,-83 722.5,-60 668.5,-60"/>
<text text-anchor="start" x="672.5" y="-67.8" font-family="arial" font-size="14.00"> None </text>
<polygon fill="none" stroke="black" points="641.5,-37 641.5,-60 668.5,-60 668.5,-37 641.5,-37"/>
<text text-anchor="start" x="645.5" y="-44.8" font-family="arial" font-size="14.00"> 3 </text>
<polygon fill="none" stroke="black" points="668.5,-37 668.5,-60 722.5,-60 722.5,-37 668.5,-37"/>
<text text-anchor="start" x="672.5" y="-44.8" font-family="arial" font-size="14.00"> None </text>
<polygon fill="none" stroke="black" points="641.5,-14 641.5,-37 668.5,-37 668.5,-14 641.5,-14"/>
<text text-anchor="start" x="645.5" y="-21.8" font-family="arial" font-size="14.00"> 4 </text>
<polygon fill="none" stroke="black" points="668.5,-14 668.5,-37 722.5,-37 722.5,-14 668.5,-14"/>
<text text-anchor="start" x="672.5" y="-21.8" font-family="arial" font-size="14.00"> None </text>
</g>
<!-- W1&#45;&#45;X2 -->
<g id="edge2" class="edge">
<title>W1:e&#45;&#45;X2:w</title>
<path fill="none" stroke="#000000" stroke-width="2" d="M425,-97C425,-97 641,-95 641,-95"/>
</g>
<!-- W1&#45;&#45;X2 -->
<g id="edge4" class="edge">
<title>W1:e&#45;&#45;X2:w</title>
<path fill="none" stroke="#000000" stroke-width="2" d="M425,-72C425,-72 641,-71 641,-71"/>
</g>
<!-- W1&#45;&#45;X2 -->
<g id="edge6" class="edge">
<title>W1:e&#45;&#45;X2:w</title>
<path fill="none" stroke="#000000" stroke-width="2" d="M425,-47C425,-47 641,-48 641,-48"/>
</g>
<!-- W1&#45;&#45;X2 -->
<g id="edge8" class="edge">
<title>W1:e&#45;&#45;X2:w</title>
<path fill="none" stroke="#000000" stroke-width="2" d="M425,-22C425,-22 641,-25 641,-25"/>
</g>
</g>
</svg>
