<?xml version="1.0" encoding="UTF-8" standalone="no"?>
<!DOCTYPE svg PUBLIC "-//W3C//DTD SVG 1.1//EN"
 "http://www.w3.org/Graphics/SVG/1.1/DTD/svg11.dtd">
<!-- Generated by graphviz version 2.43.0 (0)
 -->
<!-- Title: %3 Pages: 1 -->
<svg width="1181pt" height="236pt"
 viewBox="0.00 0.00 1181.00 236.00" xmlns="http://www.w3.org/2000/svg" xmlns:xlink="http://www.w3.org/1999/xlink">
<g id="graph0" class="graph" transform="scale(1 1) rotate(0) translate(4 232)">
<title>%3</title>
<polygon fill="#ffffff" stroke="transparent" points="-4,4 -4,-232 1177,-232 1177,4 -4,4"/>
<!-- X1 -->
<g id="node1" class="node">
<title>X1</title>
<polygon fill="#ffffff" stroke="black" points="231,-195 0,-195 0,-57 231,-57 231,-195"/>
<polygon fill="#ffffff" stroke="transparent" points="0,-57 0,-195 231,-195 231,-57 0,-57"/>
<polygon fill="#ffffff" stroke="transparent" points="0.5,-172 0.5,-195 231.5,-195 231.5,-172 0.5,-172"/>
<polygon fill="none" stroke="black" points="0.5,-172 0.5,-195 231.5,-195 231.5,-172 0.5,-172"/>
<text text-anchor="start" x="96" y="-180.8" font-family="arial" font-size="14.00"> </text>
<text text-anchor="start" x="101" y="-180.8" font-family="arial" font-weight="bold" font-size="14.00"> X1 </text>
<text text-anchor="start" x="131" y="-180.8" font-family="arial" font-size="14.00"> </text>
<polygon fill="none" stroke="black" points="0.5,-149 0.5,-172 112.5,-172 112.5,-149 0.5,-149"/>
<text text-anchor="start" x="4.5" y="-156.8" font-family="arial" font-size="14.00"> Molex KK 254 </text>
<polygon fill="none" stroke="black" points="112.5,-149 112.5,-172 177.5,-172 177.5,-149 112.5,-149"/>
<text text-anchor="start" x="116.5" y="-156.8" font-family="arial" font-size="14.00"> female </text>
<polygon fill="none" stroke="black" points="177.5,-149 177.5,-172 231.5,-172 231.5,-149 177.5,-149"/>
<text text-anchor="start" x="181.5" y="-156.8" font-family="arial" font-size="14.00"> 4&#45;pin </text>
<polygon fill="none" stroke="black" points="0.5,-126 0.5,-149 153.5,-149 153.5,-126 0.5,-126"/>
<text text-anchor="start" x="56.5" y="-133.8" font-family="arial" font-size="14.00"> GND </text>
<polygon fill="none" stroke="black" points="153.5,-126 153.5,-149 231.5,-149 231.5,-126 153.5,-126"/>
<text text-anchor="start" x="183" y="-133.8" font-family="arial" font-size="14.00"> 1 </text>
<polygon fill="none" stroke="black" points="0.5,-103 0.5,-126 153.5,-126 153.5,-103 0.5,-103"/>
<text text-anchor="start" x="57.5" y="-110.8" font-family="arial" font-size="14.00"> VCC </text>
<polygon fill="none" stroke="black" points="153.5,-103 153.5,-126 231.5,-126 231.5,-103 153.5,-103"/>
<text text-anchor="start" x="183" y="-110.8" font-family="arial" font-size="14.00"> 2 </text>
<polygon fill="none" stroke="black" points="0.5,-80 0.5,-103 153.5,-103 153.5,-80 0.5,-80"/>
<text text-anchor="start" x="62.5" y="-87.8" font-family="arial" font-size="14.00"> RX </text>
<polygon fill="none" stroke="black" points="153.5,-80 153.5,-103 231.5,-103 231.5,-80 153.5,-80"/>
<text text-anchor="start" x="183" y="-87.8" font-family="arial" font-size="14.00"> 3 </text>
<polygon fill="none" stroke="black" points="0.5,-57 0.5,-80 153.5,-80 153.5,-57 0.5,-57"/>
<text text-anchor="start" x="63" y="-64.8" font-family="arial" font-size="14.00"> TX </text>
<polygon fill="none" stroke="black" points="153.5,-57 153.5,-80 231.5,-80 231.5,-57 153.5,-57"/>
<text text-anchor="start" x="183" y="-64.8" font-family="arial" font-size="14.00"> 4 </text>
</g>
<!-- W1 -->
<g id="node3" class="node">
<title>W1</title>
<polygon fill="#ffffff" stroke="black" points="726,-228 447,-228 447,0 726,0 726,-228"/>
<polygon fill="#ffffff" stroke="transparent" points="447,0 447,-228 726,-228 726,0 447,0"/>
<polygon fill="#ffffff" stroke="transparent" points="447.5,-205 447.5,-228 726.5,-228 726.5,-205 447.5,-205"/>
<polygon fill="none" stroke="black" points="447.5,-205 447.5,-228 726.5,-228 726.5,-205 447.5,-205"/>
<text text-anchor="start" x="564.5" y="-213.8" font-family="arial" font-size="14.00"> </text>
<text text-anchor="start" x="569.5" y="-213.8" font-family="arial" font-weight="bold" font-size="14.00"> W1 </text>
<text text-anchor="start" x="604.5" y="-213.8" font-family="arial" font-size="14.00"> </text>
<polygon fill="none" stroke="black" points="447.5,-182 447.5,-205 482.5,-205 482.5,-182 447.5,-182"/>
<text text-anchor="start" x="451.5" y="-189.8" font-family="arial" font-size="14.00"> 4x </text>
<polygon fill="none" stroke="black" points="482.5,-182 482.5,-205 638.5,-205 638.5,-182 482.5,-182"/>
<text text-anchor="start" x="486.5" y="-189.8" font-family="arial" font-size="14.00"> 0.25 mm² (24 AWG) </text>
<polygon fill="none" stroke="black" points="638.5,-182 638.5,-205 681.5,-205 681.5,-182 638.5,-182"/>
<text text-anchor="start" x="642.5" y="-189.8" font-family="arial" font-size="14.00"> + S </text>
<polygon fill="none" stroke="black" points="681.5,-182 681.5,-205 726.5,-205 726.5,-182 681.5,-182"/>
<text text-anchor="start" x="685.5" y="-189.8" font-family="arial" font-size="14.00"> 1 m </text>
<text text-anchor="start" x="491" y="-168.8" font-family="arial" font-size="14.00"> </text>
<text text-anchor="start" x="449.5" y="-149.8" font-family="arial" font-size="14.00"> X1:1:GND </text>
<text text-anchor="start" x="546" y="-149.8" font-family="arial" font-size="14.00"> </text>
<text text-anchor="start" x="566.5" y="-149.8" font-family="arial" font-size="14.00"> 1:WH </text>
<text text-anchor="start" x="629" y="-149.8" font-family="arial" font-size="14.00"> </text>
<text text-anchor="start" x="651.5" y="-149.8" font-family="arial" font-size="14.00"> X2:1:GND</text>
<polygon fill="#000000" stroke="transparent" points="447.5,-142 447.5,-144 726.5,-144 726.5,-142 447.5,-142"/>
<polygon fill="#ffffff" stroke="transparent" points="447.5,-140 447.5,-142 726.5,-142 726.5,-140 447.5,-140"/>
<polygon fill="#000000" stroke="transparent" points="447.5,-138 447.5,-140 726.5,-140 726.5,-138 447.5,-138"/>
<text text-anchor="start" x="449.5" y="-124.8" font-family="arial" font-size="14.00"> X1:2:VCC </text>
<text text-anchor="start" x="546" y="-124.8" font-family="arial" font-size="14.00"> </text>
<text text-anchor="start" x="568.5" y="-124.8" font-family="arial" font-size="14.00"> 2:BN </text>
<text text-anchor="start" x="629" y="-124.8" font-family="arial" font-size="14.00"> </text>
<text text-anchor="start" x="653.5" y="-124.8" font-family="arial" font-size="14.00"> X2:2:VCC</text>
<polygon fill="#000000" stroke="transparent" points="447.5,-117 447.5,-119 726.5,-119 726.5,-117 447.5,-117"/>
<polygon fill="#895956" stroke="transparent" points="447.5,-115 447.5,-117 726.5,-117 726.5,-115 447.5,-115"/>
<polygon fill="#000000" stroke="transparent" points="447.5,-113 447.5,-115 726.5,-115 726.5,-113 447.5,-113"/>
<text text-anchor="start" x="449.5" y="-99.8" font-family="arial" font-size="14.00"> X1:3:RX </text>
<text text-anchor="start" x="546" y="-99.8" font-family="arial" font-size="14.00"> </text>
<text text-anchor="start" x="568" y="-99.8" font-family="arial" font-size="14.00"> 3:GN </text>
<text text-anchor="start" x="629" y="-99.8" font-family="arial" font-size="14.00"> </text>
<text text-anchor="start" x="664.5" y="-99.8" font-family="arial" font-size="14.00"> X2:4:TX</text>
<polygon fill="#000000" stroke="transparent" points="447.5,-92 447.5,-94 726.5,-94 726.5,-92 447.5,-92"/>
<polygon fill="#00aa00" stroke="transparent" points="447.5,-90 447.5,-92 726.5,-92 726.5,-90 447.5,-90"/>
<polygon fill="#000000" stroke="transparent" points="447.5,-88 447.5,-90 726.5,-90 726.5,-88 447.5,-88"/>
<text text-anchor="start" x="449.5" y="-74.8" font-family="arial" font-size="14.00"> X1:4:TX </text>
<text text-anchor="start" x="546" y="-74.8" font-family="arial" font-size="14.00"> </text>
<text text-anchor="start" x="570" y="-74.8" font-family="arial" font-size="14.00"> 4:YE </text>
<text text-anchor="start" x="629" y="-74.8" font-family="arial" font-size="14.00"> </text>
<text text-anchor="start" x="663.5" y="-74.8" font-family="arial" font-size="14.00"> X2:3:RX</text>
<polygon fill="#000000" stroke="transparent" points="447.5,-67 447.5,-69 726.5,-69 726.5,-67 447.5,-67"/>
<polygon fill="#ffff00" stroke="transparent" points="447.5,-65 447.5,-67 726.5,-67 726.5,-65 447.5,-65"/>
<polygon fill="#000000" stroke="transparent" points="447.5,-63 447.5,-65 726.5,-65 726.5,-63 447.5,-63"/>
<text text-anchor="start" x="491" y="-49.8" font-family="arial" font-size="14.00"> </text>
<text text-anchor="start" x="449.5" y="-30.8" font-family="arial" font-size="14.00"> X1:1:GND </text>
<text text-anchor="start" x="546" y="-30.8" font-family="arial" font-size="14.00"> </text>
<text text-anchor="start" x="564" y="-30.8" font-family="arial" font-size="14.00"> Shield </text>
<text text-anchor="start" x="629" y="-30.8" font-family="arial" font-size="14.00"> </text>
<text text-anchor="start" x="719.5" y="-30.8" font-family="arial" font-size="14.00"> </text>
<polygon fill="#000000" stroke="transparent" points="447.5,-23 447.5,-25 726.5,-25 726.5,-23 447.5,-23"/>
<polygon fill="#ffffff" stroke="transparent" points="447.5,-21 447.5,-23 726.5,-23 726.5,-21 447.5,-21"/>
<polygon fill="#000000" stroke="transparent" points="447.5,-19 447.5,-21 726.5,-21 726.5,-19 447.5,-19"/>
<text text-anchor="start" x="491" y="-5.8" font-family="arial" font-size="14.00"> </text>
</g>
<!-- X1&#45;&#45;W1 -->
<g id="edge1" class="edge">
<title>X1:e&#45;&#45;W1:w</title>
<path fill="none" stroke="#000000" stroke-width="2" d="M231,-138C231.03,-136 447.03,-139 447,-141"/>
<path fill="none" stroke="#ffffff" stroke-width="2" d="M231,-138C231,-138 447,-141 447,-141"/>
<path fill="none" stroke="#000000" stroke-width="2" d="M231,-138C230.97,-140 446.97,-143 447,-141"/>
</g>
<!-- X1&#45;&#45;W1 -->
<g id="edge3" class="edge">
<title>X1:e&#45;&#45;W1:w</title>
<path fill="none" stroke="#000000" stroke-width="2" d="M231,-114C231.02,-112 447.02,-114 447,-116"/>
<path fill="none" stroke="#895956" stroke-width="2" d="M231,-114C231,-114 447,-116 447,-116"/>
<path fill="none" stroke="#000000" stroke-width="2" d="M231,-114C230.98,-116 446.98,-118 447,-116"/>
</g>
<!-- X1&#45;&#45;W1 -->
<g id="edge5" class="edge">
<title>X1:e&#45;&#45;W1:w</title>
<path fill="none" stroke="#000000" stroke-width="2" d="M231,-91C231,-89 447,-89 447,-91"/>
<path fill="none" stroke="#00aa00" stroke-width="2" d="M231,-91C231,-91 447,-91 447,-91"/>
<path fill="none" stroke="#000000" stroke-width="2" d="M231,-91C231,-93 447,-93 447,-91"/>
</g>
<!-- X1&#45;&#45;W1 -->
<g id="edge7" class="edge">
<title>X1:e&#45;&#45;W1:w</title>
<path fill="none" stroke="#000000" stroke-width="2" d="M231,-68C230.98,-66 446.98,-64 447,-66"/>
<path fill="none" stroke="#ffff00" stroke-width="2" d="M231,-68C231,-68 447,-66 447,-66"/>
<path fill="none" stroke="#000000" stroke-width="2" d="M231,-68C231.02,-70 447.02,-68 447,-66"/>
</g>
<!-- X1&#45;&#45;W1 -->
<g id="edge9" class="edge">
<title>X1:e&#45;&#45;W1:w</title>
<path fill="none" stroke="#000000" stroke-width="2" d="M231,-138C231,-138 447,-22 447,-22"/>
</g>
<!-- X2 -->
<g id="node2" class="node">
<title>X2</title>
<polygon fill="#ffffff" stroke="black" points="1173,-197 942,-197 942,-59 1173,-59 1173,-197"/>
<polygon fill="#ffffff" stroke="transparent" points="942,-59 942,-197 1173,-197 1173,-59 942,-59"/>
<polygon fill="#ffffff" stroke="transparent" points="942.5,-174 942.5,-197 1173.5,-197 1173.5,-174 942.5,-174"/>
<polygon fill="none" stroke="black" points="942.5,-174 942.5,-197 1173.5,-197 1173.5,-174 942.5,-174"/>
<text text-anchor="start" x="1038" y="-182.8" font-family="arial" font-size="14.00"> </text>
<text text-anchor="start" x="1043" y="-182.8" font-family="arial" font-weight="bold" font-size="14.00"> X2 </text>
<text text-anchor="start" x="1073" y="-182.8" font-family="arial" font-size="14.00"> </text>
<polygon fill="none" stroke="black" points="942.5,-151 942.5,-174 1054.5,-174 1054.5,-151 942.5,-151"/>
<text text-anchor="start" x="946.5" y="-158.8" font-family="arial" font-size="14.00"> Molex KK 254 </text>
<polygon fill="none" stroke="black" points="1054.5,-151 1054.5,-174 1119.5,-174 1119.5,-151 1054.5,-151"/>
<text text-anchor="start" x="1058.5" y="-158.8" font-family="arial" font-size="14.00"> female </text>
<polygon fill="none" stroke="black" points="1119.5,-151 1119.5,-174 1173.5,-174 1173.5,-151 1119.5,-151"/>
<text text-anchor="start" x="1123.5" y="-158.8" font-family="arial" font-size="14.00"> 4&#45;pin </text>
<polygon fill="none" stroke="black" points="942.5,-128 942.5,-151 1021.5,-151 1021.5,-128 942.5,-128"/>
<text text-anchor="start" x="972.5" y="-135.8" font-family="arial" font-size="14.00"> 1 </text>
<polygon fill="none" stroke="black" points="1021.5,-128 1021.5,-151 1173.5,-151 1173.5,-128 1021.5,-128"/>
<text text-anchor="start" x="1077" y="-135.8" font-family="arial" font-size="14.00"> GND </text>
<polygon fill="none" stroke="black" points="942.5,-105 942.5,-128 1021.5,-128 1021.5,-105 942.5,-105"/>
<text text-anchor="start" x="972.5" y="-112.8" font-family="arial" font-size="14.00"> 2 </text>
<polygon fill="none" stroke="black" points="1021.5,-105 1021.5,-128 1173.5,-128 1173.5,-105 1021.5,-105"/>
<text text-anchor="start" x="1078" y="-112.8" font-family="arial" font-size="14.00"> VCC </text>
<polygon fill="none" stroke="black" points="942.5,-82 942.5,-105 1021.5,-105 1021.5,-82 942.5,-82"/>
<text text-anchor="start" x="972.5" y="-89.8" font-family="arial" font-size="14.00"> 3 </text>
<polygon fill="none" stroke="black" points="1021.5,-82 1021.5,-105 1173.5,-105 1173.5,-82 1021.5,-82"/>
<text text-anchor="start" x="1083" y="-89.8" font-family="arial" font-size="14.00"> RX </text>
<polygon fill="none" stroke="black" points="942.5,-59 942.5,-82 1021.5,-82 1021.5,-59 942.5,-59"/>
<text text-anchor="start" x="972.5" y="-66.8" font-family="arial" font-size="14.00"> 4 </text>
<polygon fill="none" stroke="black" points="1021.5,-59 1021.5,-82 1173.5,-82 1173.5,-59 1021.5,-59"/>
<text text-anchor="start" x="1083.5" y="-66.8" font-family="arial" font-size="14.00"> TX </text>
</g>
<!-- W1&#45;&#45;X2 -->
<g id="edge2" class="edge">
<title>W1:e&#45;&#45;X2:w</title>
<path fill="none" stroke="#000000" stroke-width="2" d="M726,-141C725.99,-139 941.99,-138 942,-140"/>
<path fill="none" stroke="#ffffff" stroke-width="2" d="M726,-141C726,-141 942,-140 942,-140"/>
<path fill="none" stroke="#000000" stroke-width="2" d="M726,-141C726.01,-143 942.01,-142 942,-140"/>
</g>
<!-- W1&#45;&#45;X2 -->
<g id="edge4" class="edge">
<title>W1:e&#45;&#45;X2:w</title>
<path fill="none" stroke="#000000" stroke-width="2" d="M726,-116C726,-114 942,-114 942,-116"/>
<path fill="none" stroke="#895956" stroke-width="2" d="M726,-116C726,-116 942,-116 942,-116"/>
<path fill="none" stroke="#000000" stroke-width="2" d="M726,-116C726,-118 942,-118 942,-116"/>
</g>
<!-- W1&#45;&#45;X2 -->
<g id="edge6" class="edge">
<title>W1:e&#45;&#45;X2:w</title>
<path fill="none" stroke="#000000" stroke-width="2" d="M726,-91C725.81,-89.01 941.81,-68.01 942,-70"/>
<path fill="none" stroke="#00aa00" stroke-width="2" d="M726,-91C726,-91 942,-70 942,-70"/>
<path fill="none" stroke="#000000" stroke-width="2" d="M726,-91C726.19,-92.99 942.19,-71.99 942,-70"/>
</g>
<!-- W1&#45;&#45;X2 -->
<g id="edge8" class="edge">
<title>W1:e&#45;&#45;X2:w</title>
<path fill="none" stroke="#000000" stroke-width="2" d="M726,-66C726.25,-64.02 942.25,-91.02 942,-93"/>
<path fill="none" stroke="#ffff00" stroke-width="2" d="M726,-66C726,-66 942,-93 942,-93"/>
<path fill="none" stroke="#000000" stroke-width="2" d="M726,-66C725.75,-67.98 941.75,-94.98 942,-93"/>
</g>
</g>
</svg>
